<?xml version="1.0" encoding="utf-8" standalone="no"?>
<!DOCTYPE svg PUBLIC "-//W3C//DTD SVG 1.1//EN"
  "http://www.w3.org/Graphics/SVG/1.1/DTD/svg11.dtd">
<svg height="345.6pt" version="1.1" viewBox="0 0 460.8 345.6" width="460.8pt" xmlns="http://www.w3.org/2000/svg" xmlns:xlink="http://www.w3.org/1999/xlink">
 <metadata>
  <rdf:RDF xmlns:cc="http://creativecommons.org/ns#" xmlns:dc="http://purl.org/dc/elements/1.1/" xmlns:rdf="http://www.w3.org/1999/02/22-rdf-syntax-ns#">
   <cc:Work>
    <dc:type rdf:resource="http://purl.org/dc/dcmitype/StillImage"/>
    <dc:date>2021-06-25T16:27:19.020691</dc:date>
    <dc:format>image/svg+xml</dc:format>
    <dc:creator>
     <cc:Agent>
      <dc:title>Matplotlib v3.4.2, https://matplotlib.org/</dc:title>
     </cc:Agent>
    </dc:creator>
   </cc:Work>
  </rdf:RDF>
 </metadata>
 <defs>
  <style type="text/css">*{stroke-linecap:butt;stroke-linejoin:round;}</style>
 </defs>
 <g id="figure_1">
  <g id="patch_1">
   <path d="M 0 345.6 
L 460.8 345.6 
L 460.8 0 
L 0 0 
z
" style="fill:#ffffff;"/>
  </g>
  <g id="axes_1">
   <g id="patch_2">
    <path d="M 57.6 307.584 
L 414.72 307.584 
L 414.72 41.472 
L 57.6 41.472 
z
" style="fill:#ffffff;"/>
   </g>
   <g id="PolyCollection_1">
    <defs>
     <path d="M 73.832727 -38.027392 
L 73.832727 -38.016 
L 75.427024 -38.016 
L 77.02132 -38.016 
L 78.615616 -38.016 
L 80.209912 -38.016 
L 81.804208 -38.016 
L 83.398505 -38.016 
L 84.992801 -38.016 
L 86.587097 -38.016 
L 88.181393 -38.016 
L 89.77569 -38.016 
L 91.369986 -38.016 
L 92.964282 -38.016 
L 94.558578 -38.016 
L 96.152875 -38.016 
L 97.747171 -38.016 
L 99.341467 -38.016 
L 100.935763 -38.016 
L 102.530059 -38.016 
L 104.124356 -38.016 
L 105.718652 -38.016 
L 107.312948 -38.016 
L 108.907244 -38.016 
L 110.501541 -38.016 
L 112.095837 -38.016 
L 113.690133 -38.016 
L 115.284429 -38.016 
L 116.878725 -38.016 
L 118.473022 -38.016 
L 120.067318 -38.016 
L 121.661614 -38.016 
L 123.25591 -38.016 
L 124.850207 -38.016 
L 126.444503 -38.016 
L 128.038799 -38.016 
L 129.633095 -38.016 
L 131.227392 -38.016 
L 132.821688 -38.016 
L 134.415984 -38.016 
L 136.01028 -38.016 
L 137.604576 -38.016 
L 139.198873 -38.016 
L 140.793169 -38.016 
L 142.387465 -38.016 
L 143.981761 -38.016 
L 145.576058 -38.016 
L 147.170354 -38.016 
L 148.76465 -38.016 
L 150.358946 -38.016 
L 151.953243 -38.016 
L 153.547539 -38.016 
L 155.141835 -38.016 
L 156.736131 -38.016 
L 158.330427 -38.016 
L 159.924724 -38.016 
L 161.51902 -38.016 
L 163.113316 -38.016 
L 164.707612 -38.016 
L 166.301909 -38.016 
L 167.896205 -38.016 
L 169.490501 -38.016 
L 171.084797 -38.016 
L 172.679094 -38.016 
L 174.27339 -38.016 
L 175.867686 -38.016 
L 177.461982 -38.016 
L 179.056278 -38.016 
L 180.650575 -38.016 
L 182.244871 -38.016 
L 183.839167 -38.016 
L 185.433463 -38.016 
L 187.02776 -38.016 
L 188.622056 -38.016 
L 190.216352 -38.016 
L 191.810648 -38.016 
L 193.404945 -38.016 
L 194.999241 -38.016 
L 196.593537 -38.016 
L 198.187833 -38.016 
L 199.782129 -38.016 
L 201.376426 -38.016 
L 202.970722 -38.016 
L 204.565018 -38.016 
L 206.159314 -38.016 
L 207.753611 -38.016 
L 209.347907 -38.016 
L 210.942203 -38.016 
L 212.536499 -38.016 
L 214.130796 -38.016 
L 215.725092 -38.016 
L 217.319388 -38.016 
L 218.913684 -38.016 
L 220.50798 -38.016 
L 222.102277 -38.016 
L 223.696573 -38.016 
L 225.290869 -38.016 
L 226.885165 -38.016 
L 228.479462 -38.016 
L 230.073758 -38.016 
L 231.668054 -38.016 
L 233.26235 -38.016 
L 234.856647 -38.016 
L 236.450943 -38.016 
L 238.045239 -38.016 
L 239.639535 -38.016 
L 241.233831 -38.016 
L 242.828128 -38.016 
L 244.422424 -38.016 
L 246.01672 -38.016 
L 247.611016 -38.016 
L 249.205313 -38.016 
L 250.799609 -38.016 
L 252.393905 -38.016 
L 253.988201 -38.016 
L 255.582498 -38.016 
L 257.176794 -38.016 
L 258.77109 -38.016 
L 260.365386 -38.016 
L 261.959682 -38.016 
L 263.553979 -38.016 
L 265.148275 -38.016 
L 266.742571 -38.016 
L 268.336867 -38.016 
L 269.931164 -38.016 
L 271.52546 -38.016 
L 273.119756 -38.016 
L 274.714052 -38.016 
L 276.308349 -38.016 
L 277.902645 -38.016 
L 279.496941 -38.016 
L 281.091237 -38.016 
L 282.685533 -38.016 
L 284.27983 -38.016 
L 285.874126 -38.016 
L 287.468422 -38.016 
L 289.062718 -38.016 
L 290.657015 -38.016 
L 292.251311 -38.016 
L 293.845607 -38.016 
L 295.439903 -38.016 
L 297.0342 -38.016 
L 298.628496 -38.016 
L 300.222792 -38.016 
L 301.817088 -38.016 
L 303.411384 -38.016 
L 305.005681 -38.016 
L 306.599977 -38.016 
L 308.194273 -38.016 
L 309.788569 -38.016 
L 311.382866 -38.016 
L 312.977162 -38.016 
L 314.571458 -38.016 
L 316.165754 -38.016 
L 317.760051 -38.016 
L 319.354347 -38.016 
L 320.948643 -38.016 
L 322.542939 -38.016 
L 324.137235 -38.016 
L 325.731532 -38.016 
L 327.325828 -38.016 
L 328.920124 -38.016 
L 330.51442 -38.016 
L 332.108717 -38.016 
L 333.703013 -38.016 
L 335.297309 -38.016 
L 336.891605 -38.016 
L 338.485902 -38.016 
L 340.080198 -38.016 
L 341.674494 -38.016 
L 343.26879 -38.016 
L 344.863086 -38.016 
L 346.457383 -38.016 
L 348.051679 -38.016 
L 349.645975 -38.016 
L 351.240271 -38.016 
L 352.834568 -38.016 
L 354.428864 -38.016 
L 356.02316 -38.016 
L 357.617456 -38.016 
L 359.211753 -38.016 
L 360.806049 -38.016 
L 362.400345 -38.016 
L 363.994641 -38.016 
L 365.588937 -38.016 
L 367.183234 -38.016 
L 368.77753 -38.016 
L 370.371826 -38.016 
L 371.966122 -38.016 
L 373.560419 -38.016 
L 375.154715 -38.016 
L 376.749011 -38.016 
L 378.343307 -38.016 
L 379.937604 -38.016 
L 381.5319 -38.016 
L 383.126196 -38.016 
L 384.720492 -38.016 
L 386.314788 -38.016 
L 387.909085 -38.016 
L 389.503381 -38.016 
L 391.097677 -38.016 
L 391.097677 -38.493647 
L 391.097677 -38.493647 
L 389.503381 -38.712114 
L 387.909085 -39.018589 
L 386.314788 -39.443048 
L 384.720492 -40.023394 
L 383.126196 -40.806679 
L 381.5319 -41.850208 
L 379.937604 -43.222374 
L 378.343307 -45.00306 
L 376.749011 -47.283421 
L 375.154715 -50.164835 
L 373.560419 -53.756844 
L 371.966122 -58.173913 
L 370.371826 -63.530917 
L 368.77753 -69.937326 
L 367.183234 -77.490201 
L 365.588937 -86.266217 
L 363.994641 -96.313095 
L 362.400345 -107.640958 
L 360.806049 -120.214233 
L 359.211753 -133.944832 
L 357.617456 -148.687343 
L 356.02316 -164.236934 
L 354.428864 -180.330557 
L 352.834568 -196.65184 
L 351.240271 -212.8398 
L 349.645975 -228.501203 
L 348.051679 -243.226081 
L 346.457383 -256.605583 
L 344.863086 -268.251111 
L 343.26879 -277.813473 
L 341.674494 -285.000718 
L 340.080198 -289.593382 
L 338.485902 -291.456 
L 336.891605 -290.544021 
L 335.297309 -286.905638 
L 333.703013 -280.678417 
L 332.108717 -272.081022 
L 330.51442 -261.40073 
L 328.920124 -248.977712 
L 327.325828 -235.187267 
L 325.731532 -220.421299 
L 324.137235 -205.070281 
L 322.542939 -189.506851 
L 320.948643 -174.07191 
L 319.354347 -159.063895 
L 317.760051 -144.731509 
L 316.165754 -131.269974 
L 314.571458 -118.820562 
L 312.977162 -107.472958 
L 311.382866 -97.269895 
L 309.788569 -88.213387 
L 308.194273 -80.271912 
L 306.599977 -73.387938 
L 305.005681 -67.485257 
L 303.411384 -62.475741 
L 301.817088 -58.265225 
L 300.222792 -54.758368 
L 298.628496 -51.862439 
L 297.0342 -49.490075 
L 295.439903 -47.561101 
L 293.845607 -46.003569 
L 292.251311 -44.754164 
L 290.657015 -43.758161 
L 289.062718 -42.969055 
L 287.468422 -42.348017 
L 285.874126 -41.863269 
L 284.27983 -41.489451 
L 282.685533 -41.207042 
L 281.091237 -41.001847 
L 279.496941 -40.864578 
L 277.902645 -40.790503 
L 276.308349 -40.77917 
L 274.714052 -40.834157 
L 273.119756 -40.962844 
L 271.52546 -41.176151 
L 269.931164 -41.488234 
L 268.336867 -41.916087 
L 266.742571 -42.479039 
L 265.148275 -43.198113 
L 263.553979 -44.09524 
L 261.959682 -45.192327 
L 260.365386 -46.510171 
L 258.77109 -48.067272 
L 257.176794 -49.878548 
L 255.582498 -51.954034 
L 253.988201 -54.297614 
L 252.393905 -56.905871 
L 250.799609 -59.76713 
L 249.205313 -62.860788 
L 247.611016 -66.156989 
L 246.01672 -69.616734 
L 244.422424 -73.19244 
L 242.828128 -76.828989 
L 241.233831 -80.46526 
L 239.639535 -84.036082 
L 238.045239 -87.474567 
L 236.450943 -90.714723 
L 234.856647 -93.694215 
L 233.26235 -96.35718 
L 231.668054 -98.656922 
L 230.073758 -100.558387 
L 228.479462 -102.040275 
L 226.885165 -103.096672 
L 225.290869 -103.738131 
L 223.696573 -103.992112 
L 222.102277 -103.902746 
L 220.50798 -103.529908 
L 218.913684 -102.947588 
L 217.319388 -102.241612 
L 215.725092 -101.506751 
L 214.130796 -100.843307 
L 212.536499 -100.353277 
L 210.942203 -100.136216 
L 209.347907 -100.284951 
L 207.753611 -100.881315 
L 206.159314 -101.992071 
L 204.565018 -103.665237 
L 202.970722 -105.92698 
L 201.376426 -108.77929 
L 199.782129 -112.198565 
L 198.187833 -116.135271 
L 196.593537 -120.514727 
L 194.999241 -125.239066 
L 193.404945 -130.190326 
L 191.810648 -135.234567 
L 190.216352 -140.226851 
L 188.622056 -145.016858 
L 187.02776 -149.454855 
L 185.433463 -153.397735 
L 183.839167 -156.7148 
L 182.244871 -159.292987 
L 180.650575 -161.041281 
L 179.056278 -161.894084 
L 177.461982 -161.813391 
L 175.867686 -160.789698 
L 174.27339 -158.841626 
L 172.679094 -156.014342 
L 171.084797 -152.376908 
L 169.490501 -148.018741 
L 167.896205 -143.045412 
L 166.301909 -137.574034 
L 164.707612 -131.728466 
L 163.113316 -125.634583 
L 161.51902 -119.415817 
L 159.924724 -113.189137 
L 158.330427 -107.061614 
L 156.736131 -101.127652 
L 155.141835 -95.46695 
L 153.547539 -90.143212 
L 151.953243 -85.203575 
L 150.358946 -80.678727 
L 148.76465 -76.583637 
L 147.170354 -72.918819 
L 145.576058 -69.672021 
L 143.981761 -66.820253 
L 142.387465 -64.33202 
L 140.793169 -62.169665 
L 139.198873 -60.291703 
L 137.604576 -58.655054 
L 136.01028 -57.217073 
L 134.415984 -55.937325 
L 132.821688 -54.77901 
L 131.227392 -53.71005 
L 129.633095 -52.703777 
L 128.038799 -51.739266 
L 126.444503 -50.801314 
L 124.850207 -49.880125 
L 123.25591 -48.970749 
L 121.661614 -48.072344 
L 120.067318 -47.187325 
L 118.473022 -46.320475 
L 116.878725 -45.478066 
L 115.284429 -44.667046 
L 113.690133 -43.89434 
L 112.095837 -43.166271 
L 110.501541 -42.488136 
L 108.907244 -41.86392 
L 107.312948 -41.29615 
L 105.718652 -40.785871 
L 104.124356 -40.332719 
L 102.530059 -39.935073 
L 100.935763 -39.590256 
L 99.341467 -39.294759 
L 97.747171 -39.044488 
L 96.152875 -38.834983 
L 94.558578 -38.661632 
L 92.964282 -38.519849 
L 91.369986 -38.405217 
L 89.77569 -38.313597 
L 88.181393 -38.241207 
L 86.587097 -38.184664 
L 84.992801 -38.141003 
L 83.398505 -38.107675 
L 81.804208 -38.082524 
L 80.209912 -38.063761 
L 78.615616 -38.049925 
L 77.02132 -38.039838 
L 75.427024 -38.03257 
L 73.832727 -38.027392 
z
" id="mb455df8104" style="stroke:#ff7f0e;"/>
    </defs>
    <g clip-path="url(#p1b9ed9c7cb)">
     <use style="fill:#ff7f0e;fill-opacity:0.25;stroke:#ff7f0e;" x="0" xlink:href="#mb455df8104" y="345.6"/>
    </g>
   </g>
   <g id="PolyCollection_2">
    <defs>
     <path d="M 119.530085 -38.147687 
L 119.530085 -38.016 
L 120.93188 -38.016 
L 122.333675 -38.016 
L 123.73547 -38.016 
L 125.137265 -38.016 
L 126.53906 -38.016 
L 127.940855 -38.016 
L 129.342649 -38.016 
L 130.744444 -38.016 
L 132.146239 -38.016 
L 133.548034 -38.016 
L 134.949829 -38.016 
L 136.351624 -38.016 
L 137.753419 -38.016 
L 139.155214 -38.016 
L 140.557009 -38.016 
L 141.958804 -38.016 
L 143.360599 -38.016 
L 144.762393 -38.016 
L 146.164188 -38.016 
L 147.565983 -38.016 
L 148.967778 -38.016 
L 150.369573 -38.016 
L 151.771368 -38.016 
L 153.173163 -38.016 
L 154.574958 -38.016 
L 155.976753 -38.016 
L 157.378548 -38.016 
L 158.780343 -38.016 
L 160.182138 -38.016 
L 161.583932 -38.016 
L 162.985727 -38.016 
L 164.387522 -38.016 
L 165.789317 -38.016 
L 167.191112 -38.016 
L 168.592907 -38.016 
L 169.994702 -38.016 
L 171.396497 -38.016 
L 172.798292 -38.016 
L 174.200087 -38.016 
L 175.601882 -38.016 
L 177.003676 -38.016 
L 178.405471 -38.016 
L 179.807266 -38.016 
L 181.209061 -38.016 
L 182.610856 -38.016 
L 184.012651 -38.016 
L 185.414446 -38.016 
L 186.816241 -38.016 
L 188.218036 -38.016 
L 189.619831 -38.016 
L 191.021626 -38.016 
L 192.423421 -38.016 
L 193.825215 -38.016 
L 195.22701 -38.016 
L 196.628805 -38.016 
L 198.0306 -38.016 
L 199.432395 -38.016 
L 200.83419 -38.016 
L 202.235985 -38.016 
L 203.63778 -38.016 
L 205.039575 -38.016 
L 206.44137 -38.016 
L 207.843165 -38.016 
L 209.244959 -38.016 
L 210.646754 -38.016 
L 212.048549 -38.016 
L 213.450344 -38.016 
L 214.852139 -38.016 
L 216.253934 -38.016 
L 217.655729 -38.016 
L 219.057524 -38.016 
L 220.459319 -38.016 
L 221.861114 -38.016 
L 223.262909 -38.016 
L 224.664704 -38.016 
L 226.066498 -38.016 
L 227.468293 -38.016 
L 228.870088 -38.016 
L 230.271883 -38.016 
L 231.673678 -38.016 
L 233.075473 -38.016 
L 234.477268 -38.016 
L 235.879063 -38.016 
L 237.280858 -38.016 
L 238.682653 -38.016 
L 240.084448 -38.016 
L 241.486242 -38.016 
L 242.888037 -38.016 
L 244.289832 -38.016 
L 245.691627 -38.016 
L 247.093422 -38.016 
L 248.495217 -38.016 
L 249.897012 -38.016 
L 251.298807 -38.016 
L 252.700602 -38.016 
L 254.102397 -38.016 
L 255.504192 -38.016 
L 256.905987 -38.016 
L 258.307781 -38.016 
L 259.709576 -38.016 
L 261.111371 -38.016 
L 262.513166 -38.016 
L 263.914961 -38.016 
L 265.316756 -38.016 
L 266.718551 -38.016 
L 268.120346 -38.016 
L 269.522141 -38.016 
L 270.923936 -38.016 
L 272.325731 -38.016 
L 273.727525 -38.016 
L 275.12932 -38.016 
L 276.531115 -38.016 
L 277.93291 -38.016 
L 279.334705 -38.016 
L 280.7365 -38.016 
L 282.138295 -38.016 
L 283.54009 -38.016 
L 284.941885 -38.016 
L 286.34368 -38.016 
L 287.745475 -38.016 
L 289.14727 -38.016 
L 290.549064 -38.016 
L 291.950859 -38.016 
L 293.352654 -38.016 
L 294.754449 -38.016 
L 296.156244 -38.016 
L 297.558039 -38.016 
L 298.959834 -38.016 
L 300.361629 -38.016 
L 301.763424 -38.016 
L 303.165219 -38.016 
L 304.567014 -38.016 
L 305.968808 -38.016 
L 307.370603 -38.016 
L 308.772398 -38.016 
L 310.174193 -38.016 
L 311.575988 -38.016 
L 312.977783 -38.016 
L 314.379578 -38.016 
L 315.781373 -38.016 
L 317.183168 -38.016 
L 318.584963 -38.016 
L 319.986758 -38.016 
L 321.388553 -38.016 
L 322.790347 -38.016 
L 324.192142 -38.016 
L 325.593937 -38.016 
L 326.995732 -38.016 
L 328.397527 -38.016 
L 329.799322 -38.016 
L 331.201117 -38.016 
L 332.602912 -38.016 
L 334.004707 -38.016 
L 335.406502 -38.016 
L 336.808297 -38.016 
L 338.210091 -38.016 
L 339.611886 -38.016 
L 341.013681 -38.016 
L 342.415476 -38.016 
L 343.817271 -38.016 
L 345.219066 -38.016 
L 346.620861 -38.016 
L 348.022656 -38.016 
L 349.424451 -38.016 
L 350.826246 -38.016 
L 352.228041 -38.016 
L 353.629836 -38.016 
L 355.03163 -38.016 
L 356.433425 -38.016 
L 357.83522 -38.016 
L 359.237015 -38.016 
L 360.63881 -38.016 
L 362.040605 -38.016 
L 363.4424 -38.016 
L 364.844195 -38.016 
L 366.24599 -38.016 
L 367.647785 -38.016 
L 369.04958 -38.016 
L 370.451374 -38.016 
L 371.853169 -38.016 
L 373.254964 -38.016 
L 374.656759 -38.016 
L 376.058554 -38.016 
L 377.460349 -38.016 
L 378.862144 -38.016 
L 380.263939 -38.016 
L 381.665734 -38.016 
L 383.067529 -38.016 
L 384.469324 -38.016 
L 385.871119 -38.016 
L 387.272913 -38.016 
L 388.674708 -38.016 
L 390.076503 -38.016 
L 391.478298 -38.016 
L 392.880093 -38.016 
L 394.281888 -38.016 
L 395.683683 -38.016 
L 397.085478 -38.016 
L 398.487273 -38.016 
L 398.487273 -38.349444 
L 398.487273 -38.349444 
L 397.085478 -38.48317 
L 395.683683 -38.664655 
L 394.281888 -38.908574 
L 392.880093 -39.233227 
L 391.478298 -39.661135 
L 390.076503 -40.219639 
L 388.674708 -40.941459 
L 387.272913 -41.865179 
L 385.871119 -43.035598 
L 384.469324 -44.503877 
L 383.067529 -46.327423 
L 381.665734 -48.569429 
L 380.263939 -51.298004 
L 378.862144 -54.584833 
L 377.460349 -58.503321 
L 376.058554 -63.126191 
L 374.656759 -68.522558 
L 373.254964 -74.754519 
L 371.853169 -81.873344 
L 370.451374 -89.915404 
L 369.04958 -98.898014 
L 367.647785 -108.815412 
L 366.24599 -119.635109 
L 364.844195 -131.294885 
L 363.4424 -143.700694 
L 362.040605 -156.72572 
L 360.63881 -170.210798 
L 359.237015 -183.966341 
L 357.83522 -197.77585 
L 356.433425 -211.400988 
L 355.03163 -224.588079 
L 353.629836 -237.075846 
L 352.228041 -248.604034 
L 350.826246 -258.922558 
L 349.424451 -267.800707 
L 348.022656 -275.035936 
L 346.620861 -280.461769 
L 345.219066 -283.954376 
L 343.817271 -285.437454 
L 342.415476 -284.885139 
L 341.013681 -282.32278 
L 339.611886 -277.82556 
L 338.210091 -271.515028 
L 336.808297 -263.553791 
L 335.406502 -254.138654 
L 334.004707 -243.492628 
L 332.602912 -231.856238 
L 331.201117 -219.47862 
L 329.799322 -206.608831 
L 328.397527 -193.487807 
L 326.995732 -180.341314 
L 325.593937 -167.374126 
L 324.192142 -154.765637 
L 322.790347 -142.666941 
L 321.388553 -131.199379 
L 319.986758 -120.454452 
L 318.584963 -110.494921 
L 317.183168 -101.356901 
L 315.781373 -93.052691 
L 314.379578 -85.57411 
L 312.977783 -78.896097 
L 311.575988 -72.980353 
L 310.174193 -67.778862 
L 308.772398 -63.23713 
L 307.370603 -59.29705 
L 305.968808 -55.899336 
L 304.567014 -52.985489 
L 303.165219 -50.499316 
L 301.763424 -48.388014 
L 300.361629 -46.602892 
L 298.959834 -45.099756 
L 297.558039 -43.839048 
L 296.156244 -42.785784 
L 294.754449 -41.909349 
L 293.352654 -41.183213 
L 291.950859 -40.584585 
L 290.549064 -40.094063 
L 289.14727 -39.695292 
L 287.745475 -39.374649 
L 286.34368 -39.120967 
L 284.941885 -38.925308 
L 283.54009 -38.780775 
L 282.138295 -38.682379 
L 280.7365 -38.626947 
L 279.334705 -38.613059 
L 277.93291 -38.64103 
L 276.531115 -38.712913 
L 275.12932 -38.832511 
L 273.727525 -39.005412 
L 272.325731 -39.239017 
L 270.923936 -39.542547 
L 269.522141 -39.927043 
L 268.120346 -40.40532 
L 266.718551 -40.991865 
L 265.316756 -41.702687 
L 263.914961 -42.555078 
L 262.513166 -43.567291 
L 261.111371 -44.758126 
L 259.709576 -46.14641 
L 258.307781 -47.750379 
L 256.905987 -49.586967 
L 255.504192 -51.671011 
L 254.102397 -54.014396 
L 252.700602 -56.625165 
L 251.298807 -59.506626 
L 249.897012 -62.656507 
L 248.495217 -66.066191 
L 247.093422 -69.720088 
L 245.691627 -73.595195 
L 244.289832 -77.660875 
L 242.888037 -81.878915 
L 241.486242 -86.203883 
L 240.084448 -90.583791 
L 238.682653 -94.961099 
L 237.280858 -99.274012 
L 235.879063 -103.458071 
L 234.477268 -107.447977 
L 233.075473 -111.179587 
L 231.673678 -114.592027 
L 230.271883 -117.62982 
L 228.870088 -120.244961 
L 227.468293 -122.398839 
L 226.066498 -124.063936 
L 224.664704 -125.225229 
L 223.262909 -125.881222 
L 221.861114 -126.044573 
L 220.459319 -125.742276 
L 219.057524 -125.01539 
L 217.655729 -123.918304 
L 216.253934 -122.51756 
L 214.852139 -120.890264 
L 213.450344 -119.122112 
L 212.048549 -117.305088 
L 210.646754 -115.534894 
L 209.244959 -113.908154 
L 207.843165 -112.519488 
L 206.44137 -111.4585 
L 205.039575 -110.806787 
L 203.63778 -110.635028 
L 202.235985 -111.000262 
L 200.83419 -111.94343 
L 199.432395 -113.4873 
L 198.0306 -115.634837 
L 196.628805 -118.36814 
L 195.22701 -121.648 
L 193.825215 -125.414166 
L 192.423421 -129.586347 
L 191.021626 -134.065977 
L 189.619831 -138.738732 
L 188.218036 -143.477738 
L 186.816241 -148.147403 
L 185.414446 -152.607736 
L 184.012651 -156.719001 
L 182.610856 -160.346528 
L 181.209061 -163.365467 
L 179.807266 -165.66528 
L 178.405471 -167.153762 
L 177.003676 -167.760383 
L 175.601882 -167.438811 
L 174.200087 -166.168458 
L 172.798292 -163.954995 
L 171.396497 -160.82981 
L 169.994702 -156.848426 
L 168.592907 -152.087992 
L 167.191112 -146.643966 
L 165.789317 -140.626188 
L 164.387522 -134.154533 
L 162.985727 -127.354381 
L 161.583932 -120.352129 
L 160.182138 -113.270944 
L 158.780343 -106.226954 
L 157.378548 -99.326023 
L 155.976753 -92.661211 
L 154.574958 -86.310987 
L 153.173163 -80.338196 
L 151.771368 -74.789773 
L 150.369573 -69.697103 
L 148.967778 -65.076968 
L 147.565983 -60.932939 
L 146.164188 -57.257097 
L 144.762393 -54.031966 
L 143.360599 -51.232516 
L 141.958804 -48.828153 
L 140.557009 -46.78459 
L 139.155214 -45.065546 
L 137.753419 -43.63421 
L 136.351624 -42.454457 
L 134.949829 -41.491805 
L 133.548034 -40.714115 
L 132.146239 -40.092059 
L 130.744444 -39.599382 
L 129.342649 -39.212993 
L 127.940855 -38.912912 
L 126.53906 -38.682123 
L 125.137265 -38.506342 
L 123.73547 -38.373747 
L 122.333675 -38.27469 
L 120.93188 -38.201397 
L 119.530085 -38.147687 
z
" id="m6ac2b7eed1" style="stroke:#1f77b4;"/>
    </defs>
    <g clip-path="url(#p1b9ed9c7cb)">
     <use style="fill:#1f77b4;fill-opacity:0.25;stroke:#1f77b4;" x="0" xlink:href="#m6ac2b7eed1" y="345.6"/>
    </g>
   </g>
   <g id="matplotlib.axis_1">
    <g id="xtick_1">
     <g id="line2d_1">
      <defs>
       <path d="M 0 0 
L 0 3.5 
" id="m7a9a14b309" style="stroke:#000000;stroke-width:0.8;"/>
      </defs>
      <g>
       <use style="stroke:#000000;stroke-width:0.8;" x="121.605772" xlink:href="#m7a9a14b309" y="307.584"/>
      </g>
     </g>
     <g id="text_1">
      <!-- −60 -->
      <g transform="translate(111.053428 322.182437)scale(0.1 -0.1)">
       <defs>
        <path d="M 678 2272 
L 4684 2272 
L 4684 1741 
L 678 1741 
L 678 2272 
z
" id="DejaVuSans-2212" transform="scale(0.015625)"/>
        <path d="M 2113 2584 
Q 1688 2584 1439 2293 
Q 1191 2003 1191 1497 
Q 1191 994 1439 701 
Q 1688 409 2113 409 
Q 2538 409 2786 701 
Q 3034 994 3034 1497 
Q 3034 2003 2786 2293 
Q 2538 2584 2113 2584 
z
M 3366 4563 
L 3366 3988 
Q 3128 4100 2886 4159 
Q 2644 4219 2406 4219 
Q 1781 4219 1451 3797 
Q 1122 3375 1075 2522 
Q 1259 2794 1537 2939 
Q 1816 3084 2150 3084 
Q 2853 3084 3261 2657 
Q 3669 2231 3669 1497 
Q 3669 778 3244 343 
Q 2819 -91 2113 -91 
Q 1303 -91 875 529 
Q 447 1150 447 2328 
Q 447 3434 972 4092 
Q 1497 4750 2381 4750 
Q 2619 4750 2861 4703 
Q 3103 4656 3366 4563 
z
" id="DejaVuSans-36" transform="scale(0.015625)"/>
        <path d="M 2034 4250 
Q 1547 4250 1301 3770 
Q 1056 3291 1056 2328 
Q 1056 1369 1301 889 
Q 1547 409 2034 409 
Q 2525 409 2770 889 
Q 3016 1369 3016 2328 
Q 3016 3291 2770 3770 
Q 2525 4250 2034 4250 
z
M 2034 4750 
Q 2819 4750 3233 4129 
Q 3647 3509 3647 2328 
Q 3647 1150 3233 529 
Q 2819 -91 2034 -91 
Q 1250 -91 836 529 
Q 422 1150 422 2328 
Q 422 3509 836 4129 
Q 1250 4750 2034 4750 
z
" id="DejaVuSans-30" transform="scale(0.015625)"/>
       </defs>
       <use xlink:href="#DejaVuSans-2212"/>
       <use x="83.789062" xlink:href="#DejaVuSans-36"/>
       <use x="147.412109" xlink:href="#DejaVuSans-30"/>
      </g>
     </g>
    </g>
    <g id="xtick_2">
     <g id="line2d_2">
      <g>
       <use style="stroke:#000000;stroke-width:0.8;" x="188.992344" xlink:href="#m7a9a14b309" y="307.584"/>
      </g>
     </g>
     <g id="text_2">
      <!-- −40 -->
      <g transform="translate(178.44 322.182437)scale(0.1 -0.1)">
       <defs>
        <path d="M 2419 4116 
L 825 1625 
L 2419 1625 
L 2419 4116 
z
M 2253 4666 
L 3047 4666 
L 3047 1625 
L 3713 1625 
L 3713 1100 
L 3047 1100 
L 3047 0 
L 2419 0 
L 2419 1100 
L 313 1100 
L 313 1709 
L 2253 4666 
z
" id="DejaVuSans-34" transform="scale(0.015625)"/>
       </defs>
       <use xlink:href="#DejaVuSans-2212"/>
       <use x="83.789062" xlink:href="#DejaVuSans-34"/>
       <use x="147.412109" xlink:href="#DejaVuSans-30"/>
      </g>
     </g>
    </g>
    <g id="xtick_3">
     <g id="line2d_3">
      <g>
       <use style="stroke:#000000;stroke-width:0.8;" x="256.378915" xlink:href="#m7a9a14b309" y="307.584"/>
      </g>
     </g>
     <g id="text_3">
      <!-- −20 -->
      <g transform="translate(245.826572 322.182437)scale(0.1 -0.1)">
       <defs>
        <path d="M 1228 531 
L 3431 531 
L 3431 0 
L 469 0 
L 469 531 
Q 828 903 1448 1529 
Q 2069 2156 2228 2338 
Q 2531 2678 2651 2914 
Q 2772 3150 2772 3378 
Q 2772 3750 2511 3984 
Q 2250 4219 1831 4219 
Q 1534 4219 1204 4116 
Q 875 4013 500 3803 
L 500 4441 
Q 881 4594 1212 4672 
Q 1544 4750 1819 4750 
Q 2544 4750 2975 4387 
Q 3406 4025 3406 3419 
Q 3406 3131 3298 2873 
Q 3191 2616 2906 2266 
Q 2828 2175 2409 1742 
Q 1991 1309 1228 531 
z
" id="DejaVuSans-32" transform="scale(0.015625)"/>
       </defs>
       <use xlink:href="#DejaVuSans-2212"/>
       <use x="83.789062" xlink:href="#DejaVuSans-32"/>
       <use x="147.412109" xlink:href="#DejaVuSans-30"/>
      </g>
     </g>
    </g>
    <g id="xtick_4">
     <g id="line2d_4">
      <g>
       <use style="stroke:#000000;stroke-width:0.8;" x="323.765487" xlink:href="#m7a9a14b309" y="307.584"/>
      </g>
     </g>
     <g id="text_4">
      <!-- 0 -->
      <g transform="translate(320.584237 322.182437)scale(0.1 -0.1)">
       <use xlink:href="#DejaVuSans-30"/>
      </g>
     </g>
    </g>
    <g id="xtick_5">
     <g id="line2d_5">
      <g>
       <use style="stroke:#000000;stroke-width:0.8;" x="391.152059" xlink:href="#m7a9a14b309" y="307.584"/>
      </g>
     </g>
     <g id="text_5">
      <!-- 20 -->
      <g transform="translate(384.789559 322.182437)scale(0.1 -0.1)">
       <use xlink:href="#DejaVuSans-32"/>
       <use x="63.623047" xlink:href="#DejaVuSans-30"/>
      </g>
     </g>
    </g>
    <g id="text_6">
     <!-- Score -->
     <g transform="translate(222.157656 335.860562)scale(0.1 -0.1)">
      <defs>
       <path d="M 3425 4513 
L 3425 3897 
Q 3066 4069 2747 4153 
Q 2428 4238 2131 4238 
Q 1616 4238 1336 4038 
Q 1056 3838 1056 3469 
Q 1056 3159 1242 3001 
Q 1428 2844 1947 2747 
L 2328 2669 
Q 3034 2534 3370 2195 
Q 3706 1856 3706 1288 
Q 3706 609 3251 259 
Q 2797 -91 1919 -91 
Q 1588 -91 1214 -16 
Q 841 59 441 206 
L 441 856 
Q 825 641 1194 531 
Q 1563 422 1919 422 
Q 2459 422 2753 634 
Q 3047 847 3047 1241 
Q 3047 1584 2836 1778 
Q 2625 1972 2144 2069 
L 1759 2144 
Q 1053 2284 737 2584 
Q 422 2884 422 3419 
Q 422 4038 858 4394 
Q 1294 4750 2059 4750 
Q 2388 4750 2728 4690 
Q 3069 4631 3425 4513 
z
" id="DejaVuSans-53" transform="scale(0.015625)"/>
       <path d="M 3122 3366 
L 3122 2828 
Q 2878 2963 2633 3030 
Q 2388 3097 2138 3097 
Q 1578 3097 1268 2742 
Q 959 2388 959 1747 
Q 959 1106 1268 751 
Q 1578 397 2138 397 
Q 2388 397 2633 464 
Q 2878 531 3122 666 
L 3122 134 
Q 2881 22 2623 -34 
Q 2366 -91 2075 -91 
Q 1284 -91 818 406 
Q 353 903 353 1747 
Q 353 2603 823 3093 
Q 1294 3584 2113 3584 
Q 2378 3584 2631 3529 
Q 2884 3475 3122 3366 
z
" id="DejaVuSans-63" transform="scale(0.015625)"/>
       <path d="M 1959 3097 
Q 1497 3097 1228 2736 
Q 959 2375 959 1747 
Q 959 1119 1226 758 
Q 1494 397 1959 397 
Q 2419 397 2687 759 
Q 2956 1122 2956 1747 
Q 2956 2369 2687 2733 
Q 2419 3097 1959 3097 
z
M 1959 3584 
Q 2709 3584 3137 3096 
Q 3566 2609 3566 1747 
Q 3566 888 3137 398 
Q 2709 -91 1959 -91 
Q 1206 -91 779 398 
Q 353 888 353 1747 
Q 353 2609 779 3096 
Q 1206 3584 1959 3584 
z
" id="DejaVuSans-6f" transform="scale(0.015625)"/>
       <path d="M 2631 2963 
Q 2534 3019 2420 3045 
Q 2306 3072 2169 3072 
Q 1681 3072 1420 2755 
Q 1159 2438 1159 1844 
L 1159 0 
L 581 0 
L 581 3500 
L 1159 3500 
L 1159 2956 
Q 1341 3275 1631 3429 
Q 1922 3584 2338 3584 
Q 2397 3584 2469 3576 
Q 2541 3569 2628 3553 
L 2631 2963 
z
" id="DejaVuSans-72" transform="scale(0.015625)"/>
       <path d="M 3597 1894 
L 3597 1613 
L 953 1613 
Q 991 1019 1311 708 
Q 1631 397 2203 397 
Q 2534 397 2845 478 
Q 3156 559 3463 722 
L 3463 178 
Q 3153 47 2828 -22 
Q 2503 -91 2169 -91 
Q 1331 -91 842 396 
Q 353 884 353 1716 
Q 353 2575 817 3079 
Q 1281 3584 2069 3584 
Q 2775 3584 3186 3129 
Q 3597 2675 3597 1894 
z
M 3022 2063 
Q 3016 2534 2758 2815 
Q 2500 3097 2075 3097 
Q 1594 3097 1305 2825 
Q 1016 2553 972 2059 
L 3022 2063 
z
" id="DejaVuSans-65" transform="scale(0.015625)"/>
      </defs>
      <use xlink:href="#DejaVuSans-53"/>
      <use x="63.476562" xlink:href="#DejaVuSans-63"/>
      <use x="118.457031" xlink:href="#DejaVuSans-6f"/>
      <use x="179.638672" xlink:href="#DejaVuSans-72"/>
      <use x="218.501953" xlink:href="#DejaVuSans-65"/>
     </g>
    </g>
   </g>
   <g id="matplotlib.axis_2">
    <g id="ytick_1">
     <g id="line2d_6">
      <defs>
       <path d="M 0 0 
L -3.5 0 
" id="m99275e947d" style="stroke:#000000;stroke-width:0.8;"/>
      </defs>
      <g>
       <use style="stroke:#000000;stroke-width:0.8;" x="57.6" xlink:href="#m99275e947d" y="307.584"/>
      </g>
     </g>
     <g id="text_7">
      <!-- 0.000 -->
      <g transform="translate(21.971875 311.383219)scale(0.1 -0.1)">
       <defs>
        <path d="M 684 794 
L 1344 794 
L 1344 0 
L 684 0 
L 684 794 
z
" id="DejaVuSans-2e" transform="scale(0.015625)"/>
       </defs>
       <use xlink:href="#DejaVuSans-30"/>
       <use x="63.623047" xlink:href="#DejaVuSans-2e"/>
       <use x="95.410156" xlink:href="#DejaVuSans-30"/>
       <use x="159.033203" xlink:href="#DejaVuSans-30"/>
       <use x="222.65625" xlink:href="#DejaVuSans-30"/>
      </g>
     </g>
    </g>
    <g id="ytick_2">
     <g id="line2d_7">
      <g>
       <use style="stroke:#000000;stroke-width:0.8;" x="57.6" xlink:href="#m99275e947d" y="253.095057"/>
      </g>
     </g>
     <g id="text_8">
      <!-- 0.005 -->
      <g transform="translate(21.971875 256.894276)scale(0.1 -0.1)">
       <defs>
        <path d="M 691 4666 
L 3169 4666 
L 3169 4134 
L 1269 4134 
L 1269 2991 
Q 1406 3038 1543 3061 
Q 1681 3084 1819 3084 
Q 2600 3084 3056 2656 
Q 3513 2228 3513 1497 
Q 3513 744 3044 326 
Q 2575 -91 1722 -91 
Q 1428 -91 1123 -41 
Q 819 9 494 109 
L 494 744 
Q 775 591 1075 516 
Q 1375 441 1709 441 
Q 2250 441 2565 725 
Q 2881 1009 2881 1497 
Q 2881 1984 2565 2268 
Q 2250 2553 1709 2553 
Q 1456 2553 1204 2497 
Q 953 2441 691 2322 
L 691 4666 
z
" id="DejaVuSans-35" transform="scale(0.015625)"/>
       </defs>
       <use xlink:href="#DejaVuSans-30"/>
       <use x="63.623047" xlink:href="#DejaVuSans-2e"/>
       <use x="95.410156" xlink:href="#DejaVuSans-30"/>
       <use x="159.033203" xlink:href="#DejaVuSans-30"/>
       <use x="222.65625" xlink:href="#DejaVuSans-35"/>
      </g>
     </g>
    </g>
    <g id="ytick_3">
     <g id="line2d_8">
      <g>
       <use style="stroke:#000000;stroke-width:0.8;" x="57.6" xlink:href="#m99275e947d" y="198.606115"/>
      </g>
     </g>
     <g id="text_9">
      <!-- 0.010 -->
      <g transform="translate(21.971875 202.405334)scale(0.1 -0.1)">
       <defs>
        <path d="M 794 531 
L 1825 531 
L 1825 4091 
L 703 3866 
L 703 4441 
L 1819 4666 
L 2450 4666 
L 2450 531 
L 3481 531 
L 3481 0 
L 794 0 
L 794 531 
z
" id="DejaVuSans-31" transform="scale(0.015625)"/>
       </defs>
       <use xlink:href="#DejaVuSans-30"/>
       <use x="63.623047" xlink:href="#DejaVuSans-2e"/>
       <use x="95.410156" xlink:href="#DejaVuSans-30"/>
       <use x="159.033203" xlink:href="#DejaVuSans-31"/>
       <use x="222.65625" xlink:href="#DejaVuSans-30"/>
      </g>
     </g>
    </g>
    <g id="ytick_4">
     <g id="line2d_9">
      <g>
       <use style="stroke:#000000;stroke-width:0.8;" x="57.6" xlink:href="#m99275e947d" y="144.117172"/>
      </g>
     </g>
     <g id="text_10">
      <!-- 0.015 -->
      <g transform="translate(21.971875 147.916391)scale(0.1 -0.1)">
       <use xlink:href="#DejaVuSans-30"/>
       <use x="63.623047" xlink:href="#DejaVuSans-2e"/>
       <use x="95.410156" xlink:href="#DejaVuSans-30"/>
       <use x="159.033203" xlink:href="#DejaVuSans-31"/>
       <use x="222.65625" xlink:href="#DejaVuSans-35"/>
      </g>
     </g>
    </g>
    <g id="ytick_5">
     <g id="line2d_10">
      <g>
       <use style="stroke:#000000;stroke-width:0.8;" x="57.6" xlink:href="#m99275e947d" y="89.62823"/>
      </g>
     </g>
     <g id="text_11">
      <!-- 0.020 -->
      <g transform="translate(21.971875 93.427448)scale(0.1 -0.1)">
       <use xlink:href="#DejaVuSans-30"/>
       <use x="63.623047" xlink:href="#DejaVuSans-2e"/>
       <use x="95.410156" xlink:href="#DejaVuSans-30"/>
       <use x="159.033203" xlink:href="#DejaVuSans-32"/>
       <use x="222.65625" xlink:href="#DejaVuSans-30"/>
      </g>
     </g>
    </g>
    <g id="text_12">
     <!-- Density -->
     <g transform="translate(15.892187 193.536594)rotate(-90)scale(0.1 -0.1)">
      <defs>
       <path d="M 1259 4147 
L 1259 519 
L 2022 519 
Q 2988 519 3436 956 
Q 3884 1394 3884 2338 
Q 3884 3275 3436 3711 
Q 2988 4147 2022 4147 
L 1259 4147 
z
M 628 4666 
L 1925 4666 
Q 3281 4666 3915 4102 
Q 4550 3538 4550 2338 
Q 4550 1131 3912 565 
Q 3275 0 1925 0 
L 628 0 
L 628 4666 
z
" id="DejaVuSans-44" transform="scale(0.015625)"/>
       <path d="M 3513 2113 
L 3513 0 
L 2938 0 
L 2938 2094 
Q 2938 2591 2744 2837 
Q 2550 3084 2163 3084 
Q 1697 3084 1428 2787 
Q 1159 2491 1159 1978 
L 1159 0 
L 581 0 
L 581 3500 
L 1159 3500 
L 1159 2956 
Q 1366 3272 1645 3428 
Q 1925 3584 2291 3584 
Q 2894 3584 3203 3211 
Q 3513 2838 3513 2113 
z
" id="DejaVuSans-6e" transform="scale(0.015625)"/>
       <path d="M 2834 3397 
L 2834 2853 
Q 2591 2978 2328 3040 
Q 2066 3103 1784 3103 
Q 1356 3103 1142 2972 
Q 928 2841 928 2578 
Q 928 2378 1081 2264 
Q 1234 2150 1697 2047 
L 1894 2003 
Q 2506 1872 2764 1633 
Q 3022 1394 3022 966 
Q 3022 478 2636 193 
Q 2250 -91 1575 -91 
Q 1294 -91 989 -36 
Q 684 19 347 128 
L 347 722 
Q 666 556 975 473 
Q 1284 391 1588 391 
Q 1994 391 2212 530 
Q 2431 669 2431 922 
Q 2431 1156 2273 1281 
Q 2116 1406 1581 1522 
L 1381 1569 
Q 847 1681 609 1914 
Q 372 2147 372 2553 
Q 372 3047 722 3315 
Q 1072 3584 1716 3584 
Q 2034 3584 2315 3537 
Q 2597 3491 2834 3397 
z
" id="DejaVuSans-73" transform="scale(0.015625)"/>
       <path d="M 603 3500 
L 1178 3500 
L 1178 0 
L 603 0 
L 603 3500 
z
M 603 4863 
L 1178 4863 
L 1178 4134 
L 603 4134 
L 603 4863 
z
" id="DejaVuSans-69" transform="scale(0.015625)"/>
       <path d="M 1172 4494 
L 1172 3500 
L 2356 3500 
L 2356 3053 
L 1172 3053 
L 1172 1153 
Q 1172 725 1289 603 
Q 1406 481 1766 481 
L 2356 481 
L 2356 0 
L 1766 0 
Q 1100 0 847 248 
Q 594 497 594 1153 
L 594 3053 
L 172 3053 
L 172 3500 
L 594 3500 
L 594 4494 
L 1172 4494 
z
" id="DejaVuSans-74" transform="scale(0.015625)"/>
       <path d="M 2059 -325 
Q 1816 -950 1584 -1140 
Q 1353 -1331 966 -1331 
L 506 -1331 
L 506 -850 
L 844 -850 
Q 1081 -850 1212 -737 
Q 1344 -625 1503 -206 
L 1606 56 
L 191 3500 
L 800 3500 
L 1894 763 
L 2988 3500 
L 3597 3500 
L 2059 -325 
z
" id="DejaVuSans-79" transform="scale(0.015625)"/>
      </defs>
      <use xlink:href="#DejaVuSans-44"/>
      <use x="77.001953" xlink:href="#DejaVuSans-65"/>
      <use x="138.525391" xlink:href="#DejaVuSans-6e"/>
      <use x="201.904297" xlink:href="#DejaVuSans-73"/>
      <use x="254.003906" xlink:href="#DejaVuSans-69"/>
      <use x="281.787109" xlink:href="#DejaVuSans-74"/>
      <use x="320.996094" xlink:href="#DejaVuSans-79"/>
     </g>
    </g>
   </g>
   <g id="patch_3">
    <path d="M 57.6 307.584 
L 57.6 41.472 
" style="fill:none;stroke:#000000;stroke-linecap:square;stroke-linejoin:miter;stroke-width:0.8;"/>
   </g>
   <g id="patch_4">
    <path d="M 414.72 307.584 
L 414.72 41.472 
" style="fill:none;stroke:#000000;stroke-linecap:square;stroke-linejoin:miter;stroke-width:0.8;"/>
   </g>
   <g id="patch_5">
    <path d="M 57.6 307.584 
L 414.72 307.584 
" style="fill:none;stroke:#000000;stroke-linecap:square;stroke-linejoin:miter;stroke-width:0.8;"/>
   </g>
   <g id="patch_6">
    <path d="M 57.6 41.472 
L 414.72 41.472 
" style="fill:none;stroke:#000000;stroke-linecap:square;stroke-linejoin:miter;stroke-width:0.8;"/>
   </g>
   <g id="legend_1">
    <g id="patch_7">
     <path d="M 331.405938 78.82825 
L 407.72 78.82825 
Q 409.72 78.82825 409.72 76.82825 
L 409.72 48.472 
Q 409.72 46.472 407.72 46.472 
L 331.405938 46.472 
Q 329.405938 46.472 329.405938 48.472 
L 329.405938 76.82825 
Q 329.405938 78.82825 331.405938 78.82825 
z
" style="fill:#ffffff;opacity:0.8;stroke:#cccccc;stroke-linejoin:miter;"/>
    </g>
    <g id="patch_8">
     <path d="M 333.405938 58.070437 
L 353.405938 58.070437 
L 353.405938 51.070437 
L 333.405938 51.070437 
z
" style="fill:#1f77b4;fill-opacity:0.25;stroke:#1f77b4;stroke-linejoin:miter;"/>
    </g>
    <g id="text_13">
     <!-- Donor -->
     <g transform="translate(361.405938 58.070437)scale(0.1 -0.1)">
      <use xlink:href="#DejaVuSans-44"/>
      <use x="77.001953" xlink:href="#DejaVuSans-6f"/>
      <use x="138.183594" xlink:href="#DejaVuSans-6e"/>
      <use x="201.5625" xlink:href="#DejaVuSans-6f"/>
      <use x="262.744141" xlink:href="#DejaVuSans-72"/>
     </g>
    </g>
    <g id="patch_9">
     <path d="M 333.405938 72.748562 
L 353.405938 72.748562 
L 353.405938 65.748562 
L 333.405938 65.748562 
z
" style="fill:#ff7f0e;fill-opacity:0.25;stroke:#ff7f0e;stroke-linejoin:miter;"/>
    </g>
    <g id="text_14">
     <!-- Acceptor -->
     <g transform="translate(361.405938 72.748562)scale(0.1 -0.1)">
      <defs>
       <path d="M 2188 4044 
L 1331 1722 
L 3047 1722 
L 2188 4044 
z
M 1831 4666 
L 2547 4666 
L 4325 0 
L 3669 0 
L 3244 1197 
L 1141 1197 
L 716 0 
L 50 0 
L 1831 4666 
z
" id="DejaVuSans-41" transform="scale(0.015625)"/>
       <path d="M 1159 525 
L 1159 -1331 
L 581 -1331 
L 581 3500 
L 1159 3500 
L 1159 2969 
Q 1341 3281 1617 3432 
Q 1894 3584 2278 3584 
Q 2916 3584 3314 3078 
Q 3713 2572 3713 1747 
Q 3713 922 3314 415 
Q 2916 -91 2278 -91 
Q 1894 -91 1617 61 
Q 1341 213 1159 525 
z
M 3116 1747 
Q 3116 2381 2855 2742 
Q 2594 3103 2138 3103 
Q 1681 3103 1420 2742 
Q 1159 2381 1159 1747 
Q 1159 1113 1420 752 
Q 1681 391 2138 391 
Q 2594 391 2855 752 
Q 3116 1113 3116 1747 
z
" id="DejaVuSans-70" transform="scale(0.015625)"/>
      </defs>
      <use xlink:href="#DejaVuSans-41"/>
      <use x="66.658203" xlink:href="#DejaVuSans-63"/>
      <use x="121.638672" xlink:href="#DejaVuSans-63"/>
      <use x="176.619141" xlink:href="#DejaVuSans-65"/>
      <use x="238.142578" xlink:href="#DejaVuSans-70"/>
      <use x="301.619141" xlink:href="#DejaVuSans-74"/>
      <use x="340.828125" xlink:href="#DejaVuSans-6f"/>
      <use x="402.009766" xlink:href="#DejaVuSans-72"/>
     </g>
    </g>
   </g>
  </g>
 </g>
 <defs>
  <clipPath id="p1b9ed9c7cb">
   <rect height="266.112" width="357.12" x="57.6" y="41.472"/>
  </clipPath>
 </defs>
</svg>
