<svg width="1280" height="288" xmlns="http://www.w3.org/2000/svg" xmlns:xlink="http://www.w3.org/1999/xlink" overflow="hidden"><defs><clipPath id="clip0"><rect x="0" y="0" width="1280" height="288"/></clipPath><clipPath id="clip1"><rect x="466" y="12" width="348" height="266"/></clipPath><clipPath id="clip2"><rect x="466" y="12" width="348" height="266"/></clipPath><clipPath id="clip3"><rect x="400" y="-40" width="466" height="367"/></clipPath><clipPath id="clip4"><rect x="458" y="4" width="361" height="283"/></clipPath><clipPath id="clip5"><rect x="458" y="4" width="361" height="283"/></clipPath><clipPath id="clip6"><rect x="458" y="4" width="361" height="283"/></clipPath><clipPath id="clip7"><rect x="458" y="4" width="361" height="283"/></clipPath><clipPath id="clip8"><rect x="458" y="4" width="361" height="283"/></clipPath><clipPath id="clip9"><rect x="458" y="4" width="361" height="283"/></clipPath><clipPath id="clip10"><rect x="458" y="4" width="361" height="283"/></clipPath><clipPath id="clip11"><rect x="458" y="4" width="361" height="283"/></clipPath><clipPath id="clip12"><rect x="458" y="4" width="361" height="283"/></clipPath><clipPath id="clip13"><rect x="458" y="4" width="361" height="283"/></clipPath><clipPath id="clip14"><rect x="458" y="4" width="361" height="283"/></clipPath><clipPath id="clip15"><rect x="458" y="4" width="361" height="283"/></clipPath><clipPath id="clip16"><rect x="458" y="4" width="361" height="283"/></clipPath><clipPath id="clip17"><rect x="458" y="4" width="361" height="283"/></clipPath><clipPath id="clip18"><rect x="458" y="4" width="361" height="283"/></clipPath><clipPath id="clip19"><rect x="458" y="4" width="361" height="283"/></clipPath><clipPath id="clip20"><rect x="458" y="4" width="361" height="283"/></clipPath><clipPath id="clip21"><rect x="458" y="4" width="361" height="283"/></clipPath><clipPath id="clip22"><rect x="458" y="4" width="361" height="283"/></clipPath><clipPath id="clip23"><rect x="458" y="4" width="361" height="283"/></clipPath><clipPath id="clip24"><rect x="458" y="4" width="361" height="283"/></clipPath><clipPath id="clip25"><rect x="458" y="4" width="361" height="283"/></clipPath><clipPath id="clip26"><rect x="458" y="4" width="361" height="283"/></clipPath><clipPath id="clip27"><rect x="458" y="4" width="361" height="283"/></clipPath><clipPath id="clip28"><rect x="458" y="4" width="361" height="283"/></clipPath><clipPath id="clip29"><rect x="458" y="4" width="361" height="283"/></clipPath><clipPath id="clip30"><rect x="458" y="4" width="361" height="283"/></clipPath><clipPath id="clip31"><rect x="458" y="4" width="361" height="283"/></clipPath><clipPath id="clip32"><rect x="458" y="4" width="361" height="283"/></clipPath><clipPath id="clip33"><rect x="458" y="4" width="361" height="283"/></clipPath><clipPath id="clip34"><rect x="458" y="4" width="361" height="283"/></clipPath><clipPath id="clip35"><rect x="458" y="4" width="361" height="283"/></clipPath><clipPath id="clip36"><rect x="458" y="4" width="361" height="283"/></clipPath><clipPath id="clip37"><rect x="458" y="4" width="361" height="283"/></clipPath><clipPath id="clip38"><rect x="458" y="4" width="361" height="283"/></clipPath><clipPath id="clip39"><rect x="458" y="4" width="361" height="283"/></clipPath><clipPath id="clip40"><rect x="458" y="4" width="361" height="283"/></clipPath><clipPath id="clip41"><rect x="458" y="4" width="361" height="283"/></clipPath><clipPath id="clip42"><rect x="458" y="4" width="361" height="283"/></clipPath><clipPath id="clip43"><rect x="458" y="4" width="361" height="283"/></clipPath><clipPath id="clip44"><rect x="458" y="4" width="361" height="283"/></clipPath><clipPath id="clip45"><rect x="458" y="4" width="361" height="283"/></clipPath><clipPath id="clip46"><rect x="458" y="4" width="361" height="283"/></clipPath><clipPath id="clip47"><rect x="458" y="4" width="361" height="283"/></clipPath><clipPath id="clip48"><rect x="458" y="4" width="361" height="283"/></clipPath><clipPath id="clip49"><rect x="458" y="4" width="361" height="283"/></clipPath><clipPath id="clip50"><rect x="458" y="4" width="361" height="283"/></clipPath><clipPath id="clip51"><rect x="458" y="4" width="361" height="283"/></clipPath><clipPath id="clip52"><rect x="458" y="4" width="361" height="283"/></clipPath><clipPath id="clip53"><rect x="458" y="4" width="361" height="283"/></clipPath><clipPath id="clip54"><rect x="458" y="4" width="361" height="283"/></clipPath><clipPath id="clip55"><rect x="458" y="4" width="361" height="283"/></clipPath><clipPath id="clip56"><rect x="458" y="4" width="361" height="283"/></clipPath><clipPath id="clip57"><rect x="458" y="4" width="361" height="283"/></clipPath><clipPath id="clip58"><rect x="458" y="4" width="361" height="283"/></clipPath><clipPath id="clip59"><rect x="458" y="4" width="361" height="283"/></clipPath><clipPath id="clip60"><rect x="458" y="4" width="361" height="283"/></clipPath><clipPath id="clip61"><rect x="458" y="4" width="361" height="283"/></clipPath><clipPath id="clip62"><rect x="895" y="12" width="363" height="270"/></clipPath><clipPath id="clip63"><rect x="895" y="12" width="363" height="270"/></clipPath><clipPath id="clip64"><rect x="827" y="-40" width="488" height="367"/></clipPath><clipPath id="clip65"><rect x="888" y="4" width="378" height="282"/></clipPath><clipPath id="clip66"><rect x="888" y="4" width="378" height="282"/></clipPath><clipPath id="clip67"><rect x="888" y="4" width="378" height="282"/></clipPath><clipPath id="clip68"><rect x="888" y="4" width="378" height="282"/></clipPath><clipPath id="clip69"><rect x="888" y="4" width="378" height="282"/></clipPath><clipPath id="clip70"><rect x="888" y="4" width="378" height="282"/></clipPath><clipPath id="clip71"><rect x="888" y="4" width="378" height="282"/></clipPath><clipPath id="clip72"><rect x="888" y="4" width="378" height="282"/></clipPath><clipPath id="clip73"><rect x="888" y="4" width="378" height="282"/></clipPath><clipPath id="clip74"><rect x="888" y="4" width="378" height="282"/></clipPath><clipPath id="clip75"><rect x="888" y="4" width="378" height="282"/></clipPath><clipPath id="clip76"><rect x="888" y="4" width="378" height="282"/></clipPath><clipPath id="clip77"><rect x="888" y="4" width="378" height="282"/></clipPath><clipPath id="clip78"><rect x="888" y="4" width="378" height="282"/></clipPath><clipPath id="clip79"><rect x="888" y="4" width="378" height="282"/></clipPath><clipPath id="clip80"><rect x="888" y="4" width="378" height="282"/></clipPath><clipPath id="clip81"><rect x="888" y="4" width="378" height="282"/></clipPath><clipPath id="clip82"><rect x="888" y="4" width="378" height="282"/></clipPath><clipPath id="clip83"><rect x="888" y="4" width="378" height="282"/></clipPath><clipPath id="clip84"><rect x="888" y="4" width="378" height="282"/></clipPath><clipPath id="clip85"><rect x="888" y="4" width="378" height="282"/></clipPath><clipPath id="clip86"><rect x="888" y="4" width="378" height="282"/></clipPath><clipPath id="clip87"><rect x="888" y="4" width="378" height="282"/></clipPath><clipPath id="clip88"><rect x="888" y="4" width="378" height="282"/></clipPath><clipPath id="clip89"><rect x="888" y="4" width="378" height="282"/></clipPath><clipPath id="clip90"><rect x="888" y="4" width="378" height="282"/></clipPath><clipPath id="clip91"><rect x="888" y="4" width="378" height="282"/></clipPath><clipPath id="clip92"><rect x="888" y="4" width="378" height="282"/></clipPath><clipPath id="clip93"><rect x="888" y="4" width="378" height="282"/></clipPath><clipPath id="clip94"><rect x="888" y="4" width="378" height="282"/></clipPath><clipPath id="clip95"><rect x="888" y="4" width="378" height="282"/></clipPath><clipPath id="clip96"><rect x="888" y="4" width="378" height="282"/></clipPath><clipPath id="clip97"><rect x="888" y="4" width="378" height="282"/></clipPath><clipPath id="clip98"><rect x="888" y="4" width="378" height="282"/></clipPath><clipPath id="clip99"><rect x="888" y="4" width="378" height="282"/></clipPath><clipPath id="clip100"><rect x="888" y="4" width="378" height="282"/></clipPath><clipPath id="clip101"><rect x="888" y="4" width="378" height="282"/></clipPath><clipPath id="clip102"><rect x="888" y="4" width="378" height="282"/></clipPath><clipPath id="clip103"><rect x="888" y="4" width="378" height="282"/></clipPath><clipPath id="clip104"><rect x="888" y="4" width="378" height="282"/></clipPath><clipPath id="clip105"><rect x="888" y="4" width="378" height="282"/></clipPath><clipPath id="clip106"><rect x="888" y="4" width="378" height="282"/></clipPath><clipPath id="clip107"><rect x="888" y="4" width="378" height="282"/></clipPath><clipPath id="clip108"><rect x="888" y="4" width="378" height="282"/></clipPath><clipPath id="clip109"><rect x="888" y="4" width="378" height="282"/></clipPath><clipPath id="clip110"><rect x="888" y="4" width="378" height="282"/></clipPath><clipPath id="clip111"><rect x="888" y="4" width="378" height="282"/></clipPath><clipPath id="clip112"><rect x="888" y="4" width="378" height="282"/></clipPath><clipPath id="clip113"><rect x="888" y="4" width="378" height="282"/></clipPath><clipPath id="clip114"><rect x="888" y="4" width="378" height="282"/></clipPath><clipPath id="clip115"><rect x="888" y="4" width="378" height="282"/></clipPath><clipPath id="clip116"><rect x="888" y="4" width="378" height="282"/></clipPath><clipPath id="clip117"><rect x="888" y="4" width="378" height="282"/></clipPath><clipPath id="clip118"><rect x="888" y="4" width="378" height="282"/></clipPath><clipPath id="clip119"><rect x="888" y="4" width="378" height="282"/></clipPath><clipPath id="clip120"><rect x="888" y="4" width="378" height="282"/></clipPath><clipPath id="clip121"><rect x="29" y="12" width="340" height="270"/></clipPath><clipPath id="clip122"><rect x="29" y="12" width="340" height="270"/></clipPath><clipPath id="clip123"><rect x="-29" y="-24" width="445" height="335"/></clipPath><clipPath id="clip124"><rect x="26" y="16" width="345" height="258"/></clipPath><clipPath id="clip125"><rect x="26" y="16" width="345" height="258"/></clipPath><clipPath id="clip126"><rect x="26" y="16" width="345" height="258"/></clipPath><clipPath id="clip127"><rect x="26" y="16" width="345" height="258"/></clipPath><clipPath id="clip128"><rect x="26" y="16" width="345" height="258"/></clipPath><clipPath id="clip129"><rect x="26" y="16" width="345" height="258"/></clipPath><clipPath id="clip130"><rect x="26" y="16" width="345" height="258"/></clipPath><clipPath id="clip131"><rect x="26" y="16" width="345" height="258"/></clipPath><clipPath id="clip132"><rect x="26" y="16" width="345" height="258"/></clipPath><clipPath id="clip133"><rect x="26" y="16" width="345" height="258"/></clipPath><clipPath id="clip134"><rect x="26" y="16" width="345" height="258"/></clipPath><clipPath id="clip135"><rect x="26" y="16" width="345" height="258"/></clipPath><clipPath id="clip136"><rect x="26" y="16" width="345" height="258"/></clipPath><clipPath id="clip137"><rect x="26" y="16" width="345" height="258"/></clipPath><clipPath id="clip138"><rect x="26" y="16" width="345" height="258"/></clipPath><clipPath id="clip139"><rect x="26" y="16" width="345" height="258"/></clipPath><clipPath id="clip140"><rect x="26" y="16" width="345" height="258"/></clipPath><clipPath id="clip141"><rect x="26" y="16" width="345" height="258"/></clipPath><clipPath id="clip142"><rect x="26" y="16" width="345" height="258"/></clipPath><clipPath id="clip143"><rect x="26" y="16" width="345" height="258"/></clipPath><clipPath id="clip144"><rect x="26" y="16" width="345" height="258"/></clipPath><clipPath id="clip145"><rect x="26" y="16" width="345" height="258"/></clipPath><clipPath id="clip146"><rect x="26" y="16" width="345" height="258"/></clipPath><clipPath id="clip147"><rect x="26" y="16" width="345" height="258"/></clipPath><clipPath id="clip148"><rect x="26" y="16" width="345" height="258"/></clipPath><clipPath id="clip149"><rect x="26" y="16" width="345" height="258"/></clipPath><clipPath id="clip150"><rect x="26" y="16" width="345" height="258"/></clipPath><clipPath id="clip151"><rect x="26" y="16" width="345" height="258"/></clipPath><clipPath id="clip152"><rect x="26" y="16" width="345" height="258"/></clipPath><clipPath id="clip153"><rect x="26" y="16" width="345" height="258"/></clipPath><clipPath id="clip154"><rect x="26" y="16" width="345" height="258"/></clipPath><clipPath id="clip155"><rect x="26" y="16" width="345" height="258"/></clipPath><clipPath id="clip156"><rect x="26" y="16" width="345" height="258"/></clipPath><clipPath id="clip157"><rect x="26" y="16" width="345" height="258"/></clipPath><clipPath id="clip158"><rect x="26" y="16" width="345" height="258"/></clipPath><clipPath id="clip159"><rect x="26" y="16" width="345" height="258"/></clipPath><clipPath id="clip160"><rect x="26" y="16" width="345" height="258"/></clipPath><clipPath id="clip161"><rect x="26" y="16" width="345" height="258"/></clipPath><clipPath id="clip162"><rect x="26" y="16" width="345" height="258"/></clipPath><clipPath id="clip163"><rect x="26" y="16" width="345" height="258"/></clipPath><clipPath id="clip164"><rect x="26" y="16" width="345" height="258"/></clipPath><clipPath id="clip165"><rect x="26" y="16" width="345" height="258"/></clipPath><clipPath id="clip166"><rect x="26" y="16" width="345" height="258"/></clipPath><clipPath id="clip167"><rect x="26" y="16" width="345" height="258"/></clipPath><clipPath id="clip168"><rect x="26" y="16" width="345" height="258"/></clipPath><clipPath id="clip169"><rect x="26" y="16" width="345" height="258"/></clipPath><clipPath id="clip170"><rect x="26" y="16" width="345" height="258"/></clipPath><clipPath id="clip171"><rect x="26" y="16" width="345" height="258"/></clipPath><clipPath id="clip172"><rect x="26" y="16" width="345" height="258"/></clipPath><clipPath id="clip173"><rect x="26" y="16" width="345" height="258"/></clipPath><clipPath id="clip174"><rect x="26" y="16" width="345" height="258"/></clipPath></defs><g clip-path="url(#clip0)"><rect x="0" y="0" width="1280" height="288" fill="#FFFFFF"/><g clip-path="url(#clip1)"><g clip-path="url(#clip2)"><g clip-path="url(#clip3)"><path d="M0 348.572 464.762 348.572 464.762 0 0 0Z" fill="#FFFFFF" transform="matrix(1 0 0 1.04802 400.575 -39.0956)"/><path d="M58.0953 310.229 418.286 310.229 418.286 41.8286 58.0953 41.8286Z" fill="#FFFFFF" transform="matrix(1 0 0 1.04802 400.575 -39.0956)"/><g clip-path="url(#clip4)"><path d="M93.177 187.51C96.2871 196.844 99.2784 205.821 102.151 214.442" stroke="#000000" stroke-width="0.980675" stroke-linecap="round" stroke-linejoin="round" fill="none" transform="matrix(1 0 0 1.04802 400.575 -39.0956)"/></g><g clip-path="url(#clip5)"><path d="M102.981 208.637 102.151 214.442 98.0051 210.295 102.981 208.637Z" stroke="#000000" stroke-width="0.980675" stroke-linecap="round" stroke-linejoin="round" transform="matrix(1 0 0 1.04802 400.575 -39.0956)"/></g><g clip-path="url(#clip6)"><path d="M166.645 269.058C204.725 272.479 242.431 275.866 279.762 279.219" stroke="#000000" stroke-width="0.980675" stroke-linecap="round" stroke-linejoin="round" fill="none" transform="matrix(1 0 0 1.04802 400.575 -39.0956)"/></g><g clip-path="url(#clip7)"><path d="M274.773 276.138 279.762 279.219 274.304 281.361 274.773 276.138Z" stroke="#000000" stroke-width="0.980675" stroke-linecap="round" stroke-linejoin="round" transform="matrix(1 0 0 1.04802 400.575 -39.0956)"/></g><g clip-path="url(#clip8)"><path d="M234.238 285.855C249.787 284.458 264.962 283.095 279.762 281.766" stroke="#000000" stroke-width="0.980675" stroke-linecap="round" stroke-linejoin="round" fill="none" transform="matrix(1 0 0 1.04802 400.575 -39.0956)"/></g><g clip-path="url(#clip9)"><path d="M274.304 279.623 279.762 281.766 274.773 284.847 274.304 279.623Z" stroke="#000000" stroke-width="0.980675" stroke-linecap="round" stroke-linejoin="round" transform="matrix(1 0 0 1.04802 400.575 -39.0956)"/></g><g clip-path="url(#clip10)"><path d="M284.651 272.735C228.672 225.993 172.982 179.493 117.58 133.233" stroke="#000000" stroke-width="0.980675" stroke-linecap="round" stroke-linejoin="round" fill="none" transform="matrix(1 0 0 1.04802 400.575 -39.0956)"/></g><g clip-path="url(#clip11)"><path d="M119.925 138.608 117.58 133.233 123.287 134.582 119.925 138.608Z" stroke="#000000" stroke-width="0.980675" stroke-linecap="round" stroke-linejoin="round" transform="matrix(1 0 0 1.04802 400.575 -39.0956)"/></g><g clip-path="url(#clip12)"><path d="M377.737 141.533C353.16 121.011 328.871 100.73 304.87 80.69" stroke="#000000" stroke-width="0.980675" stroke-linecap="round" stroke-linejoin="round" fill="none" transform="matrix(1 0 0 1.04802 400.575 -39.0956)"/></g><g clip-path="url(#clip13)"><path d="M307.216 86.0645 304.87 80.69 310.577 82.0386 307.216 86.0645Z" stroke="#000000" stroke-width="0.980675" stroke-linecap="round" stroke-linejoin="round" transform="matrix(1 0 0 1.04802 400.575 -39.0956)"/></g><g clip-path="url(#clip14)"><path d="M360.438 111.811C366.772 120.74 372.89 129.362 378.789 137.677" stroke="#000000" stroke-width="0.980675" stroke-linecap="round" stroke-linejoin="round" fill="none" transform="matrix(1 0 0 1.04802 400.575 -39.0956)"/></g><g clip-path="url(#clip15)"><path d="M377.893 131.882 378.789 137.677 373.616 134.917 377.893 131.882Z" stroke="#000000" stroke-width="0.980675" stroke-linecap="round" stroke-linejoin="round" transform="matrix(1 0 0 1.04802 400.575 -39.0956)"/></g><g clip-path="url(#clip16)"><path d="M342.654 96.4374C330.309 90.1338 318.298 84.0012 306.622 78.0395" stroke="#000000" stroke-width="0.980675" stroke-linecap="round" stroke-linejoin="round" fill="none" transform="matrix(1 0 0 1.04802 400.575 -39.0956)"/></g><g clip-path="url(#clip17)"><path d="M310.101 82.76 306.622 78.0395 312.486 78.089 310.101 82.76Z" stroke="#000000" stroke-width="0.980675" stroke-linecap="round" stroke-linejoin="round" transform="matrix(1 0 0 1.04802 400.575 -39.0956)"/></g><g clip-path="url(#clip18)"><path d="M341.381 103.025C267.492 109.661 193.977 116.265 120.837 122.834" stroke="#000000" stroke-width="0.980675" stroke-linecap="round" stroke-linejoin="round" fill="none" transform="matrix(1 0 0 1.04802 400.575 -39.0956)"/></g><g clip-path="url(#clip19)"><path d="M126.295 124.977 120.837 122.834 125.826 119.753 126.295 124.977Z" stroke="#000000" stroke-width="0.980675" stroke-linecap="round" stroke-linejoin="round" transform="matrix(1 0 0 1.04802 400.575 -39.0956)"/></g><g clip-path="url(#clip20)"><path d="M282.291 74.8338C227.953 90.0779 173.977 105.22 120.363 120.261" stroke="#000000" stroke-width="0.980675" stroke-linecap="round" stroke-linejoin="round" fill="none" transform="matrix(1 0 0 1.04802 400.575 -39.0956)"/></g><g clip-path="url(#clip21)"><path d="M126.121 121.37 120.363 120.261 124.704 116.32 126.121 121.37Z" stroke="#000000" stroke-width="0.980675" stroke-linecap="round" stroke-linejoin="round" transform="matrix(1 0 0 1.04802 400.575 -39.0956)"/></g><g clip-path="url(#clip22)"><path d="M281.884 70.4821C266.335 69.0855 251.16 67.7225 236.36 66.3931" stroke="#000000" stroke-width="0.980675" stroke-linecap="round" stroke-linejoin="round" fill="none" transform="matrix(1 0 0 1.04802 400.575 -39.0956)"/></g><g clip-path="url(#clip23)"><path d="M241.349 69.4742 236.36 66.3931 241.818 64.2505 241.349 69.4742Z" stroke="#000000" stroke-width="0.980675" stroke-linecap="round" stroke-linejoin="round" transform="matrix(1 0 0 1.04802 400.575 -39.0956)"/></g><g clip-path="url(#clip24)"><path d="M303.234 79.324C327.812 99.8458 352.101 120.127 376.102 140.167" stroke="#000000" stroke-width="0.980675" stroke-linecap="round" stroke-linejoin="round" fill="none" transform="matrix(1 0 0 1.04802 400.575 -39.0956)"/></g><g clip-path="url(#clip25)"><path d="M373.756 134.792 376.102 140.167 370.395 138.818 373.756 134.792Z" stroke="#000000" stroke-width="0.980675" stroke-linecap="round" stroke-linejoin="round" transform="matrix(1 0 0 1.04802 400.575 -39.0956)"/></g><g clip-path="url(#clip26)"><path d="M166.243 80.8122C180.681 76.7617 194.758 72.8126 208.472 68.9651" stroke="#000000" stroke-width="0.980675" stroke-linecap="round" stroke-linejoin="round" fill="none" transform="matrix(1 0 0 1.04802 400.575 -39.0956)"/></g><g clip-path="url(#clip27)"><path d="M202.714 67.8569 208.472 68.9651 204.131 72.9067 202.714 67.8569Z" stroke="#000000" stroke-width="0.980675" stroke-linecap="round" stroke-linejoin="round" transform="matrix(1 0 0 1.04802 400.575 -39.0956)"/></g><g clip-path="url(#clip28)"><path d="M166.645 82.9989C204.725 79.5786 242.431 76.1919 279.762 72.8388" stroke="#000000" stroke-width="0.980675" stroke-linecap="round" stroke-linejoin="round" fill="none" transform="matrix(1 0 0 1.04802 400.575 -39.0956)"/></g><g clip-path="url(#clip29)"><path d="M274.304 70.6961 279.762 72.8388 274.773 75.9198 274.304 70.6961Z" stroke="#000000" stroke-width="0.980675" stroke-linecap="round" stroke-linejoin="round" transform="matrix(1 0 0 1.04802 400.575 -39.0956)"/></g><g clip-path="url(#clip30)"><path d="M166.239 87.3504C235.628 106.817 304.655 126.182 373.32 145.445" stroke="#000000" stroke-width="0.980675" stroke-linecap="round" stroke-linejoin="round" fill="none" transform="matrix(1 0 0 1.04802 400.575 -39.0956)"/></g><g clip-path="url(#clip31)"><path d="M368.979 141.504 373.32 145.445 367.562 146.554 368.979 141.504Z" stroke="#000000" stroke-width="0.980675" stroke-linecap="round" stroke-linejoin="round" transform="matrix(1 0 0 1.04802 400.575 -39.0956)"/></g><g clip-path="url(#clip32)"><path d="M117.432 129.613C192.207 167.793 266.647 205.801 340.753 243.639" stroke="#000000" stroke-width="0.980675" stroke-linecap="round" stroke-linejoin="round" fill="none" transform="matrix(1 0 0 1.04802 400.575 -39.0956)"/></g><g clip-path="url(#clip33)"><path d="M337.274 238.919 340.753 243.639 334.889 243.59 337.274 238.919Z" stroke="#000000" stroke-width="0.980675" stroke-linecap="round" stroke-linejoin="round" transform="matrix(1 0 0 1.04802 400.575 -39.0956)"/></g><g clip-path="url(#clip34)"><path d="M118.301 127.376C203.669 151.326 288.675 175.173 373.319 198.919" stroke="#000000" stroke-width="0.980675" stroke-linecap="round" stroke-linejoin="round" fill="none" transform="matrix(1 0 0 1.04802 400.575 -39.0956)"/></g><g clip-path="url(#clip35)"><path d="M368.977 194.978 373.319 198.919 367.561 200.028 368.977 194.978Z" stroke="#000000" stroke-width="0.980675" stroke-linecap="round" stroke-linejoin="round" transform="matrix(1 0 0 1.04802 400.575 -39.0956)"/></g><g clip-path="url(#clip36)"><path d="M89.3515 187.305C92.342 187.305 95.2105 186.117 97.3252 184.002 99.4398 181.888 100.628 179.019 100.628 176.029 100.628 173.038 99.4398 170.17 97.3252 168.055 95.2105 165.94 92.342 164.752 89.3515 164.752 86.3609 164.752 83.4925 165.94 81.3778 168.055 79.2632 170.17 78.075 173.038 78.075 176.029 78.075 179.019 79.2632 181.888 81.3778 184.002 83.4925 186.117 86.3609 187.305 89.3515 187.305Z" stroke="#000000" stroke-width="0.980675" stroke-linejoin="round" fill="#C0C0C0" transform="matrix(1 0 0 1.04802 400.575 -39.0956)"/></g><g clip-path="url(#clip37)"><path d="M106.651 239.226C109.642 239.226 112.511 238.038 114.625 235.923 116.74 233.808 117.928 230.94 117.928 227.949 117.928 224.959 116.74 222.09 114.625 219.976 112.511 217.861 109.642 216.673 106.651 216.673 103.661 216.673 100.792 217.861 98.6778 219.976 96.5632 222.09 95.375 224.959 95.375 227.949 95.375 230.94 96.5632 233.808 98.6778 235.923 100.792 238.038 103.661 239.226 106.651 239.226Z" stroke="#000000" stroke-width="0.980675" stroke-linejoin="round" fill="#C0C0C0" transform="matrix(1 0 0 1.04802 400.575 -39.0956)"/></g><g clip-path="url(#clip38)"><path d="M154.588 279.252C157.579 279.252 160.447 278.064 162.562 275.949 164.677 273.835 165.865 270.966 165.865 267.976 165.865 264.985 164.677 262.117 162.562 260.002 160.447 257.887 157.579 256.699 154.588 256.699 151.598 256.699 148.729 257.887 146.615 260.002 144.5 262.117 143.312 264.985 143.312 267.976 143.312 270.966 144.5 273.835 146.615 275.949 148.729 278.064 151.598 279.252 154.588 279.252Z" stroke="#000000" stroke-width="0.980675" stroke-linejoin="round" fill="#C0C0C0" transform="matrix(1 0 0 1.04802 400.575 -39.0956)"/></g><g clip-path="url(#clip39)"><path d="M222.18 298.214C225.17 298.214 228.039 297.026 230.154 294.912 232.268 292.797 233.456 289.928 233.456 286.938 233.456 283.947 232.268 281.079 230.154 278.964 228.039 276.85 225.17 275.661 222.18 275.661 219.189 275.661 216.321 276.85 214.206 278.964 212.092 281.079 210.903 283.947 210.903 286.938 210.903 289.928 212.092 292.797 214.206 294.912 216.321 297.026 219.189 298.214 222.18 298.214Z" stroke="#000000" stroke-width="0.980675" stroke-linejoin="round" fill="#C0C0C0" transform="matrix(1 0 0 1.04802 400.575 -39.0956)"/></g><g clip-path="url(#clip40)"><path d="M293.942 291.769C296.933 291.769 299.801 290.581 301.916 288.466 304.031 286.351 305.219 283.483 305.219 280.492 305.219 277.502 304.031 274.633 301.916 272.519 299.801 270.404 296.933 269.216 293.942 269.216 290.952 269.216 288.083 270.404 285.969 272.519 283.854 274.633 282.666 277.502 282.666 280.492 282.666 283.483 283.854 286.351 285.969 288.466 288.083 290.581 290.952 291.769 293.942 291.769Z" stroke="#000000" stroke-width="0.980675" stroke-linejoin="round" fill="#C0C0C0" transform="matrix(1 0 0 1.04802 400.575 -39.0956)"/></g><g clip-path="url(#clip41)"><path d="M353.435 261.392C356.426 261.392 359.294 260.204 361.409 258.089 363.524 255.974 364.712 253.106 364.712 250.115 364.712 247.125 363.524 244.256 361.409 242.142 359.294 240.027 356.426 238.839 353.435 238.839 350.445 238.839 347.576 240.027 345.462 242.142 343.347 244.256 342.159 247.125 342.159 250.115 342.159 253.106 343.347 255.974 345.462 258.089 347.576 260.204 350.445 261.392 353.435 261.392Z" stroke="#000000" stroke-width="0.980675" stroke-linejoin="round" fill="#C0C0C0" transform="matrix(1 0 0 1.04802 400.575 -39.0956)"/></g><g clip-path="url(#clip42)"><path d="M387.03 214.042C390.02 214.042 392.889 212.854 395.003 210.74 397.118 208.625 398.306 205.756 398.306 202.766 398.306 199.775 397.118 196.907 395.003 194.792 392.889 192.678 390.02 191.489 387.03 191.489 384.039 191.489 381.171 192.678 379.056 194.792 376.941 196.907 375.753 199.775 375.753 202.766 375.753 205.756 376.941 208.625 379.056 210.74 381.171 212.854 384.039 214.042 387.03 214.042Z" stroke="#000000" stroke-width="0.980675" stroke-linejoin="round" fill="#C0C0C0" transform="matrix(1 0 0 1.04802 400.575 -39.0956)"/></g><g clip-path="url(#clip43)"><path d="M387.03 160.568C390.02 160.568 392.889 159.38 395.003 157.265 397.118 155.15 398.306 152.282 398.306 149.291 398.306 146.301 397.118 143.432 395.003 141.318 392.889 139.203 390.02 138.015 387.03 138.015 384.039 138.015 381.171 139.203 379.056 141.318 376.941 143.432 375.753 146.301 375.753 149.291 375.753 152.282 376.941 155.15 379.056 157.265 381.171 159.38 384.039 160.568 387.03 160.568Z" stroke="#000000" stroke-width="0.980675" stroke-linejoin="round" fill="#C0C0C0" transform="matrix(1 0 0 1.04802 400.575 -39.0956)"/></g><g clip-path="url(#clip44)"><path d="M353.435 113.219C356.426 113.219 359.294 112.03 361.409 109.916 363.524 107.801 364.712 104.933 364.712 101.942 364.712 98.9516 363.524 96.0831 361.409 93.9685 359.294 91.8538 356.426 90.6657 353.435 90.6657 350.445 90.6657 347.576 91.8538 345.462 93.9685 343.347 96.0831 342.159 98.9516 342.159 101.942 342.159 104.933 343.347 107.801 345.462 109.916 347.576 112.03 350.445 113.219 353.435 113.219Z" stroke="#000000" stroke-width="0.980675" stroke-linejoin="round" fill="#C0C0C0" transform="matrix(1 0 0 1.04802 400.575 -39.0956)"/></g><g clip-path="url(#clip45)"><path d="M293.942 82.8416C296.933 82.8416 299.801 81.6535 301.916 79.5388 304.031 77.4242 305.219 74.5557 305.219 71.5651 305.219 68.5746 304.031 65.7061 301.916 63.5915 299.801 61.4768 296.933 60.2887 293.942 60.2887 290.952 60.2887 288.083 61.4768 285.969 63.5915 283.854 65.7061 282.666 68.5746 282.666 71.5651 282.666 74.5557 283.854 77.4242 285.969 79.5388 288.083 81.6535 290.952 82.8416 293.942 82.8416Z" stroke="#000000" stroke-width="0.980675" stroke-linejoin="round" fill="#C0C0C0" transform="matrix(1 0 0 1.04802 400.575 -39.0956)"/></g><g clip-path="url(#clip46)"><path d="M222.18 76.396C225.17 76.396 228.039 75.2078 230.154 73.0932 232.268 70.9786 233.456 68.1101 233.456 65.1195 233.456 62.129 232.268 59.2605 230.154 57.1459 228.039 55.0312 225.17 53.8431 222.18 53.8431 219.189 53.8431 216.321 55.0312 214.206 57.1459 212.092 59.2605 210.903 62.129 210.903 65.1195 210.903 68.1101 212.092 70.9786 214.206 73.0932 216.321 75.2078 219.189 76.396 222.18 76.396Z" stroke="#000000" stroke-width="0.980675" stroke-linejoin="round" fill="#C0C0C0" transform="matrix(1 0 0 1.04802 400.575 -39.0956)"/></g><g clip-path="url(#clip47)"><path d="M154.588 95.3583C157.579 95.3583 160.447 94.1701 162.562 92.0555 164.677 89.9408 165.865 87.0724 165.865 84.0818 165.865 81.0913 164.677 78.2228 162.562 76.1081 160.447 73.9935 157.579 72.8053 154.588 72.8053 151.598 72.8053 148.729 73.9935 146.615 76.1081 144.5 78.2228 143.312 81.0913 143.312 84.0818 143.312 87.0724 144.5 89.9408 146.615 92.0555 148.729 94.1701 151.598 95.3583 154.588 95.3583Z" stroke="#000000" stroke-width="0.980675" stroke-linejoin="round" fill="#C0C0C0" transform="matrix(1 0 0 1.04802 400.575 -39.0956)"/></g><g clip-path="url(#clip48)"><path d="M106.651 140.055C110.881 140.055 114.937 138.375 117.928 135.385 120.919 132.394 122.599 128.337 122.599 124.108 122.599 119.879 120.919 115.822 117.928 112.832 114.937 109.841 110.881 108.161 106.651 108.161 102.422 108.161 98.3656 109.841 95.375 112.832 92.3845 115.822 90.7041 119.879 90.7041 124.108 90.7041 128.337 92.3845 132.394 95.375 135.385 98.3656 138.375 102.422 140.055 106.651 140.055Z" stroke="#000000" stroke-width="0.980675" stroke-linejoin="round" fill="#C0C0C0" transform="matrix(1 0 0 1.04802 400.575 -39.0956)"/></g><path d="M58.0953 310.229 58.0953 41.8286" stroke="#000000" stroke-width="0.980675" stroke-linecap="square" fill="none" transform="matrix(1 0 0 1.04802 400.575 -39.0956)"/><path d="M418.286 310.229 418.286 41.8286" stroke="#000000" stroke-width="0.980675" stroke-linecap="square" fill="none" transform="matrix(1 0 0 1.04802 400.575 -39.0956)"/><path d="M58.0953 310.229 418.286 310.229" stroke="#000000" stroke-width="0.980675" stroke-linecap="square" fill="none" transform="matrix(1 0 0 1.04802 400.575 -39.0956)"/><path d="M58.0953 41.8286 418.286 41.8286" stroke="#000000" stroke-width="0.980675" stroke-linecap="square" fill="none" transform="matrix(1 0 0 1.04802 400.575 -39.0956)"/><g clip-path="url(#clip49)"><path d="M0.591921 3.79926 3.77657 3.79926 3.77657 2.83101 0.591921 2.83101 0.591921 3.79926Z" transform="matrix(1 0 0 -1.04802 483.893 148.886)"/><path d="M1.30677 8.82398 5.99297 8.82398 5.99297 7.8179 2.39983 7.8179 2.39983 5.65635C2.57256 5.7156 2.74528 5.75973 2.918 5.78873 3.09198 5.81772 3.26597 5.83222 3.43995 5.83222 4.4246 5.83222 5.20437 5.56242 5.77927 5.02282 6.35543 4.48322 6.64351 3.75262 6.64351 2.83101 6.64351 1.88167 6.34787 1.1435 5.75658 0.616506 5.16529 0.0907739 4.33193-0.172092 3.25651-0.172092 2.88585-0.172092 2.50826-0.140573 2.12373-0.077536 1.74046-0.0144986 1.34396 0.0800575 0.934214 0.206132L0.934214 1.407C1.28848 1.2141 1.65473 1.07038 2.03296 0.975819 2.41118 0.881263 2.81084 0.833985 3.23193 0.833985 3.91399 0.833985 4.45359 1.01301 4.85073 1.37106 5.24913 1.72912 5.44832 2.21576 5.44832 2.83101 5.44832 3.44499 5.24913 3.93101 4.85073 4.28907 4.45359 4.64838 3.91399 4.82804 3.23193 4.82804 2.91296 4.82804 2.59462 4.79273 2.27691 4.72213 1.96046 4.65153 1.63708 4.54121 1.30677 4.39119L1.30677 8.82398Z" transform="matrix(1 0 0 -1.04802 488.261 148.886)"/></g><g clip-path="url(#clip50)"><path d="M0.591921 3.79926 3.77657 3.79926 3.77657 2.83101 0.591921 2.83101 0.591921 3.79926Z" transform="matrix(1 0 0 -1.04802 501.193 203.3)"/><path d="M4.57463 7.78386 1.56018 3.07307 4.57463 3.07307 4.57463 7.78386ZM4.2607 8.82398 5.76225 8.82398 5.76225 3.07307 7.02174 3.07307 7.02174 2.08023 5.76225 2.08023 5.76225 0 4.57463 0 4.57463 2.08023 0.591921 2.08023 0.591921 3.23193 4.2607 8.82398Z" transform="matrix(1 0 0 -1.04802 505.561 203.3)"/></g><g clip-path="url(#clip51)"><path d="M0.591921 3.79926 3.77657 3.79926 3.77657 2.83101 0.591921 2.83101 0.591921 3.79926Z" transform="matrix(1 0 0 -1.04802 549.13 245.248)"/><path d="M4.91124 4.75806C5.48236 4.63577 5.92804 4.3811 6.24827 3.99405 6.56976 3.60826 6.7305 3.1317 6.7305 2.56436 6.7305 1.69445 6.43108 1.02058 5.83222 0.542752 5.23337 0.0661893 4.38236-0.172092 3.27921-0.172092 2.90981-0.172092 2.52906-0.13553 2.13697-0.062407 1.74488 0.0107164 1.34018 0.120401 0.922868 0.266648L0.922868 1.41834C1.25318 1.22545 1.61502 1.07983 2.00837 0.981492 2.40299 0.883154 2.81525 0.833985 3.24517 0.833985 3.99279 0.833985 4.56265 0.981492 4.95474 1.27651 5.34683 1.57152 5.54288 2.00081 5.54288 2.56436 5.54288 3.08505 5.3607 3.49164 4.99635 3.78414 4.63199 4.07789 4.12517 4.22477 3.47588 4.22477L2.44711 4.22477 2.44711 5.20626 3.52316 5.20626C4.10941 5.20626 4.55824 5.32351 4.86964 5.55801 5.18105 5.79251 5.33675 6.13039 5.33675 6.57165 5.33675 7.02426 5.176 7.37159 4.85451 7.61366 4.53428 7.85698 4.07474 7.97864 3.47588 7.97864 3.14809 7.97864 2.79697 7.94271 2.42253 7.87085 2.04809 7.80025 1.63645 7.69056 1.18762 7.5418L1.18762 8.60461C1.64149 8.73068 2.06637 8.82524 2.46224 8.88828 2.85812 8.95131 3.2313 8.98283 3.58179 8.98283 4.48826 8.98283 5.205 8.7767 5.73199 8.36443 6.26025 7.95343 6.52437 7.39744 6.52437 6.69646 6.52437 6.20729 6.38443 5.7944 6.10454 5.45778 5.82466 5.12116 5.42689 4.88792 4.91124 4.75806Z" transform="matrix(1 0 0 -1.04802 553.497 245.248)"/></g><g clip-path="url(#clip52)"><path d="M0.591921 3.79926 3.77657 3.79926 3.77657 2.83101 0.591921 2.83101 0.591921 3.79926Z" transform="matrix(1 0 0 -1.04802 616.722 265.121)"/><path d="M2.3223 1.00419 6.48844 1.00419 6.48844 0 0.886936 0 0.886936 1.00419C1.33954 1.47318 1.95668 2.1023 2.73835 2.89153 3.52127 3.68202 4.01296 4.19199 4.21342 4.42144 4.59543 4.8501 4.86208 5.21319 5.01337 5.51073 5.16592 5.80827 5.24219 6.10076 5.24219 6.38821 5.24219 6.85721 5.07766 7.23922 4.74861 7.53423 4.41955 7.83051 3.9909 7.97864 3.46265 7.97864 3.0882 7.97864 2.69296 7.91372 2.27691 7.78386 1.86213 7.654 1.41834 7.4567 0.945561 7.19194L0.945561 8.39847C1.42591 8.59137 1.87473 8.73699 2.29204 8.83532 2.71061 8.93366 3.09325 8.98283 3.43995 8.98283 4.35399 8.98283 5.08271 8.75401 5.62609 8.29635 6.16947 7.83996 6.44116 7.22976 6.44116 6.46575 6.44116 6.10265 6.37308 5.75847 6.23692 5.43319 6.10202 5.10918 5.85491 4.72654 5.4956 4.28528 5.39726 4.17056 5.08397 3.84024 4.55571 3.29434 4.02872 2.74843 3.28425 1.98505 2.3223 1.00419Z" transform="matrix(1 0 0 -1.04802 621.089 265.121)"/></g><g clip-path="url(#clip53)"><path d="M0.591921 3.79926 3.77657 3.79926 3.77657 2.83101 0.591921 2.83101 0.591921 3.79926Z" transform="matrix(1 0 0 -1.04802 688.484 258.365)"/><path d="M1.50155 1.00419 3.4513 1.00419 3.4513 7.73658 1.32946 7.31108 1.32946 8.39847 3.43995 8.82398 4.63325 8.82398 4.63325 1.00419 6.583 1.00419 6.583 0 1.50155 0 1.50155 1.00419Z" transform="matrix(1 0 0 -1.04802 692.851 258.365)"/></g><g clip-path="url(#clip54)"><path d="M1.50155 1.00419 3.4513 1.00419 3.4513 7.73658 1.32946 7.31108 1.32946 8.39847 3.43995 8.82398 4.63325 8.82398 4.63325 1.00419 6.583 1.00419 6.583 0 1.50155 0 1.50155 1.00419Z" transform="matrix(1 0 0 -1.04802 750.16 226.53)"/></g><g clip-path="url(#clip55)"><path d="M2.3223 1.00419 6.48844 1.00419 6.48844 0 0.886936 0 0.886936 1.00419C1.33954 1.47318 1.95668 2.1023 2.73835 2.89153 3.52127 3.68202 4.01296 4.19199 4.21342 4.42144 4.59543 4.8501 4.86208 5.21319 5.01337 5.51073 5.16592 5.80827 5.24219 6.10076 5.24219 6.38821 5.24219 6.85721 5.07766 7.23922 4.74861 7.53423 4.41955 7.83051 3.9909 7.97864 3.46265 7.97864 3.0882 7.97864 2.69296 7.91372 2.27691 7.78386 1.86213 7.654 1.41834 7.4567 0.945561 7.19194L0.945561 8.39847C1.42591 8.59137 1.87473 8.73699 2.29204 8.83532 2.71061 8.93366 3.09325 8.98283 3.43995 8.98283 4.35399 8.98283 5.08271 8.75401 5.62609 8.29635 6.16947 7.83996 6.44116 7.22976 6.44116 6.46575 6.44116 6.10265 6.37308 5.75847 6.23692 5.43319 6.10202 5.10918 5.85491 4.72654 5.4956 4.28528 5.39726 4.17056 5.08397 3.84024 4.55571 3.29434 4.02872 2.74843 3.28425 1.98505 2.3223 1.00419Z" transform="matrix(1 0 0 -1.04802 783.755 176.907)"/></g><g clip-path="url(#clip56)"><path d="M4.91124 4.75806C5.48236 4.63577 5.92804 4.3811 6.24827 3.99405 6.56976 3.60826 6.7305 3.1317 6.7305 2.56436 6.7305 1.69445 6.43108 1.02058 5.83222 0.542752 5.23337 0.0661893 4.38236-0.172092 3.27921-0.172092 2.90981-0.172092 2.52906-0.13553 2.13697-0.062407 1.74488 0.0107164 1.34018 0.120401 0.922868 0.266648L0.922868 1.41834C1.25318 1.22545 1.61502 1.07983 2.00837 0.981492 2.40299 0.883154 2.81525 0.833985 3.24517 0.833985 3.99279 0.833985 4.56265 0.981492 4.95474 1.27651 5.34683 1.57152 5.54288 2.00081 5.54288 2.56436 5.54288 3.08505 5.3607 3.49164 4.99635 3.78414 4.63199 4.07789 4.12517 4.22477 3.47588 4.22477L2.44711 4.22477 2.44711 5.20626 3.52316 5.20626C4.10941 5.20626 4.55824 5.32351 4.86964 5.55801 5.18105 5.79251 5.33675 6.13039 5.33675 6.57165 5.33675 7.02426 5.176 7.37159 4.85451 7.61366 4.53428 7.85698 4.07474 7.97864 3.47588 7.97864 3.14809 7.97864 2.79697 7.94271 2.42253 7.87085 2.04809 7.80025 1.63645 7.69056 1.18762 7.5418L1.18762 8.60461C1.64149 8.73068 2.06637 8.82524 2.46224 8.88828 2.85812 8.95131 3.2313 8.98283 3.58179 8.98283 4.48826 8.98283 5.205 8.7767 5.73199 8.36443 6.26025 7.95343 6.52437 7.39744 6.52437 6.69646 6.52437 6.20729 6.38443 5.7944 6.10454 5.45778 5.82466 5.12116 5.42689 4.88792 4.91124 4.75806Z" transform="matrix(1 0 0 -1.04802 783.755 120.865)"/></g><g clip-path="url(#clip57)"><path d="M4.57463 7.78386 1.56018 3.07307 4.57463 3.07307 4.57463 7.78386ZM4.2607 8.82398 5.76225 8.82398 5.76225 3.07307 7.02174 3.07307 7.02174 2.08023 5.76225 2.08023 5.76225 0 4.57463 0 4.57463 2.08023 0.591921 2.08023 0.591921 3.23193 4.2607 8.82398Z" transform="matrix(1 0 0 -1.04802 750.16 71.2417)"/></g><g clip-path="url(#clip58)"><path d="M1.30677 8.82398 5.99297 8.82398 5.99297 7.8179 2.39983 7.8179 2.39983 5.65635C2.57256 5.7156 2.74528 5.75973 2.918 5.78873 3.09198 5.81772 3.26597 5.83222 3.43995 5.83222 4.4246 5.83222 5.20437 5.56242 5.77927 5.02282 6.35543 4.48322 6.64351 3.75262 6.64351 2.83101 6.64351 1.88167 6.34787 1.1435 5.75658 0.616506 5.16529 0.0907739 4.33193-0.172092 3.25651-0.172092 2.88585-0.172092 2.50826-0.140573 2.12373-0.077536 1.74046-0.0144986 1.34396 0.0800575 0.934214 0.206132L0.934214 1.407C1.28848 1.2141 1.65473 1.07038 2.03296 0.975819 2.41118 0.881263 2.81084 0.833985 3.23193 0.833985 3.91399 0.833985 4.45359 1.01301 4.85073 1.37106 5.24913 1.72912 5.44832 2.21576 5.44832 2.83101 5.44832 3.44499 5.24913 3.93101 4.85073 4.28907 4.45359 4.64838 3.91399 4.82804 3.23193 4.82804 2.91296 4.82804 2.59462 4.79273 2.27691 4.72213 1.96046 4.65153 1.63708 4.54121 1.30677 4.39119L1.30677 8.82398Z" transform="matrix(1 0 0 -1.04802 690.667 39.4061)"/></g><g clip-path="url(#clip59)"><path d="M3.99594 4.88666C3.46012 4.88666 3.03525 4.70322 2.72132 4.33634 2.40866 3.97073 2.25233 3.46895 2.25233 2.83101 2.25233 2.19685 2.40866 1.69508 2.72132 1.32568 3.03525 0.957538 3.46012 0.773469 3.99594 0.773469 4.53176 0.773469 4.956 0.957538 5.26867 1.32568 5.58133 1.69508 5.73767 2.19685 5.73767 2.83101 5.73767 3.46895 5.58133 3.97073 5.26867 4.33634 4.956 4.70322 4.53176 4.88666 3.99594 4.88666ZM6.36552 8.62919 6.36552 7.5418C6.06546 7.683 5.76288 7.79079 5.45778 7.86518 5.15268 7.94082 4.8501 7.97864 4.55004 7.97864 3.76207 7.97864 3.16007 7.71263 2.74402 7.18059 2.32923 6.64856 2.09221 5.84483 2.03296 4.76941 2.26493 5.11233 2.55617 5.3752 2.90666 5.55801 3.2584 5.74082 3.64482 5.83222 4.06591 5.83222 4.95222 5.83222 5.65256 5.56305 6.16695 5.02471 6.68133 4.48763 6.93853 3.7564 6.93853 2.83101 6.93853 1.92453 6.67062 1.19708 6.1348 0.648655 5.59898 0.10149 4.88603-0.172092 3.99594-0.172092 2.97474-0.172092 2.19433 0.21874 1.65473 1.0004 1.11513 1.78333 0.845332 2.91737 0.845332 4.40253 0.845332 5.79692 1.17628 6.9089 1.83817 7.73847 2.50006 8.56804 3.38826 8.98283 4.50276 8.98283 4.80282 8.98283 5.1054 8.9532 5.4105 8.89395 5.7156 8.83469 6.03394 8.74644 6.36552 8.62919Z" transform="matrix(1 0 0 -1.04802 618.905 32.6509)"/></g><g clip-path="url(#clip60)"><path d="M0.992839 8.82398 6.66621 8.82398 6.66621 8.31526 3.46265 0 2.2164 0 5.23084 7.8179 0.992839 7.8179 0.992839 8.82398Z" transform="matrix(1 0 0 -1.04802 551.313 52.5237)"/></g><g clip-path="url(#clip61)"><path d="M6.47709 8.53463 6.47709 7.3697C6.02449 7.58655 5.59709 7.74793 5.19491 7.85383 4.79273 7.96099 4.40442 8.01458 4.02998 8.01458 3.3807 8.01458 2.87955 7.8885 2.52654 7.63635 2.17353 7.3842 1.99703 7.02552 1.99703 6.5603 1.99703 6.16947 2.11427 5.87446 2.34877 5.67526 2.58327 5.47732 3.02769 5.31721 3.68202 5.19491L4.40253 5.04741C5.29262 4.8772 5.94947 4.57841 6.37308 4.15101 6.79669 3.72362 7.0085 3.15187 7.0085 2.43577 7.0085 1.57972 6.72168 0.931063 6.14804 0.489801 5.57566 0.0485388 4.736-0.172092 3.62906-0.172092 3.21176-0.172092 2.76734-0.124814 2.29582-0.030258 1.82556 0.0642982 1.33828 0.204241 0.833985 0.389571L0.833985 1.6188C1.31811 1.34774 1.79278 1.14287 2.258 1.00419 2.72322 0.866764 3.18024 0.798054 3.62906 0.798054 4.30987 0.798054 4.8356 0.931693 5.20626 1.19897 5.57692 1.46751 5.76225 1.85015 5.76225 2.34688 5.76225 2.77932 5.62924 3.11783 5.36322 3.36242 5.0972 3.607 4.66099 3.79044 4.05457 3.91273L3.32648 4.05457C2.4364 4.23107 1.79215 4.50844 1.39376 4.88666 0.996621 5.26488 0.798054 5.79125 0.798054 6.46575 0.798054 7.24615 1.0729 7.86076 1.62258 8.30959 2.17227 8.75842 2.92935 8.98283 3.89382 8.98283 4.30861 8.98283 4.73033 8.94501 5.15898 8.86936 5.5889 8.79498 6.02827 8.6834 6.47709 8.53463Z" transform="matrix(1 0 0 -1.04802 499.543 94.472)"/><path d="M2.19181 0.992839 2.19181-2.51708 1.09874-2.51708 1.09874 6.61893 2.19181 6.61893 2.19181 5.61474C2.42127 6.0081 2.70998 6.29996 3.05794 6.49033 3.40717 6.68197 3.82385 6.77778 4.30798 6.77778 5.11233 6.77778 5.7654 6.45881 6.26718 5.82087 6.77022 5.18294 7.02174 4.34391 7.02174 3.30379 7.02174 2.26367 6.77022 1.42402 6.26718 0.784816 5.7654 0.146877 5.11233-0.172092 4.30798-0.172092 3.82385-0.172092 3.40717-0.0762753 3.05794 0.115358 2.70998 0.306992 2.42127 0.599486 2.19181 0.992839ZM5.89274 3.30379C5.89274 4.10311 5.72821 4.73033 5.39915 5.18546 5.0701 5.64059 4.61812 5.86815 4.04322 5.86815 3.46706 5.86815 3.01445 5.64059 2.68539 5.18546 2.35634 4.73033 2.19181 4.10311 2.19181 3.30379 2.19181 2.50448 2.35634 1.87725 2.68539 1.42212 3.01445 0.966994 3.46706 0.739429 4.04322 0.739429 4.61812 0.739429 5.0701 0.966994 5.39915 1.42212 5.72821 1.87725 5.89274 2.50448 5.89274 3.30379Z" transform="matrix(1 0 0 -1.04802 507.226 94.472)"/></g></g></g></g><g clip-path="url(#clip62)"><g clip-path="url(#clip63)"><g clip-path="url(#clip64)"><path d="M0 365.137 486.85 365.137 486.85 0 0 0Z" fill="#FFFFFF" transform="matrix(1 0 0 1.00036 827.766 -39.3532)"/><path d="M60.8562 324.972 438.165 324.972 438.165 43.8165 60.8562 43.8165Z" fill="#FFFFFF" transform="matrix(1 0 0 1.00036 827.766 -39.3532)"/><g clip-path="url(#clip65)"><path d="M97.6052 196.421C100.863 206.199 103.997 215.603 107.006 224.633" stroke="#000000" stroke-width="1.05653" stroke-linecap="round" stroke-linejoin="round" fill="none" transform="matrix(1 0 0 1.00036 827.766 -39.3532)"/></g><g clip-path="url(#clip66)"><path d="M107.875 218.553 107.006 224.633 102.663 220.289 107.875 218.553Z" stroke="#000000" stroke-width="1.05653" stroke-linecap="round" stroke-linejoin="round" transform="matrix(1 0 0 1.00036 827.766 -39.3532)"/></g><g clip-path="url(#clip67)"><path d="M174.564 281.845C214.454 285.428 253.952 288.976 293.058 292.488" stroke="#000000" stroke-width="1.05653" stroke-linecap="round" stroke-linejoin="round" fill="none" transform="matrix(1 0 0 1.00036 827.766 -39.3532)"/></g><g clip-path="url(#clip68)"><path d="M287.832 289.261 293.058 292.488 287.34 294.733 287.832 289.261Z" stroke="#000000" stroke-width="1.05653" stroke-linecap="round" stroke-linejoin="round" transform="matrix(1 0 0 1.00036 827.766 -39.3532)"/></g><g clip-path="url(#clip69)"><path d="M245.37 299.44C261.658 297.977 277.554 296.549 293.058 295.157" stroke="#000000" stroke-width="1.05653" stroke-linecap="round" stroke-linejoin="round" fill="none" transform="matrix(1 0 0 1.00036 827.766 -39.3532)"/></g><g clip-path="url(#clip70)"><path d="M287.34 292.912 293.058 295.157 287.832 298.384 287.34 292.912Z" stroke="#000000" stroke-width="1.05653" stroke-linecap="round" stroke-linejoin="round" transform="matrix(1 0 0 1.00036 827.766 -39.3532)"/></g><g clip-path="url(#clip71)"><path d="M298.179 285.696C239.54 236.733 181.203 188.023 123.168 139.565" stroke="#000000" stroke-width="1.05653" stroke-linecap="round" stroke-linejoin="round" fill="none" transform="matrix(1 0 0 1.00036 827.766 -39.3532)"/></g><g clip-path="url(#clip72)"><path d="M125.625 145.195 123.168 139.565 129.146 140.978 125.625 145.195Z" stroke="#000000" stroke-width="1.05653" stroke-linecap="round" stroke-linejoin="round" transform="matrix(1 0 0 1.00036 827.766 -39.3532)"/></g><g clip-path="url(#clip73)"><path d="M358.939 256.235C280.61 216.241 202.633 176.426 125.005 136.79" stroke="#000000" stroke-width="1.05653" stroke-linecap="round" stroke-linejoin="round" fill="none" transform="matrix(1 0 0 1.00036 827.766 -39.3532)"/></g><g clip-path="url(#clip74)"><path d="M128.649 141.735 125.005 136.79 131.148 136.842 128.649 141.735Z" stroke="#000000" stroke-width="1.05653" stroke-linecap="round" stroke-linejoin="round" transform="matrix(1 0 0 1.00036 827.766 -39.3532)"/></g><g clip-path="url(#clip75)"><path d="M393.22 208.979C303.795 183.891 214.749 158.91 126.083 134.036" stroke="#000000" stroke-width="1.05653" stroke-linecap="round" stroke-linejoin="round" fill="none" transform="matrix(1 0 0 1.00036 827.766 -39.3532)"/></g><g clip-path="url(#clip76)"><path d="M130.63 138.164 126.083 134.036 132.114 132.875 130.63 138.164Z" stroke="#000000" stroke-width="1.05653" stroke-linecap="round" stroke-linejoin="round" transform="matrix(1 0 0 1.00036 827.766 -39.3532)"/></g><g clip-path="url(#clip77)"><path d="M395.689 148.259C369.944 126.762 344.5 105.517 319.359 84.5248" stroke="#000000" stroke-width="1.05653" stroke-linecap="round" stroke-linejoin="round" fill="none" transform="matrix(1 0 0 1.00036 827.766 -39.3532)"/></g><g clip-path="url(#clip78)"><path d="M321.816 90.1546 319.359 84.5248 325.337 85.9374 321.816 90.1546Z" stroke="#000000" stroke-width="1.05653" stroke-linecap="round" stroke-linejoin="round" transform="matrix(1 0 0 1.00036 827.766 -39.3532)"/></g><g clip-path="url(#clip79)"><path d="M377.567 117.125C384.203 126.478 390.611 135.51 396.791 144.22" stroke="#000000" stroke-width="1.05653" stroke-linecap="round" stroke-linejoin="round" fill="none" transform="matrix(1 0 0 1.00036 827.766 -39.3532)"/></g><g clip-path="url(#clip80)"><path d="M395.852 138.15 396.791 144.22 391.372 141.329 395.852 138.15Z" stroke="#000000" stroke-width="1.05653" stroke-linecap="round" stroke-linejoin="round" transform="matrix(1 0 0 1.00036 827.766 -39.3532)"/></g><g clip-path="url(#clip81)"><path d="M358.939 101.021C346.006 94.4174 333.425 87.9933 321.194 81.7482" stroke="#000000" stroke-width="1.05653" stroke-linecap="round" stroke-linejoin="round" fill="none" transform="matrix(1 0 0 1.00036 827.766 -39.3532)"/></g><g clip-path="url(#clip82)"><path d="M324.838 86.6931 321.194 81.7482 327.336 81.8001 324.838 86.6931Z" stroke="#000000" stroke-width="1.05653" stroke-linecap="round" stroke-linejoin="round" transform="matrix(1 0 0 1.00036 827.766 -39.3532)"/></g><g clip-path="url(#clip83)"><path d="M357.605 107.921C280.205 114.873 203.196 121.79 126.58 128.671" stroke="#000000" stroke-width="1.05653" stroke-linecap="round" stroke-linejoin="round" fill="none" transform="matrix(1 0 0 1.00036 827.766 -39.3532)"/></g><g clip-path="url(#clip84)"><path d="M132.297 130.916 126.58 128.671 131.806 125.444 132.297 130.916Z" stroke="#000000" stroke-width="1.05653" stroke-linecap="round" stroke-linejoin="round" transform="matrix(1 0 0 1.00036 827.766 -39.3532)"/></g><g clip-path="url(#clip85)"><path d="M295.28 73.8317C278.992 72.3687 263.096 70.941 247.592 69.5484" stroke="#000000" stroke-width="1.05653" stroke-linecap="round" stroke-linejoin="round" fill="none" transform="matrix(1 0 0 1.00036 827.766 -39.3532)"/></g><g clip-path="url(#clip86)"><path d="M252.819 72.7759 247.592 69.5484 253.31 67.3039 252.819 72.7759Z" stroke="#000000" stroke-width="1.05653" stroke-linecap="round" stroke-linejoin="round" transform="matrix(1 0 0 1.00036 827.766 -39.3532)"/></g><g clip-path="url(#clip87)"><path d="M295.707 78.3903C238.786 94.3588 182.245 110.221 126.083 125.977" stroke="#000000" stroke-width="1.05653" stroke-linecap="round" stroke-linejoin="round" fill="none" transform="matrix(1 0 0 1.00036 827.766 -39.3532)"/></g><g clip-path="url(#clip88)"><path d="M132.115 127.138 126.083 125.977 130.631 121.848 132.115 127.138Z" stroke="#000000" stroke-width="1.05653" stroke-linecap="round" stroke-linejoin="round" transform="matrix(1 0 0 1.00036 827.766 -39.3532)"/></g><g clip-path="url(#clip89)"><path d="M174.143 84.6528C189.268 80.4097 204.013 76.273 218.38 72.2427" stroke="#000000" stroke-width="1.05653" stroke-linecap="round" stroke-linejoin="round" fill="none" transform="matrix(1 0 0 1.00036 827.766 -39.3532)"/></g><g clip-path="url(#clip90)"><path d="M212.348 71.0818 218.38 72.2427 213.832 76.3715 212.348 71.0818Z" stroke="#000000" stroke-width="1.05653" stroke-linecap="round" stroke-linejoin="round" transform="matrix(1 0 0 1.00036 827.766 -39.3532)"/></g><g clip-path="url(#clip91)"><path d="M174.564 86.9434C214.454 83.3605 253.952 79.8128 293.058 76.3004" stroke="#000000" stroke-width="1.05653" stroke-linecap="round" stroke-linejoin="round" fill="none" transform="matrix(1 0 0 1.00036 827.766 -39.3532)"/></g><g clip-path="url(#clip92)"><path d="M287.34 74.0559 293.058 76.3004 287.832 79.5278 287.34 74.0559Z" stroke="#000000" stroke-width="1.05653" stroke-linecap="round" stroke-linejoin="round" transform="matrix(1 0 0 1.00036 827.766 -39.3532)"/></g><g clip-path="url(#clip93)"><path d="M174.14 91.5017C246.826 111.893 319.134 132.179 391.062 152.358" stroke="#000000" stroke-width="1.05653" stroke-linecap="round" stroke-linejoin="round" fill="none" transform="matrix(1 0 0 1.00036 827.766 -39.3532)"/></g><g clip-path="url(#clip94)"><path d="M386.514 148.229 391.062 152.358 385.03 153.518 386.514 148.229Z" stroke="#000000" stroke-width="1.05653" stroke-linecap="round" stroke-linejoin="round" transform="matrix(1 0 0 1.00036 827.766 -39.3532)"/></g><g clip-path="url(#clip95)"><path d="M93.5979 196.207C96.7305 196.207 99.7353 194.962 101.95 192.747 104.166 190.532 105.41 187.527 105.41 184.394 105.41 181.262 104.166 178.257 101.95 176.042 99.7353 173.827 96.7305 172.582 93.5979 172.582 90.4652 172.582 87.4604 173.827 85.2452 176.042 83.0301 178.257 81.7855 181.262 81.7855 184.394 81.7855 187.527 83.0301 190.532 85.2452 192.747 87.4604 194.962 90.4652 196.207 93.5979 196.207Z" stroke="#000000" stroke-width="1.05653" stroke-linejoin="round" fill="#C0C0C0" transform="matrix(1 0 0 1.00036 827.766 -39.3532)"/></g><g clip-path="url(#clip96)"><path d="M111.72 250.595C114.853 250.595 117.857 249.35 120.073 247.135 122.288 244.92 123.532 241.915 123.532 238.782 123.532 235.65 122.288 232.645 120.073 230.43 117.857 228.215 114.853 226.97 111.72 226.97 108.587 226.97 105.583 228.215 103.367 230.43 101.152 232.645 99.9076 235.65 99.9076 238.782 99.9076 241.915 101.152 244.92 103.367 247.135 105.583 249.35 108.587 250.595 111.72 250.595Z" stroke="#000000" stroke-width="1.05653" stroke-linejoin="round" fill="#C0C0C0" transform="matrix(1 0 0 1.00036 827.766 -39.3532)"/></g><g clip-path="url(#clip97)"><path d="M161.935 292.523C165.068 292.523 168.072 291.279 170.288 289.063 172.503 286.848 173.747 283.844 173.747 280.711 173.747 277.578 172.503 274.573 170.288 272.358 168.072 270.143 165.068 268.898 161.935 268.898 158.802 268.898 155.797 270.143 153.582 272.358 151.367 274.573 150.123 277.578 150.123 280.711 150.123 283.844 151.367 286.848 153.582 289.063 155.797 291.279 158.802 292.523 161.935 292.523Z" stroke="#000000" stroke-width="1.05653" stroke-linejoin="round" fill="#C0C0C0" transform="matrix(1 0 0 1.00036 827.766 -39.3532)"/></g><g clip-path="url(#clip98)"><path d="M232.739 312.387C235.872 312.387 238.876 311.142 241.091 308.927 243.307 306.712 244.551 303.707 244.551 300.574 244.551 297.442 243.307 294.437 241.091 292.222 238.876 290.007 235.872 288.762 232.739 288.762 229.606 288.762 226.601 290.007 224.386 292.222 222.171 294.437 220.926 297.442 220.926 300.574 220.926 303.707 222.171 306.712 224.386 308.927 226.601 311.142 229.606 312.387 232.739 312.387Z" stroke="#000000" stroke-width="1.05653" stroke-linejoin="round" fill="#C0C0C0" transform="matrix(1 0 0 1.00036 827.766 -39.3532)"/></g><g clip-path="url(#clip99)"><path d="M307.912 305.635C311.044 305.635 314.049 304.39 316.264 302.175 318.479 299.96 319.724 296.955 319.724 293.822 319.724 290.69 318.479 287.685 316.264 285.47 314.049 283.255 311.044 282.01 307.912 282.01 304.779 282.01 301.774 283.255 299.559 285.47 297.344 287.685 296.099 290.69 296.099 293.822 296.099 296.955 297.344 299.96 299.559 302.175 301.774 304.39 304.779 305.635 307.912 305.635Z" stroke="#000000" stroke-width="1.05653" stroke-linejoin="round" fill="#C0C0C0" transform="matrix(1 0 0 1.00036 827.766 -39.3532)"/></g><g clip-path="url(#clip100)"><path d="M370.232 273.814C373.365 273.814 376.369 272.569 378.585 270.354 380.8 268.139 382.044 265.134 382.044 262.002 382.044 258.869 380.8 255.864 378.585 253.649 376.369 251.434 373.365 250.189 370.232 250.189 367.099 250.189 364.095 251.434 361.879 253.649 359.664 255.864 358.42 258.869 358.42 262.002 358.42 265.134 359.664 268.139 361.879 270.354 364.095 272.569 367.099 273.814 370.232 273.814Z" stroke="#000000" stroke-width="1.05653" stroke-linejoin="round" fill="#C0C0C0" transform="matrix(1 0 0 1.00036 827.766 -39.3532)"/></g><g clip-path="url(#clip101)"><path d="M405.423 224.215C408.556 224.215 411.561 222.97 413.776 220.755 415.991 218.54 417.235 215.535 417.235 212.402 417.235 209.27 415.991 206.265 413.776 204.05 411.561 201.834 408.556 200.59 405.423 200.59 402.29 200.59 399.286 201.834 397.07 204.05 394.855 206.265 393.611 209.27 393.611 212.402 393.611 215.535 394.855 218.54 397.07 220.755 399.286 222.97 402.29 224.215 405.423 224.215Z" stroke="#000000" stroke-width="1.05653" stroke-linejoin="round" fill="#C0C0C0" transform="matrix(1 0 0 1.00036 827.766 -39.3532)"/></g><g clip-path="url(#clip102)"><path d="M405.423 168.199C408.556 168.199 411.561 166.954 413.776 164.739 415.991 162.524 417.235 159.519 417.235 156.386 417.235 153.254 415.991 150.249 413.776 148.034 411.561 145.819 408.556 144.574 405.423 144.574 402.29 144.574 399.286 145.819 397.07 148.034 394.855 150.249 393.611 153.254 393.611 156.386 393.611 159.519 394.855 162.524 397.07 164.739 399.286 166.954 402.29 168.199 405.423 168.199Z" stroke="#000000" stroke-width="1.05653" stroke-linejoin="round" fill="#C0C0C0" transform="matrix(1 0 0 1.00036 827.766 -39.3532)"/></g><g clip-path="url(#clip103)"><path d="M370.232 118.599C373.365 118.599 376.369 117.355 378.585 115.139 380.8 112.924 382.044 109.92 382.044 106.787 382.044 103.654 380.8 100.649 378.585 98.4342 376.369 96.2191 373.365 94.9745 370.232 94.9745 367.099 94.9745 364.094 96.2191 361.879 98.4342 359.664 100.649 358.42 103.654 358.42 106.787 358.42 109.92 359.664 112.924 361.879 115.139 364.094 117.355 367.099 118.599 370.232 118.599Z" stroke="#000000" stroke-width="1.05653" stroke-linejoin="round" fill="#C0C0C0" transform="matrix(1 0 0 1.00036 827.766 -39.3532)"/></g><g clip-path="url(#clip104)"><path d="M307.912 86.7786C311.044 86.7786 314.049 85.534 316.264 83.3188 318.479 81.1037 319.724 78.0989 319.724 74.9662 319.724 71.8335 318.479 68.8287 316.264 66.6136 314.049 64.3985 311.044 63.1538 307.912 63.1538 304.779 63.1538 301.774 64.3985 299.559 66.6136 297.344 68.8287 296.099 71.8335 296.099 74.9662 296.099 78.0989 297.344 81.1037 299.559 83.3188 301.774 85.534 304.779 86.7786 307.912 86.7786Z" stroke="#000000" stroke-width="1.05653" stroke-linejoin="round" fill="#C0C0C0" transform="matrix(1 0 0 1.00036 827.766 -39.3532)"/></g><g clip-path="url(#clip105)"><path d="M232.739 80.0267C235.871 80.0267 238.876 78.782 241.091 76.5669 243.307 74.3518 244.551 71.347 244.551 68.2143 244.551 65.0816 243.307 62.0768 241.091 59.8617 238.876 57.6465 235.871 56.4019 232.739 56.4019 229.606 56.4019 226.601 57.6465 224.386 59.8617 222.171 62.0768 220.926 65.0816 220.926 68.2143 220.926 71.347 222.171 74.3518 224.386 76.5669 226.601 78.782 229.606 80.0267 232.739 80.0267Z" stroke="#000000" stroke-width="1.05653" stroke-linejoin="round" fill="#C0C0C0" transform="matrix(1 0 0 1.00036 827.766 -39.3532)"/></g><g clip-path="url(#clip106)"><path d="M161.935 99.8901C165.068 99.8901 168.072 98.6455 170.288 96.4304 172.503 94.2152 173.747 91.2104 173.747 88.0777 173.747 84.9451 172.503 81.9403 170.288 79.7251 168.072 77.51 165.068 76.2654 161.935 76.2654 158.802 76.2654 155.797 77.51 153.582 79.7251 151.367 81.9403 150.123 84.9451 150.123 88.0777 150.123 91.2104 151.367 94.2152 153.582 96.4304 155.797 98.6455 158.802 99.8901 161.935 99.8901Z" stroke="#000000" stroke-width="1.05653" stroke-linejoin="round" fill="#C0C0C0" transform="matrix(1 0 0 1.00036 827.766 -39.3532)"/></g><g clip-path="url(#clip107)"><path d="M111.72 146.711C116.15 146.711 120.4 144.951 123.532 141.819 126.665 138.686 128.425 134.436 128.425 130.006 128.425 125.576 126.665 121.326 123.532 118.194 120.4 115.061 116.15 113.301 111.72 113.301 107.29 113.301 103.04 115.061 99.9076 118.194 96.775 121.326 95.0148 125.576 95.0148 130.006 95.0148 134.436 96.775 138.686 99.9076 141.819 103.04 144.951 107.29 146.711 111.72 146.711Z" stroke="#000000" stroke-width="1.05653" stroke-linejoin="round" fill="#C0C0C0" transform="matrix(1 0 0 1.00036 827.766 -39.3532)"/></g><path d="M60.8562 324.972 60.8562 43.8165" stroke="#000000" stroke-width="0.845225" stroke-linecap="square" fill="none" transform="matrix(1 0 0 1.00036 827.766 -39.3532)"/><path d="M438.165 324.972 438.165 43.8165" stroke="#000000" stroke-width="0.845225" stroke-linecap="square" fill="none" transform="matrix(1 0 0 1.00036 827.766 -39.3532)"/><path d="M60.8562 324.972 438.165 324.972" stroke="#000000" stroke-width="0.845225" stroke-linecap="square" fill="none" transform="matrix(1 0 0 1.00036 827.766 -39.3532)"/><path d="M60.8562 43.8165 438.165 43.8165" stroke="#000000" stroke-width="0.845225" stroke-linecap="square" fill="none" transform="matrix(1 0 0 1.00036 827.766 -39.3532)"/><g clip-path="url(#clip108)"><path d="M0.620052 3.97982 3.95605 3.97982 3.95605 2.96555 0.620052 2.96555 0.620052 3.97982Z" transform="matrix(1 0 0 -1.00036 915.044 148.607)"/><path d="M1.36887 9.24333 6.27778 9.24333 6.27778 8.18944 2.51388 8.18944 2.51388 5.92516C2.69482 5.98723 2.87575 6.03345 3.05668 6.06383 3.23893 6.09421 3.42118 6.10939 3.60343 6.10939 4.63487 6.10939 5.4517 5.82677 6.05393 5.26153 6.65747 4.69628 6.95924 3.93096 6.95924 2.96555 6.95924 1.97109 6.64954 1.19784 6.03015 0.645805 5.41076 0.0950878 4.5378-0.180271 3.41128-0.180271 3.023-0.180271 2.62746-0.147254 2.22466-0.0812209 1.82318-0.0151876 1.40783 0.0838622 0.978612 0.215929L0.978612 1.47386C1.34972 1.2718 1.73337 1.12124 2.12957 1.02219 2.52577 0.923144 2.94442 0.873619 3.38552 0.873619 4.1 0.873619 4.66525 1.06115 5.08126 1.43622 5.49859 1.81129 5.70725 2.32107 5.70725 2.96555 5.70725 3.60872 5.49859 4.11783 5.08126 4.4929 4.66525 4.86929 4.1 5.05748 3.38552 5.05748 3.05139 5.05748 2.71793 5.02051 2.38512 4.94655 2.05363 4.87259 1.71488 4.75703 1.36887 4.59987L1.36887 9.24333Z" transform="matrix(1 0 0 -1.00036 919.618 148.607)"/></g><g clip-path="url(#clip109)"><path d="M0.620052 3.97982 3.95605 3.97982 3.95605 2.96555 0.620052 2.96555 0.620052 3.97982Z" transform="matrix(1 0 0 -1.00036 933.166 203.015)"/><path d="M4.79203 8.15378 1.63432 3.21912 4.79203 3.21912 4.79203 8.15378ZM4.46318 9.24333 6.0361 9.24333 6.0361 3.21912 7.35544 3.21912 7.35544 2.1791 6.0361 2.1791 6.0361 0 4.79203 0 4.79203 2.1791 0.620052 2.1791 0.620052 3.38552 4.46318 9.24333Z" transform="matrix(1 0 0 -1.00036 937.741 203.015)"/></g><g clip-path="url(#clip110)"><path d="M0.620052 3.97982 3.95605 3.97982 3.95605 2.96555 0.620052 2.96555 0.620052 3.97982Z" transform="matrix(1 0 0 -1.00036 983.381 244.958)"/><path d="M5.14465 4.98419C5.74291 4.85608 6.20976 4.58931 6.54521 4.18386 6.88198 3.77974 7.05037 3.28053 7.05037 2.68623 7.05037 1.77497 6.73671 1.06908 6.10939 0.568546 5.48208 0.0693349 4.59063-0.180271 3.43505-0.180271 3.04809-0.180271 2.64925-0.141971 2.23853-0.0653729 1.8278 0.0112256 1.40387 0.126123 0.966726 0.279321L0.966726 1.48575C1.31274 1.28369 1.69177 1.13115 2.10382 1.02814 2.51719 0.925125 2.94904 0.873619 3.39939 0.873619 4.18254 0.873619 4.77948 1.02814 5.19021 1.33717 5.60094 1.64621 5.8063 2.09589 5.8063 2.68623 5.8063 3.23167 5.61546 3.65758 5.23379 3.96397 4.85212 4.27169 4.32121 4.42555 3.64107 4.42555L2.56341 4.42555 2.56341 5.45368 3.6906 5.45368C4.30471 5.45368 4.77486 5.57651 5.10107 5.82215 5.42727 6.06779 5.59037 6.42173 5.59037 6.88396 5.59037 7.35808 5.42199 7.72192 5.08522 7.97549 4.74977 8.23038 4.26839 8.35782 3.64107 8.35782 3.2977 8.35782 2.92989 8.32018 2.53766 8.24491 2.14542 8.17095 1.71422 8.05605 1.24407 7.90021L1.24407 9.01353C1.7195 9.1456 2.16457 9.24465 2.57926 9.31068 2.99395 9.37672 3.38486 9.40973 3.75201 9.40973 4.70156 9.40973 5.45236 9.1938 6.0044 8.76195 6.55776 8.33141 6.83444 7.749 6.83444 7.01471 6.83444 6.50229 6.68784 6.06977 6.39466 5.71716 6.10147 5.36454 5.6848 5.12022 5.14465 4.98419Z" transform="matrix(1 0 0 -1.00036 987.955 244.958)"/></g><g clip-path="url(#clip111)"><path d="M0.620052 3.97982 3.95605 3.97982 3.95605 2.96555 0.620052 2.96555 0.620052 3.97982Z" transform="matrix(1 0 0 -1.00036 1054.18 264.829)"/><path d="M2.43266 1.05191 6.7968 1.05191 6.7968 0 0.929087 0 0.929087 1.05191C1.40321 1.5432 2.04967 2.20221 2.86848 3.02894 3.68862 3.857 4.20367 4.39121 4.41366 4.63157 4.81382 5.0806 5.09314 5.46095 5.25162 5.77262 5.41142 6.0843 5.49132 6.39069 5.49132 6.69181 5.49132 7.18309 5.31898 7.58325 4.97428 7.89229 4.62959 8.20265 4.18056 8.35782 3.6272 8.35782 3.23497 8.35782 2.82094 8.28981 2.38512 8.15378 1.95062 8.01775 1.48575 7.81107 0.990498 7.53373L0.990498 8.79761C1.49367 8.99967 1.96383 9.1522 2.40097 9.25522 2.83943 9.35823 3.24025 9.40973 3.60343 9.40973 4.56091 9.40973 5.32426 9.17003 5.89346 8.69063 6.46267 8.21255 6.74727 7.57335 6.74727 6.77303 6.74727 6.39268 6.67596 6.03213 6.53333 5.6914 6.39202 5.35199 6.13316 4.95117 5.75678 4.48894 5.65376 4.36876 5.32558 4.02274 4.77222 3.4509 4.22018 2.87905 3.44033 2.07939 2.43266 1.05191Z" transform="matrix(1 0 0 -1.00036 1058.76 264.829)"/></g><g clip-path="url(#clip112)"><path d="M0.620052 3.97982 3.95605 3.97982 3.95605 2.96555 0.620052 2.96555 0.620052 3.97982Z" transform="matrix(1 0 0 -1.00036 1129.36 258.075)"/><path d="M1.57291 1.05191 3.61532 1.05191 3.61532 8.10426 1.39264 7.65853 1.39264 8.79761 3.60343 9.24333 4.85344 9.24333 4.85344 1.05191 6.89585 1.05191 6.89585 0 1.57291 0 1.57291 1.05191Z" transform="matrix(1 0 0 -1.00036 1133.93 258.075)"/></g><g clip-path="url(#clip113)"><path d="M1.57291 1.05191 3.61532 1.05191 3.61532 8.10426 1.39264 7.65853 1.39264 8.79761 3.60343 9.24333 4.85344 9.24333 4.85344 1.05191 6.89585 1.05191 6.89585 0 1.57291 0 1.57291 1.05191Z" transform="matrix(1 0 0 -1.00036 1193.96 226.243)"/></g><g clip-path="url(#clip114)"><path d="M2.43266 1.05191 6.7968 1.05191 6.7968 0 0.929087 0 0.929087 1.05191C1.40321 1.5432 2.04967 2.20221 2.86848 3.02894 3.68862 3.857 4.20367 4.39121 4.41366 4.63157 4.81382 5.0806 5.09314 5.46095 5.25162 5.77262 5.41142 6.0843 5.49132 6.39069 5.49132 6.69181 5.49132 7.18309 5.31898 7.58325 4.97428 7.89229 4.62959 8.20265 4.18056 8.35782 3.6272 8.35782 3.23497 8.35782 2.82094 8.28981 2.38512 8.15378 1.95062 8.01775 1.48575 7.81107 0.990498 7.53373L0.990498 8.79761C1.49367 8.99967 1.96383 9.1522 2.40097 9.25522 2.83943 9.35823 3.24025 9.40973 3.60343 9.40973 4.56091 9.40973 5.32426 9.17003 5.89346 8.69063 6.46267 8.21255 6.74727 7.57335 6.74727 6.77303 6.74727 6.39268 6.67596 6.03213 6.53333 5.6914 6.39202 5.35199 6.13316 4.95117 5.75678 4.48894 5.65376 4.36876 5.32558 4.02274 4.77222 3.4509 4.22018 2.87905 3.44033 2.07939 2.43266 1.05191Z" transform="matrix(1 0 0 -1.00036 1229.16 176.625)"/></g><g clip-path="url(#clip115)"><path d="M5.14465 4.98419C5.74291 4.85608 6.20976 4.58931 6.54521 4.18386 6.88198 3.77974 7.05037 3.28053 7.05037 2.68623 7.05037 1.77497 6.73671 1.06908 6.10939 0.568546 5.48208 0.0693349 4.59063-0.180271 3.43505-0.180271 3.04809-0.180271 2.64925-0.141971 2.23853-0.0653729 1.8278 0.0112256 1.40387 0.126123 0.966726 0.279321L0.966726 1.48575C1.31274 1.28369 1.69177 1.13115 2.10382 1.02814 2.51719 0.925125 2.94904 0.873619 3.39939 0.873619 4.18254 0.873619 4.77948 1.02814 5.19021 1.33717 5.60094 1.64621 5.8063 2.09589 5.8063 2.68623 5.8063 3.23167 5.61546 3.65758 5.23379 3.96397 4.85212 4.27169 4.32121 4.42555 3.64107 4.42555L2.56341 4.42555 2.56341 5.45368 3.6906 5.45368C4.30471 5.45368 4.77486 5.57651 5.10107 5.82215 5.42727 6.06779 5.59037 6.42173 5.59037 6.88396 5.59037 7.35808 5.42199 7.72192 5.08522 7.97549 4.74977 8.23038 4.26839 8.35782 3.64107 8.35782 3.2977 8.35782 2.92989 8.32018 2.53766 8.24491 2.14542 8.17095 1.71422 8.05605 1.24407 7.90021L1.24407 9.01353C1.7195 9.1456 2.16457 9.24465 2.57926 9.31068 2.99395 9.37672 3.38486 9.40973 3.75201 9.40973 4.70156 9.40973 5.45236 9.1938 6.0044 8.76195 6.55776 8.33141 6.83444 7.749 6.83444 7.01471 6.83444 6.50229 6.68784 6.06977 6.39466 5.71716 6.10147 5.36454 5.6848 5.12022 5.14465 4.98419Z" transform="matrix(1 0 0 -1.00036 1229.16 120.589)"/></g><g clip-path="url(#clip116)"><path d="M4.79203 8.15378 1.63432 3.21912 4.79203 3.21912 4.79203 8.15378ZM4.46318 9.24333 6.0361 9.24333 6.0361 3.21912 7.35544 3.21912 7.35544 2.1791 6.0361 2.1791 6.0361 0 4.79203 0 4.79203 2.1791 0.620052 2.1791 0.620052 3.38552 4.46318 9.24333Z" transform="matrix(1 0 0 -1.00036 1193.96 70.9718)"/></g><g clip-path="url(#clip117)"><path d="M1.36887 9.24333 6.27778 9.24333 6.27778 8.18944 2.51388 8.18944 2.51388 5.92516C2.69482 5.98723 2.87575 6.03345 3.05668 6.06383 3.23893 6.09421 3.42118 6.10939 3.60343 6.10939 4.63487 6.10939 5.4517 5.82677 6.05393 5.26153 6.65747 4.69628 6.95924 3.93096 6.95924 2.96555 6.95924 1.97109 6.64954 1.19784 6.03015 0.645805 5.41076 0.0950878 4.5378-0.180271 3.41128-0.180271 3.023-0.180271 2.62746-0.147254 2.22466-0.0812209 1.82318-0.0151876 1.40783 0.0838622 0.978612 0.215929L0.978612 1.47386C1.34972 1.2718 1.73337 1.12124 2.12957 1.02219 2.52577 0.923144 2.94442 0.873619 3.38552 0.873619 4.1 0.873619 4.66525 1.06115 5.08126 1.43622 5.49859 1.81129 5.70725 2.32107 5.70725 2.96555 5.70725 3.60872 5.49859 4.11783 5.08126 4.4929 4.66525 4.86929 4.1 5.05748 3.38552 5.05748 3.05139 5.05748 2.71793 5.02051 2.38512 4.94655 2.05363 4.87259 1.71488 4.75703 1.36887 4.59987L1.36887 9.24333Z" transform="matrix(1 0 0 -1.00036 1131.64 39.1397)"/></g><g clip-path="url(#clip118)"><path d="M4.18585 5.1189C3.62456 5.1189 3.1795 4.92674 2.85065 4.54242 2.52313 4.15943 2.35937 3.63381 2.35937 2.96555 2.35937 2.30126 2.52313 1.77563 2.85065 1.38868 3.1795 1.00304 3.62456 0.810228 4.18585 0.810228 4.74713 0.810228 5.19153 1.00304 5.51906 1.38868 5.84658 1.77563 6.01034 2.30126 6.01034 2.96555 6.01034 3.63381 5.84658 4.15943 5.51906 4.54242 5.19153 4.92674 4.74713 5.1189 4.18585 5.1189ZM6.66803 9.03929 6.66803 7.90021C6.35372 8.04813 6.03676 8.16105 5.71716 8.23896 5.39756 8.3182 5.0806 8.35782 4.76628 8.35782 3.94086 8.35782 3.31025 8.07916 2.87443 7.52184 2.43993 6.96452 2.19164 6.1226 2.12957 4.99607 2.37257 5.35529 2.67765 5.63065 3.04479 5.82215 3.41326 6.01365 3.81804 6.10939 4.25914 6.10939 5.18757 6.10939 5.9212 5.82743 6.46003 5.26351 6.99886 4.7009 7.26828 3.93492 7.26828 2.96555 7.26828 2.01599 6.98763 1.25397 6.42635 0.679482 5.86507 0.106313 5.11823-0.180271 4.18585-0.180271 3.11611-0.180271 2.29862 0.229135 1.73337 1.04795 1.16813 1.86808 0.885505 3.05602 0.885505 4.61176 0.885505 6.07241 1.23218 7.23724 1.92553 8.10624 2.61888 8.97523 3.54929 9.40973 4.71675 9.40973 5.03107 9.40973 5.34803 9.3787 5.66763 9.31663 5.98723 9.25455 6.3207 9.16211 6.66803 9.03929Z" transform="matrix(1 0 0 -1.00036 1056.47 32.3853)"/></g><g clip-path="url(#clip119)"><path d="M1.04002 9.24333 6.98301 9.24333 6.98301 8.71044 3.6272 0 2.32173 0 5.47944 8.18944 1.04002 8.18944 1.04002 9.24333Z" transform="matrix(1 0 0 -1.00036 985.668 52.256)"/></g><g clip-path="url(#clip120)"><path d="M6.78491 8.94024 6.78491 7.71994C6.31079 7.9471 5.86309 8.11614 5.4418 8.22708 5.02051 8.33933 4.61374 8.39546 4.2215 8.39546 3.54136 8.39546 3.0164 8.2634 2.64661 7.99926 2.27683 7.73513 2.09193 7.3594 2.09193 6.87208 2.09193 6.46267 2.21475 6.15364 2.4604 5.94497 2.70604 5.73763 3.17158 5.5699 3.857 5.4418L4.61176 5.28728C5.54415 5.10899 6.23221 4.79599 6.67596 4.34829 7.1197 3.90058 7.34157 3.30166 7.34157 2.55152 7.34157 1.65479 7.04112 0.975311 6.44022 0.513078 5.84064 0.0508456 4.96108-0.180271 3.80153-0.180271 3.36439-0.180271 2.89886-0.130746 2.40493-0.0316959 1.91232 0.0673539 1.40189 0.213948 0.873619 0.408085L0.873619 1.69573C1.38075 1.41179 1.87798 1.19718 2.36531 1.05191 2.85263 0.907957 3.33138 0.835981 3.80153 0.835981 4.51469 0.835981 5.06541 0.975971 5.45368 1.25595 5.84196 1.53725 6.0361 1.93807 6.0361 2.45842 6.0361 2.9114 5.89677 3.266 5.61811 3.52221 5.33945 3.77842 4.8825 3.97058 4.24726 4.09868L3.48457 4.24726C2.55218 4.43215 1.87732 4.7227 1.45999 5.1189 1.04399 5.51509 0.835981 6.06647 0.835981 6.77303 0.835981 7.59052 1.12389 8.23434 1.69969 8.7045 2.2755 9.17465 3.06856 9.40973 4.07887 9.40973 4.51337 9.40973 4.95513 9.37011 5.40416 9.29087 5.8545 9.21295 6.31476 9.09608 6.78491 8.94024Z" transform="matrix(1 0 0 -1.00036 931.437 94.1995)"/><path d="M2.29597 1.04002 2.29597-2.63671 1.15096-2.63671 1.15096 6.93349 2.29597 6.93349 2.29597 5.88158C2.53634 6.29363 2.83877 6.59936 3.20327 6.79878 3.5691 6.99952 4.00557 7.09989 4.51271 7.09989 5.35529 7.09989 6.0394 6.76576 6.56502 6.09751 7.09197 5.42925 7.35544 4.55035 7.35544 3.4608 7.35544 2.37125 7.09197 1.49169 6.56502 0.822114 6.0394 0.153857 5.35529-0.180271 4.51271-0.180271 4.00557-0.180271 3.5691-0.0799002 3.20327 0.120841 2.83877 0.321582 2.53634 0.627976 2.29597 1.04002ZM6.17278 3.4608C6.17278 4.2981 6.00044 4.95513 5.65575 5.43189 5.31105 5.90865 4.83759 6.14703 4.23537 6.14703 3.63183 6.14703 3.15771 5.90865 2.81301 5.43189 2.46832 4.95513 2.29597 4.2981 2.29597 3.4608 2.29597 2.6235 2.46832 1.96647 2.81301 1.48971 3.15771 1.01295 3.63183 0.77457 4.23537 0.77457 4.83759 0.77457 5.31105 1.01295 5.65575 1.48971 6.00044 1.96647 6.17278 2.6235 6.17278 3.4608Z" transform="matrix(1 0 0 -1.00036 939.485 94.1995)"/></g></g></g></g><g clip-path="url(#clip121)"><g clip-path="url(#clip122)"><g clip-path="url(#clip123)"><path d="M0 333.12 444.16 333.12 444.16 0 0 0Z" fill="#FFFFFF" transform="matrix(1 0 0 1.00116 -28.8785 -23.6364)"/><path d="M55.52 296.477 399.744 296.477 399.744 39.9744 55.52 39.9744Z" fill="#FFFFFF" transform="matrix(1 0 0 1.00116 -28.8785 -23.6364)"/><g clip-path="url(#clip124)"><path d="M71.1665 168.226 89.3529 222.807" stroke="#000000" stroke-width="0.963889" stroke-linejoin="round" fill="none" transform="matrix(1 0 0 1.00116 -28.8785 -23.6364)"/></g><g clip-path="url(#clip125)"><path d="M89.3529 222.807 139.746 264.884" stroke="#000000" stroke-width="0.963889" stroke-linejoin="round" fill="none" transform="matrix(1 0 0 1.00116 -28.8785 -23.6364)"/></g><g clip-path="url(#clip126)"><path d="M139.746 264.884 210.801 284.818" stroke="#000000" stroke-width="0.963889" stroke-linejoin="round" fill="none" transform="matrix(1 0 0 1.00116 -28.8785 -23.6364)"/></g><g clip-path="url(#clip127)"><path d="M139.746 264.884 286.24 278.042" stroke="#000000" stroke-width="0.963889" stroke-linejoin="round" fill="none" transform="matrix(1 0 0 1.00116 -28.8785 -23.6364)"/></g><g clip-path="url(#clip128)"><path d="M210.801 284.818 286.24 278.042" stroke="#000000" stroke-width="0.963889" stroke-linejoin="round" fill="none" transform="matrix(1 0 0 1.00116 -28.8785 -23.6364)"/></g><g clip-path="url(#clip129)"><path d="M210.801 284.818 89.353 113.645" stroke="#000000" stroke-width="0.963889" stroke-linejoin="round" fill="none" transform="matrix(1 0 0 1.00116 -28.8785 -23.6364)"/></g><g clip-path="url(#clip130)"><path d="M286.24 278.042 348.782 246.108" stroke="#000000" stroke-width="0.963889" stroke-linejoin="round" fill="none" transform="matrix(1 0 0 1.00116 -28.8785 -23.6364)"/></g><g clip-path="url(#clip131)"><path d="M286.24 278.042 210.801 51.6336" stroke="#000000" stroke-width="0.963889" stroke-linejoin="round" fill="none" transform="matrix(1 0 0 1.00116 -28.8785 -23.6364)"/></g><g clip-path="url(#clip132)"><path d="M286.24 278.042 89.353 113.645" stroke="#000000" stroke-width="0.963889" stroke-linejoin="round" fill="none" transform="matrix(1 0 0 1.00116 -28.8785 -23.6364)"/></g><g clip-path="url(#clip133)"><path d="M348.782 246.108 384.097 196.333" stroke="#000000" stroke-width="0.963889" stroke-linejoin="round" fill="none" transform="matrix(1 0 0 1.00116 -28.8785 -23.6364)"/></g><g clip-path="url(#clip134)"><path d="M348.782 246.108 89.353 113.645" stroke="#000000" stroke-width="0.963889" stroke-linejoin="round" fill="none" transform="matrix(1 0 0 1.00116 -28.8785 -23.6364)"/></g><g clip-path="url(#clip135)"><path d="M384.097 196.333 384.097 140.118" stroke="#000000" stroke-width="0.963889" stroke-linejoin="round" fill="none" transform="matrix(1 0 0 1.00116 -28.8785 -23.6364)"/></g><g clip-path="url(#clip136)"><path d="M384.097 196.333 89.353 113.645" stroke="#000000" stroke-width="0.963889" stroke-linejoin="round" fill="none" transform="matrix(1 0 0 1.00116 -28.8785 -23.6364)"/></g><g clip-path="url(#clip137)"><path d="M384.097 140.118 348.781 90.3429" stroke="#000000" stroke-width="0.963889" stroke-linejoin="round" fill="none" transform="matrix(1 0 0 1.00116 -28.8785 -23.6364)"/></g><g clip-path="url(#clip138)"><path d="M384.097 140.118 286.24 58.4095" stroke="#000000" stroke-width="0.963889" stroke-linejoin="round" fill="none" transform="matrix(1 0 0 1.00116 -28.8785 -23.6364)"/></g><g clip-path="url(#clip139)"><path d="M384.097 140.118 210.801 51.6336" stroke="#000000" stroke-width="0.963889" stroke-linejoin="round" fill="none" transform="matrix(1 0 0 1.00116 -28.8785 -23.6364)"/></g><g clip-path="url(#clip140)"><path d="M384.097 140.118 139.746 71.5675" stroke="#000000" stroke-width="0.963889" stroke-linejoin="round" fill="none" transform="matrix(1 0 0 1.00116 -28.8785 -23.6364)"/></g><g clip-path="url(#clip141)"><path d="M384.097 140.118 89.353 113.645" stroke="#000000" stroke-width="0.963889" stroke-linejoin="round" fill="none" transform="matrix(1 0 0 1.00116 -28.8785 -23.6364)"/></g><g clip-path="url(#clip142)"><path d="M348.781 90.3429 286.24 58.4095" stroke="#000000" stroke-width="0.963889" stroke-linejoin="round" fill="none" transform="matrix(1 0 0 1.00116 -28.8785 -23.6364)"/></g><g clip-path="url(#clip143)"><path d="M348.781 90.3429 89.353 113.645" stroke="#000000" stroke-width="0.963889" stroke-linejoin="round" fill="none" transform="matrix(1 0 0 1.00116 -28.8785 -23.6364)"/></g><g clip-path="url(#clip144)"><path d="M286.24 58.4095 210.801 51.6336" stroke="#000000" stroke-width="0.963889" stroke-linejoin="round" fill="none" transform="matrix(1 0 0 1.00116 -28.8785 -23.6364)"/></g><g clip-path="url(#clip145)"><path d="M286.24 58.4095 139.746 71.5675" stroke="#000000" stroke-width="0.963889" stroke-linejoin="round" fill="none" transform="matrix(1 0 0 1.00116 -28.8785 -23.6364)"/></g><g clip-path="url(#clip146)"><path d="M286.24 58.4095 89.353 113.645" stroke="#000000" stroke-width="0.963889" stroke-linejoin="round" fill="none" transform="matrix(1 0 0 1.00116 -28.8785 -23.6364)"/></g><g clip-path="url(#clip147)"><path d="M210.801 51.6336 139.746 71.5675" stroke="#000000" stroke-width="0.963889" stroke-linejoin="round" fill="none" transform="matrix(1 0 0 1.00116 -28.8785 -23.6364)"/></g><g clip-path="url(#clip148)"><path d="M210.801 51.6336 89.353 113.645" stroke="#000000" stroke-width="0.963889" stroke-linejoin="round" fill="none" transform="matrix(1 0 0 1.00116 -28.8785 -23.6364)"/></g><g clip-path="url(#clip149)"><path d="M71.1665 179.002C74.0245 179.002 76.7658 177.867 78.7867 175.846 80.8076 173.825 81.9431 171.084 81.9431 168.226 81.9431 165.368 80.8076 162.626 78.7867 160.605 76.7658 158.584 74.0245 157.449 71.1665 157.449 68.3085 157.449 65.5672 158.584 63.5463 160.605 61.5254 162.626 60.3899 165.368 60.3899 168.226 60.3899 171.084 61.5254 173.825 63.5463 175.846 65.5672 177.867 68.3085 179.002 71.1665 179.002Z" stroke="#000000" stroke-width="0.963889" stroke-linejoin="round" fill="#C0C0C0" transform="matrix(1 0 0 1.00116 -28.8785 -23.6364)"/></g><g clip-path="url(#clip150)"><path d="M89.3529 233.583C92.2109 233.583 94.9522 232.448 96.9732 230.427 98.9941 228.406 100.13 225.665 100.13 222.807 100.13 219.949 98.9941 217.207 96.9732 215.186 94.9522 213.165 92.2109 212.03 89.3529 212.03 86.4949 212.03 83.7536 213.165 81.7327 215.186 79.7118 217.207 78.5763 219.949 78.5763 222.807 78.5763 225.665 79.7118 228.406 81.7327 230.427 83.7536 232.448 86.4949 233.583 89.3529 233.583Z" stroke="#000000" stroke-width="0.963889" stroke-linejoin="round" fill="#C0C0C0" transform="matrix(1 0 0 1.00116 -28.8785 -23.6364)"/></g><g clip-path="url(#clip151)"><path d="M139.746 275.66C142.604 275.66 145.345 274.525 147.366 272.504 149.387 270.483 150.523 267.742 150.523 264.884 150.523 262.026 149.387 259.284 147.366 257.263 145.345 255.243 142.604 254.107 139.746 254.107 136.888 254.107 134.147 255.243 132.126 257.263 130.105 259.284 128.969 262.026 128.969 264.884 128.969 267.742 130.105 270.483 132.126 272.504 134.147 274.525 136.888 275.66 139.746 275.66Z" stroke="#000000" stroke-width="0.963889" stroke-linejoin="round" fill="#C0C0C0" transform="matrix(1 0 0 1.00116 -28.8785 -23.6364)"/></g><g clip-path="url(#clip152)"><path d="M210.801 295.594C213.659 295.594 216.4 294.459 218.421 292.438 220.442 290.417 221.577 287.676 221.577 284.818 221.577 281.96 220.442 279.218 218.421 277.197 216.4 275.176 213.659 274.041 210.801 274.041 207.943 274.041 205.202 275.176 203.181 277.197 201.16 279.218 200.024 281.96 200.024 284.818 200.024 287.676 201.16 290.417 203.181 292.438 205.202 294.459 207.943 295.594 210.801 295.594Z" stroke="#000000" stroke-width="0.963889" stroke-linejoin="round" fill="#C0C0C0" transform="matrix(1 0 0 1.00116 -28.8785 -23.6364)"/></g><g clip-path="url(#clip153)"><path d="M286.24 288.818C289.098 288.818 291.84 287.683 293.86 285.662 295.881 283.641 297.017 280.9 297.017 278.042 297.017 275.184 295.881 272.442 293.86 270.421 291.84 268.401 289.098 267.265 286.24 267.265 283.382 267.265 280.641 268.401 278.62 270.421 276.599 272.442 275.464 275.184 275.464 278.042 275.464 280.9 276.599 283.641 278.62 285.662 280.641 287.683 283.382 288.818 286.24 288.818Z" stroke="#000000" stroke-width="0.963889" stroke-linejoin="round" fill="#C0C0C0" transform="matrix(1 0 0 1.00116 -28.8785 -23.6364)"/></g><g clip-path="url(#clip154)"><path d="M348.782 256.885C351.64 256.885 354.381 255.749 356.402 253.728 358.423 251.707 359.558 248.966 359.558 246.108 359.558 243.25 358.423 240.509 356.402 238.488 354.381 236.467 351.64 235.332 348.782 235.332 345.924 235.332 343.182 236.467 341.161 238.488 339.14 240.509 338.005 243.25 338.005 246.108 338.005 248.966 339.14 251.707 341.161 253.728 343.182 255.749 345.924 256.885 348.782 256.885Z" stroke="#000000" stroke-width="0.963889" stroke-linejoin="round" fill="#C0C0C0" transform="matrix(1 0 0 1.00116 -28.8785 -23.6364)"/></g><g clip-path="url(#clip155)"><path d="M384.097 207.109C386.955 207.109 389.697 205.974 391.718 203.953 393.739 201.932 394.874 199.191 394.874 196.333 394.874 193.475 393.739 190.733 391.718 188.713 389.697 186.692 386.955 185.556 384.097 185.556 381.239 185.556 378.498 186.692 376.477 188.713 374.456 190.733 373.321 193.475 373.321 196.333 373.321 199.191 374.456 201.932 376.477 203.953 378.498 205.974 381.239 207.109 384.097 207.109Z" stroke="#000000" stroke-width="0.963889" stroke-linejoin="round" fill="#C0C0C0" transform="matrix(1 0 0 1.00116 -28.8785 -23.6364)"/></g><g clip-path="url(#clip156)"><path d="M384.097 150.895C386.955 150.895 389.697 149.759 391.718 147.739 393.739 145.718 394.874 142.976 394.874 140.118 394.874 137.26 393.739 134.519 391.718 132.498 389.697 130.477 386.955 129.342 384.097 129.342 381.239 129.342 378.498 130.477 376.477 132.498 374.456 134.519 373.321 137.26 373.321 140.118 373.321 142.976 374.456 145.718 376.477 147.739 378.498 149.759 381.239 150.895 384.097 150.895Z" stroke="#000000" stroke-width="0.963889" stroke-linejoin="round" fill="#C0C0C0" transform="matrix(1 0 0 1.00116 -28.8785 -23.6364)"/></g><g clip-path="url(#clip157)"><path d="M348.781 101.12C351.639 101.12 354.381 99.984 356.402 97.9631 358.423 95.9422 359.558 93.2009 359.558 90.3429 359.558 87.4849 358.423 84.7436 356.402 82.7227 354.381 80.7018 351.639 79.5663 348.781 79.5663 345.924 79.5663 343.182 80.7018 341.161 82.7227 339.14 84.7436 338.005 87.4849 338.005 90.3429 338.005 93.2009 339.14 95.9422 341.161 97.9631 343.182 99.984 345.924 101.12 348.781 101.12Z" stroke="#000000" stroke-width="0.963889" stroke-linejoin="round" fill="#C0C0C0" transform="matrix(1 0 0 1.00116 -28.8785 -23.6364)"/></g><g clip-path="url(#clip158)"><path d="M286.24 69.1861C289.098 69.1861 291.839 68.0506 293.86 66.0297 295.881 64.0088 297.017 61.2675 297.017 58.4095 297.017 55.5515 295.881 52.8102 293.86 50.7893 291.839 48.7684 289.098 47.6329 286.24 47.6329 283.382 47.6329 280.641 48.7684 278.62 50.7893 276.599 52.8102 275.464 55.5515 275.464 58.4095 275.464 61.2675 276.599 64.0088 278.62 66.0297 280.641 68.0506 283.382 69.1861 286.24 69.1861Z" stroke="#000000" stroke-width="0.963889" stroke-linejoin="round" fill="#C0C0C0" transform="matrix(1 0 0 1.00116 -28.8785 -23.6364)"/></g><g clip-path="url(#clip159)"><path d="M210.801 62.4102C213.659 62.4102 216.4 61.2747 218.421 59.2538 220.442 57.2329 221.577 54.4916 221.577 51.6336 221.577 48.7756 220.442 46.0343 218.421 44.0134 216.4 41.9925 213.659 40.857 210.801 40.857 207.943 40.857 205.202 41.9925 203.181 44.0134 201.16 46.0343 200.024 48.7756 200.024 51.6336 200.024 54.4916 201.16 57.2329 203.181 59.2538 205.202 61.2747 207.943 62.4102 210.801 62.4102Z" stroke="#000000" stroke-width="0.963889" stroke-linejoin="round" fill="#C0C0C0" transform="matrix(1 0 0 1.00116 -28.8785 -23.6364)"/></g><g clip-path="url(#clip160)"><path d="M139.746 82.3441C142.604 82.3441 145.345 81.2086 147.366 79.1877 149.387 77.1668 150.523 74.4255 150.523 71.5675 150.523 68.7095 149.387 65.9682 147.366 63.9473 145.345 61.9264 142.604 60.7909 139.746 60.7909 136.888 60.7909 134.147 61.9264 132.126 63.9473 130.105 65.9682 128.969 68.7095 128.969 71.5675 128.969 74.4255 130.105 77.1668 132.126 79.1877 134.147 81.2086 136.888 82.3441 139.746 82.3441Z" stroke="#000000" stroke-width="0.963889" stroke-linejoin="round" fill="#C0C0C0" transform="matrix(1 0 0 1.00116 -28.8785 -23.6364)"/></g><g clip-path="url(#clip161)"><path d="M89.353 128.885C93.3948 128.885 97.2716 127.279 100.13 124.421 102.988 121.563 104.593 117.686 104.593 113.645 104.593 109.603 102.988 105.726 100.13 102.868 97.2716 100.01 93.3948 98.4042 89.353 98.4042 85.3111 98.4042 81.4343 100.01 78.5763 102.868 75.7184 105.726 74.1125 109.603 74.1125 113.645 74.1125 117.686 75.7184 121.563 78.5763 124.421 81.4343 127.279 85.3111 128.885 89.353 128.885Z" stroke="#000000" stroke-width="0.963889" stroke-linejoin="round" fill="#C0C0C0" transform="matrix(1 0 0 1.00116 -28.8785 -23.6364)"/></g><path d="M55.52 296.477 55.52 39.9744" stroke="#000000" stroke-width="0.771111" stroke-linecap="square" fill="none" transform="matrix(1 0 0 1.00116 -28.8785 -23.6364)"/><path d="M399.744 296.477 399.744 39.9744" stroke="#000000" stroke-width="0.771111" stroke-linecap="square" fill="none" transform="matrix(1 0 0 1.00116 -28.8785 -23.6364)"/><path d="M55.52 296.477 399.744 296.477" stroke="#000000" stroke-width="0.771111" stroke-linecap="square" fill="none" transform="matrix(1 0 0 1.00116 -28.8785 -23.6364)"/><path d="M55.52 39.9744 399.744 39.9744" stroke="#000000" stroke-width="0.771111" stroke-linecap="square" fill="none" transform="matrix(1 0 0 1.00116 -28.8785 -23.6364)"/><g clip-path="url(#clip162)"><path d="M0.565682 3.63085 3.60916 3.63085 3.60916 2.70552 0.565682 2.70552 0.565682 3.63085Z" transform="matrix(1 0 0 -1.00116 36.5219 147.98)"/><path d="M1.24884 8.43282 5.72731 8.43282 5.72731 7.47134 2.29345 7.47134 2.29345 5.40561C2.45852 5.46224 2.62358 5.50441 2.78865 5.53212 2.95492 5.55983 3.12119 5.57369 3.28746 5.57369 4.22846 5.57369 4.97367 5.31585 5.52308 4.80017 6.0737 4.28449 6.34901 3.58627 6.34901 2.70552 6.34901 1.79825 6.06647 1.09281 5.5014 0.589177 4.93632 0.08675 4.1399-0.164464 3.11216-0.164464 2.75793-0.164464 2.39707-0.134342 2.02959-0.0740989 1.66331-0.0138559 1.28438 0.0765087 0.892802 0.196995L0.892802 1.34462C1.23137 1.16028 1.58138 1.02293 1.94284 0.932562 2.3043 0.842198 2.68624 0.797015 3.08866 0.797015 3.74049 0.797015 4.25617 0.968106 4.6357 1.31029 5.01644 1.65247 5.20681 2.11754 5.20681 2.70552 5.20681 3.29228 5.01644 3.75676 4.6357 4.09894 4.25617 4.44232 3.74049 4.61402 3.08866 4.61402 2.78383 4.61402 2.4796 4.58028 2.17598 4.51281 1.87356 4.44533 1.56451 4.33991 1.24884 4.19653L1.24884 8.43282Z" transform="matrix(1 0 0 -1.00116 40.6956 147.98)"/></g><g clip-path="url(#clip163)"><path d="M0.565682 3.63085 3.60916 3.63085 3.60916 2.70552 0.565682 2.70552 0.565682 3.63085Z" transform="matrix(1 0 0 -1.00116 54.7083 202.624)"/><path d="M4.37184 7.43881 1.49102 2.93685 4.37184 2.93685 4.37184 7.43881ZM4.07183 8.43282 5.50682 8.43282 5.50682 2.93685 6.71047 2.93685 6.71047 1.98802 5.50682 1.98802 5.50682 0 4.37184 0 4.37184 1.98802 0.565682 1.98802 0.565682 3.08866 4.07183 8.43282Z" transform="matrix(1 0 0 -1.00116 58.882 202.624)"/></g><g clip-path="url(#clip164)"><path d="M0.565682 3.63085 3.60916 3.63085 3.60916 2.70552 0.565682 2.70552 0.565682 3.63085Z" transform="matrix(1 0 0 -1.00116 105.101 244.75)"/><path d="M4.69354 4.54715C5.23934 4.43027 5.66526 4.18689 5.97129 3.817 6.27853 3.44831 6.43215 2.99287 6.43215 2.45069 6.43215 1.61933 6.146 0.975335 5.57369 0.518693 5.00138 0.0632552 4.1881-0.164464 3.13384-0.164464 2.78082-0.164464 2.41695-0.129523 2.04224-0.0596406 1.66753 0.0102413 1.28077 0.115064 0.881958 0.254828L0.881958 1.35547C1.19763 1.17112 1.54343 1.03196 1.91934 0.937984 2.29646 0.844005 2.69045 0.797015 3.10131 0.797015 3.81579 0.797015 4.36039 0.937984 4.7351 1.21992 5.10982 1.50186 5.29717 1.91211 5.29717 2.45069 5.29717 2.94829 5.12307 3.33686 4.77486 3.61639 4.42666 3.89712 3.9423 4.03749 3.3218 4.03749L2.33863 4.03749 2.33863 4.97547 3.36698 4.97547C3.92724 4.97547 4.35617 5.08753 4.65378 5.31163 4.95138 5.53573 5.10018 5.85864 5.10018 6.28034 5.10018 6.71288 4.94656 7.04482 4.63932 7.27615 4.33328 7.50869 3.89411 7.62496 3.3218 7.62496 3.00854 7.62496 2.67298 7.59062 2.31514 7.52195 1.9573 7.45447 1.56391 7.34965 1.13498 7.20748L1.13498 8.22318C1.56873 8.34366 1.97477 8.43403 2.35309 8.49427 2.73142 8.55451 3.08806 8.58463 3.42301 8.58463 4.2893 8.58463 4.97427 8.38764 5.4779 7.99365 5.98274 7.60086 6.23516 7.06952 6.23516 6.39962 6.23516 5.93213 6.10142 5.53754 5.83394 5.21584 5.56646 4.89415 5.18632 4.67125 4.69354 4.54715Z" transform="matrix(1 0 0 -1.00116 109.275 244.75)"/></g><g clip-path="url(#clip165)"><path d="M0.565682 3.63085 3.60916 3.63085 3.60916 2.70552 0.565682 2.70552 0.565682 3.63085Z" transform="matrix(1 0 0 -1.00116 176.156 264.707)"/><path d="M2.21935 0.959672 6.20082 0.959672 6.20082 0 0.84762 0 0.84762 0.959672C1.28016 1.40788 1.86994 2.00911 2.61696 2.76335 3.36518 3.5188 3.83507 4.00616 4.02665 4.22545 4.39172 4.6351 4.64655 4.9821 4.79113 5.26645 4.93692 5.55079 5.00981 5.83032 5.00981 6.10503 5.00981 6.55324 4.85258 6.91831 4.53811 7.20025 4.22364 7.48339 3.81399 7.62496 3.30915 7.62496 2.95131 7.62496 2.57358 7.56291 2.17598 7.43881 1.77958 7.31471 1.35547 7.12615 0.903646 6.87313L0.903646 8.02618C1.3627 8.21052 1.79163 8.34969 2.19044 8.44367 2.59045 8.53764 2.95613 8.58463 3.28746 8.58463 4.16099 8.58463 4.8574 8.36595 5.37669 7.92859 5.89599 7.49243 6.15563 6.90928 6.15563 6.17913 6.15563 5.83213 6.09057 5.5032 5.96045 5.19235 5.83153 4.8827 5.59537 4.51702 5.25199 4.09532 5.15801 3.98568 4.8586 3.67001 4.35377 3.1483 3.85013 2.6266 3.13866 1.89705 2.21935 0.959672Z" transform="matrix(1 0 0 -1.00116 180.33 264.707)"/></g><g clip-path="url(#clip166)"><path d="M0.565682 3.63085 3.60916 3.63085 3.60916 2.70552 0.565682 2.70552 0.565682 3.63085Z" transform="matrix(1 0 0 -1.00116 251.596 257.924)"/><path d="M1.43499 0.959672 3.29831 0.959672 3.29831 7.39363 1.27053 6.98699 1.27053 8.02618 3.28746 8.43282 4.42786 8.43282 4.42786 0.959672 6.29118 0.959672 6.29118 0 1.43499 0 1.43499 0.959672Z" transform="matrix(1 0 0 -1.00116 255.769 257.924)"/></g><g clip-path="url(#clip167)"><path d="M1.43499 0.959672 3.29831 0.959672 3.29831 7.39363 1.27053 6.98699 1.27053 8.02618 3.28746 8.43282 4.42786 8.43282 4.42786 0.959672 6.29118 0.959672 6.29118 0 1.43499 0 1.43499 0.959672Z" transform="matrix(1 0 0 -1.00116 316.223 225.953)"/></g><g clip-path="url(#clip168)"><path d="M2.21935 0.959672 6.20082 0.959672 6.20082 0 0.84762 0 0.84762 0.959672C1.28016 1.40788 1.86994 2.00911 2.61696 2.76335 3.36518 3.5188 3.83507 4.00616 4.02665 4.22545 4.39172 4.6351 4.64655 4.9821 4.79113 5.26645 4.93692 5.55079 5.00981 5.83032 5.00981 6.10503 5.00981 6.55324 4.85258 6.91831 4.53811 7.20025 4.22364 7.48339 3.81399 7.62496 3.30915 7.62496 2.95131 7.62496 2.57358 7.56291 2.17598 7.43881 1.77958 7.31471 1.35547 7.12615 0.903646 6.87313L0.903646 8.02618C1.3627 8.21052 1.79163 8.34969 2.19044 8.44367 2.59045 8.53764 2.95613 8.58463 3.28746 8.58463 4.16099 8.58463 4.8574 8.36595 5.37669 7.92859 5.89599 7.49243 6.15563 6.90928 6.15563 6.17913 6.15563 5.83213 6.09057 5.5032 5.96045 5.19235 5.83153 4.8827 5.59537 4.51702 5.25199 4.09532 5.15801 3.98568 4.8586 3.67001 4.35377 3.1483 3.85013 2.6266 3.13866 1.89705 2.21935 0.959672Z" transform="matrix(1 0 0 -1.00116 351.539 176.12)"/></g><g clip-path="url(#clip169)"><path d="M4.69354 4.54715C5.23934 4.43027 5.66526 4.18689 5.97129 3.817 6.27853 3.44831 6.43215 2.99287 6.43215 2.45069 6.43215 1.61933 6.146 0.975335 5.57369 0.518693 5.00138 0.0632552 4.1881-0.164464 3.13384-0.164464 2.78082-0.164464 2.41695-0.129523 2.04224-0.0596406 1.66753 0.0102413 1.28077 0.115064 0.881958 0.254828L0.881958 1.35547C1.19763 1.17112 1.54343 1.03196 1.91934 0.937984 2.29646 0.844005 2.69045 0.797015 3.10131 0.797015 3.81579 0.797015 4.36039 0.937984 4.7351 1.21992 5.10982 1.50186 5.29717 1.91211 5.29717 2.45069 5.29717 2.94829 5.12307 3.33686 4.77486 3.61639 4.42666 3.89712 3.9423 4.03749 3.3218 4.03749L2.33863 4.03749 2.33863 4.97547 3.36698 4.97547C3.92724 4.97547 4.35617 5.08753 4.65378 5.31163 4.95138 5.53573 5.10018 5.85864 5.10018 6.28034 5.10018 6.71288 4.94656 7.04482 4.63932 7.27615 4.33328 7.50869 3.89411 7.62496 3.3218 7.62496 3.00854 7.62496 2.67298 7.59062 2.31514 7.52195 1.9573 7.45447 1.56391 7.34965 1.13498 7.20748L1.13498 8.22318C1.56873 8.34366 1.97477 8.43403 2.35309 8.49427 2.73142 8.55451 3.08806 8.58463 3.42301 8.58463 4.2893 8.58463 4.97427 8.38764 5.4779 7.99365 5.98274 7.60086 6.23516 7.06952 6.23516 6.39962 6.23516 5.93213 6.10142 5.53754 5.83394 5.21584 5.56646 4.89415 5.18632 4.67125 4.69354 4.54715Z" transform="matrix(1 0 0 -1.00116 351.539 119.84)"/></g><g clip-path="url(#clip170)"><path d="M4.37184 7.43881 1.49102 2.93685 4.37184 2.93685 4.37184 7.43881ZM4.07183 8.43282 5.50682 8.43282 5.50682 2.93685 6.71047 2.93685 6.71047 1.98802 5.50682 1.98802 5.50682 0 4.37184 0 4.37184 1.98802 0.565682 1.98802 0.565682 3.08866 4.07183 8.43282Z" transform="matrix(1 0 0 -1.00116 316.223 70.0069)"/></g><g clip-path="url(#clip171)"><path d="M1.24884 8.43282 5.72731 8.43282 5.72731 7.47134 2.29345 7.47134 2.29345 5.40561C2.45852 5.46224 2.62358 5.50441 2.78865 5.53212 2.95492 5.55983 3.12119 5.57369 3.28746 5.57369 4.22846 5.57369 4.97367 5.31585 5.52308 4.80017 6.0737 4.28449 6.34901 3.58627 6.34901 2.70552 6.34901 1.79825 6.06647 1.09281 5.5014 0.589177 4.93632 0.08675 4.1399-0.164464 3.11216-0.164464 2.75793-0.164464 2.39707-0.134342 2.02959-0.0740989 1.66331-0.0138559 1.28438 0.0765087 0.892802 0.196995L0.892802 1.34462C1.23137 1.16028 1.58138 1.02293 1.94284 0.932562 2.3043 0.842198 2.68624 0.797015 3.08866 0.797015 3.74049 0.797015 4.25617 0.968106 4.6357 1.31029 5.01644 1.65247 5.20681 2.11754 5.20681 2.70552 5.20681 3.29228 5.01644 3.75676 4.6357 4.09894 4.25617 4.44232 3.74049 4.61402 3.08866 4.61402 2.78383 4.61402 2.4796 4.58028 2.17598 4.51281 1.87356 4.44533 1.56451 4.33991 1.24884 4.19653L1.24884 8.43282Z" transform="matrix(1 0 0 -1.00116 253.682 38.0363)"/></g><g clip-path="url(#clip172)"><path d="M3.81881 4.67004C3.30674 4.67004 2.9007 4.49473 2.60069 4.14412 2.30189 3.79471 2.15248 3.31518 2.15248 2.70552 2.15248 2.09947 2.30189 1.61994 2.60069 1.26691 2.9007 0.915092 3.30674 0.739182 3.81881 0.739182 4.33087 0.739182 4.73631 0.915092 5.03511 1.26691 5.33392 1.61994 5.48332 2.09947 5.48332 2.70552 5.48332 3.31518 5.33392 3.79471 5.03511 4.14412 4.73631 4.49473 4.33087 4.67004 3.81881 4.67004ZM6.08334 8.24667 6.08334 7.20748C5.79659 7.34242 5.50742 7.44544 5.21584 7.51652 4.92427 7.58882 4.6351 7.62496 4.34834 7.62496 3.59531 7.62496 3.01998 7.37074 2.62238 6.86229 2.22598 6.35383 1.99947 5.58574 1.94284 4.55799 2.16453 4.88571 2.44286 5.13692 2.77781 5.31163 3.11396 5.48633 3.48325 5.57369 3.88568 5.57369 4.73269 5.57369 5.40199 5.31645 5.89358 4.80197 6.38516 4.2887 6.63095 3.58988 6.63095 2.70552 6.63095 1.83922 6.37492 1.14402 5.86285 0.619901 5.35079 0.0969913 4.66944-0.164464 3.81881-0.164464 2.84287-0.164464 2.09706 0.209043 1.58138 0.956057 1.0657 1.70428 0.807859 2.78805 0.807859 4.20737 0.807859 5.53995 1.12414 6.60264 1.75669 7.39544 2.38924 8.18823 3.23806 8.58463 4.30316 8.58463 4.58992 8.58463 4.87908 8.55632 5.17066 8.49969 5.46224 8.44306 5.76646 8.35872 6.08334 8.24667Z" transform="matrix(1 0 0 -1.00116 178.243 31.2526)"/></g><g clip-path="url(#clip173)"><path d="M0.948828 8.43282 6.3707 8.43282 6.3707 7.94666 3.30915 0 2.11815 0 4.99897 7.47134 0.948828 7.47134 0.948828 8.43282Z" transform="matrix(1 0 0 -1.00116 107.188 51.2096)"/></g><g clip-path="url(#clip174)"><path d="M6.18997 8.15631 6.18997 7.04301C5.75743 7.25025 5.34898 7.40447 4.96463 7.50568 4.58028 7.60809 4.20918 7.6593 3.85134 7.6593 3.23083 7.6593 2.7519 7.53882 2.41454 7.29784 2.07718 7.05687 1.9085 6.71409 1.9085 6.26949 1.9085 5.89599 2.02055 5.61405 2.24466 5.42368 2.46876 5.23452 2.89347 5.0815 3.5188 4.96463L4.20737 4.82366C5.05801 4.661 5.68574 4.37545 6.09057 3.967 6.49541 3.55856 6.69782 3.01215 6.69782 2.32779 6.69782 1.50969 6.42372 0.88979 5.8755 0.468088 5.3285 0.0463871 4.52606-0.164464 3.46819-0.164464 3.06938-0.164464 2.64467-0.119281 2.19405-0.0289167 1.74464 0.0614479 1.27896 0.195187 0.797015 0.372302L0.797015 1.54704C1.25968 1.288 1.71331 1.09221 2.15791 0.959672 2.6025 0.828342 3.03926 0.762677 3.46819 0.762677 4.11882 0.762677 4.62124 0.890392 4.97547 1.14582 5.3297 1.40246 5.50682 1.76813 5.50682 2.24285 5.50682 2.65612 5.3797 2.97962 5.12548 3.21336 4.87125 3.44711 4.45437 3.62241 3.87483 3.73929L3.17903 3.87483C2.32839 4.04351 1.71271 4.30858 1.33197 4.67004 0.952443 5.0315 0.762677 5.53453 0.762677 6.17913 0.762677 6.92494 1.02534 7.51231 1.55066 7.94124 2.07598 8.37017 2.79949 8.58463 3.72121 8.58463 4.11761 8.58463 4.52064 8.54849 4.93029 8.4762 5.34115 8.40511 5.76104 8.29848 6.18997 8.15631Z" transform="matrix(1 0 0 -1.00116 53.1314 93.3356)"/><path d="M2.09465 0.948828 2.09465-2.4055 1.05004-2.4055 1.05004 6.32552 2.09465 6.32552 2.09465 5.36585C2.31394 5.74177 2.58985 6.02069 2.92239 6.20262 3.25614 6.38576 3.65434 6.47733 4.11701 6.47733 4.88571 6.47733 5.50983 6.1725 5.98936 5.56284 6.4701 4.95318 6.71047 4.15135 6.71047 3.15734 6.71047 2.16333 6.4701 1.36089 5.98936 0.750026 5.50983 0.140366 4.88571-0.164464 4.11701-0.164464 3.65434-0.164464 3.25614-0.0728941 2.92239 0.110245 2.58985 0.293384 2.31394 0.572911 2.09465 0.948828ZM5.63152 3.15734C5.63152 3.92122 5.47429 4.52064 5.15982 4.95559 4.84535 5.39055 4.41341 5.60803 3.86399 5.60803 3.31337 5.60803 2.88082 5.39055 2.56635 4.95559 2.25189 4.52064 2.09465 3.92122 2.09465 3.15734 2.09465 2.39346 2.25189 1.79404 2.56635 1.35908 2.88082 0.924128 3.31337 0.706651 3.86399 0.706651 4.41341 0.706651 4.84535 0.924128 5.15982 1.35908 5.47429 1.79404 5.63152 2.39346 5.63152 3.15734Z" transform="matrix(1 0 0 -1.00116 60.4736 93.3356)"/></g></g></g></g><rect x="183.5" y="12.5001" width="202" height="4" stroke="#FFFFFF" stroke-width="1.33333" stroke-miterlimit="8" fill="#FFFFFF"/><rect x="20.5001" y="272.5" width="154" height="6" stroke="#FFFFFF" stroke-width="1.33333" stroke-miterlimit="8" fill="#FFFFFF"/><rect x="187.5" y="272.5" width="189" height="6" stroke="#FFFFFF" stroke-width="1.33333" stroke-miterlimit="8" fill="#FFFFFF"/><rect x="29.5001" y="11.5001" width="157" height="5" stroke="#FFFFFF" stroke-width="1.33333" stroke-miterlimit="8" fill="#FFFFFF"/><path d="M403.5 149.5 433.5 149.5 433.5 144.5 443.5 154.5 433.5 164.5 433.5 159.5 403.5 159.5Z" stroke="#787878" stroke-width="1.33333" stroke-miterlimit="8" fill="#A5A5A5" fill-rule="evenodd"/><path d="M841.5 150.5 871.5 150.5 871.5 145.5 881.5 155.5 871.5 165.5 871.5 160.5 841.5 160.5Z" stroke="#787878" stroke-width="1.33333" stroke-miterlimit="8" fill="#A5A5A5" fill-rule="evenodd"/><text font-family="Times New Roman,Times New Roman_MSFontService,sans-serif" font-weight="400" font-size="16" transform="translate(11.2655 26)">BN skeleton<tspan font-size="16" x="448.674" y="0">CPDAG</tspan><tspan font-size="16" x="893.359" y="0">DAG</tspan></text><rect x="174.5" y="273.5" width="16" height="5" stroke="#FFFFFF" stroke-width="1.33333" stroke-miterlimit="8" fill="#FFFFFF"/></g></svg>