<?xml version="1.0" encoding="utf-8" standalone="no"?>
<!DOCTYPE svg PUBLIC "-//W3C//DTD SVG 1.1//EN"
  "http://www.w3.org/Graphics/SVG/1.1/DTD/svg11.dtd">
<svg height="345.6pt" version="1.1" viewBox="0 0 460.8 345.6" width="460.8pt" xmlns="http://www.w3.org/2000/svg" xmlns:xlink="http://www.w3.org/1999/xlink">
 <metadata>
  <rdf:RDF xmlns:cc="http://creativecommons.org/ns#" xmlns:dc="http://purl.org/dc/elements/1.1/" xmlns:rdf="http://www.w3.org/1999/02/22-rdf-syntax-ns#">
   <cc:Work>
    <dc:type rdf:resource="http://purl.org/dc/dcmitype/StillImage"/>
    <dc:date>2021-06-29T11:05:26.002133</dc:date>
    <dc:format>image/svg+xml</dc:format>
    <dc:creator>
     <cc:Agent>
      <dc:title>Matplotlib v3.4.2, https://matplotlib.org/</dc:title>
     </cc:Agent>
    </dc:creator>
   </cc:Work>
  </rdf:RDF>
 </metadata>
 <defs>
  <style type="text/css">*{stroke-linecap:butt;stroke-linejoin:round;}</style>
 </defs>
 <g id="figure_1">
  <g id="patch_1">
   <path d="M 0 345.6 
L 460.8 345.6 
L 460.8 0 
L 0 0 
z
" style="fill:#ffffff;"/>
  </g>
  <g id="axes_1">
   <g id="patch_2">
    <path d="M 57.6 307.584 
L 414.72 307.584 
L 414.72 41.472 
L 57.6 41.472 
z
" style="fill:#ffffff;"/>
   </g>
   <g id="matplotlib.axis_1">
    <g id="xtick_1">
     <g id="line2d_1">
      <defs>
       <path d="M 0 0 
L 0 3.5 
" id="m787b05f055" style="stroke:#000000;stroke-width:0.8;"/>
      </defs>
      <g>
       <use style="stroke:#000000;stroke-width:0.8;" x="87.36" xlink:href="#m787b05f055" y="307.584"/>
      </g>
     </g>
     <g id="text_1">
      <!-- 0.0 -->
      <g transform="translate(79.408438 322.182437)scale(0.1 -0.1)">
       <defs>
        <path d="M 2034 4250 
Q 1547 4250 1301 3770 
Q 1056 3291 1056 2328 
Q 1056 1369 1301 889 
Q 1547 409 2034 409 
Q 2525 409 2770 889 
Q 3016 1369 3016 2328 
Q 3016 3291 2770 3770 
Q 2525 4250 2034 4250 
z
M 2034 4750 
Q 2819 4750 3233 4129 
Q 3647 3509 3647 2328 
Q 3647 1150 3233 529 
Q 2819 -91 2034 -91 
Q 1250 -91 836 529 
Q 422 1150 422 2328 
Q 422 3509 836 4129 
Q 1250 4750 2034 4750 
z
" id="DejaVuSans-30" transform="scale(0.015625)"/>
        <path d="M 684 794 
L 1344 794 
L 1344 0 
L 684 0 
L 684 794 
z
" id="DejaVuSans-2e" transform="scale(0.015625)"/>
       </defs>
       <use xlink:href="#DejaVuSans-30"/>
       <use x="63.623047" xlink:href="#DejaVuSans-2e"/>
       <use x="95.410156" xlink:href="#DejaVuSans-30"/>
      </g>
     </g>
    </g>
    <g id="xtick_2">
     <g id="line2d_2">
      <g>
       <use style="stroke:#000000;stroke-width:0.8;" x="146.88" xlink:href="#m787b05f055" y="307.584"/>
      </g>
     </g>
     <g id="text_2">
      <!-- 0.2 -->
      <g transform="translate(138.928438 322.182437)scale(0.1 -0.1)">
       <defs>
        <path d="M 1228 531 
L 3431 531 
L 3431 0 
L 469 0 
L 469 531 
Q 828 903 1448 1529 
Q 2069 2156 2228 2338 
Q 2531 2678 2651 2914 
Q 2772 3150 2772 3378 
Q 2772 3750 2511 3984 
Q 2250 4219 1831 4219 
Q 1534 4219 1204 4116 
Q 875 4013 500 3803 
L 500 4441 
Q 881 4594 1212 4672 
Q 1544 4750 1819 4750 
Q 2544 4750 2975 4387 
Q 3406 4025 3406 3419 
Q 3406 3131 3298 2873 
Q 3191 2616 2906 2266 
Q 2828 2175 2409 1742 
Q 1991 1309 1228 531 
z
" id="DejaVuSans-32" transform="scale(0.015625)"/>
       </defs>
       <use xlink:href="#DejaVuSans-30"/>
       <use x="63.623047" xlink:href="#DejaVuSans-2e"/>
       <use x="95.410156" xlink:href="#DejaVuSans-32"/>
      </g>
     </g>
    </g>
    <g id="xtick_3">
     <g id="line2d_3">
      <g>
       <use style="stroke:#000000;stroke-width:0.8;" x="206.4" xlink:href="#m787b05f055" y="307.584"/>
      </g>
     </g>
     <g id="text_3">
      <!-- 0.4 -->
      <g transform="translate(198.448438 322.182437)scale(0.1 -0.1)">
       <defs>
        <path d="M 2419 4116 
L 825 1625 
L 2419 1625 
L 2419 4116 
z
M 2253 4666 
L 3047 4666 
L 3047 1625 
L 3713 1625 
L 3713 1100 
L 3047 1100 
L 3047 0 
L 2419 0 
L 2419 1100 
L 313 1100 
L 313 1709 
L 2253 4666 
z
" id="DejaVuSans-34" transform="scale(0.015625)"/>
       </defs>
       <use xlink:href="#DejaVuSans-30"/>
       <use x="63.623047" xlink:href="#DejaVuSans-2e"/>
       <use x="95.410156" xlink:href="#DejaVuSans-34"/>
      </g>
     </g>
    </g>
    <g id="xtick_4">
     <g id="line2d_4">
      <g>
       <use style="stroke:#000000;stroke-width:0.8;" x="265.92" xlink:href="#m787b05f055" y="307.584"/>
      </g>
     </g>
     <g id="text_4">
      <!-- 0.6 -->
      <g transform="translate(257.968437 322.182437)scale(0.1 -0.1)">
       <defs>
        <path d="M 2113 2584 
Q 1688 2584 1439 2293 
Q 1191 2003 1191 1497 
Q 1191 994 1439 701 
Q 1688 409 2113 409 
Q 2538 409 2786 701 
Q 3034 994 3034 1497 
Q 3034 2003 2786 2293 
Q 2538 2584 2113 2584 
z
M 3366 4563 
L 3366 3988 
Q 3128 4100 2886 4159 
Q 2644 4219 2406 4219 
Q 1781 4219 1451 3797 
Q 1122 3375 1075 2522 
Q 1259 2794 1537 2939 
Q 1816 3084 2150 3084 
Q 2853 3084 3261 2657 
Q 3669 2231 3669 1497 
Q 3669 778 3244 343 
Q 2819 -91 2113 -91 
Q 1303 -91 875 529 
Q 447 1150 447 2328 
Q 447 3434 972 4092 
Q 1497 4750 2381 4750 
Q 2619 4750 2861 4703 
Q 3103 4656 3366 4563 
z
" id="DejaVuSans-36" transform="scale(0.015625)"/>
       </defs>
       <use xlink:href="#DejaVuSans-30"/>
       <use x="63.623047" xlink:href="#DejaVuSans-2e"/>
       <use x="95.410156" xlink:href="#DejaVuSans-36"/>
      </g>
     </g>
    </g>
    <g id="xtick_5">
     <g id="line2d_5">
      <g>
       <use style="stroke:#000000;stroke-width:0.8;" x="325.44" xlink:href="#m787b05f055" y="307.584"/>
      </g>
     </g>
     <g id="text_5">
      <!-- 0.8 -->
      <g transform="translate(317.488437 322.182437)scale(0.1 -0.1)">
       <defs>
        <path d="M 2034 2216 
Q 1584 2216 1326 1975 
Q 1069 1734 1069 1313 
Q 1069 891 1326 650 
Q 1584 409 2034 409 
Q 2484 409 2743 651 
Q 3003 894 3003 1313 
Q 3003 1734 2745 1975 
Q 2488 2216 2034 2216 
z
M 1403 2484 
Q 997 2584 770 2862 
Q 544 3141 544 3541 
Q 544 4100 942 4425 
Q 1341 4750 2034 4750 
Q 2731 4750 3128 4425 
Q 3525 4100 3525 3541 
Q 3525 3141 3298 2862 
Q 3072 2584 2669 2484 
Q 3125 2378 3379 2068 
Q 3634 1759 3634 1313 
Q 3634 634 3220 271 
Q 2806 -91 2034 -91 
Q 1263 -91 848 271 
Q 434 634 434 1313 
Q 434 1759 690 2068 
Q 947 2378 1403 2484 
z
M 1172 3481 
Q 1172 3119 1398 2916 
Q 1625 2713 2034 2713 
Q 2441 2713 2670 2916 
Q 2900 3119 2900 3481 
Q 2900 3844 2670 4047 
Q 2441 4250 2034 4250 
Q 1625 4250 1398 4047 
Q 1172 3844 1172 3481 
z
" id="DejaVuSans-38" transform="scale(0.015625)"/>
       </defs>
       <use xlink:href="#DejaVuSans-30"/>
       <use x="63.623047" xlink:href="#DejaVuSans-2e"/>
       <use x="95.410156" xlink:href="#DejaVuSans-38"/>
      </g>
     </g>
    </g>
    <g id="xtick_6">
     <g id="line2d_6">
      <g>
       <use style="stroke:#000000;stroke-width:0.8;" x="384.96" xlink:href="#m787b05f055" y="307.584"/>
      </g>
     </g>
     <g id="text_6">
      <!-- 1.0 -->
      <g transform="translate(377.008438 322.182437)scale(0.1 -0.1)">
       <defs>
        <path d="M 794 531 
L 1825 531 
L 1825 4091 
L 703 3866 
L 703 4441 
L 1819 4666 
L 2450 4666 
L 2450 531 
L 3481 531 
L 3481 0 
L 794 0 
L 794 531 
z
" id="DejaVuSans-31" transform="scale(0.015625)"/>
       </defs>
       <use xlink:href="#DejaVuSans-31"/>
       <use x="63.623047" xlink:href="#DejaVuSans-2e"/>
       <use x="95.410156" xlink:href="#DejaVuSans-30"/>
      </g>
     </g>
    </g>
    <g id="text_7">
     <!-- Recall -->
     <g transform="translate(221.242812 335.860562)scale(0.1 -0.1)">
      <defs>
       <path d="M 2841 2188 
Q 3044 2119 3236 1894 
Q 3428 1669 3622 1275 
L 4263 0 
L 3584 0 
L 2988 1197 
Q 2756 1666 2539 1819 
Q 2322 1972 1947 1972 
L 1259 1972 
L 1259 0 
L 628 0 
L 628 4666 
L 2053 4666 
Q 2853 4666 3247 4331 
Q 3641 3997 3641 3322 
Q 3641 2881 3436 2590 
Q 3231 2300 2841 2188 
z
M 1259 4147 
L 1259 2491 
L 2053 2491 
Q 2509 2491 2742 2702 
Q 2975 2913 2975 3322 
Q 2975 3731 2742 3939 
Q 2509 4147 2053 4147 
L 1259 4147 
z
" id="DejaVuSans-52" transform="scale(0.015625)"/>
       <path d="M 3597 1894 
L 3597 1613 
L 953 1613 
Q 991 1019 1311 708 
Q 1631 397 2203 397 
Q 2534 397 2845 478 
Q 3156 559 3463 722 
L 3463 178 
Q 3153 47 2828 -22 
Q 2503 -91 2169 -91 
Q 1331 -91 842 396 
Q 353 884 353 1716 
Q 353 2575 817 3079 
Q 1281 3584 2069 3584 
Q 2775 3584 3186 3129 
Q 3597 2675 3597 1894 
z
M 3022 2063 
Q 3016 2534 2758 2815 
Q 2500 3097 2075 3097 
Q 1594 3097 1305 2825 
Q 1016 2553 972 2059 
L 3022 2063 
z
" id="DejaVuSans-65" transform="scale(0.015625)"/>
       <path d="M 3122 3366 
L 3122 2828 
Q 2878 2963 2633 3030 
Q 2388 3097 2138 3097 
Q 1578 3097 1268 2742 
Q 959 2388 959 1747 
Q 959 1106 1268 751 
Q 1578 397 2138 397 
Q 2388 397 2633 464 
Q 2878 531 3122 666 
L 3122 134 
Q 2881 22 2623 -34 
Q 2366 -91 2075 -91 
Q 1284 -91 818 406 
Q 353 903 353 1747 
Q 353 2603 823 3093 
Q 1294 3584 2113 3584 
Q 2378 3584 2631 3529 
Q 2884 3475 3122 3366 
z
" id="DejaVuSans-63" transform="scale(0.015625)"/>
       <path d="M 2194 1759 
Q 1497 1759 1228 1600 
Q 959 1441 959 1056 
Q 959 750 1161 570 
Q 1363 391 1709 391 
Q 2188 391 2477 730 
Q 2766 1069 2766 1631 
L 2766 1759 
L 2194 1759 
z
M 3341 1997 
L 3341 0 
L 2766 0 
L 2766 531 
Q 2569 213 2275 61 
Q 1981 -91 1556 -91 
Q 1019 -91 701 211 
Q 384 513 384 1019 
Q 384 1609 779 1909 
Q 1175 2209 1959 2209 
L 2766 2209 
L 2766 2266 
Q 2766 2663 2505 2880 
Q 2244 3097 1772 3097 
Q 1472 3097 1187 3025 
Q 903 2953 641 2809 
L 641 3341 
Q 956 3463 1253 3523 
Q 1550 3584 1831 3584 
Q 2591 3584 2966 3190 
Q 3341 2797 3341 1997 
z
" id="DejaVuSans-61" transform="scale(0.015625)"/>
       <path d="M 603 4863 
L 1178 4863 
L 1178 0 
L 603 0 
L 603 4863 
z
" id="DejaVuSans-6c" transform="scale(0.015625)"/>
      </defs>
      <use xlink:href="#DejaVuSans-52"/>
      <use x="64.982422" xlink:href="#DejaVuSans-65"/>
      <use x="126.505859" xlink:href="#DejaVuSans-63"/>
      <use x="181.486328" xlink:href="#DejaVuSans-61"/>
      <use x="242.765625" xlink:href="#DejaVuSans-6c"/>
      <use x="270.548828" xlink:href="#DejaVuSans-6c"/>
     </g>
    </g>
   </g>
   <g id="matplotlib.axis_2">
    <g id="ytick_1">
     <g id="line2d_7">
      <defs>
       <path d="M 0 0 
L -3.5 0 
" id="mf63479221b" style="stroke:#000000;stroke-width:0.8;"/>
      </defs>
      <g>
       <use style="stroke:#000000;stroke-width:0.8;" x="57.6" xlink:href="#mf63479221b" y="285.408"/>
      </g>
     </g>
     <g id="text_8">
      <!-- 0.0 -->
      <g transform="translate(34.696875 289.207219)scale(0.1 -0.1)">
       <use xlink:href="#DejaVuSans-30"/>
       <use x="63.623047" xlink:href="#DejaVuSans-2e"/>
       <use x="95.410156" xlink:href="#DejaVuSans-30"/>
      </g>
     </g>
    </g>
    <g id="ytick_2">
     <g id="line2d_8">
      <g>
       <use style="stroke:#000000;stroke-width:0.8;" x="57.6" xlink:href="#mf63479221b" y="241.056"/>
      </g>
     </g>
     <g id="text_9">
      <!-- 0.2 -->
      <g transform="translate(34.696875 244.855219)scale(0.1 -0.1)">
       <use xlink:href="#DejaVuSans-30"/>
       <use x="63.623047" xlink:href="#DejaVuSans-2e"/>
       <use x="95.410156" xlink:href="#DejaVuSans-32"/>
      </g>
     </g>
    </g>
    <g id="ytick_3">
     <g id="line2d_9">
      <g>
       <use style="stroke:#000000;stroke-width:0.8;" x="57.6" xlink:href="#mf63479221b" y="196.704"/>
      </g>
     </g>
     <g id="text_10">
      <!-- 0.4 -->
      <g transform="translate(34.696875 200.503219)scale(0.1 -0.1)">
       <use xlink:href="#DejaVuSans-30"/>
       <use x="63.623047" xlink:href="#DejaVuSans-2e"/>
       <use x="95.410156" xlink:href="#DejaVuSans-34"/>
      </g>
     </g>
    </g>
    <g id="ytick_4">
     <g id="line2d_10">
      <g>
       <use style="stroke:#000000;stroke-width:0.8;" x="57.6" xlink:href="#mf63479221b" y="152.352"/>
      </g>
     </g>
     <g id="text_11">
      <!-- 0.6 -->
      <g transform="translate(34.696875 156.151219)scale(0.1 -0.1)">
       <use xlink:href="#DejaVuSans-30"/>
       <use x="63.623047" xlink:href="#DejaVuSans-2e"/>
       <use x="95.410156" xlink:href="#DejaVuSans-36"/>
      </g>
     </g>
    </g>
    <g id="ytick_5">
     <g id="line2d_11">
      <g>
       <use style="stroke:#000000;stroke-width:0.8;" x="57.6" xlink:href="#mf63479221b" y="108"/>
      </g>
     </g>
     <g id="text_12">
      <!-- 0.8 -->
      <g transform="translate(34.696875 111.799219)scale(0.1 -0.1)">
       <use xlink:href="#DejaVuSans-30"/>
       <use x="63.623047" xlink:href="#DejaVuSans-2e"/>
       <use x="95.410156" xlink:href="#DejaVuSans-38"/>
      </g>
     </g>
    </g>
    <g id="ytick_6">
     <g id="line2d_12">
      <g>
       <use style="stroke:#000000;stroke-width:0.8;" x="57.6" xlink:href="#mf63479221b" y="63.648"/>
      </g>
     </g>
     <g id="text_13">
      <!-- 1.0 -->
      <g transform="translate(34.696875 67.447219)scale(0.1 -0.1)">
       <use xlink:href="#DejaVuSans-31"/>
       <use x="63.623047" xlink:href="#DejaVuSans-2e"/>
       <use x="95.410156" xlink:href="#DejaVuSans-30"/>
      </g>
     </g>
    </g>
    <g id="text_14">
     <!-- Precision -->
     <g transform="translate(28.617187 196.835031)rotate(-90)scale(0.1 -0.1)">
      <defs>
       <path d="M 1259 4147 
L 1259 2394 
L 2053 2394 
Q 2494 2394 2734 2622 
Q 2975 2850 2975 3272 
Q 2975 3691 2734 3919 
Q 2494 4147 2053 4147 
L 1259 4147 
z
M 628 4666 
L 2053 4666 
Q 2838 4666 3239 4311 
Q 3641 3956 3641 3272 
Q 3641 2581 3239 2228 
Q 2838 1875 2053 1875 
L 1259 1875 
L 1259 0 
L 628 0 
L 628 4666 
z
" id="DejaVuSans-50" transform="scale(0.015625)"/>
       <path d="M 2631 2963 
Q 2534 3019 2420 3045 
Q 2306 3072 2169 3072 
Q 1681 3072 1420 2755 
Q 1159 2438 1159 1844 
L 1159 0 
L 581 0 
L 581 3500 
L 1159 3500 
L 1159 2956 
Q 1341 3275 1631 3429 
Q 1922 3584 2338 3584 
Q 2397 3584 2469 3576 
Q 2541 3569 2628 3553 
L 2631 2963 
z
" id="DejaVuSans-72" transform="scale(0.015625)"/>
       <path d="M 603 3500 
L 1178 3500 
L 1178 0 
L 603 0 
L 603 3500 
z
M 603 4863 
L 1178 4863 
L 1178 4134 
L 603 4134 
L 603 4863 
z
" id="DejaVuSans-69" transform="scale(0.015625)"/>
       <path d="M 2834 3397 
L 2834 2853 
Q 2591 2978 2328 3040 
Q 2066 3103 1784 3103 
Q 1356 3103 1142 2972 
Q 928 2841 928 2578 
Q 928 2378 1081 2264 
Q 1234 2150 1697 2047 
L 1894 2003 
Q 2506 1872 2764 1633 
Q 3022 1394 3022 966 
Q 3022 478 2636 193 
Q 2250 -91 1575 -91 
Q 1294 -91 989 -36 
Q 684 19 347 128 
L 347 722 
Q 666 556 975 473 
Q 1284 391 1588 391 
Q 1994 391 2212 530 
Q 2431 669 2431 922 
Q 2431 1156 2273 1281 
Q 2116 1406 1581 1522 
L 1381 1569 
Q 847 1681 609 1914 
Q 372 2147 372 2553 
Q 372 3047 722 3315 
Q 1072 3584 1716 3584 
Q 2034 3584 2315 3537 
Q 2597 3491 2834 3397 
z
" id="DejaVuSans-73" transform="scale(0.015625)"/>
       <path d="M 1959 3097 
Q 1497 3097 1228 2736 
Q 959 2375 959 1747 
Q 959 1119 1226 758 
Q 1494 397 1959 397 
Q 2419 397 2687 759 
Q 2956 1122 2956 1747 
Q 2956 2369 2687 2733 
Q 2419 3097 1959 3097 
z
M 1959 3584 
Q 2709 3584 3137 3096 
Q 3566 2609 3566 1747 
Q 3566 888 3137 398 
Q 2709 -91 1959 -91 
Q 1206 -91 779 398 
Q 353 888 353 1747 
Q 353 2609 779 3096 
Q 1206 3584 1959 3584 
z
" id="DejaVuSans-6f" transform="scale(0.015625)"/>
       <path d="M 3513 2113 
L 3513 0 
L 2938 0 
L 2938 2094 
Q 2938 2591 2744 2837 
Q 2550 3084 2163 3084 
Q 1697 3084 1428 2787 
Q 1159 2491 1159 1978 
L 1159 0 
L 581 0 
L 581 3500 
L 1159 3500 
L 1159 2956 
Q 1366 3272 1645 3428 
Q 1925 3584 2291 3584 
Q 2894 3584 3203 3211 
Q 3513 2838 3513 2113 
z
" id="DejaVuSans-6e" transform="scale(0.015625)"/>
      </defs>
      <use xlink:href="#DejaVuSans-50"/>
      <use x="58.552734" xlink:href="#DejaVuSans-72"/>
      <use x="97.416016" xlink:href="#DejaVuSans-65"/>
      <use x="158.939453" xlink:href="#DejaVuSans-63"/>
      <use x="213.919922" xlink:href="#DejaVuSans-69"/>
      <use x="241.703125" xlink:href="#DejaVuSans-73"/>
      <use x="293.802734" xlink:href="#DejaVuSans-69"/>
      <use x="321.585938" xlink:href="#DejaVuSans-6f"/>
      <use x="382.767578" xlink:href="#DejaVuSans-6e"/>
     </g>
    </g>
   </g>
   <g id="line2d_13">
    <path clip-path="url(#p435661777a)" d="M 87.36 63.648 
L 245.486099 63.648 
L 245.420833 63.648 
L 245.420833 63.843211 
L 245.494831 63.843211 
L 255.157317 63.843211 
L 255.092803 63.843211 
L 255.092803 64.038423 
L 255.176211 64.038423 
L 268.702504 64.038423 
L 268.64 64.038423 
L 268.64 64.233634 
L 268.737515 64.233634 
L 280.476151 64.233634 
L 280.416275 64.233634 
L 280.416275 64.428845 
L 280.526972 64.428845 
L 293.278826 64.428845 
L 293.222752 64.428845 
L 293.222752 64.624056 
L 297.989287 64.624056 
L 297.934828 64.624056 
L 297.934828 64.819268 
L 299.261701 64.819268 
L 299.207667 64.819268 
L 299.207667 65.014479 
L 300.687238 65.014479 
L 300.633698 65.014479 
L 300.633698 65.20969 
L 301.723218 65.20969 
L 301.670032 65.20969 
L 301.670032 65.404901 
L 305.007761 65.404901 
L 304.955844 65.404901 
L 304.955844 65.600113 
L 311.355722 65.600113 
L 311.306488 65.600113 
L 311.257189 65.990535 
L 311.407153 65.990535 
L 317.575003 65.990535 
L 317.528595 65.990535 
L 317.528595 66.185746 
L 320.580377 66.185746 
L 320.535419 66.185746 
L 320.535419 66.380958 
L 325.524907 66.380958 
L 325.482484 66.380958 
L 325.482484 66.576169 
L 329.456952 66.576169 
L 329.376279 66.576169 
L 329.376279 66.966592 
L 333.308597 66.966592 
L 333.270421 66.966592 
L 333.270421 67.161803 
L 333.999585 67.161803 
L 333.96178 67.161803 
L 333.96178 67.357014 
L 334.328202 67.357014 
L 334.290558 67.357014 
L 334.290558 67.552225 
L 335.397043 67.552225 
L 335.36 67.552225 
L 335.285749 68.137859 
L 336.779277 68.137859 
L 336.742969 68.137859 
L 336.742969 68.33307 
L 337.119396 68.33307 
L 337.083263 68.33307 
L 337.083263 68.528282 
L 337.461059 68.528282 
L 337.425102 68.528282 
L 337.425102 68.723493 
L 338.184601 68.723493 
L 338.149058 68.723493 
L 338.042102 69.504338 
L 338.233171 69.504338 
L 338.616183 69.504338 
L 338.580779 69.504338 
L 338.545321 69.894761 
L 338.737506 69.894761 
L 338.702113 69.894761 
L 338.666667 70.285183 
L 339.827436 70.285183 
L 339.792666 70.285183 
L 339.792666 70.480394 
L 339.987294 70.480394 
L 339.952593 70.480394 
L 339.952593 70.675606 
L 341.324313 70.675606 
L 341.290435 70.675606 
L 341.290435 70.870817 
L 342.478877 70.870817 
L 342.445714 70.870817 
L 342.445714 71.066028 
L 342.645 71.066028 
L 342.611916 71.066028 
L 342.578779 71.456451 
L 342.778637 71.456451 
L 342.74558 71.456451 
L 342.74558 71.651662 
L 342.945882 71.651662 
L 342.912904 71.651662 
L 342.879874 72.042085 
L 343.080755 72.042085 
L 343.047805 72.042085 
L 343.047805 72.237296 
L 343.249134 72.237296 
L 343.216265 72.237296 
L 343.216265 72.432507 
L 344.839461 72.432507 
L 344.807619 72.432507 
L 344.775727 72.82293 
L 344.98035 72.82293 
L 344.948544 72.82293 
L 344.916688 73.213352 
L 345.327464 73.213352 
L 345.295834 73.213352 
L 345.232422 73.798986 
L 345.43872 73.798986 
L 345.343641 73.798986 
L 345.343641 74.38462 
L 345.55069 74.38462 
L 345.519036 74.38462 
L 345.519036 74.579831 
L 346.56 74.579831 
L 346.529007 74.579831 
L 346.529007 74.775042 
L 347.158058 74.775042 
L 347.127449 74.775042 
L 347.096791 75.165465 
L 347.518442 75.165465 
L 347.488026 75.165465 
L 347.488026 75.360676 
L 347.699512 75.360676 
L 347.669194 75.360676 
L 347.669194 75.555887 
L 348.519184 75.555887 
L 348.489412 75.555887 
L 348.489412 75.751099 
L 349.131007 75.751099 
L 349.101639 75.751099 
L 349.101639 75.94631 
L 349.316358 75.94631 
L 349.287094 75.94631 
L 349.287094 76.141521 
L 349.502317 76.141521 
L 349.473158 76.141521 
L 349.385392 76.922366 
L 349.35604 76.922366 
L 349.29719 77.508 
L 349.513846 77.508 
L 349.484503 77.508 
L 349.484503 77.703211 
L 349.701674 77.703211 
L 349.672438 77.703211 
L 349.643154 78.093634 
L 349.860997 78.093634 
L 349.83182 78.093634 
L 349.83182 78.288845 
L 350.050183 78.288845 
L 350.021116 78.288845 
L 350.021116 78.484056 
L 350.898847 78.484056 
L 350.870368 78.484056 
L 350.870368 78.679268 
L 351.090879 78.679268 
L 351.062513 78.679268 
L 351.062513 78.874479 
L 351.283554 78.874479 
L 351.255302 78.874479 
L 351.227003 79.264901 
L 351.448739 79.264901 
L 351.420555 79.264901 
L 351.364044 79.850535 
L 351.586644 79.850535 
L 351.558481 79.850535 
L 351.558481 80.045746 
L 352.229036 80.045746 
L 352.201321 80.045746 
L 352.117895 80.826592 
L 352.342838 80.826592 
L 352.315102 80.826592 
L 352.259489 81.412225 
L 352.48532 81.412225 
L 352.457611 81.412225 
L 352.457611 81.607437 
L 352.910769 81.607437 
L 352.883353 81.607437 
L 352.883353 81.802648 
L 353.110685 81.802648 
L 353.083393 81.802648 
L 353.02867 82.388282 
L 353.256907 82.388282 
L 353.229647 82.388282 
L 353.229647 82.583493 
L 353.458451 82.583493 
L 353.431318 82.583493 
L 353.376911 83.169127 
L 353.606632 83.169127 
L 353.579533 83.169127 
L 353.525195 83.754761 
L 353.755841 83.754761 
L 353.728777 83.754761 
L 353.728777 83.949972 
L 354.191625 83.949972 
L 354.16487 83.949972 
L 354.138068 84.340394 
L 355.304056 84.340394 
L 355.27811 84.340394 
L 355.27811 84.535606 
L 355.512715 84.535606 
L 355.486906 84.535606 
L 355.461053 84.926028 
L 356.40507 84.926028 
L 356.379912 84.926028 
L 356.379912 85.121239 
L 357.092862 85.121239 
L 357.068223 85.121239 
L 356.994043 85.902085 
L 357.233292 85.902085 
L 357.208668 85.902085 
L 357.208668 86.097296 
L 358.654286 86.097296 
L 358.630777 86.097296 
L 358.56 86.878141 
L 358.803229 86.878141 
L 358.732662 86.878141 
L 358.732662 87.463775 
L 358.976922 87.463775 
L 358.953514 87.463775 
L 358.883035 88.24462 
L 359.128535 88.24462 
L 359.105158 88.24462 
L 359.105158 88.439831 
L 359.597897 88.439831 
L 359.574882 88.439831 
L 359.528727 89.025465 
L 360.273036 89.025465 
L 360.250511 89.025465 
L 360.227945 89.415887 
L 360.477367 89.415887 
L 360.454968 89.415887 
L 360.410046 90.001521 
L 361.41483 90.001521 
L 361.393149 90.001521 
L 361.393149 90.196732 
L 361.645714 90.196732 
L 361.624207 90.196732 
L 361.581072 90.782366 
L 362.343503 90.782366 
L 362.322523 90.782366 
L 362.322523 90.977577 
L 362.577827 90.977577 
L 362.557026 90.977577 
L 362.557026 91.172789 
L 363.326449 91.172789 
L 363.306269 91.172789 
L 363.28605 91.563211 
L 363.543925 91.563211 
L 363.523891 91.563211 
L 363.44338 92.539268 
L 363.402897 92.539268 
L 363.341887 93.515324 
L 363.863592 93.515324 
L 363.843633 93.515324 
L 363.803602 94.100958 
L 364.065882 94.100958 
L 364.04604 94.100958 
L 364.04604 94.296169 
L 365.101087 94.296169 
L 365.063152 94.296169 
L 364.967678 95.662648 
L 364.948473 95.662648 
L 364.909952 96.248282 
L 365.177341 96.248282 
L 365.158264 96.248282 
L 365.158264 96.443493 
L 365.426409 96.443493 
L 365.407536 96.443493 
L 365.369681 97.029127 
L 365.63907 97.029127 
L 365.62033 97.029127 
L 365.62033 97.224338 
L 365.890485 97.224338 
L 365.871953 97.224338 
L 365.77875 98.395606 
L 366.050909 98.395606 
L 366.032407 98.395606 
L 365.976683 99.176451 
L 366.524602 99.176451 
L 366.36 99.176451 
L 366.323022 101.323775 
L 366.600597 101.323775 
L 366.582311 101.323775 
L 366.527233 102.10462 
L 366.8064 102.10462 
L 366.788228 102.10462 
L 366.788228 102.299831 
L 367.068216 102.299831 
L 367.050271 102.299831 
L 367.050271 102.495042 
L 367.331084 102.495042 
L 367.313367 102.495042 
L 367.313367 102.690254 
L 368.16 102.690254 
L 368.143047 102.690254 
L 368.074894 103.66631 
L 368.359594 103.66631 
L 368.342741 103.66631 
L 368.240899 105.032789 
L 368.528098 105.032789 
L 368.511279 105.032789 
L 368.477538 105.618423 
L 369.055375 105.618423 
L 369.039012 105.618423 
L 368.956691 106.78969 
L 369.248199 106.78969 
L 369.231917 106.78969 
L 369.133514 108.156169 
L 369.427641 108.156169 
L 369.411411 108.156169 
L 369.411411 108.35138 
L 369.706444 108.35138 
L 369.690471 108.35138 
L 369.59393 109.717859 
L 369.577722 109.717859 
L 369.528889 110.498704 
L 369.827797 110.498704 
L 369.81175 110.498704 
L 369.795669 110.889127 
L 370.095813 110.889127 
L 370.08 110.889127 
L 370.064153 111.279549 
L 370.667577 111.279549 
L 370.652308 111.279549 
L 370.637005 111.669972 
L 371.244244 111.669972 
L 371.229528 111.669972 
L 371.21478 112.060394 
L 371.52 112.060394 
L 371.505533 112.060394 
L 371.418072 113.426873 
L 371.726161 113.426873 
L 371.711792 113.426873 
L 371.610328 114.988563 
L 371.595706 114.988563 
L 371.507299 116.355042 
L 371.477569 116.355042 
L 371.462655 116.940676 
L 371.777276 116.940676 
L 371.762661 116.940676 
L 371.748013 117.331099 
L 372.064 117.331099 
L 372.049655 117.331099 
L 371.97745 118.502366 
L 372.29617 118.502366 
L 372.281973 118.502366 
L 372.267744 118.892789 
L 372.587865 118.892789 
L 372.573948 118.892789 
L 372.517966 119.868845 
L 372.840543 119.868845 
L 372.826818 119.868845 
L 372.799274 120.454479 
L 373.123636 120.454479 
L 373.110171 120.454479 
L 373.001332 122.21138 
L 372.987586 122.21138 
L 372.890475 123.77307 
L 372.876473 123.77307 
L 372.777544 125.334761 
L 372.763279 125.334761 
L 372.734648 125.920394 
L 373.069988 125.920394 
L 373.056 125.920394 
L 373.056 126.115606 
L 373.392509 126.115606 
L 373.378868 126.115606 
L 373.365195 126.506028 
L 373.703262 126.506028 
L 373.689941 126.506028 
L 373.689941 126.701239 
L 374.029194 126.701239 
L 374.016228 126.701239 
L 373.950931 127.872507 
L 374.293333 127.872507 
L 374.280574 127.872507 
L 374.177391 129.629408 
L 374.164353 129.629408 
L 374.072195 131.191099 
L 374.422271 131.191099 
L 374.409389 131.191099 
L 374.344502 132.362366 
L 375.052232 132.362366 
L 375.04 132.362366 
L 374.941047 134.119268 
L 374.916 134.119268 
L 374.814545 136.07138 
L 374.801719 136.07138 
L 374.697931 137.828282 
L 374.684808 137.828282 
L 374.578605 139.585183 
L 374.565175 139.585183 
L 374.456471 141.342085 
L 374.428938 141.342085 
L 374.331429 143.098986 
L 374.303236 143.098986 
L 374.260666 144.075042 
L 374.6432 144.075042 
L 374.629426 144.075042 
L 374.531968 145.636732 
L 374.517895 145.636732 
L 374.446957 146.808 
L 375.60918 146.808 
L 375.557802 147.784056 
L 375.954223 147.784056 
L 375.941818 147.784056 
L 375.941818 147.979268 
L 376.339862 147.979268 
L 376.327956 147.979268 
L 376.255822 149.345746 
L 376.207059 149.345746 
L 376.107875 151.688282 
L 376.095319 151.688282 
L 375.993572 153.445183 
L 375.98069 153.445183 
L 375.876279 155.202085 
L 375.863057 155.202085 
L 375.80978 156.178141 
L 376.232727 156.178141 
L 376.219912 156.178141 
L 376.207059 156.568563 
L 376.632459 156.568563 
L 376.620177 156.568563 
L 376.545714 157.935042 
L 376.976692 157.935042 
L 376.964776 157.935042 
L 376.855915 159.887155 
L 376.843636 159.887155 
L 376.744049 161.644056 
L 377.188571 161.644056 
L 377.176615 161.644056 
L 377.116279 162.815324 
L 377.566211 162.815324 
L 377.554712 162.815324 
L 377.44959 164.767437 
L 377.437725 164.767437 
L 377.425823 165.157859 
L 377.885515 165.157859 
L 377.874286 165.157859 
L 377.771594 167.109972 
L 377.76 167.109972 
L 377.653944 169.062085 
L 377.641967 169.062085 
L 377.557015 170.623775 
L 378.03907 170.623775 
L 378.027554 170.623775 
L 378.016 171.014197 
L 378.501235 171.014197 
L 378.490435 171.014197 
L 378.380408 173.161521 
L 378.369199 173.161521 
L 378.266574 175.113634 
L 378.254974 175.113634 
L 378.148732 177.065746 
L 378.13672 177.065746 
L 378.112566 177.65138 
L 378.628085 177.65138 
L 378.616838 177.65138 
L 378.513791 179.603493 
L 378.502134 179.603493 
L 378.395294 181.555606 
L 378.383204 181.555606 
L 378.28486 183.312507 
L 378.829663 183.312507 
L 378.818161 183.312507 
L 378.712672 185.26462 
L 379.269751 185.26462 
L 379.258851 185.26462 
L 379.15883 187.216732 
L 379.1475 187.216732 
L 379.043499 189.168845 
L 379.031713 189.168845 
L 378.947879 190.730535 
L 379.538138 190.730535 
L 379.52714 190.730535 
L 379.437526 192.487437 
L 379.414658 192.487437 
L 379.309367 194.634761 
L 379.249126 194.634761 
L 379.187586 196.586873 
L 379.817883 196.586873 
L 379.806753 196.586873 
L 379.704371 198.538986 
L 379.692743 198.538986 
L 379.669333 199.12462 
L 380.320356 199.12462 
L 380.31 199.12462 
L 380.203836 201.271944 
L 380.192952 201.271944 
L 380.09271 203.224056 
L 380.081311 203.224056 
L 380.081311 203.419268 
L 380.768451 203.419268 
L 380.758588 203.419268 
L 380.657349 205.566592 
L 380.646957 205.566592 
L 380.540198 207.713915 
L 381.267692 207.713915 
L 381.249277 207.713915 
L 381.144615 210.251662 
L 381.134807 210.251662 
L 381.033879 212.398986 
L 381.023492 212.398986 
L 381.01305 212.789408 
L 381.794043 212.789408 
L 381.7856 212.789408 
L 381.707541 214.741521 
L 382.513973 214.741521 
L 382.507253 214.741521 
L 382.401834 217.864901 
L 382.394483 217.864901 
L 382.286946 220.79307 
L 382.278919 220.79307 
L 382.262719 221.378704 
L 383.156364 221.378704 
L 383.150881 221.378704 
L 383.04 225.28293 
L 383.033786 225.28293 
L 382.928601 228.601521 
L 382.921644 228.601521 
L 382.811264 231.724901 
L 382.803478 231.724901 
L 382.696882 234.457859 
L 382.688244 234.457859 
L 382.5792 236.995606 
L 382.569639 236.995606 
L 382.45916 239.338141 
L 382.427234 239.338141 
L 382.326372 241.680676 
L 382.314667 241.680676 
L 382.302857 242.071099 
L 383.619459 242.071099 
L 383.51534 245.38969 
L 383.508293 245.38969 
L 383.401885 248.317859 
L 383.393684 248.317859 
L 383.28809 250.855606 
L 384.96 250.855606 
L 384.96 250.855606 
L 384.96 285.408 
L 384.96 285.408 
" style="fill:none;stroke:#1f77b4;stroke-linecap:square;stroke-width:1.5;"/>
   </g>
   <g id="line2d_14">
    <path clip-path="url(#p435661777a)" d="M 87.36 63.648 
L 240.265292 63.648 
L 240.199819 63.648 
L 240.199819 63.843211 
L 240.269009 63.843211 
L 256.671278 63.843211 
L 256.606941 63.843211 
L 256.606941 64.038423 
L 256.691862 64.038423 
L 293.390769 64.038423 
L 293.334832 64.038423 
L 293.334832 64.233634 
L 297.572469 64.233634 
L 297.517954 64.233634 
L 297.517954 64.428845 
L 303.726859 64.428845 
L 303.674653 64.428845 
L 303.674653 64.624056 
L 319.648199 64.624056 
L 319.603094 64.624056 
L 319.557927 65.014479 
L 320.363051 65.014479 
L 320.318223 65.014479 
L 320.318223 65.20969 
L 320.48 65.20969 
L 320.39032 65.20969 
L 320.39032 65.600113 
L 327.91822 65.600113 
L 327.877241 65.600113 
L 327.877241 65.795324 
L 334.080707 65.795324 
L 334.043186 65.795324 
L 334.043186 65.990535 
L 334.22524 65.990535 
L 334.18777 65.990535 
L 334.18777 66.185746 
L 338.076279 66.185746 
L 337.970526 66.185746 
L 337.970526 66.77138 
L 341.215293 66.77138 
L 341.181951 66.77138 
L 341.181951 66.966592 
L 343.524923 66.966592 
L 343.493025 66.966592 
L 343.461079 67.357014 
L 344.252736 67.357014 
L 344.221253 67.357014 
L 344.189721 67.747437 
L 344.587907 67.747437 
L 344.556587 67.747437 
L 344.556587 67.942648 
L 345.357198 67.942648 
L 345.326355 67.942648 
L 345.326355 68.137859 
L 346.740423 68.137859 
L 346.71047 68.137859 
L 346.71047 68.33307 
L 346.913882 68.33307 
L 346.884019 68.33307 
L 346.884019 68.528282 
L 347.906572 68.528282 
L 347.87735 68.528282 
L 347.87735 68.723493 
L 348.082968 68.723493 
L 348.053839 68.723493 
L 348.053839 68.918704 
L 348.466329 68.918704 
L 348.437435 68.918704 
L 348.408494 69.309127 
L 350.283543 69.309127 
L 350.255847 69.309127 
L 350.255847 69.504338 
L 350.67648 69.504338 
L 350.649031 69.504338 
L 350.649031 69.699549 
L 350.86 69.699549 
L 350.832654 69.699549 
L 350.805265 70.089972 
L 351.016867 70.089972 
L 350.989582 70.089972 
L 350.989582 70.285183 
L 351.414106 70.285183 
L 351.387075 70.285183 
L 351.387075 70.480394 
L 352.026882 70.480394 
L 352.000259 70.480394 
L 352.000259 70.675606 
L 352.64363 70.675606 
L 352.617421 70.675606 
L 352.617421 70.870817 
L 352.832727 70.870817 
L 352.806629 70.870817 
L 352.780488 71.261239 
L 352.996452 71.261239 
L 352.918238 71.261239 
L 352.918238 71.846873 
L 353.352157 71.846873 
L 353.326312 71.846873 
L 353.326312 72.042085 
L 353.761966 72.042085 
L 353.736393 72.042085 
L 353.736393 72.237296 
L 353.954914 72.237296 
L 353.929458 72.237296 
L 353.929458 72.432507 
L 354.807776 72.432507 
L 354.782918 72.432507 
L 354.782918 72.627718 
L 356.112278 72.627718 
L 356.088358 72.627718 
L 356.064398 73.018141 
L 357.184 73.018141 
L 357.160834 73.018141 
L 357.160834 73.213352 
L 357.386043 73.213352 
L 357.363008 73.213352 
L 357.339933 73.603775 
L 358.018843 73.603775 
L 357.996242 73.603775 
L 357.996242 73.798986 
L 358.223476 73.798986 
L 358.201008 73.798986 
L 358.178503 74.189408 
L 358.63481 74.189408 
L 358.612614 74.189408 
L 358.612614 74.38462 
L 358.841519 74.38462 
L 358.819459 74.38462 
L 358.775228 74.970254 
L 359.235254 74.970254 
L 359.213435 74.970254 
L 359.191579 75.360676 
L 359.422532 75.360676 
L 359.400816 75.360676 
L 359.400816 75.555887 
L 359.63234 75.555887 
L 359.610767 75.555887 
L 359.567509 76.141521 
L 359.799966 76.141521 
L 359.778462 76.141521 
L 359.75692 76.531944 
L 360.223753 76.531944 
L 360.202539 76.531944 
L 360.202539 76.727155 
L 360.436738 76.727155 
L 360.41567 76.727155 
L 360.373425 77.312789 
L 360.608579 77.312789 
L 360.566557 77.312789 
L 360.566557 77.703211 
L 361.750295 77.703211 
L 361.730165 77.703211 
L 361.730165 77.898423 
L 361.968333 77.898423 
L 361.948358 77.898423 
L 361.868108 78.874479 
L 362.107644 78.874479 
L 362.087686 78.874479 
L 362.027601 79.655324 
L 362.509474 79.655324 
L 362.489763 79.655324 
L 362.489763 79.850535 
L 362.731529 79.850535 
L 362.711979 79.850535 
L 362.711979 80.045746 
L 363.197181 80.045746 
L 363.177989 80.045746 
L 363.177989 80.240958 
L 363.6653 80.240958 
L 363.646472 80.240958 
L 363.551829 81.412225 
L 363.5328 81.412225 
L 363.513737 81.802648 
L 364.005989 81.802648 
L 363.987297 81.802648 
L 363.987297 81.997859 
L 364.234286 81.997859 
L 364.215764 81.997859 
L 364.197209 82.388282 
L 364.445049 82.388282 
L 364.426667 82.388282 
L 364.408251 82.778704 
L 365.656216 82.778704 
L 365.63881 82.778704 
L 365.621372 83.169127 
L 366.124557 83.169127 
L 366.107511 83.169127 
L 366.073327 83.754761 
L 366.326243 83.754761 
L 366.309319 83.754761 
L 366.309319 83.949972 
L 366.562909 83.949972 
L 366.546169 83.949972 
L 366.546169 84.145183 
L 367.055169 84.145183 
L 367.038832 84.145183 
L 367.038832 84.340394 
L 367.550128 84.340394 
L 367.534199 84.340394 
L 367.534199 84.535606 
L 368.305321 84.535606 
L 368.290028 84.535606 
L 368.259356 85.121239 
L 368.777143 85.121239 
L 368.762214 85.121239 
L 368.762214 85.316451 
L 369.02205 85.316451 
L 369.00732 85.316451 
L 369.00732 85.511662 
L 369.267863 85.511662 
L 369.253333 85.511662 
L 369.253333 85.706873 
L 369.514588 85.706873 
L 369.50026 85.706873 
L 369.442682 86.68293 
L 370.232829 86.68293 
L 370.219065 86.68293 
L 370.219065 86.878141 
L 370.748764 86.878141 
L 370.735445 86.878141 
L 370.735445 87.073352 
L 371.267606 87.073352 
L 371.254737 87.073352 
L 371.215985 87.854197 
L 371.483774 87.854197 
L 371.471048 87.854197 
L 371.419905 88.830254 
L 371.689412 88.830254 
L 371.676809 88.830254 
L 371.676809 89.025465 
L 371.947072 89.025465 
L 371.934691 89.025465 
L 371.834784 90.782366 
L 371.822188 90.782366 
L 371.796923 91.368 
L 372.070683 91.368 
L 372.058266 91.368 
L 372.033359 91.953634 
L 372.308406 91.953634 
L 372.29617 91.953634 
L 372.271628 92.539268 
L 372.547973 92.539268 
L 372.535922 92.539268 
L 372.426405 94.49138 
L 372.414118 94.49138 
L 372.339882 95.857859 
L 372.621204 95.857859 
L 372.596795 95.857859 
L 372.572289 96.638704 
L 372.855238 96.638704 
L 372.843217 96.638704 
L 372.843217 96.833915 
L 373.126998 96.833915 
L 373.115224 96.833915 
L 373.008193 98.786028 
L 372.996181 98.786028 
L 372.886978 100.738141 
L 373.176853 100.738141 
L 373.164878 100.738141 
L 373.056 102.690254 
L 373.043778 102.690254 
L 372.945093 104.447155 
L 372.932642 104.447155 
L 372.84476 106.008845 
L 373.143072 106.008845 
L 373.130711 106.008845 
L 373.056 107.375324 
L 372.942147 107.375324 
L 372.942147 109.132225 
L 373.245957 109.132225 
L 373.233482 109.132225 
L 373.132718 110.889127 
L 373.12 110.889127 
L 373.12 111.084338 
L 373.735862 111.084338 
L 373.723754 111.084338 
L 373.699459 111.669972 
L 374.009351 111.669972 
L 373.997486 111.669972 
L 373.88954 113.622085 
L 373.865263 113.622085 
L 373.754684 115.769408 
L 374.072195 115.769408 
L 374.060111 115.769408 
L 373.950135 117.721521 
L 374.271785 117.721521 
L 374.259775 117.721521 
L 374.211467 118.697577 
L 374.535593 118.697577 
L 374.523801 118.697577 
L 374.416457 120.64969 
L 374.404394 120.64969 
L 374.404394 120.844901 
L 374.733196 120.844901 
L 374.709713 120.844901 
L 374.697931 121.430535 
L 375.028585 121.430535 
L 375.017143 121.430535 
L 374.947935 122.797014 
L 375.281951 122.797014 
L 375.270698 122.797014 
L 375.168226 124.749127 
L 375.156706 124.749127 
L 375.075302 126.310817 
L 375.417007 126.310817 
L 375.40566 126.310817 
L 375.337006 127.677296 
L 375.682302 127.677296 
L 375.671164 127.677296 
L 375.615072 128.848563 
L 375.963628 128.848563 
L 375.952736 128.848563 
L 375.941818 129.238986 
L 376.292039 129.238986 
L 376.270949 129.238986 
L 376.185553 131.191099 
L 376.540812 131.191099 
L 376.530443 131.191099 
L 376.425337 133.338423 
L 376.414682 133.338423 
L 376.30665 135.485746 
L 376.295696 135.485746 
L 376.273706 136.07138 
L 376.640813 136.07138 
L 376.630229 136.07138 
L 376.544576 137.828282 
L 376.916757 137.828282 
L 376.906392 137.828282 
L 376.854163 138.999549 
L 377.23013 138.999549 
L 377.220078 138.999549 
L 377.148976 140.561239 
L 377.529777 140.561239 
L 377.52 140.561239 
L 377.500369 141.146873 
L 377.874286 141.146873 
L 377.769664 143.489408 
L 377.76 143.489408 
L 377.740593 144.075042 
L 378.13247 144.075042 
L 378.123243 144.075042 
L 378.086087 145.051099 
L 378.481633 145.051099 
L 378.472807 145.051099 
L 378.410344 146.612789 
L 378.81124 146.612789 
L 378.802759 146.612789 
L 378.69913 149.150535 
L 378.681519 149.150535 
L 378.601026 151.297859 
L 379.016491 151.297859 
L 379.008 151.297859 
L 378.904186 153.835606 
L 378.895371 153.835606 
L 378.787556 156.373352 
L 378.778398 156.373352 
L 378.741493 157.349408 
L 379.17704 157.349408 
L 379.168383 157.349408 
L 379.062439 159.887155 
L 379.053435 159.887155 
L 379.053435 160.082366 
L 379.49945 160.082366 
L 379.491087 160.082366 
L 379.38 162.815324 
L 379.353721 162.815324 
L 379.336063 163.79138 
L 379.796593 163.79138 
L 379.788436 163.79138 
L 379.788436 163.986592 
L 380.251139 163.986592 
L 380.243677 163.986592 
L 380.136661 166.914761 
L 380.120976 166.914761 
L 380.113094 167.500394 
L 380.590669 167.500394 
L 380.56918 167.500394 
L 380.46604 170.818986 
L 380.450909 170.818986 
L 380.381538 172.96631 
L 380.883288 172.96631 
L 380.876295 172.96631 
L 380.840969 174.137577 
L 381.349601 174.137577 
L 381.343333 174.137577 
L 381.285926 176.08969 
L 381.80523 176.08969 
L 381.799646 176.08969 
L 381.719347 179.017859 
L 382.254545 179.017859 
L 382.249617 179.017859 
L 382.141818 183.312507 
L 382.136471 183.312507 
L 382.030866 187.216732 
L 382.019289 187.216732 
L 381.917055 190.925746 
L 381.904559 190.925746 
L 381.794043 194.634761 
L 381.787292 194.634761 
L 381.773704 195.220394 
L 382.405494 195.220394 
L 382.343736 195.220394 
L 382.254545 200.295887 
L 382.926287 200.295887 
L 382.921644 200.295887 
L 382.829212 204.200113 
L 383.536077 204.200113 
L 383.532662 204.200113 
L 383.422016 210.251662 
L 383.418031 210.251662 
L 383.311247 215.327155 
L 383.306667 215.327155 
L 383.199053 219.817014 
L 383.193828 219.817014 
L 383.094169 223.526028 
L 383.076456 223.526028 
L 382.976 227.235042 
L 383.964682 227.235042 
L 383.961342 227.235042 
L 383.85368 233.09138 
L 383.849552 233.09138 
L 383.849552 233.286592 
L 384.96 233.286592 
L 384.96 233.286592 
L 384.96 285.408 
L 384.96 285.408 
" style="fill:none;stroke:#ff7f0e;stroke-dasharray:9.6,2.4,1.5,2.4;stroke-dashoffset:0;stroke-width:1.5;"/>
   </g>
   <g id="line2d_15">
    <path clip-path="url(#p435661777a)" d="M 87.36 63.648 
L 101.53975 63.648 
L 101.53975 63.648 
L 278.758976 63.648 
L 278.758976 64.819268 
L 282.363134 64.819268 
L 282.363134 65.014479 
L 283.27277 65.014479 
L 283.27277 65.014479 
L 285.001412 65.014479 
L 285.001412 65.014479 
L 287.11648 65.014479 
L 287.11648 65.014479 
L 290.080871 65.014479 
L 290.080871 65.600113 
L 291.438928 65.600113 
L 291.438928 65.600113 
L 294.867692 65.600113 
L 294.867692 65.990535 
L 301.731264 65.990535 
L 301.731264 66.185746 
L 304.235276 66.185746 
L 304.235276 66.185746 
L 306.200816 66.185746 
L 306.200816 67.357014 
L 307.505166 67.357014 
L 307.505166 67.357014 
L 312.276147 67.357014 
L 312.276147 67.942648 
L 314.356966 67.942648 
L 314.356966 69.504338 
L 316.73384 69.504338 
L 316.73384 71.456451 
L 317.380874 71.456451 
L 317.380874 71.456451 
L 321.311445 71.456451 
L 321.311445 73.018141 
L 323.546982 73.018141 
L 323.546982 75.94631 
L 327.143133 75.94631 
L 327.143133 76.531944 
L 327.461434 76.531944 
L 327.461434 76.727155 
L 328.58236 76.727155 
L 328.58236 81.607437 
L 330.978927 81.607437 
L 330.978927 82.778704 
L 334.753643 82.778704 
L 334.753643 86.292507 
L 336.992405 86.292507 
L 336.992405 91.368 
L 339.784014 91.368 
L 339.784014 92.344056 
L 344.076503 92.344056 
L 344.076503 96.638704 
L 343.902222 96.638704 
L 343.902222 103.66631 
L 347.72335 103.66631 
L 347.72335 112.060394 
L 349.607948 112.060394 
L 349.607948 126.115606 
L 356.206377 126.115606 
L 356.206377 139.389972 
L 358.616432 139.389972 
L 358.616432 156.763775 
L 367.722521 156.763775 
L 367.722521 177.456169 
L 384.96 177.456169 
L 384.96 285.408 
" style="fill:none;stroke:#2ca02c;stroke-dasharray:5.55,2.4;stroke-dashoffset:0;stroke-width:1.5;"/>
   </g>
   <g id="line2d_16">
    <path clip-path="url(#p435661777a)" d="M 87.36 63.648 
L 239.303191 63.648 
L 239.237698 63.648 
L 239.237698 63.843211 
L 239.306019 63.843211 
L 256.501713 63.843211 
L 256.437355 63.843211 
L 256.437355 64.038423 
L 256.522105 64.038423 
L 272.381053 64.038423 
L 272.319298 64.038423 
L 272.319298 64.233634 
L 272.420812 64.233634 
L 293.209084 64.233634 
L 293.153036 64.233634 
L 293.153036 64.428845 
L 297.12538 64.428845 
L 297.070654 64.428845 
L 297.070654 64.624056 
L 301.065143 64.624056 
L 301.011842 64.624056 
L 301.011842 64.819268 
L 320.686667 64.819268 
L 320.686667 65.014479 
L 321.011182 65.014479 
L 320.966681 65.014479 
L 320.966681 65.20969 
L 331.855849 65.20969 
L 331.817143 65.20969 
L 331.817143 65.404901 
L 332.71128 65.404901 
L 332.673031 65.404901 
L 332.634725 65.795324 
L 333.899028 65.795324 
L 333.8614 65.795324 
L 333.8614 65.990535 
L 334.956151 65.990535 
L 334.919111 65.990535 
L 334.919111 66.185746 
L 335.654799 66.185746 
L 335.618141 66.185746 
L 335.618141 66.380958 
L 335.802857 66.380958 
L 335.766255 66.380958 
L 335.766255 66.576169 
L 335.951356 66.576169 
L 335.91481 66.576169 
L 335.91481 66.77138 
L 336.84503 66.77138 
L 336.808989 66.77138 
L 336.808989 66.966592 
L 337.558648 66.966592 
L 337.523008 66.966592 
L 337.523008 67.161803 
L 337.711242 67.161803 
L 337.675663 67.161803 
L 337.675663 67.357014 
L 339.574871 67.357014 
L 339.54041 67.357014 
L 339.54041 67.552225 
L 341.46987 67.552225 
L 341.43657 67.552225 
L 341.403218 67.942648 
L 342.184289 67.942648 
L 342.11843 67.942648 
L 342.11843 68.33307 
L 342.708148 68.33307 
L 342.675521 68.33307 
L 342.675521 68.528282 
L 345.063507 68.528282 
L 345.032387 68.528282 
L 345.032387 68.723493 
L 345.233536 68.723493 
L 345.2025 68.723493 
L 345.2025 68.918704 
L 348.053839 68.918704 
L 348.024664 68.918704 
L 347.966176 69.504338 
L 348.379508 69.504338 
L 348.350476 69.504338 
L 348.292273 70.089972 
L 348.707771 70.089972 
L 348.678884 70.089972 
L 348.678884 70.285183 
L 348.887273 70.285183 
L 348.858484 70.285183 
L 348.858484 70.480394 
L 349.067348 70.480394 
L 349.00992 70.480394 
L 348.981137 71.066028 
L 349.190769 71.066028 
L 349.162085 71.066028 
L 349.162085 71.261239 
L 349.793441 71.261239 
L 349.765149 71.261239 
L 349.765149 71.456451 
L 349.976425 71.456451 
L 349.948235 71.456451 
L 349.948235 71.651662 
L 350.584556 71.651662 
L 350.528932 71.651662 
L 350.501053 72.237296 
L 352.216724 72.237296 
L 352.190016 72.237296 
L 352.190016 72.432507 
L 352.622745 72.432507 
L 352.596304 72.432507 
L 352.596304 72.627718 
L 353.248525 72.627718 
L 353.22251 72.627718 
L 353.118025 73.603775 
L 353.091796 73.603775 
L 353.091796 73.798986 
L 353.530297 73.798986 
L 353.504344 73.798986 
L 353.400099 74.775042 
L 353.37393 74.775042 
L 353.37393 74.970254 
L 353.594689 74.970254 
L 353.568638 74.970254 
L 353.568638 75.165465 
L 354.011581 75.165465 
L 353.985812 75.165465 
L 353.882306 76.141521 
L 353.856321 76.141521 
L 353.856321 76.336732 
L 354.302714 76.336732 
L 354.277016 76.336732 
L 354.251275 76.727155 
L 354.699832 76.727155 
L 354.674382 76.727155 
L 354.674382 76.922366 
L 354.899394 76.922366 
L 354.874069 76.922366 
L 354.874069 77.117577 
L 355.32557 77.117577 
L 355.300541 77.117577 
L 355.300541 77.312789 
L 355.981169 77.312789 
L 355.95661 77.312789 
L 355.857959 78.288845 
L 355.833191 78.288845 
L 355.833191 78.484056 
L 356.290946 78.484056 
L 356.266485 78.484056 
L 356.192849 79.264901 
L 356.423014 79.264901 
L 356.39856 79.264901 
L 356.300327 80.240958 
L 356.275663 80.240958 
L 356.275663 80.436169 
L 356.73931 80.436169 
L 356.714961 80.436169 
L 356.714961 80.63138 
L 356.493913 80.63138 
L 356.469138 82.583493 
L 356.703554 82.583493 
L 356.678919 82.583493 
L 356.678919 82.778704 
L 357.149345 82.778704 
L 357.100682 82.778704 
L 357.100682 83.169127 
L 357.336883 83.169127 
L 357.312673 83.169127 
L 357.312673 83.364338 
L 357.549474 83.364338 
L 357.501301 83.364338 
L 357.452958 84.145183 
L 357.380124 84.145183 
L 357.35576 84.926028 
L 357.594483 84.926028 
L 357.570265 84.926028 
L 357.472966 85.902085 
L 357.713067 85.902085 
L 357.688826 85.902085 
L 357.640214 86.487718 
L 357.88132 86.487718 
L 357.857143 86.487718 
L 357.857143 86.68293 
L 358.341038 86.68293 
L 358.317207 86.68293 
L 358.221456 87.658986 
L 358.19741 87.658986 
L 358.125014 88.439831 
L 358.369386 88.439831 
L 358.345366 88.439831 
L 358.297195 89.025465 
L 358.788468 89.025465 
L 358.764719 89.025465 
L 358.740926 89.415887 
L 358.987636 89.415887 
L 358.964004 89.415887 
L 358.940328 89.80631 
L 359.435912 89.80631 
L 359.412603 89.80631 
L 359.342418 90.587155 
L 359.591714 90.587155 
L 359.56844 90.587155 
L 359.474917 91.563211 
L 359.451429 91.563211 
L 359.427897 91.953634 
L 359.930795 91.953634 
L 359.907641 91.953634 
L 359.814596 92.92969 
L 360.321488 92.92969 
L 360.298547 92.92969 
L 360.252537 93.515324 
L 360.507339 93.515324 
L 360.484486 93.515324 
L 360.46159 93.905746 
L 360.717303 93.905746 
L 360.694583 93.905746 
L 360.603274 94.881803 
L 360.860565 94.881803 
L 360.837851 94.881803 
L 360.792295 95.467437 
L 361.829005 95.467437 
L 361.807059 95.467437 
L 361.807059 95.662648 
L 362.067692 95.662648 
L 362.045932 95.662648 
L 362.002286 96.248282 
L 363.316364 96.248282 
L 363.295632 96.248282 
L 363.274861 96.638704 
L 363.804957 96.638704 
L 363.784615 96.638704 
L 363.784615 96.833915 
L 364.584301 96.833915 
L 364.564633 96.833915 
L 364.525184 97.419549 
L 364.793495 97.419549 
L 364.773953 97.419549 
L 364.773953 97.614761 
L 365.312621 97.614761 
L 365.293528 97.614761 
L 365.274397 98.005183 
L 365.545005 98.005183 
L 365.526082 98.005183 
L 365.526082 98.200394 
L 366.069375 98.200394 
L 366.050909 98.200394 
L 365.995294 98.981239 
L 366.268734 98.981239 
L 366.250373 98.981239 
L 366.250373 99.176451 
L 366.524602 99.176451 
L 366.506457 99.176451 
L 366.451807 99.957296 
L 366.727589 99.957296 
L 366.709555 99.957296 
L 366.637061 100.933352 
L 367.192836 100.933352 
L 367.175139 100.933352 
L 367.086126 102.10462 
L 367.366413 102.10462 
L 367.348766 102.10462 
L 367.26 103.275887 
L 367.825455 103.275887 
L 367.808129 103.275887 
L 367.808129 103.471099 
L 368.091984 103.471099 
L 368.074894 103.471099 
L 368.023415 104.251944 
L 368.308932 104.251944 
L 368.291976 104.251944 
L 368.223804 105.228 
L 368.511279 105.228 
L 368.460616 105.228 
L 368.358347 106.984901 
L 368.341179 106.984901 
L 368.323975 107.375324 
L 368.61513 107.375324 
L 368.598174 107.375324 
L 368.598174 107.570535 
L 368.890218 107.570535 
L 368.873514 107.570535 
L 368.856774 107.960958 
L 369.15 107.960958 
L 369.116994 107.960958 
L 369.116994 108.35138 
L 369.411411 108.35138 
L 369.395146 108.35138 
L 369.378848 108.741803 
L 369.674465 108.741803 
L 369.658426 108.741803 
L 369.610105 109.522648 
L 369.907524 109.522648 
L 369.891646 109.522648 
L 369.795669 110.889127 
L 369.779554 110.889127 
L 369.682139 112.255606 
L 369.665782 112.255606 
L 369.665782 112.450817 
L 370.271588 112.450817 
L 370.255811 112.450817 
L 370.224155 113.036451 
L 370.834434 113.036451 
L 370.819179 113.036451 
L 370.711469 114.598141 
L 370.680393 114.598141 
L 370.680393 114.988563 
L 370.989694 114.988563 
L 370.974426 114.988563 
L 370.959125 115.378986 
L 371.269748 115.378986 
L 371.224615 115.378986 
L 371.11814 117.331099 
L 371.432727 117.331099 
L 371.402667 117.331099 
L 371.296394 119.088 
L 371.265724 119.088 
L 371.250337 119.673634 
L 371.569674 119.673634 
L 371.554595 119.673634 
L 371.554595 119.868845 
L 371.874994 119.868845 
L 371.860226 119.868845 
L 371.770909 121.235324 
L 372.094471 121.235324 
L 372.079818 121.235324 
L 371.976303 122.797014 
L 371.961379 122.797014 
L 371.855944 124.358704 
L 371.840742 124.358704 
L 371.733333 125.920394 
L 371.717845 125.920394 
L 371.717845 126.115606 
L 372.051208 126.115606 
L 372.036056 126.115606 
L 372.036056 126.310817 
L 372.370576 126.310817 
L 372.355765 126.310817 
L 372.326038 126.896451 
L 372.662479 126.896451 
L 372.647943 126.896451 
L 372.545221 128.458141 
L 372.530406 128.458141 
L 372.515556 128.848563 
L 372.856651 128.848563 
L 372.842156 128.848563 
L 372.73971 130.410254 
L 372.724933 130.410254 
L 372.665468 131.38631 
L 373.012555 131.38631 
L 372.998002 131.38631 
L 372.954132 132.167155 
L 373.303696 132.167155 
L 373.289412 132.167155 
L 373.18843 133.728845 
L 373.173861 133.728845 
L 373.085686 135.095324 
L 373.442397 135.095324 
L 373.428 135.095324 
L 373.326204 136.657014 
L 373.311515 136.657014 
L 373.282025 137.242648 
L 373.644411 137.242648 
L 373.630051 137.242648 
L 373.601221 137.828282 
L 373.96586 137.828282 
L 373.951837 137.828282 
L 373.951837 138.023493 
L 374.317854 138.023493 
L 374.304246 138.023493 
L 374.276923 138.609127 
L 374.645237 138.609127 
L 374.631979 138.609127 
L 374.53821 140.170817 
L 375.285098 140.170817 
L 375.2725 140.170817 
L 375.18339 141.732507 
L 375.157628 141.732507 
L 375.053209 143.68462 
L 375.04 143.68462 
L 374.933046 145.441521 
L 374.919514 145.441521 
L 374.892341 146.027155 
L 375.281951 146.027155 
L 375.26882 146.027155 
L 375.162469 147.784056 
L 375.149011 147.784056 
L 375.149011 147.979268 
L 375.544869 147.979268 
L 375.531901 147.979268 
L 375.426852 149.736169 
L 375.413556 149.736169 
L 375.305839 151.49307 
L 375.292203 151.49307 
L 375.181714 153.249972 
L 375.167725 153.249972 
L 375.125517 154.030817 
L 375.539568 154.030817 
L 375.525994 154.030817 
L 375.512381 154.421239 
L 375.928786 154.421239 
L 375.915716 154.421239 
L 375.80978 156.178141 
L 376.232727 156.178141 
L 376.219912 156.178141 
L 376.116018 157.935042 
L 376.102857 157.935042 
L 376.009624 159.496732 
L 375.982624 159.496732 
L 375.872977 161.448845 
L 375.859083 161.448845 
L 375.774815 162.815324 
L 376.220587 162.815324 
L 376.207059 162.815324 
L 376.138783 163.986592 
L 376.59 163.986592 
L 376.576901 163.986592 
L 376.470618 165.743493 
L 376.457143 165.743493 
L 376.347781 167.500394 
L 376.333913 167.500394 
L 376.32 167.890817 
L 376.786817 167.890817 
L 376.773592 167.890817 
L 376.66623 169.647718 
L 376.652611 169.647718 
L 376.54203 171.40462 
L 376.528 171.40462 
L 376.457143 172.575887 
L 376.943838 172.575887 
L 376.916757 172.575887 
L 376.806575 174.528 
L 376.79259 174.528 
L 376.79259 174.723211 
L 377.289897 174.723211 
L 377.276695 174.723211 
L 377.182997 176.284901 
L 377.155804 176.284901 
L 377.045106 178.237014 
L 377.031048 178.237014 
L 376.931223 179.798704 
L 376.916757 179.798704 
L 376.814015 181.360394 
L 376.799122 181.360394 
L 376.693333 182.922085 
L 376.677996 182.922085 
L 376.569023 184.483775 
L 376.55322 184.483775 
L 376.489412 185.459831 
L 377.039087 185.459831 
L 377.024 185.459831 
L 376.963071 186.435887 
L 376.758425 186.435887 
L 376.758425 188.973634 
L 377.329231 188.973634 
L 377.29901 188.973634 
L 377.28381 189.559268 
L 377.860199 189.559268 
L 377.846056 189.559268 
L 377.831856 189.94969 
L 378.4128 189.94969 
L 378.399679 189.94969 
L 378.29279 191.706592 
L 378.279184 191.706592 
L 378.168299 193.463493 
L 378.154179 193.463493 
L 378.125762 194.049127 
L 377.965128 194.049127 
L 377.858915 197.56293 
L 377.843478 197.56293 
L 377.73351 199.12462 
L 377.717522 199.12462 
L 377.63651 200.295887 
L 378.287354 200.295887 
L 378.27236 200.295887 
L 378.165479 201.857577 
L 378.149931 201.857577 
L 378.071111 203.028845 
L 378.022937 203.028845 
L 377.924539 204.785746 
L 377.907867 204.785746 
L 377.806154 206.152225 
L 377.788916 206.152225 
L 377.683716 207.518704 
L 377.665882 207.518704 
L 377.665882 207.713915 
L 378.379165 207.713915 
L 378.362956 207.713915 
L 378.280698 208.885183 
L 378.247218 208.885183 
L 378.16203 210.251662 
L 378.127347 210.251662 
L 378.02114 211.813352 
L 378.003117 211.813352 
L 377.930079 212.789408 
L 378.678206 212.789408 
L 378.594225 213.960676 
L 378.56 213.960676 
L 378.472807 215.327155 
L 379.268197 215.327155 
L 379.252603 215.327155 
L 379.205304 216.108 
L 380.01374 216.108 
L 379.986184 216.108 
L 379.887273 217.864901 
L 379.872821 217.864901 
L 379.799306 219.036169 
L 380.646957 219.036169 
L 380.634419 219.036169 
L 380.531429 220.79307 
L 380.518209 220.79307 
L 380.409541 222.549972 
L 380.395583 222.549972 
L 380.295423 224.111662 
L 380.280755 224.111662 
L 380.175434 225.673352 
L 380.16 225.673352 
L 380.049109 227.235042 
L 380.016478 227.235042 
L 379.915932 228.796732 
L 379.898776 228.796732 
L 379.793333 230.163211 
L 379.775331 230.163211 
L 379.664626 231.52969 
L 379.645714 231.52969 
L 379.549091 232.700958 
L 379.509451 232.700958 
L 379.407761 234.067437 
L 379.366015 234.067437 
L 379.258851 235.433915 
L 379.236923 235.433915 
L 379.1475 236.409972 
L 379.124706 236.409972 
L 379.031713 237.386028 
L 379.008 237.386028 
L 378.91122 238.362085 
L 378.886531 238.362085 
L 378.785726 239.338141 
L 378.76 239.338141 
L 378.654915 240.314197 
L 378.628085 240.314197 
L 378.546207 241.095042 
L 378.490435 241.095042 
L 378.433684 241.875887 
L 379.715947 241.875887 
L 379.692743 241.875887 
L 379.621883 242.656732 
L 380.938378 242.656732 
L 380.883288 242.656732 
L 380.788037 244.218423 
L 380.768451 244.218423 
L 380.667692 245.38969 
L 380.646957 245.38969 
L 380.540198 246.560958 
L 380.518209 246.560958 
L 380.42802 247.537014 
L 380.404898 247.537014 
L 380.31 248.51307 
L 380.285654 248.51307 
L 380.185668 249.489127 
L 380.16 249.489127 
L 380.107826 250.074761 
L 380.027403 250.074761 
L 379.94427 251.246028 
L 379.915932 251.246028 
L 379.828966 252.026873 
L 379.799306 252.026873 
L 379.708235 252.807718 
L 379.67716 252.807718 
L 379.581687 253.588563 
L 379.549091 253.588563 
L 379.448889 254.369408 
L 379.414658 254.369408 
L 379.344906 254.955042 
L 381.144615 254.955042 
L 381.044211 256.12631 
L 381.018278 256.12631 
L 380.91102 257.102366 
L 380.883288 257.102366 
L 380.797762 257.883211 
L 380.768451 257.883211 
L 380.708571 258.468845 
L 380.646957 258.468845 
L 380.551111 259.444901 
L 380.484812 259.444901 
L 380.381538 260.420958 
L 380.346047 260.420958 
L 380.23619 261.201803 
L 380.1984 261.201803 
L 380.120976 261.787437 
L 380.081311 261.787437 
L 380 262.37307 
L 379.958319 262.37307 
L 379.872821 262.958704 
L 379.828966 262.958704 
L 379.738947 263.544338 
L 379.692743 263.544338 
L 379.597838 264.129972 
L 379.448889 264.129972 
L 379.344906 265.106028 
L 379.291429 265.106028 
L 379.181359 265.691662 
L 379.124706 265.691662 
L 379.066931 266.082085 
L 381.984 266.082085 
L 381.953939 266.082085 
L 381.86 266.86293 
L 381.827368 266.86293 
L 381.725217 267.643775 
L 384.96 267.643775 
L 384.96 267.643775 
L 384.96 285.408 
L 384.96 285.408 
" style="fill:none;stroke:#d62728;stroke-dasharray:1.5,2.475;stroke-dashoffset:0;stroke-width:1.5;"/>
   </g>
   <g id="line2d_17">
    <path clip-path="url(#p435661777a)" d="M 87.36 63.648 
L 151.939484 63.648 
L 151.894964 63.648 
L 151.894964 63.843211 
L 151.993754 63.843211 
L 223.013012 63.843211 
L 222.947947 63.843211 
L 222.947947 64.038423 
L 223.056984 64.038423 
L 265.542893 64.038423 
L 265.47981 64.038423 
L 265.47981 64.233634 
L 265.573953 64.233634 
L 277.214054 64.233634 
L 277.153352 64.233634 
L 277.153352 64.428845 
L 277.260338 64.428845 
L 312.248652 64.428845 
L 312.151444 64.428845 
L 312.151444 64.819268 
L 320.407817 64.819268 
L 320.363051 64.819268 
L 320.363051 65.014479 
L 322.977391 65.014479 
L 322.933895 65.014479 
L 322.933895 65.20969 
L 323.264989 65.20969 
L 323.221603 65.20969 
L 323.221603 65.404901 
L 331.639097 65.404901 
L 331.600233 65.404901 
L 331.600233 65.600113 
L 334.482124 65.600113 
L 334.444871 65.600113 
L 334.444871 65.795324 
L 335.176432 65.795324 
L 335.139556 65.795324 
L 335.139556 65.990535 
L 337.175086 65.990535 
L 337.139372 65.990535 
L 337.139372 66.185746 
L 337.513293 66.185746 
L 337.477753 66.185746 
L 337.477753 66.380958 
L 337.665247 66.380958 
L 337.629767 66.380958 
L 337.629767 66.576169 
L 343.195583 66.576169 
L 343.16353 66.576169 
L 343.16353 66.77138 
L 344.346893 66.77138 
L 344.315556 66.77138 
L 344.315556 66.966592 
L 344.91174 66.966592 
L 344.880743 66.966592 
L 344.880743 67.161803 
L 347.905654 67.161803 
L 347.876614 67.161803 
L 347.847529 67.552225 
L 351.577661 67.552225 
L 351.551083 67.552225 
L 351.551083 67.747437 
L 353.885301 67.747437 
L 353.860322 67.747437 
L 353.860322 67.942648 
L 354.504561 67.942648 
L 354.48 67.942648 
L 354.4554 68.33307 
L 355.103689 68.33307 
L 355.079514 68.33307 
L 355.0553 68.723493 
L 356.144378 68.723493 
L 356.120912 68.723493 
L 356.120912 68.918704 
L 356.779102 68.918704 
L 356.756078 68.918704 
L 356.756078 69.113915 
L 356.976353 69.113915 
L 356.953453 69.113915 
L 356.953453 69.309127 
L 359.627107 69.309127 
L 359.606154 69.309127 
L 359.606154 69.504338 
L 360.057266 69.504338 
L 360.036617 69.504338 
L 360.036617 69.699549 
L 360.262905 69.699549 
L 360.242392 69.699549 
L 360.242392 69.894761 
L 361.152 69.894761 
L 361.132143 69.894761 
L 361.132143 70.089972 
L 361.360668 70.089972 
L 361.340952 70.089972 
L 361.340952 70.285183 
L 362.721209 70.285183 
L 362.702521 70.285183 
L 362.665051 70.870817 
L 363.129309 70.870817 
L 363.110886 70.870817 
L 363.092432 71.261239 
L 363.792854 71.261239 
L 363.774915 71.261239 
L 363.774915 71.456451 
L 364.009364 71.456451 
L 363.991579 71.456451 
L 363.991579 71.651662 
L 364.22661 71.651662 
L 364.20898 71.651662 
L 364.173629 72.237296 
L 364.882801 72.237296 
L 364.865641 72.237296 
L 364.865641 72.432507 
L 365.103028 72.432507 
L 365.086027 72.432507 
L 365.086027 72.627718 
L 365.562401 72.627718 
L 365.545751 72.627718 
L 365.529072 73.018141 
L 365.768255 73.018141 
L 365.751738 73.018141 
L 365.735194 73.408563 
L 366.456373 73.408563 
L 366.44038 73.408563 
L 366.34384 74.775042 
L 366.327652 74.775042 
L 366.311436 75.165465 
L 366.797838 75.165465 
L 366.78199 75.165465 
L 366.78199 75.360676 
L 367.026026 75.360676 
L 367.01035 75.360676 
L 367.01035 75.555887 
L 367.745627 75.555887 
L 367.730526 75.555887 
L 367.730526 75.751099 
L 367.976681 75.751099 
L 367.961757 75.751099 
L 367.946807 76.141521 
L 368.193803 76.141521 
L 368.179031 76.141521 
L 368.074894 77.703211 
L 368.059911 77.703211 
L 368.059911 77.898423 
L 368.80911 77.898423 
L 368.794728 77.898423 
L 368.780321 78.288845 
L 369.787191 78.288845 
L 369.773608 78.288845 
L 369.76 78.679268 
L 370.521186 78.679268 
L 370.508201 78.679268 
L 370.508201 78.874479 
L 370.76306 78.874479 
L 370.75027 78.874479 
L 370.75027 79.06969 
L 371.261805 79.06969 
L 371.249431 79.06969 
L 371.212174 79.850535 
L 371.985613 79.850535 
L 371.973818 79.850535 
L 371.962002 80.240958 
L 372.221202 80.240958 
L 372.20959 80.240958 
L 372.127706 81.802648 
L 372.092291 81.802648 
L 371.984861 84.145183 
L 371.972813 84.145183 
L 371.936536 84.926028 
L 372.201752 84.926028 
L 372.189851 84.926028 
L 372.081731 86.878141 
L 372.069605 86.878141 
L 371.95943 88.830254 
L 371.947072 88.830254 
L 371.847356 90.587155 
L 371.834784 90.587155 
L 371.822188 90.977577 
L 372.095447 90.977577 
L 372.083077 90.977577 
L 372.083077 91.172789 
L 372.357113 91.172789 
L 372.344971 91.172789 
L 372.344971 91.368 
L 372.619788 91.368 
L 372.607876 91.368 
L 372.49963 93.320113 
L 372.487485 93.320113 
L 372.450909 94.100958 
L 372.729863 94.100958 
L 372.717884 94.100958 
L 372.717884 94.296169 
L 372.997647 94.296169 
L 372.985908 94.296169 
L 372.891157 96.05307 
L 373.173861 96.05307 
L 373.16218 96.05307 
L 373.056 98.005183 
L 373.044084 98.005183 
L 372.96 99.566873 
L 373.248194 99.566873 
L 373.236364 99.566873 
L 373.212632 100.152507 
L 373.502249 100.152507 
L 373.490629 100.152507 
L 373.44391 101.128563 
L 374.027755 101.128563 
L 374.016588 101.128563 
L 374.016588 101.323775 
L 374.309693 101.323775 
L 374.298792 101.323775 
L 374.243951 102.495042 
L 374.539403 102.495042 
L 374.52866 102.495042 
L 374.517895 102.885465 
L 374.814545 102.885465 
L 374.804054 102.885465 
L 374.79354 103.275887 
L 375.091399 103.275887 
L 375.081162 103.275887 
L 375.050323 104.056732 
L 375.35 104.056732 
L 375.339979 104.056732 
L 375.238609 106.204056 
L 375.228354 106.204056 
L 375.155962 107.765746 
L 375.462128 107.765746 
L 375.452013 107.765746 
L 375.411337 108.741803 
L 375.719743 108.741803 
L 375.709839 108.741803 
L 375.599479 111.084338 
L 375.589316 111.084338 
L 375.486454 113.231662 
L 375.476044 113.231662 
L 375.423646 114.40293 
L 376.372209 114.40293 
L 376.324286 115.574197 
L 376.647151 115.574197 
L 376.637852 115.574197 
L 376.581622 116.940676 
L 377.234492 116.940676 
L 377.225763 116.940676 
L 377.208245 117.52631 
L 377.536871 117.52631 
L 377.528445 117.52631 
L 377.486027 118.697577 
L 377.408443 118.697577 
L 377.408443 120.454479 
L 377.743372 120.454479 
L 377.735029 120.454479 
L 377.709884 121.235324 
L 378.047108 121.235324 
L 378.03907 121.235324 
L 377.932845 123.968282 
L 377.924539 123.968282 
L 377.823309 126.506028 
L 377.806154 126.506028 
L 377.719124 128.848563 
L 377.683716 128.848563 
L 377.575385 131.971944 
L 377.566211 131.971944 
L 377.463778 134.314479 
L 377.454325 134.314479 
L 377.358467 136.461803 
L 377.339001 136.461803 
L 377.23013 138.999549 
L 377.220078 138.999549 
L 377.220078 139.194761 
L 377.5975 139.194761 
L 377.587901 139.194761 
L 377.480635 141.537296 
L 377.470728 141.537296 
L 377.36 143.879831 
L 377.349771 143.879831 
L 377.298211 145.051099 
L 377.691615 145.051099 
L 377.681739 145.051099 
L 377.57131 147.393634 
L 377.561105 147.393634 
L 377.457479 149.540958 
L 377.446957 149.540958 
L 377.393898 150.712225 
L 377.80413 150.712225 
L 377.793994 150.712225 
L 377.753162 151.688282 
L 378.167418 151.688282 
L 378.157714 151.688282 
L 378.128436 152.469127 
L 378.546207 152.469127 
L 378.536978 152.469127 
L 378.499797 153.445183 
L 378.921739 153.445183 
L 378.912975 153.445183 
L 378.886531 154.226028 
L 379.312117 154.226028 
L 379.30386 154.226028 
L 379.194277 156.958986 
L 379.185672 156.958986 
L 379.142256 158.130254 
L 379.581687 158.130254 
L 379.573575 158.130254 
L 379.465846 160.863211 
L 379.457381 160.863211 
L 379.423256 161.839268 
L 379.87677 161.839268 
L 379.868865 161.839268 
L 379.772044 164.377014 
L 379.755548 164.377014 
L 379.645714 167.305183 
L 380.120976 167.305183 
L 380.113094 167.305183 
L 380.008253 170.038141 
L 380 170.038141 
L 379.898776 172.575887 
L 379.855369 172.575887 
L 379.757203 175.699268 
L 379.738947 175.699268 
L 379.636208 178.237014 
L 379.626667 178.237014 
L 379.519415 180.579549 
L 379.49945 180.579549 
L 379.479337 181.360394 
L 379.366015 181.360394 
L 379.258851 185.459831 
L 379.247908 185.459831 
L 379.1475 187.411944 
L 379.136125 187.411944 
L 379.101732 188.192789 
L 379.67716 188.192789 
L 379.666719 188.192789 
L 379.56 190.340113 
L 379.549091 190.340113 
L 379.448889 192.292225 
L 379.437526 192.292225 
L 379.333109 194.244338 
L 379.321263 194.244338 
L 379.212361 196.196451 
L 379.2 196.196451 
L 379.099168 197.953352 
L 379.073407 197.953352 
L 378.968054 199.905465 
L 378.954619 199.905465 
L 378.844932 201.662366 
L 378.830938 201.662366 
L 378.731163 203.224056 
L 378.716643 203.224056 
L 378.613081 204.785746 
L 378.582857 204.785746 
L 378.47477 206.542648 
L 378.459029 206.542648 
L 378.459029 206.737859 
L 379.167299 206.737859 
L 379.153171 206.737859 
L 379.052308 208.299549 
L 379.77791 208.299549 
L 379.764988 208.299549 
L 379.659237 210.056451 
L 379.645714 210.056451 
L 379.618462 210.642085 
L 380.369769 210.642085 
L 380.357938 210.642085 
L 380.248654 212.594197 
L 380.23619 212.594197 
L 380.134054 214.351099 
L 380.120976 214.351099 
L 380.01374 216.108 
L 380 216.108 
L 379.915932 217.474479 
L 380.744703 217.474479 
L 380.732727 217.474479 
L 380.646957 219.036169 
L 381.499535 219.036169 
L 381.489446 219.036169 
L 381.385225 221.183493 
L 381.374458 221.183493 
L 381.274551 223.135606 
L 381.263106 223.135606 
L 381.156805 225.087718 
L 381.144615 225.087718 
L 381.044211 226.84462 
L 381.031287 226.84462 
L 380.924746 228.601521 
L 380.91102 228.601521 
L 380.826667 229.968 
L 380.797762 229.968 
L 380.693333 231.724901 
L 380.646957 231.724901 
L 380.551111 233.481803 
L 380.518209 233.481803 
L 380.433764 234.848282 
L 381.552366 234.848282 
L 381.53931 234.848282 
L 381.431146 236.605183 
L 381.417143 236.605183 
L 381.315918 238.166873 
L 381.300984 238.166873 
L 381.192911 239.728563 
L 381.176949 239.728563 
L 381.078261 241.095042 
L 381.06131 241.095042 
L 380.956413 242.461521 
L 380.938378 242.461521 
L 380.845714 243.632789 
L 380.826667 243.632789 
L 380.72872 244.804056 
L 380.708571 244.804056 
L 380.604878 245.975324 
L 380.583529 245.975324 
L 380.473568 247.146592 
L 380.450909 247.146592 
L 380.357938 248.122648 
L 380.334093 248.122648 
L 380.23619 249.098704 
L 380.211064 249.098704 
L 380.107826 250.074761 
L 380.081311 250.074761 
L 379.972291 251.050817 
L 379.94427 251.050817 
L 379.858286 251.831662 
L 379.828966 251.831662 
L 379.738947 252.612507 
L 379.708235 252.612507 
L 379.613892 253.393352 
L 379.581687 253.393352 
L 379.482699 254.174197 
L 379.414658 254.174197 
L 379.38 254.759831 
L 381.216604 254.759831 
L 381.192911 254.759831 
L 381.095065 255.735887 
L 381.044211 255.735887 
L 380.938378 256.907155 
L 380.91102 256.907155 
L 380.91102 257.102366 
L 380.518209 257.102366 
L 380.416489 260.225746 
L 380.381538 260.225746 
L 380.273386 261.006592 
L 380.23619 261.006592 
L 380.16 261.592225 
L 380.120976 261.592225 
L 380.040992 262.177859 
L 380 262.177859 
L 379.915932 262.763493 
L 379.872821 262.763493 
L 379.784348 263.349127 
L 379.738947 263.349127 
L 379.645714 263.934761 
L 379.597838 263.934761 
L 379.49945 264.520394 
L 379.448889 264.520394 
L 379.344906 265.106028 
L 379.181359 265.106028 
L 379.124706 265.886873 
L 379.066931 265.886873 
L 379.008 266.277296 
L 378.947879 266.277296 
L 378.886531 266.667718 
L 378.823918 266.667718 
L 378.76 267.058141 
L 378.694737 267.058141 
L 378.628085 267.448563 
L 378.490435 267.448563 
L 378.490435 267.838986 
L 384.96 267.838986 
L 384.96 285.408 
L 384.96 285.408 
" style="fill:none;stroke:#9467bd;stroke-linecap:square;stroke-width:1.5;"/>
   </g>
   <g id="line2d_18">
    <path clip-path="url(#p435661777a)" d="M 87.36 63.648 
L 115.250017 63.648 
L 115.250017 63.843211 
L 115.360995 63.843211 
L 222.039426 63.843211 
L 221.97444 63.843211 
L 221.97444 64.038423 
L 222.081916 64.038423 
L 235.767388 64.038423 
L 235.701751 64.038423 
L 235.701751 64.233634 
L 235.767042 64.233634 
L 279.705009 64.233634 
L 279.644932 64.233634 
L 279.644932 64.428845 
L 279.754746 64.428845 
L 315.137688 64.428845 
L 315.090447 64.428845 
L 315.090447 64.624056 
L 317.425345 64.624056 
L 317.379152 64.624056 
L 317.379152 64.819268 
L 319.763594 64.819268 
L 319.718506 64.819268 
L 319.718506 65.014479 
L 320.363051 65.014479 
L 320.318223 65.014479 
L 320.318223 65.20969 
L 321.292265 65.20969 
L 321.247866 65.20969 
L 321.247866 65.404901 
L 322.56 65.404901 
L 322.516211 65.404901 
L 322.516211 65.600113 
L 327.573333 65.600113 
L 327.532166 65.600113 
L 327.532166 65.795324 
L 345.096721 65.795324 
L 345.066009 65.795324 
L 345.066009 65.990535 
L 345.463704 65.990535 
L 345.433205 65.990535 
L 345.433205 66.185746 
L 345.632643 66.185746 
L 345.602227 66.185746 
L 345.571765 66.576169 
L 347.383071 66.576169 
L 347.35376 66.576169 
L 347.35376 66.77138 
L 347.76 66.77138 
L 347.730915 66.77138 
L 347.730915 66.966592 
L 348.547765 66.966592 
L 348.519184 66.966592 
L 348.519184 67.161803 
L 353.746549 67.161803 
L 353.721538 67.161803 
L 353.721538 67.357014 
L 354.149085 67.357014 
L 354.124337 67.357014 
L 354.124337 67.552225 
L 354.553564 67.552225 
L 354.529082 67.552225 
L 354.529082 67.747437 
L 355.39231 67.747437 
L 355.368407 67.747437 
L 355.368407 67.942648 
L 355.802429 67.942648 
L 355.778801 67.942648 
L 355.755134 68.33307 
L 356.847948 68.33307 
L 356.825037 68.33307 
L 356.825037 68.528282 
L 357.044829 68.528282 
L 357.022041 68.528282 
L 357.022041 68.723493 
L 357.463025 68.723493 
L 357.440524 68.723493 
L 357.440524 68.918704 
L 359.444419 68.918704 
L 359.423366 68.918704 
L 359.423366 69.113915 
L 360.550389 69.113915 
L 360.530149 69.113915 
L 360.530149 69.309127 
L 360.756846 69.309127 
L 360.736744 69.309127 
L 360.736744 69.504338 
L 360.96399 69.504338 
L 360.944027 69.504338 
L 360.944027 69.699549 
L 361.4 69.699549 
L 361.38035 69.699549 
L 361.38035 69.894761 
L 361.609082 69.894761 
L 361.589574 69.894761 
L 361.570033 70.285183 
L 362.721209 70.285183 
L 362.702521 70.285183 
L 362.665051 70.870817 
L 363.595135 70.870817 
L 363.577075 70.870817 
L 363.577075 71.066028 
L 363.810761 71.066028 
L 363.792854 71.066028 
L 363.792854 71.261239 
L 364.261781 71.261239 
L 364.244211 71.261239 
L 364.244211 71.456451 
L 364.951149 71.456451 
L 364.934106 71.456451 
L 364.934106 71.651662 
L 365.407782 71.651662 
L 365.391085 71.651662 
L 365.374359 72.042085 
L 366.089049 72.042085 
L 366.072864 72.042085 
L 366.007849 73.018141 
L 366.488276 73.018141 
L 366.472338 73.018141 
L 366.456373 73.408563 
L 366.939239 73.408563 
L 366.923636 73.408563 
L 366.923636 73.603775 
L 367.408569 73.603775 
L 367.393333 73.603775 
L 367.393333 73.798986 
L 367.636629 73.798986 
L 367.621565 73.798986 
L 367.621565 73.994197 
L 367.865483 73.994197 
L 367.850592 73.994197 
L 367.835676 74.38462 
L 368.817218 74.38462 
L 368.803082 74.38462 
L 368.803082 74.579831 
L 369.792337 74.579831 
L 369.778997 74.579831 
L 369.765634 74.970254 
L 370.014449 74.970254 
L 370.00127 74.970254 
L 370.00127 75.165465 
L 370.250733 75.165465 
L 370.237739 75.165465 
L 370.237739 75.360676 
L 370.487851 75.360676 
L 370.475044 75.360676 
L 370.462214 75.751099 
L 370.713191 75.751099 
L 370.70055 75.751099 
L 370.662491 76.531944 
L 370.914764 76.531944 
L 370.902246 76.531944 
L 370.877143 77.117577 
L 371.384329 77.117577 
L 371.372175 77.117577 
L 371.347803 77.703211 
L 372.113957 77.703211 
L 372.102394 77.703211 
L 371.997387 79.655324 
L 371.985613 79.655324 
L 371.985613 79.850535 
L 372.244364 79.850535 
L 372.232793 79.850535 
L 372.221202 80.240958 
L 373.262742 80.240958 
L 373.241319 80.240958 
L 373.241319 80.63138 
L 373.503355 80.63138 
L 373.492844 80.63138 
L 373.386667 82.778704 
L 373.375941 82.778704 
L 373.267577 84.926028 
L 373.256629 84.926028 
L 373.146011 87.073352 
L 373.134834 87.073352 
L 373.033282 89.025465 
L 373.010478 89.025465 
L 372.941538 90.587155 
L 373.2164 90.587155 
L 373.193751 90.587155 
L 373.113786 92.344056 
L 373.391487 92.344056 
L 373.380233 92.344056 
L 373.346341 93.124901 
L 373.625625 93.124901 
L 373.614545 93.124901 
L 373.513846 95.077014 
L 373.502547 95.077014 
L 373.468515 95.857859 
L 374.03619 95.857859 
L 374.025343 95.857859 
L 373.915667 98.005183 
L 373.904578 98.005183 
L 373.837576 99.371662 
L 374.708328 99.371662 
L 374.697931 99.371662 
L 374.697931 99.566873 
L 374.989645 99.566873 
L 374.979512 99.566873 
L 374.918282 100.933352 
L 375.21261 100.933352 
L 375.202623 100.933352 
L 375.172539 101.714197 
L 375.468642 101.714197 
L 375.458867 101.714197 
L 375.439257 102.299831 
L 375.73686 102.299831 
L 375.727322 102.299831 
L 375.630846 104.447155 
L 375.932385 104.447155 
L 375.922932 104.447155 
L 375.884921 105.423211 
L 376.188632 105.423211 
L 376.179389 105.423211 
L 376.132881 106.594479 
L 376.047914 106.594479 
L 375.941818 110.498704 
L 375.932048 110.498704 
L 375.823158 112.841239 
L 375.813128 112.841239 
L 375.752486 114.207718 
L 376.071504 114.207718 
L 376.061661 114.207718 
L 375.951928 116.550254 
L 375.941818 116.550254 
L 375.839455 118.697577 
L 375.829091 118.697577 
L 375.724138 120.844901 
L 375.71351 120.844901 
L 375.605867 122.992225 
L 375.941818 122.992225 
L 375.931295 122.992225 
L 375.824699 125.139549 
L 375.813901 125.139549 
L 375.813901 125.334761 
L 376.155266 125.334761 
L 376.123895 125.334761 
L 376.0923 126.506028 
L 376.43685 126.506028 
L 376.426667 126.506028 
L 376.333913 128.458141 
L 376.313027 128.458141 
L 376.281507 129.434197 
L 376.985335 129.434197 
L 376.97561 129.434197 
L 376.877037 131.581521 
L 376.85703 131.581521 
L 376.765757 133.728845 
L 377.128421 133.728845 
L 377.118595 133.728845 
L 377.008855 136.07138 
L 376.998726 136.07138 
L 376.896 138.218704 
L 376.885581 138.218704 
L 376.779895 140.366028 
L 376.769174 140.366028 
L 376.660398 142.513352 
L 376.649362 142.513352 
L 376.548694 144.465465 
L 377.329231 144.465465 
L 377.318919 144.465465 
L 377.277391 145.441521 
L 377.671837 145.441521 
L 377.661907 145.441521 
L 377.550871 147.784056 
L 377.540609 147.784056 
L 377.436404 149.93138 
L 377.425823 149.93138 
L 377.318345 152.078704 
L 377.307429 152.078704 
L 377.21896 153.835606 
L 377.638437 153.835606 
L 377.627826 153.835606 
L 377.52 155.98293 
L 377.509043 155.98293 
L 377.442615 157.349408 
L 377.874286 157.349408 
L 377.863726 157.349408 
L 377.799699 158.715887 
L 378.237108 158.715887 
L 378.226968 158.715887 
L 378.175805 159.887155 
L 378.618447 159.887155 
L 378.579602 159.887155 
L 378.47028 162.815324 
L 378.460156 162.815324 
L 378.357147 164.962648 
L 378.346667 164.962648 
L 378.336153 165.35307 
L 379.264306 165.35307 
L 379.255208 165.35307 
L 379.153171 167.695606 
L 379.143713 167.695606 
L 379.037612 170.038141 
L 379.027774 170.038141 
L 378.91736 172.380676 
L 378.907119 172.380676 
L 378.802759 174.528 
L 378.792124 174.528 
L 378.683726 176.675324 
L 378.672676 176.675324 
L 378.650459 177.260958 
L 379.166018 177.260958 
L 379.155745 177.260958 
L 379.050975 179.408282 
L 379.040289 179.408282 
L 378.931271 181.555606 
L 379.469225 181.555606 
L 379.459076 181.555606 
L 379.35548 183.70293 
L 379.344906 183.70293 
L 379.258851 185.459831 
L 379.136125 185.459831 
L 379.066931 188.778423 
L 379.645714 188.778423 
L 379.635149 188.778423 
L 379.635149 188.973634 
L 380.217371 188.973634 
L 380.207904 188.973634 
L 380.179277 189.754479 
L 380.768451 189.754479 
L 380.76 189.754479 
L 380.751515 190.144901 
L 381.345425 190.144901 
L 381.338093 190.144901 
L 381.232234 193.07307 
L 381.224435 193.07307 
L 381.12 195.806028 
L 381.111724 195.806028 
L 381.000798 198.538986 
L 380.992 198.538986 
L 380.883288 201.076732 
L 380.873959 201.076732 
L 380.768451 203.419268 
L 380.758588 203.419268 
L 380.667692 205.37138 
L 380.646957 205.37138 
L 380.540198 207.713915 
L 380.529231 207.713915 
L 380.42802 209.666028 
L 380.416489 209.666028 
L 380.31 211.618141 
L 380.297859 211.618141 
L 380.1984 213.375042 
L 380.185668 213.375042 
L 380.094605 214.936732 
L 380.067945 214.936732 
L 379.958319 216.888845 
L 379.94427 216.888845 
L 379.843668 218.450535 
L 379.828966 218.450535 
L 379.723636 220.012225 
L 380.583529 220.012225 
L 380.570619 220.012225 
L 380.478072 221.573915 
L 380.437204 221.573915 
L 380.338882 223.526028 
L 380.324486 223.526028 
L 380.221146 225.087718 
L 380.206006 225.087718 
L 380.097255 226.649408 
L 380.081311 226.649408 
L 380.081311 226.84462 
L 381.044211 226.84462 
L 381.031287 226.84462 
L 380.924746 228.601521 
L 380.91102 228.601521 
L 380.812265 230.163211 
L 380.797762 230.163211 
L 380.693333 231.724901 
L 380.677986 231.724901 
L 380.631273 232.505746 
L 380.416489 232.505746 
L 380.31 236.214761 
L 380.291765 236.214761 
L 380.1984 237.386028 
L 380.179277 237.386028 
L 380.081311 238.557296 
L 380.061235 238.557296 
L 379.958319 239.728563 
L 379.937215 239.728563 
L 379.828966 240.899831 
L 379.806753 240.899831 
L 379.715947 241.875887 
L 379.692743 241.875887 
L 379.597838 242.851944 
L 379.573575 242.851944 
L 379.474286 243.828 
L 379.448889 243.828 
L 379.344906 244.804056 
L 379.291429 244.804056 
L 379.181359 245.975324 
L 379.153171 245.975324 
L 379.095961 246.560958 
L 380.540198 246.560958 
L 380.518209 246.560958 
L 380.450909 247.341803 
L 380.381538 247.341803 
L 380.285654 248.708282 
L 380.261053 248.708282 
L 380.211064 249.293915 
L 379.94427 249.293915 
L 379.858286 251.831662 
L 379.828966 251.831662 
L 379.769302 252.417296 
L 379.708235 252.417296 
L 379.67716 253.00293 
L 381.417143 253.00293 
L 381.395928 253.00293 
L 381.285926 254.174197 
L 381.263106 254.174197 
L 381.168917 255.150254 
L 381.144615 255.150254 
L 381.044211 256.12631 
L 381.018278 256.12631 
L 380.91102 257.102366 
L 380.883288 257.102366 
L 380.797762 257.883211 
L 380.738723 257.883211 
L 380.646957 258.859268 
L 380.615474 258.859268 
L 380.518209 259.640113 
L 380.484812 259.640113 
L 380.381538 260.420958 
L 380.346047 260.420958 
L 380.23619 261.201803 
L 380.1984 261.201803 
L 380.120976 261.787437 
L 380.081311 261.787437 
L 380 262.37307 
L 379.958319 262.37307 
L 379.872821 262.958704 
L 379.828966 262.958704 
L 379.828966 263.153915 
L 382.372174 263.153915 
L 382.349474 263.153915 
L 382.254545 264.129972 
L 382.229725 264.129972 
L 382.125714 265.106028 
L 382.098462 265.106028 
L 382.013465 265.886873 
L 381.984 265.886873 
L 381.891959 266.667718 
L 381.86 266.667718 
L 381.76 267.448563 
L 381.725217 267.448563 
L 381.61618 268.229408 
L 381.53931 268.229408 
L 381.458824 269.010254 
L 381.417143 269.010254 
L 381.374458 269.400676 
L 381.285926 269.400676 
L 381.24 269.98631 
L 384.96 269.98631 
L 384.96 285.408 
L 384.96 285.408 
" style="fill:none;stroke:#8c564b;stroke-dasharray:9.6,2.4,1.5,2.4;stroke-dashoffset:0;stroke-width:1.5;"/>
   </g>
   <g id="patch_3">
    <path d="M 57.6 307.584 
L 57.6 41.472 
" style="fill:none;stroke:#000000;stroke-linecap:square;stroke-linejoin:miter;stroke-width:0.8;"/>
   </g>
   <g id="patch_4">
    <path d="M 414.72 307.584 
L 414.72 41.472 
" style="fill:none;stroke:#000000;stroke-linecap:square;stroke-linejoin:miter;stroke-width:0.8;"/>
   </g>
   <g id="patch_5">
    <path d="M 57.6 307.584 
L 414.72 307.584 
" style="fill:none;stroke:#000000;stroke-linecap:square;stroke-linejoin:miter;stroke-width:0.8;"/>
   </g>
   <g id="patch_6">
    <path d="M 57.6 41.472 
L 414.72 41.472 
" style="fill:none;stroke:#000000;stroke-linecap:square;stroke-linejoin:miter;stroke-width:0.8;"/>
   </g>
   <g id="legend_1">
    <g id="patch_7">
     <path d="M 64.6 302.584 
L 248.985938 302.584 
Q 250.985938 302.584 250.985938 300.584 
L 250.985938 213.51525 
Q 250.985938 211.51525 248.985938 211.51525 
L 64.6 211.51525 
Q 62.6 211.51525 62.6 213.51525 
L 62.6 300.584 
Q 62.6 302.584 64.6 302.584 
z
" style="fill:#ffffff;opacity:0.8;stroke:#cccccc;stroke-linejoin:miter;"/>
    </g>
    <g id="line2d_19">
     <path d="M 66.6 219.613687 
L 86.6 219.613687 
" style="fill:none;stroke:#1f77b4;stroke-linecap:square;stroke-width:1.5;"/>
    </g>
    <g id="line2d_20"/>
    <g id="text_15">
     <!-- WMM model (ap: 0.9636) -->
     <g transform="translate(94.6 223.113687)scale(0.1 -0.1)">
      <defs>
       <path d="M 213 4666 
L 850 4666 
L 1831 722 
L 2809 4666 
L 3519 4666 
L 4500 722 
L 5478 4666 
L 6119 4666 
L 4947 0 
L 4153 0 
L 3169 4050 
L 2175 0 
L 1381 0 
L 213 4666 
z
" id="DejaVuSans-57" transform="scale(0.015625)"/>
       <path d="M 628 4666 
L 1569 4666 
L 2759 1491 
L 3956 4666 
L 4897 4666 
L 4897 0 
L 4281 0 
L 4281 4097 
L 3078 897 
L 2444 897 
L 1241 4097 
L 1241 0 
L 628 0 
L 628 4666 
z
" id="DejaVuSans-4d" transform="scale(0.015625)"/>
       <path id="DejaVuSans-20" transform="scale(0.015625)"/>
       <path d="M 3328 2828 
Q 3544 3216 3844 3400 
Q 4144 3584 4550 3584 
Q 5097 3584 5394 3201 
Q 5691 2819 5691 2113 
L 5691 0 
L 5113 0 
L 5113 2094 
Q 5113 2597 4934 2840 
Q 4756 3084 4391 3084 
Q 3944 3084 3684 2787 
Q 3425 2491 3425 1978 
L 3425 0 
L 2847 0 
L 2847 2094 
Q 2847 2600 2669 2842 
Q 2491 3084 2119 3084 
Q 1678 3084 1418 2786 
Q 1159 2488 1159 1978 
L 1159 0 
L 581 0 
L 581 3500 
L 1159 3500 
L 1159 2956 
Q 1356 3278 1631 3431 
Q 1906 3584 2284 3584 
Q 2666 3584 2933 3390 
Q 3200 3197 3328 2828 
z
" id="DejaVuSans-6d" transform="scale(0.015625)"/>
       <path d="M 2906 2969 
L 2906 4863 
L 3481 4863 
L 3481 0 
L 2906 0 
L 2906 525 
Q 2725 213 2448 61 
Q 2172 -91 1784 -91 
Q 1150 -91 751 415 
Q 353 922 353 1747 
Q 353 2572 751 3078 
Q 1150 3584 1784 3584 
Q 2172 3584 2448 3432 
Q 2725 3281 2906 2969 
z
M 947 1747 
Q 947 1113 1208 752 
Q 1469 391 1925 391 
Q 2381 391 2643 752 
Q 2906 1113 2906 1747 
Q 2906 2381 2643 2742 
Q 2381 3103 1925 3103 
Q 1469 3103 1208 2742 
Q 947 2381 947 1747 
z
" id="DejaVuSans-64" transform="scale(0.015625)"/>
       <path d="M 1984 4856 
Q 1566 4138 1362 3434 
Q 1159 2731 1159 2009 
Q 1159 1288 1364 580 
Q 1569 -128 1984 -844 
L 1484 -844 
Q 1016 -109 783 600 
Q 550 1309 550 2009 
Q 550 2706 781 3412 
Q 1013 4119 1484 4856 
L 1984 4856 
z
" id="DejaVuSans-28" transform="scale(0.015625)"/>
       <path d="M 1159 525 
L 1159 -1331 
L 581 -1331 
L 581 3500 
L 1159 3500 
L 1159 2969 
Q 1341 3281 1617 3432 
Q 1894 3584 2278 3584 
Q 2916 3584 3314 3078 
Q 3713 2572 3713 1747 
Q 3713 922 3314 415 
Q 2916 -91 2278 -91 
Q 1894 -91 1617 61 
Q 1341 213 1159 525 
z
M 3116 1747 
Q 3116 2381 2855 2742 
Q 2594 3103 2138 3103 
Q 1681 3103 1420 2742 
Q 1159 2381 1159 1747 
Q 1159 1113 1420 752 
Q 1681 391 2138 391 
Q 2594 391 2855 752 
Q 3116 1113 3116 1747 
z
" id="DejaVuSans-70" transform="scale(0.015625)"/>
       <path d="M 750 794 
L 1409 794 
L 1409 0 
L 750 0 
L 750 794 
z
M 750 3309 
L 1409 3309 
L 1409 2516 
L 750 2516 
L 750 3309 
z
" id="DejaVuSans-3a" transform="scale(0.015625)"/>
       <path d="M 703 97 
L 703 672 
Q 941 559 1184 500 
Q 1428 441 1663 441 
Q 2288 441 2617 861 
Q 2947 1281 2994 2138 
Q 2813 1869 2534 1725 
Q 2256 1581 1919 1581 
Q 1219 1581 811 2004 
Q 403 2428 403 3163 
Q 403 3881 828 4315 
Q 1253 4750 1959 4750 
Q 2769 4750 3195 4129 
Q 3622 3509 3622 2328 
Q 3622 1225 3098 567 
Q 2575 -91 1691 -91 
Q 1453 -91 1209 -44 
Q 966 3 703 97 
z
M 1959 2075 
Q 2384 2075 2632 2365 
Q 2881 2656 2881 3163 
Q 2881 3666 2632 3958 
Q 2384 4250 1959 4250 
Q 1534 4250 1286 3958 
Q 1038 3666 1038 3163 
Q 1038 2656 1286 2365 
Q 1534 2075 1959 2075 
z
" id="DejaVuSans-39" transform="scale(0.015625)"/>
       <path d="M 2597 2516 
Q 3050 2419 3304 2112 
Q 3559 1806 3559 1356 
Q 3559 666 3084 287 
Q 2609 -91 1734 -91 
Q 1441 -91 1130 -33 
Q 819 25 488 141 
L 488 750 
Q 750 597 1062 519 
Q 1375 441 1716 441 
Q 2309 441 2620 675 
Q 2931 909 2931 1356 
Q 2931 1769 2642 2001 
Q 2353 2234 1838 2234 
L 1294 2234 
L 1294 2753 
L 1863 2753 
Q 2328 2753 2575 2939 
Q 2822 3125 2822 3475 
Q 2822 3834 2567 4026 
Q 2313 4219 1838 4219 
Q 1578 4219 1281 4162 
Q 984 4106 628 3988 
L 628 4550 
Q 988 4650 1302 4700 
Q 1616 4750 1894 4750 
Q 2613 4750 3031 4423 
Q 3450 4097 3450 3541 
Q 3450 3153 3228 2886 
Q 3006 2619 2597 2516 
z
" id="DejaVuSans-33" transform="scale(0.015625)"/>
       <path d="M 513 4856 
L 1013 4856 
Q 1481 4119 1714 3412 
Q 1947 2706 1947 2009 
Q 1947 1309 1714 600 
Q 1481 -109 1013 -844 
L 513 -844 
Q 928 -128 1133 580 
Q 1338 1288 1338 2009 
Q 1338 2731 1133 3434 
Q 928 4138 513 4856 
z
" id="DejaVuSans-29" transform="scale(0.015625)"/>
      </defs>
      <use xlink:href="#DejaVuSans-57"/>
      <use x="98.876953" xlink:href="#DejaVuSans-4d"/>
      <use x="185.15625" xlink:href="#DejaVuSans-4d"/>
      <use x="271.435547" xlink:href="#DejaVuSans-20"/>
      <use x="303.222656" xlink:href="#DejaVuSans-6d"/>
      <use x="400.634766" xlink:href="#DejaVuSans-6f"/>
      <use x="461.816406" xlink:href="#DejaVuSans-64"/>
      <use x="525.292969" xlink:href="#DejaVuSans-65"/>
      <use x="586.816406" xlink:href="#DejaVuSans-6c"/>
      <use x="614.599609" xlink:href="#DejaVuSans-20"/>
      <use x="646.386719" xlink:href="#DejaVuSans-28"/>
      <use x="685.400391" xlink:href="#DejaVuSans-61"/>
      <use x="746.679688" xlink:href="#DejaVuSans-70"/>
      <use x="810.15625" xlink:href="#DejaVuSans-3a"/>
      <use x="843.847656" xlink:href="#DejaVuSans-20"/>
      <use x="875.634766" xlink:href="#DejaVuSans-30"/>
      <use x="939.257812" xlink:href="#DejaVuSans-2e"/>
      <use x="971.044922" xlink:href="#DejaVuSans-39"/>
      <use x="1034.667969" xlink:href="#DejaVuSans-36"/>
      <use x="1098.291016" xlink:href="#DejaVuSans-33"/>
      <use x="1161.914062" xlink:href="#DejaVuSans-36"/>
      <use x="1225.537109" xlink:href="#DejaVuSans-29"/>
     </g>
    </g>
    <g id="line2d_21">
     <path d="M 66.6 234.291812 
L 86.6 234.291812 
" style="fill:none;stroke:#ff7f0e;stroke-dasharray:9.6,2.4,1.5,2.4;stroke-dashoffset:0;stroke-width:1.5;"/>
    </g>
    <g id="line2d_22"/>
    <g id="text_16">
     <!-- WAM model (ap: 0.975) -->
     <g transform="translate(94.6 237.791812)scale(0.1 -0.1)">
      <defs>
       <path d="M 2188 4044 
L 1331 1722 
L 3047 1722 
L 2188 4044 
z
M 1831 4666 
L 2547 4666 
L 4325 0 
L 3669 0 
L 3244 1197 
L 1141 1197 
L 716 0 
L 50 0 
L 1831 4666 
z
" id="DejaVuSans-41" transform="scale(0.015625)"/>
       <path d="M 525 4666 
L 3525 4666 
L 3525 4397 
L 1831 0 
L 1172 0 
L 2766 4134 
L 525 4134 
L 525 4666 
z
" id="DejaVuSans-37" transform="scale(0.015625)"/>
       <path d="M 691 4666 
L 3169 4666 
L 3169 4134 
L 1269 4134 
L 1269 2991 
Q 1406 3038 1543 3061 
Q 1681 3084 1819 3084 
Q 2600 3084 3056 2656 
Q 3513 2228 3513 1497 
Q 3513 744 3044 326 
Q 2575 -91 1722 -91 
Q 1428 -91 1123 -41 
Q 819 9 494 109 
L 494 744 
Q 775 591 1075 516 
Q 1375 441 1709 441 
Q 2250 441 2565 725 
Q 2881 1009 2881 1497 
Q 2881 1984 2565 2268 
Q 2250 2553 1709 2553 
Q 1456 2553 1204 2497 
Q 953 2441 691 2322 
L 691 4666 
z
" id="DejaVuSans-35" transform="scale(0.015625)"/>
      </defs>
      <use xlink:href="#DejaVuSans-57"/>
      <use x="93.376953" xlink:href="#DejaVuSans-41"/>
      <use x="161.785156" xlink:href="#DejaVuSans-4d"/>
      <use x="248.064453" xlink:href="#DejaVuSans-20"/>
      <use x="279.851562" xlink:href="#DejaVuSans-6d"/>
      <use x="377.263672" xlink:href="#DejaVuSans-6f"/>
      <use x="438.445312" xlink:href="#DejaVuSans-64"/>
      <use x="501.921875" xlink:href="#DejaVuSans-65"/>
      <use x="563.445312" xlink:href="#DejaVuSans-6c"/>
      <use x="591.228516" xlink:href="#DejaVuSans-20"/>
      <use x="623.015625" xlink:href="#DejaVuSans-28"/>
      <use x="662.029297" xlink:href="#DejaVuSans-61"/>
      <use x="723.308594" xlink:href="#DejaVuSans-70"/>
      <use x="786.785156" xlink:href="#DejaVuSans-3a"/>
      <use x="820.476562" xlink:href="#DejaVuSans-20"/>
      <use x="852.263672" xlink:href="#DejaVuSans-30"/>
      <use x="915.886719" xlink:href="#DejaVuSans-2e"/>
      <use x="947.673828" xlink:href="#DejaVuSans-39"/>
      <use x="1011.296875" xlink:href="#DejaVuSans-37"/>
      <use x="1074.919922" xlink:href="#DejaVuSans-35"/>
      <use x="1138.542969" xlink:href="#DejaVuSans-29"/>
     </g>
    </g>
    <g id="line2d_23">
     <path d="M 66.6 248.969937 
L 86.6 248.969937 
" style="fill:none;stroke:#2ca02c;stroke-dasharray:5.55,2.4;stroke-dashoffset:0;stroke-width:1.5;"/>
    </g>
    <g id="line2d_24"/>
    <g id="text_17">
     <!-- BN model (ap: 0.9012) -->
     <g transform="translate(94.6 252.469937)scale(0.1 -0.1)">
      <defs>
       <path d="M 1259 2228 
L 1259 519 
L 2272 519 
Q 2781 519 3026 730 
Q 3272 941 3272 1375 
Q 3272 1813 3026 2020 
Q 2781 2228 2272 2228 
L 1259 2228 
z
M 1259 4147 
L 1259 2741 
L 2194 2741 
Q 2656 2741 2882 2914 
Q 3109 3088 3109 3444 
Q 3109 3797 2882 3972 
Q 2656 4147 2194 4147 
L 1259 4147 
z
M 628 4666 
L 2241 4666 
Q 2963 4666 3353 4366 
Q 3744 4066 3744 3513 
Q 3744 3084 3544 2831 
Q 3344 2578 2956 2516 
Q 3422 2416 3680 2098 
Q 3938 1781 3938 1306 
Q 3938 681 3513 340 
Q 3088 0 2303 0 
L 628 0 
L 628 4666 
z
" id="DejaVuSans-42" transform="scale(0.015625)"/>
       <path d="M 628 4666 
L 1478 4666 
L 3547 763 
L 3547 4666 
L 4159 4666 
L 4159 0 
L 3309 0 
L 1241 3903 
L 1241 0 
L 628 0 
L 628 4666 
z
" id="DejaVuSans-4e" transform="scale(0.015625)"/>
      </defs>
      <use xlink:href="#DejaVuSans-42"/>
      <use x="68.603516" xlink:href="#DejaVuSans-4e"/>
      <use x="143.408203" xlink:href="#DejaVuSans-20"/>
      <use x="175.195312" xlink:href="#DejaVuSans-6d"/>
      <use x="272.607422" xlink:href="#DejaVuSans-6f"/>
      <use x="333.789062" xlink:href="#DejaVuSans-64"/>
      <use x="397.265625" xlink:href="#DejaVuSans-65"/>
      <use x="458.789062" xlink:href="#DejaVuSans-6c"/>
      <use x="486.572266" xlink:href="#DejaVuSans-20"/>
      <use x="518.359375" xlink:href="#DejaVuSans-28"/>
      <use x="557.373047" xlink:href="#DejaVuSans-61"/>
      <use x="618.652344" xlink:href="#DejaVuSans-70"/>
      <use x="682.128906" xlink:href="#DejaVuSans-3a"/>
      <use x="715.820312" xlink:href="#DejaVuSans-20"/>
      <use x="747.607422" xlink:href="#DejaVuSans-30"/>
      <use x="811.230469" xlink:href="#DejaVuSans-2e"/>
      <use x="843.017578" xlink:href="#DejaVuSans-39"/>
      <use x="906.640625" xlink:href="#DejaVuSans-30"/>
      <use x="970.263672" xlink:href="#DejaVuSans-31"/>
      <use x="1033.886719" xlink:href="#DejaVuSans-32"/>
      <use x="1097.509766" xlink:href="#DejaVuSans-29"/>
     </g>
    </g>
    <g id="line2d_25">
     <path d="M 66.6 263.648062 
L 86.6 263.648062 
" style="fill:none;stroke:#d62728;stroke-dasharray:1.5,2.475;stroke-dashoffset:0;stroke-width:1.5;"/>
    </g>
    <g id="line2d_26"/>
    <g id="text_18">
     <!-- linear-SVM model (ap: 0.9605) -->
     <g transform="translate(94.6 267.148062)scale(0.1 -0.1)">
      <defs>
       <path d="M 313 2009 
L 1997 2009 
L 1997 1497 
L 313 1497 
L 313 2009 
z
" id="DejaVuSans-2d" transform="scale(0.015625)"/>
       <path d="M 3425 4513 
L 3425 3897 
Q 3066 4069 2747 4153 
Q 2428 4238 2131 4238 
Q 1616 4238 1336 4038 
Q 1056 3838 1056 3469 
Q 1056 3159 1242 3001 
Q 1428 2844 1947 2747 
L 2328 2669 
Q 3034 2534 3370 2195 
Q 3706 1856 3706 1288 
Q 3706 609 3251 259 
Q 2797 -91 1919 -91 
Q 1588 -91 1214 -16 
Q 841 59 441 206 
L 441 856 
Q 825 641 1194 531 
Q 1563 422 1919 422 
Q 2459 422 2753 634 
Q 3047 847 3047 1241 
Q 3047 1584 2836 1778 
Q 2625 1972 2144 2069 
L 1759 2144 
Q 1053 2284 737 2584 
Q 422 2884 422 3419 
Q 422 4038 858 4394 
Q 1294 4750 2059 4750 
Q 2388 4750 2728 4690 
Q 3069 4631 3425 4513 
z
" id="DejaVuSans-53" transform="scale(0.015625)"/>
       <path d="M 1831 0 
L 50 4666 
L 709 4666 
L 2188 738 
L 3669 4666 
L 4325 4666 
L 2547 0 
L 1831 0 
z
" id="DejaVuSans-56" transform="scale(0.015625)"/>
      </defs>
      <use xlink:href="#DejaVuSans-6c"/>
      <use x="27.783203" xlink:href="#DejaVuSans-69"/>
      <use x="55.566406" xlink:href="#DejaVuSans-6e"/>
      <use x="118.945312" xlink:href="#DejaVuSans-65"/>
      <use x="180.46875" xlink:href="#DejaVuSans-61"/>
      <use x="241.748047" xlink:href="#DejaVuSans-72"/>
      <use x="276.486328" xlink:href="#DejaVuSans-2d"/>
      <use x="312.570312" xlink:href="#DejaVuSans-53"/>
      <use x="376.046875" xlink:href="#DejaVuSans-56"/>
      <use x="444.455078" xlink:href="#DejaVuSans-4d"/>
      <use x="530.734375" xlink:href="#DejaVuSans-20"/>
      <use x="562.521484" xlink:href="#DejaVuSans-6d"/>
      <use x="659.933594" xlink:href="#DejaVuSans-6f"/>
      <use x="721.115234" xlink:href="#DejaVuSans-64"/>
      <use x="784.591797" xlink:href="#DejaVuSans-65"/>
      <use x="846.115234" xlink:href="#DejaVuSans-6c"/>
      <use x="873.898438" xlink:href="#DejaVuSans-20"/>
      <use x="905.685547" xlink:href="#DejaVuSans-28"/>
      <use x="944.699219" xlink:href="#DejaVuSans-61"/>
      <use x="1005.978516" xlink:href="#DejaVuSans-70"/>
      <use x="1069.455078" xlink:href="#DejaVuSans-3a"/>
      <use x="1103.146484" xlink:href="#DejaVuSans-20"/>
      <use x="1134.933594" xlink:href="#DejaVuSans-30"/>
      <use x="1198.556641" xlink:href="#DejaVuSans-2e"/>
      <use x="1230.34375" xlink:href="#DejaVuSans-39"/>
      <use x="1293.966797" xlink:href="#DejaVuSans-36"/>
      <use x="1357.589844" xlink:href="#DejaVuSans-30"/>
      <use x="1421.212891" xlink:href="#DejaVuSans-35"/>
      <use x="1484.835938" xlink:href="#DejaVuSans-29"/>
     </g>
    </g>
    <g id="line2d_27">
     <path d="M 66.6 278.326188 
L 86.6 278.326188 
" style="fill:none;stroke:#9467bd;stroke-linecap:square;stroke-width:1.5;"/>
    </g>
    <g id="line2d_28"/>
    <g id="text_19">
     <!-- rbf-SVM model (ap: 0.9693) -->
     <g transform="translate(94.6 281.826188)scale(0.1 -0.1)">
      <defs>
       <path d="M 3116 1747 
Q 3116 2381 2855 2742 
Q 2594 3103 2138 3103 
Q 1681 3103 1420 2742 
Q 1159 2381 1159 1747 
Q 1159 1113 1420 752 
Q 1681 391 2138 391 
Q 2594 391 2855 752 
Q 3116 1113 3116 1747 
z
M 1159 2969 
Q 1341 3281 1617 3432 
Q 1894 3584 2278 3584 
Q 2916 3584 3314 3078 
Q 3713 2572 3713 1747 
Q 3713 922 3314 415 
Q 2916 -91 2278 -91 
Q 1894 -91 1617 61 
Q 1341 213 1159 525 
L 1159 0 
L 581 0 
L 581 4863 
L 1159 4863 
L 1159 2969 
z
" id="DejaVuSans-62" transform="scale(0.015625)"/>
       <path d="M 2375 4863 
L 2375 4384 
L 1825 4384 
Q 1516 4384 1395 4259 
Q 1275 4134 1275 3809 
L 1275 3500 
L 2222 3500 
L 2222 3053 
L 1275 3053 
L 1275 0 
L 697 0 
L 697 3053 
L 147 3053 
L 147 3500 
L 697 3500 
L 697 3744 
Q 697 4328 969 4595 
Q 1241 4863 1831 4863 
L 2375 4863 
z
" id="DejaVuSans-66" transform="scale(0.015625)"/>
      </defs>
      <use xlink:href="#DejaVuSans-72"/>
      <use x="41.113281" xlink:href="#DejaVuSans-62"/>
      <use x="104.589844" xlink:href="#DejaVuSans-66"/>
      <use x="134.294922" xlink:href="#DejaVuSans-2d"/>
      <use x="170.378906" xlink:href="#DejaVuSans-53"/>
      <use x="233.855469" xlink:href="#DejaVuSans-56"/>
      <use x="302.263672" xlink:href="#DejaVuSans-4d"/>
      <use x="388.542969" xlink:href="#DejaVuSans-20"/>
      <use x="420.330078" xlink:href="#DejaVuSans-6d"/>
      <use x="517.742188" xlink:href="#DejaVuSans-6f"/>
      <use x="578.923828" xlink:href="#DejaVuSans-64"/>
      <use x="642.400391" xlink:href="#DejaVuSans-65"/>
      <use x="703.923828" xlink:href="#DejaVuSans-6c"/>
      <use x="731.707031" xlink:href="#DejaVuSans-20"/>
      <use x="763.494141" xlink:href="#DejaVuSans-28"/>
      <use x="802.507812" xlink:href="#DejaVuSans-61"/>
      <use x="863.787109" xlink:href="#DejaVuSans-70"/>
      <use x="927.263672" xlink:href="#DejaVuSans-3a"/>
      <use x="960.955078" xlink:href="#DejaVuSans-20"/>
      <use x="992.742188" xlink:href="#DejaVuSans-30"/>
      <use x="1056.365234" xlink:href="#DejaVuSans-2e"/>
      <use x="1088.152344" xlink:href="#DejaVuSans-39"/>
      <use x="1151.775391" xlink:href="#DejaVuSans-36"/>
      <use x="1215.398438" xlink:href="#DejaVuSans-39"/>
      <use x="1279.021484" xlink:href="#DejaVuSans-33"/>
      <use x="1342.644531" xlink:href="#DejaVuSans-29"/>
     </g>
    </g>
    <g id="line2d_29">
     <path d="M 66.6 293.004312 
L 86.6 293.004312 
" style="fill:none;stroke:#8c564b;stroke-dasharray:9.6,2.4,1.5,2.4;stroke-dashoffset:0;stroke-width:1.5;"/>
    </g>
    <g id="line2d_30"/>
    <g id="text_20">
     <!-- poly-SVM model (ap: 0.9727) -->
     <g transform="translate(94.6 296.504312)scale(0.1 -0.1)">
      <defs>
       <path d="M 2059 -325 
Q 1816 -950 1584 -1140 
Q 1353 -1331 966 -1331 
L 506 -1331 
L 506 -850 
L 844 -850 
Q 1081 -850 1212 -737 
Q 1344 -625 1503 -206 
L 1606 56 
L 191 3500 
L 800 3500 
L 1894 763 
L 2988 3500 
L 3597 3500 
L 2059 -325 
z
" id="DejaVuSans-79" transform="scale(0.015625)"/>
      </defs>
      <use xlink:href="#DejaVuSans-70"/>
      <use x="63.476562" xlink:href="#DejaVuSans-6f"/>
      <use x="124.658203" xlink:href="#DejaVuSans-6c"/>
      <use x="152.441406" xlink:href="#DejaVuSans-79"/>
      <use x="209.871094" xlink:href="#DejaVuSans-2d"/>
      <use x="245.955078" xlink:href="#DejaVuSans-53"/>
      <use x="309.431641" xlink:href="#DejaVuSans-56"/>
      <use x="377.839844" xlink:href="#DejaVuSans-4d"/>
      <use x="464.119141" xlink:href="#DejaVuSans-20"/>
      <use x="495.90625" xlink:href="#DejaVuSans-6d"/>
      <use x="593.318359" xlink:href="#DejaVuSans-6f"/>
      <use x="654.5" xlink:href="#DejaVuSans-64"/>
      <use x="717.976562" xlink:href="#DejaVuSans-65"/>
      <use x="779.5" xlink:href="#DejaVuSans-6c"/>
      <use x="807.283203" xlink:href="#DejaVuSans-20"/>
      <use x="839.070312" xlink:href="#DejaVuSans-28"/>
      <use x="878.083984" xlink:href="#DejaVuSans-61"/>
      <use x="939.363281" xlink:href="#DejaVuSans-70"/>
      <use x="1002.839844" xlink:href="#DejaVuSans-3a"/>
      <use x="1036.53125" xlink:href="#DejaVuSans-20"/>
      <use x="1068.318359" xlink:href="#DejaVuSans-30"/>
      <use x="1131.941406" xlink:href="#DejaVuSans-2e"/>
      <use x="1163.728516" xlink:href="#DejaVuSans-39"/>
      <use x="1227.351562" xlink:href="#DejaVuSans-37"/>
      <use x="1290.974609" xlink:href="#DejaVuSans-32"/>
      <use x="1354.597656" xlink:href="#DejaVuSans-37"/>
      <use x="1418.220703" xlink:href="#DejaVuSans-29"/>
     </g>
    </g>
   </g>
  </g>
 </g>
 <defs>
  <clipPath id="p435661777a">
   <rect height="266.112" width="357.12" x="57.6" y="41.472"/>
  </clipPath>
 </defs>
</svg>
