<?xml version="1.0" encoding="utf-8" standalone="no"?>
<!DOCTYPE svg PUBLIC "-//W3C//DTD SVG 1.1//EN"
  "http://www.w3.org/Graphics/SVG/1.1/DTD/svg11.dtd">
<svg height="345.6pt" version="1.1" viewBox="0 0 460.8 345.6" width="460.8pt" xmlns="http://www.w3.org/2000/svg" xmlns:xlink="http://www.w3.org/1999/xlink">
 <metadata>
  <rdf:RDF xmlns:cc="http://creativecommons.org/ns#" xmlns:dc="http://purl.org/dc/elements/1.1/" xmlns:rdf="http://www.w3.org/1999/02/22-rdf-syntax-ns#">
   <cc:Work>
    <dc:type rdf:resource="http://purl.org/dc/dcmitype/StillImage"/>
    <dc:date>2021-06-29T11:05:29.819926</dc:date>
    <dc:format>image/svg+xml</dc:format>
    <dc:creator>
     <cc:Agent>
      <dc:title>Matplotlib v3.4.2, https://matplotlib.org/</dc:title>
     </cc:Agent>
    </dc:creator>
   </cc:Work>
  </rdf:RDF>
 </metadata>
 <defs>
  <style type="text/css">*{stroke-linecap:butt;stroke-linejoin:round;}</style>
 </defs>
 <g id="figure_1">
  <g id="patch_1">
   <path d="M 0 345.6 
L 460.8 345.6 
L 460.8 0 
L 0 0 
z
" style="fill:#ffffff;"/>
  </g>
  <g id="axes_1">
   <g id="patch_2">
    <path d="M 57.6 307.584 
L 414.72 307.584 
L 414.72 41.472 
L 57.6 41.472 
z
" style="fill:#ffffff;"/>
   </g>
   <g id="patch_3">
    <path clip-path="url(#p7daec29ef6)" d="M 87.36 74.736 
L 102.24 74.736 
L 102.24 63.648 
L 87.36 63.648 
z
" style="fill:none;stroke:#000000;stroke-dasharray:3.7,1.6;stroke-dashoffset:0;stroke-linejoin:miter;"/>
   </g>
   <g id="matplotlib.axis_1">
    <g id="xtick_1">
     <g id="line2d_1">
      <defs>
       <path d="M 0 0 
L 0 3.5 
" id="m70e35dacb7" style="stroke:#000000;stroke-width:0.8;"/>
      </defs>
      <g>
       <use style="stroke:#000000;stroke-width:0.8;" x="87.36" xlink:href="#m70e35dacb7" y="307.584"/>
      </g>
     </g>
     <g id="text_1">
      <!-- 0.0 -->
      <g transform="translate(79.408438 322.182437)scale(0.1 -0.1)">
       <defs>
        <path d="M 2034 4250 
Q 1547 4250 1301 3770 
Q 1056 3291 1056 2328 
Q 1056 1369 1301 889 
Q 1547 409 2034 409 
Q 2525 409 2770 889 
Q 3016 1369 3016 2328 
Q 3016 3291 2770 3770 
Q 2525 4250 2034 4250 
z
M 2034 4750 
Q 2819 4750 3233 4129 
Q 3647 3509 3647 2328 
Q 3647 1150 3233 529 
Q 2819 -91 2034 -91 
Q 1250 -91 836 529 
Q 422 1150 422 2328 
Q 422 3509 836 4129 
Q 1250 4750 2034 4750 
z
" id="DejaVuSans-30" transform="scale(0.015625)"/>
        <path d="M 684 794 
L 1344 794 
L 1344 0 
L 684 0 
L 684 794 
z
" id="DejaVuSans-2e" transform="scale(0.015625)"/>
       </defs>
       <use xlink:href="#DejaVuSans-30"/>
       <use x="63.623047" xlink:href="#DejaVuSans-2e"/>
       <use x="95.410156" xlink:href="#DejaVuSans-30"/>
      </g>
     </g>
    </g>
    <g id="xtick_2">
     <g id="line2d_2">
      <g>
       <use style="stroke:#000000;stroke-width:0.8;" x="146.88" xlink:href="#m70e35dacb7" y="307.584"/>
      </g>
     </g>
     <g id="text_2">
      <!-- 0.2 -->
      <g transform="translate(138.928438 322.182437)scale(0.1 -0.1)">
       <defs>
        <path d="M 1228 531 
L 3431 531 
L 3431 0 
L 469 0 
L 469 531 
Q 828 903 1448 1529 
Q 2069 2156 2228 2338 
Q 2531 2678 2651 2914 
Q 2772 3150 2772 3378 
Q 2772 3750 2511 3984 
Q 2250 4219 1831 4219 
Q 1534 4219 1204 4116 
Q 875 4013 500 3803 
L 500 4441 
Q 881 4594 1212 4672 
Q 1544 4750 1819 4750 
Q 2544 4750 2975 4387 
Q 3406 4025 3406 3419 
Q 3406 3131 3298 2873 
Q 3191 2616 2906 2266 
Q 2828 2175 2409 1742 
Q 1991 1309 1228 531 
z
" id="DejaVuSans-32" transform="scale(0.015625)"/>
       </defs>
       <use xlink:href="#DejaVuSans-30"/>
       <use x="63.623047" xlink:href="#DejaVuSans-2e"/>
       <use x="95.410156" xlink:href="#DejaVuSans-32"/>
      </g>
     </g>
    </g>
    <g id="xtick_3">
     <g id="line2d_3">
      <g>
       <use style="stroke:#000000;stroke-width:0.8;" x="206.4" xlink:href="#m70e35dacb7" y="307.584"/>
      </g>
     </g>
     <g id="text_3">
      <!-- 0.4 -->
      <g transform="translate(198.448438 322.182437)scale(0.1 -0.1)">
       <defs>
        <path d="M 2419 4116 
L 825 1625 
L 2419 1625 
L 2419 4116 
z
M 2253 4666 
L 3047 4666 
L 3047 1625 
L 3713 1625 
L 3713 1100 
L 3047 1100 
L 3047 0 
L 2419 0 
L 2419 1100 
L 313 1100 
L 313 1709 
L 2253 4666 
z
" id="DejaVuSans-34" transform="scale(0.015625)"/>
       </defs>
       <use xlink:href="#DejaVuSans-30"/>
       <use x="63.623047" xlink:href="#DejaVuSans-2e"/>
       <use x="95.410156" xlink:href="#DejaVuSans-34"/>
      </g>
     </g>
    </g>
    <g id="xtick_4">
     <g id="line2d_4">
      <g>
       <use style="stroke:#000000;stroke-width:0.8;" x="265.92" xlink:href="#m70e35dacb7" y="307.584"/>
      </g>
     </g>
     <g id="text_4">
      <!-- 0.6 -->
      <g transform="translate(257.968437 322.182437)scale(0.1 -0.1)">
       <defs>
        <path d="M 2113 2584 
Q 1688 2584 1439 2293 
Q 1191 2003 1191 1497 
Q 1191 994 1439 701 
Q 1688 409 2113 409 
Q 2538 409 2786 701 
Q 3034 994 3034 1497 
Q 3034 2003 2786 2293 
Q 2538 2584 2113 2584 
z
M 3366 4563 
L 3366 3988 
Q 3128 4100 2886 4159 
Q 2644 4219 2406 4219 
Q 1781 4219 1451 3797 
Q 1122 3375 1075 2522 
Q 1259 2794 1537 2939 
Q 1816 3084 2150 3084 
Q 2853 3084 3261 2657 
Q 3669 2231 3669 1497 
Q 3669 778 3244 343 
Q 2819 -91 2113 -91 
Q 1303 -91 875 529 
Q 447 1150 447 2328 
Q 447 3434 972 4092 
Q 1497 4750 2381 4750 
Q 2619 4750 2861 4703 
Q 3103 4656 3366 4563 
z
" id="DejaVuSans-36" transform="scale(0.015625)"/>
       </defs>
       <use xlink:href="#DejaVuSans-30"/>
       <use x="63.623047" xlink:href="#DejaVuSans-2e"/>
       <use x="95.410156" xlink:href="#DejaVuSans-36"/>
      </g>
     </g>
    </g>
    <g id="xtick_5">
     <g id="line2d_5">
      <g>
       <use style="stroke:#000000;stroke-width:0.8;" x="325.44" xlink:href="#m70e35dacb7" y="307.584"/>
      </g>
     </g>
     <g id="text_5">
      <!-- 0.8 -->
      <g transform="translate(317.488437 322.182437)scale(0.1 -0.1)">
       <defs>
        <path d="M 2034 2216 
Q 1584 2216 1326 1975 
Q 1069 1734 1069 1313 
Q 1069 891 1326 650 
Q 1584 409 2034 409 
Q 2484 409 2743 651 
Q 3003 894 3003 1313 
Q 3003 1734 2745 1975 
Q 2488 2216 2034 2216 
z
M 1403 2484 
Q 997 2584 770 2862 
Q 544 3141 544 3541 
Q 544 4100 942 4425 
Q 1341 4750 2034 4750 
Q 2731 4750 3128 4425 
Q 3525 4100 3525 3541 
Q 3525 3141 3298 2862 
Q 3072 2584 2669 2484 
Q 3125 2378 3379 2068 
Q 3634 1759 3634 1313 
Q 3634 634 3220 271 
Q 2806 -91 2034 -91 
Q 1263 -91 848 271 
Q 434 634 434 1313 
Q 434 1759 690 2068 
Q 947 2378 1403 2484 
z
M 1172 3481 
Q 1172 3119 1398 2916 
Q 1625 2713 2034 2713 
Q 2441 2713 2670 2916 
Q 2900 3119 2900 3481 
Q 2900 3844 2670 4047 
Q 2441 4250 2034 4250 
Q 1625 4250 1398 4047 
Q 1172 3844 1172 3481 
z
" id="DejaVuSans-38" transform="scale(0.015625)"/>
       </defs>
       <use xlink:href="#DejaVuSans-30"/>
       <use x="63.623047" xlink:href="#DejaVuSans-2e"/>
       <use x="95.410156" xlink:href="#DejaVuSans-38"/>
      </g>
     </g>
    </g>
    <g id="xtick_6">
     <g id="line2d_6">
      <g>
       <use style="stroke:#000000;stroke-width:0.8;" x="384.96" xlink:href="#m70e35dacb7" y="307.584"/>
      </g>
     </g>
     <g id="text_6">
      <!-- 1.0 -->
      <g transform="translate(377.008438 322.182437)scale(0.1 -0.1)">
       <defs>
        <path d="M 794 531 
L 1825 531 
L 1825 4091 
L 703 3866 
L 703 4441 
L 1819 4666 
L 2450 4666 
L 2450 531 
L 3481 531 
L 3481 0 
L 794 0 
L 794 531 
z
" id="DejaVuSans-31" transform="scale(0.015625)"/>
       </defs>
       <use xlink:href="#DejaVuSans-31"/>
       <use x="63.623047" xlink:href="#DejaVuSans-2e"/>
       <use x="95.410156" xlink:href="#DejaVuSans-30"/>
      </g>
     </g>
    </g>
    <g id="text_7">
     <!-- False Positive Rate -->
     <g transform="translate(189.693594 335.860562)scale(0.1 -0.1)">
      <defs>
       <path d="M 628 4666 
L 3309 4666 
L 3309 4134 
L 1259 4134 
L 1259 2759 
L 3109 2759 
L 3109 2228 
L 1259 2228 
L 1259 0 
L 628 0 
L 628 4666 
z
" id="DejaVuSans-46" transform="scale(0.015625)"/>
       <path d="M 2194 1759 
Q 1497 1759 1228 1600 
Q 959 1441 959 1056 
Q 959 750 1161 570 
Q 1363 391 1709 391 
Q 2188 391 2477 730 
Q 2766 1069 2766 1631 
L 2766 1759 
L 2194 1759 
z
M 3341 1997 
L 3341 0 
L 2766 0 
L 2766 531 
Q 2569 213 2275 61 
Q 1981 -91 1556 -91 
Q 1019 -91 701 211 
Q 384 513 384 1019 
Q 384 1609 779 1909 
Q 1175 2209 1959 2209 
L 2766 2209 
L 2766 2266 
Q 2766 2663 2505 2880 
Q 2244 3097 1772 3097 
Q 1472 3097 1187 3025 
Q 903 2953 641 2809 
L 641 3341 
Q 956 3463 1253 3523 
Q 1550 3584 1831 3584 
Q 2591 3584 2966 3190 
Q 3341 2797 3341 1997 
z
" id="DejaVuSans-61" transform="scale(0.015625)"/>
       <path d="M 603 4863 
L 1178 4863 
L 1178 0 
L 603 0 
L 603 4863 
z
" id="DejaVuSans-6c" transform="scale(0.015625)"/>
       <path d="M 2834 3397 
L 2834 2853 
Q 2591 2978 2328 3040 
Q 2066 3103 1784 3103 
Q 1356 3103 1142 2972 
Q 928 2841 928 2578 
Q 928 2378 1081 2264 
Q 1234 2150 1697 2047 
L 1894 2003 
Q 2506 1872 2764 1633 
Q 3022 1394 3022 966 
Q 3022 478 2636 193 
Q 2250 -91 1575 -91 
Q 1294 -91 989 -36 
Q 684 19 347 128 
L 347 722 
Q 666 556 975 473 
Q 1284 391 1588 391 
Q 1994 391 2212 530 
Q 2431 669 2431 922 
Q 2431 1156 2273 1281 
Q 2116 1406 1581 1522 
L 1381 1569 
Q 847 1681 609 1914 
Q 372 2147 372 2553 
Q 372 3047 722 3315 
Q 1072 3584 1716 3584 
Q 2034 3584 2315 3537 
Q 2597 3491 2834 3397 
z
" id="DejaVuSans-73" transform="scale(0.015625)"/>
       <path d="M 3597 1894 
L 3597 1613 
L 953 1613 
Q 991 1019 1311 708 
Q 1631 397 2203 397 
Q 2534 397 2845 478 
Q 3156 559 3463 722 
L 3463 178 
Q 3153 47 2828 -22 
Q 2503 -91 2169 -91 
Q 1331 -91 842 396 
Q 353 884 353 1716 
Q 353 2575 817 3079 
Q 1281 3584 2069 3584 
Q 2775 3584 3186 3129 
Q 3597 2675 3597 1894 
z
M 3022 2063 
Q 3016 2534 2758 2815 
Q 2500 3097 2075 3097 
Q 1594 3097 1305 2825 
Q 1016 2553 972 2059 
L 3022 2063 
z
" id="DejaVuSans-65" transform="scale(0.015625)"/>
       <path id="DejaVuSans-20" transform="scale(0.015625)"/>
       <path d="M 1259 4147 
L 1259 2394 
L 2053 2394 
Q 2494 2394 2734 2622 
Q 2975 2850 2975 3272 
Q 2975 3691 2734 3919 
Q 2494 4147 2053 4147 
L 1259 4147 
z
M 628 4666 
L 2053 4666 
Q 2838 4666 3239 4311 
Q 3641 3956 3641 3272 
Q 3641 2581 3239 2228 
Q 2838 1875 2053 1875 
L 1259 1875 
L 1259 0 
L 628 0 
L 628 4666 
z
" id="DejaVuSans-50" transform="scale(0.015625)"/>
       <path d="M 1959 3097 
Q 1497 3097 1228 2736 
Q 959 2375 959 1747 
Q 959 1119 1226 758 
Q 1494 397 1959 397 
Q 2419 397 2687 759 
Q 2956 1122 2956 1747 
Q 2956 2369 2687 2733 
Q 2419 3097 1959 3097 
z
M 1959 3584 
Q 2709 3584 3137 3096 
Q 3566 2609 3566 1747 
Q 3566 888 3137 398 
Q 2709 -91 1959 -91 
Q 1206 -91 779 398 
Q 353 888 353 1747 
Q 353 2609 779 3096 
Q 1206 3584 1959 3584 
z
" id="DejaVuSans-6f" transform="scale(0.015625)"/>
       <path d="M 603 3500 
L 1178 3500 
L 1178 0 
L 603 0 
L 603 3500 
z
M 603 4863 
L 1178 4863 
L 1178 4134 
L 603 4134 
L 603 4863 
z
" id="DejaVuSans-69" transform="scale(0.015625)"/>
       <path d="M 1172 4494 
L 1172 3500 
L 2356 3500 
L 2356 3053 
L 1172 3053 
L 1172 1153 
Q 1172 725 1289 603 
Q 1406 481 1766 481 
L 2356 481 
L 2356 0 
L 1766 0 
Q 1100 0 847 248 
Q 594 497 594 1153 
L 594 3053 
L 172 3053 
L 172 3500 
L 594 3500 
L 594 4494 
L 1172 4494 
z
" id="DejaVuSans-74" transform="scale(0.015625)"/>
       <path d="M 191 3500 
L 800 3500 
L 1894 563 
L 2988 3500 
L 3597 3500 
L 2284 0 
L 1503 0 
L 191 3500 
z
" id="DejaVuSans-76" transform="scale(0.015625)"/>
       <path d="M 2841 2188 
Q 3044 2119 3236 1894 
Q 3428 1669 3622 1275 
L 4263 0 
L 3584 0 
L 2988 1197 
Q 2756 1666 2539 1819 
Q 2322 1972 1947 1972 
L 1259 1972 
L 1259 0 
L 628 0 
L 628 4666 
L 2053 4666 
Q 2853 4666 3247 4331 
Q 3641 3997 3641 3322 
Q 3641 2881 3436 2590 
Q 3231 2300 2841 2188 
z
M 1259 4147 
L 1259 2491 
L 2053 2491 
Q 2509 2491 2742 2702 
Q 2975 2913 2975 3322 
Q 2975 3731 2742 3939 
Q 2509 4147 2053 4147 
L 1259 4147 
z
" id="DejaVuSans-52" transform="scale(0.015625)"/>
      </defs>
      <use xlink:href="#DejaVuSans-46"/>
      <use x="48.394531" xlink:href="#DejaVuSans-61"/>
      <use x="109.673828" xlink:href="#DejaVuSans-6c"/>
      <use x="137.457031" xlink:href="#DejaVuSans-73"/>
      <use x="189.556641" xlink:href="#DejaVuSans-65"/>
      <use x="251.080078" xlink:href="#DejaVuSans-20"/>
      <use x="282.867188" xlink:href="#DejaVuSans-50"/>
      <use x="339.544922" xlink:href="#DejaVuSans-6f"/>
      <use x="400.726562" xlink:href="#DejaVuSans-73"/>
      <use x="452.826172" xlink:href="#DejaVuSans-69"/>
      <use x="480.609375" xlink:href="#DejaVuSans-74"/>
      <use x="519.818359" xlink:href="#DejaVuSans-69"/>
      <use x="547.601562" xlink:href="#DejaVuSans-76"/>
      <use x="606.78125" xlink:href="#DejaVuSans-65"/>
      <use x="668.304688" xlink:href="#DejaVuSans-20"/>
      <use x="700.091797" xlink:href="#DejaVuSans-52"/>
      <use x="767.324219" xlink:href="#DejaVuSans-61"/>
      <use x="828.603516" xlink:href="#DejaVuSans-74"/>
      <use x="867.8125" xlink:href="#DejaVuSans-65"/>
     </g>
    </g>
   </g>
   <g id="matplotlib.axis_2">
    <g id="ytick_1">
     <g id="line2d_7">
      <defs>
       <path d="M 0 0 
L -3.5 0 
" id="m74a1125954" style="stroke:#000000;stroke-width:0.8;"/>
      </defs>
      <g>
       <use style="stroke:#000000;stroke-width:0.8;" x="57.6" xlink:href="#m74a1125954" y="285.408"/>
      </g>
     </g>
     <g id="text_8">
      <!-- 0.0 -->
      <g transform="translate(34.696875 289.207219)scale(0.1 -0.1)">
       <use xlink:href="#DejaVuSans-30"/>
       <use x="63.623047" xlink:href="#DejaVuSans-2e"/>
       <use x="95.410156" xlink:href="#DejaVuSans-30"/>
      </g>
     </g>
    </g>
    <g id="ytick_2">
     <g id="line2d_8">
      <g>
       <use style="stroke:#000000;stroke-width:0.8;" x="57.6" xlink:href="#m74a1125954" y="241.056"/>
      </g>
     </g>
     <g id="text_9">
      <!-- 0.2 -->
      <g transform="translate(34.696875 244.855219)scale(0.1 -0.1)">
       <use xlink:href="#DejaVuSans-30"/>
       <use x="63.623047" xlink:href="#DejaVuSans-2e"/>
       <use x="95.410156" xlink:href="#DejaVuSans-32"/>
      </g>
     </g>
    </g>
    <g id="ytick_3">
     <g id="line2d_9">
      <g>
       <use style="stroke:#000000;stroke-width:0.8;" x="57.6" xlink:href="#m74a1125954" y="196.704"/>
      </g>
     </g>
     <g id="text_10">
      <!-- 0.4 -->
      <g transform="translate(34.696875 200.503219)scale(0.1 -0.1)">
       <use xlink:href="#DejaVuSans-30"/>
       <use x="63.623047" xlink:href="#DejaVuSans-2e"/>
       <use x="95.410156" xlink:href="#DejaVuSans-34"/>
      </g>
     </g>
    </g>
    <g id="ytick_4">
     <g id="line2d_10">
      <g>
       <use style="stroke:#000000;stroke-width:0.8;" x="57.6" xlink:href="#m74a1125954" y="152.352"/>
      </g>
     </g>
     <g id="text_11">
      <!-- 0.6 -->
      <g transform="translate(34.696875 156.151219)scale(0.1 -0.1)">
       <use xlink:href="#DejaVuSans-30"/>
       <use x="63.623047" xlink:href="#DejaVuSans-2e"/>
       <use x="95.410156" xlink:href="#DejaVuSans-36"/>
      </g>
     </g>
    </g>
    <g id="ytick_5">
     <g id="line2d_11">
      <g>
       <use style="stroke:#000000;stroke-width:0.8;" x="57.6" xlink:href="#m74a1125954" y="108"/>
      </g>
     </g>
     <g id="text_12">
      <!-- 0.8 -->
      <g transform="translate(34.696875 111.799219)scale(0.1 -0.1)">
       <use xlink:href="#DejaVuSans-30"/>
       <use x="63.623047" xlink:href="#DejaVuSans-2e"/>
       <use x="95.410156" xlink:href="#DejaVuSans-38"/>
      </g>
     </g>
    </g>
    <g id="ytick_6">
     <g id="line2d_12">
      <g>
       <use style="stroke:#000000;stroke-width:0.8;" x="57.6" xlink:href="#m74a1125954" y="63.648"/>
      </g>
     </g>
     <g id="text_13">
      <!-- 1.0 -->
      <g transform="translate(34.696875 67.447219)scale(0.1 -0.1)">
       <use xlink:href="#DejaVuSans-31"/>
       <use x="63.623047" xlink:href="#DejaVuSans-2e"/>
       <use x="95.410156" xlink:href="#DejaVuSans-30"/>
      </g>
     </g>
    </g>
    <g id="text_14">
     <!-- True Positive Rate -->
     <g transform="translate(28.617187 219.057687)rotate(-90)scale(0.1 -0.1)">
      <defs>
       <path d="M -19 4666 
L 3928 4666 
L 3928 4134 
L 2272 4134 
L 2272 0 
L 1638 0 
L 1638 4134 
L -19 4134 
L -19 4666 
z
" id="DejaVuSans-54" transform="scale(0.015625)"/>
       <path d="M 2631 2963 
Q 2534 3019 2420 3045 
Q 2306 3072 2169 3072 
Q 1681 3072 1420 2755 
Q 1159 2438 1159 1844 
L 1159 0 
L 581 0 
L 581 3500 
L 1159 3500 
L 1159 2956 
Q 1341 3275 1631 3429 
Q 1922 3584 2338 3584 
Q 2397 3584 2469 3576 
Q 2541 3569 2628 3553 
L 2631 2963 
z
" id="DejaVuSans-72" transform="scale(0.015625)"/>
       <path d="M 544 1381 
L 544 3500 
L 1119 3500 
L 1119 1403 
Q 1119 906 1312 657 
Q 1506 409 1894 409 
Q 2359 409 2629 706 
Q 2900 1003 2900 1516 
L 2900 3500 
L 3475 3500 
L 3475 0 
L 2900 0 
L 2900 538 
Q 2691 219 2414 64 
Q 2138 -91 1772 -91 
Q 1169 -91 856 284 
Q 544 659 544 1381 
z
M 1991 3584 
L 1991 3584 
z
" id="DejaVuSans-75" transform="scale(0.015625)"/>
      </defs>
      <use xlink:href="#DejaVuSans-54"/>
      <use x="46.333984" xlink:href="#DejaVuSans-72"/>
      <use x="87.447266" xlink:href="#DejaVuSans-75"/>
      <use x="150.826172" xlink:href="#DejaVuSans-65"/>
      <use x="212.349609" xlink:href="#DejaVuSans-20"/>
      <use x="244.136719" xlink:href="#DejaVuSans-50"/>
      <use x="300.814453" xlink:href="#DejaVuSans-6f"/>
      <use x="361.996094" xlink:href="#DejaVuSans-73"/>
      <use x="414.095703" xlink:href="#DejaVuSans-69"/>
      <use x="441.878906" xlink:href="#DejaVuSans-74"/>
      <use x="481.087891" xlink:href="#DejaVuSans-69"/>
      <use x="508.871094" xlink:href="#DejaVuSans-76"/>
      <use x="568.050781" xlink:href="#DejaVuSans-65"/>
      <use x="629.574219" xlink:href="#DejaVuSans-20"/>
      <use x="661.361328" xlink:href="#DejaVuSans-52"/>
      <use x="728.59375" xlink:href="#DejaVuSans-61"/>
      <use x="789.873047" xlink:href="#DejaVuSans-74"/>
      <use x="829.082031" xlink:href="#DejaVuSans-65"/>
     </g>
    </g>
   </g>
   <g id="line2d_13">
    <path clip-path="url(#p7daec29ef6)" d="M 87.36 285.408 
L 87.464853 196.586873 
L 87.47796 196.586873 
L 87.582813 161.644056 
L 87.59592 161.644056 
L 87.700773 144.075042 
L 87.71388 144.075042 
L 87.818733 120.454479 
L 87.83184 120.454479 
L 87.923587 111.669972 
L 87.936693 111.669972 
L 87.9498 111.669972 
L 88.041547 105.618423 
L 88.054653 105.618423 
L 88.06776 105.618423 
L 88.172613 101.323775 
L 88.18572 101.323775 
L 88.277467 94.296169 
L 88.290573 94.296169 
L 88.329893 94.296169 
L 88.434747 90.782366 
L 88.474067 90.782366 
L 88.552707 89.025465 
L 88.57892 89.025465 
L 88.592027 89.025465 
L 88.65756 86.097296 
L 88.69688 86.097296 
L 88.7362 86.097296 
L 88.841053 84.535606 
L 88.85416 84.535606 
L 88.959013 83.169127 
L 88.97212 83.169127 
L 89.063867 80.045746 
L 89.076973 80.045746 
L 89.103187 80.045746 
L 89.20804 78.288845 
L 89.221147 78.288845 
L 89.326 75.555887 
L 89.378427 75.555887 
L 89.457067 74.579831 
L 89.48328 74.579831 
L 89.5226 74.579831 
L 89.588134 72.432507 
L 89.627454 72.432507 
L 89.692987 72.432507 
L 89.75852 70.870817 
L 89.79784 70.870817 
L 89.83716 70.870817 
L 89.942014 70.285183 
L 90.020654 70.285183 
L 90.125507 68.528282 
L 90.15172 68.528282 
L 90.177934 68.137859 
L 90.256574 68.137859 
L 90.282787 68.137859 
L 90.38764 67.161803 
L 90.440067 67.161803 
L 90.440067 66.966592 
L 90.453174 66.966592 
L 90.728414 66.966592 
L 90.728414 66.576169 
L 90.833267 66.576169 
L 91.029867 66.576169 
L 91.029867 66.380958 
L 91.13472 66.380958 
L 91.423067 66.380958 
L 91.423067 66.185746 
L 91.52792 66.185746 
L 91.672094 66.185746 
L 91.672094 65.990535 
L 91.776947 65.990535 
L 92.209467 65.990535 
L 92.209467 65.600113 
L 92.31432 65.600113 
L 92.78616 65.600113 
L 92.78616 65.404901 
L 92.891014 65.404901 
L 93.100721 65.404901 
L 93.205574 65.014479 
L 93.349747 65.014479 
L 93.349747 64.819268 
L 93.454601 64.819268 
L 93.480814 64.819268 
L 93.480814 64.624056 
L 93.559454 64.624056 
L 93.965761 64.624056 
L 93.965761 64.428845 
L 94.070614 64.428845 
L 95.394387 64.428845 
L 95.394387 64.233634 
L 95.499241 64.233634 
L 96.888548 64.233634 
L 96.888548 64.038423 
L 96.993401 64.038423 
L 98.867654 64.038423 
L 98.867654 63.843211 
L 98.972508 63.843211 
L 100.492881 63.843211 
L 384.96 63.648 
L 384.96 63.648 
" style="fill:none;stroke:#1f77b4;stroke-linecap:square;stroke-width:1.5;"/>
   </g>
   <g id="line2d_14">
    <path clip-path="url(#p7daec29ef6)" d="M 87.36 285.408 
L 87.464858 172.96631 
L 87.477965 172.96631 
L 87.582823 144.075042 
L 87.59593 144.075042 
L 87.700788 127.677296 
L 87.713896 127.677296 
L 87.818754 111.084338 
L 87.844968 111.084338 
L 87.949826 91.368 
L 87.962933 91.368 
L 88.054684 86.68293 
L 88.067791 86.68293 
L 88.094006 86.68293 
L 88.198864 84.340394 
L 88.225078 84.340394 
L 88.303722 82.778704 
L 88.329936 82.778704 
L 88.369258 82.778704 
L 88.474116 79.850535 
L 88.487223 79.850535 
L 88.539652 77.703211 
L 88.592081 77.703211 
L 88.605188 77.703211 
L 88.696939 74.970254 
L 88.710046 74.970254 
L 88.723153 74.970254 
L 88.828011 73.018141 
L 88.893548 73.018141 
L 88.972191 72.432507 
L 88.998406 72.432507 
L 89.02462 72.432507 
L 89.116371 70.675606 
L 89.129478 70.675606 
L 89.155693 70.675606 
L 89.247443 69.504338 
L 89.260551 69.504338 
L 89.273658 69.504338 
L 89.273658 69.309127 
L 89.378516 69.309127 
L 89.391623 69.309127 
L 89.496481 68.33307 
L 89.509588 68.33307 
L 89.601339 67.942648 
L 89.614446 67.942648 
L 89.653768 67.942648 
L 89.732411 66.966592 
L 89.758626 66.966592 
L 89.889698 66.966592 
L 89.889698 66.77138 
L 89.994556 66.77138 
L 90.112521 66.77138 
L 90.112521 66.185746 
L 90.217379 66.185746 
L 90.387774 66.185746 
L 90.400881 65.795324 
L 90.492632 65.795324 
L 90.859634 65.795324 
L 90.859634 65.600113 
L 90.964492 65.600113 
L 91.44946 65.600113 
L 91.528104 64.624056 
L 91.554318 64.624056 
L 92.930579 64.624056 
L 92.930579 64.428845 
L 93.035437 64.428845 
L 93.533512 64.428845 
L 93.533512 64.233634 
L 93.63837 64.233634 
L 93.966052 64.233634 
L 93.966052 64.038423 
L 94.070909 64.038423 
L 98.632231 64.038423 
L 98.632231 63.843211 
L 98.737089 63.843211 
L 101.450288 63.843211 
L 384.96 63.648 
L 384.96 63.648 
" style="fill:none;stroke:#ff7f0e;stroke-dasharray:9.6,2.4,1.5,2.4;stroke-dashoffset:0;stroke-width:1.5;"/>
   </g>
   <g id="line2d_15">
    <path clip-path="url(#p7daec29ef6)" d="M 87.36 285.408 
L 87.43864 284.822366 
L 87.700773 181.946028 
L 87.805627 177.456169 
L 88.198827 156.763775 
L 88.408533 139.389972 
L 88.801733 126.115606 
L 89.024547 112.060394 
L 89.312894 103.66631 
L 89.378427 96.638704 
L 89.67988 92.344056 
L 89.863374 91.368 
L 90.07308 86.292507 
L 90.374534 82.778704 
L 90.558027 81.607437 
L 90.715307 76.727155 
L 90.74152 76.531944 
L 91.01676 75.94631 
L 91.239574 73.018141 
L 91.580347 71.456451 
L 91.632774 71.456451 
L 91.868694 69.504338 
L 92.0784 67.942648 
L 92.51092 67.357014 
L 92.62888 67.357014 
L 92.838587 66.185746 
L 93.074507 66.185746 
L 93.756054 65.990535 
L 94.123041 65.600113 
L 94.267214 65.600113 
L 94.607987 65.014479 
L 94.843907 65.014479 
L 95.040507 65.014479 
L 95.145361 65.014479 
L 95.577881 64.819268 
L 384.96 63.648 
" style="fill:none;stroke:#2ca02c;stroke-dasharray:5.55,2.4;stroke-dashoffset:0;stroke-width:1.5;"/>
   </g>
   <g id="line2d_16">
    <path clip-path="url(#p7daec29ef6)" d="M 87.36 285.408 
L 87.464839 212.98462 
L 87.477944 211.227718 
L 87.582784 167.890817 
L 87.595889 167.890817 
L 87.687623 140.170817 
L 87.700728 140.170817 
L 87.713833 140.170817 
L 87.818673 126.896451 
L 87.831778 126.896451 
L 87.936617 113.036451 
L 87.962827 113.036451 
L 88.067667 105.228 
L 88.080772 105.228 
L 88.185611 99.176451 
L 88.198716 99.176451 
L 88.29045 96.833915 
L 88.303555 96.833915 
L 88.329765 96.833915 
L 88.434605 95.467437 
L 88.487025 95.467437 
L 88.591864 89.80631 
L 88.618074 89.80631 
L 88.722913 84.926028 
L 88.736018 84.926028 
L 88.840858 78.484056 
L 88.867068 78.484056 
L 88.971907 76.336732 
L 88.998117 76.336732 
L 89.102957 72.432507 
L 89.129166 72.432507 
L 89.234006 71.651662 
L 89.273321 71.651662 
L 89.365055 70.089972 
L 89.37816 70.089972 
L 89.391265 70.089972 
L 89.417475 68.918704 
L 89.496105 68.918704 
L 89.600944 68.918704 
L 89.614049 68.528282 
L 89.705784 68.528282 
L 89.771308 68.528282 
L 89.863043 67.552225 
L 89.876148 67.552225 
L 89.994092 67.552225 
L 89.994092 67.357014 
L 90.098932 67.357014 
L 90.125142 67.357014 
L 90.190666 66.77138 
L 90.229981 66.77138 
L 90.256191 66.77138 
L 90.334821 65.990535 
L 90.36103 65.990535 
L 90.41345 65.990535 
L 90.505185 65.404901 
L 90.51829 65.404901 
L 90.570709 65.404901 
L 90.570709 65.20969 
L 90.675549 65.20969 
L 91.409425 65.20969 
L 91.47495 64.819268 
L 91.514265 64.819268 
L 93.178592 64.819268 
L 93.178592 64.624056 
L 93.283431 64.624056 
L 93.57174 64.624056 
L 93.57174 64.428845 
L 93.676579 64.428845 
L 93.977993 64.428845 
L 93.977993 64.233634 
L 94.082832 64.233634 
L 96.402406 64.233634 
L 96.402406 64.038423 
L 96.507246 64.038423 
L 98.656455 64.038423 
L 98.656455 63.843211 
L 98.761295 63.843211 
L 101.631276 63.843211 
L 384.96 63.648 
L 384.96 63.648 
" style="fill:none;stroke:#d62728;stroke-dasharray:1.5,2.475;stroke-dashoffset:0;stroke-width:1.5;"/>
   </g>
   <g id="line2d_17">
    <path clip-path="url(#p7daec29ef6)" d="M 87.36 285.408 
L 87.464858 206.737859 
L 87.477965 206.737859 
L 87.582823 150.712225 
L 87.59593 150.712225 
L 87.700788 114.598141 
L 87.74011 112.450817 
L 87.831861 101.128563 
L 87.844968 101.128563 
L 87.858075 101.128563 
L 87.962933 84.926028 
L 87.976041 84.926028 
L 88.067791 78.679268 
L 88.080898 78.679268 
L 88.107113 78.679268 
L 88.211971 75.751099 
L 88.225078 75.751099 
L 88.303722 73.408563 
L 88.329936 73.408563 
L 88.343043 73.408563 
L 88.447901 71.456451 
L 88.461009 71.456451 
L 88.526545 70.285183 
L 88.565867 70.285183 
L 88.605188 70.285183 
L 88.710046 69.309127 
L 88.867333 69.309127 
L 88.919762 68.723493 
L 88.972191 68.723493 
L 88.985298 68.723493 
L 89.063942 67.747437 
L 89.090156 67.747437 
L 89.208122 67.747437 
L 89.208122 67.552225 
L 89.31298 67.552225 
L 89.444052 67.552225 
L 89.444052 67.161803 
L 89.54891 67.161803 
L 89.640661 67.161803 
L 89.679982 66.77138 
L 89.745519 66.77138 
L 89.758626 66.77138 
L 89.758626 66.576169 
L 89.863484 66.576169 
L 90.138736 66.576169 
L 90.178058 65.990535 
L 90.217379 65.990535 
L 90.322237 65.990535 
L 90.374666 65.600113 
L 90.427095 65.600113 
L 90.584382 65.600113 
L 90.584382 65.404901 
L 90.68924 65.404901 
L 91.226637 65.404901 
L 91.252852 65.014479 
L 91.331495 65.014479 
L 91.462568 65.014479 
L 91.462568 64.819268 
L 91.567426 64.819268 
L 92.157252 64.819268 
L 92.157252 64.428845 
L 92.26211 64.428845 
L 95.787959 64.428845 
L 95.787959 64.233634 
L 95.892817 64.233634 
L 97.321506 64.233634 
L 97.321506 64.038423 
L 97.426364 64.038423 
L 105.120317 64.038423 
L 105.120317 63.843211 
L 105.225175 63.843211 
L 141.086598 63.843211 
L 384.96 63.648 
L 384.96 63.648 
" style="fill:none;stroke:#9467bd;stroke-linecap:square;stroke-width:1.5;"/>
   </g>
   <g id="line2d_18">
    <path clip-path="url(#p7daec29ef6)" d="M 87.36 285.408 
L 87.464876 188.973634 
L 87.477986 188.973634 
L 87.582862 153.835606 
L 87.595972 153.835606 
L 87.700848 122.992225 
L 87.713958 122.992225 
L 87.805725 99.371662 
L 87.818834 99.371662 
L 87.845054 99.371662 
L 87.923711 80.240958 
L 87.94993 80.240958 
L 87.976149 80.240958 
L 88.081026 75.360676 
L 88.094135 75.360676 
L 88.172792 74.38462 
L 88.199011 74.38462 
L 88.225231 74.38462 
L 88.330107 72.042085 
L 88.369436 72.042085 
L 88.474312 70.870817 
L 88.52675 70.870817 
L 88.631627 69.504338 
L 88.644736 69.504338 
L 88.723394 68.918704 
L 88.749613 68.918704 
L 88.84138 68.918704 
L 88.946256 67.942648 
L 88.972475 67.942648 
L 89.077352 67.161803 
L 89.405091 67.161803 
L 89.483748 66.576169 
L 89.509967 66.576169 
L 89.601734 66.576169 
L 89.641063 65.795324 
L 89.693501 65.795324 
L 90.88647 65.795324 
L 90.88647 65.600113 
L 90.991347 65.600113 
L 91.279757 65.600113 
L 91.384633 65.20969 
L 91.463291 65.20969 
L 91.515729 64.819268 
L 91.568167 64.819268 
L 91.712372 64.819268 
L 91.712372 64.624056 
L 91.817249 64.624056 
L 91.909015 64.624056 
L 91.909015 64.428845 
L 92.013892 64.428845 
L 95.487924 64.428845 
L 95.487924 64.233634 
L 95.5928 64.233634 
L 102.304892 64.233634 
L 102.304892 64.038423 
L 102.409769 64.038423 
L 105.359419 64.038423 
L 105.359419 63.843211 
L 105.464295 63.843211 
L 231.250472 63.843211 
L 384.96 63.648 
L 384.96 63.648 
" style="fill:none;stroke:#8c564b;stroke-dasharray:9.6,2.4,1.5,2.4;stroke-dashoffset:0;stroke-width:1.5;"/>
   </g>
   <g id="patch_4">
    <path d="M 57.6 307.584 
L 57.6 41.472 
" style="fill:none;stroke:#000000;stroke-linecap:square;stroke-linejoin:miter;stroke-width:0.8;"/>
   </g>
   <g id="patch_5">
    <path d="M 414.72 307.584 
L 414.72 41.472 
" style="fill:none;stroke:#000000;stroke-linecap:square;stroke-linejoin:miter;stroke-width:0.8;"/>
   </g>
   <g id="patch_6">
    <path d="M 57.6 307.584 
L 414.72 307.584 
" style="fill:none;stroke:#000000;stroke-linecap:square;stroke-linejoin:miter;stroke-width:0.8;"/>
   </g>
   <g id="patch_7">
    <path d="M 57.6 41.472 
L 414.72 41.472 
" style="fill:none;stroke:#000000;stroke-linecap:square;stroke-linejoin:miter;stroke-width:0.8;"/>
   </g>
   <g id="legend_1">
    <g id="patch_8">
     <path d="M 296.595937 304.584 
L 410.52 304.584 
Q 411.72 304.584 411.72 303.384 
L 411.72 251.14275 
Q 411.72 249.94275 410.52 249.94275 
L 296.595937 249.94275 
Q 295.395938 249.94275 295.395938 251.14275 
L 295.395938 303.384 
Q 295.395938 304.584 296.595937 304.584 
z
" style="fill:#ffffff;opacity:0.8;stroke:#cccccc;stroke-linejoin:miter;"/>
    </g>
    <g id="line2d_19">
     <path d="M 297.795937 254.801813 
L 309.795937 254.801813 
" style="fill:none;stroke:#1f77b4;stroke-linecap:square;stroke-width:1.5;"/>
    </g>
    <g id="line2d_20"/>
    <g id="text_15">
     <!-- WMM model (auc: 0.9983) -->
     <g transform="translate(314.595937 256.901813)scale(0.06 -0.06)">
      <defs>
       <path d="M 213 4666 
L 850 4666 
L 1831 722 
L 2809 4666 
L 3519 4666 
L 4500 722 
L 5478 4666 
L 6119 4666 
L 4947 0 
L 4153 0 
L 3169 4050 
L 2175 0 
L 1381 0 
L 213 4666 
z
" id="DejaVuSans-57" transform="scale(0.015625)"/>
       <path d="M 628 4666 
L 1569 4666 
L 2759 1491 
L 3956 4666 
L 4897 4666 
L 4897 0 
L 4281 0 
L 4281 4097 
L 3078 897 
L 2444 897 
L 1241 4097 
L 1241 0 
L 628 0 
L 628 4666 
z
" id="DejaVuSans-4d" transform="scale(0.015625)"/>
       <path d="M 3328 2828 
Q 3544 3216 3844 3400 
Q 4144 3584 4550 3584 
Q 5097 3584 5394 3201 
Q 5691 2819 5691 2113 
L 5691 0 
L 5113 0 
L 5113 2094 
Q 5113 2597 4934 2840 
Q 4756 3084 4391 3084 
Q 3944 3084 3684 2787 
Q 3425 2491 3425 1978 
L 3425 0 
L 2847 0 
L 2847 2094 
Q 2847 2600 2669 2842 
Q 2491 3084 2119 3084 
Q 1678 3084 1418 2786 
Q 1159 2488 1159 1978 
L 1159 0 
L 581 0 
L 581 3500 
L 1159 3500 
L 1159 2956 
Q 1356 3278 1631 3431 
Q 1906 3584 2284 3584 
Q 2666 3584 2933 3390 
Q 3200 3197 3328 2828 
z
" id="DejaVuSans-6d" transform="scale(0.015625)"/>
       <path d="M 2906 2969 
L 2906 4863 
L 3481 4863 
L 3481 0 
L 2906 0 
L 2906 525 
Q 2725 213 2448 61 
Q 2172 -91 1784 -91 
Q 1150 -91 751 415 
Q 353 922 353 1747 
Q 353 2572 751 3078 
Q 1150 3584 1784 3584 
Q 2172 3584 2448 3432 
Q 2725 3281 2906 2969 
z
M 947 1747 
Q 947 1113 1208 752 
Q 1469 391 1925 391 
Q 2381 391 2643 752 
Q 2906 1113 2906 1747 
Q 2906 2381 2643 2742 
Q 2381 3103 1925 3103 
Q 1469 3103 1208 2742 
Q 947 2381 947 1747 
z
" id="DejaVuSans-64" transform="scale(0.015625)"/>
       <path d="M 1984 4856 
Q 1566 4138 1362 3434 
Q 1159 2731 1159 2009 
Q 1159 1288 1364 580 
Q 1569 -128 1984 -844 
L 1484 -844 
Q 1016 -109 783 600 
Q 550 1309 550 2009 
Q 550 2706 781 3412 
Q 1013 4119 1484 4856 
L 1984 4856 
z
" id="DejaVuSans-28" transform="scale(0.015625)"/>
       <path d="M 3122 3366 
L 3122 2828 
Q 2878 2963 2633 3030 
Q 2388 3097 2138 3097 
Q 1578 3097 1268 2742 
Q 959 2388 959 1747 
Q 959 1106 1268 751 
Q 1578 397 2138 397 
Q 2388 397 2633 464 
Q 2878 531 3122 666 
L 3122 134 
Q 2881 22 2623 -34 
Q 2366 -91 2075 -91 
Q 1284 -91 818 406 
Q 353 903 353 1747 
Q 353 2603 823 3093 
Q 1294 3584 2113 3584 
Q 2378 3584 2631 3529 
Q 2884 3475 3122 3366 
z
" id="DejaVuSans-63" transform="scale(0.015625)"/>
       <path d="M 750 794 
L 1409 794 
L 1409 0 
L 750 0 
L 750 794 
z
M 750 3309 
L 1409 3309 
L 1409 2516 
L 750 2516 
L 750 3309 
z
" id="DejaVuSans-3a" transform="scale(0.015625)"/>
       <path d="M 703 97 
L 703 672 
Q 941 559 1184 500 
Q 1428 441 1663 441 
Q 2288 441 2617 861 
Q 2947 1281 2994 2138 
Q 2813 1869 2534 1725 
Q 2256 1581 1919 1581 
Q 1219 1581 811 2004 
Q 403 2428 403 3163 
Q 403 3881 828 4315 
Q 1253 4750 1959 4750 
Q 2769 4750 3195 4129 
Q 3622 3509 3622 2328 
Q 3622 1225 3098 567 
Q 2575 -91 1691 -91 
Q 1453 -91 1209 -44 
Q 966 3 703 97 
z
M 1959 2075 
Q 2384 2075 2632 2365 
Q 2881 2656 2881 3163 
Q 2881 3666 2632 3958 
Q 2384 4250 1959 4250 
Q 1534 4250 1286 3958 
Q 1038 3666 1038 3163 
Q 1038 2656 1286 2365 
Q 1534 2075 1959 2075 
z
" id="DejaVuSans-39" transform="scale(0.015625)"/>
       <path d="M 2597 2516 
Q 3050 2419 3304 2112 
Q 3559 1806 3559 1356 
Q 3559 666 3084 287 
Q 2609 -91 1734 -91 
Q 1441 -91 1130 -33 
Q 819 25 488 141 
L 488 750 
Q 750 597 1062 519 
Q 1375 441 1716 441 
Q 2309 441 2620 675 
Q 2931 909 2931 1356 
Q 2931 1769 2642 2001 
Q 2353 2234 1838 2234 
L 1294 2234 
L 1294 2753 
L 1863 2753 
Q 2328 2753 2575 2939 
Q 2822 3125 2822 3475 
Q 2822 3834 2567 4026 
Q 2313 4219 1838 4219 
Q 1578 4219 1281 4162 
Q 984 4106 628 3988 
L 628 4550 
Q 988 4650 1302 4700 
Q 1616 4750 1894 4750 
Q 2613 4750 3031 4423 
Q 3450 4097 3450 3541 
Q 3450 3153 3228 2886 
Q 3006 2619 2597 2516 
z
" id="DejaVuSans-33" transform="scale(0.015625)"/>
       <path d="M 513 4856 
L 1013 4856 
Q 1481 4119 1714 3412 
Q 1947 2706 1947 2009 
Q 1947 1309 1714 600 
Q 1481 -109 1013 -844 
L 513 -844 
Q 928 -128 1133 580 
Q 1338 1288 1338 2009 
Q 1338 2731 1133 3434 
Q 928 4138 513 4856 
z
" id="DejaVuSans-29" transform="scale(0.015625)"/>
      </defs>
      <use xlink:href="#DejaVuSans-57"/>
      <use x="98.876953" xlink:href="#DejaVuSans-4d"/>
      <use x="185.15625" xlink:href="#DejaVuSans-4d"/>
      <use x="271.435547" xlink:href="#DejaVuSans-20"/>
      <use x="303.222656" xlink:href="#DejaVuSans-6d"/>
      <use x="400.634766" xlink:href="#DejaVuSans-6f"/>
      <use x="461.816406" xlink:href="#DejaVuSans-64"/>
      <use x="525.292969" xlink:href="#DejaVuSans-65"/>
      <use x="586.816406" xlink:href="#DejaVuSans-6c"/>
      <use x="614.599609" xlink:href="#DejaVuSans-20"/>
      <use x="646.386719" xlink:href="#DejaVuSans-28"/>
      <use x="685.400391" xlink:href="#DejaVuSans-61"/>
      <use x="746.679688" xlink:href="#DejaVuSans-75"/>
      <use x="810.058594" xlink:href="#DejaVuSans-63"/>
      <use x="865.039062" xlink:href="#DejaVuSans-3a"/>
      <use x="898.730469" xlink:href="#DejaVuSans-20"/>
      <use x="930.517578" xlink:href="#DejaVuSans-30"/>
      <use x="994.140625" xlink:href="#DejaVuSans-2e"/>
      <use x="1025.927734" xlink:href="#DejaVuSans-39"/>
      <use x="1089.550781" xlink:href="#DejaVuSans-39"/>
      <use x="1153.173828" xlink:href="#DejaVuSans-38"/>
      <use x="1216.796875" xlink:href="#DejaVuSans-33"/>
      <use x="1280.419922" xlink:href="#DejaVuSans-29"/>
     </g>
    </g>
    <g id="line2d_21">
     <path d="M 297.795937 263.608687 
L 309.795937 263.608687 
" style="fill:none;stroke:#ff7f0e;stroke-dasharray:9.6,2.4,1.5,2.4;stroke-dashoffset:0;stroke-width:1.5;"/>
    </g>
    <g id="line2d_22"/>
    <g id="text_16">
     <!-- WAM model (auc: 0.9989) -->
     <g transform="translate(314.595937 265.708687)scale(0.06 -0.06)">
      <defs>
       <path d="M 2188 4044 
L 1331 1722 
L 3047 1722 
L 2188 4044 
z
M 1831 4666 
L 2547 4666 
L 4325 0 
L 3669 0 
L 3244 1197 
L 1141 1197 
L 716 0 
L 50 0 
L 1831 4666 
z
" id="DejaVuSans-41" transform="scale(0.015625)"/>
      </defs>
      <use xlink:href="#DejaVuSans-57"/>
      <use x="93.376953" xlink:href="#DejaVuSans-41"/>
      <use x="161.785156" xlink:href="#DejaVuSans-4d"/>
      <use x="248.064453" xlink:href="#DejaVuSans-20"/>
      <use x="279.851562" xlink:href="#DejaVuSans-6d"/>
      <use x="377.263672" xlink:href="#DejaVuSans-6f"/>
      <use x="438.445312" xlink:href="#DejaVuSans-64"/>
      <use x="501.921875" xlink:href="#DejaVuSans-65"/>
      <use x="563.445312" xlink:href="#DejaVuSans-6c"/>
      <use x="591.228516" xlink:href="#DejaVuSans-20"/>
      <use x="623.015625" xlink:href="#DejaVuSans-28"/>
      <use x="662.029297" xlink:href="#DejaVuSans-61"/>
      <use x="723.308594" xlink:href="#DejaVuSans-75"/>
      <use x="786.6875" xlink:href="#DejaVuSans-63"/>
      <use x="841.667969" xlink:href="#DejaVuSans-3a"/>
      <use x="875.359375" xlink:href="#DejaVuSans-20"/>
      <use x="907.146484" xlink:href="#DejaVuSans-30"/>
      <use x="970.769531" xlink:href="#DejaVuSans-2e"/>
      <use x="1002.556641" xlink:href="#DejaVuSans-39"/>
      <use x="1066.179688" xlink:href="#DejaVuSans-39"/>
      <use x="1129.802734" xlink:href="#DejaVuSans-38"/>
      <use x="1193.425781" xlink:href="#DejaVuSans-39"/>
      <use x="1257.048828" xlink:href="#DejaVuSans-29"/>
     </g>
    </g>
    <g id="line2d_23">
     <path d="M 297.795937 272.415562 
L 309.795937 272.415562 
" style="fill:none;stroke:#2ca02c;stroke-dasharray:5.55,2.4;stroke-dashoffset:0;stroke-width:1.5;"/>
    </g>
    <g id="line2d_24"/>
    <g id="text_17">
     <!-- BN model (auc: 0.9938) -->
     <g transform="translate(314.595937 274.515562)scale(0.06 -0.06)">
      <defs>
       <path d="M 1259 2228 
L 1259 519 
L 2272 519 
Q 2781 519 3026 730 
Q 3272 941 3272 1375 
Q 3272 1813 3026 2020 
Q 2781 2228 2272 2228 
L 1259 2228 
z
M 1259 4147 
L 1259 2741 
L 2194 2741 
Q 2656 2741 2882 2914 
Q 3109 3088 3109 3444 
Q 3109 3797 2882 3972 
Q 2656 4147 2194 4147 
L 1259 4147 
z
M 628 4666 
L 2241 4666 
Q 2963 4666 3353 4366 
Q 3744 4066 3744 3513 
Q 3744 3084 3544 2831 
Q 3344 2578 2956 2516 
Q 3422 2416 3680 2098 
Q 3938 1781 3938 1306 
Q 3938 681 3513 340 
Q 3088 0 2303 0 
L 628 0 
L 628 4666 
z
" id="DejaVuSans-42" transform="scale(0.015625)"/>
       <path d="M 628 4666 
L 1478 4666 
L 3547 763 
L 3547 4666 
L 4159 4666 
L 4159 0 
L 3309 0 
L 1241 3903 
L 1241 0 
L 628 0 
L 628 4666 
z
" id="DejaVuSans-4e" transform="scale(0.015625)"/>
      </defs>
      <use xlink:href="#DejaVuSans-42"/>
      <use x="68.603516" xlink:href="#DejaVuSans-4e"/>
      <use x="143.408203" xlink:href="#DejaVuSans-20"/>
      <use x="175.195312" xlink:href="#DejaVuSans-6d"/>
      <use x="272.607422" xlink:href="#DejaVuSans-6f"/>
      <use x="333.789062" xlink:href="#DejaVuSans-64"/>
      <use x="397.265625" xlink:href="#DejaVuSans-65"/>
      <use x="458.789062" xlink:href="#DejaVuSans-6c"/>
      <use x="486.572266" xlink:href="#DejaVuSans-20"/>
      <use x="518.359375" xlink:href="#DejaVuSans-28"/>
      <use x="557.373047" xlink:href="#DejaVuSans-61"/>
      <use x="618.652344" xlink:href="#DejaVuSans-75"/>
      <use x="682.03125" xlink:href="#DejaVuSans-63"/>
      <use x="737.011719" xlink:href="#DejaVuSans-3a"/>
      <use x="770.703125" xlink:href="#DejaVuSans-20"/>
      <use x="802.490234" xlink:href="#DejaVuSans-30"/>
      <use x="866.113281" xlink:href="#DejaVuSans-2e"/>
      <use x="897.900391" xlink:href="#DejaVuSans-39"/>
      <use x="961.523438" xlink:href="#DejaVuSans-39"/>
      <use x="1025.146484" xlink:href="#DejaVuSans-33"/>
      <use x="1088.769531" xlink:href="#DejaVuSans-38"/>
      <use x="1152.392578" xlink:href="#DejaVuSans-29"/>
     </g>
    </g>
    <g id="line2d_25">
     <path d="M 297.795937 281.222437 
L 309.795937 281.222437 
" style="fill:none;stroke:#d62728;stroke-dasharray:1.5,2.475;stroke-dashoffset:0;stroke-width:1.5;"/>
    </g>
    <g id="line2d_26"/>
    <g id="text_18">
     <!-- linear-SVM model (auc: 0.9984) -->
     <g transform="translate(314.595937 283.322437)scale(0.06 -0.06)">
      <defs>
       <path d="M 3513 2113 
L 3513 0 
L 2938 0 
L 2938 2094 
Q 2938 2591 2744 2837 
Q 2550 3084 2163 3084 
Q 1697 3084 1428 2787 
Q 1159 2491 1159 1978 
L 1159 0 
L 581 0 
L 581 3500 
L 1159 3500 
L 1159 2956 
Q 1366 3272 1645 3428 
Q 1925 3584 2291 3584 
Q 2894 3584 3203 3211 
Q 3513 2838 3513 2113 
z
" id="DejaVuSans-6e" transform="scale(0.015625)"/>
       <path d="M 313 2009 
L 1997 2009 
L 1997 1497 
L 313 1497 
L 313 2009 
z
" id="DejaVuSans-2d" transform="scale(0.015625)"/>
       <path d="M 3425 4513 
L 3425 3897 
Q 3066 4069 2747 4153 
Q 2428 4238 2131 4238 
Q 1616 4238 1336 4038 
Q 1056 3838 1056 3469 
Q 1056 3159 1242 3001 
Q 1428 2844 1947 2747 
L 2328 2669 
Q 3034 2534 3370 2195 
Q 3706 1856 3706 1288 
Q 3706 609 3251 259 
Q 2797 -91 1919 -91 
Q 1588 -91 1214 -16 
Q 841 59 441 206 
L 441 856 
Q 825 641 1194 531 
Q 1563 422 1919 422 
Q 2459 422 2753 634 
Q 3047 847 3047 1241 
Q 3047 1584 2836 1778 
Q 2625 1972 2144 2069 
L 1759 2144 
Q 1053 2284 737 2584 
Q 422 2884 422 3419 
Q 422 4038 858 4394 
Q 1294 4750 2059 4750 
Q 2388 4750 2728 4690 
Q 3069 4631 3425 4513 
z
" id="DejaVuSans-53" transform="scale(0.015625)"/>
       <path d="M 1831 0 
L 50 4666 
L 709 4666 
L 2188 738 
L 3669 4666 
L 4325 4666 
L 2547 0 
L 1831 0 
z
" id="DejaVuSans-56" transform="scale(0.015625)"/>
      </defs>
      <use xlink:href="#DejaVuSans-6c"/>
      <use x="27.783203" xlink:href="#DejaVuSans-69"/>
      <use x="55.566406" xlink:href="#DejaVuSans-6e"/>
      <use x="118.945312" xlink:href="#DejaVuSans-65"/>
      <use x="180.46875" xlink:href="#DejaVuSans-61"/>
      <use x="241.748047" xlink:href="#DejaVuSans-72"/>
      <use x="276.486328" xlink:href="#DejaVuSans-2d"/>
      <use x="312.570312" xlink:href="#DejaVuSans-53"/>
      <use x="376.046875" xlink:href="#DejaVuSans-56"/>
      <use x="444.455078" xlink:href="#DejaVuSans-4d"/>
      <use x="530.734375" xlink:href="#DejaVuSans-20"/>
      <use x="562.521484" xlink:href="#DejaVuSans-6d"/>
      <use x="659.933594" xlink:href="#DejaVuSans-6f"/>
      <use x="721.115234" xlink:href="#DejaVuSans-64"/>
      <use x="784.591797" xlink:href="#DejaVuSans-65"/>
      <use x="846.115234" xlink:href="#DejaVuSans-6c"/>
      <use x="873.898438" xlink:href="#DejaVuSans-20"/>
      <use x="905.685547" xlink:href="#DejaVuSans-28"/>
      <use x="944.699219" xlink:href="#DejaVuSans-61"/>
      <use x="1005.978516" xlink:href="#DejaVuSans-75"/>
      <use x="1069.357422" xlink:href="#DejaVuSans-63"/>
      <use x="1124.337891" xlink:href="#DejaVuSans-3a"/>
      <use x="1158.029297" xlink:href="#DejaVuSans-20"/>
      <use x="1189.816406" xlink:href="#DejaVuSans-30"/>
      <use x="1253.439453" xlink:href="#DejaVuSans-2e"/>
      <use x="1285.226562" xlink:href="#DejaVuSans-39"/>
      <use x="1348.849609" xlink:href="#DejaVuSans-39"/>
      <use x="1412.472656" xlink:href="#DejaVuSans-38"/>
      <use x="1476.095703" xlink:href="#DejaVuSans-34"/>
      <use x="1539.71875" xlink:href="#DejaVuSans-29"/>
     </g>
    </g>
    <g id="line2d_27">
     <path d="M 297.795937 290.029312 
L 309.795937 290.029312 
" style="fill:none;stroke:#9467bd;stroke-linecap:square;stroke-width:1.5;"/>
    </g>
    <g id="line2d_28"/>
    <g id="text_19">
     <!-- rbf-SVM model (auc: 0.9988) -->
     <g transform="translate(314.595937 292.129312)scale(0.06 -0.06)">
      <defs>
       <path d="M 3116 1747 
Q 3116 2381 2855 2742 
Q 2594 3103 2138 3103 
Q 1681 3103 1420 2742 
Q 1159 2381 1159 1747 
Q 1159 1113 1420 752 
Q 1681 391 2138 391 
Q 2594 391 2855 752 
Q 3116 1113 3116 1747 
z
M 1159 2969 
Q 1341 3281 1617 3432 
Q 1894 3584 2278 3584 
Q 2916 3584 3314 3078 
Q 3713 2572 3713 1747 
Q 3713 922 3314 415 
Q 2916 -91 2278 -91 
Q 1894 -91 1617 61 
Q 1341 213 1159 525 
L 1159 0 
L 581 0 
L 581 4863 
L 1159 4863 
L 1159 2969 
z
" id="DejaVuSans-62" transform="scale(0.015625)"/>
       <path d="M 2375 4863 
L 2375 4384 
L 1825 4384 
Q 1516 4384 1395 4259 
Q 1275 4134 1275 3809 
L 1275 3500 
L 2222 3500 
L 2222 3053 
L 1275 3053 
L 1275 0 
L 697 0 
L 697 3053 
L 147 3053 
L 147 3500 
L 697 3500 
L 697 3744 
Q 697 4328 969 4595 
Q 1241 4863 1831 4863 
L 2375 4863 
z
" id="DejaVuSans-66" transform="scale(0.015625)"/>
      </defs>
      <use xlink:href="#DejaVuSans-72"/>
      <use x="41.113281" xlink:href="#DejaVuSans-62"/>
      <use x="104.589844" xlink:href="#DejaVuSans-66"/>
      <use x="134.294922" xlink:href="#DejaVuSans-2d"/>
      <use x="170.378906" xlink:href="#DejaVuSans-53"/>
      <use x="233.855469" xlink:href="#DejaVuSans-56"/>
      <use x="302.263672" xlink:href="#DejaVuSans-4d"/>
      <use x="388.542969" xlink:href="#DejaVuSans-20"/>
      <use x="420.330078" xlink:href="#DejaVuSans-6d"/>
      <use x="517.742188" xlink:href="#DejaVuSans-6f"/>
      <use x="578.923828" xlink:href="#DejaVuSans-64"/>
      <use x="642.400391" xlink:href="#DejaVuSans-65"/>
      <use x="703.923828" xlink:href="#DejaVuSans-6c"/>
      <use x="731.707031" xlink:href="#DejaVuSans-20"/>
      <use x="763.494141" xlink:href="#DejaVuSans-28"/>
      <use x="802.507812" xlink:href="#DejaVuSans-61"/>
      <use x="863.787109" xlink:href="#DejaVuSans-75"/>
      <use x="927.166016" xlink:href="#DejaVuSans-63"/>
      <use x="982.146484" xlink:href="#DejaVuSans-3a"/>
      <use x="1015.837891" xlink:href="#DejaVuSans-20"/>
      <use x="1047.625" xlink:href="#DejaVuSans-30"/>
      <use x="1111.248047" xlink:href="#DejaVuSans-2e"/>
      <use x="1143.035156" xlink:href="#DejaVuSans-39"/>
      <use x="1206.658203" xlink:href="#DejaVuSans-39"/>
      <use x="1270.28125" xlink:href="#DejaVuSans-38"/>
      <use x="1333.904297" xlink:href="#DejaVuSans-38"/>
      <use x="1397.527344" xlink:href="#DejaVuSans-29"/>
     </g>
    </g>
    <g id="line2d_29">
     <path d="M 297.795937 298.836187 
L 309.795937 298.836187 
" style="fill:none;stroke:#8c564b;stroke-dasharray:9.6,2.4,1.5,2.4;stroke-dashoffset:0;stroke-width:1.5;"/>
    </g>
    <g id="line2d_30"/>
    <g id="text_20">
     <!-- poly-SVM model (auc: 0.9983) -->
     <g transform="translate(314.595937 300.936187)scale(0.06 -0.06)">
      <defs>
       <path d="M 1159 525 
L 1159 -1331 
L 581 -1331 
L 581 3500 
L 1159 3500 
L 1159 2969 
Q 1341 3281 1617 3432 
Q 1894 3584 2278 3584 
Q 2916 3584 3314 3078 
Q 3713 2572 3713 1747 
Q 3713 922 3314 415 
Q 2916 -91 2278 -91 
Q 1894 -91 1617 61 
Q 1341 213 1159 525 
z
M 3116 1747 
Q 3116 2381 2855 2742 
Q 2594 3103 2138 3103 
Q 1681 3103 1420 2742 
Q 1159 2381 1159 1747 
Q 1159 1113 1420 752 
Q 1681 391 2138 391 
Q 2594 391 2855 752 
Q 3116 1113 3116 1747 
z
" id="DejaVuSans-70" transform="scale(0.015625)"/>
       <path d="M 2059 -325 
Q 1816 -950 1584 -1140 
Q 1353 -1331 966 -1331 
L 506 -1331 
L 506 -850 
L 844 -850 
Q 1081 -850 1212 -737 
Q 1344 -625 1503 -206 
L 1606 56 
L 191 3500 
L 800 3500 
L 1894 763 
L 2988 3500 
L 3597 3500 
L 2059 -325 
z
" id="DejaVuSans-79" transform="scale(0.015625)"/>
      </defs>
      <use xlink:href="#DejaVuSans-70"/>
      <use x="63.476562" xlink:href="#DejaVuSans-6f"/>
      <use x="124.658203" xlink:href="#DejaVuSans-6c"/>
      <use x="152.441406" xlink:href="#DejaVuSans-79"/>
      <use x="209.871094" xlink:href="#DejaVuSans-2d"/>
      <use x="245.955078" xlink:href="#DejaVuSans-53"/>
      <use x="309.431641" xlink:href="#DejaVuSans-56"/>
      <use x="377.839844" xlink:href="#DejaVuSans-4d"/>
      <use x="464.119141" xlink:href="#DejaVuSans-20"/>
      <use x="495.90625" xlink:href="#DejaVuSans-6d"/>
      <use x="593.318359" xlink:href="#DejaVuSans-6f"/>
      <use x="654.5" xlink:href="#DejaVuSans-64"/>
      <use x="717.976562" xlink:href="#DejaVuSans-65"/>
      <use x="779.5" xlink:href="#DejaVuSans-6c"/>
      <use x="807.283203" xlink:href="#DejaVuSans-20"/>
      <use x="839.070312" xlink:href="#DejaVuSans-28"/>
      <use x="878.083984" xlink:href="#DejaVuSans-61"/>
      <use x="939.363281" xlink:href="#DejaVuSans-75"/>
      <use x="1002.742188" xlink:href="#DejaVuSans-63"/>
      <use x="1057.722656" xlink:href="#DejaVuSans-3a"/>
      <use x="1091.414062" xlink:href="#DejaVuSans-20"/>
      <use x="1123.201172" xlink:href="#DejaVuSans-30"/>
      <use x="1186.824219" xlink:href="#DejaVuSans-2e"/>
      <use x="1218.611328" xlink:href="#DejaVuSans-39"/>
      <use x="1282.234375" xlink:href="#DejaVuSans-39"/>
      <use x="1345.857422" xlink:href="#DejaVuSans-38"/>
      <use x="1409.480469" xlink:href="#DejaVuSans-33"/>
      <use x="1473.103516" xlink:href="#DejaVuSans-29"/>
     </g>
    </g>
   </g>
  </g>
  <g id="axes_2">
   <g id="patch_9">
    <path d="M 182.592 227.7504 
L 289.728 227.7504 
L 289.728 121.3056 
L 182.592 121.3056 
z
" style="fill:#ffffff;"/>
   </g>
   <g id="patch_10">
    <path d="M 289.728 121.3056 
L 102.24 63.648 
" style="fill:none;stroke:#000000;stroke-dasharray:3.7,1.6;stroke-dashoffset:0;stroke-linejoin:miter;"/>
   </g>
   <g id="patch_11">
    <path d="M 182.592 227.7504 
L 87.36 74.736 
" style="fill:none;stroke:#000000;stroke-dasharray:3.7,1.6;stroke-dashoffset:0;stroke-linejoin:miter;"/>
   </g>
   <g id="matplotlib.axis_3">
    <g id="xtick_7">
     <g id="line2d_31">
      <g>
       <use style="stroke:#000000;stroke-width:0.8;" x="182.592" xlink:href="#m70e35dacb7" y="227.7504"/>
      </g>
     </g>
     <g id="text_21">
      <!-- 0.00 -->
      <g transform="translate(171.459188 242.348838)scale(0.1 -0.1)">
       <use xlink:href="#DejaVuSans-30"/>
       <use x="63.623047" xlink:href="#DejaVuSans-2e"/>
       <use x="95.410156" xlink:href="#DejaVuSans-30"/>
       <use x="159.033203" xlink:href="#DejaVuSans-30"/>
      </g>
     </g>
    </g>
    <g id="xtick_8">
     <g id="line2d_32">
      <g>
       <use style="stroke:#000000;stroke-width:0.8;" x="225.4464" xlink:href="#m70e35dacb7" y="227.7504"/>
      </g>
     </g>
     <g id="text_22">
      <!-- 0.02 -->
      <g transform="translate(214.313588 242.348838)scale(0.1 -0.1)">
       <use xlink:href="#DejaVuSans-30"/>
       <use x="63.623047" xlink:href="#DejaVuSans-2e"/>
       <use x="95.410156" xlink:href="#DejaVuSans-30"/>
       <use x="159.033203" xlink:href="#DejaVuSans-32"/>
      </g>
     </g>
    </g>
    <g id="xtick_9">
     <g id="line2d_33">
      <g>
       <use style="stroke:#000000;stroke-width:0.8;" x="268.3008" xlink:href="#m70e35dacb7" y="227.7504"/>
      </g>
     </g>
     <g id="text_23">
      <!-- 0.04 -->
      <g transform="translate(257.167987 242.348838)scale(0.1 -0.1)">
       <use xlink:href="#DejaVuSans-30"/>
       <use x="63.623047" xlink:href="#DejaVuSans-2e"/>
       <use x="95.410156" xlink:href="#DejaVuSans-30"/>
       <use x="159.033203" xlink:href="#DejaVuSans-34"/>
      </g>
     </g>
    </g>
   </g>
   <g id="matplotlib.axis_4">
    <g id="ytick_7">
     <g id="line2d_34">
      <g>
       <use style="stroke:#000000;stroke-width:0.8;" x="182.592" xlink:href="#m74a1125954" y="206.46144"/>
      </g>
     </g>
     <g id="text_24">
      <!-- 0.96 -->
      <g transform="translate(153.326375 210.260659)scale(0.1 -0.1)">
       <use xlink:href="#DejaVuSans-30"/>
       <use x="63.623047" xlink:href="#DejaVuSans-2e"/>
       <use x="95.410156" xlink:href="#DejaVuSans-39"/>
       <use x="159.033203" xlink:href="#DejaVuSans-36"/>
      </g>
     </g>
    </g>
    <g id="ytick_8">
     <g id="line2d_35">
      <g>
       <use style="stroke:#000000;stroke-width:0.8;" x="182.592" xlink:href="#m74a1125954" y="163.88352"/>
      </g>
     </g>
     <g id="text_25">
      <!-- 0.98 -->
      <g transform="translate(153.326375 167.682739)scale(0.1 -0.1)">
       <use xlink:href="#DejaVuSans-30"/>
       <use x="63.623047" xlink:href="#DejaVuSans-2e"/>
       <use x="95.410156" xlink:href="#DejaVuSans-39"/>
       <use x="159.033203" xlink:href="#DejaVuSans-38"/>
      </g>
     </g>
    </g>
    <g id="ytick_9">
     <g id="line2d_36">
      <g>
       <use style="stroke:#000000;stroke-width:0.8;" x="182.592" xlink:href="#m74a1125954" y="121.3056"/>
      </g>
     </g>
     <g id="text_26">
      <!-- 1.00 -->
      <g transform="translate(153.326375 125.104819)scale(0.1 -0.1)">
       <use xlink:href="#DejaVuSans-31"/>
       <use x="63.623047" xlink:href="#DejaVuSans-2e"/>
       <use x="95.410156" xlink:href="#DejaVuSans-30"/>
       <use x="159.033203" xlink:href="#DejaVuSans-30"/>
      </g>
     </g>
    </g>
   </g>
   <g id="line2d_37">
    <path clip-path="url(#p1d6c29eb04)" d="M 191.840065 346.6 
L 191.934433 336.818839 
L 192.500641 336.818839 
L 192.595009 327.448699 
L 192.878113 327.448699 
L 192.972481 325.57467 
L 193.255585 325.57467 
L 193.349953 319.952586 
L 193.821793 319.952586 
L 193.821793 316.20453 
L 193.916161 316.20453 
L 194.010529 316.20453 
L 194.104897 308.708417 
L 194.199265 308.708417 
L 194.293633 301.212304 
L 194.388001 301.212304 
L 194.482369 293.716192 
L 194.671105 293.716192 
L 194.765473 286.220079 
L 194.859841 286.220079 
L 194.859841 278.723966 
L 194.954209 278.723966 
L 195.142945 278.723966 
L 195.237313 271.227854 
L 195.331681 271.227854 
L 195.426049 265.605769 
L 195.520417 265.605769 
L 195.614785 263.731741 
L 195.897889 263.731741 
L 195.992257 259.983685 
L 196.086625 259.983685 
L 196.180993 254.3616 
L 196.275361 254.3616 
L 196.369729 239.369375 
L 196.464097 239.369375 
L 196.558465 237.495346 
L 196.747201 237.495346 
L 196.841569 235.621318 
L 197.124673 235.621318 
L 197.219041 231.873262 
L 197.407777 231.873262 
L 197.407777 228.125206 
L 197.502145 228.125206 
L 197.690881 228.125206 
L 197.690881 226.251177 
L 197.785249 226.251177 
L 198.162721 226.251177 
L 198.257089 218.755065 
L 198.351457 218.755065 
L 198.351457 213.13298 
L 198.445825 213.13298 
L 198.540193 213.13298 
L 198.634561 205.636868 
L 199.389506 205.636868 
L 199.483874 201.888811 
L 199.578242 201.888811 
L 199.67261 196.266727 
L 199.766978 196.266727 
L 199.861346 190.644642 
L 200.427554 190.644642 
L 200.427554 188.770614 
L 200.521922 188.770614 
L 201.08813 188.770614 
L 201.182498 185.022558 
L 201.748706 185.022558 
L 201.843074 177.526445 
L 202.126178 177.526445 
L 202.126178 170.030332 
L 202.220546 170.030332 
L 202.50365 170.030332 
L 202.50365 168.156304 
L 202.598018 168.156304 
L 202.692386 168.156304 
L 202.692386 166.282276 
L 202.786754 166.282276 
L 202.881122 166.282276 
L 202.881122 164.408248 
L 202.97549 164.408248 
L 203.636066 164.408248 
L 203.636066 158.786163 
L 203.730434 158.786163 
L 204.202274 158.786163 
L 204.202274 156.912135 
L 204.296642 156.912135 
L 204.39101 156.912135 
L 204.39101 155.038107 
L 204.485378 155.038107 
L 204.768482 155.038107 
L 204.768482 153.164079 
L 204.86285 153.164079 
L 206.844578 153.164079 
L 206.844578 149.416023 
L 206.938946 149.416023 
L 209.015042 149.416023 
L 209.015042 147.541994 
L 209.10941 147.541994 
L 211.846083 147.541994 
L 211.846083 145.667966 
L 211.940451 145.667966 
L 213.639075 145.667966 
L 213.639075 143.793938 
L 213.733443 143.793938 
L 217.508163 143.793938 
L 217.508163 140.045882 
L 217.602531 140.045882 
L 221.660356 140.045882 
L 221.660356 138.171854 
L 221.754724 138.171854 
L 223.925188 138.171854 
L 223.925188 136.297825 
L 224.019556 136.297825 
L 224.680132 136.297825 
L 224.680132 134.423797 
L 224.7745 134.423797 
L 225.71818 134.423797 
L 225.71818 132.549769 
L 225.812548 132.549769 
L 226.66186 132.549769 
L 226.66186 130.675741 
L 226.756228 130.675741 
L 230.153476 130.675741 
L 230.153476 128.801713 
L 230.247844 128.801713 
L 240.439589 128.801713 
L 240.439589 126.927685 
L 240.533957 126.927685 
L 251.197542 126.927685 
L 251.197542 125.053656 
L 251.29191 125.053656 
L 265.447111 125.053656 
L 265.447111 123.179628 
L 265.541479 123.179628 
L 277.148744 123.179628 
L 461.8 123.010676 
L 461.8 123.010676 
" style="fill:none;stroke:#1f77b4;stroke-linecap:square;stroke-width:1.5;"/>
   </g>
   <g id="line2d_38">
    <path clip-path="url(#p1d6c29eb04)" d="M 187.216236 346.6 
L 187.216236 346.18898 
L 187.310608 346.18898 
L 187.40498 346.18898 
L 187.40498 344.314952 
L 187.499353 344.314952 
L 187.593725 344.314952 
L 187.688097 342.440924 
L 187.876841 342.440924 
L 187.971213 331.196755 
L 188.065586 331.196755 
L 188.159958 327.448699 
L 188.348702 327.448699 
L 188.348702 321.826614 
L 188.443074 321.826614 
L 188.631819 321.826614 
L 188.631819 319.952586 
L 188.726191 319.952586 
L 188.820563 319.952586 
L 188.914935 318.078558 
L 189.009307 318.078558 
L 189.103679 314.330501 
L 189.198052 314.330501 
L 189.198052 308.708417 
L 189.292424 308.708417 
L 189.386796 308.708417 
L 189.386796 304.960361 
L 189.481168 304.960361 
L 189.858657 304.960361 
L 189.953029 297.464248 
L 190.047401 297.464248 
L 190.047401 295.59022 
L 190.141773 295.59022 
L 190.236145 295.59022 
L 190.236145 280.597994 
L 190.330518 280.597994 
L 190.42489 280.597994 
L 190.519262 278.723966 
L 190.613634 278.723966 
L 190.708006 274.97591 
L 190.89675 274.97591 
L 190.991123 258.109656 
L 191.085495 258.109656 
L 191.179867 256.235628 
L 191.557356 256.235628 
L 191.651728 246.865487 
L 191.7461 246.865487 
L 191.840472 244.991459 
L 191.934844 244.991459 
L 192.029216 235.621318 
L 192.123589 235.621318 
L 192.217961 229.999234 
L 192.406705 229.999234 
L 192.501077 222.503121 
L 192.689822 222.503121 
L 192.784194 216.881037 
L 193.06731 216.881037 
L 193.161682 211.258952 
L 193.633543 211.258952 
L 193.633543 207.510896 
L 193.727915 207.510896 
L 194.199776 207.510896 
L 194.294148 205.636868 
L 194.577265 205.636868 
L 194.671637 201.888811 
L 194.860381 201.888811 
L 194.860381 200.014783 
L 194.954754 200.014783 
L 195.049126 200.014783 
L 195.143498 190.644642 
L 195.23787 190.644642 
L 195.23787 188.770614 
L 195.332242 188.770614 
L 195.520987 188.770614 
L 195.520987 186.896586 
L 195.615359 186.896586 
L 195.804103 186.896586 
L 195.804103 185.022558 
L 195.898475 185.022558 
L 195.992847 185.022558 
L 196.08722 179.400473 
L 196.181592 179.400473 
L 196.181592 177.526445 
L 196.275964 177.526445 
L 196.370336 177.526445 
L 196.370336 175.652417 
L 196.464708 175.652417 
L 197.219686 175.652417 
L 197.219686 171.904361 
L 197.314058 171.904361 
L 197.40843 171.904361 
L 197.502802 168.156304 
L 197.974663 168.156304 
L 198.069035 164.408248 
L 198.72964 164.408248 
L 198.72964 162.53422 
L 198.824012 162.53422 
L 199.107129 162.53422 
L 199.107129 160.660192 
L 199.201501 160.660192 
L 199.295873 160.660192 
L 199.295873 156.912135 
L 199.390245 156.912135 
L 199.673362 156.912135 
L 199.673362 153.164079 
L 199.767734 153.164079 
L 200.805828 153.164079 
L 200.805828 151.290051 
L 200.9002 151.290051 
L 202.410155 151.290051 
L 202.410155 145.667966 
L 202.504527 145.667966 
L 204.39197 145.667966 
L 204.486342 141.91991 
L 207.789368 141.91991 
L 207.789368 140.045882 
L 207.88374 140.045882 
L 212.036115 140.045882 
L 212.130488 134.423797 
L 212.602348 134.423797 
L 212.602348 130.675741 
L 212.696721 130.675741 
L 222.70017 130.675741 
L 222.70017 128.801713 
L 222.794542 128.801713 
L 227.04129 128.801713 
L 227.04129 126.927685 
L 227.135662 126.927685 
L 230.155571 126.927685 
L 230.155571 125.053656 
L 230.249943 125.053656 
L 263.752062 125.053656 
L 263.752062 123.179628 
L 263.846434 123.179628 
L 284.042077 123.179628 
L 461.8 123.016434 
L 461.8 123.016434 
" style="fill:none;stroke:#ff7f0e;stroke-dasharray:9.6,2.4,1.5,2.4;stroke-dashoffset:0;stroke-width:1.5;"/>
   </g>
   <g id="line2d_39">
    <path clip-path="url(#p1d6c29eb04)" d="M 201.881151 346.6 
L 202.126178 338.692868 
L 204.296642 304.960361 
L 205.617794 293.716192 
L 206.75021 246.865487 
L 206.938946 244.991459 
L 208.920674 239.369375 
L 210.524931 211.258952 
L 212.978499 196.266727 
L 213.355971 196.266727 
L 215.054595 177.526445 
L 216.564483 162.53422 
L 219.678627 156.912135 
L 220.527939 156.912135 
L 222.037828 145.667966 
L 223.736452 145.667966 
L 228.643588 143.793938 
L 231.285892 140.045882 
L 232.32394 140.045882 
L 234.777509 134.423797 
L 236.476133 134.423797 
L 237.891653 134.423797 
L 238.646597 134.423797 
L 241.760741 132.549769 
L 461.8 131.362297 
" style="fill:none;stroke:#2ca02c;stroke-dasharray:5.55,2.4;stroke-dashoffset:0;stroke-width:1.5;"/>
   </g>
   <g id="line2d_40">
    <path clip-path="url(#p1d6c29eb04)" d="M 192.027554 346.6 
L 192.027554 342.440924 
L 192.12191 342.440924 
L 192.216265 342.440924 
L 192.310621 334.944811 
L 192.404976 334.944811 
L 192.499332 310.582445 
L 192.593687 310.582445 
L 192.688043 304.960361 
L 192.876754 304.960361 
L 192.97111 282.472023 
L 193.159821 282.472023 
L 193.254176 263.731741 
L 193.442887 263.731741 
L 193.442887 252.487572 
L 193.537243 252.487572 
L 193.725954 252.487572 
L 193.820309 250.613544 
L 193.914665 250.613544 
L 194.009021 246.865487 
L 194.197732 246.865487 
L 194.197732 243.117431 
L 194.292087 243.117431 
L 194.386443 243.117431 
L 194.386443 231.873262 
L 194.480798 231.873262 
L 194.575154 231.873262 
L 194.669509 218.755065 
L 194.85822 218.755065 
L 194.85822 207.510896 
L 194.952576 207.510896 
L 195.141287 207.510896 
L 195.235643 205.636868 
L 195.329998 205.636868 
L 195.424354 203.762839 
L 196.084842 203.762839 
L 196.084842 198.140755 
L 196.179198 198.140755 
L 196.367909 198.140755 
L 196.462265 194.392699 
L 196.745331 194.392699 
L 196.839687 186.896586 
L 196.934042 186.896586 
L 197.028398 183.14853 
L 197.217109 183.14853 
L 197.217109 177.526445 
L 197.40582 177.526445 
L 197.40582 171.904361 
L 197.500176 171.904361 
L 198.726798 171.904361 
L 198.821153 168.156304 
L 199.95342 168.156304 
L 199.95342 166.282276 
L 200.047775 166.282276 
L 200.236486 166.282276 
L 200.330842 162.53422 
L 200.613908 162.53422 
L 200.613908 158.786163 
L 200.708264 158.786163 
L 201.557464 158.786163 
L 201.557464 156.912135 
L 201.651819 156.912135 
L 202.501019 156.912135 
L 202.595375 153.164079 
L 202.972797 153.164079 
L 202.972797 151.290051 
L 203.067153 151.290051 
L 203.444575 151.290051 
L 203.53893 147.541994 
L 203.633286 147.541994 
L 203.633286 145.667966 
L 203.727641 145.667966 
L 204.010708 145.667966 
L 204.010708 143.793938 
L 204.105064 143.793938 
L 204.576841 143.793938 
L 204.576841 141.91991 
L 204.671197 141.91991 
L 205.23733 141.91991 
L 205.23733 138.171854 
L 205.331686 138.171854 
L 205.709108 138.171854 
L 205.709108 136.297825 
L 205.803463 136.297825 
L 211.747862 136.297825 
L 211.747862 134.423797 
L 211.842218 134.423797 
L 211.936574 134.423797 
L 212.313996 132.549769 
L 224.485861 132.549769 
L 224.485861 130.675741 
L 224.580216 130.675741 
L 227.316527 130.675741 
L 227.316527 128.801713 
L 227.410882 128.801713 
L 230.241549 128.801713 
L 230.241549 126.927685 
L 230.335904 126.927685 
L 247.697324 126.927685 
L 247.697324 125.053656 
L 247.791679 125.053656 
L 263.926477 125.053656 
L 263.926477 123.179628 
L 264.020833 123.179628 
L 285.345185 123.179628 
L 461.8 123.017527 
L 461.8 123.017527 
" style="fill:none;stroke:#d62728;stroke-dasharray:1.5,2.475;stroke-dashoffset:0;stroke-width:1.5;"/>
   </g>
   <g id="line2d_41">
    <path clip-path="url(#p1d6c29eb04)" d="M 186.93312 346.6 
L 187.027492 280.597994 
L 187.121864 280.597994 
L 187.121864 276.849938 
L 187.216236 276.849938 
L 187.40498 276.849938 
L 187.40498 269.353825 
L 187.499353 269.353825 
L 187.593725 269.353825 
L 187.688097 265.605769 
L 187.971213 265.605769 
L 187.971213 261.857713 
L 188.065586 261.857713 
L 188.348702 261.857713 
L 188.348702 258.109656 
L 188.443074 258.109656 
L 188.631819 258.109656 
L 188.726191 237.495346 
L 188.820563 237.495346 
L 188.914935 235.621318 
L 189.103679 235.621318 
L 189.198052 231.873262 
L 189.386796 231.873262 
L 189.386796 215.007008 
L 189.481168 215.007008 
L 189.669912 215.007008 
L 189.764285 207.510896 
L 189.953029 207.510896 
L 190.047401 203.762839 
L 190.330518 203.762839 
L 190.42489 196.266727 
L 190.519262 196.266727 
L 190.519262 194.392699 
L 190.613634 194.392699 
L 190.802378 194.392699 
L 190.802378 190.644642 
L 190.89675 190.644642 
L 190.991123 190.644642 
L 190.991123 185.022558 
L 191.085495 185.022558 
L 191.557356 185.022558 
L 191.651728 181.274501 
L 192.029216 181.274501 
L 192.123589 177.526445 
L 192.312333 177.526445 
L 192.312333 175.652417 
L 192.406705 175.652417 
L 193.444799 175.652417 
L 193.539171 171.904361 
L 193.822288 171.904361 
L 193.822288 170.030332 
L 193.91666 170.030332 
L 194.294148 170.030332 
L 194.294148 166.282276 
L 194.388521 166.282276 
L 194.577265 166.282276 
L 194.577265 162.53422 
L 194.671637 162.53422 
L 194.860381 162.53422 
L 194.860381 160.660192 
L 194.954754 160.660192 
L 195.898475 160.660192 
L 195.898475 158.786163 
L 195.992847 158.786163 
L 197.597174 158.786163 
L 197.597174 155.038107 
L 197.691546 155.038107 
L 199.012757 155.038107 
L 199.012757 153.164079 
L 199.107129 153.164079 
L 199.295873 153.164079 
L 199.295873 151.290051 
L 199.390245 151.290051 
L 199.862106 151.290051 
L 199.862106 149.416023 
L 199.956478 149.416023 
L 202.598899 149.416023 
L 202.693271 145.667966 
L 202.882015 145.667966 
L 202.882015 143.793938 
L 202.976388 143.793938 
L 203.920109 143.793938 
L 203.920109 141.91991 
L 204.014481 141.91991 
L 204.297598 141.91991 
L 204.297598 140.045882 
L 204.39197 140.045882 
L 205.807553 140.045882 
L 205.807553 138.171854 
L 205.901925 138.171854 
L 210.431789 138.171854 
L 210.431789 136.297825 
L 210.526161 136.297825 
L 210.620533 136.297825 
L 210.620533 134.423797 
L 210.714905 134.423797 
L 212.130488 134.423797 
L 212.130488 132.549769 
L 212.22486 132.549769 
L 217.132212 132.549769 
L 217.226584 128.801713 
L 243.273302 128.801713 
L 243.273302 126.927685 
L 243.367674 126.927685 
L 254.314845 126.927685 
L 254.314845 125.053656 
L 254.409217 125.053656 
L 289.798779 125.053656 
L 289.798779 125.053656 
" style="fill:none;stroke:#9467bd;stroke-linecap:square;stroke-width:1.5;"/>
   </g>
   <g id="line2d_42">
    <path clip-path="url(#p1d6c29eb04)" d="M 186.556329 346.6 
L 186.650718 280.597994 
L 187.028273 280.597994 
L 187.122662 256.235628 
L 187.405828 256.235628 
L 187.405828 250.613544 
L 187.500217 250.613544 
L 187.594606 250.613544 
L 187.688995 237.495346 
L 187.783384 237.495346 
L 187.877772 231.873262 
L 187.972161 231.873262 
L 188.06655 226.251177 
L 188.444105 226.251177 
L 188.444105 224.377149 
L 188.538494 224.377149 
L 188.82166 224.377149 
L 188.916049 218.755065 
L 189.010438 218.755065 
L 189.010438 216.881037 
L 189.104827 216.881037 
L 189.199216 216.881037 
L 189.293604 215.007008 
L 189.387993 215.007008 
L 189.387993 211.258952 
L 189.482382 211.258952 
L 189.576771 211.258952 
L 189.576771 201.888811 
L 189.67116 201.888811 
L 189.859937 201.888811 
L 189.859937 198.140755 
L 189.954326 198.140755 
L 190.048715 198.140755 
L 190.048715 196.266727 
L 190.143103 196.266727 
L 190.331881 196.266727 
L 190.331881 194.392699 
L 190.42627 194.392699 
L 190.520659 194.392699 
L 190.615047 190.644642 
L 190.992603 190.644642 
L 190.992603 185.022558 
L 191.086991 185.022558 
L 191.464547 185.022558 
L 191.558935 179.400473 
L 191.747713 179.400473 
L 191.842102 175.652417 
L 191.936491 175.652417 
L 191.936491 173.778389 
L 192.030879 173.778389 
L 192.408435 173.778389 
L 192.408435 171.904361 
L 192.502823 171.904361 
L 193.257934 171.904361 
L 193.257934 170.030332 
L 193.352322 170.030332 
L 193.446711 170.030332 
L 193.5411 166.282276 
L 194.013044 166.282276 
L 194.013044 162.53422 
L 194.107433 162.53422 
L 194.201822 162.53422 
L 194.201822 160.660192 
L 194.29621 160.660192 
L 194.579377 160.660192 
L 194.579377 158.786163 
L 194.673766 158.786163 
L 194.768154 158.786163 
L 194.768154 156.912135 
L 194.862543 156.912135 
L 194.956932 156.912135 
L 194.956932 155.038107 
L 195.051321 155.038107 
L 197.316652 155.038107 
L 197.316652 153.164079 
L 197.411041 153.164079 
L 197.694207 153.164079 
L 197.694207 151.290051 
L 197.788596 151.290051 
L 197.882985 151.290051 
L 197.882985 149.416023 
L 197.977373 149.416023 
L 198.732484 149.416023 
L 198.826872 143.793938 
L 199.01565 143.793938 
L 199.01565 141.91991 
L 199.110039 141.91991 
L 207.982585 141.91991 
L 207.982585 140.045882 
L 208.076974 140.045882 
L 210.814249 140.045882 
L 210.814249 138.171854 
L 210.908638 138.171854 
L 211.56936 138.171854 
L 211.56936 136.297825 
L 211.663748 136.297825 
L 212.135692 136.297825 
L 212.135692 134.423797 
L 212.230081 134.423797 
L 212.513248 134.423797 
L 212.513248 132.549769 
L 212.607636 132.549769 
L 213.929079 132.549769 
L 213.929079 130.675741 
L 214.023468 130.675741 
L 215.344911 130.675741 
L 215.344911 128.801713 
L 215.4393 128.801713 
L 241.113052 128.801713 
L 241.113052 126.927685 
L 241.207441 126.927685 
L 289.817669 126.927685 
L 289.817669 126.927685 
" style="fill:none;stroke:#8c564b;stroke-dasharray:9.6,2.4,1.5,2.4;stroke-dashoffset:0;stroke-width:1.5;"/>
   </g>
   <g id="patch_12">
    <path d="M 182.592 227.7504 
L 182.592 121.3056 
" style="fill:none;stroke:#000000;stroke-linecap:square;stroke-linejoin:miter;stroke-width:0.8;"/>
   </g>
   <g id="patch_13">
    <path d="M 289.728 227.7504 
L 289.728 121.3056 
" style="fill:none;stroke:#000000;stroke-linecap:square;stroke-linejoin:miter;stroke-width:0.8;"/>
   </g>
   <g id="patch_14">
    <path d="M 182.592 227.7504 
L 289.728 227.7504 
" style="fill:none;stroke:#000000;stroke-linecap:square;stroke-linejoin:miter;stroke-width:0.8;"/>
   </g>
   <g id="patch_15">
    <path d="M 182.592 121.3056 
L 289.728 121.3056 
" style="fill:none;stroke:#000000;stroke-linecap:square;stroke-linejoin:miter;stroke-width:0.8;"/>
   </g>
  </g>
 </g>
 <defs>
  <clipPath id="p7daec29ef6">
   <rect height="266.112" width="357.12" x="57.6" y="41.472"/>
  </clipPath>
  <clipPath id="p1d6c29eb04">
   <rect height="106.4448" width="107.136" x="182.592" y="121.3056"/>
  </clipPath>
 </defs>
</svg>
