<?xml version="1.0" encoding="utf-8" standalone="no"?>
<!DOCTYPE svg PUBLIC "-//W3C//DTD SVG 1.1//EN"
  "http://www.w3.org/Graphics/SVG/1.1/DTD/svg11.dtd">
<svg height="345.6pt" version="1.1" viewBox="0 0 460.8 345.6" width="460.8pt" xmlns="http://www.w3.org/2000/svg" xmlns:xlink="http://www.w3.org/1999/xlink">
 <metadata>
  <rdf:RDF xmlns:cc="http://creativecommons.org/ns#" xmlns:dc="http://purl.org/dc/elements/1.1/" xmlns:rdf="http://www.w3.org/1999/02/22-rdf-syntax-ns#">
   <cc:Work>
    <dc:type rdf:resource="http://purl.org/dc/dcmitype/StillImage"/>
    <dc:date>2021-06-27T10:13:34.377661</dc:date>
    <dc:format>image/svg+xml</dc:format>
    <dc:creator>
     <cc:Agent>
      <dc:title>Matplotlib v3.4.2, https://matplotlib.org/</dc:title>
     </cc:Agent>
    </dc:creator>
   </cc:Work>
  </rdf:RDF>
 </metadata>
 <defs>
  <style type="text/css">*{stroke-linecap:butt;stroke-linejoin:round;}</style>
 </defs>
 <g id="figure_1">
  <g id="patch_1">
   <path d="M 0 345.6 
L 460.8 345.6 
L 460.8 0 
L 0 0 
z
" style="fill:#ffffff;"/>
  </g>
  <g id="axes_1">
   <g id="patch_2">
    <path d="M 57.6 307.584 
L 414.72 307.584 
L 414.72 41.472 
L 57.6 41.472 
z
" style="fill:#ffffff;"/>
   </g>
   <g id="matplotlib.axis_1">
    <g id="xtick_1">
     <g id="line2d_1">
      <defs>
       <path d="M 0 0 
L 0 3.5 
" id="m5551142426" style="stroke:#000000;stroke-width:0.8;"/>
      </defs>
      <g>
       <use style="stroke:#000000;stroke-width:0.8;" x="61.217389" xlink:href="#m5551142426" y="307.584"/>
      </g>
     </g>
     <g id="text_1">
      <!-- −6 -->
      <g transform="translate(53.846295 322.182437)scale(0.1 -0.1)">
       <defs>
        <path d="M 678 2272 
L 4684 2272 
L 4684 1741 
L 678 1741 
L 678 2272 
z
" id="DejaVuSans-2212" transform="scale(0.015625)"/>
        <path d="M 2113 2584 
Q 1688 2584 1439 2293 
Q 1191 2003 1191 1497 
Q 1191 994 1439 701 
Q 1688 409 2113 409 
Q 2538 409 2786 701 
Q 3034 994 3034 1497 
Q 3034 2003 2786 2293 
Q 2538 2584 2113 2584 
z
M 3366 4563 
L 3366 3988 
Q 3128 4100 2886 4159 
Q 2644 4219 2406 4219 
Q 1781 4219 1451 3797 
Q 1122 3375 1075 2522 
Q 1259 2794 1537 2939 
Q 1816 3084 2150 3084 
Q 2853 3084 3261 2657 
Q 3669 2231 3669 1497 
Q 3669 778 3244 343 
Q 2819 -91 2113 -91 
Q 1303 -91 875 529 
Q 447 1150 447 2328 
Q 447 3434 972 4092 
Q 1497 4750 2381 4750 
Q 2619 4750 2861 4703 
Q 3103 4656 3366 4563 
z
" id="DejaVuSans-36" transform="scale(0.015625)"/>
       </defs>
       <use xlink:href="#DejaVuSans-2212"/>
       <use x="83.789062" xlink:href="#DejaVuSans-36"/>
      </g>
     </g>
    </g>
    <g id="xtick_2">
     <g id="line2d_2">
      <g>
       <use style="stroke:#000000;stroke-width:0.8;" x="103.185841" xlink:href="#m5551142426" y="307.584"/>
      </g>
     </g>
     <g id="text_2">
      <!-- −4 -->
      <g transform="translate(95.814747 322.182437)scale(0.1 -0.1)">
       <defs>
        <path d="M 2419 4116 
L 825 1625 
L 2419 1625 
L 2419 4116 
z
M 2253 4666 
L 3047 4666 
L 3047 1625 
L 3713 1625 
L 3713 1100 
L 3047 1100 
L 3047 0 
L 2419 0 
L 2419 1100 
L 313 1100 
L 313 1709 
L 2253 4666 
z
" id="DejaVuSans-34" transform="scale(0.015625)"/>
       </defs>
       <use xlink:href="#DejaVuSans-2212"/>
       <use x="83.789062" xlink:href="#DejaVuSans-34"/>
      </g>
     </g>
    </g>
    <g id="xtick_3">
     <g id="line2d_3">
      <g>
       <use style="stroke:#000000;stroke-width:0.8;" x="145.154293" xlink:href="#m5551142426" y="307.584"/>
      </g>
     </g>
     <g id="text_3">
      <!-- −2 -->
      <g transform="translate(137.783199 322.182437)scale(0.1 -0.1)">
       <defs>
        <path d="M 1228 531 
L 3431 531 
L 3431 0 
L 469 0 
L 469 531 
Q 828 903 1448 1529 
Q 2069 2156 2228 2338 
Q 2531 2678 2651 2914 
Q 2772 3150 2772 3378 
Q 2772 3750 2511 3984 
Q 2250 4219 1831 4219 
Q 1534 4219 1204 4116 
Q 875 4013 500 3803 
L 500 4441 
Q 881 4594 1212 4672 
Q 1544 4750 1819 4750 
Q 2544 4750 2975 4387 
Q 3406 4025 3406 3419 
Q 3406 3131 3298 2873 
Q 3191 2616 2906 2266 
Q 2828 2175 2409 1742 
Q 1991 1309 1228 531 
z
" id="DejaVuSans-32" transform="scale(0.015625)"/>
       </defs>
       <use xlink:href="#DejaVuSans-2212"/>
       <use x="83.789062" xlink:href="#DejaVuSans-32"/>
      </g>
     </g>
    </g>
    <g id="xtick_4">
     <g id="line2d_4">
      <g>
       <use style="stroke:#000000;stroke-width:0.8;" x="187.122745" xlink:href="#m5551142426" y="307.584"/>
      </g>
     </g>
     <g id="text_4">
      <!-- 0 -->
      <g transform="translate(183.941495 322.182437)scale(0.1 -0.1)">
       <defs>
        <path d="M 2034 4250 
Q 1547 4250 1301 3770 
Q 1056 3291 1056 2328 
Q 1056 1369 1301 889 
Q 1547 409 2034 409 
Q 2525 409 2770 889 
Q 3016 1369 3016 2328 
Q 3016 3291 2770 3770 
Q 2525 4250 2034 4250 
z
M 2034 4750 
Q 2819 4750 3233 4129 
Q 3647 3509 3647 2328 
Q 3647 1150 3233 529 
Q 2819 -91 2034 -91 
Q 1250 -91 836 529 
Q 422 1150 422 2328 
Q 422 3509 836 4129 
Q 1250 4750 2034 4750 
z
" id="DejaVuSans-30" transform="scale(0.015625)"/>
       </defs>
       <use xlink:href="#DejaVuSans-30"/>
      </g>
     </g>
    </g>
    <g id="xtick_5">
     <g id="line2d_5">
      <g>
       <use style="stroke:#000000;stroke-width:0.8;" x="229.091197" xlink:href="#m5551142426" y="307.584"/>
      </g>
     </g>
     <g id="text_5">
      <!-- 2 -->
      <g transform="translate(225.909947 322.182437)scale(0.1 -0.1)">
       <use xlink:href="#DejaVuSans-32"/>
      </g>
     </g>
    </g>
    <g id="xtick_6">
     <g id="line2d_6">
      <g>
       <use style="stroke:#000000;stroke-width:0.8;" x="271.059649" xlink:href="#m5551142426" y="307.584"/>
      </g>
     </g>
     <g id="text_6">
      <!-- 4 -->
      <g transform="translate(267.878399 322.182437)scale(0.1 -0.1)">
       <use xlink:href="#DejaVuSans-34"/>
      </g>
     </g>
    </g>
    <g id="xtick_7">
     <g id="line2d_7">
      <g>
       <use style="stroke:#000000;stroke-width:0.8;" x="313.028101" xlink:href="#m5551142426" y="307.584"/>
      </g>
     </g>
     <g id="text_7">
      <!-- 6 -->
      <g transform="translate(309.846851 322.182437)scale(0.1 -0.1)">
       <use xlink:href="#DejaVuSans-36"/>
      </g>
     </g>
    </g>
    <g id="xtick_8">
     <g id="line2d_8">
      <g>
       <use style="stroke:#000000;stroke-width:0.8;" x="354.996552" xlink:href="#m5551142426" y="307.584"/>
      </g>
     </g>
     <g id="text_8">
      <!-- 8 -->
      <g transform="translate(351.815302 322.182437)scale(0.1 -0.1)">
       <defs>
        <path d="M 2034 2216 
Q 1584 2216 1326 1975 
Q 1069 1734 1069 1313 
Q 1069 891 1326 650 
Q 1584 409 2034 409 
Q 2484 409 2743 651 
Q 3003 894 3003 1313 
Q 3003 1734 2745 1975 
Q 2488 2216 2034 2216 
z
M 1403 2484 
Q 997 2584 770 2862 
Q 544 3141 544 3541 
Q 544 4100 942 4425 
Q 1341 4750 2034 4750 
Q 2731 4750 3128 4425 
Q 3525 4100 3525 3541 
Q 3525 3141 3298 2862 
Q 3072 2584 2669 2484 
Q 3125 2378 3379 2068 
Q 3634 1759 3634 1313 
Q 3634 634 3220 271 
Q 2806 -91 2034 -91 
Q 1263 -91 848 271 
Q 434 634 434 1313 
Q 434 1759 690 2068 
Q 947 2378 1403 2484 
z
M 1172 3481 
Q 1172 3119 1398 2916 
Q 1625 2713 2034 2713 
Q 2441 2713 2670 2916 
Q 2900 3119 2900 3481 
Q 2900 3844 2670 4047 
Q 2441 4250 2034 4250 
Q 1625 4250 1398 4047 
Q 1172 3844 1172 3481 
z
" id="DejaVuSans-38" transform="scale(0.015625)"/>
       </defs>
       <use xlink:href="#DejaVuSans-38"/>
      </g>
     </g>
    </g>
    <g id="xtick_9">
     <g id="line2d_9">
      <g>
       <use style="stroke:#000000;stroke-width:0.8;" x="396.965004" xlink:href="#m5551142426" y="307.584"/>
      </g>
     </g>
     <g id="text_9">
      <!-- 10 -->
      <g transform="translate(390.602504 322.182437)scale(0.1 -0.1)">
       <defs>
        <path d="M 794 531 
L 1825 531 
L 1825 4091 
L 703 3866 
L 703 4441 
L 1819 4666 
L 2450 4666 
L 2450 531 
L 3481 531 
L 3481 0 
L 794 0 
L 794 531 
z
" id="DejaVuSans-31" transform="scale(0.015625)"/>
       </defs>
       <use xlink:href="#DejaVuSans-31"/>
       <use x="63.623047" xlink:href="#DejaVuSans-30"/>
      </g>
     </g>
    </g>
    <g id="text_10">
     <!-- Threshold -->
     <g transform="translate(211.521719 335.860562)scale(0.1 -0.1)">
      <defs>
       <path d="M -19 4666 
L 3928 4666 
L 3928 4134 
L 2272 4134 
L 2272 0 
L 1638 0 
L 1638 4134 
L -19 4134 
L -19 4666 
z
" id="DejaVuSans-54" transform="scale(0.015625)"/>
       <path d="M 3513 2113 
L 3513 0 
L 2938 0 
L 2938 2094 
Q 2938 2591 2744 2837 
Q 2550 3084 2163 3084 
Q 1697 3084 1428 2787 
Q 1159 2491 1159 1978 
L 1159 0 
L 581 0 
L 581 4863 
L 1159 4863 
L 1159 2956 
Q 1366 3272 1645 3428 
Q 1925 3584 2291 3584 
Q 2894 3584 3203 3211 
Q 3513 2838 3513 2113 
z
" id="DejaVuSans-68" transform="scale(0.015625)"/>
       <path d="M 2631 2963 
Q 2534 3019 2420 3045 
Q 2306 3072 2169 3072 
Q 1681 3072 1420 2755 
Q 1159 2438 1159 1844 
L 1159 0 
L 581 0 
L 581 3500 
L 1159 3500 
L 1159 2956 
Q 1341 3275 1631 3429 
Q 1922 3584 2338 3584 
Q 2397 3584 2469 3576 
Q 2541 3569 2628 3553 
L 2631 2963 
z
" id="DejaVuSans-72" transform="scale(0.015625)"/>
       <path d="M 3597 1894 
L 3597 1613 
L 953 1613 
Q 991 1019 1311 708 
Q 1631 397 2203 397 
Q 2534 397 2845 478 
Q 3156 559 3463 722 
L 3463 178 
Q 3153 47 2828 -22 
Q 2503 -91 2169 -91 
Q 1331 -91 842 396 
Q 353 884 353 1716 
Q 353 2575 817 3079 
Q 1281 3584 2069 3584 
Q 2775 3584 3186 3129 
Q 3597 2675 3597 1894 
z
M 3022 2063 
Q 3016 2534 2758 2815 
Q 2500 3097 2075 3097 
Q 1594 3097 1305 2825 
Q 1016 2553 972 2059 
L 3022 2063 
z
" id="DejaVuSans-65" transform="scale(0.015625)"/>
       <path d="M 2834 3397 
L 2834 2853 
Q 2591 2978 2328 3040 
Q 2066 3103 1784 3103 
Q 1356 3103 1142 2972 
Q 928 2841 928 2578 
Q 928 2378 1081 2264 
Q 1234 2150 1697 2047 
L 1894 2003 
Q 2506 1872 2764 1633 
Q 3022 1394 3022 966 
Q 3022 478 2636 193 
Q 2250 -91 1575 -91 
Q 1294 -91 989 -36 
Q 684 19 347 128 
L 347 722 
Q 666 556 975 473 
Q 1284 391 1588 391 
Q 1994 391 2212 530 
Q 2431 669 2431 922 
Q 2431 1156 2273 1281 
Q 2116 1406 1581 1522 
L 1381 1569 
Q 847 1681 609 1914 
Q 372 2147 372 2553 
Q 372 3047 722 3315 
Q 1072 3584 1716 3584 
Q 2034 3584 2315 3537 
Q 2597 3491 2834 3397 
z
" id="DejaVuSans-73" transform="scale(0.015625)"/>
       <path d="M 1959 3097 
Q 1497 3097 1228 2736 
Q 959 2375 959 1747 
Q 959 1119 1226 758 
Q 1494 397 1959 397 
Q 2419 397 2687 759 
Q 2956 1122 2956 1747 
Q 2956 2369 2687 2733 
Q 2419 3097 1959 3097 
z
M 1959 3584 
Q 2709 3584 3137 3096 
Q 3566 2609 3566 1747 
Q 3566 888 3137 398 
Q 2709 -91 1959 -91 
Q 1206 -91 779 398 
Q 353 888 353 1747 
Q 353 2609 779 3096 
Q 1206 3584 1959 3584 
z
" id="DejaVuSans-6f" transform="scale(0.015625)"/>
       <path d="M 603 4863 
L 1178 4863 
L 1178 0 
L 603 0 
L 603 4863 
z
" id="DejaVuSans-6c" transform="scale(0.015625)"/>
       <path d="M 2906 2969 
L 2906 4863 
L 3481 4863 
L 3481 0 
L 2906 0 
L 2906 525 
Q 2725 213 2448 61 
Q 2172 -91 1784 -91 
Q 1150 -91 751 415 
Q 353 922 353 1747 
Q 353 2572 751 3078 
Q 1150 3584 1784 3584 
Q 2172 3584 2448 3432 
Q 2725 3281 2906 2969 
z
M 947 1747 
Q 947 1113 1208 752 
Q 1469 391 1925 391 
Q 2381 391 2643 752 
Q 2906 1113 2906 1747 
Q 2906 2381 2643 2742 
Q 2381 3103 1925 3103 
Q 1469 3103 1208 2742 
Q 947 2381 947 1747 
z
" id="DejaVuSans-64" transform="scale(0.015625)"/>
      </defs>
      <use xlink:href="#DejaVuSans-54"/>
      <use x="61.083984" xlink:href="#DejaVuSans-68"/>
      <use x="124.462891" xlink:href="#DejaVuSans-72"/>
      <use x="163.326172" xlink:href="#DejaVuSans-65"/>
      <use x="224.849609" xlink:href="#DejaVuSans-73"/>
      <use x="276.949219" xlink:href="#DejaVuSans-68"/>
      <use x="340.328125" xlink:href="#DejaVuSans-6f"/>
      <use x="401.509766" xlink:href="#DejaVuSans-6c"/>
      <use x="429.292969" xlink:href="#DejaVuSans-64"/>
     </g>
    </g>
   </g>
   <g id="matplotlib.axis_2">
    <g id="ytick_1">
     <g id="line2d_10">
      <defs>
       <path d="M 0 0 
L -3.5 0 
" id="m6ba4a4e032" style="stroke:#000000;stroke-width:0.8;"/>
      </defs>
      <g>
       <use style="stroke:#000000;stroke-width:0.8;" x="57.6" xlink:href="#m6ba4a4e032" y="295.60442"/>
      </g>
     </g>
     <g id="text_11">
      <!-- 0.0 -->
      <g transform="translate(34.696875 299.403638)scale(0.1 -0.1)">
       <defs>
        <path d="M 684 794 
L 1344 794 
L 1344 0 
L 684 0 
L 684 794 
z
" id="DejaVuSans-2e" transform="scale(0.015625)"/>
       </defs>
       <use xlink:href="#DejaVuSans-30"/>
       <use x="63.623047" xlink:href="#DejaVuSans-2e"/>
       <use x="95.410156" xlink:href="#DejaVuSans-30"/>
      </g>
     </g>
    </g>
    <g id="ytick_2">
     <g id="line2d_11">
      <g>
       <use style="stroke:#000000;stroke-width:0.8;" x="57.6" xlink:href="#m6ba4a4e032" y="247.197136"/>
      </g>
     </g>
     <g id="text_12">
      <!-- 0.2 -->
      <g transform="translate(34.696875 250.996354)scale(0.1 -0.1)">
       <use xlink:href="#DejaVuSans-30"/>
       <use x="63.623047" xlink:href="#DejaVuSans-2e"/>
       <use x="95.410156" xlink:href="#DejaVuSans-32"/>
      </g>
     </g>
    </g>
    <g id="ytick_3">
     <g id="line2d_12">
      <g>
       <use style="stroke:#000000;stroke-width:0.8;" x="57.6" xlink:href="#m6ba4a4e032" y="198.789852"/>
      </g>
     </g>
     <g id="text_13">
      <!-- 0.4 -->
      <g transform="translate(34.696875 202.589071)scale(0.1 -0.1)">
       <use xlink:href="#DejaVuSans-30"/>
       <use x="63.623047" xlink:href="#DejaVuSans-2e"/>
       <use x="95.410156" xlink:href="#DejaVuSans-34"/>
      </g>
     </g>
    </g>
    <g id="ytick_4">
     <g id="line2d_13">
      <g>
       <use style="stroke:#000000;stroke-width:0.8;" x="57.6" xlink:href="#m6ba4a4e032" y="150.382568"/>
      </g>
     </g>
     <g id="text_14">
      <!-- 0.6 -->
      <g transform="translate(34.696875 154.181787)scale(0.1 -0.1)">
       <use xlink:href="#DejaVuSans-30"/>
       <use x="63.623047" xlink:href="#DejaVuSans-2e"/>
       <use x="95.410156" xlink:href="#DejaVuSans-36"/>
      </g>
     </g>
    </g>
    <g id="ytick_5">
     <g id="line2d_14">
      <g>
       <use style="stroke:#000000;stroke-width:0.8;" x="57.6" xlink:href="#m6ba4a4e032" y="101.975284"/>
      </g>
     </g>
     <g id="text_15">
      <!-- 0.8 -->
      <g transform="translate(34.696875 105.774503)scale(0.1 -0.1)">
       <use xlink:href="#DejaVuSans-30"/>
       <use x="63.623047" xlink:href="#DejaVuSans-2e"/>
       <use x="95.410156" xlink:href="#DejaVuSans-38"/>
      </g>
     </g>
    </g>
    <g id="ytick_6">
     <g id="line2d_15">
      <g>
       <use style="stroke:#000000;stroke-width:0.8;" x="57.6" xlink:href="#m6ba4a4e032" y="53.568"/>
      </g>
     </g>
     <g id="text_16">
      <!-- 1.0 -->
      <g transform="translate(34.696875 57.367219)scale(0.1 -0.1)">
       <use xlink:href="#DejaVuSans-31"/>
       <use x="63.623047" xlink:href="#DejaVuSans-2e"/>
       <use x="95.410156" xlink:href="#DejaVuSans-30"/>
      </g>
     </g>
    </g>
    <g id="text_17">
     <!-- Metrics -->
     <g transform="translate(28.617187 192.677219)rotate(-90)scale(0.1 -0.1)">
      <defs>
       <path d="M 628 4666 
L 1569 4666 
L 2759 1491 
L 3956 4666 
L 4897 4666 
L 4897 0 
L 4281 0 
L 4281 4097 
L 3078 897 
L 2444 897 
L 1241 4097 
L 1241 0 
L 628 0 
L 628 4666 
z
" id="DejaVuSans-4d" transform="scale(0.015625)"/>
       <path d="M 1172 4494 
L 1172 3500 
L 2356 3500 
L 2356 3053 
L 1172 3053 
L 1172 1153 
Q 1172 725 1289 603 
Q 1406 481 1766 481 
L 2356 481 
L 2356 0 
L 1766 0 
Q 1100 0 847 248 
Q 594 497 594 1153 
L 594 3053 
L 172 3053 
L 172 3500 
L 594 3500 
L 594 4494 
L 1172 4494 
z
" id="DejaVuSans-74" transform="scale(0.015625)"/>
       <path d="M 603 3500 
L 1178 3500 
L 1178 0 
L 603 0 
L 603 3500 
z
M 603 4863 
L 1178 4863 
L 1178 4134 
L 603 4134 
L 603 4863 
z
" id="DejaVuSans-69" transform="scale(0.015625)"/>
       <path d="M 3122 3366 
L 3122 2828 
Q 2878 2963 2633 3030 
Q 2388 3097 2138 3097 
Q 1578 3097 1268 2742 
Q 959 2388 959 1747 
Q 959 1106 1268 751 
Q 1578 397 2138 397 
Q 2388 397 2633 464 
Q 2878 531 3122 666 
L 3122 134 
Q 2881 22 2623 -34 
Q 2366 -91 2075 -91 
Q 1284 -91 818 406 
Q 353 903 353 1747 
Q 353 2603 823 3093 
Q 1294 3584 2113 3584 
Q 2378 3584 2631 3529 
Q 2884 3475 3122 3366 
z
" id="DejaVuSans-63" transform="scale(0.015625)"/>
      </defs>
      <use xlink:href="#DejaVuSans-4d"/>
      <use x="86.279297" xlink:href="#DejaVuSans-65"/>
      <use x="147.802734" xlink:href="#DejaVuSans-74"/>
      <use x="187.011719" xlink:href="#DejaVuSans-72"/>
      <use x="228.125" xlink:href="#DejaVuSans-69"/>
      <use x="255.908203" xlink:href="#DejaVuSans-63"/>
      <use x="310.888672" xlink:href="#DejaVuSans-73"/>
     </g>
    </g>
   </g>
   <g id="line2d_16">
    <path clip-path="url(#pfbc5057c43)" d="M 73.832727 53.568 
L 73.962137 53.68442 
L 96.183056 53.68442 
L 96.246052 53.800839 
L 124.727054 53.800839 
L 124.831231 53.917259 
L 128.179679 53.917259 
L 128.296429 54.033679 
L 148.328401 54.033679 
L 148.562989 54.266518 
L 149.302751 54.266518 
L 149.36004 54.382937 
L 154.509001 54.382937 
L 154.666707 54.499357 
L 157.156187 54.499357 
L 157.598431 54.615777 
L 171.901471 54.615777 
L 172.176915 54.732196 
L 174.030057 54.732196 
L 174.052107 54.848616 
L 175.036672 54.848616 
L 175.126817 54.965036 
L 180.448839 54.965036 
L 180.605203 55.081455 
L 181.600182 55.081455 
L 181.699786 55.197875 
L 186.499089 55.197875 
L 186.527295 55.314295 
L 187.613335 55.314295 
L 188.109961 55.547134 
L 188.833342 55.547134 
L 188.89215 55.663553 
L 190.486706 55.663553 
L 190.816939 55.779973 
L 197.559515 55.779973 
L 197.794908 55.896393 
L 198.086642 55.896393 
L 198.124274 56.012812 
L 199.331763 56.012812 
L 199.396704 56.245652 
L 201.541851 56.245652 
L 201.563965 56.362071 
L 203.093849 56.362071 
L 203.10399 56.478491 
L 203.78692 56.59491 
L 205.109598 56.59491 
L 206.33623 56.71133 
L 207.611883 56.71133 
L 207.839649 57.060589 
L 209.653206 57.060589 
L 209.87239 57.177009 
L 210.129258 57.177009 
L 211.416627 57.642687 
L 212.458806 57.642687 
L 212.708874 57.759107 
L 213.03192 57.759107 
L 213.06906 57.875526 
L 214.368532 57.875526 
L 214.388841 57.991946 
L 214.975461 57.991946 
L 215.545108 58.108366 
L 215.679583 58.341205 
L 217.303583 58.690464 
L 217.410036 59.738241 
L 217.858106 59.738241 
L 217.942367 59.85466 
L 218.747149 59.85466 
L 218.902658 60.203919 
L 219.15889 60.203919 
L 219.628148 60.320339 
L 219.704779 60.320339 
L 219.989009 60.786017 
L 220.753939 60.786017 
L 220.859625 60.902437 
L 221.269014 60.902437 
L 221.564358 61.484535 
L 221.811645 61.717374 
L 222.060867 61.717374 
L 222.097345 61.833794 
L 222.491697 61.833794 
L 222.510468 61.950214 
L 222.629524 61.950214 
L 222.884548 62.066633 
L 223.002603 62.066633 
L 223.04103 62.183053 
L 223.553334 62.183053 
L 223.601198 62.532312 
L 224.018275 62.765151 
L 224.054698 62.765151 
L 224.253739 62.99799 
L 224.42233 63.463669 
L 224.689989 63.696508 
L 224.846591 64.162187 
L 224.947776 64.395026 
L 225.124726 64.395026 
L 225.72373 64.860705 
L 225.784998 65.093544 
L 226.140942 65.093544 
L 226.278985 65.209963 
L 227.733729 65.209963 
L 227.754197 65.326383 
L 227.888838 65.326383 
L 228.012407 65.442803 
L 228.106335 65.442803 
L 228.107555 65.559222 
L 228.527255 65.792062 
L 228.96729 66.956258 
L 229.0925 66.956258 
L 230.213629 67.887615 
L 230.260924 68.004035 
L 230.745083 68.353294 
L 230.787176 68.469713 
L 231.213476 68.469713 
L 231.230251 68.586133 
L 231.463597 68.586133 
L 232.002699 68.935392 
L 232.367606 69.750329 
L 232.429509 69.866749 
L 232.551943 70.565267 
L 232.835722 71.263784 
L 233.372272 71.263784 
L 233.859525 71.729463 
L 234.02188 71.729463 
L 234.465559 71.962302 
L 234.577457 72.195141 
L 234.660416 72.195141 
L 235.116181 72.427981 
L 235.301025 72.77724 
L 235.460157 72.77724 
L 235.830808 73.359338 
L 236.024844 73.825016 
L 236.219823 73.825016 
L 236.484861 74.523534 
L 236.667141 74.523534 
L 236.810633 74.872793 
L 237.202733 75.222052 
L 237.519044 75.454891 
L 237.536708 75.454891 
L 237.657438 75.687731 
L 237.834016 75.687731 
L 237.960609 75.92057 
L 238.12848 76.269829 
L 238.567886 76.502668 
L 238.642305 76.851927 
L 239.030007 77.084766 
L 239.103985 77.666864 
L 239.494642 77.783284 
L 239.925278 78.016123 
L 239.957974 78.132543 
L 240.115686 78.132543 
L 240.522531 78.714641 
L 240.580618 78.831061 
L 240.721996 78.94748 
L 241.461434 78.94748 
L 241.564593 79.0639 
L 241.771983 79.0639 
L 241.809011 79.296739 
L 241.93206 79.296739 
L 242.053157 79.529578 
L 242.21095 79.645998 
L 242.367981 79.645998 
L 242.625538 79.762418 
L 242.719508 80.577355 
L 243.026995 80.577355 
L 243.038616 80.693775 
L 243.348296 80.810194 
L 243.456953 80.810194 
L 243.59825 81.275873 
L 244.054477 81.275873 
L 244.21295 81.857971 
L 244.354565 81.974391 
L 244.450356 82.09081 
L 244.536804 85.001301 
L 244.671594 85.001301 
L 244.752756 85.234141 
L 244.799844 85.234141 
L 245.107863 85.932658 
L 245.110124 86.165498 
L 245.369744 86.398337 
L 245.568469 86.980435 
L 246.246136 87.795372 
L 246.429776 88.144631 
L 246.673128 88.144631 
L 246.728272 88.377471 
L 246.926499 88.61031 
L 247.602443 89.425247 
L 247.836305 89.425247 
L 248.278263 89.890926 
L 248.706485 90.356604 
L 248.986357 90.589444 
L 249.075752 90.705863 
L 249.142729 90.705863 
L 249.547699 91.055122 
L 249.690077 91.287962 
L 250.254077 92.219319 
L 250.311059 92.219319 
L 250.445535 92.452158 
L 250.574233 92.801417 
L 250.870039 92.801417 
L 251.02283 93.150676 
L 251.263058 93.732774 
L 252.42 94.431292 
L 252.42944 94.664131 
L 252.79503 94.664131 
L 252.799893 94.780551 
L 253.016325 94.780551 
L 253.210412 95.362649 
L 253.39651 95.362649 
L 253.550854 95.711908 
L 254.49179 97.108943 
L 255.043291 97.108943 
L 255.305535 97.574622 
L 255.393844 97.807461 
L 255.69827 98.27314 
L 255.803311 98.738818 
L 255.906912 98.738818 
L 256.593168 100.135854 
L 256.702553 100.135854 
L 257.253686 101.30005 
L 257.40753 101.882148 
L 257.463802 102.114987 
L 257.665484 102.347827 
L 257.788636 102.813505 
L 257.798794 103.046345 
L 258.00259 103.279184 
L 258.054474 103.395603 
L 258.278753 103.628443 
L 258.348207 103.861282 
L 258.68627 104.094121 
L 258.840708 104.326961 
L 259.053532 104.326961 
L 259.32106 104.676219 
L 259.500596 105.141898 
L 259.536509 105.141898 
L 259.583768 105.258318 
L 259.883638 105.491157 
L 261.16576 106.538934 
L 261.456543 106.771773 
L 261.652926 107.121032 
L 261.779718 107.353871 
L 261.857405 107.353871 
L 262.443598 108.168808 
L 262.488484 108.518067 
L 262.568819 108.518067 
L 262.820067 108.983746 
L 263.13212 109.216585 
L 263.297003 109.449424 
L 264.003851 110.147942 
L 264.023859 110.613621 
L 264.630186 111.195719 
L 264.761107 111.544978 
L 264.783336 111.544978 
L 264.883914 111.777817 
L 265.263104 112.359915 
L 265.416914 112.359915 
L 265.64006 112.476335 
L 265.691911 112.476335 
L 265.758804 113.524112 
L 266.19621 113.756951 
L 266.321373 114.10621 
L 266.513256 114.339049 
L 266.562909 114.455469 
L 267.054825 114.688308 
L 267.122423 115.037567 
L 267.227663 115.270406 
L 267.292005 115.503245 
L 268.006288 116.085344 
L 268.137114 116.434603 
L 268.551228 117.13312 
L 269.133203 118.064477 
L 269.219519 118.180897 
L 269.497928 118.530156 
L 269.717427 118.879415 
L 270.214636 119.927192 
L 270.377794 120.858549 
L 270.663625 121.091388 
L 270.867067 121.557066 
L 270.994547 121.906325 
L 271.046717 122.139165 
L 272.146243 122.721263 
L 272.16185 122.837682 
L 272.475476 123.070522 
L 272.587803 123.303361 
L 272.794992 123.65262 
L 272.920562 123.65262 
L 273.392006 124.700397 
L 273.88073 124.816816 
L 273.924687 124.933236 
L 274.373391 125.282495 
L 274.661343 125.515334 
L 274.898777 126.213852 
L 275.001306 126.213852 
L 275.213659 126.446691 
L 275.371954 127.145209 
L 275.45506 127.145209 
L 275.561575 127.378048 
L 275.951835 127.727307 
L 275.980509 128.309405 
L 276.155911 128.658664 
L 276.33802 129.007923 
L 276.435462 129.357182 
L 276.608021 130.288539 
L 276.860136 130.404959 
L 276.947482 130.404959 
L 276.957442 130.521378 
L 277.333892 130.870637 
L 277.649732 131.569155 
L 277.796334 131.801994 
L 278.171344 132.849771 
L 278.342687 133.431869 
L 279.235647 134.479646 
L 279.359269 134.828905 
L 279.681204 135.061744 
L 279.835635 135.527423 
L 281.055222 137.040878 
L 281.364575 137.273717 
L 281.750431 138.205074 
L 281.909731 139.020012 
L 282.012781 139.020012 
L 282.443796 139.252851 
L 282.652659 139.60211 
L 282.654602 139.834949 
L 283.006527 140.067788 
L 283.199612 140.533467 
L 283.280797 140.533467 
L 283.369976 140.649886 
L 283.550856 140.999145 
L 283.566647 141.115565 
L 284.061463 141.581244 
L 284.117697 141.697663 
L 284.416224 141.930502 
L 284.542021 142.163342 
L 284.962799 142.512601 
L 284.976009 142.62902 
L 285.292 142.978279 
L 285.391542 143.327538 
L 285.826413 143.793217 
L 286.149301 144.608154 
L 286.604131 144.840993 
L 286.910755 145.88877 
L 287.231191 146.00519 
L 287.401536 146.354449 
L 287.452524 146.703707 
L 287.582689 146.936547 
L 287.870317 147.751484 
L 287.884241 147.867904 
L 288.064937 148.100743 
L 288.58407 149.264939 
L 288.906308 149.614198 
L 289.028794 150.429136 
L 289.146081 150.429136 
L 289.655853 151.709752 
L 289.815402 151.942591 
L 289.925742 152.29185 
L 290.170883 152.524689 
L 290.391897 152.990368 
L 290.721075 153.223207 
L 290.854534 153.572466 
L 291.272604 154.270984 
L 291.726216 154.969501 
L 292.517986 155.202341 
L 292.608763 155.5516 
L 292.848412 155.900859 
L 293.152571 156.482957 
L 293.815655 157.181474 
L 293.992753 157.530733 
L 294.520932 158.69493 
L 294.551952 159.277028 
L 294.831668 159.509867 
L 294.977019 159.859126 
L 295.262202 160.790483 
L 295.384183 162.071099 
L 295.824327 163.351715 
L 295.915338 163.351715 
L 296.705432 163.933813 
L 297.035139 164.748751 
L 297.187805 164.98159 
L 297.298373 165.680108 
L 297.967889 167.892081 
L 298.196373 168.24134 
L 298.679956 169.405536 
L 299.223943 169.754795 
L 299.248251 169.987634 
L 299.609594 170.336893 
L 300.076587 171.50109 
L 300.439494 172.199607 
L 300.442624 172.432447 
L 300.589055 172.548866 
L 300.668771 173.130964 
L 300.771199 173.130964 
L 301.20325 174.178741 
L 301.241923 174.178741 
L 301.506583 174.528 
L 301.734904 174.760839 
L 301.878645 175.110098 
L 302.370686 176.856393 
L 302.694483 177.089232 
L 302.908898 178.253428 
L 303.032827 178.486268 
L 303.494943 179.184785 
L 303.728184 179.417625 
L 303.830877 180.232562 
L 303.952647 180.81466 
L 303.956618 184.19083 
L 304.163398 184.307249 
L 304.378319 185.471446 
L 304.659205 185.704285 
L 304.805936 185.820705 
L 305.007812 186.286383 
L 305.239473 186.752062 
L 305.283268 186.868481 
L 305.474354 186.984901 
L 305.507529 187.21774 
L 305.717598 187.21774 
L 305.757715 190.244651 
L 306.052528 190.36107 
L 306.148406 191.059588 
L 306.384969 191.176008 
L 306.526952 192.107365 
L 306.699222 192.340204 
L 306.853516 193.271561 
L 306.973331 193.271561 
L 307.060444 193.62082 
L 307.362669 193.853659 
L 307.367711 193.970079 
L 307.57056 194.202918 
L 307.588154 194.435757 
L 307.778303 194.668597 
L 308.001802 195.949213 
L 308.397597 196.298472 
L 308.496234 196.531311 
L 308.665751 196.76415 
L 308.772943 196.996989 
L 309.080832 197.229829 
L 309.259321 197.811927 
L 309.446674 197.811927 
L 309.471405 198.277605 
L 309.719934 198.510445 
L 309.775525 198.859704 
L 309.784593 199.092543 
L 309.994462 199.325382 
L 310.258408 200.256739 
L 310.609232 200.489578 
L 310.618655 200.605998 
L 310.74148 200.722418 
L 310.842359 201.188096 
L 311.041567 201.188096 
L 311.142936 201.304516 
L 311.343479 201.886614 
L 311.657856 202.119453 
L 311.749242 202.352293 
L 311.796711 202.934391 
L 311.928949 203.16723 
L 311.982873 203.400069 
L 312.156991 203.632909 
L 312.294208 204.098587 
L 312.840564 205.379203 
L 312.881493 205.612042 
L 313.042614 205.728462 
L 313.119597 206.31056 
L 313.288409 206.659819 
L 313.30664 206.776239 
L 313.549584 207.125498 
L 313.777486 207.940435 
L 314.010837 208.289694 
L 314.070158 208.522533 
L 314.300808 208.988212 
L 314.423787 209.57031 
L 314.425551 209.803149 
L 314.745316 210.152408 
L 315.692945 211.549444 
L 316.695941 214.692774 
L 317.013262 215.042033 
L 317.255736 215.274872 
L 318.911308 219.815238 
L 319.062062 220.164497 
L 319.765527 222.26005 
L 319.998147 222.37647 
L 320.250218 222.725729 
L 320.49418 223.424246 
L 320.843941 223.773505 
L 321.233679 224.355603 
L 321.346805 225.170541 
L 321.601695 225.40338 
L 321.883133 226.334737 
L 322.205252 227.615353 
L 322.356195 227.964612 
L 322.421886 228.081032 
L 322.760997 228.313871 
L 323.04697 228.77955 
L 323.169238 229.245228 
L 323.324909 229.594487 
L 323.366896 229.827326 
L 323.564922 230.060166 
L 324.481351 232.039299 
L 325.04846 232.854237 
L 325.433451 233.902013 
L 325.555656 234.134853 
L 326.096803 235.531888 
L 326.603057 235.881147 
L 326.613185 235.997567 
L 326.835692 236.230406 
L 326.990365 236.928924 
L 327.176694 237.278183 
L 327.368823 237.511022 
L 327.44161 238.09312 
L 327.765291 238.32596 
L 328.486592 240.072254 
L 328.936908 241.23645 
L 329.102445 241.35287 
L 329.329405 242.167808 
L 329.648431 243.099165 
L 329.729909 243.564843 
L 331.371778 244.61262 
L 331.608778 245.194718 
L 331.890704 245.543977 
L 331.918371 245.660397 
L 332.100385 245.893236 
L 332.65076 247.173852 
L 332.717779 247.63953 
L 333.019617 247.87237 
L 333.116134 248.105209 
L 333.145107 248.221628 
L 333.754981 248.570887 
L 334.229105 248.803727 
L 334.363575 249.385825 
L 334.496938 249.735084 
L 334.725227 249.967923 
L 335.380131 251.132119 
L 335.395109 251.597798 
L 335.8729 252.179896 
L 336.200129 252.296316 
L 336.251404 252.761994 
L 336.672412 253.460512 
L 336.692469 254.04261 
L 336.870006 254.275449 
L 336.944281 255.090387 
L 337.251629 256.371003 
L 337.81001 256.603842 
L 338.374338 257.069521 
L 339.083044 259.514333 
L 340.233017 260.56211 
L 340.347525 260.911369 
L 340.704534 261.144208 
L 340.777279 261.260628 
L 340.847658 261.609886 
L 341.728101 261.959145 
L 342.150729 262.541244 
L 342.197393 262.774083 
L 342.422593 263.006922 
L 342.582534 263.70544 
L 342.645043 263.821859 
L 342.778399 264.403958 
L 343.127301 264.753217 
L 343.341284 265.684574 
L 343.45429 265.917413 
L 343.819986 266.383091 
L 343.852702 266.615931 
L 344.139937 266.84877 
L 344.257996 267.081609 
L 344.305588 267.198029 
L 344.54262 267.314449 
L 344.980031 267.780127 
L 345.68428 268.362225 
L 345.896892 268.827904 
L 346.053958 269.293582 
L 346.22402 269.526422 
L 346.310799 269.9921 
L 346.494892 270.224939 
L 346.500789 270.341359 
L 347.172457 270.457779 
L 347.191237 270.574198 
L 348.116572 271.272716 
L 348.199771 271.505555 
L 348.489032 271.738395 
L 348.738746 271.971234 
L 348.943213 272.204073 
L 349.074302 273.019011 
L 349.132322 273.25185 
L 349.43734 273.484689 
L 349.512679 273.717528 
L 349.543471 273.950368 
L 350.705193 274.648885 
L 351.325417 275.813082 
L 352.513968 276.39518 
L 352.695828 276.628019 
L 353.589937 277.093698 
L 353.599357 277.326537 
L 353.794385 277.559376 
L 354.017011 277.908635 
L 354.943004 278.374314 
L 355.046544 278.723573 
L 355.717374 279.65493 
L 356.489432 279.887769 
L 356.679636 280.120608 
L 357.029332 280.819126 
L 357.965478 281.401224 
L 358.599377 281.634064 
L 358.995753 281.866903 
L 359.019731 282.099742 
L 359.021059 284.544554 
L 359.497252 284.660974 
L 360.727779 284.893813 
L 360.995046 285.126653 
L 361.061342 285.243072 
L 361.372758 285.359492 
L 361.600206 285.82517 
L 362.071554 285.82517 
L 362.296422 285.94159 
L 362.534358 286.290849 
L 363.059162 286.640108 
L 363.499971 287.222206 
L 364.462139 287.455045 
L 365.066594 287.687885 
L 366.032309 287.920724 
L 367.015631 288.386402 
L 367.243066 288.502822 
L 368.532263 288.852081 
L 368.539596 288.9685 
L 368.932429 289.20134 
L 369.004608 289.317759 
L 369.25465 289.434179 
L 370.376135 290.714795 
L 370.755719 291.064054 
L 372.775729 291.529732 
L 374.537199 291.762572 
L 374.820375 291.995411 
L 375.070407 292.22825 
L 375.611004 292.46109 
L 376.400647 292.810348 
L 377.511973 293.043188 
L 378.115632 293.392447 
L 379.387012 293.508866 
L 379.640687 293.974545 
L 380.011731 294.207384 
L 380.557159 294.323804 
L 383.192768 294.556643 
L 385.429848 294.789482 
L 385.833786 295.022321 
L 386.727447 295.138741 
L 398.487273 295.488 
L 398.487273 295.488 
" style="fill:none;stroke:#1f77b4;stroke-dasharray:5.55,2.4;stroke-dashoffset:0;stroke-width:1.5;"/>
   </g>
   <g id="line2d_17">
    <path clip-path="url(#pfbc5057c43)" d="M 73.832727 178.609833 
L 73.943905 178.611705 
L 73.949778 178.584485 
L 74.082382 178.475477 
L 76.029278 177.262848 
L 76.559514 176.98374 
L 77.438876 176.618926 
L 77.549649 176.478015 
L 77.772066 176.365046 
L 80.030413 174.934631 
L 80.067094 174.847714 
L 80.451601 174.673504 
L 81.25646 174.352809 
L 81.402261 174.206476 
L 81.618342 174.030409 
L 81.717468 173.883297 
L 81.928365 173.706291 
L 83.943132 172.482833 
L 84.564409 172.271492 
L 84.83262 172.089763 
L 85.36463 171.663641 
L 85.645431 171.480116 
L 86.011589 171.234568 
L 86.312159 171.080607 
L 87.134598 170.180061 
L 87.436114 169.992112 
L 87.587539 169.897926 
L 88.155377 169.677609 
L 88.474327 169.393208 
L 88.598763 169.234651 
L 88.80344 169.139325 
L 89.568284 168.724581 
L 89.753972 168.59642 
L 91.578501 167.724511 
L 91.665967 167.626893 
L 92.149561 167.365847 
L 92.416614 167.136558 
L 92.564576 167.070895 
L 92.689927 166.906446 
L 92.772454 166.807575 
L 93.127125 166.609375 
L 93.30313 166.377369 
L 93.717508 166.144528 
L 94.124787 165.94428 
L 95.340656 165.103205 
L 95.658034 164.933679 
L 96.246052 164.758599 
L 97.072266 164.553939 
L 97.401969 164.142693 
L 97.659017 163.901605 
L 97.933484 163.763443 
L 98.063264 163.416767 
L 98.170234 163.242744 
L 98.412697 163.068263 
L 98.633418 162.858277 
L 99.071083 162.647624 
L 99.534547 162.436302 
L 99.74103 162.224307 
L 100.285882 162.011636 
L 100.635617 161.833892 
L 101.083175 161.619973 
L 101.130672 161.548515 
L 101.51428 161.369535 
L 101.574695 161.261917 
L 101.792675 161.118159 
L 101.878804 160.974092 
L 102.277191 160.829716 
L 102.329474 160.612571 
L 102.573857 160.467419 
L 102.588314 160.394725 
L 103.305104 160.139681 
L 103.307943 160.103168 
L 103.853318 159.773659 
L 104.253194 159.626696 
L 104.33072 159.553095 
L 105.226017 159.07274 
L 105.270521 158.961407 
L 105.423987 158.81268 
L 105.825609 158.289576 
L 105.945707 158.176961 
L 106.223986 157.988859 
L 106.349574 157.800241 
L 107.071205 157.231272 
L 107.134634 157.116915 
L 107.541962 156.925897 
L 107.700449 156.542278 
L 108.371936 156.23385 
L 108.477232 156.040388 
L 108.814205 155.88523 
L 108.888841 155.807522 
L 109.27311 155.612873 
L 110.131426 155.378578 
L 111.398811 154.473133 
L 111.756151 154.274748 
L 112.48869 153.836331 
L 112.566233 153.71629 
L 112.803378 153.51577 
L 113.848519 153.072624 
L 114.857099 152.667359 
L 115.022755 152.423091 
L 115.238319 152.300644 
L 115.416781 152.137056 
L 115.887951 151.849875 
L 116.769592 151.313477 
L 116.861537 151.147626 
L 117.246804 150.814776 
L 117.350921 150.731324 
L 117.719336 150.522271 
L 117.931522 150.312615 
L 118.036417 150.18653 
L 118.380609 149.891479 
L 118.791083 149.764662 
L 118.915605 149.595229 
L 119.478567 149.382883 
L 119.899917 149.084558 
L 120.44145 148.785014 
L 120.594453 148.570303 
L 120.911596 148.268651 
L 121.324338 148.009104 
L 121.47127 147.922386 
L 121.73816 147.574489 
L 122.045182 147.399926 
L 122.516788 147.093447 
L 122.546449 146.96171 
L 122.762123 146.785697 
L 123.015253 146.388141 
L 123.525832 146.210766 
L 123.684923 146.03297 
L 124.349712 145.854749 
L 124.534513 145.631376 
L 124.575643 145.541839 
L 124.780181 145.344968 
L 125.546972 144.758545 
L 125.944253 144.531778 
L 126.03435 144.44088 
L 127.024369 143.984743 
L 127.230534 143.801517 
L 127.877607 143.387635 
L 128.283428 143.09134 
L 128.376605 142.95227 
L 129.274619 142.580175 
L 129.528928 142.393446 
L 130.276294 142.112497 
L 130.278206 142.065572 
L 130.505702 141.924624 
L 130.516079 141.877584 
L 131.750008 141.405595 
L 131.757805 141.358237 
L 132.013138 141.215987 
L 132.449193 140.930699 
L 132.718218 140.73992 
L 132.810981 140.548671 
L 134.09826 139.682169 
L 134.107049 139.633745 
L 135.022783 139.342574 
L 135.210378 139.245276 
L 136.246785 138.854866 
L 136.413566 138.560777 
L 136.62595 138.413318 
L 136.690972 138.314858 
L 136.850355 138.117568 
L 136.933688 137.969275 
L 137.144517 137.721499 
L 137.155346 137.67185 
L 137.659072 137.522717 
L 138.485897 136.722556 
L 138.491174 136.672277 
L 138.909071 136.420404 
L 138.959852 136.31943 
L 140.130359 135.965014 
L 141.004701 135.251428 
L 141.255876 135.097686 
L 141.426831 134.892237 
L 142.037448 134.479758 
L 142.273996 134.324532 
L 142.912498 134.117098 
L 142.947214 133.961172 
L 143.345553 133.804945 
L 143.543718 133.648415 
L 143.851894 133.334445 
L 144.231333 133.124455 
L 144.359376 132.966605 
L 144.591028 132.755661 
L 145.49799 132.066298 
L 145.722046 131.906385 
L 145.894675 131.746158 
L 146.514245 131.424763 
L 146.680699 131.263592 
L 147.022142 131.102104 
L 147.662811 130.832251 
L 147.929799 130.61573 
L 148.255534 130.452966 
L 148.328401 130.28988 
L 148.532173 130.285969 
L 148.740497 130.067799 
L 148.821196 130.013166 
L 149.580399 129.819474 
L 150.241363 129.214419 
L 150.508003 128.937932 
L 150.927686 128.660524 
L 151.04978 128.549303 
L 151.681539 128.326414 
L 152.768688 127.710392 
L 153.236655 127.259518 
L 153.346895 127.089816 
L 153.560866 126.863013 
L 153.687073 126.749382 
L 154.268647 126.521661 
L 154.444401 126.350467 
L 155.141552 125.62903 
L 155.243124 125.455939 
L 155.496666 125.108697 
L 156.117574 124.876414 
L 156.936795 124.5268 
L 157.008852 124.351456 
L 157.396192 124.317107 
L 157.756367 124.141248 
L 158.004021 123.906206 
L 158.519065 123.729501 
L 159.274956 123.374998 
L 159.496847 123.137849 
L 159.764913 122.959558 
L 159.773539 122.900046 
L 160.015866 122.721263 
L 160.147685 122.601868 
L 160.309293 122.482309 
L 161.323648 122.062546 
L 161.539609 121.761467 
L 161.59481 121.519851 
L 161.808401 121.216884 
L 161.950438 121.095402 
L 162.399885 120.546632 
L 162.638132 120.05593 
L 164.104602 119.004001 
L 164.458766 118.817056 
L 165.248964 118.441977 
L 165.27179 118.379309 
L 165.959452 118.128193 
L 165.974487 118.065302 
L 166.647171 117.750182 
L 167.424251 116.989308 
L 167.771283 116.798071 
L 168.475474 116.606424 
L 168.600976 116.221896 
L 168.662758 116.157647 
L 169.091629 115.964624 
L 169.294145 115.771186 
L 170.003608 115.123372 
L 171.194305 114.667118 
L 171.901471 114.077105 
L 172.057124 114.099036 
L 172.064023 114.033226 
L 172.176915 113.769506 
L 172.560826 113.505019 
L 172.570953 113.438777 
L 172.95101 113.239761 
L 173.086075 113.04031 
L 173.678768 112.840422 
L 173.768092 112.706921 
L 174.030057 112.439331 
L 174.052107 112.460872 
L 174.330179 112.32675 
L 174.59347 111.653183 
L 175.017835 111.450146 
L 175.126817 111.267913 
L 177.588663 109.830458 
L 177.870794 109.623275 
L 177.892468 109.554111 
L 178.372603 109.346311 
L 178.44358 109.276941 
L 178.697215 109.138046 
L 179.657035 108.089697 
L 180.138741 107.808144 
L 180.24657 107.667049 
L 180.916229 107.33362 
L 180.998234 106.978526 
L 181.163719 106.764826 
L 181.187076 106.693485 
L 181.699786 106.499158 
L 182.279693 106.212526 
L 182.604058 105.996982 
L 182.879675 105.780946 
L 184.166998 105.41979 
L 184.260528 105.274943 
L 184.505514 105.129874 
L 184.728806 104.034774 
L 185.29906 103.740617 
L 185.344617 103.666936 
L 185.84482 103.445555 
L 185.907769 103.371648 
L 186.247229 103.223663 
L 186.348423 103.075449 
L 186.527295 102.79733 
L 187.122745 102.648386 
L 187.613335 102.050305 
L 187.84781 101.994054 
L 188.89215 101.126033 
L 189.30505 100.974275 
L 189.335817 100.82228 
L 190.209456 100.364865 
L 190.486706 100.135352 
L 190.702606 100.076959 
L 190.908246 99.692819 
L 191.047579 99.53874 
L 191.175446 99.307166 
L 191.782047 99.152479 
L 191.789817 99.075045 
L 192.07994 98.919992 
L 192.150458 98.686953 
L 192.381906 98.453362 
L 192.430235 98.375375 
L 193.054032 98.141044 
L 193.110927 97.984513 
L 193.812184 97.513429 
L 193.988474 97.277043 
L 194.015988 97.198123 
L 194.678239 96.802576 
L 194.882196 96.56449 
L 195.35085 96.246153 
L 195.44869 95.926797 
L 197.964144 94.005314 
L 198.124274 93.776643 
L 198.42661 93.612955 
L 198.530694 93.449001 
L 199.194875 93.120293 
L 199.331763 92.790514 
L 199.396704 92.82248 
L 200.049358 92.574277 
L 201.127606 92.076044 
L 202.132015 91.339597 
L 203.773073 91.118506 
L 203.863619 90.950066 
L 204.256195 90.781349 
L 205.109598 90.52775 
L 206.231849 90.458309 
L 206.33623 90.373538 
L 207.226139 90.203786 
L 207.381838 89.94863 
L 207.650653 89.878478 
L 207.862712 89.823248 
L 208.137416 89.481135 
L 208.498611 89.309651 
L 208.640833 89.05189 
L 208.904006 88.879691 
L 208.955583 88.793484 
L 209.546186 88.447935 
L 210.129258 88.028797 
L 210.844188 87.970661 
L 211.416627 87.82515 
L 211.997558 87.650472 
L 212.458806 87.387904 
L 212.652398 87.314443 
L 212.762134 87.138819 
L 213.065672 86.976995 
L 213.06906 86.888892 
L 213.494394 86.535736 
L 213.520413 86.44726 
L 213.974028 86.270083 
L 214.541111 85.928557 
L 214.958269 85.661227 
L 214.975461 85.571965 
L 215.585636 85.523405 
L 215.679583 85.344307 
L 216.223209 85.268162 
L 216.767779 84.741711 
L 217.154026 84.664756 
L 217.331475 84.614285 
L 217.337086 84.654293 
L 217.341895 84.694404 
L 217.410036 84.603651 
L 218.791747 84.266321 
L 218.811204 84.175109 
L 218.902658 84.201551 
L 219.15889 84.018756 
L 219.445146 83.940376 
L 219.84141 83.507401 
L 219.84179 83.520401 
L 220.096085 83.441248 
L 220.139515 83.256678 
L 220.809964 82.899353 
L 220.999871 82.713747 
L 224.253739 81.342671 
L 224.621863 81.404338 
L 224.839489 81.370937 
L 224.947776 81.20463 
L 225.315505 81.121253 
L 225.746565 81.170543 
L 225.747077 81.0746 
L 225.784998 81.086913 
L 226.615413 80.521315 
L 226.789399 80.231185 
L 227.655074 79.843125 
L 227.733729 79.64857 
L 227.754197 79.660334 
L 228.106335 79.379385 
L 228.107555 79.391054 
L 228.435566 79.304904 
L 228.641557 79.155335 
L 228.96729 79.138332 
L 229.0925 79.039714 
L 229.639527 78.975748 
L 229.79396 78.789345 
L 230.765796 78.794018 
L 230.787176 78.694427 
L 231.75812 78.317924 
L 231.848675 78.128891 
L 232.752303 78.132218 
L 232.803947 78.030926 
L 232.835722 78.065156 
L 233.316536 77.862038 
L 233.520772 77.681076 
L 233.569184 77.69236 
L 234.02188 77.397183 
L 234.352769 77.305969 
L 234.434905 76.895441 
L 234.465559 76.906413 
L 234.478824 76.917396 
L 234.48111 76.814436 
L 234.482624 76.711379 
L 234.577457 76.722285 
L 234.660416 76.515793 
L 235.301025 76.466431 
L 235.562714 76.373515 
L 236.024844 76.356022 
L 236.365866 76.294966 
L 236.38046 76.305804 
L 236.716238 76.01306 
L 236.810633 75.929431 
L 237.58306 75.899087 
L 237.754109 75.475967 
L 238.12848 74.996478 
L 238.594596 74.931059 
L 238.641685 74.823988 
L 238.642305 74.834307 
L 238.874259 74.737366 
L 239.030007 74.640237 
L 239.294314 74.701912 
L 239.494642 74.594102 
L 239.957974 74.516873 
L 240.359652 74.330928 
L 240.721996 74.263006 
L 241.273806 74.045257 
L 241.945154 73.757612 
L 242.177084 73.777563 
L 242.21095 73.66791 
L 242.793047 73.195829 
L 242.83255 73.085123 
L 244.21295 72.410614 
L 244.253975 72.420083 
L 244.450356 72.3173 
L 244.536804 72.556084 
L 244.671594 72.214683 
L 244.674002 72.224202 
L 244.799844 72.005335 
L 244.864397 72.014765 
L 244.905615 71.785795 
L 244.953742 71.813822 
L 245.106187 71.832555 
L 245.107863 71.717624 
L 245.110124 71.736287 
L 245.325459 71.745632 
L 245.330051 71.515088 
L 245.414707 71.542855 
L 246.322774 71.65479 
L 246.418734 71.305596 
L 246.429776 71.31482 
L 246.669548 71.081307 
L 246.728272 70.865334 
L 247.970018 70.838175 
L 248.069761 70.738214 
L 248.204502 70.747241 
L 248.278263 70.628958 
L 248.673813 70.664932 
L 248.706485 70.546293 
L 249.075752 70.454262 
L 249.142729 70.335198 
L 249.474277 70.35295 
L 249.547699 70.242475 
L 249.567364 70.251316 
L 249.930578 69.815517 
L 249.97985 69.454062 
L 250.079859 69.479534 
L 250.254077 69.488043 
L 250.427611 69.375518 
L 250.574233 69.409439 
L 251.060367 69.32185 
L 251.187549 69.35582 
L 251.263058 69.233788 
L 251.477829 69.242242 
L 251.725165 69.005999 
L 251.887051 69.014348 
L 251.898401 68.891734 
L 251.979311 68.900031 
L 253.03904 68.580052 
L 253.040986 68.596405 
L 253.168467 68.612794 
L 253.39651 68.24088 
L 253.425398 68.248898 
L 253.630987 68.023874 
L 254.025706 68.063588 
L 254.49179 67.608787 
L 255.697485 67.42556 
L 255.69827 67.433268 
L 255.803311 67.464182 
L 256.023405 67.360019 
L 256.546298 67.429715 
L 256.702553 67.173195 
L 256.965392 67.211541 
L 257.075205 67.097986 
L 257.076185 67.10563 
L 258.840708 67.192106 
L 259.583768 66.726718 
L 260.349855 66.772541 
L 260.525913 66.506612 
L 260.882669 66.536754 
L 261.16576 66.27703 
L 261.779718 66.194753 
L 261.946116 65.93275 
L 262.41717 65.976467 
L 262.568819 65.591098 
L 263.238768 65.648249 
L 263.297003 65.511533 
L 264.374581 65.466673 
L 264.47251 65.335677 
L 264.616132 65.342745 
L 264.630186 65.204366 
L 264.694418 65.218369 
L 264.761107 65.225383 
L 264.883914 65.100495 
L 265.263104 65.135379 
L 265.758804 64.784322 
L 266.012008 64.791165 
L 266.039871 64.650254 
L 266.949113 64.704645 
L 267.227663 64.461131 
L 267.91921 64.501576 
L 269.150385 64.631656 
L 269.219519 64.486936 
L 269.603712 64.521251 
L 269.782103 64.389528 
L 269.786716 64.396346 
L 272.794992 64.519874 
L 273.000308 64.391404 
L 273.073556 64.398423 
L 273.085166 64.248387 
L 273.175734 64.262267 
L 273.888741 64.297124 
L 273.924687 64.146239 
L 274.061021 64.153144 
L 274.17462 63.864052 
L 274.373391 63.71229 
L 274.898777 63.765716 
L 275.001306 63.61299 
L 275.371954 63.666208 
L 275.561575 63.525703 
L 276.489694 63.503546 
L 276.608021 63.066046 
L 276.74969 63.072477 
L 276.957442 62.763414 
L 277.221808 62.775907 
L 277.333892 62.623784 
L 277.375227 62.629949 
L 277.483271 62.330247 
L 277.49049 62.336237 
L 278.086769 62.384447 
L 278.204255 62.092763 
L 278.458279 62.122302 
L 278.591037 61.798246 
L 278.684894 61.809685 
L 278.855387 61.652724 
L 279.541127 61.709379 
L 279.761184 61.562175 
L 280.568202 61.618751 
L 280.588814 61.453039 
L 282.272552 61.409353 
L 282.300152 61.240624 
L 282.413456 61.246156 
L 282.443796 60.907733 
L 282.961274 60.939668 
L 283.000041 60.769374 
L 283.043225 60.779841 
L 283.199612 60.795599 
L 283.475865 60.463121 
L 284.423739 60.518972 
L 284.895356 60.539507 
L 284.976009 60.370799 
L 285.331395 60.39605 
L 285.391542 60.051118 
L 286.430895 60.109525 
L 286.62712 59.764716 
L 288.238349 59.903056 
L 288.323546 59.726213 
L 288.367568 59.735723 
L 289.028794 59.808001 
L 289.187635 59.44359 
L 291.362822 59.599454 
L 291.481693 59.419001 
L 292.390474 59.44267 
L 292.608763 59.265286 
L 295.293817 59.521398 
L 295.81024 59.592941 
L 295.915338 59.187074 
L 297.540972 59.335858 
L 297.967889 59.382042 
L 298.043245 59.18169 
L 300.439494 59.36261 
L 300.442624 59.373302 
L 300.668771 59.405613 
L 300.825506 59.196754 
L 301.176368 59.233647 
L 301.312564 58.795078 
L 301.437914 58.79999 
L 301.506583 58.581937 
L 302.789248 58.717711 
L 303.032827 58.747768 
L 303.494943 58.778177 
L 303.762245 58.565802 
L 303.764757 58.570721 
L 303.952647 58.615433 
L 303.956618 58.765101 
L 305.507529 58.907039 
L 305.717598 58.658146 
L 305.720094 58.663504 
L 305.757715 58.80122 
L 306.699222 58.905077 
L 306.846431 58.95257 
L 306.853516 58.689038 
L 307.060444 58.441217 
L 308.152223 58.558442 
L 308.305365 58.292017 
L 309.120242 58.352441 
L 309.239584 57.531169 
L 309.259321 57.53581 
L 309.446674 56.976964 
L 309.471405 56.993044 
L 309.958059 57.029784 
L 310.040312 56.748885 
L 310.073987 56.756504 
L 310.842359 56.80693 
L 311.142936 56.519664 
L 314.020973 56.756886 
L 314.034893 56.441783 
L 314.070158 56.44558 
L 314.573997 56.49193 
L 314.602844 56.170542 
L 317.780557 56.40298 
L 317.801459 56.052245 
L 319.406186 56.190686 
L 321.922794 56.391758 
L 321.930292 55.992405 
L 321.989936 56.016935 
L 323.259565 56.093597 
L 323.279931 55.680011 
L 323.366896 55.691126 
L 323.819458 55.725187 
L 324.030533 55.299924 
L 330.787787 55.73873 
L 330.910555 55.199706 
L 331.092536 55.203381 
L 331.256704 54.665671 
L 331.408981 54.670672 
L 331.468786 54.121859 
L 338.438754 54.301444 
L 340.847658 54.394063 
L 343.675652 54.520899 
L 348.974814 54.796611 
L 352.967821 55.052886 
L 354.943004 55.192406 
L 355.115354 55.237217 
L 355.717374 55.321887 
L 357.029332 55.45891 
L 359.019731 55.636687 
L 359.021059 56.089213 
L 361.372758 56.28751 
L 361.600206 56.415487 
L 362.071554 53.568 
L 398.487273 53.568 
L 398.487273 53.568 
" style="fill:none;stroke:#ff7f0e;stroke-dasharray:9.6,2.4,1.5,2.4;stroke-dashoffset:0;stroke-width:1.5;"/>
   </g>
   <g id="line2d_18">
    <path clip-path="url(#pfbc5057c43)" d="M 73.832727 137.863443 
L 73.943905 137.889876 
L 73.949778 137.865144 
L 74.082382 137.766139 
L 76.210829 136.568315 
L 76.395646 136.467675 
L 77.29789 136.215518 
L 77.573498 135.93722 
L 78.019549 135.708797 
L 78.144604 135.632511 
L 78.439536 135.428725 
L 79.516442 134.916982 
L 81.974492 133.466547 
L 82.162253 133.2834 
L 82.631044 133.099838 
L 82.735895 132.994759 
L 83.666697 132.546653 
L 83.776611 132.467319 
L 84.755653 132.122645 
L 84.896729 132.016298 
L 85.721076 131.482481 
L 85.931683 131.348482 
L 86.437849 131.079827 
L 86.801198 130.51278 
L 87.266691 130.350048 
L 87.455239 130.214193 
L 87.587539 130.159788 
L 88.216992 129.941811 
L 88.309987 129.832607 
L 88.955164 129.449256 
L 89.352321 129.28442 
L 89.586485 129.119256 
L 91.665967 128.204959 
L 92.149561 127.981797 
L 92.647272 127.702006 
L 92.710458 127.533683 
L 93.292136 127.167822 
L 93.365014 127.083166 
L 94.007489 126.828688 
L 94.306423 126.658608 
L 94.581914 126.488186 
L 94.954508 126.174849 
L 95.634718 125.946238 
L 95.737313 125.888989 
L 97.090059 125.597777 
L 97.192521 125.482713 
L 97.363042 125.309825 
L 98.078995 124.64382 
L 98.831185 124.060436 
L 99.459246 123.884644 
L 101.298961 123.059493 
L 101.308266 123.029877 
L 101.710813 122.851965 
L 101.826934 122.673686 
L 101.878804 122.643937 
L 102.283776 122.495038 
L 102.475006 122.286149 
L 103.804334 121.686536 
L 103.853318 121.656446 
L 104.25398 121.505842 
L 105.368801 120.9615 
L 105.479223 120.80969 
L 105.869985 120.383212 
L 106.329464 120.107948 
L 106.408556 120.016001 
L 107.285261 119.462288 
L 107.553609 119.307859 
L 107.700449 119.029202 
L 108.374629 118.749664 
L 108.477232 118.62514 
L 108.8146 118.469239 
L 109.789501 118.15661 
L 110.256512 117.999882 
L 110.347186 117.905712 
L 111.055344 117.59109 
L 111.207242 117.464929 
L 113.299746 116.449165 
L 113.983181 116.225421 
L 114.001979 116.193412 
L 114.82855 116.001117 
L 115.022755 115.744082 
L 115.264064 115.615288 
L 115.416781 115.518572 
L 115.973891 115.260153 
L 115.983064 115.195432 
L 116.567157 115.000991 
L 116.777307 114.838636 
L 116.861537 114.741083 
L 117.578487 114.317134 
L 117.719336 114.251734 
L 117.931522 114.088029 
L 118.036417 113.989664 
L 119.247113 113.397227 
L 119.669423 113.231975 
L 120.023302 113.099557 
L 120.44145 112.90057 
L 120.594453 112.734415 
L 121.071171 112.434573 
L 121.558935 112.100261 
L 121.615646 111.999729 
L 122.42739 111.663826 
L 122.737037 111.427961 
L 122.787404 111.326691 
L 122.943666 111.191491 
L 123.237432 111.022212 
L 123.553981 110.852621 
L 123.684923 110.784698 
L 124.428605 110.61467 
L 124.575643 110.410224 
L 125.165129 110.123575 
L 125.310677 110.020816 
L 125.546972 109.849297 
L 125.944253 109.67746 
L 126.03435 109.608637 
L 127.050317 109.229194 
L 127.06482 109.194623 
L 127.324472 109.021573 
L 127.403288 108.917588 
L 128.296429 108.55579 
L 128.901553 108.381467 
L 129.309037 108.206819 
L 129.364308 108.136868 
L 130.490407 107.78633 
L 130.516079 107.716065 
L 131.962125 107.293369 
L 132.063977 107.187398 
L 133.536303 106.370972 
L 133.96684 106.192551 
L 135.385973 105.727077 
L 136.217605 105.511471 
L 136.690972 105.078786 
L 136.850355 104.934119 
L 136.933688 104.825475 
L 138.223008 104.098006 
L 138.622088 103.842079 
L 139.546138 103.47528 
L 140.373644 103.217685 
L 140.569454 103.070177 
L 140.945903 102.885475 
L 142.090073 102.254826 
L 142.927862 101.993945 
L 142.947214 101.919279 
L 143.50013 101.769772 
L 143.772194 101.507581 
L 145.058488 100.792329 
L 145.15288 100.641077 
L 145.682396 100.48959 
L 145.894675 100.337868 
L 146.647458 100.033715 
L 146.680699 99.995629 
L 147.241001 99.843137 
L 147.533045 99.766802 
L 148.255534 99.422556 
L 148.328401 99.307538 
L 148.562989 99.343321 
L 150.181242 98.744965 
L 150.28098 98.628983 
L 150.642227 98.435376 
L 150.852391 98.31903 
L 151.508416 98.085924 
L 152.6295 97.73523 
L 152.690542 97.657129 
L 152.952939 97.422455 
L 153.236655 97.304909 
L 153.442519 97.10869 
L 153.687073 96.951434 
L 154.422395 96.754514 
L 154.509001 96.636175 
L 154.555629 96.692743 
L 155.789788 95.820671 
L 156.770645 95.541588 
L 156.782155 95.501655 
L 158.692912 94.917302 
L 158.822963 94.836883 
L 159.318737 94.635551 
L 159.496847 94.554906 
L 159.764913 94.433816 
L 159.773539 94.39342 
L 160.147685 94.191198 
L 160.309293 94.110195 
L 161.500615 93.744875 
L 161.673819 93.419033 
L 162.234259 92.887289 
L 162.443276 92.723112 
L 162.476513 92.558669 
L 162.891227 92.352741 
L 162.961625 92.228983 
L 163.215161 92.146394 
L 163.547059 91.981014 
L 164.956599 91.524832 
L 165.27179 91.35844 
L 165.974487 91.150068 
L 166.702424 90.89946 
L 167.011933 90.648237 
L 167.128518 90.480412 
L 168.475474 90.186056 
L 168.600976 89.933078 
L 168.662758 89.890854 
L 169.238517 89.721786 
L 169.457026 89.51006 
L 173.013385 87.986944 
L 173.086075 87.900831 
L 173.768092 87.685237 
L 174.030057 87.512439 
L 174.052107 87.569791 
L 174.349328 87.440013 
L 174.460945 87.266723 
L 174.59347 87.049705 
L 175.017835 86.919277 
L 175.126817 86.846114 
L 179.317736 85.089259 
L 179.380943 85.00064 
L 179.829958 84.778765 
L 179.947769 84.689884 
L 180.916229 84.391223 
L 180.998234 84.167953 
L 183.835908 83.282752 
L 184.389134 83.102206 
L 184.505514 83.057022 
L 184.728806 82.376942 
L 185.776542 82.058081 
L 186.499089 81.600906 
L 186.527295 81.658736 
L 187.122745 81.567072 
L 187.613335 81.199626 
L 187.84781 81.21149 
L 188.472813 80.946743 
L 189.30505 80.681084 
L 189.335817 80.588445 
L 190.459232 80.217088 
L 190.486706 80.170578 
L 190.7358 80.135524 
L 191.08452 79.809127 
L 191.175446 79.715689 
L 192.03473 79.528569 
L 192.430235 79.153356 
L 193.062788 78.965261 
L 193.337692 78.823974 
L 193.812184 78.635305 
L 195.368283 77.829786 
L 195.44869 77.687014 
L 199.396704 76.047006 
L 200.395222 75.804562 
L 201.918353 75.327696 
L 202.132015 75.230099 
L 203.972557 75.053701 
L 205.109598 74.857743 
L 206.33623 74.818141 
L 207.256131 74.67082 
L 207.381838 74.572496 
L 207.650653 74.581848 
L 207.839649 74.699019 
L 207.862712 74.649809 
L 208.137416 74.452748 
L 208.54418 74.304721 
L 208.955583 74.05757 
L 209.964601 73.719645 
L 210.129258 73.669973 
L 210.844188 73.737702 
L 211.29251 73.69701 
L 211.416627 73.755791 
L 212.108596 73.606465 
L 212.135718 73.556645 
L 213.06906 73.324964 
L 214.975461 72.631577 
L 216.208488 72.716451 
L 216.295721 72.615642 
L 216.567436 72.464258 
L 216.65555 72.363221 
L 217.004428 72.481378 
L 217.303583 72.380257 
L 217.341895 72.913327 
L 217.410036 72.86275 
L 218.860673 72.787729 
L 218.902658 72.847187 
L 219.15889 72.745749 
L 219.445146 72.754486 
L 219.757743 72.559909 
L 220.096085 72.687772 
L 220.139515 72.585937 
L 221.269014 72.237323 
L 221.44829 72.536024 
L 221.642727 72.493572 
L 221.799677 72.502255 
L 221.811645 72.451062 
L 222.491697 72.408493 
L 222.510468 72.468409 
L 222.629524 72.417149 
L 222.798625 72.477095 
L 222.802357 72.425813 
L 223.04103 72.383159 
L 223.568715 72.340445 
L 223.56897 72.46055 
L 223.601198 72.409158 
L 224.018275 72.477967 
L 224.054698 72.426532 
L 224.280923 72.607082 
L 224.777975 73.089773 
L 224.846591 73.047342 
L 224.895431 73.107836 
L 224.897621 73.168358 
L 224.947776 73.11688 
L 225.124726 73.065378 
L 226.099087 73.274514 
L 226.140942 73.22293 
L 226.167532 73.283661 
L 227.270836 72.870137 
L 228.106335 72.62865 
L 228.107555 72.689498 
L 228.435566 72.698414 
L 228.524037 72.594423 
L 228.559951 72.716272 
L 228.783913 73.20481 
L 229.0925 73.161964 
L 229.639527 73.293685 
L 229.66923 73.241609 
L 229.755153 73.302928 
L 229.79396 73.25083 
L 230.745083 73.690333 
L 230.765796 73.751916 
L 230.787176 73.699789 
L 232.002699 73.633195 
L 232.338253 74.066012 
L 232.367606 74.013738 
L 232.429509 74.075688 
L 232.531396 74.448003 
L 232.551943 74.39572 
L 232.835722 74.716813 
L 233.696061 74.642108 
L 233.856995 74.704545 
L 233.859525 74.652113 
L 234.02188 74.599655 
L 234.342948 74.662126 
L 234.355036 74.557141 
L 234.482624 74.419305 
L 234.654902 74.429234 
L 234.660416 74.376561 
L 235.160271 74.564486 
L 235.301025 74.637233 
L 235.562714 74.647287 
L 235.830808 74.845927 
L 236.024844 75.097782 
L 236.219823 75.045042 
L 236.466576 75.370993 
L 236.484861 75.318217 
L 236.716238 75.328647 
L 237.010397 75.465703 
L 237.580814 75.72995 
L 237.58306 75.79346 
L 237.657438 75.634828 
L 238.046686 75.507656 
L 238.12848 75.634996 
L 238.582218 75.773176 
L 238.642305 75.847748 
L 238.874259 75.858519 
L 239.030007 75.8693 
L 239.103985 76.189322 
L 239.294314 76.253419 
L 239.494642 76.200281 
L 240.522531 76.554699 
L 240.530791 76.619088 
L 240.580618 76.565871 
L 240.721996 76.630294 
L 241.771983 76.481645 
L 241.774133 76.546141 
L 241.809011 76.610669 
L 241.93206 76.557334 
L 241.945154 76.621895 
L 242.21095 76.69776 
L 242.367981 76.644381 
L 242.531758 76.709043 
L 242.625538 76.602213 
L 242.719508 77.055768 
L 242.83255 76.895385 
L 243.026995 76.841872 
L 243.038616 76.906803 
L 243.180169 76.971766 
L 243.181309 76.918232 
L 243.489354 76.876089 
L 243.59825 77.071291 
L 244.110385 76.975548 
L 244.253975 77.301726 
L 244.450356 77.313397 
L 244.536804 78.957273 
L 244.905615 78.780127 
L 244.925634 78.846425 
L 245.022064 79.045518 
L 246.322774 80.15213 
L 246.395655 80.044511 
L 246.418734 79.990662 
L 246.429776 80.057743 
L 246.728272 79.976378 
L 247.024329 80.178065 
L 247.315689 80.380055 
L 248.461878 80.825998 
L 248.47417 80.893711 
L 249.075752 81.056901 
L 249.142729 81.002859 
L 249.803889 81.384765 
L 249.821537 81.452944 
L 249.913528 81.398824 
L 249.97985 81.182072 
L 250.015826 81.250303 
L 250.254077 81.455205 
L 250.311059 81.400962 
L 250.494331 81.606186 
L 250.574233 81.743175 
L 250.888642 81.757474 
L 250.891688 81.826059 
L 251.070681 82.032024 
L 251.477829 82.252886 
L 251.725165 82.213186 
L 251.979311 82.296724 
L 252.330234 82.311367 
L 252.42944 82.518543 
L 253.016325 82.478935 
L 253.168467 82.82515 
L 253.210412 82.770758 
L 253.39651 82.661892 
L 253.525589 82.746181 
L 253.543784 82.691686 
L 253.550854 82.761125 
L 254.2239 83.263433 
L 254.286522 83.154373 
L 254.309861 83.224145 
L 254.457011 83.433676 
L 254.49179 83.37912 
L 255.247713 83.409813 
L 255.393844 83.690028 
L 255.69827 83.970821 
L 255.803311 84.252194 
L 255.958771 84.268047 
L 256.226137 84.762135 
L 256.543546 84.974435 
L 256.546298 85.045275 
L 256.593168 84.990712 
L 256.757161 85.007006 
L 256.965392 85.290915 
L 257.020018 85.236317 
L 257.463802 86.091644 
L 257.665484 86.180152 
L 257.788636 86.466767 
L 257.798794 86.610299 
L 258.232483 86.897813 
L 258.348207 87.113843 
L 258.725168 87.330212 
L 258.840708 87.40241 
L 259.183849 87.420134 
L 259.32106 87.510198 
L 259.500596 87.745321 
L 259.536509 87.690751 
L 259.583768 87.763271 
L 260.012656 87.981063 
L 260.117456 88.126448 
L 260.415655 88.144631 
L 260.525913 88.090037 
L 260.810356 88.308545 
L 260.882669 88.381458 
L 261.16576 88.345181 
L 261.552483 88.564295 
L 261.755651 88.856987 
L 261.779718 88.802364 
L 261.946116 88.766316 
L 263.028622 89.632391 
L 264.003851 90.244091 
L 264.023859 90.541305 
L 264.883914 91.068425 
L 265.263104 91.442938 
L 265.691911 91.353729 
L 265.758804 92.0309 
L 266.312175 92.278187 
L 266.321373 92.353798 
L 267.056507 92.753605 
L 267.091218 92.905453 
L 267.122423 92.850714 
L 267.227663 93.002737 
L 267.292005 93.154925 
L 268.092525 93.612477 
L 268.294883 94.14817 
L 268.849081 94.378376 
L 269.082823 94.685902 
L 269.150385 94.916986 
L 269.219519 94.862377 
L 269.497928 95.093856 
L 269.603712 95.248386 
L 269.683257 95.193778 
L 269.717427 95.271113 
L 270.214636 95.969023 
L 270.375369 96.592277 
L 270.377794 96.537753 
L 270.663625 96.694007 
L 270.878238 97.085391 
L 271.046717 97.399272 
L 272.146243 97.792596 
L 272.16185 97.871391 
L 272.577067 98.108035 
L 272.672948 98.345071 
L 272.794992 98.42417 
L 272.962732 98.448925 
L 273.073556 98.686637 
L 273.085166 98.632239 
L 273.392006 99.029336 
L 274.127494 99.239045 
L 274.169797 99.318787 
L 274.17462 99.264369 
L 274.373391 99.209921 
L 274.661343 99.369564 
L 274.898777 99.849561 
L 275.001306 99.795139 
L 275.213659 99.955509 
L 275.371954 100.437688 
L 275.45506 100.383294 
L 275.457558 100.463821 
L 275.951835 100.78638 
L 275.980509 101.190593 
L 276.155911 101.433664 
L 276.197629 101.677143 
L 276.33802 101.622837 
L 276.435462 101.866747 
L 276.566929 102.41065 
L 276.608021 102.356336 
L 276.860136 102.383784 
L 276.947482 102.329417 
L 276.957442 102.411263 
L 277.436034 102.712451 
L 277.49049 102.904616 
L 277.796334 103.151612 
L 278.258303 104.035168 
L 278.342687 104.201222 
L 278.458279 104.28432 
L 278.48241 104.229983 
L 278.654209 104.258776 
L 278.684894 104.341985 
L 278.757164 104.287602 
L 279.235647 104.787897 
L 279.359269 105.038687 
L 279.711271 105.319435 
L 279.961456 105.655289 
L 280.226324 105.823504 
L 280.440999 106.160511 
L 280.808291 106.275071 
L 281.364575 106.697946 
L 281.750431 107.377075 
L 281.909731 107.973881 
L 282.012781 107.919793 
L 282.43836 107.982537 
L 282.443796 107.928374 
L 282.652659 108.185291 
L 282.654602 108.356817 
L 283.043225 108.560356 
L 283.178542 108.732397 
L 283.302835 108.850521 
L 283.369976 108.796374 
L 283.550856 109.055165 
L 283.566647 109.141529 
L 284.061463 109.487487 
L 284.117697 109.574102 
L 284.416224 109.747483 
L 284.542021 109.921066 
L 285.10499 110.301901 
L 285.331395 110.650728 
L 285.377369 110.596727 
L 285.391542 110.630048 
L 285.826413 110.979973 
L 286.149301 111.594316 
L 286.62712 111.750515 
L 286.840645 112.191754 
L 286.910755 112.45712 
L 287.231191 112.54568 
L 287.401536 112.811671 
L 287.452524 113.078134 
L 287.636891 113.345068 
L 287.884241 113.969756 
L 288.064937 114.148713 
L 288.238349 114.327883 
L 288.269088 114.274203 
L 288.323546 114.363878 
L 288.419768 114.72311 
L 288.574149 114.903045 
L 288.58407 114.993093 
L 288.910292 115.35382 
L 288.997454 115.715406 
L 289.028794 115.896521 
L 289.091956 115.843005 
L 289.146081 115.789457 
L 289.187635 115.880118 
L 289.444513 116.51626 
L 289.480841 116.698503 
L 289.815402 116.972277 
L 289.925742 117.246543 
L 290.170883 117.429661 
L 290.391897 117.796555 
L 290.721075 117.980332 
L 290.854534 118.256412 
L 291.362822 118.902538 
L 291.428935 118.849346 
L 291.439742 118.941884 
L 291.726216 119.312593 
L 292.517986 119.445143 
L 292.608763 119.724134 
L 292.848412 120.003632 
L 293.152571 120.470589 
L 293.815655 121.032807 
L 293.992753 121.314685 
L 294.520932 122.257995 
L 294.551952 122.731808 
L 294.831668 122.921738 
L 294.977019 123.207068 
L 295.262202 123.97051 
L 295.384183 125.026372 
L 295.81024 126.089393 
L 295.824327 126.037122 
L 295.915338 125.984819 
L 296.705432 126.470536 
L 297.035139 127.153066 
L 297.187805 127.348619 
L 297.298373 127.936732 
L 297.967889 129.813628 
L 298.40172 130.558921 
L 298.575826 130.758813 
L 298.679956 131.059121 
L 299.223943 131.359994 
L 299.248251 131.560892 
L 299.609594 131.862711 
L 300.076587 132.872901 
L 300.439494 133.482079 
L 300.442624 133.685651 
L 300.589055 133.787534 
L 300.668771 134.297918 
L 300.771199 134.246807 
L 300.808842 134.349093 
L 300.985806 134.861502 
L 301.11318 135.066921 
L 301.176368 135.169729 
L 301.241923 135.067704 
L 301.506583 135.325606 
L 301.734904 135.53191 
L 301.904743 135.945308 
L 302.091467 136.983432 
L 302.302352 137.191854 
L 302.530687 137.504989 
L 302.694483 137.609501 
L 302.908898 138.658321 
L 303.032827 138.868895 
L 303.494943 139.502246 
L 303.728184 139.663589 
L 303.830877 140.40669 
L 303.952647 140.93954 
L 303.956618 144.064443 
L 304.163398 144.173257 
L 304.378319 145.265317 
L 304.659205 145.48459 
L 304.805936 145.594335 
L 305.007812 146.034036 
L 305.239473 146.474896 
L 305.283268 146.585292 
L 305.474354 146.695762 
L 305.507529 146.916919 
L 305.717598 146.867848 
L 305.720094 146.978556 
L 305.757715 149.770225 
L 306.052528 149.882859 
L 306.148406 150.560239 
L 306.384969 150.673399 
L 306.526952 151.58141 
L 306.699222 151.809172 
L 306.846431 152.723283 
L 306.853516 152.675288 
L 306.973331 152.62726 
L 307.060444 152.971454 
L 307.362669 153.201302 
L 307.367711 153.316343 
L 307.57056 153.546656 
L 307.588154 153.77728 
L 307.778303 154.008215 
L 308.001802 155.283949 
L 308.416941 155.702771 
L 308.772943 156.2875 
L 309.080832 156.521948 
L 309.259321 156.967807 
L 309.446674 156.873207 
L 309.449713 156.991071 
L 309.471405 157.345146 
L 309.719934 157.5816 
L 309.775525 157.936887 
L 309.784593 158.174151 
L 310.040312 158.48365 
L 310.258408 159.318529 
L 310.609232 159.557805 
L 310.618655 159.677566 
L 310.74148 159.79741 
L 310.842359 160.277611 
L 311.041567 160.230946 
L 311.142936 160.351229 
L 311.343479 160.953889 
L 311.657856 161.195537 
L 311.749242 161.437519 
L 311.796711 162.043941 
L 311.928949 162.287099 
L 311.982873 162.530595 
L 312.156991 162.774429 
L 312.294208 163.263115 
L 312.840564 164.614039 
L 312.881493 164.860777 
L 313.042614 164.984276 
L 313.119597 165.603065 
L 313.288409 165.97538 
L 313.30664 166.099659 
L 313.549584 166.47302 
L 313.777486 167.34726 
L 314.010837 167.723254 
L 314.070158 167.929355 
L 314.300808 168.432742 
L 314.423787 169.063978 
L 314.425551 169.317098 
L 314.831473 169.779813 
L 314.848009 169.906896 
L 315.519619 170.671294 
L 315.579886 171.054718 
L 315.88916 171.567224 
L 316.346357 173.761776 
L 316.462741 174.15183 
L 316.844512 174.934464 
L 317.255736 175.327049 
L 317.780557 177.302766 
L 317.801459 177.259919 
L 318.044599 177.525035 
L 318.190869 178.722832 
L 319.104976 181.006861 
L 319.214482 181.548415 
L 319.34766 181.819788 
L 319.765527 183.319483 
L 319.998147 183.456421 
L 320.250218 183.867842 
L 320.49418 184.693422 
L 320.677871 184.831374 
L 321.233679 185.799906 
L 321.346805 186.773477 
L 321.601695 187.052571 
L 321.883133 188.173111 
L 322.205252 189.685147 
L 322.356195 190.110676 
L 322.421886 190.252732 
L 322.745443 190.394895 
L 322.902956 190.964614 
L 323.05839 191.250117 
L 323.366896 192.357476 
L 323.564922 192.645217 
L 324.481351 195.070464 
L 325.04846 196.094404 
L 325.433451 197.41896 
L 325.555656 197.714546 
L 326.096803 199.497615 
L 326.603057 199.945958 
L 326.613185 200.095636 
L 326.835692 200.395338 
L 326.990365 201.297226 
L 327.176694 201.74974 
L 327.368823 202.052 
L 327.44161 202.809704 
L 327.765291 203.113609 
L 328.484632 205.254237 
L 328.597756 205.715992 
L 328.740696 206.487994 
L 328.920789 206.797642 
L 328.936908 206.952649 
L 329.102445 207.107777 
L 329.329405 208.197089 
L 329.648431 209.449388 
L 329.729909 210.078507 
L 330.787787 210.867709 
L 330.910555 210.834136 
L 331.256704 211.275858 
L 331.589952 211.878103 
L 331.608778 212.196724 
L 331.890704 212.675607 
L 331.918371 212.835489 
L 332.098076 212.995498 
L 332.198873 213.636814 
L 332.436985 213.958241 
L 332.554523 214.280183 
L 332.649505 214.764062 
L 332.717779 215.573116 
L 333.019617 215.897647 
L 333.116134 216.2227 
L 333.145107 216.385423 
L 333.754981 216.874377 
L 334.197464 217.037624 
L 334.496938 218.512787 
L 334.706958 218.677357 
L 334.725227 218.84206 
L 335.380131 220.496449 
L 335.395109 221.161973 
L 335.723673 221.829667 
L 335.8729 221.996931 
L 336.200129 222.164331 
L 336.251404 222.8353 
L 336.672412 223.845874 
L 336.692469 224.691821 
L 336.870006 225.031172 
L 336.944281 226.223304 
L 337.251629 228.110606 
L 337.81001 228.455599 
L 338.126472 228.801164 
L 338.17466 228.974161 
L 338.374338 229.147302 
L 339.083044 232.816729 
L 340.233017 234.409155 
L 340.347525 234.942642 
L 340.698258 235.120771 
L 340.777279 235.477477 
L 340.847658 236.013665 
L 341.703865 236.371878 
L 341.861696 236.910332 
L 342.149856 237.270061 
L 342.197393 237.810795 
L 342.422593 238.172049 
L 342.582534 239.259493 
L 342.645043 239.441273 
L 342.778399 240.352494 
L 342.976619 240.71807 
L 343.141637 241.084271 
L 343.201615 241.267605 
L 343.256443 242.18663 
L 343.840666 243.665274 
L 343.852702 243.850819 
L 344.091183 244.036523 
L 344.305588 244.780937 
L 344.54262 244.967442 
L 344.980031 245.715067 
L 345.520847 246.465276 
L 345.762152 246.841354 
L 345.896892 247.406691 
L 346.053958 248.162762 
L 346.22402 248.541782 
L 346.310799 249.3018 
L 346.494892 249.682801 
L 346.500789 249.873551 
L 347.172457 250.064466 
L 347.191237 250.255548 
L 347.368272 250.446796 
L 347.369457 250.638212 
L 347.68945 250.829794 
L 347.889074 251.213461 
L 348.116572 251.405545 
L 348.199771 251.790219 
L 348.489032 252.175565 
L 348.738746 252.561587 
L 348.943213 252.948286 
L 349.074302 254.307089 
L 349.132322 254.696856 
L 349.399639 254.891997 
L 349.543471 255.870285 
L 349.759859 256.066461 
L 349.773233 256.262811 
L 350.264299 256.459334 
L 350.393166 256.852901 
L 350.705193 257.049946 
L 351.325417 259.030027 
L 352.513968 260.026683 
L 352.695828 260.42659 
L 352.967821 260.62681 
L 353.490458 260.82721 
L 353.725574 261.831896 
L 354.017011 262.638886 
L 354.320132 262.841085 
L 354.419069 263.043466 
L 354.943004 263.448773 
L 355.046544 264.0581 
L 355.55621 265.486272 
L 355.717374 265.691033 
L 356.277051 265.895978 
L 356.677738 266.306425 
L 356.742126 266.717614 
L 357.366233 268.162649 
L 357.593692 268.577203 
L 358.599377 269.200447 
L 358.995753 269.616888 
L 359.019731 270.034088 
L 359.021059 274.461008 
L 359.497252 274.673947 
L 360.527509 274.887082 
L 360.995046 275.527666 
L 361.061342 275.741588 
L 361.372758 275.955707 
L 361.600206 276.814162 
L 362.071554 276.805474 
L 362.296422 277.02068 
L 362.534358 277.667492 
L 363.059162 278.316104 
L 363.499971 279.401145 
L 364.177042 279.618758 
L 365.066594 280.272816 
L 365.861489 280.491242 
L 366.032309 280.709871 
L 366.87751 281.366983 
L 367.243066 281.806082 
L 368.532263 282.466271 
L 368.539596 282.686746 
L 368.932429 283.128316 
L 369.004608 283.349411 
L 369.25465 283.570714 
L 369.63042 284.458006 
L 369.680512 284.902903 
L 369.993034 285.125666 
L 370.078455 285.571822 
L 370.755719 286.690897 
L 372.775729 287.589969 
L 374.281574 287.815268 
L 374.757896 288.266508 
L 374.957452 288.718604 
L 375.070407 288.944974 
L 375.57555 289.171558 
L 375.611004 289.398358 
L 376.400647 290.080051 
L 377.412 290.307714 
L 377.511973 290.535594 
L 378.115632 291.220538 
L 379.387012 291.449288 
L 379.640687 292.366474 
L 380.011731 292.826383 
L 380.557159 293.056668 
L 382.65399 293.287173 
L 383.192768 293.517899 
L 384.717787 293.748846 
L 385.429848 293.980014 
L 385.833786 294.443016 
L 386.727447 294.674851 
L 392.23136 294.906908 
L 398.487273 295.371692 
L 398.487273 295.371692 
" style="fill:none;stroke:#2ca02c;stroke-dasharray:1.5,2.475;stroke-dashoffset:0;stroke-width:1.5;"/>
   </g>
   <g id="line2d_19">
    <defs>
     <path d="M 0 1.5 
C 0.397805 1.5 0.77937 1.341951 1.06066 1.06066 
C 1.341951 0.77937 1.5 0.397805 1.5 0 
C 1.5 -0.397805 1.341951 -0.77937 1.06066 -1.06066 
C 0.77937 -1.341951 0.397805 -1.5 0 -1.5 
C -0.397805 -1.5 -0.77937 -1.341951 -1.06066 -1.06066 
C -1.341951 -0.77937 -1.5 -0.397805 -1.5 0 
C -1.5 0.397805 -1.341951 0.77937 -1.06066 1.06066 
C -0.77937 1.341951 -0.397805 1.5 0 1.5 
z
" id="m36d81ab534" style="stroke:#008000;"/>
    </defs>
    <g clip-path="url(#pfbc5057c43)">
     <use style="fill:#008000;stroke:#008000;" x="221.269014" xlink:href="#m36d81ab534" y="72.237323"/>
    </g>
   </g>
   <g id="patch_3">
    <path d="M 57.6 307.584 
L 57.6 41.472 
" style="fill:none;stroke:#000000;stroke-linecap:square;stroke-linejoin:miter;stroke-width:0.8;"/>
   </g>
   <g id="patch_4">
    <path d="M 414.72 307.584 
L 414.72 41.472 
" style="fill:none;stroke:#000000;stroke-linecap:square;stroke-linejoin:miter;stroke-width:0.8;"/>
   </g>
   <g id="patch_5">
    <path d="M 57.6 307.584 
L 414.72 307.584 
" style="fill:none;stroke:#000000;stroke-linecap:square;stroke-linejoin:miter;stroke-width:0.8;"/>
   </g>
   <g id="patch_6">
    <path d="M 57.6 41.472 
L 414.72 41.472 
" style="fill:none;stroke:#000000;stroke-linecap:square;stroke-linejoin:miter;stroke-width:0.8;"/>
   </g>
   <g id="text_18">
    <!-- (1.63 0.92) -->
    <g style="fill:#008000;" transform="translate(168.808449 72.237323)scale(0.1 -0.1)">
     <defs>
      <path d="M 1984 4856 
Q 1566 4138 1362 3434 
Q 1159 2731 1159 2009 
Q 1159 1288 1364 580 
Q 1569 -128 1984 -844 
L 1484 -844 
Q 1016 -109 783 600 
Q 550 1309 550 2009 
Q 550 2706 781 3412 
Q 1013 4119 1484 4856 
L 1984 4856 
z
" id="DejaVuSans-28" transform="scale(0.015625)"/>
      <path d="M 2597 2516 
Q 3050 2419 3304 2112 
Q 3559 1806 3559 1356 
Q 3559 666 3084 287 
Q 2609 -91 1734 -91 
Q 1441 -91 1130 -33 
Q 819 25 488 141 
L 488 750 
Q 750 597 1062 519 
Q 1375 441 1716 441 
Q 2309 441 2620 675 
Q 2931 909 2931 1356 
Q 2931 1769 2642 2001 
Q 2353 2234 1838 2234 
L 1294 2234 
L 1294 2753 
L 1863 2753 
Q 2328 2753 2575 2939 
Q 2822 3125 2822 3475 
Q 2822 3834 2567 4026 
Q 2313 4219 1838 4219 
Q 1578 4219 1281 4162 
Q 984 4106 628 3988 
L 628 4550 
Q 988 4650 1302 4700 
Q 1616 4750 1894 4750 
Q 2613 4750 3031 4423 
Q 3450 4097 3450 3541 
Q 3450 3153 3228 2886 
Q 3006 2619 2597 2516 
z
" id="DejaVuSans-33" transform="scale(0.015625)"/>
      <path id="DejaVuSans-20" transform="scale(0.015625)"/>
      <path d="M 703 97 
L 703 672 
Q 941 559 1184 500 
Q 1428 441 1663 441 
Q 2288 441 2617 861 
Q 2947 1281 2994 2138 
Q 2813 1869 2534 1725 
Q 2256 1581 1919 1581 
Q 1219 1581 811 2004 
Q 403 2428 403 3163 
Q 403 3881 828 4315 
Q 1253 4750 1959 4750 
Q 2769 4750 3195 4129 
Q 3622 3509 3622 2328 
Q 3622 1225 3098 567 
Q 2575 -91 1691 -91 
Q 1453 -91 1209 -44 
Q 966 3 703 97 
z
M 1959 2075 
Q 2384 2075 2632 2365 
Q 2881 2656 2881 3163 
Q 2881 3666 2632 3958 
Q 2384 4250 1959 4250 
Q 1534 4250 1286 3958 
Q 1038 3666 1038 3163 
Q 1038 2656 1286 2365 
Q 1534 2075 1959 2075 
z
" id="DejaVuSans-39" transform="scale(0.015625)"/>
      <path d="M 513 4856 
L 1013 4856 
Q 1481 4119 1714 3412 
Q 1947 2706 1947 2009 
Q 1947 1309 1714 600 
Q 1481 -109 1013 -844 
L 513 -844 
Q 928 -128 1133 580 
Q 1338 1288 1338 2009 
Q 1338 2731 1133 3434 
Q 928 4138 513 4856 
z
" id="DejaVuSans-29" transform="scale(0.015625)"/>
     </defs>
     <use xlink:href="#DejaVuSans-28"/>
     <use x="39.013672" xlink:href="#DejaVuSans-31"/>
     <use x="102.636719" xlink:href="#DejaVuSans-2e"/>
     <use x="134.423828" xlink:href="#DejaVuSans-36"/>
     <use x="198.046875" xlink:href="#DejaVuSans-33"/>
     <use x="261.669922" xlink:href="#DejaVuSans-20"/>
     <use x="293.457031" xlink:href="#DejaVuSans-30"/>
     <use x="357.080078" xlink:href="#DejaVuSans-2e"/>
     <use x="388.867188" xlink:href="#DejaVuSans-39"/>
     <use x="452.490234" xlink:href="#DejaVuSans-32"/>
     <use x="516.113281" xlink:href="#DejaVuSans-29"/>
    </g>
   </g>
   <g id="legend_1">
    <g id="patch_7">
     <path d="M 64.6 302.584 
L 141.214063 302.584 
Q 143.214063 302.584 143.214063 300.584 
L 143.214063 257.549625 
Q 143.214063 255.549625 141.214063 255.549625 
L 64.6 255.549625 
Q 62.6 255.549625 62.6 257.549625 
L 62.6 300.584 
Q 62.6 302.584 64.6 302.584 
z
" style="fill:#ffffff;opacity:0.8;stroke:#cccccc;stroke-linejoin:miter;"/>
    </g>
    <g id="line2d_20">
     <path d="M 66.6 263.648062 
L 86.6 263.648062 
" style="fill:none;stroke:#1f77b4;stroke-dasharray:5.55,2.4;stroke-dashoffset:0;stroke-width:1.5;"/>
    </g>
    <g id="line2d_21"/>
    <g id="text_19">
     <!-- Precision -->
     <g transform="translate(94.6 267.148062)scale(0.1 -0.1)">
      <defs>
       <path d="M 1259 4147 
L 1259 2394 
L 2053 2394 
Q 2494 2394 2734 2622 
Q 2975 2850 2975 3272 
Q 2975 3691 2734 3919 
Q 2494 4147 2053 4147 
L 1259 4147 
z
M 628 4666 
L 2053 4666 
Q 2838 4666 3239 4311 
Q 3641 3956 3641 3272 
Q 3641 2581 3239 2228 
Q 2838 1875 2053 1875 
L 1259 1875 
L 1259 0 
L 628 0 
L 628 4666 
z
" id="DejaVuSans-50" transform="scale(0.015625)"/>
       <path d="M 3513 2113 
L 3513 0 
L 2938 0 
L 2938 2094 
Q 2938 2591 2744 2837 
Q 2550 3084 2163 3084 
Q 1697 3084 1428 2787 
Q 1159 2491 1159 1978 
L 1159 0 
L 581 0 
L 581 3500 
L 1159 3500 
L 1159 2956 
Q 1366 3272 1645 3428 
Q 1925 3584 2291 3584 
Q 2894 3584 3203 3211 
Q 3513 2838 3513 2113 
z
" id="DejaVuSans-6e" transform="scale(0.015625)"/>
      </defs>
      <use xlink:href="#DejaVuSans-50"/>
      <use x="58.552734" xlink:href="#DejaVuSans-72"/>
      <use x="97.416016" xlink:href="#DejaVuSans-65"/>
      <use x="158.939453" xlink:href="#DejaVuSans-63"/>
      <use x="213.919922" xlink:href="#DejaVuSans-69"/>
      <use x="241.703125" xlink:href="#DejaVuSans-73"/>
      <use x="293.802734" xlink:href="#DejaVuSans-69"/>
      <use x="321.585938" xlink:href="#DejaVuSans-6f"/>
      <use x="382.767578" xlink:href="#DejaVuSans-6e"/>
     </g>
    </g>
    <g id="line2d_22">
     <path d="M 66.6 278.326188 
L 86.6 278.326188 
" style="fill:none;stroke:#ff7f0e;stroke-dasharray:9.6,2.4,1.5,2.4;stroke-dashoffset:0;stroke-width:1.5;"/>
    </g>
    <g id="line2d_23"/>
    <g id="text_20">
     <!-- Recall -->
     <g transform="translate(94.6 281.826188)scale(0.1 -0.1)">
      <defs>
       <path d="M 2841 2188 
Q 3044 2119 3236 1894 
Q 3428 1669 3622 1275 
L 4263 0 
L 3584 0 
L 2988 1197 
Q 2756 1666 2539 1819 
Q 2322 1972 1947 1972 
L 1259 1972 
L 1259 0 
L 628 0 
L 628 4666 
L 2053 4666 
Q 2853 4666 3247 4331 
Q 3641 3997 3641 3322 
Q 3641 2881 3436 2590 
Q 3231 2300 2841 2188 
z
M 1259 4147 
L 1259 2491 
L 2053 2491 
Q 2509 2491 2742 2702 
Q 2975 2913 2975 3322 
Q 2975 3731 2742 3939 
Q 2509 4147 2053 4147 
L 1259 4147 
z
" id="DejaVuSans-52" transform="scale(0.015625)"/>
       <path d="M 2194 1759 
Q 1497 1759 1228 1600 
Q 959 1441 959 1056 
Q 959 750 1161 570 
Q 1363 391 1709 391 
Q 2188 391 2477 730 
Q 2766 1069 2766 1631 
L 2766 1759 
L 2194 1759 
z
M 3341 1997 
L 3341 0 
L 2766 0 
L 2766 531 
Q 2569 213 2275 61 
Q 1981 -91 1556 -91 
Q 1019 -91 701 211 
Q 384 513 384 1019 
Q 384 1609 779 1909 
Q 1175 2209 1959 2209 
L 2766 2209 
L 2766 2266 
Q 2766 2663 2505 2880 
Q 2244 3097 1772 3097 
Q 1472 3097 1187 3025 
Q 903 2953 641 2809 
L 641 3341 
Q 956 3463 1253 3523 
Q 1550 3584 1831 3584 
Q 2591 3584 2966 3190 
Q 3341 2797 3341 1997 
z
" id="DejaVuSans-61" transform="scale(0.015625)"/>
      </defs>
      <use xlink:href="#DejaVuSans-52"/>
      <use x="64.982422" xlink:href="#DejaVuSans-65"/>
      <use x="126.505859" xlink:href="#DejaVuSans-63"/>
      <use x="181.486328" xlink:href="#DejaVuSans-61"/>
      <use x="242.765625" xlink:href="#DejaVuSans-6c"/>
      <use x="270.548828" xlink:href="#DejaVuSans-6c"/>
     </g>
    </g>
    <g id="line2d_24">
     <path d="M 66.6 293.004312 
L 86.6 293.004312 
" style="fill:none;stroke:#2ca02c;stroke-dasharray:1.5,2.475;stroke-dashoffset:0;stroke-width:1.5;"/>
    </g>
    <g id="line2d_25"/>
    <g id="text_21">
     <!-- F1 score -->
     <g transform="translate(94.6 296.504312)scale(0.1 -0.1)">
      <defs>
       <path d="M 628 4666 
L 3309 4666 
L 3309 4134 
L 1259 4134 
L 1259 2759 
L 3109 2759 
L 3109 2228 
L 1259 2228 
L 1259 0 
L 628 0 
L 628 4666 
z
" id="DejaVuSans-46" transform="scale(0.015625)"/>
      </defs>
      <use xlink:href="#DejaVuSans-46"/>
      <use x="57.519531" xlink:href="#DejaVuSans-31"/>
      <use x="121.142578" xlink:href="#DejaVuSans-20"/>
      <use x="152.929688" xlink:href="#DejaVuSans-73"/>
      <use x="205.029297" xlink:href="#DejaVuSans-63"/>
      <use x="260.009766" xlink:href="#DejaVuSans-6f"/>
      <use x="321.191406" xlink:href="#DejaVuSans-72"/>
      <use x="360.054688" xlink:href="#DejaVuSans-65"/>
     </g>
    </g>
   </g>
  </g>
 </g>
 <defs>
  <clipPath id="pfbc5057c43">
   <rect height="266.112" width="357.12" x="57.6" y="41.472"/>
  </clipPath>
 </defs>
</svg>
