<?xml version="1.0" encoding="utf-8" standalone="no"?>
<!DOCTYPE svg PUBLIC "-//W3C//DTD SVG 1.1//EN"
  "http://www.w3.org/Graphics/SVG/1.1/DTD/svg11.dtd">
<svg height="345.6pt" version="1.1" viewBox="0 0 460.8 345.6" width="460.8pt" xmlns="http://www.w3.org/2000/svg" xmlns:xlink="http://www.w3.org/1999/xlink">
 <metadata>
  <rdf:RDF xmlns:cc="http://creativecommons.org/ns#" xmlns:dc="http://purl.org/dc/elements/1.1/" xmlns:rdf="http://www.w3.org/1999/02/22-rdf-syntax-ns#">
   <cc:Work>
    <dc:type rdf:resource="http://purl.org/dc/dcmitype/StillImage"/>
    <dc:date>2021-06-29T10:53:58.061466</dc:date>
    <dc:format>image/svg+xml</dc:format>
    <dc:creator>
     <cc:Agent>
      <dc:title>Matplotlib v3.4.2, https://matplotlib.org/</dc:title>
     </cc:Agent>
    </dc:creator>
   </cc:Work>
  </rdf:RDF>
 </metadata>
 <defs>
  <style type="text/css">*{stroke-linecap:butt;stroke-linejoin:round;}</style>
 </defs>
 <g id="figure_1">
  <g id="patch_1">
   <path d="M 0 345.6 
L 460.8 345.6 
L 460.8 0 
L 0 0 
z
" style="fill:#ffffff;"/>
  </g>
  <g id="axes_1">
   <g id="patch_2">
    <path d="M 57.6 307.584 
L 414.72 307.584 
L 414.72 41.472 
L 57.6 41.472 
z
" style="fill:#ffffff;"/>
   </g>
   <g id="patch_3">
    <path clip-path="url(#p91ba339f28)" d="M 92.382689 185.911351 
Q 97.00806 199.792992 101.280005 212.613931 
" style="fill:none;stroke:#000000;stroke-linecap:round;"/>
    <path clip-path="url(#p91ba339f28)" d="M 102.102884 206.858684 
L 101.280005 212.613931 
L 97.169535 208.502479 
L 102.102884 206.858684 
z
" style="stroke:#000000;stroke-linecap:round;"/>
   </g>
   <g id="patch_4">
    <path clip-path="url(#p91ba339f28)" d="M 165.224074 266.764669 
Q 221.85743 271.851429 277.377236 276.838172 
" style="fill:none;stroke:#000000;stroke-linecap:round;"/>
    <path clip-path="url(#p91ba339f28)" d="M 272.430679 273.78341 
L 277.377236 276.838172 
L 271.965492 278.96256 
L 272.430679 273.78341 
z
" style="stroke:#000000;stroke-linecap:round;"/>
   </g>
   <g id="patch_5">
    <path clip-path="url(#p91ba339f28)" d="M 232.241198 283.41781 
Q 255.366101 281.340749 277.377452 279.363705 
" style="fill:none;stroke:#000000;stroke-linecap:round;"/>
    <path clip-path="url(#p91ba339f28)" d="M 271.965708 277.239317 
L 277.377452 279.363705 
L 272.430896 282.418468 
L 271.965708 277.239317 
z
" style="stroke:#000000;stroke-linecap:round;"/>
   </g>
   <g id="patch_6">
    <path clip-path="url(#p91ba339f28)" d="M 282.224724 270.40944 
Q 198.972103 200.895114 116.577683 132.097369 
" style="fill:none;stroke:#000000;stroke-linecap:round;"/>
    <path clip-path="url(#p91ba339f28)" d="M 118.902779 137.425964 
L 116.577683 132.097369 
L 122.235616 133.434449 
L 118.902779 137.425964 
z
" style="stroke:#000000;stroke-linecap:round;"/>
   </g>
   <g id="patch_7">
    <path clip-path="url(#p91ba339f28)" d="M 374.517187 140.325987 
Q 337.965188 109.805773 302.271391 80.002141 
" style="fill:none;stroke:#000000;stroke-linecap:round;"/>
    <path clip-path="url(#p91ba339f28)" d="M 304.596487 85.330737 
L 302.271391 80.002141 
L 307.929325 81.339222 
L 304.596487 85.330737 
z
" style="stroke:#000000;stroke-linecap:round;"/>
   </g>
   <g id="patch_8">
    <path clip-path="url(#p91ba339f28)" d="M 357.364682 110.858169 
Q 366.785898 124.136759 375.56016 136.503509 
" style="fill:none;stroke:#000000;stroke-linecap:round;"/>
    <path clip-path="url(#p91ba339f28)" d="M 374.671656 130.758027 
L 375.56016 136.503509 
L 370.430673 133.767023 
L 374.671656 130.758027 
z
" style="stroke:#000000;stroke-linecap:round;"/>
   </g>
   <g id="patch_9">
    <path clip-path="url(#p91ba339f28)" d="M 339.733076 95.615259 
Q 321.372688 86.24049 304.008044 77.374145 
" style="fill:none;stroke:#000000;stroke-linecap:round;"/>
    <path clip-path="url(#p91ba339f28)" d="M 307.456922 82.054448 
L 304.008044 77.374145 
L 309.821613 77.423224 
L 307.456922 82.054448 
z
" style="stroke:#000000;stroke-linecap:round;"/>
   </g>
   <g id="patch_10">
    <path clip-path="url(#p91ba339f28)" d="M 338.471104 102.146475 
Q 228.58222 112.016607 119.806887 121.786722 
" style="fill:none;stroke:#000000;stroke-linecap:round;"/>
    <path clip-path="url(#p91ba339f28)" d="M 125.218631 123.91111 
L 119.806887 121.786722 
L 124.753444 118.731959 
L 125.218631 123.91111 
z
" style="stroke:#000000;stroke-linecap:round;"/>
   </g>
   <g id="patch_11">
    <path clip-path="url(#p91ba339f28)" d="M 279.884239 74.195865 
Q 199.072271 96.867011 119.336778 119.236162 
" style="fill:none;stroke:#000000;stroke-linecap:round;"/>
    <path clip-path="url(#p91ba339f28)" d="M 125.045782 120.334924 
L 119.336778 119.236162 
L 123.64119 115.328216 
L 125.045782 120.334924 
z
" style="stroke:#000000;stroke-linecap:round;"/>
   </g>
   <g id="patch_12">
    <path clip-path="url(#p91ba339f28)" d="M 279.480869 69.88121 
Q 256.355964 67.804155 234.34461 65.827117 
" style="fill:none;stroke:#000000;stroke-linecap:round;"/>
    <path clip-path="url(#p91ba339f28)" d="M 239.291168 68.881879 
L 234.34461 65.827117 
L 239.756354 63.702728 
L 239.291168 68.881879 
z
" style="stroke:#000000;stroke-linecap:round;"/>
   </g>
   <g id="patch_13">
    <path clip-path="url(#p91ba339f28)" d="M 300.64934 78.64776 
Q 337.201339 109.167974 372.895137 138.971606 
" style="fill:none;stroke:#000000;stroke-linecap:round;"/>
    <path clip-path="url(#p91ba339f28)" d="M 370.570041 133.64301 
L 372.895137 138.971606 
L 367.237203 137.634525 
L 370.570041 133.64301 
z
" style="stroke:#000000;stroke-linecap:round;"/>
   </g>
   <g id="patch_14">
    <path clip-path="url(#p91ba339f28)" d="M 164.825422 80.123308 
Q 186.298353 74.09925 206.69481 68.377189 
" style="fill:none;stroke:#000000;stroke-linecap:round;"/>
    <path clip-path="url(#p91ba339f28)" d="M 200.985806 67.278426 
L 206.69481 68.377189 
L 202.390398 72.285134 
L 200.985806 67.278426 
z
" style="stroke:#000000;stroke-linecap:round;"/>
   </g>
   <g id="patch_15">
    <path clip-path="url(#p91ba339f28)" d="M 165.224086 82.291317 
Q 221.857417 77.204554 277.377197 72.217809 
" style="fill:none;stroke:#000000;stroke-linecap:round;"/>
    <path clip-path="url(#p91ba339f28)" d="M 271.965453 70.093421 
L 277.377197 72.217809 
L 272.43064 75.272572 
L 271.965453 70.093421 
z
" style="stroke:#000000;stroke-linecap:round;"/>
   </g>
   <g id="patch_16">
    <path clip-path="url(#p91ba339f28)" d="M 164.822169 86.60577 
Q 268.018208 115.556609 370.137773 144.205452 
" style="fill:none;stroke:#000000;stroke-linecap:round;"/>
    <path clip-path="url(#p91ba339f28)" d="M 365.833362 140.297506 
L 370.137773 144.205452 
L 364.428769 145.304213 
L 365.833362 140.297506 
z
" style="stroke:#000000;stroke-linecap:round;"/>
   </g>
   <g id="patch_17">
    <path clip-path="url(#p91ba339f28)" d="M 116.431317 128.507805 
Q 227.637294 185.289291 337.847527 241.562354 
" style="fill:none;stroke:#000000;stroke-linecap:round;"/>
    <path clip-path="url(#p91ba339f28)" d="M 334.398648 236.882051 
L 337.847527 241.562354 
L 332.033957 241.513275 
L 334.398648 236.882051 
z
" style="stroke:#000000;stroke-linecap:round;"/>
   </g>
   <g id="patch_18">
    <path clip-path="url(#p91ba339f28)" d="M 117.292567 126.290343 
Q 244.252545 161.907944 370.136048 197.223549 
" style="fill:none;stroke:#000000;stroke-linecap:round;"/>
    <path clip-path="url(#p91ba339f28)" d="M 365.831636 193.315603 
L 370.136048 197.223549 
L 364.427045 198.322311 
L 365.831636 193.315603 
z
" style="stroke:#000000;stroke-linecap:round;"/>
   </g>
   <g id="matplotlib.axis_1">
    <g id="xtick_1"/>
    <g id="xtick_2"/>
    <g id="xtick_3"/>
    <g id="xtick_4"/>
    <g id="xtick_5"/>
   </g>
   <g id="matplotlib.axis_2">
    <g id="ytick_1"/>
    <g id="ytick_2"/>
    <g id="ytick_3"/>
    <g id="ytick_4"/>
    <g id="ytick_5"/>
   </g>
   <g id="PathCollection_1">
    <path clip-path="url(#p91ba339f28)" d="M 88.589752 185.708346 
C 91.554813 185.708346 94.398832 184.530315 96.495446 182.433701 
C 98.592061 180.337086 99.770092 177.493067 99.770092 174.528006 
C 99.770092 171.562946 98.592061 168.718927 96.495446 166.622312 
C 94.398832 164.525698 91.554813 163.347666 88.589752 163.347666 
C 85.624691 163.347666 82.780673 164.525698 80.684058 166.622312 
C 78.587443 168.718927 77.409412 171.562946 77.409412 174.528006 
C 77.409412 177.493067 78.587443 180.337086 80.684058 182.433701 
C 82.780673 184.530315 85.624691 185.708346 88.589752 185.708346 
z
" style="fill:#c0c0c0;stroke:#000000;"/>
    <path clip-path="url(#p91ba339f28)" d="M 105.742245 237.186324 
C 108.707305 237.186324 111.551324 236.008293 113.647939 233.911678 
C 115.744553 231.815064 116.922585 228.971045 116.922585 226.005984 
C 116.922585 223.040923 115.744553 220.196905 113.647939 218.10029 
C 111.551324 216.003676 108.707305 214.825644 105.742245 214.825644 
C 102.777184 214.825644 99.933165 216.003676 97.836551 218.10029 
C 95.739936 220.196905 94.561905 223.040923 94.561905 226.005984 
C 94.561905 228.971045 95.739936 231.815064 97.836551 233.911678 
C 99.933165 236.008293 102.777184 237.186324 105.742245 237.186324 
z
" style="fill:#c0c0c0;stroke:#000000;"/>
    <path clip-path="url(#p91ba339f28)" d="M 153.27032 276.871332 
C 156.23538 276.871332 159.079399 275.693301 161.176014 273.596687 
C 163.272628 271.500072 164.450659 268.656053 164.450659 265.690993 
C 164.450659 262.725932 163.272628 259.881913 161.176014 257.785298 
C 159.079399 255.688684 156.23538 254.510653 153.27032 254.510653 
C 150.305259 254.510653 147.46124 255.688684 145.364625 257.785298 
C 143.268011 259.881913 142.08998 262.725932 142.08998 265.690993 
C 142.08998 268.656053 143.268011 271.500072 145.364625 273.596687 
C 147.46124 275.693301 150.305259 276.871332 153.27032 276.871332 
z
" style="fill:#c0c0c0;stroke:#000000;"/>
    <path clip-path="url(#p91ba339f28)" d="M 220.285789 295.671976 
C 223.25085 295.671976 226.094869 294.493945 228.191483 292.397331 
C 230.288098 290.300716 231.466129 287.456697 231.466129 284.491636 
C 231.466129 281.526576 230.288098 278.682557 228.191483 276.585942 
C 226.094869 274.489328 223.25085 273.311296 220.285789 273.311296 
C 217.320728 273.311296 214.47671 274.489328 212.380095 276.585942 
C 210.283481 278.682557 209.105449 281.526576 209.105449 284.491636 
C 209.105449 287.456697 210.283481 290.300716 212.380095 292.397331 
C 214.47671 294.493945 217.320728 295.671976 220.285789 295.671976 
z
" style="fill:#c0c0c0;stroke:#000000;"/>
    <path clip-path="url(#p91ba339f28)" d="M 291.436325 289.281287 
C 294.401385 289.281287 297.245404 288.103256 299.342019 286.006642 
C 301.438633 283.910027 302.616664 281.066008 302.616664 278.100948 
C 302.616664 275.135887 301.438633 272.291868 299.342019 270.195253 
C 297.245404 268.098639 294.401385 266.920608 291.436325 266.920608 
C 288.471264 266.920608 285.627245 268.098639 283.53063 270.195253 
C 281.434016 272.291868 280.255985 275.135887 280.255985 278.100948 
C 280.255985 281.066008 281.434016 283.910027 283.53063 286.006642 
C 285.627245 288.103256 288.471264 289.281287 291.436325 289.281287 
z
" style="fill:#c0c0c0;stroke:#000000;"/>
    <path clip-path="url(#p91ba339f28)" d="M 350.422131 259.163254 
C 353.387192 259.163254 356.23121 257.985223 358.327825 255.888609 
C 360.42444 253.791994 361.602471 250.947975 361.602471 247.982914 
C 361.602471 245.017854 360.42444 242.173835 358.327825 240.07722 
C 356.23121 237.980606 353.387192 236.802575 350.422131 236.802575 
C 347.45707 236.802575 344.613051 237.980606 342.516437 240.07722 
C 340.419822 242.173835 339.241791 245.017854 339.241791 247.982914 
C 339.241791 250.947975 340.419822 253.791994 342.516437 255.888609 
C 344.613051 257.985223 347.45707 259.163254 350.422131 259.163254 
z
" style="fill:#c0c0c0;stroke:#000000;"/>
    <path clip-path="url(#p91ba339f28)" d="M 383.730248 212.217632 
C 386.695309 212.217632 389.539327 211.039601 391.635942 208.942986 
C 393.732557 206.846372 394.910588 204.002353 394.910588 201.037292 
C 394.910588 198.072232 393.732557 195.228213 391.635942 193.131598 
C 389.539327 191.034984 386.695309 189.856952 383.730248 189.856952 
C 380.765187 189.856952 377.921168 191.034984 375.824554 193.131598 
C 373.727939 195.228213 372.549908 198.072232 372.549908 201.037292 
C 372.549908 204.002353 373.727939 206.846372 375.824554 208.942986 
C 377.921168 211.039601 380.765187 212.217632 383.730248 212.217632 
z
" style="fill:#c0c0c0;stroke:#000000;"/>
    <path clip-path="url(#p91ba339f28)" d="M 383.730248 159.199054 
C 386.695309 159.199054 389.539327 158.021023 391.635942 155.924408 
C 393.732557 153.827794 394.910588 150.983775 394.910588 148.018714 
C 394.910588 145.053653 393.732557 142.209635 391.635942 140.11302 
C 389.539327 138.016406 386.695309 136.838374 383.730248 136.838374 
C 380.765187 136.838374 377.921168 138.016406 375.824554 140.11302 
C 373.727939 142.209635 372.549908 145.053653 372.549908 148.018714 
C 372.549908 150.983775 373.727939 153.827794 375.824554 155.924408 
C 377.921168 158.021023 380.765187 159.199054 383.730248 159.199054 
z
" style="fill:#c0c0c0;stroke:#000000;"/>
    <path clip-path="url(#p91ba339f28)" d="M 350.422095 112.253386 
C 353.387156 112.253386 356.231175 111.075355 358.327789 108.97874 
C 360.424404 106.882125 361.602435 104.038107 361.602435 101.073046 
C 361.602435 98.107985 360.424404 95.263966 358.327789 93.167352 
C 356.231175 91.070737 353.387156 89.892706 350.422095 89.892706 
C 347.457034 89.892706 344.613016 91.070737 342.516401 93.167352 
C 340.419786 95.263966 339.241755 98.107985 339.241755 101.073046 
C 339.241755 104.038107 340.419786 106.882125 342.516401 108.97874 
C 344.613016 111.075355 347.457034 112.253386 350.422095 112.253386 
z
" style="fill:#c0c0c0;stroke:#000000;"/>
    <path clip-path="url(#p91ba339f28)" d="M 291.43628 82.135373 
C 294.401341 82.135373 297.245359 80.957341 299.341974 78.860727 
C 301.438589 76.764112 302.61662 73.920093 302.61662 70.955033 
C 302.61662 67.989972 301.438589 65.145953 299.341974 63.049339 
C 297.245359 60.952724 294.401341 59.774693 291.43628 59.774693 
C 288.471219 59.774693 285.6272 60.952724 283.530586 63.049339 
C 281.433971 65.145953 280.25594 67.989972 280.25594 70.955033 
C 280.25594 73.920093 281.433971 76.764112 283.530586 78.860727 
C 285.6272 80.957341 288.471219 82.135373 291.43628 82.135373 
z
" style="fill:#c0c0c0;stroke:#000000;"/>
    <path clip-path="url(#p91ba339f28)" d="M 220.285737 75.744704 
C 223.250798 75.744704 226.094816 74.566672 228.191431 72.470058 
C 230.288046 70.373443 231.466077 67.529424 231.466077 64.564364 
C 231.466077 61.599303 230.288046 58.755284 228.191431 56.658669 
C 226.094816 54.562055 223.250798 53.384024 220.285737 53.384024 
C 217.320676 53.384024 214.476657 54.562055 212.380043 56.658669 
C 210.283428 58.755284 209.105397 61.599303 209.105397 64.564364 
C 209.105397 67.529424 210.283428 70.373443 212.380043 72.470058 
C 214.476657 74.566672 217.320676 75.744704 220.285737 75.744704 
z
" style="fill:#c0c0c0;stroke:#000000;"/>
    <path clip-path="url(#p91ba339f28)" d="M 153.270337 94.545334 
C 156.235398 94.545334 159.079417 93.367303 161.176032 91.270688 
C 163.272646 89.174074 164.450677 86.330055 164.450677 83.364994 
C 164.450677 80.399933 163.272646 77.555915 161.176032 75.4593 
C 159.079417 73.362686 156.235398 72.184654 153.270337 72.184654 
C 150.305277 72.184654 147.461258 73.362686 145.364643 75.4593 
C 143.268029 77.555915 142.089998 80.399933 142.089998 83.364994 
C 142.089998 86.330055 143.268029 89.174074 145.364643 91.270688 
C 147.461258 93.367303 150.305277 94.545334 153.270337 94.545334 
z
" style="fill:#c0c0c0;stroke:#000000;"/>
    <path clip-path="url(#p91ba339f28)" d="M 105.742254 138.861384 
C 109.935483 138.861384 113.957533 137.195397 116.922594 134.230336 
C 119.887654 131.265275 121.553642 127.243225 121.553642 123.049996 
C 121.553642 118.856767 119.887654 114.834717 116.922594 111.869656 
C 113.957533 108.904595 109.935483 107.238608 105.742254 107.238608 
C 101.549024 107.238608 97.526975 108.904595 94.561914 111.869656 
C 91.596853 114.834717 89.930865 118.856767 89.930865 123.049996 
C 89.930865 127.243225 91.596853 131.265275 94.561914 134.230336 
C 97.526975 137.195397 101.549024 138.861384 105.742254 138.861384 
z
" style="fill:#c0c0c0;stroke:#000000;"/>
   </g>
   <g id="patch_19">
    <path d="M 57.6 307.584 
L 57.6 41.472 
" style="fill:none;stroke:#000000;stroke-linecap:square;stroke-linejoin:miter;stroke-width:0.8;"/>
   </g>
   <g id="patch_20">
    <path d="M 414.72 307.584 
L 414.72 41.472 
" style="fill:none;stroke:#000000;stroke-linecap:square;stroke-linejoin:miter;stroke-width:0.8;"/>
   </g>
   <g id="patch_21">
    <path d="M 57.6 307.584 
L 414.72 307.584 
" style="fill:none;stroke:#000000;stroke-linecap:square;stroke-linejoin:miter;stroke-width:0.8;"/>
   </g>
   <g id="patch_22">
    <path d="M 57.6 41.472 
L 414.72 41.472 
" style="fill:none;stroke:#000000;stroke-linecap:square;stroke-linejoin:miter;stroke-width:0.8;"/>
   </g>
   <g id="text_1">
    <g clip-path="url(#p91ba339f28)">
     <!-- -5 -->
     <g transform="translate(82.607565 177.839256)scale(0.12 -0.12)">
      <defs>
       <path d="M 313 2009 
L 1997 2009 
L 1997 1497 
L 313 1497 
L 313 2009 
z
" id="DejaVuSans-2d" transform="scale(0.015625)"/>
       <path d="M 691 4666 
L 3169 4666 
L 3169 4134 
L 1269 4134 
L 1269 2991 
Q 1406 3038 1543 3061 
Q 1681 3084 1819 3084 
Q 2600 3084 3056 2656 
Q 3513 2228 3513 1497 
Q 3513 744 3044 326 
Q 2575 -91 1722 -91 
Q 1428 -91 1123 -41 
Q 819 9 494 109 
L 494 744 
Q 775 591 1075 516 
Q 1375 441 1709 441 
Q 2250 441 2565 725 
Q 2881 1009 2881 1497 
Q 2881 1984 2565 2268 
Q 2250 2553 1709 2553 
Q 1456 2553 1204 2497 
Q 953 2441 691 2322 
L 691 4666 
z
" id="DejaVuSans-35" transform="scale(0.015625)"/>
      </defs>
      <use xlink:href="#DejaVuSans-2d"/>
      <use x="36.083984" xlink:href="#DejaVuSans-35"/>
     </g>
    </g>
   </g>
   <g id="text_2">
    <g clip-path="url(#p91ba339f28)">
     <!-- -4 -->
     <g transform="translate(99.760057 229.317234)scale(0.12 -0.12)">
      <defs>
       <path d="M 2419 4116 
L 825 1625 
L 2419 1625 
L 2419 4116 
z
M 2253 4666 
L 3047 4666 
L 3047 1625 
L 3713 1625 
L 3713 1100 
L 3047 1100 
L 3047 0 
L 2419 0 
L 2419 1100 
L 313 1100 
L 313 1709 
L 2253 4666 
z
" id="DejaVuSans-34" transform="scale(0.015625)"/>
      </defs>
      <use xlink:href="#DejaVuSans-2d"/>
      <use x="36.083984" xlink:href="#DejaVuSans-34"/>
     </g>
    </g>
   </g>
   <g id="text_3">
    <g clip-path="url(#p91ba339f28)">
     <!-- -3 -->
     <g transform="translate(147.288132 269.002243)scale(0.12 -0.12)">
      <defs>
       <path d="M 2597 2516 
Q 3050 2419 3304 2112 
Q 3559 1806 3559 1356 
Q 3559 666 3084 287 
Q 2609 -91 1734 -91 
Q 1441 -91 1130 -33 
Q 819 25 488 141 
L 488 750 
Q 750 597 1062 519 
Q 1375 441 1716 441 
Q 2309 441 2620 675 
Q 2931 909 2931 1356 
Q 2931 1769 2642 2001 
Q 2353 2234 1838 2234 
L 1294 2234 
L 1294 2753 
L 1863 2753 
Q 2328 2753 2575 2939 
Q 2822 3125 2822 3475 
Q 2822 3834 2567 4026 
Q 2313 4219 1838 4219 
Q 1578 4219 1281 4162 
Q 984 4106 628 3988 
L 628 4550 
Q 988 4650 1302 4700 
Q 1616 4750 1894 4750 
Q 2613 4750 3031 4423 
Q 3450 4097 3450 3541 
Q 3450 3153 3228 2886 
Q 3006 2619 2597 2516 
z
" id="DejaVuSans-33" transform="scale(0.015625)"/>
      </defs>
      <use xlink:href="#DejaVuSans-2d"/>
      <use x="36.083984" xlink:href="#DejaVuSans-33"/>
     </g>
    </g>
   </g>
   <g id="text_4">
    <g clip-path="url(#p91ba339f28)">
     <!-- -2 -->
     <g transform="translate(214.303602 287.802886)scale(0.12 -0.12)">
      <defs>
       <path d="M 1228 531 
L 3431 531 
L 3431 0 
L 469 0 
L 469 531 
Q 828 903 1448 1529 
Q 2069 2156 2228 2338 
Q 2531 2678 2651 2914 
Q 2772 3150 2772 3378 
Q 2772 3750 2511 3984 
Q 2250 4219 1831 4219 
Q 1534 4219 1204 4116 
Q 875 4013 500 3803 
L 500 4441 
Q 881 4594 1212 4672 
Q 1544 4750 1819 4750 
Q 2544 4750 2975 4387 
Q 3406 4025 3406 3419 
Q 3406 3131 3298 2873 
Q 3191 2616 2906 2266 
Q 2828 2175 2409 1742 
Q 1991 1309 1228 531 
z
" id="DejaVuSans-32" transform="scale(0.015625)"/>
      </defs>
      <use xlink:href="#DejaVuSans-2d"/>
      <use x="36.083984" xlink:href="#DejaVuSans-32"/>
     </g>
    </g>
   </g>
   <g id="text_5">
    <g clip-path="url(#p91ba339f28)">
     <!-- -1 -->
     <g transform="translate(285.454137 281.412198)scale(0.12 -0.12)">
      <defs>
       <path d="M 794 531 
L 1825 531 
L 1825 4091 
L 703 3866 
L 703 4441 
L 1819 4666 
L 2450 4666 
L 2450 531 
L 3481 531 
L 3481 0 
L 794 0 
L 794 531 
z
" id="DejaVuSans-31" transform="scale(0.015625)"/>
      </defs>
      <use xlink:href="#DejaVuSans-2d"/>
      <use x="36.083984" xlink:href="#DejaVuSans-31"/>
     </g>
    </g>
   </g>
   <g id="text_6">
    <g clip-path="url(#p91ba339f28)">
     <!-- 1 -->
     <g transform="translate(346.604631 251.294164)scale(0.12 -0.12)">
      <use xlink:href="#DejaVuSans-31"/>
     </g>
    </g>
   </g>
   <g id="text_7">
    <g clip-path="url(#p91ba339f28)">
     <!-- 2 -->
     <g transform="translate(379.912748 204.348542)scale(0.12 -0.12)">
      <use xlink:href="#DejaVuSans-32"/>
     </g>
    </g>
   </g>
   <g id="text_8">
    <g clip-path="url(#p91ba339f28)">
     <!-- 3 -->
     <g transform="translate(379.912748 151.329964)scale(0.12 -0.12)">
      <use xlink:href="#DejaVuSans-33"/>
     </g>
    </g>
   </g>
   <g id="text_9">
    <g clip-path="url(#p91ba339f28)">
     <!-- 4 -->
     <g transform="translate(346.604595 104.384296)scale(0.12 -0.12)">
      <use xlink:href="#DejaVuSans-34"/>
     </g>
    </g>
   </g>
   <g id="text_10">
    <g clip-path="url(#p91ba339f28)">
     <!-- 5 -->
     <g transform="translate(287.61878 74.266283)scale(0.12 -0.12)">
      <use xlink:href="#DejaVuSans-35"/>
     </g>
    </g>
   </g>
   <g id="text_11">
    <g clip-path="url(#p91ba339f28)">
     <!-- 6 -->
     <g transform="translate(216.468237 67.875614)scale(0.12 -0.12)">
      <defs>
       <path d="M 2113 2584 
Q 1688 2584 1439 2293 
Q 1191 2003 1191 1497 
Q 1191 994 1439 701 
Q 1688 409 2113 409 
Q 2538 409 2786 701 
Q 3034 994 3034 1497 
Q 3034 2003 2786 2293 
Q 2538 2584 2113 2584 
z
M 3366 4563 
L 3366 3988 
Q 3128 4100 2886 4159 
Q 2644 4219 2406 4219 
Q 1781 4219 1451 3797 
Q 1122 3375 1075 2522 
Q 1259 2794 1537 2939 
Q 1816 3084 2150 3084 
Q 2853 3084 3261 2657 
Q 3669 2231 3669 1497 
Q 3669 778 3244 343 
Q 2819 -91 2113 -91 
Q 1303 -91 875 529 
Q 447 1150 447 2328 
Q 447 3434 972 4092 
Q 1497 4750 2381 4750 
Q 2619 4750 2861 4703 
Q 3103 4656 3366 4563 
z
" id="DejaVuSans-36" transform="scale(0.015625)"/>
      </defs>
      <use xlink:href="#DejaVuSans-36"/>
     </g>
    </g>
   </g>
   <g id="text_12">
    <g clip-path="url(#p91ba339f28)">
     <!-- 7 -->
     <g transform="translate(149.452837 86.676244)scale(0.12 -0.12)">
      <defs>
       <path d="M 525 4666 
L 3525 4666 
L 3525 4397 
L 1831 0 
L 1172 0 
L 2766 4134 
L 525 4134 
L 525 4666 
z
" id="DejaVuSans-37" transform="scale(0.015625)"/>
      </defs>
      <use xlink:href="#DejaVuSans-37"/>
     </g>
    </g>
   </g>
   <g id="text_13">
    <g clip-path="url(#p91ba339f28)">
     <!-- Sp -->
     <g transform="translate(98.124129 126.361246)scale(0.12 -0.12)">
      <defs>
       <path d="M 3425 4513 
L 3425 3897 
Q 3066 4069 2747 4153 
Q 2428 4238 2131 4238 
Q 1616 4238 1336 4038 
Q 1056 3838 1056 3469 
Q 1056 3159 1242 3001 
Q 1428 2844 1947 2747 
L 2328 2669 
Q 3034 2534 3370 2195 
Q 3706 1856 3706 1288 
Q 3706 609 3251 259 
Q 2797 -91 1919 -91 
Q 1588 -91 1214 -16 
Q 841 59 441 206 
L 441 856 
Q 825 641 1194 531 
Q 1563 422 1919 422 
Q 2459 422 2753 634 
Q 3047 847 3047 1241 
Q 3047 1584 2836 1778 
Q 2625 1972 2144 2069 
L 1759 2144 
Q 1053 2284 737 2584 
Q 422 2884 422 3419 
Q 422 4038 858 4394 
Q 1294 4750 2059 4750 
Q 2388 4750 2728 4690 
Q 3069 4631 3425 4513 
z
" id="DejaVuSans-53" transform="scale(0.015625)"/>
       <path d="M 1159 525 
L 1159 -1331 
L 581 -1331 
L 581 3500 
L 1159 3500 
L 1159 2969 
Q 1341 3281 1617 3432 
Q 1894 3584 2278 3584 
Q 2916 3584 3314 3078 
Q 3713 2572 3713 1747 
Q 3713 922 3314 415 
Q 2916 -91 2278 -91 
Q 1894 -91 1617 61 
Q 1341 213 1159 525 
z
M 3116 1747 
Q 3116 2381 2855 2742 
Q 2594 3103 2138 3103 
Q 1681 3103 1420 2742 
Q 1159 2381 1159 1747 
Q 1159 1113 1420 752 
Q 1681 391 2138 391 
Q 2594 391 2855 752 
Q 3116 1113 3116 1747 
z
" id="DejaVuSans-70" transform="scale(0.015625)"/>
      </defs>
      <use xlink:href="#DejaVuSans-53"/>
      <use x="63.476562" xlink:href="#DejaVuSans-70"/>
     </g>
    </g>
   </g>
  </g>
 </g>
 <defs>
  <clipPath id="p91ba339f28">
   <rect height="266.112" width="357.12" x="57.6" y="41.472"/>
  </clipPath>
 </defs>
</svg>
