<?xml version="1.0" encoding="utf-8" standalone="no"?>
<!DOCTYPE svg PUBLIC "-//W3C//DTD SVG 1.1//EN"
  "http://www.w3.org/Graphics/SVG/1.1/DTD/svg11.dtd">
<svg height="345.6pt" version="1.1" viewBox="0 0 460.8 345.6" width="460.8pt" xmlns="http://www.w3.org/2000/svg" xmlns:xlink="http://www.w3.org/1999/xlink">
 <metadata>
  <rdf:RDF xmlns:cc="http://creativecommons.org/ns#" xmlns:dc="http://purl.org/dc/elements/1.1/" xmlns:rdf="http://www.w3.org/1999/02/22-rdf-syntax-ns#">
   <cc:Work>
    <dc:type rdf:resource="http://purl.org/dc/dcmitype/StillImage"/>
    <dc:date>2021-06-27T10:13:35.531696</dc:date>
    <dc:format>image/svg+xml</dc:format>
    <dc:creator>
     <cc:Agent>
      <dc:title>Matplotlib v3.4.2, https://matplotlib.org/</dc:title>
     </cc:Agent>
    </dc:creator>
   </cc:Work>
  </rdf:RDF>
 </metadata>
 <defs>
  <style type="text/css">*{stroke-linecap:butt;stroke-linejoin:round;}</style>
 </defs>
 <g id="figure_1">
  <g id="patch_1">
   <path d="M 0 345.6 
L 460.8 345.6 
L 460.8 0 
L 0 0 
z
" style="fill:#ffffff;"/>
  </g>
  <g id="axes_1">
   <g id="patch_2">
    <path d="M 57.6 307.584 
L 414.72 307.584 
L 414.72 41.472 
L 57.6 41.472 
z
" style="fill:#ffffff;"/>
   </g>
   <g id="matplotlib.axis_1">
    <g id="xtick_1">
     <g id="line2d_1">
      <defs>
       <path d="M 0 0 
L 0 3.5 
" id="m181e838dcd" style="stroke:#000000;stroke-width:0.8;"/>
      </defs>
      <g>
       <use style="stroke:#000000;stroke-width:0.8;" x="60.932198" xlink:href="#m181e838dcd" y="307.584"/>
      </g>
     </g>
     <g id="text_1">
      <!-- −6 -->
      <g transform="translate(53.561105 322.182437)scale(0.1 -0.1)">
       <defs>
        <path d="M 678 2272 
L 4684 2272 
L 4684 1741 
L 678 1741 
L 678 2272 
z
" id="DejaVuSans-2212" transform="scale(0.015625)"/>
        <path d="M 2113 2584 
Q 1688 2584 1439 2293 
Q 1191 2003 1191 1497 
Q 1191 994 1439 701 
Q 1688 409 2113 409 
Q 2538 409 2786 701 
Q 3034 994 3034 1497 
Q 3034 2003 2786 2293 
Q 2538 2584 2113 2584 
z
M 3366 4563 
L 3366 3988 
Q 3128 4100 2886 4159 
Q 2644 4219 2406 4219 
Q 1781 4219 1451 3797 
Q 1122 3375 1075 2522 
Q 1259 2794 1537 2939 
Q 1816 3084 2150 3084 
Q 2853 3084 3261 2657 
Q 3669 2231 3669 1497 
Q 3669 778 3244 343 
Q 2819 -91 2113 -91 
Q 1303 -91 875 529 
Q 447 1150 447 2328 
Q 447 3434 972 4092 
Q 1497 4750 2381 4750 
Q 2619 4750 2861 4703 
Q 3103 4656 3366 4563 
z
" id="DejaVuSans-36" transform="scale(0.015625)"/>
       </defs>
       <use xlink:href="#DejaVuSans-2212"/>
       <use x="83.789062" xlink:href="#DejaVuSans-36"/>
      </g>
     </g>
    </g>
    <g id="xtick_2">
     <g id="line2d_2">
      <g>
       <use style="stroke:#000000;stroke-width:0.8;" x="103.381268" xlink:href="#m181e838dcd" y="307.584"/>
      </g>
     </g>
     <g id="text_2">
      <!-- −4 -->
      <g transform="translate(96.010174 322.182437)scale(0.1 -0.1)">
       <defs>
        <path d="M 2419 4116 
L 825 1625 
L 2419 1625 
L 2419 4116 
z
M 2253 4666 
L 3047 4666 
L 3047 1625 
L 3713 1625 
L 3713 1100 
L 3047 1100 
L 3047 0 
L 2419 0 
L 2419 1100 
L 313 1100 
L 313 1709 
L 2253 4666 
z
" id="DejaVuSans-34" transform="scale(0.015625)"/>
       </defs>
       <use xlink:href="#DejaVuSans-2212"/>
       <use x="83.789062" xlink:href="#DejaVuSans-34"/>
      </g>
     </g>
    </g>
    <g id="xtick_3">
     <g id="line2d_3">
      <g>
       <use style="stroke:#000000;stroke-width:0.8;" x="145.830338" xlink:href="#m181e838dcd" y="307.584"/>
      </g>
     </g>
     <g id="text_3">
      <!-- −2 -->
      <g transform="translate(138.459244 322.182437)scale(0.1 -0.1)">
       <defs>
        <path d="M 1228 531 
L 3431 531 
L 3431 0 
L 469 0 
L 469 531 
Q 828 903 1448 1529 
Q 2069 2156 2228 2338 
Q 2531 2678 2651 2914 
Q 2772 3150 2772 3378 
Q 2772 3750 2511 3984 
Q 2250 4219 1831 4219 
Q 1534 4219 1204 4116 
Q 875 4013 500 3803 
L 500 4441 
Q 881 4594 1212 4672 
Q 1544 4750 1819 4750 
Q 2544 4750 2975 4387 
Q 3406 4025 3406 3419 
Q 3406 3131 3298 2873 
Q 3191 2616 2906 2266 
Q 2828 2175 2409 1742 
Q 1991 1309 1228 531 
z
" id="DejaVuSans-32" transform="scale(0.015625)"/>
       </defs>
       <use xlink:href="#DejaVuSans-2212"/>
       <use x="83.789062" xlink:href="#DejaVuSans-32"/>
      </g>
     </g>
    </g>
    <g id="xtick_4">
     <g id="line2d_4">
      <g>
       <use style="stroke:#000000;stroke-width:0.8;" x="188.279408" xlink:href="#m181e838dcd" y="307.584"/>
      </g>
     </g>
     <g id="text_4">
      <!-- 0 -->
      <g transform="translate(185.098158 322.182437)scale(0.1 -0.1)">
       <defs>
        <path d="M 2034 4250 
Q 1547 4250 1301 3770 
Q 1056 3291 1056 2328 
Q 1056 1369 1301 889 
Q 1547 409 2034 409 
Q 2525 409 2770 889 
Q 3016 1369 3016 2328 
Q 3016 3291 2770 3770 
Q 2525 4250 2034 4250 
z
M 2034 4750 
Q 2819 4750 3233 4129 
Q 3647 3509 3647 2328 
Q 3647 1150 3233 529 
Q 2819 -91 2034 -91 
Q 1250 -91 836 529 
Q 422 1150 422 2328 
Q 422 3509 836 4129 
Q 1250 4750 2034 4750 
z
" id="DejaVuSans-30" transform="scale(0.015625)"/>
       </defs>
       <use xlink:href="#DejaVuSans-30"/>
      </g>
     </g>
    </g>
    <g id="xtick_5">
     <g id="line2d_5">
      <g>
       <use style="stroke:#000000;stroke-width:0.8;" x="230.728478" xlink:href="#m181e838dcd" y="307.584"/>
      </g>
     </g>
     <g id="text_5">
      <!-- 2 -->
      <g transform="translate(227.547228 322.182437)scale(0.1 -0.1)">
       <use xlink:href="#DejaVuSans-32"/>
      </g>
     </g>
    </g>
    <g id="xtick_6">
     <g id="line2d_6">
      <g>
       <use style="stroke:#000000;stroke-width:0.8;" x="273.177548" xlink:href="#m181e838dcd" y="307.584"/>
      </g>
     </g>
     <g id="text_6">
      <!-- 4 -->
      <g transform="translate(269.996298 322.182437)scale(0.1 -0.1)">
       <use xlink:href="#DejaVuSans-34"/>
      </g>
     </g>
    </g>
    <g id="xtick_7">
     <g id="line2d_7">
      <g>
       <use style="stroke:#000000;stroke-width:0.8;" x="315.626618" xlink:href="#m181e838dcd" y="307.584"/>
      </g>
     </g>
     <g id="text_7">
      <!-- 6 -->
      <g transform="translate(312.445368 322.182437)scale(0.1 -0.1)">
       <use xlink:href="#DejaVuSans-36"/>
      </g>
     </g>
    </g>
    <g id="xtick_8">
     <g id="line2d_8">
      <g>
       <use style="stroke:#000000;stroke-width:0.8;" x="358.075688" xlink:href="#m181e838dcd" y="307.584"/>
      </g>
     </g>
     <g id="text_8">
      <!-- 8 -->
      <g transform="translate(354.894438 322.182437)scale(0.1 -0.1)">
       <defs>
        <path d="M 2034 2216 
Q 1584 2216 1326 1975 
Q 1069 1734 1069 1313 
Q 1069 891 1326 650 
Q 1584 409 2034 409 
Q 2484 409 2743 651 
Q 3003 894 3003 1313 
Q 3003 1734 2745 1975 
Q 2488 2216 2034 2216 
z
M 1403 2484 
Q 997 2584 770 2862 
Q 544 3141 544 3541 
Q 544 4100 942 4425 
Q 1341 4750 2034 4750 
Q 2731 4750 3128 4425 
Q 3525 4100 3525 3541 
Q 3525 3141 3298 2862 
Q 3072 2584 2669 2484 
Q 3125 2378 3379 2068 
Q 3634 1759 3634 1313 
Q 3634 634 3220 271 
Q 2806 -91 2034 -91 
Q 1263 -91 848 271 
Q 434 634 434 1313 
Q 434 1759 690 2068 
Q 947 2378 1403 2484 
z
M 1172 3481 
Q 1172 3119 1398 2916 
Q 1625 2713 2034 2713 
Q 2441 2713 2670 2916 
Q 2900 3119 2900 3481 
Q 2900 3844 2670 4047 
Q 2441 4250 2034 4250 
Q 1625 4250 1398 4047 
Q 1172 3844 1172 3481 
z
" id="DejaVuSans-38" transform="scale(0.015625)"/>
       </defs>
       <use xlink:href="#DejaVuSans-38"/>
      </g>
     </g>
    </g>
    <g id="xtick_9">
     <g id="line2d_9">
      <g>
       <use style="stroke:#000000;stroke-width:0.8;" x="400.524757" xlink:href="#m181e838dcd" y="307.584"/>
      </g>
     </g>
     <g id="text_9">
      <!-- 10 -->
      <g transform="translate(394.162257 322.182437)scale(0.1 -0.1)">
       <defs>
        <path d="M 794 531 
L 1825 531 
L 1825 4091 
L 703 3866 
L 703 4441 
L 1819 4666 
L 2450 4666 
L 2450 531 
L 3481 531 
L 3481 0 
L 794 0 
L 794 531 
z
" id="DejaVuSans-31" transform="scale(0.015625)"/>
       </defs>
       <use xlink:href="#DejaVuSans-31"/>
       <use x="63.623047" xlink:href="#DejaVuSans-30"/>
      </g>
     </g>
    </g>
    <g id="text_10">
     <!-- Threshold -->
     <g transform="translate(211.521719 335.860562)scale(0.1 -0.1)">
      <defs>
       <path d="M -19 4666 
L 3928 4666 
L 3928 4134 
L 2272 4134 
L 2272 0 
L 1638 0 
L 1638 4134 
L -19 4134 
L -19 4666 
z
" id="DejaVuSans-54" transform="scale(0.015625)"/>
       <path d="M 3513 2113 
L 3513 0 
L 2938 0 
L 2938 2094 
Q 2938 2591 2744 2837 
Q 2550 3084 2163 3084 
Q 1697 3084 1428 2787 
Q 1159 2491 1159 1978 
L 1159 0 
L 581 0 
L 581 4863 
L 1159 4863 
L 1159 2956 
Q 1366 3272 1645 3428 
Q 1925 3584 2291 3584 
Q 2894 3584 3203 3211 
Q 3513 2838 3513 2113 
z
" id="DejaVuSans-68" transform="scale(0.015625)"/>
       <path d="M 2631 2963 
Q 2534 3019 2420 3045 
Q 2306 3072 2169 3072 
Q 1681 3072 1420 2755 
Q 1159 2438 1159 1844 
L 1159 0 
L 581 0 
L 581 3500 
L 1159 3500 
L 1159 2956 
Q 1341 3275 1631 3429 
Q 1922 3584 2338 3584 
Q 2397 3584 2469 3576 
Q 2541 3569 2628 3553 
L 2631 2963 
z
" id="DejaVuSans-72" transform="scale(0.015625)"/>
       <path d="M 3597 1894 
L 3597 1613 
L 953 1613 
Q 991 1019 1311 708 
Q 1631 397 2203 397 
Q 2534 397 2845 478 
Q 3156 559 3463 722 
L 3463 178 
Q 3153 47 2828 -22 
Q 2503 -91 2169 -91 
Q 1331 -91 842 396 
Q 353 884 353 1716 
Q 353 2575 817 3079 
Q 1281 3584 2069 3584 
Q 2775 3584 3186 3129 
Q 3597 2675 3597 1894 
z
M 3022 2063 
Q 3016 2534 2758 2815 
Q 2500 3097 2075 3097 
Q 1594 3097 1305 2825 
Q 1016 2553 972 2059 
L 3022 2063 
z
" id="DejaVuSans-65" transform="scale(0.015625)"/>
       <path d="M 2834 3397 
L 2834 2853 
Q 2591 2978 2328 3040 
Q 2066 3103 1784 3103 
Q 1356 3103 1142 2972 
Q 928 2841 928 2578 
Q 928 2378 1081 2264 
Q 1234 2150 1697 2047 
L 1894 2003 
Q 2506 1872 2764 1633 
Q 3022 1394 3022 966 
Q 3022 478 2636 193 
Q 2250 -91 1575 -91 
Q 1294 -91 989 -36 
Q 684 19 347 128 
L 347 722 
Q 666 556 975 473 
Q 1284 391 1588 391 
Q 1994 391 2212 530 
Q 2431 669 2431 922 
Q 2431 1156 2273 1281 
Q 2116 1406 1581 1522 
L 1381 1569 
Q 847 1681 609 1914 
Q 372 2147 372 2553 
Q 372 3047 722 3315 
Q 1072 3584 1716 3584 
Q 2034 3584 2315 3537 
Q 2597 3491 2834 3397 
z
" id="DejaVuSans-73" transform="scale(0.015625)"/>
       <path d="M 1959 3097 
Q 1497 3097 1228 2736 
Q 959 2375 959 1747 
Q 959 1119 1226 758 
Q 1494 397 1959 397 
Q 2419 397 2687 759 
Q 2956 1122 2956 1747 
Q 2956 2369 2687 2733 
Q 2419 3097 1959 3097 
z
M 1959 3584 
Q 2709 3584 3137 3096 
Q 3566 2609 3566 1747 
Q 3566 888 3137 398 
Q 2709 -91 1959 -91 
Q 1206 -91 779 398 
Q 353 888 353 1747 
Q 353 2609 779 3096 
Q 1206 3584 1959 3584 
z
" id="DejaVuSans-6f" transform="scale(0.015625)"/>
       <path d="M 603 4863 
L 1178 4863 
L 1178 0 
L 603 0 
L 603 4863 
z
" id="DejaVuSans-6c" transform="scale(0.015625)"/>
       <path d="M 2906 2969 
L 2906 4863 
L 3481 4863 
L 3481 0 
L 2906 0 
L 2906 525 
Q 2725 213 2448 61 
Q 2172 -91 1784 -91 
Q 1150 -91 751 415 
Q 353 922 353 1747 
Q 353 2572 751 3078 
Q 1150 3584 1784 3584 
Q 2172 3584 2448 3432 
Q 2725 3281 2906 2969 
z
M 947 1747 
Q 947 1113 1208 752 
Q 1469 391 1925 391 
Q 2381 391 2643 752 
Q 2906 1113 2906 1747 
Q 2906 2381 2643 2742 
Q 2381 3103 1925 3103 
Q 1469 3103 1208 2742 
Q 947 2381 947 1747 
z
" id="DejaVuSans-64" transform="scale(0.015625)"/>
      </defs>
      <use xlink:href="#DejaVuSans-54"/>
      <use x="61.083984" xlink:href="#DejaVuSans-68"/>
      <use x="124.462891" xlink:href="#DejaVuSans-72"/>
      <use x="163.326172" xlink:href="#DejaVuSans-65"/>
      <use x="224.849609" xlink:href="#DejaVuSans-73"/>
      <use x="276.949219" xlink:href="#DejaVuSans-68"/>
      <use x="340.328125" xlink:href="#DejaVuSans-6f"/>
      <use x="401.509766" xlink:href="#DejaVuSans-6c"/>
      <use x="429.292969" xlink:href="#DejaVuSans-64"/>
     </g>
    </g>
   </g>
   <g id="matplotlib.axis_2">
    <g id="ytick_1">
     <g id="line2d_10">
      <defs>
       <path d="M 0 0 
L -3.5 0 
" id="m586ddf59b2" style="stroke:#000000;stroke-width:0.8;"/>
      </defs>
      <g>
       <use style="stroke:#000000;stroke-width:0.8;" x="57.6" xlink:href="#m586ddf59b2" y="304.416718"/>
      </g>
     </g>
     <g id="text_11">
      <!-- 0.0 -->
      <g transform="translate(34.696875 308.215937)scale(0.1 -0.1)">
       <defs>
        <path d="M 684 794 
L 1344 794 
L 1344 0 
L 684 0 
L 684 794 
z
" id="DejaVuSans-2e" transform="scale(0.015625)"/>
       </defs>
       <use xlink:href="#DejaVuSans-30"/>
       <use x="63.623047" xlink:href="#DejaVuSans-2e"/>
       <use x="95.410156" xlink:href="#DejaVuSans-30"/>
      </g>
     </g>
    </g>
    <g id="ytick_2">
     <g id="line2d_11">
      <g>
       <use style="stroke:#000000;stroke-width:0.8;" x="57.6" xlink:href="#m586ddf59b2" y="254.246975"/>
      </g>
     </g>
     <g id="text_12">
      <!-- 0.2 -->
      <g transform="translate(34.696875 258.046193)scale(0.1 -0.1)">
       <use xlink:href="#DejaVuSans-30"/>
       <use x="63.623047" xlink:href="#DejaVuSans-2e"/>
       <use x="95.410156" xlink:href="#DejaVuSans-32"/>
      </g>
     </g>
    </g>
    <g id="ytick_3">
     <g id="line2d_12">
      <g>
       <use style="stroke:#000000;stroke-width:0.8;" x="57.6" xlink:href="#m586ddf59b2" y="204.077231"/>
      </g>
     </g>
     <g id="text_13">
      <!-- 0.4 -->
      <g transform="translate(34.696875 207.87645)scale(0.1 -0.1)">
       <use xlink:href="#DejaVuSans-30"/>
       <use x="63.623047" xlink:href="#DejaVuSans-2e"/>
       <use x="95.410156" xlink:href="#DejaVuSans-34"/>
      </g>
     </g>
    </g>
    <g id="ytick_4">
     <g id="line2d_13">
      <g>
       <use style="stroke:#000000;stroke-width:0.8;" x="57.6" xlink:href="#m586ddf59b2" y="153.907487"/>
      </g>
     </g>
     <g id="text_14">
      <!-- 0.6 -->
      <g transform="translate(34.696875 157.706706)scale(0.1 -0.1)">
       <use xlink:href="#DejaVuSans-30"/>
       <use x="63.623047" xlink:href="#DejaVuSans-2e"/>
       <use x="95.410156" xlink:href="#DejaVuSans-36"/>
      </g>
     </g>
    </g>
    <g id="ytick_5">
     <g id="line2d_14">
      <g>
       <use style="stroke:#000000;stroke-width:0.8;" x="57.6" xlink:href="#m586ddf59b2" y="103.737744"/>
      </g>
     </g>
     <g id="text_15">
      <!-- 0.8 -->
      <g transform="translate(34.696875 107.536962)scale(0.1 -0.1)">
       <use xlink:href="#DejaVuSans-30"/>
       <use x="63.623047" xlink:href="#DejaVuSans-2e"/>
       <use x="95.410156" xlink:href="#DejaVuSans-38"/>
      </g>
     </g>
    </g>
    <g id="ytick_6">
     <g id="line2d_15">
      <g>
       <use style="stroke:#000000;stroke-width:0.8;" x="57.6" xlink:href="#m586ddf59b2" y="53.568"/>
      </g>
     </g>
     <g id="text_16">
      <!-- 1.0 -->
      <g transform="translate(34.696875 57.367219)scale(0.1 -0.1)">
       <use xlink:href="#DejaVuSans-31"/>
       <use x="63.623047" xlink:href="#DejaVuSans-2e"/>
       <use x="95.410156" xlink:href="#DejaVuSans-30"/>
      </g>
     </g>
    </g>
    <g id="text_17">
     <!-- Metrics -->
     <g transform="translate(28.617187 192.677219)rotate(-90)scale(0.1 -0.1)">
      <defs>
       <path d="M 628 4666 
L 1569 4666 
L 2759 1491 
L 3956 4666 
L 4897 4666 
L 4897 0 
L 4281 0 
L 4281 4097 
L 3078 897 
L 2444 897 
L 1241 4097 
L 1241 0 
L 628 0 
L 628 4666 
z
" id="DejaVuSans-4d" transform="scale(0.015625)"/>
       <path d="M 1172 4494 
L 1172 3500 
L 2356 3500 
L 2356 3053 
L 1172 3053 
L 1172 1153 
Q 1172 725 1289 603 
Q 1406 481 1766 481 
L 2356 481 
L 2356 0 
L 1766 0 
Q 1100 0 847 248 
Q 594 497 594 1153 
L 594 3053 
L 172 3053 
L 172 3500 
L 594 3500 
L 594 4494 
L 1172 4494 
z
" id="DejaVuSans-74" transform="scale(0.015625)"/>
       <path d="M 603 3500 
L 1178 3500 
L 1178 0 
L 603 0 
L 603 3500 
z
M 603 4863 
L 1178 4863 
L 1178 4134 
L 603 4134 
L 603 4863 
z
" id="DejaVuSans-69" transform="scale(0.015625)"/>
       <path d="M 3122 3366 
L 3122 2828 
Q 2878 2963 2633 3030 
Q 2388 3097 2138 3097 
Q 1578 3097 1268 2742 
Q 959 2388 959 1747 
Q 959 1106 1268 751 
Q 1578 397 2138 397 
Q 2388 397 2633 464 
Q 2878 531 3122 666 
L 3122 134 
Q 2881 22 2623 -34 
Q 2366 -91 2075 -91 
Q 1284 -91 818 406 
Q 353 903 353 1747 
Q 353 2603 823 3093 
Q 1294 3584 2113 3584 
Q 2378 3584 2631 3529 
Q 2884 3475 3122 3366 
z
" id="DejaVuSans-63" transform="scale(0.015625)"/>
      </defs>
      <use xlink:href="#DejaVuSans-4d"/>
      <use x="86.279297" xlink:href="#DejaVuSans-65"/>
      <use x="147.802734" xlink:href="#DejaVuSans-74"/>
      <use x="187.011719" xlink:href="#DejaVuSans-72"/>
      <use x="228.125" xlink:href="#DejaVuSans-69"/>
      <use x="255.908203" xlink:href="#DejaVuSans-63"/>
      <use x="310.888672" xlink:href="#DejaVuSans-73"/>
     </g>
    </g>
   </g>
   <g id="line2d_16">
    <path clip-path="url(#p748ba57ef3)" d="M 73.832727 53.568 
L 73.944382 53.688658 
L 93.495522 53.688658 
L 93.627854 53.809317 
L 113.101909 53.809317 
L 113.178249 53.929975 
L 120.766273 53.929975 
L 120.863078 54.050633 
L 144.216343 54.050633 
L 144.384197 54.171292 
L 159.621645 54.171292 
L 159.651404 54.29195 
L 166.395322 54.29195 
L 166.838446 54.412608 
L 169.867219 54.412608 
L 170.57349 54.653925 
L 175.325789 54.653925 
L 175.449539 54.774584 
L 176.256008 54.774584 
L 176.402106 54.895242 
L 178.413237 54.895242 
L 178.534346 55.0159 
L 183.626248 55.0159 
L 183.846817 55.257217 
L 184.473382 55.257217 
L 184.529989 55.377875 
L 184.801446 55.377875 
L 185.033349 55.498534 
L 186.093463 55.498534 
L 186.196228 55.619192 
L 188.279408 55.619192 
L 189.380327 55.860509 
L 194.258841 55.860509 
L 194.552068 55.981167 
L 195.636609 55.981167 
L 195.774642 56.101825 
L 195.839414 56.101825 
L 195.933012 56.222484 
L 196.236232 56.222484 
L 196.380259 56.343142 
L 200.799144 56.343142 
L 200.871419 56.4638 
L 201.474831 56.705117 
L 203.272978 56.705117 
L 203.355776 56.825776 
L 204.437261 56.825776 
L 204.486867 56.946434 
L 204.85003 56.946434 
L 205.078202 57.429067 
L 205.523233 57.429067 
L 205.607581 57.670384 
L 206.554409 57.670384 
L 207.661239 57.911701 
L 208.400998 57.911701 
L 208.94294 58.032359 
L 210.181167 58.032359 
L 210.334255 58.273676 
L 210.791913 58.273676 
L 210.941041 58.394334 
L 213.09979 58.394334 
L 213.367684 58.514993 
L 213.88402 58.514993 
L 213.992903 58.876968 
L 215.0313 58.876968 
L 215.287644 59.238943 
L 215.451084 59.359601 
L 218.29601 59.359601 
L 218.500738 59.480259 
L 220.827327 59.480259 
L 221.013355 59.721576 
L 222.606781 59.721576 
L 222.71238 59.842234 
L 223.465208 59.842234 
L 223.561182 60.083551 
L 225.094233 60.083551 
L 225.27578 60.204209 
L 225.654317 60.324868 
L 227.083717 60.324868 
L 227.182902 60.445526 
L 227.262951 60.445526 
L 227.32603 60.686843 
L 228.635841 60.686843 
L 228.988798 60.807501 
L 229.173581 60.807501 
L 229.223078 61.048818 
L 229.846894 61.048818 
L 229.978684 61.169476 
L 230.413707 61.169476 
L 231.157202 61.410793 
L 231.555882 61.65211 
L 232.213137 61.65211 
L 232.373642 61.893426 
L 232.936903 62.37606 
L 233.938811 62.37606 
L 233.983249 62.496718 
L 234.437076 62.617377 
L 234.994175 62.617377 
L 235.293451 62.738035 
L 235.721399 62.738035 
L 235.93452 62.979352 
L 236.055501 62.979352 
L 236.059203 63.10001 
L 236.806064 63.10001 
L 237.136319 63.341327 
L 237.191177 63.461985 
L 237.442556 63.461985 
L 237.566177 63.582643 
L 237.814313 63.582643 
L 238.007678 63.703302 
L 238.834612 63.703302 
L 241.017785 64.185935 
L 241.187248 64.185935 
L 242.030514 64.789227 
L 242.188681 64.789227 
L 242.735581 64.909885 
L 243.373744 64.909885 
L 243.436143 65.030544 
L 243.588414 65.030544 
L 244.093989 65.27186 
L 244.336575 65.27186 
L 244.42682 65.392519 
L 244.817325 65.513177 
L 245.24202 65.513177 
L 245.303376 65.633835 
L 246.303985 65.633835 
L 246.888959 65.99581 
L 247.766986 65.99581 
L 247.868583 66.237127 
L 247.959211 66.357786 
L 248.699527 66.719761 
L 249.043466 66.719761 
L 249.064709 66.840419 
L 250.321696 66.840419 
L 250.715086 67.443711 
L 250.879798 67.443711 
L 250.922466 67.564369 
L 251.598288 67.564369 
L 252.342197 68.047002 
L 252.812222 68.167661 
L 252.873007 68.408978 
L 253.300752 68.770953 
L 253.425116 68.891611 
L 253.63703 68.891611 
L 255.465727 69.494903 
L 256.549122 69.494903 
L 256.797195 69.736219 
L 257.107773 69.977536 
L 257.498181 70.46017 
L 257.971607 70.701486 
L 258.102334 70.942803 
L 258.366662 70.942803 
L 258.526915 71.546095 
L 258.685289 71.666753 
L 259.895793 72.028728 
L 260.198477 72.390703 
L 260.763754 72.63202 
L 261.175931 72.993995 
L 261.331867 73.114653 
L 262.378568 73.476628 
L 262.42686 73.717945 
L 262.536708 73.717945 
L 263.08656 74.07992 
L 263.161966 87.834973 
L 263.382609 88.196948 
L 263.428506 88.438264 
L 263.89751 88.800239 
L 263.90095 88.920898 
L 264.08958 89.162214 
L 264.19908 89.403531 
L 264.542696 90.006823 
L 264.68124 90.610115 
L 264.89758 90.610115 
L 265.061634 90.730773 
L 265.271102 90.730773 
L 265.39319 90.851431 
L 265.486468 90.851431 
L 265.594358 90.97209 
L 266.292684 91.454723 
L 266.457256 92.178673 
L 266.734071 92.41999 
L 267.004421 92.781965 
L 267.124137 92.781965 
L 267.542272 93.14394 
L 267.704682 93.385257 
L 267.802617 93.626574 
L 268.054176 94.109207 
L 268.273657 94.350524 
L 268.31623 94.350524 
L 268.487372 94.953815 
L 269.217002 95.436449 
L 269.305652 96.039741 
L 269.478553 96.160399 
L 269.831414 96.884349 
L 269.94224 97.487641 
L 270.116795 97.728958 
L 270.66378 98.211591 
L 270.765974 98.211591 
L 271.113961 98.694224 
L 271.418615 98.694224 
L 271.958598 99.0562 
L 271.961639 99.176858 
L 272.179985 99.176858 
L 272.238697 99.418175 
L 272.54417 99.418175 
L 272.973014 100.383441 
L 273.397928 100.745416 
L 273.661796 100.986733 
L 273.673668 101.107392 
L 273.979647 101.22805 
L 274.07655 101.710683 
L 274.276626 101.710683 
L 274.654189 102.555292 
L 275.067111 102.796608 
L 275.615881 103.037925 
L 275.628727 103.158584 
L 275.899635 103.3999 
L 275.975856 103.882534 
L 276.362722 104.244509 
L 277.085226 104.968459 
L 277.385386 105.813067 
L 277.435739 105.813067 
L 277.605371 106.416359 
L 278.94056 107.140309 
L 279.200944 107.864259 
L 279.507939 108.105576 
L 279.778215 108.346893 
L 280.011421 108.588209 
L 280.095026 108.708868 
L 280.255082 108.708868 
L 280.367762 109.070843 
L 280.581136 109.070843 
L 280.655177 109.432818 
L 280.867361 109.674135 
L 281.008721 110.03611 
L 281.0863 110.398085 
L 281.356711 110.639401 
L 281.434003 110.880718 
L 281.686841 111.001377 
L 281.768205 111.48401 
L 281.982058 111.725327 
L 282.054189 112.087302 
L 282.436564 112.569935 
L 282.55653 112.569935 
L 282.663038 112.811252 
L 282.814947 113.052569 
L 283.063933 113.535202 
L 283.537812 114.37981 
L 283.885557 114.741786 
L 283.898749 114.862444 
L 284.025591 114.862444 
L 284.203317 115.345077 
L 284.257326 115.707052 
L 284.364375 115.707052 
L 284.53763 115.948369 
L 284.555987 116.069027 
L 284.749962 116.310344 
L 285.425383 118.240878 
L 285.496066 118.240878 
L 285.534225 118.361536 
L 285.86938 118.602853 
L 285.900091 118.964828 
L 286.089957 119.206145 
L 286.347467 119.930095 
L 286.498764 120.050753 
L 286.823265 120.774703 
L 286.978078 121.01602 
L 287.123875 121.619312 
L 287.390272 121.860628 
L 287.425735 122.222603 
L 287.548998 122.222603 
L 287.8144 122.705237 
L 288.02059 124.032479 
L 288.117907 124.273796 
L 288.271926 125.359721 
L 288.30672 125.359721 
L 288.355518 125.963012 
L 288.990829 126.083671 
L 289.01919 126.204329 
L 289.257637 126.445646 
L 289.468304 127.410913 
L 290.104072 127.652229 
L 290.212492 127.893546 
L 290.391007 128.738155 
L 290.901216 129.582763 
L 291.627102 130.910005 
L 291.693085 131.151322 
L 292.00318 131.513297 
L 292.217586 131.875272 
L 292.560118 132.116589 
L 292.959867 132.599222 
L 293.264973 133.805805 
L 293.508665 134.047122 
L 293.630896 134.167781 
L 293.648855 134.409097 
L 293.942144 134.650414 
L 294.26574 135.374364 
L 294.294221 135.495022 
L 294.665291 135.856998 
L 295.620357 137.787531 
L 295.980156 137.90819 
L 296.303092 138.270165 
L 296.835314 139.838723 
L 296.995387 140.08004 
L 297.007722 140.321357 
L 297.177525 140.562673 
L 297.371128 141.165965 
L 297.501117 141.165965 
L 297.908746 142.010574 
L 298.076333 142.25189 
L 298.153909 142.613865 
L 298.321974 142.855182 
L 298.866409 143.579132 
L 298.940574 144.061766 
L 299.034326 144.182424 
L 299.261658 145.027032 
L 299.493392 145.389007 
L 299.693799 145.992299 
L 299.858292 146.233616 
L 300.117467 146.595591 
L 300.218392 146.957566 
L 300.818215 147.198883 
L 300.878133 147.4402 
L 301.191338 147.802175 
L 301.208576 148.043491 
L 301.340305 148.16415 
L 301.866399 150.336 
L 302.155851 150.818633 
L 302.162106 150.939292 
L 302.422067 151.180608 
L 302.457412 151.421925 
L 302.540598 152.387192 
L 302.647542 152.628509 
L 302.72693 152.869825 
L 303.107287 153.2318 
L 303.437978 154.197067 
L 303.69884 154.679701 
L 303.932189 154.921017 
L 303.954865 155.162334 
L 304.338816 155.765626 
L 304.475511 156.127601 
L 304.527953 156.127601 
L 304.641218 156.610234 
L 304.76526 157.092868 
L 304.970594 157.334185 
L 305.036684 157.937476 
L 305.73338 159.14406 
L 306.011436 159.747352 
L 306.122794 159.988668 
L 306.306375 160.350643 
L 306.590431 160.471302 
L 306.626839 160.712618 
L 306.883267 161.074594 
L 307.114718 161.677885 
L 307.51073 161.919202 
L 307.584212 162.281177 
L 308.395914 162.522494 
L 308.699295 163.608419 
L 308.854938 163.729077 
L 308.943279 166.624878 
L 309.211434 166.866195 
L 309.220626 166.986853 
L 309.60576 167.710803 
L 310.100067 168.67607 
L 310.336823 168.917387 
L 310.469356 169.40002 
L 310.739001 170.003312 
L 310.801105 170.244628 
L 311.180884 170.84792 
L 311.437646 172.175162 
L 311.720109 172.416479 
L 311.796375 172.537137 
L 311.951316 173.019771 
L 312.384564 173.261087 
L 312.891007 174.829646 
L 312.953994 175.312279 
L 313.176103 175.432938 
L 313.316729 175.915571 
L 313.494 176.639521 
L 313.690859 177.001496 
L 313.908601 177.363471 
L 314.141355 177.604788 
L 314.253124 178.087421 
L 314.506122 178.328738 
L 315.424084 180.741905 
L 315.759262 180.862564 
L 316.067111 181.345197 
L 316.18404 181.586514 
L 316.561484 182.672439 
L 317.240275 183.396389 
L 317.762776 183.637706 
L 317.768728 183.879022 
L 318.035226 184.120339 
L 318.133243 184.361656 
L 318.477007 185.206264 
L 318.797692 185.688898 
L 318.808531 185.930214 
L 319.213889 186.412848 
L 319.288098 187.01614 
L 319.51437 187.378115 
L 319.546457 187.619431 
L 319.96272 187.860748 
L 320.070055 188.102065 
L 320.189094 188.222723 
L 320.364712 188.584698 
L 320.79815 189.791282 
L 321.28409 190.032599 
L 321.412743 190.273915 
L 321.525095 191.601157 
L 322.186775 192.687082 
L 322.549613 193.169716 
L 322.562894 193.411032 
L 322.863424 194.014324 
L 323.102331 194.858933 
L 323.33276 195.100249 
L 324.447982 195.944858 
L 324.551033 196.668808 
L 324.678643 196.789466 
L 325.373531 197.151441 
L 325.456946 197.2721 
L 325.792673 197.513416 
L 326.0518 198.72 
L 326.155556 198.840658 
L 326.484327 198.961317 
L 326.559641 199.323292 
L 326.862872 199.685267 
L 327.376496 199.926584 
L 327.626695 200.288559 
L 327.853757 200.771192 
L 327.89763 200.89185 
L 328.202744 201.133167 
L 328.287921 201.253825 
L 328.475266 201.977776 
L 328.805685 202.581067 
L 328.966776 203.305017 
L 329.119602 204.028968 
L 329.377202 204.270284 
L 329.58101 204.873576 
L 329.910245 204.994234 
L 330.337188 205.597526 
L 330.592962 205.838843 
L 330.9031 206.683451 
L 331.148438 207.045426 
L 331.305373 207.648718 
L 331.568226 208.010693 
L 332.173831 208.493327 
L 332.290898 208.97596 
L 332.581303 209.941227 
L 332.590903 210.061885 
L 333.107997 210.544519 
L 333.122965 210.665177 
L 333.457594 211.027152 
L 333.504572 211.268469 
L 333.667823 211.509786 
L 333.747938 211.751102 
L 333.979705 211.751102 
L 334.64919 212.957686 
L 334.800193 213.560978 
L 335.504431 213.802294 
L 335.744658 214.284928 
L 335.754615 214.405586 
L 335.950659 214.646903 
L 336.052571 215.008878 
L 336.255267 215.129536 
L 336.504735 215.853486 
L 336.868237 216.215461 
L 336.888222 216.33612 
L 337.159038 216.577436 
L 337.710919 217.422045 
L 337.839795 217.663362 
L 338.350912 217.904678 
L 338.359694 218.145995 
L 338.548297 218.266653 
L 338.713591 218.749287 
L 338.809765 219.111262 
L 339.19653 219.352579 
L 339.606657 219.835212 
L 340.028329 219.95587 
L 340.039676 220.197187 
L 340.333674 220.438504 
L 340.438355 220.559162 
L 340.756807 221.283112 
L 341.495909 221.524429 
L 341.945455 222.127721 
L 342.955063 222.489696 
L 343.136724 222.731012 
L 343.313701 222.972329 
L 343.316349 223.092988 
L 343.694602 223.334304 
L 343.846532 223.575621 
L 344.57618 225.385496 
L 345.041174 225.988788 
L 345.158644 226.471421 
L 345.329618 227.074713 
L 346.299098 227.557347 
L 346.351884 227.798663 
L 346.88118 228.03998 
L 346.909621 228.160638 
L 347.096275 231.659731 
L 347.385284 232.021706 
L 347.480512 232.383681 
L 347.72467 232.745656 
L 348.069112 233.107631 
L 348.263589 233.590264 
L 348.410615 234.072898 
L 348.546192 234.314214 
L 348.667539 234.67619 
L 348.877288 235.038165 
L 349.683964 235.762115 
L 349.710069 236.12409 
L 350.117936 236.486065 
L 350.169397 237.210015 
L 350.582688 237.57199 
L 350.612663 237.933965 
L 351.120591 238.175282 
L 351.448228 238.537257 
L 351.962733 238.778574 
L 351.979141 238.899232 
L 352.09684 238.899232 
L 352.236165 239.140549 
L 352.623698 239.261207 
L 352.66337 239.502524 
L 352.875694 239.502524 
L 353.123994 239.74384 
L 353.151101 239.864499 
L 353.475141 239.985157 
L 353.686013 240.347132 
L 353.815083 240.709107 
L 354.668704 241.071082 
L 354.670348 241.191741 
L 355.005191 241.553716 
L 355.685312 242.760299 
L 355.693666 243.122274 
L 356.047944 243.484249 
L 356.096255 243.846224 
L 356.193246 243.966883 
L 356.366603 244.449516 
L 357.145557 244.93215 
L 357.491225 245.414783 
L 357.772059 245.6561 
L 358.571159 246.621367 
L 359.072932 246.862683 
L 359.332771 247.948608 
L 359.574594 248.189925 
L 359.843422 248.5519 
L 359.870904 248.672559 
L 360.130697 248.913875 
L 360.249039 249.517167 
L 361.239197 250.482434 
L 361.71275 250.844409 
L 361.734427 251.447701 
L 362.0432 251.689017 
L 362.398867 252.292309 
L 362.413427 252.412968 
L 362.828186 252.774943 
L 363.443763 253.860868 
L 363.85488 254.222843 
L 364.007251 254.584818 
L 364.031084 258.08391 
L 364.310975 258.204569 
L 364.486684 258.566544 
L 364.612098 258.566544 
L 364.722764 259.290494 
L 364.792936 259.411152 
L 364.810343 259.773127 
L 365.216497 260.497077 
L 365.289508 260.979711 
L 365.533096 261.221027 
L 366.679188 262.789586 
L 367.533387 263.151561 
L 367.688028 263.634195 
L 367.799644 263.754853 
L 368.288483 263.99617 
L 368.395456 264.840778 
L 368.530105 265.323411 
L 368.708244 265.564728 
L 368.714246 265.926703 
L 369.043388 266.16802 
L 369.063412 266.288678 
L 369.474253 266.650653 
L 369.501549 266.771312 
L 370.041579 267.012628 
L 370.188006 267.495262 
L 370.229531 268.219212 
L 370.679877 268.460529 
L 370.829432 268.822504 
L 371.627861 269.305137 
L 371.846672 269.787771 
L 372.016388 270.029087 
L 372.191771 271.235671 
L 372.531177 271.476988 
L 372.993277 272.200938 
L 373.234942 272.442254 
L 373.411649 272.683571 
L 373.969864 273.648838 
L 373.986211 273.769496 
L 374.357623 273.890155 
L 374.389273 274.25213 
L 374.84358 274.855421 
L 375.531099 275.70003 
L 375.67532 278.233855 
L 375.922973 278.354514 
L 376.059027 278.957805 
L 376.599366 279.199122 
L 377.226652 279.561097 
L 377.73665 280.285047 
L 378.821562 281.129656 
L 379.503483 282.094923 
L 379.50709 282.215581 
L 380.058789 282.456898 
L 380.239793 282.698214 
L 380.327437 282.818873 
L 381.123534 283.06019 
L 381.724159 283.663481 
L 382.181774 284.50809 
L 382.299478 284.628748 
L 382.712612 284.870065 
L 382.830204 284.990723 
L 382.930817 285.352698 
L 383.068667 285.594015 
L 384.210144 286.076648 
L 385.063038 286.438623 
L 385.400956 286.67994 
L 385.403928 286.921257 
L 385.695655 287.283232 
L 385.897324 287.645207 
L 386.191286 287.765865 
L 386.226232 288.12784 
L 386.956825 288.731132 
L 387.128699 289.334424 
L 387.517437 289.455082 
L 389.000101 290.420349 
L 390.248932 290.782324 
L 390.729884 291.264958 
L 391.164211 291.385616 
L 391.166657 291.506274 
L 391.973125 291.868249 
L 393.090735 292.109566 
L 393.276626 292.5922 
L 393.740888 293.195491 
L 395.201222 293.557466 
L 395.414896 293.798783 
L 396.324637 294.160758 
L 396.464505 294.402075 
L 397.651899 294.76405 
L 397.786184 295.126025 
L 397.969235 295.246683 
L 398.487273 295.488 
L 398.487273 295.488 
" style="fill:none;stroke:#1f77b4;stroke-dasharray:5.55,2.4;stroke-dashoffset:0;stroke-width:1.5;"/>
   </g>
   <g id="line2d_17">
    <path clip-path="url(#p748ba57ef3)" d="M 73.832727 233.760373 
L 73.836535 233.784789 
L 73.92549 233.640936 
L 74.077753 233.448218 
L 74.56813 232.775207 
L 74.841043 232.389133 
L 74.988519 232.149473 
L 75.12477 232.008934 
L 75.376285 231.645025 
L 75.48422 231.379919 
L 75.606681 231.16438 
L 76.431172 229.939845 
L 76.542733 229.758506 
L 76.920694 229.111368 
L 77.016818 228.958751 
L 77.143804 228.772597 
L 77.69685 228.041094 
L 77.81128 227.839131 
L 78.432983 226.732123 
L 78.58957 226.418269 
L 78.762233 226.090101 
L 79.226006 225.497167 
L 80.838412 222.892846 
L 80.9901 222.726758 
L 83.049515 219.506531 
L 83.408075 219.117481 
L 83.503583 218.879528 
L 83.6945 218.612004 
L 83.823169 218.413808 
L 84.641349 216.956377 
L 84.87059 216.587967 
L 85.208758 215.931973 
L 85.343853 215.660778 
L 85.447937 215.418317 
L 86.100998 214.217093 
L 86.187171 214.045075 
L 86.728829 213.350395 
L 86.824686 213.127115 
L 86.98542 212.966957 
L 87.129136 212.757911 
L 88.566033 210.697977 
L 88.681705 210.562985 
L 88.796378 210.27483 
L 88.947948 210.087432 
L 89.109909 209.761981 
L 89.235077 209.607035 
L 89.406439 209.295617 
L 89.721636 208.789561 
L 89.848767 208.613808 
L 90.02398 208.31354 
L 90.177347 208.047031 
L 90.308711 207.832757 
L 90.468915 207.473509 
L 90.608117 207.238561 
L 90.775621 206.984263 
L 91.188994 206.176304 
L 91.28991 206.009386 
L 91.358054 205.823256 
L 92.454229 203.806095 
L 92.578529 203.59203 
L 94.211512 200.484385 
L 94.363437 200.193316 
L 96.025469 197.300602 
L 96.3157 196.947084 
L 96.485926 196.568905 
L 96.608715 196.367612 
L 96.916052 195.623069 
L 97.083955 195.372602 
L 97.193459 195.120979 
L 97.582602 194.382339 
L 98.029113 193.515742 
L 98.180072 193.208012 
L 98.289038 193.041603 
L 98.433277 192.874696 
L 98.561241 192.611399 
L 98.770042 192.226195 
L 99.521066 190.807301 
L 99.694667 190.509244 
L 100.02879 189.807658 
L 100.230401 189.097376 
L 100.312958 188.790267 
L 100.500152 188.55886 
L 100.605752 188.326525 
L 100.727385 188.119221 
L 100.831634 187.885117 
L 101.7868 185.92393 
L 101.983928 185.680896 
L 102.186871 185.328081 
L 102.500651 184.616123 
L 102.613685 184.395343 
L 102.732474 184.256942 
L 102.864679 184.007015 
L 103.007951 183.58815 
L 103.127693 183.44788 
L 103.379335 182.996819 
L 103.603679 182.65631 
L 103.784239 182.342494 
L 103.900873 182.170639 
L 104.005225 181.911948 
L 104.121983 181.652159 
L 105.542882 179.263514 
L 105.787365 179.113017 
L 105.862674 178.962158 
L 106.070995 178.810935 
L 106.201135 178.568219 
L 106.806991 177.587899 
L 106.944954 177.27841 
L 107.259971 176.62354 
L 107.377815 176.466623 
L 107.710262 175.930211 
L 107.91033 175.421227 
L 108.0658 175.261342 
L 108.162008 175.16522 
L 108.281001 174.972547 
L 108.365722 174.875995 
L 108.56514 174.682458 
L 109.147126 173.541866 
L 109.325245 173.17924 
L 109.480607 172.748083 
L 109.559519 172.481345 
L 109.670923 172.38104 
L 110.377307 171.097172 
L 110.583245 170.445829 
L 110.79028 170.031166 
L 110.911473 169.85763 
L 111.073915 169.57904 
L 111.603021 168.700962 
L 111.706396 168.559407 
L 112.772642 167.055055 
L 113.153325 166.356819 
L 113.58554 165.546868 
L 113.699389 165.249979 
L 113.865407 164.989158 
L 115.033273 162.789865 
L 115.335146 162.519732 
L 115.634129 161.976363 
L 115.769507 161.859385 
L 116.018146 161.310937 
L 116.273367 161.035127 
L 116.438546 160.678949 
L 116.613749 160.520079 
L 116.846297 160.081369 
L 117.373948 159.357682 
L 117.484585 159.195876 
L 117.612261 159.033709 
L 117.961275 158.545027 
L 118.591367 157.557739 
L 118.712542 157.267258 
L 118.906134 157.100752 
L 119.051847 156.724733 
L 119.194354 156.430944 
L 119.40947 156.304676 
L 119.505055 156.135984 
L 119.997237 155.627593 
L 120.181541 155.286724 
L 120.329375 155.030046 
L 120.446277 154.858436 
L 120.676217 154.686431 
L 120.963439 154.197067 
L 121.203494 153.892979 
L 121.277852 153.718661 
L 121.474509 153.456425 
L 121.967659 152.752648 
L 122.203407 152.619958 
L 122.404147 152.353881 
L 122.596046 152.175978 
L 122.726413 151.908341 
L 123.112492 151.370235 
L 123.20223 151.144901 
L 123.299348 151.009382 
L 123.506882 150.737625 
L 123.659399 150.419354 
L 123.963888 150.236893 
L 124.056738 149.962389 
L 124.176345 149.778842 
L 124.272746 149.640896 
L 124.5915 149.410438 
L 124.623421 149.271833 
L 124.845488 149.040273 
L 125.138324 148.294616 
L 125.335518 147.919096 
L 125.521055 147.683478 
L 126.816688 145.43349 
L 126.914053 145.239015 
L 127.194591 144.897536 
L 127.456034 144.603672 
L 128.086106 143.864254 
L 128.195884 143.665918 
L 128.455037 143.167929 
L 128.940257 142.566255 
L 129.197843 142.415134 
L 129.246526 142.31423 
L 129.411487 142.162638 
L 129.515294 142.010762 
L 129.835757 141.757002 
L 130.06787 141.247097 
L 130.180663 140.990944 
L 131.049866 140.113975 
L 131.184784 139.90626 
L 131.466588 139.48925 
L 131.666897 139.279951 
L 132.171701 138.965005 
L 132.308449 138.859756 
L 132.760844 138.384473 
L 133.040481 138.119245 
L 133.335383 137.639695 
L 133.589966 137.479229 
L 133.749859 137.318455 
L 133.86994 137.2111 
L 133.892568 136.942107 
L 134.218971 136.72629 
L 134.727297 136.292981 
L 134.730248 136.23866 
L 135.014512 136.021024 
L 135.271595 135.748186 
L 135.339894 135.638803 
L 135.858582 135.254843 
L 136.071179 134.869132 
L 136.314924 134.53712 
L 136.560621 134.315055 
L 136.697456 134.092409 
L 137.245557 133.645363 
L 137.287546 133.420959 
L 137.671993 133.139624 
L 137.786217 133.02683 
L 138.355581 132.63088 
L 138.558323 132.4038 
L 139.089443 132.062053 
L 139.16665 131.947835 
L 139.379865 131.776224 
L 139.769239 131.259336 
L 140.176386 131.028614 
L 140.27642 130.855168 
L 140.716131 130.332742 
L 141.042143 130.041144 
L 141.073583 129.924231 
L 141.296418 129.748567 
L 141.543308 129.455007 
L 142.455315 128.924105 
L 142.48963 128.864917 
L 142.795655 128.687113 
L 142.831683 128.568377 
L 143.756418 128.151534 
L 144.371606 127.637839 
L 144.384197 127.517622 
L 145.064706 127.216363 
L 146.628158 125.939791 
L 146.721667 125.694547 
L 147.356951 125.387041 
L 147.465102 125.140274 
L 147.924916 124.644693 
L 147.995282 124.458143 
L 148.348073 124.271205 
L 148.54083 124.02135 
L 148.569063 123.958778 
L 149.188124 123.708055 
L 150.026824 123.330661 
L 150.146306 123.204513 
L 150.374996 122.951688 
L 150.548812 122.825011 
L 150.999513 122.571125 
L 151.045296 122.443916 
L 151.578607 122.252768 
L 151.698958 122.061218 
L 152.153771 121.869265 
L 152.257416 121.612698 
L 152.382218 121.419799 
L 152.63308 121.290973 
L 152.744714 121.097394 
L 153.653364 120.579177 
L 153.687311 120.449165 
L 153.93573 120.253801 
L 154.302104 119.730796 
L 154.47522 119.533903 
L 154.607067 119.270725 
L 154.690412 119.072849 
L 155.966799 118.476675 
L 156.320142 118.143807 
L 156.836318 117.876653 
L 157.772967 117.138014 
L 158.118535 116.93555 
L 158.354833 116.800331 
L 159.119429 116.597136 
L 159.474714 116.257499 
L 159.621645 115.916631 
L 159.651404 115.939229 
L 159.950801 115.665577 
L 160.061711 115.528453 
L 160.574906 115.046947 
L 160.814343 114.908922 
L 161.192967 114.493638 
L 161.690646 114.285313 
L 161.825902 114.006834 
L 161.94655 113.867289 
L 162.284078 113.727539 
L 162.341298 113.587583 
L 162.773696 113.236794 
L 163.06697 112.884713 
L 163.487286 112.743518 
L 163.656934 112.602114 
L 163.867178 111.463326 
L 165.209112 110.310935 
L 165.347193 110.238454 
L 166.091202 110.093328 
L 166.395322 109.802424 
L 166.838446 109.750597 
L 167.537393 109.60467 
L 167.613639 109.531625 
L 168.476117 109.238895 
L 168.745066 108.945284 
L 169.269126 108.724495 
L 169.867219 108.429334 
L 170.57349 108.396769 
L 171.217393 107.728519 
L 171.427857 107.653987 
L 172.012458 107.504755 
L 172.237344 107.280482 
L 172.283832 107.20561 
L 173.0752 106.905556 
L 173.49895 106.604586 
L 173.569411 106.302698 
L 174.606467 105.999887 
L 174.737334 105.848134 
L 175.096225 105.696149 
L 175.179632 105.543931 
L 175.357605 105.335016 
L 175.449539 105.105659 
L 176.20496 104.952461 
L 176.256008 104.799027 
L 176.306523 104.818739 
L 176.402106 104.741911 
L 177.243626 104.434008 
L 178.437618 103.757159 
L 178.534346 103.60173 
L 179.645339 102.977596 
L 179.758897 102.742545 
L 179.812776 102.664072 
L 180.621018 102.506944 
L 181.292293 102.034087 
L 182.193895 101.796827 
L 182.633265 101.479614 
L 183.018922 101.241052 
L 184.529989 100.497162 
L 184.755418 100.336405 
L 184.801446 100.255932 
L 184.919131 100.274349 
L 184.919264 100.193788 
L 185.336571 99.790026 
L 185.409135 99.628073 
L 187.196475 98.58701 
L 187.241048 98.423067 
L 188.279408 98.094398 
L 188.74982 97.864897 
L 188.890089 97.634662 
L 189.380327 97.386125 
L 190.138938 97.136991 
L 190.286855 96.970568 
L 190.61088 96.803878 
L 190.672923 96.720432 
L 191.110891 96.469692 
L 191.360956 96.302196 
L 192.420476 96.134429 
L 192.66428 95.798083 
L 193.051583 95.629502 
L 193.724511 95.291522 
L 193.789815 95.206856 
L 195.774642 94.132945 
L 195.933012 94.063757 
L 197.775072 93.478082 
L 197.827207 93.305394 
L 198.308597 93.045831 
L 198.348629 92.959168 
L 198.686147 92.785629 
L 199.427618 92.263298 
L 199.479661 92.088614 
L 200.130248 91.826049 
L 200.17916 91.738382 
L 201.414999 91.257605 
L 201.474831 91.16934 
L 202.544889 90.638213 
L 202.676755 90.282656 
L 205.207338 89.388525 
L 205.512961 89.118049 
L 205.523233 89.027739 
L 205.607581 89.057512 
L 205.791087 88.876538 
L 206.554409 88.604506 
L 207.507802 88.63401 
L 207.661239 88.361098 
L 208.209542 88.087494 
L 208.400998 87.904707 
L 208.921402 87.827677 
L 208.993248 87.552585 
L 209.760831 87.184707 
L 209.795093 87.000299 
L 212.076243 86.394324 
L 212.078403 86.301351 
L 212.751923 85.835292 
L 213.540211 85.004835 
L 214.101398 84.762182 
L 214.151461 84.383468 
L 214.657251 84.098573 
L 214.685628 84.003445 
L 215.174147 83.826017 
L 215.193702 83.730605 
L 215.287644 83.75672 
L 215.384103 83.674194 
L 215.451084 83.482743 
L 215.973002 83.29096 
L 217.219236 82.713608 
L 217.24767 82.61709 
L 218.260194 82.4238 
L 218.29601 82.230174 
L 218.500738 82.242679 
L 219.44446 82.04864 
L 219.478345 81.854263 
L 219.904602 81.659545 
L 220.70941 81.171257 
L 220.827327 80.975341 
L 221.013355 80.999415 
L 222.014626 80.704669 
L 222.518062 80.409144 
L 222.621334 80.124547 
L 222.71238 80.025566 
L 223.730267 79.552329 
L 224.00954 79.053518 
L 224.11239 78.953489 
L 225.27578 78.563602 
L 225.654317 78.474173 
L 226.822093 78.272798 
L 227.182902 78.081998 
L 227.585307 77.698861 
L 228.94093 77.099141 
L 228.988798 76.997068 
L 229.978684 76.516305 
L 230.413707 76.413555 
L 231.106456 76.331247 
L 231.157202 76.228227 
L 231.555882 76.248716 
L 232.366978 75.534335 
L 232.373642 75.544306 
L 232.936903 75.584281 
L 233.300892 75.375968 
L 234.437076 75.186973 
L 234.994175 74.452934 
L 235.293451 74.357202 
L 236.274448 73.963142 
L 236.294738 73.857235 
L 237.564745 73.575759 
L 237.566177 73.469282 
L 238.007678 73.371846 
L 239.544463 73.060407 
L 239.703463 72.846189 
L 239.707703 72.73893 
L 240.033817 72.649257 
L 240.073079 72.43406 
L 240.402317 72.335028 
L 242.720025 71.845627 
L 242.735581 71.62817 
L 243.584713 71.309525 
L 243.588414 71.20029 
L 243.795844 71.099172 
L 244.093989 71.107399 
L 244.42682 71.006051 
L 244.817325 71.014245 
L 246.119057 70.582703 
L 246.274639 70.362209 
L 246.303985 70.251806 
L 246.818743 70.164796 
L 246.888959 69.943176 
L 247.638529 69.60996 
L 247.959211 69.409823 
L 248.227224 69.417349 
L 248.231704 69.305657 
L 248.533567 69.313141 
L 248.699527 69.09673 
L 249.245853 68.8797 
L 249.301315 68.767326 
L 249.523171 68.654844 
L 250.199449 68.429558 
L 250.385859 68.210844 
L 250.39023 68.217853 
L 250.617645 68.22487 
L 250.625949 68.111697 
L 250.715086 68.125647 
L 251.285637 67.792002 
L 252.342197 67.477162 
L 253.063229 67.389534 
L 253.178654 67.281549 
L 253.413591 67.294831 
L 253.425116 67.179946 
L 253.63703 67.06495 
L 254.24213 67.078047 
L 254.292168 66.962834 
L 254.587937 66.96934 
L 254.705353 66.853962 
L 255.008661 66.860421 
L 255.465727 66.75129 
L 256.797195 66.53239 
L 259.4501 66.530163 
L 259.895793 66.419363 
L 260.119162 66.438383 
L 260.198477 66.203343 
L 262.106962 66.141559 
L 262.519918 65.917092 
L 262.536708 65.798435 
L 262.74779 65.804523 
L 262.850528 65.685692 
L 263.103709 65.795299 
L 263.113413 65.785898 
L 263.161966 66.176798 
L 264.099315 66.257365 
L 264.19908 66.137179 
L 264.68124 66.07681 
L 265.271102 65.827524 
L 265.344947 65.834111 
L 265.594358 65.326534 
L 265.808182 65.332872 
L 265.832247 65.203917 
L 267.004421 65.162421 
L 267.124137 65.03225 
L 267.324775 65.038491 
L 267.360936 64.908111 
L 267.500738 64.914291 
L 267.542272 64.659019 
L 269.179031 64.642999 
L 269.217002 64.378055 
L 269.305652 64.408 
L 269.676796 64.432076 
L 269.868982 64.33464 
L 269.897691 64.340644 
L 270.071557 63.949882 
L 270.28714 63.967331 
L 270.497456 63.838306 
L 270.66378 63.84407 
L 270.857246 63.71469 
L 271.113961 63.73182 
L 271.642428 63.601949 
L 271.888632 63.613267 
L 271.958598 63.477374 
L 271.961639 63.482969 
L 272.54417 63.221488 
L 272.867027 63.259882 
L 272.973014 63.128218 
L 274.07655 63.188414 
L 274.479558 62.944174 
L 275.540933 62.965791 
L 275.548146 62.826546 
L 275.628727 62.837237 
L 277.385386 62.815203 
L 277.517575 62.689772 
L 277.526043 62.695125 
L 278.381702 62.721985 
L 279.015446 62.600923 
L 279.586346 62.638404 
L 279.702437 62.500299 
L 279.778215 62.356643 
L 280.095026 62.372327 
L 280.367762 62.243746 
L 280.655177 62.114549 
L 281.065177 62.155614 
L 281.0863 62.010024 
L 281.679763 62.035467 
L 281.686841 61.889278 
L 281.768205 61.909402 
L 282.214918 61.944855 
L 282.235113 61.797545 
L 282.436564 61.807556 
L 282.663038 61.669756 
L 282.91417 61.694517 
L 283.127621 61.407022 
L 283.898749 61.455352 
L 284.093771 61.310244 
L 284.257326 61.339026 
L 284.364375 61.188327 
L 285.425383 61.136032 
L 285.534225 60.834399 
L 285.866663 60.843562 
L 285.86938 60.689888 
L 285.900091 60.703393 
L 287.334384 60.652303 
L 287.548998 60.356432 
L 288.271926 60.312129 
L 288.30672 60.151956 
L 288.355518 60.173628 
L 290.447173 60.11626 
L 290.46012 59.952629 
L 290.888414 59.978391 
L 290.973063 59.818103 
L 291.011729 59.822314 
L 291.293204 59.843458 
L 291.549677 59.690409 
L 291.610675 59.694563 
L 291.693085 59.369943 
L 292.142542 59.393722 
L 292.217586 59.226242 
L 292.87149 59.245646 
L 293.026301 58.9199 
L 293.030195 58.923586 
L 295.286577 59.059745 
L 295.398076 58.890109 
L 295.419183 58.893875 
L 295.620357 58.7273 
L 296.341012 58.74566 
L 296.449543 58.577817 
L 297.371128 58.653999 
L 297.553979 58.479469 
L 297.72802 58.493757 
L 297.733661 58.314773 
L 297.743171 58.318231 
L 298.437892 58.349574 
L 298.613024 58.172418 
L 301.762227 58.373531 
L 302.915348 58.467389 
L 303.107287 58.282463 
L 303.866669 58.334721 
L 303.954865 58.146985 
L 304.475511 58.176243 
L 304.706888 57.604182 
L 305.305813 57.65016 
L 305.332165 57.44921 
L 308.854938 57.590047 
L 308.943279 57.67319 
L 310.669931 57.770933 
L 310.801105 57.56382 
L 313.822155 57.780012 
L 315.980259 57.909612 
L 316.017609 57.672358 
L 316.074672 57.684243 
L 317.592403 57.757026 
L 317.762776 57.514489 
L 317.768728 57.522266 
L 318.363952 57.557642 
L 318.477007 57.319476 
L 319.155245 57.357256 
L 319.246669 57.115356 
L 319.288098 57.126138 
L 322.900072 57.356438 
L 323.255292 57.385263 
L 323.33276 57.116458 
L 328.287921 57.324951 
L 329.58101 57.459448 
L 330.778565 57.520768 
L 330.9031 57.230025 
L 333.747938 57.427211 
L 334.110202 57.119269 
L 334.767392 57.179696 
L 334.800193 56.855663 
L 335.584005 56.868641 
L 335.744658 56.554294 
L 336.052571 56.578185 
L 340.438355 56.774873 
L 341.945455 56.835205 
L 344.814552 56.97833 
L 345.049564 57.004284 
L 346.909621 57.090057 
L 347.096275 57.256952 
L 349.030971 57.44045 
L 351.979141 57.657925 
L 352.172937 57.216709 
L 352.623698 57.230025 
L 352.66337 56.78991 
L 352.875694 56.334714 
L 356.047944 56.513386 
L 356.096255 56.53078 
L 362.890157 57.043964 
L 362.985705 57.068215 
L 364.007251 57.160106 
L 364.031084 57.427211 
L 364.486684 57.467203 
L 364.612098 56.825776 
L 364.616621 56.85136 
L 365.994833 57.081287 
L 368.445156 57.357256 
L 369.043388 57.463166 
L 369.063412 56.703609 
L 370.703024 56.901538 
L 373.819464 57.397751 
L 373.936811 55.505056 
L 373.986211 55.527756 
L 375.531099 55.658406 
L 375.67532 55.858856 
L 376.002063 55.912381 
L 376.034453 54.745694 
L 376.059027 54.751249 
L 379.321713 54.895242 
L 381.352824 54.993277 
L 382.836529 55.135804 
L 384.210144 55.207534 
L 385.897324 55.359777 
L 386.971841 55.497606 
L 387.128699 55.558863 
L 390.529691 55.807721 
L 391.656924 55.934497 
L 393.441962 56.154069 
L 393.740888 56.236603 
L 395.414896 56.386525 
L 397.651899 56.664898 
L 397.969235 56.825776 
L 398.487273 56.91265 
L 398.487273 56.91265 
" style="fill:none;stroke:#ff7f0e;stroke-dasharray:9.6,2.4,1.5,2.4;stroke-dashoffset:0;stroke-width:1.5;"/>
   </g>
   <g id="line2d_18">
    <path clip-path="url(#p748ba57ef3)" d="M 73.832727 194.159956 
L 73.836535 194.201339 
L 73.92756 194.014593 
L 74.160008 193.686259 
L 74.65775 192.785144 
L 74.7899 192.56957 
L 74.960226 192.292899 
L 79.614787 183.739872 
L 79.735183 183.529975 
L 79.868106 183.277133 
L 79.983365 182.93836 
L 80.104514 182.711456 
L 80.601521 181.809724 
L 80.723365 181.621986 
L 80.933718 181.302964 
L 81.109471 180.93842 
L 81.245113 180.748003 
L 81.376011 180.365401 
L 81.8273 179.518279 
L 81.926401 179.368467 
L 82.163524 178.886643 
L 82.361375 178.644336 
L 82.478955 178.461992 
L 82.656703 178.187481 
L 82.842591 177.850338 
L 82.974595 177.665682 
L 83.144946 177.418634 
L 83.333228 177.232715 
L 85.417706 173.165645 
L 85.543203 172.801105 
L 86.504698 171.118256 
L 86.632573 170.964686 
L 86.90976 170.450222 
L 87.055125 170.243324 
L 87.342886 169.844978 
L 87.46272 169.671045 
L 88.146822 168.52943 
L 88.285253 168.334317 
L 88.497904 168.06735 
L 88.628266 167.870906 
L 88.717221 167.709759 
L 89.165126 166.934551 
L 89.239158 166.789355 
L 89.446041 166.406754 
L 89.597256 166.095467 
L 89.841989 165.819633 
L 90.116595 165.264653 
L 90.270214 165.060045 
L 90.799435 164.046815 
L 90.916855 163.91439 
L 91.046148 163.610766 
L 91.830555 161.897611 
L 91.88826 161.722046 
L 92.004722 161.487287 
L 92.139951 161.251754 
L 92.508794 160.77835 
L 92.618688 160.560326 
L 92.768581 160.281882 
L 92.950988 159.882229 
L 93.063868 159.68157 
L 93.786106 158.433869 
L 93.904556 158.146986 
L 93.989293 158.00312 
L 94.178829 157.569822 
L 94.524753 156.758283 
L 94.675235 156.506771 
L 95.464327 155.086598 
L 95.723544 154.721908 
L 96.380553 153.791454 
L 96.522133 153.595243 
L 97.089938 152.384974 
L 97.315324 151.984656 
L 97.578652 151.514946 
L 97.743446 151.087469 
L 97.891883 150.906763 
L 98.051909 150.634904 
L 99.876535 147.437873 
L 100.312958 146.174414 
L 100.500152 145.957841 
L 100.605752 145.740675 
L 100.727385 145.547138 
L 100.831634 145.328844 
L 101.7868 143.510978 
L 101.983928 143.287048 
L 102.186871 142.962492 
L 102.592157 142.157986 
L 102.893212 141.625658 
L 102.96616 141.472922 
L 103.784239 140.240639 
L 103.900873 140.085292 
L 104.005225 139.851719 
L 104.121983 139.617481 
L 105.542882 137.478946 
L 105.787365 137.345117 
L 105.862674 137.211074 
L 106.107643 137.049938 
L 106.353927 136.699742 
L 106.612306 136.456438 
L 106.736253 136.212428 
L 106.796194 136.022152 
L 107.092933 135.530888 
L 107.163918 135.339065 
L 107.259971 135.146807 
L 107.403683 134.981665 
L 107.894055 134.151101 
L 108.162008 133.872434 
L 108.281001 133.704796 
L 108.365722 133.620853 
L 108.57851 133.424664 
L 108.77866 133.059117 
L 108.913559 132.861635 
L 111.675638 128.250095 
L 112.686992 127.141186 
L 112.802178 126.899584 
L 112.861307 126.748248 
L 113.057803 126.596654 
L 113.178249 126.378448 
L 113.375807 126.226149 
L 113.636 125.552923 
L 113.902677 125.183561 
L 114.030538 124.93647 
L 114.441925 124.346891 
L 114.994981 123.533794 
L 116.340387 121.917353 
L 116.438546 121.757322 
L 116.625302 121.59701 
L 116.812403 121.307738 
L 117.834924 120.206623 
L 117.992269 120.010932 
L 118.4393 119.585506 
L 118.568767 119.355617 
L 118.936757 118.861066 
L 119.041885 118.695627 
L 119.131325 118.430311 
L 121.207889 116.370804 
L 121.772877 115.688984 
L 122.197817 115.449178 
L 122.271288 115.277514 
L 122.596046 115.071105 
L 122.726413 114.864245 
L 123.112492 114.449167 
L 123.20223 114.275681 
L 123.299348 114.171437 
L 123.526537 113.927756 
L 123.659399 113.718389 
L 123.963888 113.578555 
L 124.056738 113.368419 
L 124.176712 113.192952 
L 124.272746 113.122675 
L 124.594323 112.911534 
L 124.807882 112.699926 
L 124.993653 112.381636 
L 125.196454 111.955601 
L 126.142679 110.810213 
L 126.29684 110.66608 
L 127.135157 109.578204 
L 127.524966 109.212859 
L 127.82726 108.956301 
L 128.154889 108.735857 
L 128.361312 108.330416 
L 128.675685 108.034492 
L 128.788312 107.92329 
L 128.940257 107.811963 
L 129.209327 107.663329 
L 129.634737 107.365387 
L 129.870647 107.178715 
L 130.263547 106.57898 
L 130.463733 106.390814 
L 130.592161 106.277742 
L 130.820624 106.126779 
L 130.929121 106.051211 
L 131.184784 105.862039 
L 131.554839 105.482611 
L 131.666897 105.406552 
L 132.308449 105.101731 
L 132.861453 104.719388 
L 133.249649 104.335576 
L 133.335383 104.220145 
L 133.61176 104.066029 
L 133.86994 103.911676 
L 133.892568 103.718399 
L 134.298696 103.52475 
L 137.282286 101.250797 
L 137.402023 101.171466 
L 137.663767 101.052354 
L 137.786217 100.933102 
L 138.383179 100.614412 
L 138.69334 100.454692 
L 139.041761 100.294722 
L 139.924707 99.652324 
L 140.244663 99.450744 
L 140.655152 99.0869 
L 142.081372 98.192039 
L 142.736572 97.946631 
L 143.300481 97.659582 
L 143.881187 97.412904 
L 146.55231 96.146005 
L 146.721667 95.895579 
L 147.444175 95.602654 
L 147.536438 95.476862 
L 147.904636 95.224824 
L 147.995282 95.05646 
L 148.435856 94.887825 
L 148.825266 94.676649 
L 149.737124 94.422675 
L 149.75728 94.380286 
L 150.367103 94.125594 
L 150.423609 93.998016 
L 151.658686 93.486152 
L 151.698958 93.443384 
L 152.154823 93.27214 
L 152.744714 92.79978 
L 153.676084 92.41173 
L 153.687311 92.368525 
L 153.975355 92.195531 
L 154.302104 91.89211 
L 154.5424 91.718337 
L 154.85648 91.413549 
L 157.17614 90.493922 
L 158.354833 89.964846 
L 159.231187 89.787906 
L 159.27336 89.699326 
L 159.530966 89.521947 
L 160.574906 88.868783 
L 160.874723 88.734681 
L 161.007238 88.600411 
L 161.825902 88.196596 
L 163.06697 87.474961 
L 163.656934 87.293798 
L 163.867178 86.566114 
L 165.209112 85.833535 
L 165.347193 85.787585 
L 166.138246 85.64962 
L 166.395322 85.51148 
L 166.838446 85.524933 
L 167.924132 85.340409 
L 168.261323 85.24803 
L 168.665702 85.063038 
L 168.745066 85.016742 
L 169.47361 84.831359 
L 169.867219 84.692117 
L 170.57349 84.764922 
L 171.217393 84.346005 
L 173.0752 83.831822 
L 173.50044 83.597306 
L 173.569411 83.456358 
L 174.637484 83.221043 
L 175.449539 82.76137 
L 176.225288 82.619283 
L 176.256008 82.57188 
L 176.306523 82.631704 
L 176.838617 82.489382 
L 177.611061 82.204189 
L 179.65581 81.499994 
L 179.812776 81.356146 
L 180.946277 81.164059 
L 181.292293 80.971641 
L 182.291528 80.778892 
L 183.626248 80.247111 
L 183.846817 80.2702 
L 184.801446 80.038926 
L 184.919131 80.09903 
L 184.919264 80.050403 
L 185.357228 79.758196 
L 185.565846 79.660625 
L 187.196475 79.133592 
L 187.241048 79.03543 
L 188.74982 78.751416 
L 188.890089 78.663831 
L 189.380327 78.515796 
L 190.163938 78.318114 
L 191.360956 77.872063 
L 192.465981 77.722987 
L 192.778078 77.523915 
L 193.724511 77.274582 
L 193.789815 77.22465 
L 195.933012 76.704532 
L 198.087702 76.261458 
L 199.846352 75.552745 
L 200.43451 75.349445 
L 200.871419 75.308222 
L 201.233836 75.317889 
L 201.262479 75.266944 
L 201.331699 75.327564 
L 201.702459 75.1746 
L 202.355286 75.021432 
L 203.018077 74.61198 
L 203.540552 74.57007 
L 204.990457 74.504803 
L 205.078202 74.565632 
L 205.791087 74.32673 
L 206.554409 74.171822 
L 207.573112 74.190334 
L 207.993402 74.03509 
L 209.760831 73.525088 
L 209.795093 73.420965 
L 210.791913 73.386747 
L 210.941041 73.395699 
L 212.751923 72.925188 
L 213.540211 72.513934 
L 213.911352 72.522532 
L 213.954439 72.645031 
L 213.992903 72.592403 
L 214.120163 72.434377 
L 214.151461 72.328907 
L 215.287644 72.143036 
L 215.348435 72.204436 
L 215.384103 72.151504 
L 215.451084 72.045568 
L 216.221964 71.886482 
L 216.24102 71.833405 
L 217.24767 71.567657 
L 218.290957 71.407916 
L 218.29601 71.35462 
L 218.500738 71.416079 
L 219.466291 71.256051 
L 219.478345 71.202659 
L 220.705166 70.935334 
L 220.827327 70.721033 
L 221.013355 70.844083 
L 222.20644 70.629402 
L 222.233315 70.57567 
L 222.621334 70.422079 
L 223.185846 70.206515 
L 223.49653 70.214182 
L 223.561182 70.275831 
L 223.829341 70.113833 
L 224.00954 69.951611 
L 224.391072 69.843338 
L 225.27578 69.742438 
L 225.654317 69.749917 
L 227.182902 69.594446 
L 227.262951 69.485682 
L 227.32603 69.609299 
L 228.635841 69.227853 
L 228.94093 69.235124 
L 229.173581 69.125865 
L 229.223078 69.195024 
L 230.413707 69.038075 
L 231.65715 69.12179 
L 232.366978 68.854368 
L 232.373642 68.91652 
L 232.936903 69.165419 
L 233.300892 69.055386 
L 233.983249 69.062633 
L 234.437076 69.069887 
L 234.994175 68.68362 
L 235.293451 68.690712 
L 235.815245 68.642477 
L 236.059203 68.712026 
L 236.806064 68.545803 
L 237.564745 68.68506 
L 237.566177 68.629555 
L 238.007678 68.636651 
L 239.703463 68.421274 
L 239.707703 68.365588 
L 240.046716 68.379568 
L 240.073079 68.323807 
L 240.402317 68.330782 
L 241.359793 68.344752 
L 242.030514 68.47755 
L 242.188681 68.421666 
L 242.720025 68.428706 
L 242.735581 68.31681 
L 243.795844 68.162618 
L 244.817325 68.295747 
L 246.274639 68.021664 
L 246.303985 67.965366 
L 246.818743 68.098689 
L 246.819928 68.042342 
L 246.888959 67.985968 
L 247.756008 67.760205 
L 247.766986 67.703697 
L 247.78986 67.766984 
L 247.959211 67.89365 
L 248.533567 67.963909 
L 248.564715 67.907355 
L 248.592976 67.970797 
L 248.699527 67.914218 
L 250.385859 67.587609 
L 250.39023 67.651157 
L 250.922466 67.735135 
L 251.906772 67.571105 
L 251.927813 67.698621 
L 252.812222 67.82626 
L 252.81376 67.954023 
L 252.873007 67.89703 
L 253.413591 68.095918 
L 253.425116 68.038877 
L 253.63703 67.981809 
L 254.587937 68.116983 
L 254.705353 68.059865 
L 255.465727 68.131061 
L 256.617603 68.080913 
L 257.39703 68.466894 
L 257.498181 68.531333 
L 258.008584 68.724838 
L 258.102334 68.789403 
L 258.366662 68.732198 
L 258.526915 69.0555 
L 259.086943 69.185041 
L 259.4501 69.249859 
L 259.895793 69.257492 
L 260.119162 69.452234 
L 260.198477 69.337729 
L 260.963688 69.532768 
L 261.00241 69.597845 
L 261.699701 69.793265 
L 261.752017 69.735984 
L 262.106962 69.866427 
L 262.378568 69.809122 
L 262.382137 69.874393 
L 262.519918 69.882367 
L 262.536708 69.825009 
L 263.087338 70.094648 
L 263.119062 73.218024 
L 263.249544 77.590811 
L 263.753802 78.007072 
L 264.08958 78.285281 
L 264.19908 78.367456 
L 264.542696 78.716378 
L 264.629797 79.066184 
L 264.68124 79.009046 
L 265.271102 78.964762 
L 265.344947 79.034875 
L 265.39319 78.977657 
L 265.594358 78.87599 
L 266.331113 79.17002 
L 266.431141 79.451753 
L 266.457256 79.522276 
L 266.734071 79.66343 
L 266.840055 79.804728 
L 266.897397 79.747415 
L 267.004421 79.818121 
L 267.124137 79.760782 
L 267.802617 80.084642 
L 268.353008 80.596338 
L 268.410794 80.738985 
L 268.649886 80.881779 
L 269.256341 81.124574 
L 269.305652 81.339614 
L 269.478553 81.411368 
L 269.676796 81.626851 
L 269.77976 81.569417 
L 269.792519 81.641322 
L 269.972732 82.160475 
L 270.071557 82.045525 
L 270.116795 82.117777 
L 270.66378 82.349658 
L 270.857246 82.364575 
L 271.104963 82.509581 
L 271.113961 82.582141 
L 271.418615 82.524597 
L 272.657709 83.00666 
L 272.751105 83.225635 
L 273.397928 83.533757 
L 273.979647 83.827036 
L 274.07655 84.120928 
L 274.318897 84.136908 
L 274.479558 84.447753 
L 275.067111 84.669296 
L 275.628727 84.833584 
L 275.899635 84.981715 
L 275.975856 85.278442 
L 276.587391 85.650231 
L 276.602487 85.592646 
L 277.081358 85.816202 
L 277.171803 86.040112 
L 277.517575 86.581388 
L 277.605371 86.731501 
L 278.992449 87.200605 
L 279.200944 87.578001 
L 279.507939 87.72924 
L 279.702437 87.823112 
L 279.778215 87.765553 
L 280.306543 88.011305 
L 280.367762 88.163217 
L 280.581136 88.105626 
L 280.595252 88.181648 
L 280.867361 88.486142 
L 281.008721 88.714938 
L 281.065177 88.944101 
L 281.0863 88.886534 
L 281.356711 89.039524 
L 281.434003 89.192678 
L 281.705042 89.365153 
L 282.436564 90.154316 
L 282.55653 90.096749 
L 282.583801 90.173981 
L 283.898749 91.456255 
L 284.093771 91.476741 
L 284.203317 91.711122 
L 284.257326 91.945884 
L 284.364375 91.888335 
L 284.53763 92.045066 
L 284.555987 92.123496 
L 284.749962 92.280482 
L 285.425383 93.485071 
L 285.496066 93.370059 
L 285.534225 93.449321 
L 285.885266 93.629835 
L 285.900091 93.788759 
L 286.089957 93.947857 
L 286.347467 94.426195 
L 286.592998 94.665954 
L 286.680876 94.906108 
L 286.978078 95.146657 
L 287.123875 95.548453 
L 287.793069 96.021449 
L 288.355518 98.188117 
L 289.01919 98.352449 
L 289.283103 98.59929 
L 289.404702 98.764079 
L 289.468304 99.176858 
L 290.104072 99.342292 
L 290.212492 99.50791 
L 290.32386 100.089035 
L 290.391007 100.031864 
L 290.663914 100.307814 
L 291.117724 100.751785 
L 291.137821 100.919219 
L 291.293204 101.086841 
L 291.485998 101.113567 
L 291.549677 101.281487 
L 291.637481 101.476572 
L 291.693085 101.41939 
L 292.084504 101.756428 
L 292.142542 101.925232 
L 292.217586 101.868064 
L 292.560118 102.037074 
L 293.026301 102.430944 
L 293.109363 102.600752 
L 293.508665 103.281914 
L 293.630896 103.367277 
L 293.648855 103.538148 
L 293.942144 103.709214 
L 294.26574 104.22358 
L 294.294221 104.309479 
L 294.724309 104.653563 
L 295.179305 105.257604 
L 295.286577 105.603857 
L 295.315774 105.546956 
L 295.620357 105.837137 
L 296.244805 106.097995 
L 296.724713 107.001521 
L 296.835314 107.264513 
L 296.995387 107.440094 
L 297.007722 107.615878 
L 297.177525 107.791864 
L 297.371128 108.232721 
L 297.553979 108.264337 
L 297.721038 108.529644 
L 297.743171 108.650077 
L 298.076333 108.916181 
L 298.153909 109.182748 
L 298.321974 109.360717 
L 298.437892 109.44978 
L 298.613024 109.482259 
L 298.819723 109.749941 
L 299.034326 110.286708 
L 299.261658 110.915313 
L 299.493392 111.185502 
L 299.693799 111.636872 
L 299.988953 111.99892 
L 300.117467 112.089565 
L 300.218392 112.361818 
L 300.818215 112.543587 
L 300.878133 112.725568 
L 301.191338 112.998943 
L 301.208576 113.18146 
L 301.340305 113.272799 
L 301.866399 114.926146 
L 302.155851 115.295949 
L 302.162106 115.388537 
L 302.422067 115.573878 
L 302.457412 115.759438 
L 302.540598 116.503885 
L 302.653573 116.783967 
L 302.915348 116.970966 
L 303.016358 116.915145 
L 303.016916 117.008739 
L 303.141859 117.289857 
L 303.268524 117.665464 
L 304.293872 118.74206 
L 304.475511 119.3113 
L 304.527953 119.255712 
L 304.571099 119.541137 
L 304.641218 119.525214 
L 304.76526 119.906908 
L 304.970594 120.0981 
L 305.036684 120.57709 
L 305.978366 121.870653 
L 306.185236 122.355243 
L 306.883267 123.036148 
L 307.114718 123.524287 
L 307.51073 123.719959 
L 307.584212 124.013916 
L 308.395914 124.210186 
L 308.699295 125.096379 
L 308.854938 125.195146 
L 308.943279 127.583856 
L 309.220626 127.884936 
L 309.795058 128.892576 
L 309.99288 129.094854 
L 310.100067 129.297383 
L 310.336823 129.500164 
L 310.469356 129.906482 
L 311.180884 131.077435 
L 311.437646 132.208641 
L 311.720109 132.415153 
L 311.796375 132.518506 
L 311.951316 132.932566 
L 312.384564 133.139987 
L 312.891007 134.494597 
L 312.953994 134.913637 
L 313.176103 135.018563 
L 313.316729 135.438929 
L 313.494 136.071476 
L 313.690859 136.388652 
L 313.908601 136.706432 
L 314.141355 136.918622 
L 314.253124 137.343812 
L 314.506122 137.556813 
L 315.424084 139.701833 
L 315.759262 139.809805 
L 316.067111 140.189701 
L 316.18404 140.406445 
L 316.561484 141.385249 
L 317.240275 142.040943 
L 317.767036 142.317385 
L 317.768728 142.427145 
L 318.035226 142.646879 
L 318.133243 142.866896 
L 318.363952 143.418189 
L 318.433481 143.365985 
L 318.565729 143.697676 
L 318.797692 144.030013 
L 318.808531 144.251932 
L 319.224539 144.756003 
L 319.468647 145.425788 
L 319.546457 145.761665 
L 319.96272 145.985949 
L 320.070055 146.210526 
L 320.189094 146.322925 
L 320.592629 147.564186 
L 320.79815 147.790834 
L 321.28409 148.01778 
L 321.412743 148.245025 
L 321.525095 149.500238 
L 322.186775 150.534033 
L 322.549613 150.995479 
L 322.562894 151.226661 
L 322.863424 151.805962 
L 323.102331 152.620226 
L 323.33276 152.803017 
L 324.447982 153.622337 
L 324.551033 154.327669 
L 324.678643 154.445501 
L 325.373531 154.799469 
L 325.456946 154.917616 
L 325.792673 155.15415 
L 326.0518 156.341599 
L 326.155556 156.460784 
L 326.484327 156.580049 
L 326.559641 156.938329 
L 326.862872 157.297335 
L 327.376496 157.537077 
L 327.626695 157.897298 
L 327.853757 158.378732 
L 327.89763 158.499294 
L 328.202744 158.740665 
L 328.287921 158.861473 
L 328.475266 159.588046 
L 328.805685 160.195793 
L 328.966776 160.927827 
L 329.119602 161.662865 
L 329.377202 161.908548 
L 329.58101 162.524231 
L 329.910245 162.647621 
L 330.337188 163.265842 
L 330.592962 163.513726 
L 330.9031 164.335738 
L 331.148438 164.710082 
L 331.305373 165.335714 
L 331.524487 165.586573 
L 331.75583 165.963513 
L 332.173831 166.215241 
L 332.290898 166.719747 
L 332.581303 167.73297 
L 332.590903 167.86002 
L 333.107997 168.369104 
L 333.122965 168.496597 
L 333.457594 168.87961 
L 333.504572 169.135398 
L 333.667823 169.391543 
L 333.747938 169.648047 
L 333.979705 169.600892 
L 334.64919 170.8891 
L 334.767392 171.536602 
L 334.800193 171.489846 
L 335.504431 171.749544 
L 335.950659 172.614849 
L 336.052571 173.007103 
L 336.255267 173.13804 
L 336.504735 173.925606 
L 336.727954 174.188873 
L 337.159038 174.716529 
L 337.710919 175.643542 
L 337.839795 175.909252 
L 338.350912 176.175341 
L 338.359694 176.44181 
L 338.548297 176.575187 
L 338.713591 177.109649 
L 338.809765 177.511499 
L 339.19653 177.779879 
L 339.606657 178.317793 
L 340.028329 178.452513 
L 340.039676 178.722242 
L 340.319941 178.857252 
L 340.438355 179.127563 
L 340.756807 179.940833 
L 341.495909 180.212704 
L 341.945455 180.8941 
L 342.955063 181.30412 
L 343.136724 181.577961 
L 343.313701 181.852198 
L 343.316349 181.989465 
L 343.694602 182.264299 
L 343.846532 182.539531 
L 344.57618 184.616565 
L 345.041174 185.313967 
L 345.158644 185.873725 
L 345.329618 186.57573 
L 346.299098 187.139189 
L 346.351884 187.421539 
L 346.88118 187.704305 
L 346.909621 187.845843 
L 347.096275 191.996222 
L 347.312355 192.285755 
L 347.480512 192.866115 
L 347.563262 193.156944 
L 348.069112 193.739904 
L 348.263589 194.324608 
L 348.410615 194.911063 
L 348.546192 195.20495 
L 348.667539 195.646606 
L 348.877288 196.089258 
L 349.683964 196.977561 
L 349.710069 197.423218 
L 349.9091 197.571995 
L 350.117936 197.869884 
L 350.169397 198.766256 
L 350.582688 199.215969 
L 350.612663 199.666704 
L 351.07778 199.817177 
L 351.120591 199.967764 
L 351.448228 200.420211 
L 351.962733 200.722415 
L 351.979141 200.87369 
L 352.09684 200.83432 
L 352.236165 201.137299 
L 352.623698 201.288962 
L 352.66337 201.553448 
L 352.875694 201.514232 
L 353.100082 201.666328 
L 353.151101 201.970868 
L 353.475141 202.123312 
L 353.686013 202.581344 
L 353.815083 203.040428 
L 354.550657 203.34707 
L 355.005191 204.115734 
L 355.685312 205.661945 
L 355.693666 206.128134 
L 356.047944 206.595403 
L 356.096255 207.063756 
L 356.193246 207.220115 
L 356.366603 207.846762 
L 357.145557 208.475354 
L 357.491225 209.1059 
L 357.752256 209.263843 
L 357.919051 209.738408 
L 358.240411 210.214083 
L 358.52844 210.372889 
L 358.571159 210.690871 
L 359.072932 211.00935 
L 359.332771 212.448681 
L 359.574594 212.769911 
L 359.843422 213.252702 
L 359.870904 213.413885 
L 360.130697 213.736631 
L 360.249039 214.545721 
L 361.239197 215.84691 
L 361.71275 216.336978 
L 361.734427 217.156348 
L 362.0432 217.485005 
L 362.398867 218.308934 
L 362.413427 218.474113 
L 362.828186 218.970438 
L 363.443763 220.466548 
L 363.640812 220.633447 
L 363.986854 221.302377 
L 364.007251 221.469944 
L 364.031084 226.388441 
L 364.310975 226.560106 
L 364.486684 227.075937 
L 364.612098 227.044549 
L 364.722764 228.08033 
L 364.792936 228.253453 
L 364.810343 228.773665 
L 365.216497 229.817916 
L 365.289508 230.516932 
L 365.533096 230.867299 
L 366.679188 233.158746 
L 367.533387 233.691028 
L 367.688028 234.40279 
L 367.799644 234.581098 
L 368.288483 234.938156 
L 368.347958 235.83339 
L 368.530105 236.912578 
L 368.708244 237.273504 
L 368.714246 237.816018 
L 369.001017 237.997158 
L 369.234784 238.514011 
L 369.501549 239.059891 
L 370.041579 239.424572 
L 370.188006 240.155766 
L 370.229531 241.257158 
L 370.577792 241.441263 
L 370.703024 241.809937 
L 370.829432 242.179231 
L 371.358573 242.549147 
L 371.364594 242.734339 
L 371.627861 242.919686 
L 371.846672 243.66264 
L 372.016388 244.035059 
L 372.191771 245.906627 
L 372.461909 246.094657 
L 372.675268 246.659707 
L 372.87561 246.848377 
L 372.993277 247.41535 
L 373.20503 247.604663 
L 373.234942 247.794137 
L 373.411649 248.17357 
L 373.986211 249.84235 
L 374.357623 250.03392 
L 374.389273 250.609614 
L 374.834103 251.379516 
L 374.933466 251.76546 
L 375.111297 251.958682 
L 375.1288 252.345623 
L 375.249102 252.539344 
L 375.505813 252.733232 
L 375.531099 252.927287 
L 375.67532 257.04146 
L 375.922973 257.239249 
L 376.059027 258.210625 
L 376.560941 258.40953 
L 376.599366 258.608608 
L 377.226652 259.206888 
L 377.643206 260.207518 
L 378.107147 261.011187 
L 378.519869 261.212545 
L 378.539833 261.414081 
L 378.821562 261.817684 
L 379.503483 263.439223 
L 379.50709 263.642722 
L 380.058789 264.050258 
L 380.239793 264.458515 
L 380.327437 264.662915 
L 380.961168 264.867496 
L 381.706252 265.687635 
L 381.77495 266.304652 
L 382.056752 267.336676 
L 382.299478 267.750774 
L 382.678855 267.958099 
L 382.97439 269.205946 
L 383.068667 269.414571 
L 383.316889 269.623384 
L 383.38912 269.832383 
L 385.01211 270.670254 
L 385.063038 270.880191 
L 385.400956 271.300632 
L 385.403928 271.721829 
L 385.695655 272.355046 
L 385.897324 272.989975 
L 386.191286 273.201999 
L 386.226232 273.839222 
L 386.956825 274.905104 
L 387.128699 275.97582 
L 387.517437 276.190547 
L 388.412547 277.267107 
L 389.000101 277.915396 
L 389.573586 278.131887 
L 390.529691 278.999824 
L 390.729884 279.434982 
L 391.164211 279.652859 
L 391.166657 279.870936 
L 391.973125 280.526364 
L 392.748263 280.74524 
L 393.090735 280.964317 
L 393.276626 281.842637 
L 393.740888 282.945084 
L 394.956433 283.387484 
L 395.201222 283.60899 
L 395.414896 284.052616 
L 396.324637 284.71959 
L 396.464505 285.165268 
L 397.651899 285.835332 
L 397.786184 286.507259 
L 397.969235 286.731651 
L 398.439548 286.956251 
L 398.487273 287.181059 
L 398.487273 287.181059 
" style="fill:none;stroke:#2ca02c;stroke-dasharray:1.5,2.475;stroke-dashoffset:0;stroke-width:1.5;"/>
   </g>
   <g id="line2d_19">
    <defs>
     <path d="M 0 1.5 
C 0.397805 1.5 0.77937 1.341951 1.06066 1.06066 
C 1.341951 0.77937 1.5 0.397805 1.5 0 
C 1.5 -0.397805 1.341951 -0.77937 1.06066 -1.06066 
C 0.77937 -1.341951 0.397805 -1.5 0 -1.5 
C -0.397805 -1.5 -0.77937 -1.341951 -1.06066 -1.06066 
C -1.341951 -0.77937 -1.5 -0.397805 -1.5 0 
C -1.5 0.397805 -1.341951 0.77937 -1.06066 1.06066 
C -0.77937 1.341951 -0.397805 1.5 0 1.5 
z
" id="mb3a3a2b89e" style="stroke:#008000;"/>
    </defs>
    <g clip-path="url(#p748ba57ef3)">
     <use style="fill:#008000;stroke:#008000;" x="251.906772" xlink:href="#mb3a3a2b89e" y="67.571105"/>
    </g>
   </g>
   <g id="patch_3">
    <path d="M 57.6 307.584 
L 57.6 41.472 
" style="fill:none;stroke:#000000;stroke-linecap:square;stroke-linejoin:miter;stroke-width:0.8;"/>
   </g>
   <g id="patch_4">
    <path d="M 414.72 307.584 
L 414.72 41.472 
" style="fill:none;stroke:#000000;stroke-linecap:square;stroke-linejoin:miter;stroke-width:0.8;"/>
   </g>
   <g id="patch_5">
    <path d="M 57.6 307.584 
L 414.72 307.584 
" style="fill:none;stroke:#000000;stroke-linecap:square;stroke-linejoin:miter;stroke-width:0.8;"/>
   </g>
   <g id="patch_6">
    <path d="M 57.6 41.472 
L 414.72 41.472 
" style="fill:none;stroke:#000000;stroke-linecap:square;stroke-linejoin:miter;stroke-width:0.8;"/>
   </g>
   <g id="text_18">
    <!-- (3.0 0.94) -->
    <g style="fill:#008000;" transform="translate(198.845435 67.571105)scale(0.1 -0.1)">
     <defs>
      <path d="M 1984 4856 
Q 1566 4138 1362 3434 
Q 1159 2731 1159 2009 
Q 1159 1288 1364 580 
Q 1569 -128 1984 -844 
L 1484 -844 
Q 1016 -109 783 600 
Q 550 1309 550 2009 
Q 550 2706 781 3412 
Q 1013 4119 1484 4856 
L 1984 4856 
z
" id="DejaVuSans-28" transform="scale(0.015625)"/>
      <path d="M 2597 2516 
Q 3050 2419 3304 2112 
Q 3559 1806 3559 1356 
Q 3559 666 3084 287 
Q 2609 -91 1734 -91 
Q 1441 -91 1130 -33 
Q 819 25 488 141 
L 488 750 
Q 750 597 1062 519 
Q 1375 441 1716 441 
Q 2309 441 2620 675 
Q 2931 909 2931 1356 
Q 2931 1769 2642 2001 
Q 2353 2234 1838 2234 
L 1294 2234 
L 1294 2753 
L 1863 2753 
Q 2328 2753 2575 2939 
Q 2822 3125 2822 3475 
Q 2822 3834 2567 4026 
Q 2313 4219 1838 4219 
Q 1578 4219 1281 4162 
Q 984 4106 628 3988 
L 628 4550 
Q 988 4650 1302 4700 
Q 1616 4750 1894 4750 
Q 2613 4750 3031 4423 
Q 3450 4097 3450 3541 
Q 3450 3153 3228 2886 
Q 3006 2619 2597 2516 
z
" id="DejaVuSans-33" transform="scale(0.015625)"/>
      <path id="DejaVuSans-20" transform="scale(0.015625)"/>
      <path d="M 703 97 
L 703 672 
Q 941 559 1184 500 
Q 1428 441 1663 441 
Q 2288 441 2617 861 
Q 2947 1281 2994 2138 
Q 2813 1869 2534 1725 
Q 2256 1581 1919 1581 
Q 1219 1581 811 2004 
Q 403 2428 403 3163 
Q 403 3881 828 4315 
Q 1253 4750 1959 4750 
Q 2769 4750 3195 4129 
Q 3622 3509 3622 2328 
Q 3622 1225 3098 567 
Q 2575 -91 1691 -91 
Q 1453 -91 1209 -44 
Q 966 3 703 97 
z
M 1959 2075 
Q 2384 2075 2632 2365 
Q 2881 2656 2881 3163 
Q 2881 3666 2632 3958 
Q 2384 4250 1959 4250 
Q 1534 4250 1286 3958 
Q 1038 3666 1038 3163 
Q 1038 2656 1286 2365 
Q 1534 2075 1959 2075 
z
" id="DejaVuSans-39" transform="scale(0.015625)"/>
      <path d="M 513 4856 
L 1013 4856 
Q 1481 4119 1714 3412 
Q 1947 2706 1947 2009 
Q 1947 1309 1714 600 
Q 1481 -109 1013 -844 
L 513 -844 
Q 928 -128 1133 580 
Q 1338 1288 1338 2009 
Q 1338 2731 1133 3434 
Q 928 4138 513 4856 
z
" id="DejaVuSans-29" transform="scale(0.015625)"/>
     </defs>
     <use xlink:href="#DejaVuSans-28"/>
     <use x="39.013672" xlink:href="#DejaVuSans-33"/>
     <use x="102.636719" xlink:href="#DejaVuSans-2e"/>
     <use x="134.423828" xlink:href="#DejaVuSans-30"/>
     <use x="198.046875" xlink:href="#DejaVuSans-20"/>
     <use x="229.833984" xlink:href="#DejaVuSans-30"/>
     <use x="293.457031" xlink:href="#DejaVuSans-2e"/>
     <use x="325.244141" xlink:href="#DejaVuSans-39"/>
     <use x="388.867188" xlink:href="#DejaVuSans-34"/>
     <use x="452.490234" xlink:href="#DejaVuSans-29"/>
    </g>
   </g>
   <g id="legend_1">
    <g id="patch_7">
     <path d="M 64.6 302.584 
L 141.214063 302.584 
Q 143.214063 302.584 143.214063 300.584 
L 143.214063 257.549625 
Q 143.214063 255.549625 141.214063 255.549625 
L 64.6 255.549625 
Q 62.6 255.549625 62.6 257.549625 
L 62.6 300.584 
Q 62.6 302.584 64.6 302.584 
z
" style="fill:#ffffff;opacity:0.8;stroke:#cccccc;stroke-linejoin:miter;"/>
    </g>
    <g id="line2d_20">
     <path d="M 66.6 263.648062 
L 86.6 263.648062 
" style="fill:none;stroke:#1f77b4;stroke-dasharray:5.55,2.4;stroke-dashoffset:0;stroke-width:1.5;"/>
    </g>
    <g id="line2d_21"/>
    <g id="text_19">
     <!-- Precision -->
     <g transform="translate(94.6 267.148062)scale(0.1 -0.1)">
      <defs>
       <path d="M 1259 4147 
L 1259 2394 
L 2053 2394 
Q 2494 2394 2734 2622 
Q 2975 2850 2975 3272 
Q 2975 3691 2734 3919 
Q 2494 4147 2053 4147 
L 1259 4147 
z
M 628 4666 
L 2053 4666 
Q 2838 4666 3239 4311 
Q 3641 3956 3641 3272 
Q 3641 2581 3239 2228 
Q 2838 1875 2053 1875 
L 1259 1875 
L 1259 0 
L 628 0 
L 628 4666 
z
" id="DejaVuSans-50" transform="scale(0.015625)"/>
       <path d="M 3513 2113 
L 3513 0 
L 2938 0 
L 2938 2094 
Q 2938 2591 2744 2837 
Q 2550 3084 2163 3084 
Q 1697 3084 1428 2787 
Q 1159 2491 1159 1978 
L 1159 0 
L 581 0 
L 581 3500 
L 1159 3500 
L 1159 2956 
Q 1366 3272 1645 3428 
Q 1925 3584 2291 3584 
Q 2894 3584 3203 3211 
Q 3513 2838 3513 2113 
z
" id="DejaVuSans-6e" transform="scale(0.015625)"/>
      </defs>
      <use xlink:href="#DejaVuSans-50"/>
      <use x="58.552734" xlink:href="#DejaVuSans-72"/>
      <use x="97.416016" xlink:href="#DejaVuSans-65"/>
      <use x="158.939453" xlink:href="#DejaVuSans-63"/>
      <use x="213.919922" xlink:href="#DejaVuSans-69"/>
      <use x="241.703125" xlink:href="#DejaVuSans-73"/>
      <use x="293.802734" xlink:href="#DejaVuSans-69"/>
      <use x="321.585938" xlink:href="#DejaVuSans-6f"/>
      <use x="382.767578" xlink:href="#DejaVuSans-6e"/>
     </g>
    </g>
    <g id="line2d_22">
     <path d="M 66.6 278.326188 
L 86.6 278.326188 
" style="fill:none;stroke:#ff7f0e;stroke-dasharray:9.6,2.4,1.5,2.4;stroke-dashoffset:0;stroke-width:1.5;"/>
    </g>
    <g id="line2d_23"/>
    <g id="text_20">
     <!-- Recall -->
     <g transform="translate(94.6 281.826188)scale(0.1 -0.1)">
      <defs>
       <path d="M 2841 2188 
Q 3044 2119 3236 1894 
Q 3428 1669 3622 1275 
L 4263 0 
L 3584 0 
L 2988 1197 
Q 2756 1666 2539 1819 
Q 2322 1972 1947 1972 
L 1259 1972 
L 1259 0 
L 628 0 
L 628 4666 
L 2053 4666 
Q 2853 4666 3247 4331 
Q 3641 3997 3641 3322 
Q 3641 2881 3436 2590 
Q 3231 2300 2841 2188 
z
M 1259 4147 
L 1259 2491 
L 2053 2491 
Q 2509 2491 2742 2702 
Q 2975 2913 2975 3322 
Q 2975 3731 2742 3939 
Q 2509 4147 2053 4147 
L 1259 4147 
z
" id="DejaVuSans-52" transform="scale(0.015625)"/>
       <path d="M 2194 1759 
Q 1497 1759 1228 1600 
Q 959 1441 959 1056 
Q 959 750 1161 570 
Q 1363 391 1709 391 
Q 2188 391 2477 730 
Q 2766 1069 2766 1631 
L 2766 1759 
L 2194 1759 
z
M 3341 1997 
L 3341 0 
L 2766 0 
L 2766 531 
Q 2569 213 2275 61 
Q 1981 -91 1556 -91 
Q 1019 -91 701 211 
Q 384 513 384 1019 
Q 384 1609 779 1909 
Q 1175 2209 1959 2209 
L 2766 2209 
L 2766 2266 
Q 2766 2663 2505 2880 
Q 2244 3097 1772 3097 
Q 1472 3097 1187 3025 
Q 903 2953 641 2809 
L 641 3341 
Q 956 3463 1253 3523 
Q 1550 3584 1831 3584 
Q 2591 3584 2966 3190 
Q 3341 2797 3341 1997 
z
" id="DejaVuSans-61" transform="scale(0.015625)"/>
      </defs>
      <use xlink:href="#DejaVuSans-52"/>
      <use x="64.982422" xlink:href="#DejaVuSans-65"/>
      <use x="126.505859" xlink:href="#DejaVuSans-63"/>
      <use x="181.486328" xlink:href="#DejaVuSans-61"/>
      <use x="242.765625" xlink:href="#DejaVuSans-6c"/>
      <use x="270.548828" xlink:href="#DejaVuSans-6c"/>
     </g>
    </g>
    <g id="line2d_24">
     <path d="M 66.6 293.004312 
L 86.6 293.004312 
" style="fill:none;stroke:#2ca02c;stroke-dasharray:1.5,2.475;stroke-dashoffset:0;stroke-width:1.5;"/>
    </g>
    <g id="line2d_25"/>
    <g id="text_21">
     <!-- F1 score -->
     <g transform="translate(94.6 296.504312)scale(0.1 -0.1)">
      <defs>
       <path d="M 628 4666 
L 3309 4666 
L 3309 4134 
L 1259 4134 
L 1259 2759 
L 3109 2759 
L 3109 2228 
L 1259 2228 
L 1259 0 
L 628 0 
L 628 4666 
z
" id="DejaVuSans-46" transform="scale(0.015625)"/>
      </defs>
      <use xlink:href="#DejaVuSans-46"/>
      <use x="57.519531" xlink:href="#DejaVuSans-31"/>
      <use x="121.142578" xlink:href="#DejaVuSans-20"/>
      <use x="152.929688" xlink:href="#DejaVuSans-73"/>
      <use x="205.029297" xlink:href="#DejaVuSans-63"/>
      <use x="260.009766" xlink:href="#DejaVuSans-6f"/>
      <use x="321.191406" xlink:href="#DejaVuSans-72"/>
      <use x="360.054688" xlink:href="#DejaVuSans-65"/>
     </g>
    </g>
   </g>
  </g>
 </g>
 <defs>
  <clipPath id="p748ba57ef3">
   <rect height="266.112" width="357.12" x="57.6" y="41.472"/>
  </clipPath>
 </defs>
</svg>
