<?xml version="1.0" encoding="utf-8" standalone="no"?>
<!DOCTYPE svg PUBLIC "-//W3C//DTD SVG 1.1//EN"
  "http://www.w3.org/Graphics/SVG/1.1/DTD/svg11.dtd">
<svg height="345.6pt" version="1.1" viewBox="0 0 460.8 345.6" width="460.8pt" xmlns="http://www.w3.org/2000/svg" xmlns:xlink="http://www.w3.org/1999/xlink">
 <metadata>
  <rdf:RDF xmlns:cc="http://creativecommons.org/ns#" xmlns:dc="http://purl.org/dc/elements/1.1/" xmlns:rdf="http://www.w3.org/1999/02/22-rdf-syntax-ns#">
   <cc:Work>
    <dc:type rdf:resource="http://purl.org/dc/dcmitype/StillImage"/>
    <dc:date>2021-06-27T10:13:34.968894</dc:date>
    <dc:format>image/svg+xml</dc:format>
    <dc:creator>
     <cc:Agent>
      <dc:title>Matplotlib v3.4.2, https://matplotlib.org/</dc:title>
     </cc:Agent>
    </dc:creator>
   </cc:Work>
  </rdf:RDF>
 </metadata>
 <defs>
  <style type="text/css">*{stroke-linecap:butt;stroke-linejoin:round;}</style>
 </defs>
 <g id="figure_1">
  <g id="patch_1">
   <path d="M 0 345.6 
L 460.8 345.6 
L 460.8 0 
L 0 0 
z
" style="fill:#ffffff;"/>
  </g>
  <g id="axes_1">
   <g id="patch_2">
    <path d="M 57.6 307.584 
L 414.72 307.584 
L 414.72 41.472 
L 57.6 41.472 
z
" style="fill:#ffffff;"/>
   </g>
   <g id="matplotlib.axis_1">
    <g id="xtick_1">
     <g id="line2d_1">
      <defs>
       <path d="M 0 0 
L 0 3.5 
" id="m65c1ef98e2" style="stroke:#000000;stroke-width:0.8;"/>
      </defs>
      <g>
       <use style="stroke:#000000;stroke-width:0.8;" x="126.190801" xlink:href="#m65c1ef98e2" y="307.584"/>
      </g>
     </g>
     <g id="text_1">
      <!-- −10 -->
      <g transform="translate(115.638457 322.182437)scale(0.1 -0.1)">
       <defs>
        <path d="M 678 2272 
L 4684 2272 
L 4684 1741 
L 678 1741 
L 678 2272 
z
" id="DejaVuSans-2212" transform="scale(0.015625)"/>
        <path d="M 794 531 
L 1825 531 
L 1825 4091 
L 703 3866 
L 703 4441 
L 1819 4666 
L 2450 4666 
L 2450 531 
L 3481 531 
L 3481 0 
L 794 0 
L 794 531 
z
" id="DejaVuSans-31" transform="scale(0.015625)"/>
        <path d="M 2034 4250 
Q 1547 4250 1301 3770 
Q 1056 3291 1056 2328 
Q 1056 1369 1301 889 
Q 1547 409 2034 409 
Q 2525 409 2770 889 
Q 3016 1369 3016 2328 
Q 3016 3291 2770 3770 
Q 2525 4250 2034 4250 
z
M 2034 4750 
Q 2819 4750 3233 4129 
Q 3647 3509 3647 2328 
Q 3647 1150 3233 529 
Q 2819 -91 2034 -91 
Q 1250 -91 836 529 
Q 422 1150 422 2328 
Q 422 3509 836 4129 
Q 1250 4750 2034 4750 
z
" id="DejaVuSans-30" transform="scale(0.015625)"/>
       </defs>
       <use xlink:href="#DejaVuSans-2212"/>
       <use x="83.789062" xlink:href="#DejaVuSans-31"/>
       <use x="147.412109" xlink:href="#DejaVuSans-30"/>
      </g>
     </g>
    </g>
    <g id="xtick_2">
     <g id="line2d_2">
      <g>
       <use style="stroke:#000000;stroke-width:0.8;" x="194.802947" xlink:href="#m65c1ef98e2" y="307.584"/>
      </g>
     </g>
     <g id="text_2">
      <!-- −5 -->
      <g transform="translate(187.431853 322.182437)scale(0.1 -0.1)">
       <defs>
        <path d="M 691 4666 
L 3169 4666 
L 3169 4134 
L 1269 4134 
L 1269 2991 
Q 1406 3038 1543 3061 
Q 1681 3084 1819 3084 
Q 2600 3084 3056 2656 
Q 3513 2228 3513 1497 
Q 3513 744 3044 326 
Q 2575 -91 1722 -91 
Q 1428 -91 1123 -41 
Q 819 9 494 109 
L 494 744 
Q 775 591 1075 516 
Q 1375 441 1709 441 
Q 2250 441 2565 725 
Q 2881 1009 2881 1497 
Q 2881 1984 2565 2268 
Q 2250 2553 1709 2553 
Q 1456 2553 1204 2497 
Q 953 2441 691 2322 
L 691 4666 
z
" id="DejaVuSans-35" transform="scale(0.015625)"/>
       </defs>
       <use xlink:href="#DejaVuSans-2212"/>
       <use x="83.789062" xlink:href="#DejaVuSans-35"/>
      </g>
     </g>
    </g>
    <g id="xtick_3">
     <g id="line2d_3">
      <g>
       <use style="stroke:#000000;stroke-width:0.8;" x="263.415092" xlink:href="#m65c1ef98e2" y="307.584"/>
      </g>
     </g>
     <g id="text_3">
      <!-- 0 -->
      <g transform="translate(260.233842 322.182437)scale(0.1 -0.1)">
       <use xlink:href="#DejaVuSans-30"/>
      </g>
     </g>
    </g>
    <g id="xtick_4">
     <g id="line2d_4">
      <g>
       <use style="stroke:#000000;stroke-width:0.8;" x="332.027238" xlink:href="#m65c1ef98e2" y="307.584"/>
      </g>
     </g>
     <g id="text_4">
      <!-- 5 -->
      <g transform="translate(328.845988 322.182437)scale(0.1 -0.1)">
       <use xlink:href="#DejaVuSans-35"/>
      </g>
     </g>
    </g>
    <g id="xtick_5">
     <g id="line2d_5">
      <g>
       <use style="stroke:#000000;stroke-width:0.8;" x="400.639384" xlink:href="#m65c1ef98e2" y="307.584"/>
      </g>
     </g>
     <g id="text_5">
      <!-- 10 -->
      <g transform="translate(394.276884 322.182437)scale(0.1 -0.1)">
       <use xlink:href="#DejaVuSans-31"/>
       <use x="63.623047" xlink:href="#DejaVuSans-30"/>
      </g>
     </g>
    </g>
    <g id="text_6">
     <!-- Threshold -->
     <g transform="translate(211.521719 335.860562)scale(0.1 -0.1)">
      <defs>
       <path d="M -19 4666 
L 3928 4666 
L 3928 4134 
L 2272 4134 
L 2272 0 
L 1638 0 
L 1638 4134 
L -19 4134 
L -19 4666 
z
" id="DejaVuSans-54" transform="scale(0.015625)"/>
       <path d="M 3513 2113 
L 3513 0 
L 2938 0 
L 2938 2094 
Q 2938 2591 2744 2837 
Q 2550 3084 2163 3084 
Q 1697 3084 1428 2787 
Q 1159 2491 1159 1978 
L 1159 0 
L 581 0 
L 581 4863 
L 1159 4863 
L 1159 2956 
Q 1366 3272 1645 3428 
Q 1925 3584 2291 3584 
Q 2894 3584 3203 3211 
Q 3513 2838 3513 2113 
z
" id="DejaVuSans-68" transform="scale(0.015625)"/>
       <path d="M 2631 2963 
Q 2534 3019 2420 3045 
Q 2306 3072 2169 3072 
Q 1681 3072 1420 2755 
Q 1159 2438 1159 1844 
L 1159 0 
L 581 0 
L 581 3500 
L 1159 3500 
L 1159 2956 
Q 1341 3275 1631 3429 
Q 1922 3584 2338 3584 
Q 2397 3584 2469 3576 
Q 2541 3569 2628 3553 
L 2631 2963 
z
" id="DejaVuSans-72" transform="scale(0.015625)"/>
       <path d="M 3597 1894 
L 3597 1613 
L 953 1613 
Q 991 1019 1311 708 
Q 1631 397 2203 397 
Q 2534 397 2845 478 
Q 3156 559 3463 722 
L 3463 178 
Q 3153 47 2828 -22 
Q 2503 -91 2169 -91 
Q 1331 -91 842 396 
Q 353 884 353 1716 
Q 353 2575 817 3079 
Q 1281 3584 2069 3584 
Q 2775 3584 3186 3129 
Q 3597 2675 3597 1894 
z
M 3022 2063 
Q 3016 2534 2758 2815 
Q 2500 3097 2075 3097 
Q 1594 3097 1305 2825 
Q 1016 2553 972 2059 
L 3022 2063 
z
" id="DejaVuSans-65" transform="scale(0.015625)"/>
       <path d="M 2834 3397 
L 2834 2853 
Q 2591 2978 2328 3040 
Q 2066 3103 1784 3103 
Q 1356 3103 1142 2972 
Q 928 2841 928 2578 
Q 928 2378 1081 2264 
Q 1234 2150 1697 2047 
L 1894 2003 
Q 2506 1872 2764 1633 
Q 3022 1394 3022 966 
Q 3022 478 2636 193 
Q 2250 -91 1575 -91 
Q 1294 -91 989 -36 
Q 684 19 347 128 
L 347 722 
Q 666 556 975 473 
Q 1284 391 1588 391 
Q 1994 391 2212 530 
Q 2431 669 2431 922 
Q 2431 1156 2273 1281 
Q 2116 1406 1581 1522 
L 1381 1569 
Q 847 1681 609 1914 
Q 372 2147 372 2553 
Q 372 3047 722 3315 
Q 1072 3584 1716 3584 
Q 2034 3584 2315 3537 
Q 2597 3491 2834 3397 
z
" id="DejaVuSans-73" transform="scale(0.015625)"/>
       <path d="M 1959 3097 
Q 1497 3097 1228 2736 
Q 959 2375 959 1747 
Q 959 1119 1226 758 
Q 1494 397 1959 397 
Q 2419 397 2687 759 
Q 2956 1122 2956 1747 
Q 2956 2369 2687 2733 
Q 2419 3097 1959 3097 
z
M 1959 3584 
Q 2709 3584 3137 3096 
Q 3566 2609 3566 1747 
Q 3566 888 3137 398 
Q 2709 -91 1959 -91 
Q 1206 -91 779 398 
Q 353 888 353 1747 
Q 353 2609 779 3096 
Q 1206 3584 1959 3584 
z
" id="DejaVuSans-6f" transform="scale(0.015625)"/>
       <path d="M 603 4863 
L 1178 4863 
L 1178 0 
L 603 0 
L 603 4863 
z
" id="DejaVuSans-6c" transform="scale(0.015625)"/>
       <path d="M 2906 2969 
L 2906 4863 
L 3481 4863 
L 3481 0 
L 2906 0 
L 2906 525 
Q 2725 213 2448 61 
Q 2172 -91 1784 -91 
Q 1150 -91 751 415 
Q 353 922 353 1747 
Q 353 2572 751 3078 
Q 1150 3584 1784 3584 
Q 2172 3584 2448 3432 
Q 2725 3281 2906 2969 
z
M 947 1747 
Q 947 1113 1208 752 
Q 1469 391 1925 391 
Q 2381 391 2643 752 
Q 2906 1113 2906 1747 
Q 2906 2381 2643 2742 
Q 2381 3103 1925 3103 
Q 1469 3103 1208 2742 
Q 947 2381 947 1747 
z
" id="DejaVuSans-64" transform="scale(0.015625)"/>
      </defs>
      <use xlink:href="#DejaVuSans-54"/>
      <use x="61.083984" xlink:href="#DejaVuSans-68"/>
      <use x="124.462891" xlink:href="#DejaVuSans-72"/>
      <use x="163.326172" xlink:href="#DejaVuSans-65"/>
      <use x="224.849609" xlink:href="#DejaVuSans-73"/>
      <use x="276.949219" xlink:href="#DejaVuSans-68"/>
      <use x="340.328125" xlink:href="#DejaVuSans-6f"/>
      <use x="401.509766" xlink:href="#DejaVuSans-6c"/>
      <use x="429.292969" xlink:href="#DejaVuSans-64"/>
     </g>
    </g>
   </g>
   <g id="matplotlib.axis_2">
    <g id="ytick_1">
     <g id="line2d_6">
      <defs>
       <path d="M 0 0 
L -3.5 0 
" id="md4e2697595" style="stroke:#000000;stroke-width:0.8;"/>
      </defs>
      <g>
       <use style="stroke:#000000;stroke-width:0.8;" x="57.6" xlink:href="#md4e2697595" y="304.041944"/>
      </g>
     </g>
     <g id="text_7">
      <!-- 0.0 -->
      <g transform="translate(34.696875 307.841163)scale(0.1 -0.1)">
       <defs>
        <path d="M 684 794 
L 1344 794 
L 1344 0 
L 684 0 
L 684 794 
z
" id="DejaVuSans-2e" transform="scale(0.015625)"/>
       </defs>
       <use xlink:href="#DejaVuSans-30"/>
       <use x="63.623047" xlink:href="#DejaVuSans-2e"/>
       <use x="95.410156" xlink:href="#DejaVuSans-30"/>
      </g>
     </g>
    </g>
    <g id="ytick_2">
     <g id="line2d_7">
      <g>
       <use style="stroke:#000000;stroke-width:0.8;" x="57.6" xlink:href="#md4e2697595" y="253.947155"/>
      </g>
     </g>
     <g id="text_8">
      <!-- 0.2 -->
      <g transform="translate(34.696875 257.746374)scale(0.1 -0.1)">
       <defs>
        <path d="M 1228 531 
L 3431 531 
L 3431 0 
L 469 0 
L 469 531 
Q 828 903 1448 1529 
Q 2069 2156 2228 2338 
Q 2531 2678 2651 2914 
Q 2772 3150 2772 3378 
Q 2772 3750 2511 3984 
Q 2250 4219 1831 4219 
Q 1534 4219 1204 4116 
Q 875 4013 500 3803 
L 500 4441 
Q 881 4594 1212 4672 
Q 1544 4750 1819 4750 
Q 2544 4750 2975 4387 
Q 3406 4025 3406 3419 
Q 3406 3131 3298 2873 
Q 3191 2616 2906 2266 
Q 2828 2175 2409 1742 
Q 1991 1309 1228 531 
z
" id="DejaVuSans-32" transform="scale(0.015625)"/>
       </defs>
       <use xlink:href="#DejaVuSans-30"/>
       <use x="63.623047" xlink:href="#DejaVuSans-2e"/>
       <use x="95.410156" xlink:href="#DejaVuSans-32"/>
      </g>
     </g>
    </g>
    <g id="ytick_3">
     <g id="line2d_8">
      <g>
       <use style="stroke:#000000;stroke-width:0.8;" x="57.6" xlink:href="#md4e2697595" y="203.852367"/>
      </g>
     </g>
     <g id="text_9">
      <!-- 0.4 -->
      <g transform="translate(34.696875 207.651585)scale(0.1 -0.1)">
       <defs>
        <path d="M 2419 4116 
L 825 1625 
L 2419 1625 
L 2419 4116 
z
M 2253 4666 
L 3047 4666 
L 3047 1625 
L 3713 1625 
L 3713 1100 
L 3047 1100 
L 3047 0 
L 2419 0 
L 2419 1100 
L 313 1100 
L 313 1709 
L 2253 4666 
z
" id="DejaVuSans-34" transform="scale(0.015625)"/>
       </defs>
       <use xlink:href="#DejaVuSans-30"/>
       <use x="63.623047" xlink:href="#DejaVuSans-2e"/>
       <use x="95.410156" xlink:href="#DejaVuSans-34"/>
      </g>
     </g>
    </g>
    <g id="ytick_4">
     <g id="line2d_9">
      <g>
       <use style="stroke:#000000;stroke-width:0.8;" x="57.6" xlink:href="#md4e2697595" y="153.757578"/>
      </g>
     </g>
     <g id="text_10">
      <!-- 0.6 -->
      <g transform="translate(34.696875 157.556796)scale(0.1 -0.1)">
       <defs>
        <path d="M 2113 2584 
Q 1688 2584 1439 2293 
Q 1191 2003 1191 1497 
Q 1191 994 1439 701 
Q 1688 409 2113 409 
Q 2538 409 2786 701 
Q 3034 994 3034 1497 
Q 3034 2003 2786 2293 
Q 2538 2584 2113 2584 
z
M 3366 4563 
L 3366 3988 
Q 3128 4100 2886 4159 
Q 2644 4219 2406 4219 
Q 1781 4219 1451 3797 
Q 1122 3375 1075 2522 
Q 1259 2794 1537 2939 
Q 1816 3084 2150 3084 
Q 2853 3084 3261 2657 
Q 3669 2231 3669 1497 
Q 3669 778 3244 343 
Q 2819 -91 2113 -91 
Q 1303 -91 875 529 
Q 447 1150 447 2328 
Q 447 3434 972 4092 
Q 1497 4750 2381 4750 
Q 2619 4750 2861 4703 
Q 3103 4656 3366 4563 
z
" id="DejaVuSans-36" transform="scale(0.015625)"/>
       </defs>
       <use xlink:href="#DejaVuSans-30"/>
       <use x="63.623047" xlink:href="#DejaVuSans-2e"/>
       <use x="95.410156" xlink:href="#DejaVuSans-36"/>
      </g>
     </g>
    </g>
    <g id="ytick_5">
     <g id="line2d_10">
      <g>
       <use style="stroke:#000000;stroke-width:0.8;" x="57.6" xlink:href="#md4e2697595" y="103.662789"/>
      </g>
     </g>
     <g id="text_11">
      <!-- 0.8 -->
      <g transform="translate(34.696875 107.462008)scale(0.1 -0.1)">
       <defs>
        <path d="M 2034 2216 
Q 1584 2216 1326 1975 
Q 1069 1734 1069 1313 
Q 1069 891 1326 650 
Q 1584 409 2034 409 
Q 2484 409 2743 651 
Q 3003 894 3003 1313 
Q 3003 1734 2745 1975 
Q 2488 2216 2034 2216 
z
M 1403 2484 
Q 997 2584 770 2862 
Q 544 3141 544 3541 
Q 544 4100 942 4425 
Q 1341 4750 2034 4750 
Q 2731 4750 3128 4425 
Q 3525 4100 3525 3541 
Q 3525 3141 3298 2862 
Q 3072 2584 2669 2484 
Q 3125 2378 3379 2068 
Q 3634 1759 3634 1313 
Q 3634 634 3220 271 
Q 2806 -91 2034 -91 
Q 1263 -91 848 271 
Q 434 634 434 1313 
Q 434 1759 690 2068 
Q 947 2378 1403 2484 
z
M 1172 3481 
Q 1172 3119 1398 2916 
Q 1625 2713 2034 2713 
Q 2441 2713 2670 2916 
Q 2900 3119 2900 3481 
Q 2900 3844 2670 4047 
Q 2441 4250 2034 4250 
Q 1625 4250 1398 4047 
Q 1172 3844 1172 3481 
z
" id="DejaVuSans-38" transform="scale(0.015625)"/>
       </defs>
       <use xlink:href="#DejaVuSans-30"/>
       <use x="63.623047" xlink:href="#DejaVuSans-2e"/>
       <use x="95.410156" xlink:href="#DejaVuSans-38"/>
      </g>
     </g>
    </g>
    <g id="ytick_6">
     <g id="line2d_11">
      <g>
       <use style="stroke:#000000;stroke-width:0.8;" x="57.6" xlink:href="#md4e2697595" y="53.568"/>
      </g>
     </g>
     <g id="text_12">
      <!-- 1.0 -->
      <g transform="translate(34.696875 57.367219)scale(0.1 -0.1)">
       <use xlink:href="#DejaVuSans-31"/>
       <use x="63.623047" xlink:href="#DejaVuSans-2e"/>
       <use x="95.410156" xlink:href="#DejaVuSans-30"/>
      </g>
     </g>
    </g>
    <g id="text_13">
     <!-- Metrics -->
     <g transform="translate(28.617187 192.677219)rotate(-90)scale(0.1 -0.1)">
      <defs>
       <path d="M 628 4666 
L 1569 4666 
L 2759 1491 
L 3956 4666 
L 4897 4666 
L 4897 0 
L 4281 0 
L 4281 4097 
L 3078 897 
L 2444 897 
L 1241 4097 
L 1241 0 
L 628 0 
L 628 4666 
z
" id="DejaVuSans-4d" transform="scale(0.015625)"/>
       <path d="M 1172 4494 
L 1172 3500 
L 2356 3500 
L 2356 3053 
L 1172 3053 
L 1172 1153 
Q 1172 725 1289 603 
Q 1406 481 1766 481 
L 2356 481 
L 2356 0 
L 1766 0 
Q 1100 0 847 248 
Q 594 497 594 1153 
L 594 3053 
L 172 3053 
L 172 3500 
L 594 3500 
L 594 4494 
L 1172 4494 
z
" id="DejaVuSans-74" transform="scale(0.015625)"/>
       <path d="M 603 3500 
L 1178 3500 
L 1178 0 
L 603 0 
L 603 3500 
z
M 603 4863 
L 1178 4863 
L 1178 4134 
L 603 4134 
L 603 4863 
z
" id="DejaVuSans-69" transform="scale(0.015625)"/>
       <path d="M 3122 3366 
L 3122 2828 
Q 2878 2963 2633 3030 
Q 2388 3097 2138 3097 
Q 1578 3097 1268 2742 
Q 959 2388 959 1747 
Q 959 1106 1268 751 
Q 1578 397 2138 397 
Q 2388 397 2633 464 
Q 2878 531 3122 666 
L 3122 134 
Q 2881 22 2623 -34 
Q 2366 -91 2075 -91 
Q 1284 -91 818 406 
Q 353 903 353 1747 
Q 353 2603 823 3093 
Q 1294 3584 2113 3584 
Q 2378 3584 2631 3529 
Q 2884 3475 3122 3366 
z
" id="DejaVuSans-63" transform="scale(0.015625)"/>
      </defs>
      <use xlink:href="#DejaVuSans-4d"/>
      <use x="86.279297" xlink:href="#DejaVuSans-65"/>
      <use x="147.802734" xlink:href="#DejaVuSans-74"/>
      <use x="187.011719" xlink:href="#DejaVuSans-72"/>
      <use x="228.125" xlink:href="#DejaVuSans-69"/>
      <use x="255.908203" xlink:href="#DejaVuSans-63"/>
      <use x="310.888672" xlink:href="#DejaVuSans-73"/>
     </g>
    </g>
   </g>
   <g id="line2d_12">
    <path clip-path="url(#p9ace84e778)" d="M 73.832727 53.568 
L 73.949118 53.688478 
L 217.179287 53.688478 
L 217.315282 53.808956 
L 218.2613 53.808956 
L 218.395181 53.929434 
L 225.405403 53.929434 
L 225.519415 54.049912 
L 226.546633 54.049912 
L 226.585637 54.17039 
L 247.925669 54.17039 
L 248.011745 54.290869 
L 257.391018 54.290869 
L 257.474726 54.411347 
L 259.015201 54.411347 
L 259.151218 54.531825 
L 260.193576 54.531825 
L 260.279025 54.652303 
L 260.653243 54.652303 
L 260.797221 54.772781 
L 261.303335 54.772781 
L 261.349694 54.893259 
L 261.491061 54.893259 
L 261.613974 55.013737 
L 265.357217 55.013737 
L 265.505693 55.134215 
L 267.522288 55.134215 
L 267.618357 55.254693 
L 268.214754 55.254693 
L 268.330413 55.375171 
L 269.828813 55.375171 
L 269.86524 55.616127 
L 270.806063 55.616127 
L 270.813962 55.736606 
L 271.061021 55.736606 
L 271.085194 55.857084 
L 271.779419 55.857084 
L 271.906351 56.09804 
L 273.272227 56.09804 
L 273.959513 56.218518 
L 274.718878 56.218518 
L 274.751805 56.338996 
L 274.882738 56.338996 
L 275.027409 56.459474 
L 278.716287 56.459474 
L 278.980704 56.579952 
L 279.117366 56.579952 
L 279.404676 56.820908 
L 279.587329 56.820908 
L 280.430088 56.941386 
L 280.776659 56.941386 
L 280.987624 57.061865 
L 281.245485 57.061865 
L 281.435353 57.302821 
L 281.841205 57.302821 
L 282.229784 57.423299 
L 282.709639 57.423299 
L 282.747441 57.543777 
L 283.181034 57.543777 
L 283.447767 57.905211 
L 284.756537 57.905211 
L 284.844763 58.025689 
L 285.941173 58.266645 
L 286.088251 58.266645 
L 286.205448 58.507602 
L 287.09909 58.507602 
L 287.913024 58.748558 
L 288.308489 58.748558 
L 288.990676 59.23047 
L 289.462133 59.23047 
L 289.490393 59.350948 
L 289.605048 59.350948 
L 289.918354 59.471426 
L 290.112554 59.471426 
L 290.35375 59.591904 
L 290.690491 59.591904 
L 290.706886 59.712382 
L 291.086918 59.953339 
L 291.115519 60.073817 
L 291.521162 60.073817 
L 291.769695 60.314773 
L 292.078427 60.314773 
L 292.806302 60.676207 
L 293.464075 60.676207 
L 294.593835 61.15812 
L 294.672862 61.278598 
L 295.089103 61.278598 
L 295.331134 61.399076 
L 295.580513 61.399076 
L 295.656815 61.640032 
L 296.661478 61.640032 
L 297.171886 61.880988 
L 297.30591 61.880988 
L 297.352283 62.001466 
L 297.487956 62.001466 
L 298.120647 62.3629 
L 298.121018 62.483378 
L 298.939303 62.483378 
L 299.198925 62.844813 
L 299.643399 62.844813 
L 299.895633 62.965291 
L 300.468681 62.965291 
L 300.469816 63.085769 
L 300.71642 63.085769 
L 300.903473 63.447203 
L 301.388904 63.808637 
L 301.673153 63.808637 
L 301.769353 63.929116 
L 302.151872 63.929116 
L 302.189867 64.049594 
L 304.054888 64.651984 
L 304.199044 64.89294 
L 304.275922 64.89294 
L 305.817002 65.977243 
L 305.835897 66.218199 
L 306.210494 66.218199 
L 306.224767 66.338677 
L 307.127986 66.579633 
L 307.156638 66.700112 
L 307.454182 66.941068 
L 308.358613 67.663936 
L 308.83562 67.904892 
L 308.925853 76.579315 
L 309.347113 76.820271 
L 309.710268 76.820271 
L 309.805245 77.181705 
L 309.956594 77.181705 
L 310.248977 77.904574 
L 310.452361 77.904574 
L 310.720952 78.266008 
L 311.085304 78.506964 
L 311.192534 78.627442 
L 311.362556 78.627442 
L 311.519194 79.350311 
L 311.880487 79.952701 
L 312.243816 80.796048 
L 312.618769 81.037004 
L 312.62017 81.27796 
L 312.743323 81.27796 
L 313.147763 82.362263 
L 313.711159 82.723697 
L 314.035139 83.20561 
L 314.238699 83.446566 
L 314.641478 85.012781 
L 314.824724 85.374215 
L 314.855706 85.615171 
L 315.042102 85.856127 
L 315.073293 86.217562 
L 315.184564 86.217562 
L 315.280776 86.699474 
L 315.584921 87.060908 
L 315.700886 87.422343 
L 315.8434 87.422343 
L 315.990311 87.783777 
L 316.124248 88.265689 
L 316.246142 88.386167 
L 316.528786 88.627124 
L 316.639762 88.988558 
L 317.003535 89.831904 
L 317.135435 90.072861 
L 317.147029 90.313817 
L 317.306572 90.434295 
L 317.424076 90.675251 
L 317.537003 90.795729 
L 317.594508 91.036685 
L 317.910496 91.277641 
L 318.141606 91.518598 
L 318.246733 91.880032 
L 318.674751 91.880032 
L 318.715417 92.241466 
L 318.799704 92.241466 
L 318.826318 92.6029 
L 319.237419 93.084813 
L 319.341501 93.325769 
L 319.49232 93.325769 
L 319.518598 93.566725 
L 319.849954 93.807681 
L 320.065511 94.651028 
L 320.183601 95.373896 
L 320.353389 95.373896 
L 320.478483 95.614853 
L 320.535119 95.855809 
L 321.162042 96.217243 
L 321.335935 96.699155 
L 321.471009 97.542502 
L 322.188814 99.349673 
L 322.27544 99.831586 
L 322.286334 100.313498 
L 322.564657 100.554454 
L 322.609174 100.674932 
L 322.924547 100.915888 
L 323.168718 101.638757 
L 323.266245 101.879713 
L 323.27118 102.120669 
L 323.542984 102.482104 
L 323.646174 103.084494 
L 323.892149 103.807363 
L 324.162032 104.048319 
L 324.202007 104.409753 
L 324.322899 104.409753 
L 324.404339 104.650709 
L 324.533596 104.891665 
L 325.025853 106.216924 
L 325.259548 106.45788 
L 325.361393 106.698837 
L 325.529169 106.939793 
L 325.966288 107.180749 
L 326.681189 108.867442 
L 327.145882 110.433657 
L 328.139374 112.361307 
L 328.252658 112.722741 
L 328.383403 112.963697 
L 328.438793 113.325131 
L 328.51738 113.44561 
L 328.630925 113.927522 
L 328.845329 114.409434 
L 328.970189 115.011825 
L 329.054989 115.373259 
L 329.203209 115.734693 
L 329.498879 116.818996 
L 330.255941 118.144255 
L 330.480918 118.626167 
L 330.600304 118.867124 
L 330.720682 119.10808 
L 330.885688 119.349036 
L 331.51406 121.156207 
L 332.249564 123.083857 
L 332.544355 123.324813 
L 332.630865 123.565769 
L 332.752083 123.686247 
L 332.971936 124.650072 
L 333.328006 124.891028 
L 333.539636 125.734375 
L 333.754132 126.095809 
L 334.063683 127.421068 
L 334.109633 127.421068 
L 334.31935 128.505371 
L 334.385945 128.505371 
L 334.495029 129.107761 
L 334.576955 129.348717 
L 334.755413 130.914932 
L 334.89323 131.03541 
L 334.970734 131.517323 
L 335.506936 132.360669 
L 335.551493 132.601625 
L 335.650806 133.324494 
L 335.858334 134.047363 
L 336.1828 135.131665 
L 336.325495 135.734056 
L 336.437652 135.975012 
L 336.935866 137.179793 
L 337.216738 137.420749 
L 337.364016 137.782183 
L 337.439754 138.746008 
L 337.597504 139.468876 
L 337.832682 140.432701 
L 338.020669 140.914614 
L 338.167101 143.926566 
L 338.208166 143.926566 
L 338.279951 144.167522 
L 338.343506 145.372303 
L 338.422912 145.372303 
L 338.726536 146.336127 
L 338.967168 146.577084 
L 339.084475 147.058996 
L 339.263625 147.540908 
L 339.538334 148.625211 
L 339.596231 148.866167 
L 339.708807 148.866167 
L 339.819558 149.589036 
L 340.143887 150.552861 
L 340.266511 150.793817 
L 340.479475 151.275729 
L 340.569641 151.637163 
L 340.720342 155.01055 
L 340.839643 155.61294 
L 340.850944 156.094853 
L 341.009345 156.335809 
L 341.159924 156.576765 
L 341.481973 157.179155 
L 341.503566 157.299633 
L 341.684246 157.54059 
L 341.801035 157.902024 
L 341.989095 158.14298 
L 342.160873 158.745371 
L 342.277163 158.986327 
L 342.397837 159.588717 
L 342.974214 161.27541 
L 343.336287 161.998279 
L 343.566117 162.962104 
L 343.593343 163.564494 
L 343.751256 163.80545 
L 343.784864 164.046406 
L 343.904634 164.287363 
L 344.102079 164.769275 
L 344.159431 164.769275 
L 344.231373 165.010231 
L 344.849321 166.455968 
L 345.004502 167.058359 
L 345.619405 170.190789 
L 345.856207 170.431745 
L 346.216107 171.757004 
L 346.286547 171.99796 
L 346.386882 172.359394 
L 346.468571 172.479873 
L 346.565987 173.323219 
L 346.701012 173.684653 
L 346.867056 174.407522 
L 347.152492 175.13039 
L 347.187938 175.371347 
L 347.465482 175.612303 
L 347.827799 176.335171 
L 347.923961 176.696606 
L 348.108521 177.539952 
L 348.183346 178.021865 
L 348.320306 178.262821 
L 348.452594 179.226645 
L 348.604887 179.708558 
L 348.696009 180.310948 
L 348.804671 180.310948 
L 349.00745 181.033817 
L 349.216619 181.515729 
L 349.336838 181.997641 
L 349.658452 182.359076 
L 349.791859 182.72051 
L 349.943988 183.3229 
L 350.184345 183.804813 
L 350.219116 184.166247 
L 350.545869 184.648159 
L 350.660793 184.889116 
L 351.008166 186.093896 
L 351.11235 186.575809 
L 351.209188 186.816765 
L 351.254525 187.057721 
L 351.447362 187.539633 
L 351.823617 188.623936 
L 351.974729 189.105849 
L 353.009349 192.117801 
L 353.240592 192.961147 
L 353.502233 193.684016 
L 353.609916 194.286406 
L 353.72322 194.768319 
L 354.011054 195.852622 
L 354.113001 196.455012 
L 354.189606 196.57549 
L 354.312352 198.382661 
L 355.024124 199.346486 
L 355.115522 199.828398 
L 355.256715 200.551267 
L 355.37542 200.792223 
L 355.568252 201.394614 
L 355.60291 205.008956 
L 355.827894 205.37039 
L 355.954039 205.731825 
L 356.592327 207.418518 
L 356.710484 208.020908 
L 356.83804 208.261865 
L 357.083816 208.984733 
L 357.133637 209.105211 
L 357.476276 209.346167 
L 357.692414 209.707602 
L 357.811427 210.791904 
L 357.976965 211.032861 
L 358.070433 211.514773 
L 358.215402 211.755729 
L 358.216812 211.876207 
L 358.340326 212.117163 
L 358.752027 215.008637 
L 358.877233 215.249594 
L 359.005013 215.851984 
L 359.100101 215.851984 
L 359.152495 216.09294 
L 359.527885 216.695331 
L 359.578041 217.056765 
L 359.828018 217.297721 
L 360.039625 217.900112 
L 360.157629 218.141068 
L 360.159215 218.261546 
L 360.441945 218.863936 
L 360.619937 220.068717 
L 360.819496 220.671108 
L 361.033939 221.032542 
L 361.041716 221.273498 
L 361.22508 221.514454 
L 362.303802 226.092622 
L 362.386165 226.935968 
L 362.576565 227.297402 
L 362.764548 227.538359 
L 363.060367 228.622661 
L 363.299873 229.466008 
L 363.432111 230.429833 
L 363.557012 230.670789 
L 363.982891 231.87557 
L 364.297923 232.959873 
L 364.453895 233.200829 
L 364.558533 233.562263 
L 364.590276 233.682741 
L 364.753043 233.923697 
L 365.011966 234.646566 
L 365.481303 235.248956 
L 365.594823 235.851347 
L 366.467098 237.899474 
L 366.523942 238.14043 
L 366.669595 238.381386 
L 367.097075 239.224733 
L 367.265775 239.706645 
L 367.505935 240.188558 
L 367.614818 240.429514 
L 367.803022 241.393339 
L 367.882302 241.634295 
L 368.41883 241.875251 
L 368.543401 242.236685 
L 368.806432 242.477641 
L 368.900931 242.718598 
L 369.092012 242.959554 
L 369.095028 243.20051 
L 369.329484 243.441466 
L 369.424253 243.8029 
L 369.901528 244.043857 
L 369.922585 244.284813 
L 370.213659 244.646247 
L 370.217023 244.766725 
L 370.649875 245.128159 
L 370.761614 247.778677 
L 370.957334 248.26059 
L 371.048475 248.86298 
L 371.261544 248.983458 
L 371.344748 249.344892 
L 371.683412 249.706327 
L 371.796321 249.947283 
L 372.172023 250.188239 
L 372.327667 250.911108 
L 372.669449 251.874932 
L 372.959005 252.115888 
L 373.064669 252.597801 
L 373.27515 252.959235 
L 374.114044 255.127841 
L 374.522095 255.368797 
L 374.805758 255.971187 
L 375.002183 256.091665 
L 375.129011 257.05549 
L 375.213054 257.175968 
L 375.264453 257.65788 
L 375.613541 258.139793 
L 375.739351 258.983139 
L 375.922727 259.344574 
L 376.038964 259.826486 
L 376.302195 261.031267 
L 376.486319 261.272223 
L 376.691774 262.11557 
L 376.821634 262.958916 
L 377.135901 264.886566 
L 377.416388 265.248 
L 377.788935 265.729912 
L 377.912322 265.85039 
L 377.92047 266.091347 
L 378.155524 266.452781 
L 378.363793 267.296127 
L 378.78731 268.621386 
L 378.788321 268.741865 
L 379.090853 268.982821 
L 379.247495 269.464733 
L 379.497156 269.826167 
L 379.568376 270.187602 
L 380.425168 270.789992 
L 380.56051 271.271904 
L 380.728685 271.512861 
L 380.951872 271.994773 
L 381.172421 272.356207 
L 381.610793 272.958598 
L 381.835517 273.199554 
L 382.436146 274.524813 
L 382.579969 274.886247 
L 382.729916 275.488637 
L 382.822455 275.97055 
L 383.392589 276.693418 
L 383.398845 276.813896 
L 383.554555 277.054853 
L 383.590162 277.416287 
L 384.034567 278.018677 
L 384.312018 278.862024 
L 384.863524 278.982502 
L 384.888208 279.10298 
L 385.273623 279.464414 
L 385.305704 279.584892 
L 385.54227 279.825849 
L 385.870039 280.307761 
L 386.156257 280.548717 
L 386.318516 281.512542 
L 386.334414 281.63302 
L 386.751944 281.873976 
L 386.762476 281.994454 
L 386.902738 282.23541 
L 387.088478 282.596845 
L 387.17926 282.958279 
L 387.252655 283.199235 
L 387.518285 283.440191 
L 387.994161 283.681147 
L 389.114858 284.283538 
L 389.180657 284.885928 
L 389.394522 285.006406 
L 389.505897 285.488319 
L 389.651408 285.608797 
L 390.101741 286.211187 
L 390.312746 286.331665 
L 390.441058 286.934056 
L 390.739454 287.29549 
L 390.822721 287.415968 
L 391.388826 287.536446 
L 391.402982 287.777402 
L 391.74862 288.018359 
L 391.761899 288.138837 
L 392.106908 288.259315 
L 392.350324 288.741227 
L 392.66302 288.982183 
L 393.137153 289.223139 
L 394.084352 290.548398 
L 394.416078 290.789355 
L 394.967214 290.909833 
L 395.063299 291.512223 
L 395.611534 291.753179 
L 395.612064 291.994135 
L 395.741707 292.235092 
L 395.901096 292.476048 
L 396.594623 292.837482 
L 396.764248 293.560351 
L 397.059381 293.921785 
L 397.394456 293.921785 
L 397.40463 294.283219 
L 397.936001 294.765131 
L 398.250003 295.006088 
L 398.462567 295.367522 
L 398.487273 295.488 
L 398.487273 295.488 
" style="fill:none;stroke:#1f77b4;stroke-dasharray:5.55,2.4;stroke-dashoffset:0;stroke-width:1.5;"/>
   </g>
   <g id="line2d_13">
    <path clip-path="url(#p9ace84e778)" d="M 73.832727 292.105865 
L 73.949118 253.435736 
L 74.47665 253.253024 
L 74.697634 253.088948 
L 74.832097 253.014017 
L 75.607688 252.600468 
L 75.718029 252.544481 
L 76.099336 252.380916 
L 76.253982 252.288454 
L 76.895718 251.983047 
L 77.269285 251.689816 
L 78.823257 250.925825 
L 78.988899 250.806304 
L 79.606487 250.48861 
L 79.875464 250.344961 
L 81.659955 249.443722 
L 82.023792 249.242528 
L 82.413632 249.092107 
L 96.818377 241.181454 
L 97.256899 240.860971 
L 97.44167 240.707209 
L 98.363236 240.225753 
L 98.482262 240.10817 
L 99.327946 239.697173 
L 101.11483 238.539194 
L 101.259545 238.398754 
L 101.346711 238.324159 
L 101.606756 238.174461 
L 102.194978 237.805643 
L 102.591677 237.543304 
L 102.66713 237.500797 
L 102.997288 237.330222 
L 103.314729 237.08133 
L 103.617158 236.908595 
L 103.963504 236.647816 
L 104.201971 236.516665 
L 104.324347 236.402587 
L 104.586278 236.182119 
L 104.728982 236.058029 
L 105.096672 235.879967 
L 105.288264 235.718912 
L 106.137666 235.21295 
L 106.680442 234.984646 
L 108.062927 234.04667 
L 108.312292 233.886282 
L 108.417008 233.801073 
L 108.583338 233.649078 
L 109.409504 233.06351 
L 109.73693 232.869395 
L 109.976992 232.654637 
L 110.333783 232.448429 
L 110.669564 232.241026 
L 110.832383 232.151771 
L 111.969174 231.35868 
L 112.234603 231.185721 
L 112.390786 231.063137 
L 113.230542 230.371052 
L 113.527918 230.224776 
L 114.287282 229.612535 
L 181.401589 229.495273 
L 181.64204 229.076532 
L 181.840466 228.783868 
L 182.015457 228.543706 
L 182.427385 227.947667 
L 185.803555 222.217568 
L 185.895014 222.062915 
L 186.580456 220.844237 
L 186.879898 220.429919 
L 187.067976 220.065685 
L 187.171348 219.834719 
L 187.337369 219.533931 
L 187.506313 219.368956 
L 187.827317 218.856207 
L 188.017419 218.478101 
L 188.133865 218.308975 
L 188.345279 217.997167 
L 188.871584 217.164152 
L 189.006435 216.90234 
L 189.317618 216.359185 
L 189.430805 216.137054 
L 189.537432 215.913794 
L 189.61089 215.749348 
L 189.721037 215.584287 
L 189.938538 215.191679 
L 190.068632 214.933083 
L 190.239728 214.565435 
L 190.351781 214.349569 
L 190.530903 214.086041 
L 190.751718 213.617195 
L 190.859564 213.444058 
L 191.026439 213.000339 
L 191.354661 212.471772 
L 191.460875 212.213282 
L 191.591025 211.985903 
L 191.718552 211.724659 
L 192.548838 210.41272 
L 192.733286 209.989748 
L 193.255129 209.132233 
L 193.434068 208.854516 
L 194.71469 206.444934 
L 194.877833 206.059102 
L 195.10924 205.744521 
L 195.191529 205.595783 
L 195.354255 205.446594 
L 195.719913 204.845288 
L 195.866808 204.655873 
L 196.190807 204.044854 
L 197.221855 202.245571 
L 197.436385 201.885937 
L 198.111033 200.709632 
L 198.274351 200.545254 
L 198.463746 200.028184 
L 198.559865 199.736362 
L 198.844114 199.316621 
L 198.952098 199.168913 
L 199.10603 198.978388 
L 199.300216 198.445504 
L 199.471492 198.166262 
L 199.859847 197.319603 
L 200.012647 197.056362 
L 200.165305 196.813915 
L 200.744974 195.765502 
L 200.858125 195.562399 
L 200.999197 195.19944 
L 201.135355 194.879852 
L 201.289528 194.719353 
L 201.477841 194.512303 
L 201.965648 193.535605 
L 202.066095 193.300485 
L 202.250455 193.017018 
L 202.863494 191.820112 
L 203.180247 191.16299 
L 203.336013 190.769941 
L 203.526064 190.398963 
L 203.643627 190.225007 
L 204.121795 189.624521 
L 204.2896 189.397703 
L 204.442892 188.890427 
L 204.64357 188.583902 
L 204.758437 188.352934 
L 204.922897 188.095218 
L 205.076754 187.8104 
L 205.828381 186.444824 
L 206.022974 185.964618 
L 206.195299 185.696138 
L 206.405278 185.209785 
L 206.654818 184.965107 
L 206.874311 184.500177 
L 207.02969 184.169799 
L 207.165053 183.809822 
L 207.569069 183.167616 
L 207.816334 182.773338 
L 208.051243 182.205602 
L 208.159944 181.977015 
L 208.315147 181.661306 
L 208.438169 181.372876 
L 209.5177 179.255357 
L 209.720899 178.865211 
L 209.881943 178.623907 
L 210.133357 177.955497 
L 210.959225 176.315599 
L 211.078776 176.158687 
L 211.204886 175.906825 
L 211.400786 175.527165 
L 211.475504 175.368309 
L 211.62081 175.145249 
L 211.73436 174.921414 
L 211.851887 174.761056 
L 212.149496 174.245222 
L 212.343316 173.365355 
L 212.594271 173.13529 
L 213.512454 171.771333 
L 213.592422 171.501874 
L 213.722105 171.366732 
L 213.835185 171.197417 
L 214.145454 170.925613 
L 214.310818 170.378653 
L 215.046784 168.886178 
L 215.221294 168.534301 
L 215.338346 168.216042 
L 215.691471 167.50342 
L 215.876298 167.072245 
L 216.078242 166.855635 
L 216.290525 166.274645 
L 216.531912 165.872351 
L 216.733284 165.356931 
L 216.940385 165.171919 
L 217.027732 164.986412 
L 217.230218 164.792913 
L 217.404075 164.269139 
L 217.554894 164.08112 
L 217.730215 163.74141 
L 217.818599 163.476048 
L 218.013844 163.171546 
L 218.18761 162.71231 
L 218.2613 162.597033 
L 218.283306 162.626685 
L 218.395181 162.318339 
L 218.556117 162.008645 
L 218.716719 161.697595 
L 218.891609 161.306861 
L 219.122226 160.637667 
L 219.343486 160.43965 
L 219.768407 159.642081 
L 219.907674 159.481503 
L 220.03463 159.239965 
L 220.443595 158.265687 
L 220.554942 157.896945 
L 220.744941 157.526332 
L 220.903249 157.319622 
L 221.324556 156.654215 
L 221.490247 156.235262 
L 221.799451 155.729363 
L 221.910708 155.347661 
L 222.133129 155.006717 
L 222.215462 154.749981 
L 222.314501 154.621281 
L 222.541594 154.449335 
L 222.879357 153.801 
L 223.105579 153.583637 
L 223.241529 153.234546 
L 223.484405 153.059392 
L 223.763935 152.619723 
L 223.935432 152.487322 
L 224.121216 151.955396 
L 224.301769 151.643378 
L 224.572467 150.835136 
L 224.716574 150.563813 
L 224.816135 150.427791 
L 225.177058 149.881284 
L 225.288684 149.560688 
L 226.569183 147.051022 
L 226.585637 147.003564 
L 226.863194 146.813445 
L 226.972096 146.527402 
L 227.086872 146.288236 
L 227.408303 145.904057 
L 227.523509 145.566361 
L 227.790818 145.275758 
L 227.896792 145.032774 
L 229.438184 142.761919 
L 229.653691 142.46093 
L 229.723045 142.360351 
L 229.860702 142.209246 
L 229.92793 141.906189 
L 230.141416 141.601994 
L 230.247748 141.245655 
L 230.529736 140.682523 
L 230.814113 140.425264 
L 231.521717 139.492384 
L 231.736142 139.283631 
L 231.877473 138.917036 
L 232.117845 138.654182 
L 232.237341 138.496068 
L 233.018839 136.682743 
L 233.181265 136.466796 
L 233.394976 136.196077 
L 233.706494 135.924481 
L 233.902947 135.488096 
L 234.131609 135.214203 
L 234.244402 134.829254 
L 234.332933 134.608493 
L 237.210525 130.47597 
L 237.311205 130.243697 
L 237.636836 129.83572 
L 237.778226 129.660286 
L 237.788229 129.601729 
L 237.977012 129.425823 
L 238.111482 129.249562 
L 238.245906 128.955001 
L 238.815349 128.540944 
L 238.842007 128.362891 
L 239.116604 128.124924 
L 239.199626 127.946025 
L 239.648213 127.467179 
L 239.684522 127.286939 
L 239.945167 126.985721 
L 240.260987 126.440932 
L 240.356735 126.25859 
L 240.4684 126.075874 
L 240.485841 126.014884 
L 241.057999 125.831666 
L 241.217042 125.586788 
L 241.445353 125.279742 
L 242.760754 123.352219 
L 242.775478 123.289348 
L 242.954455 123.100474 
L 243.567277 122.531476 
L 243.987622 122.341014 
L 244.274793 121.831155 
L 244.367709 121.639219 
L 245.345181 119.893429 
L 245.810313 119.369722 
L 246.168274 119.04089 
L 246.514908 118.446031 
L 246.613531 118.246894 
L 246.89058 117.914047 
L 247.201777 117.446053 
L 247.582861 117.244763 
L 248.154474 116.863687 
L 248.384481 116.322318 
L 248.701089 116.050457 
L 248.74694 115.914232 
L 248.972798 115.709523 
L 248.977987 115.641187 
L 249.414083 115.298765 
L 249.467522 115.161447 
L 249.728401 114.955096 
L 250.428035 114.263989 
L 250.554787 114.05567 
L 250.980786 113.637659 
L 251.01414 113.567811 
L 251.203414 113.427962 
L 251.279752 113.147648 
L 251.496627 113.007181 
L 251.79052 112.584538 
L 252.44323 111.875961 
L 252.965066 111.662364 
L 253.097874 111.376829 
L 253.383082 110.946933 
L 253.676525 110.803207 
L 253.795648 110.659268 
L 254.028066 110.22616 
L 254.313205 109.863752 
L 254.708993 109.718409 
L 254.72721 109.645656 
L 255.037273 109.427069 
L 255.868969 108.031191 
L 256.845227 107.288444 
L 257.835328 106.48503 
L 258.454194 106.032783 
L 258.518601 105.957207 
L 258.957489 105.730132 
L 259.015201 105.654325 
L 259.151218 105.674243 
L 259.595951 105.522412 
L 259.606515 105.446409 
L 259.867035 105.294228 
L 260.101579 104.836284 
L 260.438104 104.472635 
L 260.563778 104.318884 
L 261.613974 102.747371 
L 261.856127 102.590721 
L 262.2159 101.961678 
L 263.108513 100.93106 
L 263.415092 100.851347 
L 264.535002 99.567362 
L 264.880625 99.405722 
L 266.158694 98.366599 
L 266.370879 98.121065 
L 266.565143 97.874945 
L 266.607366 97.710537 
L 266.998503 97.380934 
L 267.143668 97.215738 
L 267.457935 97.050277 
L 267.775844 96.735854 
L 268.330413 96.336753 
L 268.372727 96.25327 
L 268.768625 96.086103 
L 269.192042 95.667006 
L 269.375734 95.498894 
L 269.558607 95.077425 
L 269.670696 94.739021 
L 269.828813 94.569407 
L 269.863138 94.602661 
L 269.86524 94.517696 
L 270.219908 94.347558 
L 270.38643 94.091833 
L 270.562761 93.835484 
L 270.991954 93.423095 
L 271.085194 93.267302 
L 271.584203 93.094959 
L 272.30001 92.347744 
L 272.778173 92.173725 
L 272.976435 91.824827 
L 273.191845 91.649947 
L 273.272227 91.474778 
L 273.738528 91.402694 
L 274.263947 90.874835 
L 274.738125 90.71368 
L 274.751805 90.625272 
L 275.027409 90.552124 
L 275.370382 90.374881 
L 275.437679 90.286149 
L 275.903161 90.108463 
L 275.926994 89.930482 
L 276.33224 89.573629 
L 276.658767 89.394757 
L 276.800707 89.215586 
L 276.897299 88.946267 
L 277.017177 88.676273 
L 277.468719 88.495899 
L 277.88048 88.134245 
L 278.176334 87.680467 
L 279.575644 86.625475 
L 279.587329 86.44138 
L 280.065166 86.455303 
L 280.066929 86.363105 
L 280.087603 86.27083 
L 280.338628 86.086043 
L 280.430088 85.900942 
L 280.776659 85.715527 
L 280.902632 85.636336 
L 280.987624 85.264106 
L 281.717605 84.917366 
L 281.841205 84.73 
L 282.229784 84.649491 
L 283.065537 84.192227 
L 283.239394 84.016508 
L 283.756693 83.948065 
L 283.817763 83.758574 
L 284.56076 83.378612 
L 284.844763 83.200928 
L 285.319776 83.131073 
L 285.897823 82.93989 
L 285.941173 82.748377 
L 286.205448 82.581685 
L 286.944221 82.293074 
L 287.09909 82.196704 
L 287.514995 82.125082 
L 288.042392 81.641181 
L 288.065735 81.544147 
L 288.471292 81.361963 
L 288.783928 81.276749 
L 288.800221 81.179301 
L 288.859948 81.191385 
L 288.961994 81.105871 
L 288.990676 81.008178 
L 289.354834 80.714584 
L 289.605048 80.235266 
L 289.864334 80.148458 
L 290.112554 79.75341 
L 290.35375 79.764966 
L 290.991725 79.490558 
L 290.991856 79.502028 
L 291.521162 79.015442 
L 291.769695 79.038041 
L 292.078427 78.537365 
L 292.663218 78.470225 
L 293.464075 77.966266 
L 293.941115 77.876071 
L 294.05799 77.68439 
L 294.386314 77.390555 
L 294.593835 77.197617 
L 294.672862 77.208237 
L 294.952077 77.004159 
L 295.089103 76.799712 
L 295.331134 76.707774 
L 295.801981 76.420636 
L 296.146543 75.905423 
L 296.474152 75.8021 
L 296.661478 75.595174 
L 296.984595 75.511473 
L 297.171886 75.40769 
L 297.487956 75.001364 
L 297.793539 75.011125 
L 298.444859 74.622 
L 298.445037 74.517146 
L 299.763 74.134439 
L 299.948555 73.605916 
L 300.435516 73.393825 
L 300.654916 72.97742 
L 300.903473 72.576666 
L 301.159963 72.487024 
L 301.186737 72.379673 
L 301.388904 72.388398 
L 302.048193 72.074207 
L 302.189867 71.974922 
L 303.038375 71.892515 
L 303.354392 71.675958 
L 303.393096 71.567527 
L 304.455346 71.173947 
L 305.363451 71.105884 
L 305.39178 70.99637 
L 305.520272 71.004568 
L 305.567125 70.894903 
L 305.824841 70.817621 
L 305.835897 70.707557 
L 306.224767 70.495114 
L 307.743667 70.440533 
L 307.85748 70.2266 
L 307.863147 70.234517 
L 308.326874 69.692932 
L 308.358613 69.581124 
L 308.65879 69.588768 
L 308.833741 69.364732 
L 308.840369 69.170114 
L 308.925853 69.703586 
L 309.195322 69.719594 
L 310.720952 67.931194 
L 311.192534 67.833905 
L 311.468578 67.750549 
L 311.612995 67.764904 
L 311.742811 67.65954 
L 311.785063 67.666686 
L 311.924876 67.560958 
L 312.235721 67.483219 
L 312.243816 67.362587 
L 312.62017 67.390783 
L 312.78754 67.276804 
L 312.929749 67.297873 
L 313.147763 67.08973 
L 313.349931 67.103648 
L 313.902417 66.764458 
L 314.403661 66.689301 
L 314.403874 66.566129 
L 314.427385 66.586396 
L 314.60775 66.627121 
L 314.722731 66.510025 
L 314.771265 66.516784 
L 314.807465 66.392685 
L 314.855706 66.412818 
L 315.431465 66.355354 
L 315.611669 66.124741 
L 315.700886 66.138008 
L 316.004525 65.912503 
L 316.203746 65.938726 
L 316.246142 65.81221 
L 316.497052 65.825236 
L 316.602917 65.704916 
L 316.62326 65.711382 
L 316.683133 65.724335 
L 316.825614 65.476216 
L 316.952099 65.501716 
L 316.984267 65.373949 
L 317.003535 65.380276 
L 317.576386 65.315295 
L 317.594508 65.186532 
L 318.389399 65.101199 
L 319.099685 64.891169 
L 319.100862 64.897339 
L 319.341501 64.915892 
L 319.518598 64.797559 
L 319.749286 64.809852 
L 319.896444 64.553699 
L 319.925974 64.565758 
L 320.055205 64.452181 
L 320.065511 64.458171 
L 320.183601 64.494252 
L 320.486412 64.379825 
L 321.361691 64.458171 
L 321.471009 64.202648 
L 322.560935 64.217402 
L 322.564657 64.08137 
L 322.609174 64.087337 
L 322.896545 64.099291 
L 322.924547 63.962882 
L 322.990404 63.980641 
L 324.170095 64.124927 
L 324.322899 63.720389 
L 324.323177 63.726271 
L 324.572095 63.749868 
L 324.768663 63.62778 
L 324.922988 63.668936 
L 325.025853 63.528367 
L 325.431943 63.557577 
L 325.49209 63.275152 
L 325.529169 63.280856 
L 326.174378 63.315217 
L 326.380298 63.184542 
L 327.499528 63.201613 
L 327.504834 63.05679 
L 327.59588 63.0625 
L 327.66906 62.923051 
L 328.056938 62.956987 
L 328.139374 62.816735 
L 328.182275 62.827946 
L 328.404104 62.861741 
L 328.51738 62.720519 
L 328.540516 62.731681 
L 328.616563 62.74287 
L 328.704439 62.600985 
L 328.853798 62.628676 
L 328.970189 62.199717 
L 329.384842 62.269328 
L 329.563245 61.833952 
L 329.71178 61.849422 
L 329.782331 61.400206 
L 330.494942 61.459429 
L 330.636939 61.15812 
L 331.038155 61.201492 
L 331.195753 61.051964 
L 331.208668 61.061492 
L 331.84185 61.124018 
L 331.940913 60.977519 
L 333.275008 61.083852 
L 333.47775 60.790053 
L 334.063683 60.866579 
L 334.109633 60.544065 
L 334.204572 60.58127 
L 334.385945 60.260691 
L 334.388726 60.269644 
L 334.545855 60.287623 
L 334.563523 60.124029 
L 334.607588 60.150536 
L 334.748647 60.016516 
L 334.755413 60.020888 
L 335.572398 60.100608 
L 335.573187 59.933066 
L 335.650806 59.941821 
L 336.008873 59.990409 
L 336.143505 59.829849 
L 336.524298 59.882469 
L 336.612426 59.715677 
L 336.635691 59.719992 
L 338.020669 59.879438 
L 338.101276 59.990409 
L 338.272638 59.641211 
L 338.316862 59.686164 
L 338.343506 59.690696 
L 338.490314 59.518383 
L 338.495237 59.522804 
L 339.596231 59.640096 
L 339.818746 59.477203 
L 339.819558 59.481703 
L 339.892249 59.499774 
L 339.991725 59.12557 
L 340.031472 59.134088 
L 340.292487 59.155496 
L 340.307987 58.966976 
L 340.380896 58.975302 
L 340.545193 58.987838 
L 340.554731 58.798314 
L 340.635971 58.909861 
L 341.088351 58.973912 
L 341.248953 58.782029 
L 342.083378 58.849689 
L 342.241954 58.658934 
L 342.565658 58.704873 
L 342.635678 58.507503 
L 342.654613 58.519709 
L 342.790635 58.523791 
L 342.809603 58.321218 
L 342.861339 58.329075 
L 344.102079 58.45426 
L 344.231373 58.253737 
L 345.392927 58.397471 
L 345.537901 58.19824 
L 345.802253 58.21871 
L 345.814059 58.001167 
L 345.911044 58.016916 
L 347.829854 58.210705 
L 348.004991 57.999103 
L 348.153109 58.028173 
L 348.155213 57.797391 
L 348.183346 57.805341 
L 348.696009 57.882384 
L 348.884399 57.654427 
L 348.889119 57.658353 
L 351.00009 57.843158 
L 351.008166 57.595722 
L 351.11235 57.611979 
L 351.445637 57.64489 
L 351.447362 57.393977 
L 351.543375 57.401785 
L 354.247247 57.756527 
L 354.575496 57.789471 
L 354.706707 57.521366 
L 355.5003 57.617232 
L 355.568252 57.332348 
L 355.60291 57.467594 
L 356.830948 57.592921 
L 356.83804 57.29252 
L 356.931665 57.31574 
L 358.445589 57.466427 
L 359.005013 57.607902 
L 359.152495 57.286237 
L 360.318399 57.389378 
L 360.417219 57.046805 
L 360.512986 57.076038 
L 362.303802 57.380389 
L 362.386165 57.421445 
L 363.924098 57.660712 
L 363.938045 57.257469 
L 364.005462 57.281782 
L 366.472465 57.615155 
L 366.489654 57.171942 
L 366.523942 57.178435 
L 366.743697 57.198057 
L 366.87227 56.300443 
L 366.976233 56.320461 
L 370.649875 56.604048 
L 370.839321 56.751991 
L 371.704229 56.86371 
L 371.760015 56.320461 
L 371.796321 56.326524 
L 372.985982 56.460309 
L 375.213054 56.746603 
L 375.371999 56.787459 
L 375.428409 56.795757 
L 375.538337 56.156878 
L 375.638497 56.183916 
L 378.434362 56.831504 
L 378.444463 56.023627 
L 378.543524 56.039782 
L 381.125039 56.382314 
L 385.305704 57.215679 
L 386.227995 57.421445 
L 386.334414 57.543777 
L 386.736827 57.586299 
L 386.751944 56.261268 
L 386.762476 56.275826 
L 389.151457 56.6413 
L 389.180657 56.679478 
L 389.651408 56.799922 
L 390.822721 57.146199 
L 391.74862 57.278725 
L 391.761899 57.306417 
L 392.350324 57.451317 
L 392.652763 57.512472 
L 392.66302 55.555888 
L 393.645362 55.708803 
L 396.668426 56.290543 
L 396.764248 56.414295 
L 397.059381 56.514752 
L 397.40463 53.568 
L 398.487273 53.568 
L 398.487273 53.568 
" style="fill:none;stroke:#ff7f0e;stroke-dasharray:9.6,2.4,1.5,2.4;stroke-dashoffset:0;stroke-width:1.5;"/>
   </g>
   <g id="line2d_14">
    <path clip-path="url(#p9ace84e778)" d="M 73.832727 281.255644 
L 73.949118 219.848341 
L 74.286952 219.711929 
L 74.52443 219.547649 
L 74.863523 219.230985 
L 75.210858 219.023183 
L 75.294174 218.946734 
L 75.530022 218.807382 
L 75.778468 218.555395 
L 76.089731 218.400668 
L 80.750882 215.10818 
L 80.959429 214.940711 
L 81.352013 214.688321 
L 81.508999 214.511566 
L 81.578109 214.44221 
L 81.781066 214.310911 
L 81.898725 214.217998 
L 82.512458 213.860041 
L 82.82467 213.664299 
L 83.056797 213.491343 
L 83.251041 213.380935 
L 83.512233 213.135498 
L 83.892893 212.82483 
L 84.117845 212.672708 
L 84.401994 212.431479 
L 84.864318 212.148431 
L 85.197158 211.847301 
L 85.475319 211.667314 
L 85.592981 211.535971 
L 85.978202 211.214255 
L 86.408776 210.948606 
L 86.698698 210.781802 
L 86.897665 210.622783 
L 86.98537 210.538871 
L 87.263273 210.395874 
L 87.432816 210.243989 
L 87.875253 210.032217 
L 88.831196 209.382518 
L 88.949401 209.279112 
L 89.893567 208.583924 
L 90.037678 208.469991 
L 90.367471 208.241308 
L 90.488262 208.153061 
L 90.674363 208.055802 
L 90.788029 207.922857 
L 91.024271 207.780643 
L 91.475396 207.468077 
L 91.737573 207.252571 
L 92.237801 206.845893 
L 92.313508 206.764147 
L 92.564108 206.61848 
L 92.815334 206.417475 
L 93.455453 205.920565 
L 93.635302 205.846518 
L 95.995847 204.303541 
L 96.108609 204.198312 
L 96.394707 203.948703 
L 96.510195 203.833077 
L 96.928566 203.426275 
L 97.502923 202.918016 
L 97.794879 202.721162 
L 98.164019 202.444276 
L 98.423057 202.255525 
L 98.923681 201.936038 
L 99.182347 201.755444 
L 99.306284 201.674975 
L 99.704871 201.372084 
L 100.047364 201.006241 
L 100.275566 200.812104 
L 100.516527 200.555543 
L 104.24314 197.592439 
L 105.010712 196.946295 
L 105.231952 196.758659 
L 105.358752 196.625815 
L 105.609876 196.414803 
L 105.728591 196.336852 
L 105.922081 196.20296 
L 106.017032 196.113514 
L 106.579304 195.833034 
L 106.800537 195.585004 
L 112.8302 190.584755 
L 113.051433 190.336896 
L 114.238608 189.359812 
L 114.287282 189.296606 
L 181.396043 189.182658 
L 181.787608 188.442865 
L 181.977189 188.095218 
L 182.099249 187.952983 
L 182.261119 187.680474 
L 182.374855 187.432813 
L 182.563896 187.000151 
L 182.914746 186.20521 
L 183.050623 186.004784 
L 184.140637 183.698625 
L 184.254938 183.545392 
L 184.422735 183.125495 
L 184.613429 182.843934 
L 185.141148 181.848059 
L 185.267626 181.704453 
L 185.803555 180.704301 
L 185.887655 180.543343 
L 186.232968 179.613339 
L 186.42976 179.315163 
L 186.967143 178.533177 
L 187.179742 177.986033 
L 187.98244 176.597073 
L 188.159692 176.268566 
L 188.290946 176.064355 
L 188.41021 175.875272 
L 188.785173 175.129286 
L 188.963483 174.857319 
L 189.180221 174.342254 
L 189.337392 174.148045 
L 189.453961 173.871916 
L 189.91381 172.920932 
L 190.066812 172.622968 
L 190.206987 172.306977 
L 190.34 172.006212 
L 190.653249 171.434338 
L 190.859463 171.010671 
L 190.953234 170.68687 
L 191.026439 170.515814 
L 191.354661 169.948203 
L 191.460875 169.671257 
L 191.589924 169.445395 
L 191.718552 169.148888 
L 192.55173 167.735841 
L 195.283303 162.605842 
L 195.388783 162.45194 
L 195.603225 162.143128 
L 195.773497 161.891226 
L 195.923733 161.579961 
L 196.12965 161.247745 
L 196.714123 160.162233 
L 196.834706 159.963091 
L 197.221855 159.301995 
L 197.426556 158.979275 
L 197.698181 158.512836 
L 197.859988 158.145699 
L 197.952932 157.920424 
L 198.227568 157.653291 
L 198.556127 156.804361 
L 198.711377 156.554028 
L 199.140693 155.966594 
L 199.245071 155.628812 
L 199.518698 155.119239 
L 199.624811 154.884513 
L 199.741413 154.670483 
L 200.05867 154.067919 
L 200.157775 153.916517 
L 200.42054 153.482252 
L 200.910497 152.517969 
L 201.135355 152.008979 
L 201.289528 151.85339 
L 201.477841 151.652878 
L 201.965648 150.710126 
L 202.066095 150.48394 
L 202.260298 150.188898 
L 203.096568 148.650138 
L 203.321705 148.114785 
L 203.44769 147.834004 
L 203.547294 147.669748 
L 203.673458 147.505145 
L 204.010358 147.056616 
L 204.320578 146.629316 
L 205.022668 145.381723 
L 205.149251 145.091003 
L 205.859285 143.942019 
L 205.973739 143.645995 
L 206.173847 143.423257 
L 206.384233 142.926062 
L 210.01101 136.629639 
L 210.103586 136.359967 
L 210.363246 135.980964 
L 210.91905 134.94355 
L 211.166192 134.585699 
L 211.566164 133.921056 
L 211.73436 133.670469 
L 211.851887 133.530935 
L 212.153526 133.054804 
L 212.343316 132.321437 
L 212.619438 132.094519 
L 212.767974 131.923936 
L 213.01723 131.638878 
L 213.235992 131.46739 
L 213.340875 131.324222 
L 213.431327 131.180816 
L 213.592422 130.720314 
L 213.726335 130.575903 
L 213.912608 130.402292 
L 214.145454 130.228334 
L 214.310818 129.762736 
L 215.046784 128.498991 
L 215.222286 128.172758 
L 215.529647 127.666188 
L 215.67735 127.396821 
L 215.787355 127.096557 
L 216.034867 126.825446 
L 216.139243 126.644243 
L 216.264741 126.371742 
L 216.869934 125.426688 
L 217.103027 125.211896 
L 217.404075 124.681702 
L 217.591361 124.495997 
L 217.706471 124.309907 
L 219.431448 121.431265 
L 219.62881 121.174384 
L 219.935392 120.755406 
L 220.060001 120.561384 
L 220.622314 119.421348 
L 220.83959 119.158777 
L 221.204059 118.697475 
L 221.569687 118.167446 
L 221.745082 118.034465 
L 221.877521 117.600959 
L 222.192184 117.131841 
L 222.314501 116.963726 
L 222.558051 116.795308 
L 222.825321 116.457562 
L 222.879357 116.322122 
L 223.115232 116.118595 
L 223.363526 115.846538 
L 223.625165 115.539531 
L 223.763935 115.402761 
L 223.941884 115.265793 
L 224.021258 115.059968 
L 224.114729 114.922501 
L 224.25591 114.750387 
L 224.733622 113.745912 
L 225.029485 113.501853 
L 225.154647 113.36211 
L 225.936649 112.222998 
L 226.185922 111.903891 
L 226.429502 111.405386 
L 226.569183 111.212338 
L 226.585637 111.176542 
L 226.863391 110.997366 
L 226.977388 110.781914 
L 229.381475 108.047619 
L 229.860702 107.602935 
L 229.92793 107.379835 
L 230.142327 107.118912 
L 230.268265 106.857294 
L 230.46121 106.519906 
L 230.923982 106.143674 
L 232.31839 104.700824 
L 232.691423 104.125469 
L 232.834602 103.817253 
L 233.018839 103.585467 
L 233.256139 103.353144 
L 233.261841 103.314371 
L 233.780577 102.886877 
L 234.231584 102.340154 
L 234.372811 102.065677 
L 234.649957 101.869163 
L 234.807733 101.632842 
L 235.022827 101.474988 
L 235.348508 101.158539 
L 235.553944 100.960255 
L 235.74546 100.761584 
L 236.106512 100.402995 
L 236.285594 100.203231 
L 236.661737 99.842667 
L 237.636836 98.753282 
L 237.937144 98.550267 
L 238.143534 98.265371 
L 239.117603 97.529139 
L 239.568265 97.200232 
L 239.65639 97.035385 
L 239.945167 96.787621 
L 240.452682 96.207193 
L 240.485841 96.124009 
L 241.131132 95.957442 
L 241.492156 95.539853 
L 241.508315 95.498002 
L 241.911291 95.288494 
L 242.46902 94.615232 
L 242.760754 94.319312 
L 242.775478 94.276969 
L 243.02158 94.107428 
L 243.350854 93.852602 
L 244.053356 93.511869 
L 245.512869 91.878187 
L 245.855351 91.617916 
L 245.93662 91.531018 
L 246.296027 91.313459 
L 246.613531 90.92073 
L 247.159478 90.526547 
L 247.201777 90.394829 
L 247.88922 90.174937 
L 248.011745 90.1019 
L 248.306553 89.925455 
L 248.384481 89.704489 
L 248.701089 89.527387 
L 248.74694 89.438726 
L 249.363692 89.127836 
L 249.467522 88.949779 
L 249.809558 88.771427 
L 249.864357 88.682141 
L 250.872801 88.055053 
L 251.01414 87.920202 
L 251.218727 87.785182 
L 251.279752 87.649993 
L 251.528961 87.514635 
L 251.625411 87.333895 
L 251.919424 87.152852 
L 251.935322 87.107544 
L 252.408686 86.88072 
L 252.44323 86.835299 
L 253.033844 86.653422 
L 253.251846 86.425646 
L 254.215732 85.647628 
L 254.313205 85.555731 
L 254.883377 85.371704 
L 255.082344 85.187366 
L 255.282992 85.002718 
L 255.986241 84.353987 
L 256.414302 84.167929 
L 256.845227 83.934913 
L 257.474726 83.526961 
L 258.183542 83.339409 
L 259.151218 83.022967 
L 259.859198 82.834465 
L 259.992976 82.551108 
L 260.61235 82.184407 
L 260.797221 82.006558 
L 263.108513 80.303983 
L 263.415092 80.255628 
L 264.535002 79.479098 
L 265.164132 79.284122 
L 265.357217 79.137669 
L 265.505693 79.148781 
L 265.869271 79.00208 
L 266.155229 78.855187 
L 266.230708 78.708102 
L 266.565143 78.51169 
L 266.607366 78.413355 
L 267.457935 78.019158 
L 267.775844 77.881605 
L 268.846068 77.446187 
L 268.933893 77.346824 
L 269.429407 77.147838 
L 269.828813 76.648841 
L 269.863138 76.769217 
L 269.86524 76.719201 
L 270.316925 76.569021 
L 270.51836 76.368471 
L 270.806063 76.167568 
L 270.813962 76.227823 
L 271.085194 76.086864 
L 271.651158 75.9357 
L 271.906351 75.753469 
L 272.813263 75.500434 
L 273.272227 75.14524 
L 273.738528 75.154826 
L 274.263947 74.849372 
L 275.736794 74.561804 
L 275.926994 74.408237 
L 276.33224 74.203161 
L 276.746574 74.049113 
L 277.017177 73.688865 
L 277.468719 73.58573 
L 277.921905 73.327486 
L 277.938805 73.224027 
L 278.594668 72.913091 
L 279.117366 72.765935 
L 279.318382 72.835226 
L 279.587329 72.574917 
L 280.087603 72.531327 
L 280.339818 72.374725 
L 280.776659 72.21791 
L 280.876873 72.278647 
L 280.910237 72.17399 
L 280.987624 72.016826 
L 281.342238 72.025167 
L 281.356877 72.08597 
L 281.435353 72.033515 
L 283.410464 71.645784 
L 283.447767 71.706749 
L 284.539275 71.442731 
L 284.56076 71.336956 
L 284.844763 71.292095 
L 285.313391 71.414197 
L 285.319776 71.361231 
L 285.905616 71.202187 
L 286.088251 71.096038 
L 286.205448 71.165166 
L 287.913024 70.808489 
L 288.471292 70.656195 
L 288.783928 70.664023 
L 288.800221 70.610557 
L 288.859948 70.671858 
L 288.936563 70.733187 
L 288.961994 70.6797 
L 288.990676 70.626189 
L 289.395596 70.411898 
L 289.490393 70.312295 
L 289.605048 70.258589 
L 289.864334 70.266263 
L 290.112554 70.051099 
L 290.35375 70.112539 
L 290.991725 70.073887 
L 291.100708 70.143057 
L 291.115519 70.089113 
L 291.521162 69.927134 
L 291.769695 70.050354 
L 292.078427 69.779906 
L 292.663218 69.910816 
L 293.464075 69.639643 
L 293.941115 69.647092 
L 294.05799 69.600191 
L 295.580513 69.248124 
L 295.656815 69.31741 
L 296.133217 69.043774 
L 296.146543 68.98897 
L 297.30354 68.728727 
L 297.30591 68.673722 
L 297.352283 68.735817 
L 297.487956 68.680787 
L 298.032157 68.687859 
L 298.04286 68.63278 
L 298.120647 68.757125 
L 298.121018 68.819341 
L 298.85709 68.598785 
L 298.996986 68.605835 
L 299.198925 68.73043 
L 299.88246 68.571725 
L 299.948555 68.405667 
L 300.469816 68.24628 
L 300.790618 68.204555 
L 300.811308 68.267037 
L 300.83545 68.155848 
L 300.903473 68.100215 
L 301.186737 68.113937 
L 301.388904 68.176516 
L 302.189867 68.078787 
L 303.239068 68.155261 
L 303.728839 67.987609 
L 303.901311 68.11318 
L 303.91523 68.057247 
L 304.097988 68.06412 
L 304.275922 68.071 
L 305.363451 68.392819 
L 305.39178 68.336792 
L 305.770527 68.470067 
L 305.817002 68.413992 
L 305.824841 68.540365 
L 305.835897 68.484266 
L 306.210494 68.371989 
L 306.224767 68.435226 
L 307.454182 68.695693 
L 307.863147 68.83715 
L 308.129772 68.731893 
L 308.261103 68.795473 
L 308.273712 68.739153 
L 308.358613 68.626434 
L 308.80728 68.633651 
L 308.833741 68.577225 
L 308.84084 68.782864 
L 308.925853 73.192637 
L 309.303407 73.268198 
L 309.347113 73.211815 
L 309.956594 73.071113 
L 310.148979 73.345491 
L 310.248977 73.411778 
L 310.270021 73.355196 
L 310.720952 73.214223 
L 311.377314 73.366605 
L 311.519194 73.699782 
L 313.504834 75.058552 
L 313.69592 74.944602 
L 313.711159 75.01226 
L 314.35628 75.690699 
L 314.403661 75.633711 
L 314.403874 75.576694 
L 314.427385 75.780903 
L 315.073293 76.761196 
L 315.184564 76.704147 
L 315.191348 76.772842 
L 315.280776 76.979132 
L 315.491762 76.990903 
L 315.50926 76.933812 
L 315.563918 77.002685 
L 315.700886 77.278524 
L 315.934448 77.233339 
L 316.076025 77.579125 
L 316.203746 77.717684 
L 316.246142 77.660546 
L 316.62326 77.880941 
L 316.742628 78.032307 
L 316.825614 77.975104 
L 317.36763 78.755324 
L 317.424076 78.698101 
L 318.229805 79.272354 
L 318.246733 79.3427 
L 318.674751 79.228175 
L 318.715417 79.439448 
L 318.799704 79.382151 
L 318.811665 79.452651 
L 318.826318 79.593758 
L 319.272309 79.947158 
L 319.341501 80.017946 
L 319.49232 79.960651 
L 319.518598 80.102343 
L 319.96694 80.356314 
L 320.183601 80.997794 
L 320.450184 81.011904 
L 320.535119 81.226513 
L 321.236421 81.513173 
L 321.427184 82.175102 
L 321.471009 82.117757 
L 322.188814 83.203734 
L 322.27544 83.494757 
L 322.286334 83.786385 
L 322.969726 84.126344 
L 323.104306 84.346301 
L 323.270809 84.640114 
L 323.27118 84.713663 
L 323.542984 84.934541 
L 323.646174 85.303442 
L 323.892149 85.7474 
L 324.170095 85.969904 
L 324.189477 85.912667 
L 324.202007 86.061206 
L 324.309444 86.003948 
L 324.322899 85.94666 
L 324.323177 86.020997 
L 324.793683 86.559826 
L 324.922988 87.008585 
L 325.025853 86.951305 
L 325.259548 87.101216 
L 325.361393 87.251286 
L 325.431943 87.32638 
L 325.449969 87.269094 
L 325.49209 87.211777 
L 325.529169 87.28692 
L 325.966288 87.437327 
L 326.460868 87.907705 
L 326.549203 87.983253 
L 327.121961 89.426307 
L 327.145882 89.369076 
L 327.213927 89.445436 
L 327.321814 89.598279 
L 328.385612 90.886937 
L 328.51738 91.061681 
L 328.616563 91.371574 
L 328.630925 91.314343 
L 328.845329 91.624925 
L 328.970004 91.89964 
L 328.970189 91.842366 
L 329.067295 92.154527 
L 329.203209 92.31086 
L 329.384842 92.859361 
L 329.437445 92.823407 
L 329.773465 93.123684 
L 329.782331 93.066338 
L 330.041299 93.30305 
L 330.144787 93.461073 
L 330.462963 93.69843 
L 330.494942 94.015511 
L 330.540197 93.958205 
L 330.600304 93.900868 
L 330.636939 93.980258 
L 330.928523 94.377861 
L 332.249564 96.591233 
L 332.544355 96.753163 
L 332.630865 96.915271 
L 332.752083 96.996392 
L 332.971936 97.646979 
L 333.412025 97.859124 
L 333.539636 98.268179 
L 333.754132 98.514158 
L 334.063683 99.419597 
L 334.109633 99.305506 
L 334.121752 99.388108 
L 334.204572 99.967616 
L 334.242335 99.91058 
L 334.486072 100.268909 
L 334.607588 100.878964 
L 334.70401 101.156641 
L 334.755413 101.492109 
L 334.89323 101.576093 
L 334.970734 101.912506 
L 335.506936 102.503056 
L 335.55777 102.841563 
L 335.650806 103.123983 
L 335.940525 103.804902 
L 336.232743 104.432163 
L 336.935866 105.753054 
L 337.294352 106.012773 
L 337.705265 107.755689 
L 338.020669 108.458484 
L 338.167101 110.61959 
L 338.208166 110.563379 
L 338.272638 110.652759 
L 338.343506 111.639387 
L 338.422912 111.58326 
L 338.726536 112.304872 
L 338.967168 112.485803 
L 339.084475 112.848301 
L 339.263625 113.211649 
L 339.538334 114.032307 
L 339.596231 114.215266 
L 339.708807 114.159401 
L 339.710626 114.250972 
L 340.143887 115.334786 
L 340.266511 115.519544 
L 340.380896 115.741331 
L 340.569641 116.056457 
L 340.720342 118.677739 
L 340.839643 119.150453 
L 340.850944 119.529645 
L 341.009345 119.719582 
L 341.088351 119.909747 
L 341.159924 119.854436 
L 341.481973 120.330911 
L 341.638179 120.521902 
L 342.640151 122.818914 
L 342.654613 123.013099 
L 342.946569 123.347238 
L 343.170545 123.737314 
L 343.487805 124.324215 
L 343.542714 124.422241 
L 343.593343 125.307171 
L 343.751256 125.504485 
L 343.784864 125.70204 
L 343.904634 125.899838 
L 344.102079 126.296162 
L 344.159431 126.241588 
L 344.16347 126.340835 
L 344.321973 126.738433 
L 344.599421 127.336666 
L 344.849321 127.636613 
L 345.004502 128.13776 
L 345.619405 130.714911 
L 345.880544 130.967339 
L 346.152188 131.890059 
L 346.286547 132.198787 
L 346.386882 132.508096 
L 346.468571 132.611329 
L 346.565987 133.33577 
L 346.701012 133.647221 
L 346.867056 134.271888 
L 347.152492 134.898921 
L 347.187938 135.10846 
L 347.465482 135.318264 
L 347.827799 135.949269 
L 347.923961 136.212493 
L 348.108521 136.953227 
L 348.183346 137.324957 
L 348.320306 137.537775 
L 348.452594 138.391765 
L 348.604887 138.820397 
L 348.696009 139.357731 
L 348.804671 139.304999 
L 348.820981 139.412689 
L 348.967873 139.844144 
L 349.499045 141.036371 
L 349.666795 141.254047 
L 349.819235 141.690242 
L 350.187267 142.566016 
L 350.337876 142.895601 
L 350.432267 143.11568 
L 350.660793 143.446333 
L 351.00009 144.553169 
L 351.008166 144.501286 
L 351.11235 144.946116 
L 351.209188 145.168967 
L 351.254525 145.392107 
L 351.445637 145.839264 
L 351.447362 145.78758 
L 351.823617 146.798144 
L 351.974729 147.2492 
L 353.009349 150.095339 
L 353.240592 150.900713 
L 353.502233 151.594015 
L 353.609916 152.173882 
L 353.72322 152.639167 
L 354.011054 153.690606 
L 354.113001 154.277477 
L 354.189606 154.395087 
L 354.312352 156.168737 
L 354.575496 156.406578 
L 354.650782 156.356836 
L 354.655722 156.4759 
L 354.858595 156.714268 
L 355.059283 157.191972 
L 355.256715 158.271539 
L 355.37542 158.512337 
L 355.5003 159.115764 
L 355.568252 159.066536 
L 355.60291 162.731318 
L 355.827894 163.101951 
L 355.954039 163.473348 
L 356.592327 165.216717 
L 356.710484 165.843444 
L 356.83804 166.046944 
L 357.083816 166.803096 
L 357.133637 166.929427 
L 357.476276 167.182354 
L 357.692414 167.562405 
L 357.811427 168.707331 
L 357.976965 168.962737 
L 358.070433 169.474621 
L 358.215402 169.7311 
L 358.216812 169.859474 
L 358.340326 170.116493 
L 358.752027 173.22905 
L 358.877233 173.490815 
L 359.005013 174.146849 
L 359.100101 174.100819 
L 359.152495 174.363945 
L 359.527885 175.023394 
L 359.578041 175.420189 
L 359.828018 175.68519 
L 360.039625 176.349345 
L 360.157629 176.615671 
L 360.159215 176.748976 
L 360.441945 177.371645 
L 360.619937 178.715068 
L 360.819496 179.390402 
L 360.961515 179.661216 
L 361.041527 179.932421 
L 361.041716 180.068169 
L 361.22508 180.33996 
L 362.303802 185.579487 
L 362.386165 186.560578 
L 362.576565 186.982588 
L 362.764548 187.264445 
L 363.060367 188.537938 
L 363.299873 189.534284 
L 363.432111 190.679292 
L 363.557012 190.966605 
L 363.982891 192.368038 
L 364.297923 193.676278 
L 364.453895 193.968193 
L 364.558533 194.406884 
L 364.590276 194.553334 
L 364.753043 194.846562 
L 365.011966 195.728887 
L 365.477928 196.319316 
L 365.594823 197.208295 
L 366.467098 199.749039 
L 366.523942 200.010625 
L 366.669595 200.312233 
L 366.743697 200.463209 
L 366.87227 200.384412 
L 366.976233 200.989807 
L 367.097075 201.293197 
L 367.265775 201.901367 
L 367.505935 202.511397 
L 367.614818 202.817113 
L 367.803022 204.044669 
L 367.882302 204.352737 
L 368.41883 204.661279 
L 368.543401 205.124982 
L 368.806432 205.434713 
L 368.900931 205.744922 
L 369.092012 206.05561 
L 369.095028 206.366777 
L 369.329484 206.678425 
L 369.424253 207.146801 
L 369.861196 207.303169 
L 370.062297 207.929849 
L 370.213659 208.243919 
L 370.217023 208.401137 
L 370.649875 208.873523 
L 370.761614 212.371621 
L 370.957334 213.014129 
L 371.048475 213.820107 
L 371.261544 213.981683 
L 371.344748 214.467174 
L 371.683412 214.953814 
L 371.796321 215.243838 
L 372.110367 215.406615 
L 372.206119 215.895716 
L 372.327667 216.54966 
L 372.669449 217.863781 
L 372.925347 218.028634 
L 373.326232 219.518228 
L 373.421015 219.684399 
L 373.487067 220.350411 
L 373.677616 220.851318 
L 374.114044 222.361285 
L 374.522095 222.698316 
L 374.805758 223.54327 
L 375.002183 223.71267 
L 375.129011 225.072794 
L 375.213054 225.243429 
L 375.264453 225.927348 
L 375.613541 226.582064 
L 375.739351 227.788582 
L 375.913566 228.134566 
L 376.070896 229.349959 
L 376.716833 233.215429 
L 376.821634 233.570315 
L 377.135901 236.430622 
L 377.416388 236.971167 
L 377.679453 237.513061 
L 377.912322 237.875077 
L 377.92047 238.237697 
L 378.12246 238.600922 
L 378.788321 242.240794 
L 379.090853 242.610914 
L 379.247495 243.353027 
L 379.483585 243.725025 
L 379.568376 244.470909 
L 379.942859 244.844799 
L 379.95203 245.031981 
L 380.425168 245.406822 
L 380.56051 246.158416 
L 380.728685 246.535171 
L 380.951872 247.290608 
L 381.172421 247.858876 
L 381.610793 248.809228 
L 381.803392 248.999786 
L 381.882905 249.381392 
L 382.01811 249.763651 
L 382.279521 251.106729 
L 382.524891 251.491951 
L 382.714129 252.457909 
L 382.822455 253.622567 
L 383.392589 254.793278 
L 383.398845 254.988988 
L 383.554555 255.380918 
L 383.590162 255.970089 
L 384.034567 256.955459 
L 384.312018 258.342202 
L 384.863524 258.541001 
L 384.888208 258.739973 
L 385.273623 259.337933 
L 385.305704 259.537602 
L 385.54227 259.937465 
L 385.870039 260.739297 
L 386.137712 260.940194 
L 386.334414 262.958916 
L 386.711143 263.161768 
L 386.902738 263.957255 
L 387.088478 264.569291 
L 387.17926 265.182955 
L 387.252655 265.592971 
L 387.493143 265.798253 
L 387.518285 266.003716 
L 387.994161 266.415192 
L 389.114858 267.447087 
L 389.180657 268.48359 
L 389.394522 268.691446 
L 389.505897 269.52473 
L 389.651408 269.733517 
L 390.101741 270.780263 
L 390.312746 270.990176 
L 390.441058 272.042574 
L 390.666814 272.46486 
L 390.822721 272.887907 
L 391.388826 273.099717 
L 391.402982 273.52391 
L 391.74862 273.948869 
L 391.761899 274.161636 
L 392.106908 274.374596 
L 392.350324 275.228365 
L 392.652763 275.656411 
L 392.66302 275.643538 
L 393.034308 275.857943 
L 393.388742 276.717514 
L 393.401515 276.932895 
L 394.257064 278.663023 
L 394.416078 278.880178 
L 394.967214 279.097531 
L 395.063299 280.187283 
L 395.611534 280.624582 
L 395.612064 281.062683 
L 395.741707 281.501589 
L 395.901096 281.941302 
L 396.594623 282.602389 
L 396.764248 283.930054 
L 397.059381 284.596647 
L 397.394456 284.587657 
L 397.40463 285.256398 
L 397.936001 286.150948 
L 398.250003 286.599469 
L 398.404071 287.048823 
L 398.487273 287.499014 
L 398.487273 287.499014 
" style="fill:none;stroke:#2ca02c;stroke-dasharray:1.5,2.475;stroke-dashoffset:0;stroke-width:1.5;"/>
   </g>
   <g id="line2d_15">
    <defs>
     <path d="M 0 1.5 
C 0.397805 1.5 0.77937 1.341951 1.06066 1.06066 
C 1.341951 0.77937 1.5 0.397805 1.5 0 
C 1.5 -0.397805 1.341951 -0.77937 1.06066 -1.06066 
C 0.77937 -1.341951 0.397805 -1.5 0 -1.5 
C -0.397805 -1.5 -0.77937 -1.341951 -1.06066 -1.06066 
C -1.341951 -0.77937 -1.5 -0.397805 -1.5 0 
C -1.5 0.397805 -1.341951 0.77937 -1.06066 1.06066 
C -0.77937 1.341951 -0.397805 1.5 0 1.5 
z
" id="m94312f40f0" style="stroke:#008000;"/>
    </defs>
    <g clip-path="url(#p9ace84e778)">
     <use style="fill:#008000;stroke:#008000;" x="303.728839" xlink:href="#m94312f40f0" y="67.987609"/>
    </g>
   </g>
   <g id="patch_3">
    <path d="M 57.6 307.584 
L 57.6 41.472 
" style="fill:none;stroke:#000000;stroke-linecap:square;stroke-linejoin:miter;stroke-width:0.8;"/>
   </g>
   <g id="patch_4">
    <path d="M 414.72 307.584 
L 414.72 41.472 
" style="fill:none;stroke:#000000;stroke-linecap:square;stroke-linejoin:miter;stroke-width:0.8;"/>
   </g>
   <g id="patch_5">
    <path d="M 57.6 307.584 
L 414.72 307.584 
" style="fill:none;stroke:#000000;stroke-linecap:square;stroke-linejoin:miter;stroke-width:0.8;"/>
   </g>
   <g id="patch_6">
    <path d="M 57.6 41.472 
L 414.72 41.472 
" style="fill:none;stroke:#000000;stroke-linecap:square;stroke-linejoin:miter;stroke-width:0.8;"/>
   </g>
   <g id="text_14">
    <!-- (2.94 0.94) -->
    <g style="fill:#008000;" transform="translate(269.422766 67.987609)scale(0.1 -0.1)">
     <defs>
      <path d="M 1984 4856 
Q 1566 4138 1362 3434 
Q 1159 2731 1159 2009 
Q 1159 1288 1364 580 
Q 1569 -128 1984 -844 
L 1484 -844 
Q 1016 -109 783 600 
Q 550 1309 550 2009 
Q 550 2706 781 3412 
Q 1013 4119 1484 4856 
L 1984 4856 
z
" id="DejaVuSans-28" transform="scale(0.015625)"/>
      <path d="M 703 97 
L 703 672 
Q 941 559 1184 500 
Q 1428 441 1663 441 
Q 2288 441 2617 861 
Q 2947 1281 2994 2138 
Q 2813 1869 2534 1725 
Q 2256 1581 1919 1581 
Q 1219 1581 811 2004 
Q 403 2428 403 3163 
Q 403 3881 828 4315 
Q 1253 4750 1959 4750 
Q 2769 4750 3195 4129 
Q 3622 3509 3622 2328 
Q 3622 1225 3098 567 
Q 2575 -91 1691 -91 
Q 1453 -91 1209 -44 
Q 966 3 703 97 
z
M 1959 2075 
Q 2384 2075 2632 2365 
Q 2881 2656 2881 3163 
Q 2881 3666 2632 3958 
Q 2384 4250 1959 4250 
Q 1534 4250 1286 3958 
Q 1038 3666 1038 3163 
Q 1038 2656 1286 2365 
Q 1534 2075 1959 2075 
z
" id="DejaVuSans-39" transform="scale(0.015625)"/>
      <path id="DejaVuSans-20" transform="scale(0.015625)"/>
      <path d="M 513 4856 
L 1013 4856 
Q 1481 4119 1714 3412 
Q 1947 2706 1947 2009 
Q 1947 1309 1714 600 
Q 1481 -109 1013 -844 
L 513 -844 
Q 928 -128 1133 580 
Q 1338 1288 1338 2009 
Q 1338 2731 1133 3434 
Q 928 4138 513 4856 
z
" id="DejaVuSans-29" transform="scale(0.015625)"/>
     </defs>
     <use xlink:href="#DejaVuSans-28"/>
     <use x="39.013672" xlink:href="#DejaVuSans-32"/>
     <use x="102.636719" xlink:href="#DejaVuSans-2e"/>
     <use x="134.423828" xlink:href="#DejaVuSans-39"/>
     <use x="198.046875" xlink:href="#DejaVuSans-34"/>
     <use x="261.669922" xlink:href="#DejaVuSans-20"/>
     <use x="293.457031" xlink:href="#DejaVuSans-30"/>
     <use x="357.080078" xlink:href="#DejaVuSans-2e"/>
     <use x="388.867188" xlink:href="#DejaVuSans-39"/>
     <use x="452.490234" xlink:href="#DejaVuSans-34"/>
     <use x="516.113281" xlink:href="#DejaVuSans-29"/>
    </g>
   </g>
   <g id="legend_1">
    <g id="patch_7">
     <path d="M 197.852969 302.584 
L 274.467031 302.584 
Q 276.467031 302.584 276.467031 300.584 
L 276.467031 257.549625 
Q 276.467031 255.549625 274.467031 255.549625 
L 197.852969 255.549625 
Q 195.852969 255.549625 195.852969 257.549625 
L 195.852969 300.584 
Q 195.852969 302.584 197.852969 302.584 
z
" style="fill:#ffffff;opacity:0.8;stroke:#cccccc;stroke-linejoin:miter;"/>
    </g>
    <g id="line2d_16">
     <path d="M 199.852969 263.648062 
L 219.852969 263.648062 
" style="fill:none;stroke:#1f77b4;stroke-dasharray:5.55,2.4;stroke-dashoffset:0;stroke-width:1.5;"/>
    </g>
    <g id="line2d_17"/>
    <g id="text_15">
     <!-- Precision -->
     <g transform="translate(227.852969 267.148062)scale(0.1 -0.1)">
      <defs>
       <path d="M 1259 4147 
L 1259 2394 
L 2053 2394 
Q 2494 2394 2734 2622 
Q 2975 2850 2975 3272 
Q 2975 3691 2734 3919 
Q 2494 4147 2053 4147 
L 1259 4147 
z
M 628 4666 
L 2053 4666 
Q 2838 4666 3239 4311 
Q 3641 3956 3641 3272 
Q 3641 2581 3239 2228 
Q 2838 1875 2053 1875 
L 1259 1875 
L 1259 0 
L 628 0 
L 628 4666 
z
" id="DejaVuSans-50" transform="scale(0.015625)"/>
       <path d="M 3513 2113 
L 3513 0 
L 2938 0 
L 2938 2094 
Q 2938 2591 2744 2837 
Q 2550 3084 2163 3084 
Q 1697 3084 1428 2787 
Q 1159 2491 1159 1978 
L 1159 0 
L 581 0 
L 581 3500 
L 1159 3500 
L 1159 2956 
Q 1366 3272 1645 3428 
Q 1925 3584 2291 3584 
Q 2894 3584 3203 3211 
Q 3513 2838 3513 2113 
z
" id="DejaVuSans-6e" transform="scale(0.015625)"/>
      </defs>
      <use xlink:href="#DejaVuSans-50"/>
      <use x="58.552734" xlink:href="#DejaVuSans-72"/>
      <use x="97.416016" xlink:href="#DejaVuSans-65"/>
      <use x="158.939453" xlink:href="#DejaVuSans-63"/>
      <use x="213.919922" xlink:href="#DejaVuSans-69"/>
      <use x="241.703125" xlink:href="#DejaVuSans-73"/>
      <use x="293.802734" xlink:href="#DejaVuSans-69"/>
      <use x="321.585938" xlink:href="#DejaVuSans-6f"/>
      <use x="382.767578" xlink:href="#DejaVuSans-6e"/>
     </g>
    </g>
    <g id="line2d_18">
     <path d="M 199.852969 278.326188 
L 219.852969 278.326188 
" style="fill:none;stroke:#ff7f0e;stroke-dasharray:9.6,2.4,1.5,2.4;stroke-dashoffset:0;stroke-width:1.5;"/>
    </g>
    <g id="line2d_19"/>
    <g id="text_16">
     <!-- Recall -->
     <g transform="translate(227.852969 281.826188)scale(0.1 -0.1)">
      <defs>
       <path d="M 2841 2188 
Q 3044 2119 3236 1894 
Q 3428 1669 3622 1275 
L 4263 0 
L 3584 0 
L 2988 1197 
Q 2756 1666 2539 1819 
Q 2322 1972 1947 1972 
L 1259 1972 
L 1259 0 
L 628 0 
L 628 4666 
L 2053 4666 
Q 2853 4666 3247 4331 
Q 3641 3997 3641 3322 
Q 3641 2881 3436 2590 
Q 3231 2300 2841 2188 
z
M 1259 4147 
L 1259 2491 
L 2053 2491 
Q 2509 2491 2742 2702 
Q 2975 2913 2975 3322 
Q 2975 3731 2742 3939 
Q 2509 4147 2053 4147 
L 1259 4147 
z
" id="DejaVuSans-52" transform="scale(0.015625)"/>
       <path d="M 2194 1759 
Q 1497 1759 1228 1600 
Q 959 1441 959 1056 
Q 959 750 1161 570 
Q 1363 391 1709 391 
Q 2188 391 2477 730 
Q 2766 1069 2766 1631 
L 2766 1759 
L 2194 1759 
z
M 3341 1997 
L 3341 0 
L 2766 0 
L 2766 531 
Q 2569 213 2275 61 
Q 1981 -91 1556 -91 
Q 1019 -91 701 211 
Q 384 513 384 1019 
Q 384 1609 779 1909 
Q 1175 2209 1959 2209 
L 2766 2209 
L 2766 2266 
Q 2766 2663 2505 2880 
Q 2244 3097 1772 3097 
Q 1472 3097 1187 3025 
Q 903 2953 641 2809 
L 641 3341 
Q 956 3463 1253 3523 
Q 1550 3584 1831 3584 
Q 2591 3584 2966 3190 
Q 3341 2797 3341 1997 
z
" id="DejaVuSans-61" transform="scale(0.015625)"/>
      </defs>
      <use xlink:href="#DejaVuSans-52"/>
      <use x="64.982422" xlink:href="#DejaVuSans-65"/>
      <use x="126.505859" xlink:href="#DejaVuSans-63"/>
      <use x="181.486328" xlink:href="#DejaVuSans-61"/>
      <use x="242.765625" xlink:href="#DejaVuSans-6c"/>
      <use x="270.548828" xlink:href="#DejaVuSans-6c"/>
     </g>
    </g>
    <g id="line2d_20">
     <path d="M 199.852969 293.004312 
L 219.852969 293.004312 
" style="fill:none;stroke:#2ca02c;stroke-dasharray:1.5,2.475;stroke-dashoffset:0;stroke-width:1.5;"/>
    </g>
    <g id="line2d_21"/>
    <g id="text_17">
     <!-- F1 score -->
     <g transform="translate(227.852969 296.504312)scale(0.1 -0.1)">
      <defs>
       <path d="M 628 4666 
L 3309 4666 
L 3309 4134 
L 1259 4134 
L 1259 2759 
L 3109 2759 
L 3109 2228 
L 1259 2228 
L 1259 0 
L 628 0 
L 628 4666 
z
" id="DejaVuSans-46" transform="scale(0.015625)"/>
      </defs>
      <use xlink:href="#DejaVuSans-46"/>
      <use x="57.519531" xlink:href="#DejaVuSans-31"/>
      <use x="121.142578" xlink:href="#DejaVuSans-20"/>
      <use x="152.929688" xlink:href="#DejaVuSans-73"/>
      <use x="205.029297" xlink:href="#DejaVuSans-63"/>
      <use x="260.009766" xlink:href="#DejaVuSans-6f"/>
      <use x="321.191406" xlink:href="#DejaVuSans-72"/>
      <use x="360.054688" xlink:href="#DejaVuSans-65"/>
     </g>
    </g>
   </g>
  </g>
 </g>
 <defs>
  <clipPath id="p9ace84e778">
   <rect height="266.112" width="357.12" x="57.6" y="41.472"/>
  </clipPath>
 </defs>
</svg>
