<?xml version="1.0" encoding="utf-8" standalone="no"?>
<!DOCTYPE svg PUBLIC "-//W3C//DTD SVG 1.1//EN"
  "http://www.w3.org/Graphics/SVG/1.1/DTD/svg11.dtd">
<svg height="345.6pt" version="1.1" viewBox="0 0 460.8 345.6" width="460.8pt" xmlns="http://www.w3.org/2000/svg" xmlns:xlink="http://www.w3.org/1999/xlink">
 <metadata>
  <rdf:RDF xmlns:cc="http://creativecommons.org/ns#" xmlns:dc="http://purl.org/dc/elements/1.1/" xmlns:rdf="http://www.w3.org/1999/02/22-rdf-syntax-ns#">
   <cc:Work>
    <dc:type rdf:resource="http://purl.org/dc/dcmitype/StillImage"/>
    <dc:date>2021-06-29T10:53:57.500903</dc:date>
    <dc:format>image/svg+xml</dc:format>
    <dc:creator>
     <cc:Agent>
      <dc:title>Matplotlib v3.4.2, https://matplotlib.org/</dc:title>
     </cc:Agent>
    </dc:creator>
   </cc:Work>
  </rdf:RDF>
 </metadata>
 <defs>
  <style type="text/css">*{stroke-linecap:butt;stroke-linejoin:round;}</style>
 </defs>
 <g id="figure_1">
  <g id="patch_1">
   <path d="M 0 345.6 
L 460.8 345.6 
L 460.8 0 
L 0 0 
z
" style="fill:#ffffff;"/>
  </g>
  <g id="axes_1">
   <g id="patch_2">
    <path d="M 57.6 307.584 
L 414.72 307.584 
L 414.72 41.472 
L 57.6 41.472 
z
" style="fill:#ffffff;"/>
   </g>
   <g id="LineCollection_1">
    <path clip-path="url(#p38060cecc4)" d="M 73.832727 174.528007 
L 92.700469 231.153783 
" style="fill:none;stroke:#000000;"/>
    <path clip-path="url(#p38060cecc4)" d="M 92.700469 231.153783 
L 144.981352 274.807292 
" style="fill:none;stroke:#000000;"/>
    <path clip-path="url(#p38060cecc4)" d="M 144.981352 274.807292 
L 218.698368 295.488 
" style="fill:none;stroke:#000000;"/>
    <path clip-path="url(#p38060cecc4)" d="M 144.981352 274.807292 
L 296.963957 288.458242 
" style="fill:none;stroke:#000000;"/>
    <path clip-path="url(#p38060cecc4)" d="M 218.698368 295.488 
L 296.963957 288.458242 
" style="fill:none;stroke:#000000;"/>
    <path clip-path="url(#p38060cecc4)" d="M 218.698368 295.488 
L 92.700479 117.902195 
" style="fill:none;stroke:#000000;"/>
    <path clip-path="url(#p38060cecc4)" d="M 296.963957 288.458242 
L 361.848344 255.328406 
" style="fill:none;stroke:#000000;"/>
    <path clip-path="url(#p38060cecc4)" d="M 296.963957 288.458242 
L 218.698311 53.568 
" style="fill:none;stroke:#000000;"/>
    <path clip-path="url(#p38060cecc4)" d="M 296.963957 288.458242 
L 92.700479 117.902195 
" style="fill:none;stroke:#000000;"/>
    <path clip-path="url(#p38060cecc4)" d="M 361.848344 255.328406 
L 398.487273 203.688222 
" style="fill:none;stroke:#000000;"/>
    <path clip-path="url(#p38060cecc4)" d="M 361.848344 255.328406 
L 92.700479 117.902195 
" style="fill:none;stroke:#000000;"/>
    <path clip-path="url(#p38060cecc4)" d="M 398.487273 203.688222 
L 398.487273 145.367786 
" style="fill:none;stroke:#000000;"/>
    <path clip-path="url(#p38060cecc4)" d="M 398.487273 203.688222 
L 92.700479 117.902195 
" style="fill:none;stroke:#000000;"/>
    <path clip-path="url(#p38060cecc4)" d="M 398.487273 145.367786 
L 361.848305 93.727551 
" style="fill:none;stroke:#000000;"/>
    <path clip-path="url(#p38060cecc4)" d="M 398.487273 145.367786 
L 296.963908 60.597736 
" style="fill:none;stroke:#000000;"/>
    <path clip-path="url(#p38060cecc4)" d="M 398.487273 145.367786 
L 218.698311 53.568 
" style="fill:none;stroke:#000000;"/>
    <path clip-path="url(#p38060cecc4)" d="M 398.487273 145.367786 
L 144.981371 74.248694 
" style="fill:none;stroke:#000000;"/>
    <path clip-path="url(#p38060cecc4)" d="M 398.487273 145.367786 
L 92.700479 117.902195 
" style="fill:none;stroke:#000000;"/>
    <path clip-path="url(#p38060cecc4)" d="M 361.848305 93.727551 
L 296.963908 60.597736 
" style="fill:none;stroke:#000000;"/>
    <path clip-path="url(#p38060cecc4)" d="M 361.848305 93.727551 
L 92.700479 117.902195 
" style="fill:none;stroke:#000000;"/>
    <path clip-path="url(#p38060cecc4)" d="M 296.963908 60.597736 
L 218.698311 53.568 
" style="fill:none;stroke:#000000;"/>
    <path clip-path="url(#p38060cecc4)" d="M 296.963908 60.597736 
L 144.981371 74.248694 
" style="fill:none;stroke:#000000;"/>
    <path clip-path="url(#p38060cecc4)" d="M 296.963908 60.597736 
L 92.700479 117.902195 
" style="fill:none;stroke:#000000;"/>
    <path clip-path="url(#p38060cecc4)" d="M 218.698311 53.568 
L 144.981371 74.248694 
" style="fill:none;stroke:#000000;"/>
    <path clip-path="url(#p38060cecc4)" d="M 218.698311 53.568 
L 92.700479 117.902195 
" style="fill:none;stroke:#000000;"/>
   </g>
   <g id="matplotlib.axis_1">
    <g id="xtick_1"/>
    <g id="xtick_2"/>
    <g id="xtick_3"/>
    <g id="xtick_4"/>
    <g id="xtick_5"/>
    <g id="xtick_6"/>
    <g id="xtick_7"/>
    <g id="xtick_8"/>
    <g id="xtick_9"/>
   </g>
   <g id="matplotlib.axis_2">
    <g id="ytick_1"/>
    <g id="ytick_2"/>
    <g id="ytick_3"/>
    <g id="ytick_4"/>
    <g id="ytick_5"/>
    <g id="ytick_6"/>
    <g id="ytick_7"/>
    <g id="ytick_8"/>
    <g id="ytick_9"/>
   </g>
   <g id="PathCollection_1">
    <path clip-path="url(#p38060cecc4)" d="M 73.832727 185.708347 
C 76.797788 185.708347 79.641807 184.530316 81.738421 182.433701 
C 83.835036 180.337087 85.013067 177.493068 85.013067 174.528007 
C 85.013067 171.562946 83.835036 168.718927 81.738421 166.622313 
C 79.641807 164.525698 76.797788 163.347667 73.832727 163.347667 
C 70.867666 163.347667 68.023648 164.525698 65.927033 166.622313 
C 63.830419 168.718927 62.652387 171.562946 62.652387 174.528007 
C 62.652387 177.493068 63.830419 180.337087 65.927033 182.433701 
C 68.023648 184.530316 70.867666 185.708347 73.832727 185.708347 
z
" style="fill:#c0c0c0;stroke:#000000;"/>
    <path clip-path="url(#p38060cecc4)" d="M 92.700469 242.334123 
C 95.66553 242.334123 98.509549 241.156091 100.606163 239.059477 
C 102.702778 236.962862 103.880809 234.118844 103.880809 231.153783 
C 103.880809 228.188722 102.702778 225.344703 100.606163 223.248089 
C 98.509549 221.151474 95.66553 219.973443 92.700469 219.973443 
C 89.735408 219.973443 86.89139 221.151474 84.794775 223.248089 
C 82.69816 225.344703 81.520129 228.188722 81.520129 231.153783 
C 81.520129 234.118844 82.69816 236.962862 84.794775 239.059477 
C 86.89139 241.156091 89.735408 242.334123 92.700469 242.334123 
z
" style="fill:#c0c0c0;stroke:#000000;"/>
    <path clip-path="url(#p38060cecc4)" d="M 144.981352 285.987632 
C 147.946412 285.987632 150.790431 284.809601 152.887046 282.712986 
C 154.98366 280.616371 156.161691 277.772353 156.161691 274.807292 
C 156.161691 271.842231 154.98366 268.998212 152.887046 266.901598 
C 150.790431 264.804983 147.946412 263.626952 144.981352 263.626952 
C 142.016291 263.626952 139.172272 264.804983 137.075657 266.901598 
C 134.979043 268.998212 133.801012 271.842231 133.801012 274.807292 
C 133.801012 277.772353 134.979043 280.616371 137.075657 282.712986 
C 139.172272 284.809601 142.016291 285.987632 144.981352 285.987632 
z
" style="fill:#c0c0c0;stroke:#000000;"/>
    <path clip-path="url(#p38060cecc4)" d="M 218.698368 306.66834 
C 221.663429 306.66834 224.507448 305.490309 226.604062 303.393694 
C 228.700677 301.29708 229.878708 298.453061 229.878708 295.488 
C 229.878708 292.522939 228.700677 289.67892 226.604062 287.582306 
C 224.507448 285.485691 221.663429 284.30766 218.698368 284.30766 
C 215.733307 284.30766 212.889289 285.485691 210.792674 287.582306 
C 208.696059 289.67892 207.518028 292.522939 207.518028 295.488 
C 207.518028 298.453061 208.696059 301.29708 210.792674 303.393694 
C 212.889289 305.490309 215.733307 306.66834 218.698368 306.66834 
z
" style="fill:#c0c0c0;stroke:#000000;"/>
    <path clip-path="url(#p38060cecc4)" d="M 296.963957 299.638582 
C 299.929018 299.638582 302.773037 298.460551 304.869651 296.363936 
C 306.966266 294.267322 308.144297 291.423303 308.144297 288.458242 
C 308.144297 285.493181 306.966266 282.649163 304.869651 280.552548 
C 302.773037 278.455934 299.929018 277.277902 296.963957 277.277902 
C 293.998896 277.277902 291.154877 278.455934 289.058263 280.552548 
C 286.961648 282.649163 285.783617 285.493181 285.783617 288.458242 
C 285.783617 291.423303 286.961648 294.267322 289.058263 296.363936 
C 291.154877 298.460551 293.998896 299.638582 296.963957 299.638582 
z
" style="fill:#c0c0c0;stroke:#000000;"/>
    <path clip-path="url(#p38060cecc4)" d="M 361.848344 266.508746 
C 364.813405 266.508746 367.657423 265.330715 369.754038 263.2341 
C 371.850653 261.137485 373.028684 258.293467 373.028684 255.328406 
C 373.028684 252.363345 371.850653 249.519326 369.754038 247.422712 
C 367.657423 245.326097 364.813405 244.148066 361.848344 244.148066 
C 358.883283 244.148066 356.039264 245.326097 353.94265 247.422712 
C 351.846035 249.519326 350.668004 252.363345 350.668004 255.328406 
C 350.668004 258.293467 351.846035 261.137485 353.94265 263.2341 
C 356.039264 265.330715 358.883283 266.508746 361.848344 266.508746 
z
" style="fill:#c0c0c0;stroke:#000000;"/>
    <path clip-path="url(#p38060cecc4)" d="M 398.487273 214.868561 
C 401.452334 214.868561 404.296352 213.69053 406.392967 211.593916 
C 408.489581 209.497301 409.667613 206.653282 409.667613 203.688222 
C 409.667613 200.723161 408.489581 197.879142 406.392967 195.782527 
C 404.296352 193.685913 401.452334 192.507882 398.487273 192.507882 
C 395.522212 192.507882 392.678193 193.685913 390.581579 195.782527 
C 388.484964 197.879142 387.306933 200.723161 387.306933 203.688222 
C 387.306933 206.653282 388.484964 209.497301 390.581579 211.593916 
C 392.678193 213.69053 395.522212 214.868561 398.487273 214.868561 
z
" style="fill:#c0c0c0;stroke:#000000;"/>
    <path clip-path="url(#p38060cecc4)" d="M 398.487273 156.548126 
C 401.452334 156.548126 404.296352 155.370094 406.392967 153.27348 
C 408.489581 151.176865 409.667613 148.332847 409.667613 145.367786 
C 409.667613 142.402725 408.489581 139.558706 406.392967 137.462092 
C 404.296352 135.365477 401.452334 134.187446 398.487273 134.187446 
C 395.522212 134.187446 392.678193 135.365477 390.581579 137.462092 
C 388.484964 139.558706 387.306933 142.402725 387.306933 145.367786 
C 387.306933 148.332847 388.484964 151.176865 390.581579 153.27348 
C 392.678193 155.370094 395.522212 156.548126 398.487273 156.548126 
z
" style="fill:#c0c0c0;stroke:#000000;"/>
    <path clip-path="url(#p38060cecc4)" d="M 361.848305 104.90789 
C 364.813365 104.90789 367.657384 103.729859 369.753999 101.633245 
C 371.850613 99.53663 373.028645 96.692611 373.028645 93.727551 
C 373.028645 90.76249 371.850613 87.918471 369.753999 85.821856 
C 367.657384 83.725242 364.813365 82.547211 361.848305 82.547211 
C 358.883244 82.547211 356.039225 83.725242 353.94261 85.821856 
C 351.845996 87.918471 350.667965 90.76249 350.667965 93.727551 
C 350.667965 96.692611 351.845996 99.53663 353.94261 101.633245 
C 356.039225 103.729859 358.883244 104.90789 361.848305 104.90789 
z
" style="fill:#c0c0c0;stroke:#000000;"/>
    <path clip-path="url(#p38060cecc4)" d="M 296.963908 71.778076 
C 299.928969 71.778076 302.772987 70.600045 304.869602 68.50343 
C 306.966217 66.406815 308.144248 63.562797 308.144248 60.597736 
C 308.144248 57.632675 306.966217 54.788656 304.869602 52.692042 
C 302.772987 50.595427 299.928969 49.417396 296.963908 49.417396 
C 293.998847 49.417396 291.154828 50.595427 289.058214 52.692042 
C 286.961599 54.788656 285.783568 57.632675 285.783568 60.597736 
C 285.783568 63.562797 286.961599 66.406815 289.058214 68.50343 
C 291.154828 70.600045 293.998847 71.778076 296.963908 71.778076 
z
" style="fill:#c0c0c0;stroke:#000000;"/>
    <path clip-path="url(#p38060cecc4)" d="M 218.698311 64.74834 
C 221.663371 64.74834 224.50739 63.570309 226.604005 61.473694 
C 228.700619 59.37708 229.87865 56.533061 229.87865 53.568 
C 229.87865 50.602939 228.700619 47.75892 226.604005 45.662306 
C 224.50739 43.565691 221.663371 42.38766 218.698311 42.38766 
C 215.73325 42.38766 212.889231 43.565691 210.792616 45.662306 
C 208.696002 47.75892 207.517971 50.602939 207.517971 53.568 
C 207.517971 56.533061 208.696002 59.37708 210.792616 61.473694 
C 212.889231 63.570309 215.73325 64.74834 218.698311 64.74834 
z
" style="fill:#c0c0c0;stroke:#000000;"/>
    <path clip-path="url(#p38060cecc4)" d="M 144.981371 85.429034 
C 147.946432 85.429034 150.790451 84.251002 152.887065 82.154388 
C 154.98368 80.057773 156.161711 77.213754 156.161711 74.248694 
C 156.161711 71.283633 154.98368 68.439614 152.887065 66.343 
C 150.790451 64.246385 147.946432 63.068354 144.981371 63.068354 
C 142.01631 63.068354 139.172292 64.246385 137.075677 66.343 
C 134.979062 68.439614 133.801031 71.283633 133.801031 74.248694 
C 133.801031 77.213754 134.979062 80.057773 137.075677 82.154388 
C 139.172292 84.251002 142.01631 85.429034 144.981371 85.429034 
z
" style="fill:#c0c0c0;stroke:#000000;"/>
    <path clip-path="url(#p38060cecc4)" d="M 92.700479 133.713584 
C 96.893708 133.713584 100.915758 132.047596 103.880819 129.082535 
C 106.84588 126.117475 108.511867 122.095425 108.511867 117.902195 
C 108.511867 113.708966 106.84588 109.686916 103.880819 106.721856 
C 100.915758 103.756795 96.893708 102.090807 92.700479 102.090807 
C 88.50725 102.090807 84.4852 103.756795 81.520139 106.721856 
C 78.555078 109.686916 76.889091 113.708966 76.889091 117.902195 
C 76.889091 122.095425 78.555078 126.117475 81.520139 129.082535 
C 84.4852 132.047596 88.50725 133.713584 92.700479 133.713584 
z
" style="fill:#c0c0c0;stroke:#000000;"/>
   </g>
   <g id="patch_3">
    <path d="M 57.6 307.584 
L 57.6 41.472 
" style="fill:none;stroke:#000000;stroke-linecap:square;stroke-linejoin:miter;stroke-width:0.8;"/>
   </g>
   <g id="patch_4">
    <path d="M 414.72 307.584 
L 414.72 41.472 
" style="fill:none;stroke:#000000;stroke-linecap:square;stroke-linejoin:miter;stroke-width:0.8;"/>
   </g>
   <g id="patch_5">
    <path d="M 57.6 307.584 
L 414.72 307.584 
" style="fill:none;stroke:#000000;stroke-linecap:square;stroke-linejoin:miter;stroke-width:0.8;"/>
   </g>
   <g id="patch_6">
    <path d="M 57.6 41.472 
L 414.72 41.472 
" style="fill:none;stroke:#000000;stroke-linecap:square;stroke-linejoin:miter;stroke-width:0.8;"/>
   </g>
   <g id="text_1">
    <g clip-path="url(#p38060cecc4)">
     <!-- -5 -->
     <g transform="translate(67.85054 177.839257)scale(0.12 -0.12)">
      <defs>
       <path d="M 313 2009 
L 1997 2009 
L 1997 1497 
L 313 1497 
L 313 2009 
z
" id="DejaVuSans-2d" transform="scale(0.015625)"/>
       <path d="M 691 4666 
L 3169 4666 
L 3169 4134 
L 1269 4134 
L 1269 2991 
Q 1406 3038 1543 3061 
Q 1681 3084 1819 3084 
Q 2600 3084 3056 2656 
Q 3513 2228 3513 1497 
Q 3513 744 3044 326 
Q 2575 -91 1722 -91 
Q 1428 -91 1123 -41 
Q 819 9 494 109 
L 494 744 
Q 775 591 1075 516 
Q 1375 441 1709 441 
Q 2250 441 2565 725 
Q 2881 1009 2881 1497 
Q 2881 1984 2565 2268 
Q 2250 2553 1709 2553 
Q 1456 2553 1204 2497 
Q 953 2441 691 2322 
L 691 4666 
z
" id="DejaVuSans-35" transform="scale(0.015625)"/>
      </defs>
      <use xlink:href="#DejaVuSans-2d"/>
      <use x="36.083984" xlink:href="#DejaVuSans-35"/>
     </g>
    </g>
   </g>
   <g id="text_2">
    <g clip-path="url(#p38060cecc4)">
     <!-- -4 -->
     <g transform="translate(86.718282 234.465033)scale(0.12 -0.12)">
      <defs>
       <path d="M 2419 4116 
L 825 1625 
L 2419 1625 
L 2419 4116 
z
M 2253 4666 
L 3047 4666 
L 3047 1625 
L 3713 1625 
L 3713 1100 
L 3047 1100 
L 3047 0 
L 2419 0 
L 2419 1100 
L 313 1100 
L 313 1709 
L 2253 4666 
z
" id="DejaVuSans-34" transform="scale(0.015625)"/>
      </defs>
      <use xlink:href="#DejaVuSans-2d"/>
      <use x="36.083984" xlink:href="#DejaVuSans-34"/>
     </g>
    </g>
   </g>
   <g id="text_3">
    <g clip-path="url(#p38060cecc4)">
     <!-- -3 -->
     <g transform="translate(138.999164 278.118542)scale(0.12 -0.12)">
      <defs>
       <path d="M 2597 2516 
Q 3050 2419 3304 2112 
Q 3559 1806 3559 1356 
Q 3559 666 3084 287 
Q 2609 -91 1734 -91 
Q 1441 -91 1130 -33 
Q 819 25 488 141 
L 488 750 
Q 750 597 1062 519 
Q 1375 441 1716 441 
Q 2309 441 2620 675 
Q 2931 909 2931 1356 
Q 2931 1769 2642 2001 
Q 2353 2234 1838 2234 
L 1294 2234 
L 1294 2753 
L 1863 2753 
Q 2328 2753 2575 2939 
Q 2822 3125 2822 3475 
Q 2822 3834 2567 4026 
Q 2313 4219 1838 4219 
Q 1578 4219 1281 4162 
Q 984 4106 628 3988 
L 628 4550 
Q 988 4650 1302 4700 
Q 1616 4750 1894 4750 
Q 2613 4750 3031 4423 
Q 3450 4097 3450 3541 
Q 3450 3153 3228 2886 
Q 3006 2619 2597 2516 
z
" id="DejaVuSans-33" transform="scale(0.015625)"/>
      </defs>
      <use xlink:href="#DejaVuSans-2d"/>
      <use x="36.083984" xlink:href="#DejaVuSans-33"/>
     </g>
    </g>
   </g>
   <g id="text_4">
    <g clip-path="url(#p38060cecc4)">
     <!-- -2 -->
     <g transform="translate(212.716181 298.79925)scale(0.12 -0.12)">
      <defs>
       <path d="M 1228 531 
L 3431 531 
L 3431 0 
L 469 0 
L 469 531 
Q 828 903 1448 1529 
Q 2069 2156 2228 2338 
Q 2531 2678 2651 2914 
Q 2772 3150 2772 3378 
Q 2772 3750 2511 3984 
Q 2250 4219 1831 4219 
Q 1534 4219 1204 4116 
Q 875 4013 500 3803 
L 500 4441 
Q 881 4594 1212 4672 
Q 1544 4750 1819 4750 
Q 2544 4750 2975 4387 
Q 3406 4025 3406 3419 
Q 3406 3131 3298 2873 
Q 3191 2616 2906 2266 
Q 2828 2175 2409 1742 
Q 1991 1309 1228 531 
z
" id="DejaVuSans-32" transform="scale(0.015625)"/>
      </defs>
      <use xlink:href="#DejaVuSans-2d"/>
      <use x="36.083984" xlink:href="#DejaVuSans-32"/>
     </g>
    </g>
   </g>
   <g id="text_5">
    <g clip-path="url(#p38060cecc4)">
     <!-- -1 -->
     <g transform="translate(290.981769 291.769492)scale(0.12 -0.12)">
      <defs>
       <path d="M 794 531 
L 1825 531 
L 1825 4091 
L 703 3866 
L 703 4441 
L 1819 4666 
L 2450 4666 
L 2450 531 
L 3481 531 
L 3481 0 
L 794 0 
L 794 531 
z
" id="DejaVuSans-31" transform="scale(0.015625)"/>
      </defs>
      <use xlink:href="#DejaVuSans-2d"/>
      <use x="36.083984" xlink:href="#DejaVuSans-31"/>
     </g>
    </g>
   </g>
   <g id="text_6">
    <g clip-path="url(#p38060cecc4)">
     <!-- 1 -->
     <g transform="translate(358.030844 258.639656)scale(0.12 -0.12)">
      <use xlink:href="#DejaVuSans-31"/>
     </g>
    </g>
   </g>
   <g id="text_7">
    <g clip-path="url(#p38060cecc4)">
     <!-- 2 -->
     <g transform="translate(394.669773 206.999472)scale(0.12 -0.12)">
      <use xlink:href="#DejaVuSans-32"/>
     </g>
    </g>
   </g>
   <g id="text_8">
    <g clip-path="url(#p38060cecc4)">
     <!-- 3 -->
     <g transform="translate(394.669773 148.679036)scale(0.12 -0.12)">
      <use xlink:href="#DejaVuSans-33"/>
     </g>
    </g>
   </g>
   <g id="text_9">
    <g clip-path="url(#p38060cecc4)">
     <!-- 4 -->
     <g transform="translate(358.030805 97.038801)scale(0.12 -0.12)">
      <use xlink:href="#DejaVuSans-34"/>
     </g>
    </g>
   </g>
   <g id="text_10">
    <g clip-path="url(#p38060cecc4)">
     <!-- 5 -->
     <g transform="translate(293.146408 63.908986)scale(0.12 -0.12)">
      <use xlink:href="#DejaVuSans-35"/>
     </g>
    </g>
   </g>
   <g id="text_11">
    <g clip-path="url(#p38060cecc4)">
     <!-- 6 -->
     <g transform="translate(214.880811 56.87925)scale(0.12 -0.12)">
      <defs>
       <path d="M 2113 2584 
Q 1688 2584 1439 2293 
Q 1191 2003 1191 1497 
Q 1191 994 1439 701 
Q 1688 409 2113 409 
Q 2538 409 2786 701 
Q 3034 994 3034 1497 
Q 3034 2003 2786 2293 
Q 2538 2584 2113 2584 
z
M 3366 4563 
L 3366 3988 
Q 3128 4100 2886 4159 
Q 2644 4219 2406 4219 
Q 1781 4219 1451 3797 
Q 1122 3375 1075 2522 
Q 1259 2794 1537 2939 
Q 1816 3084 2150 3084 
Q 2853 3084 3261 2657 
Q 3669 2231 3669 1497 
Q 3669 778 3244 343 
Q 2819 -91 2113 -91 
Q 1303 -91 875 529 
Q 447 1150 447 2328 
Q 447 3434 972 4092 
Q 1497 4750 2381 4750 
Q 2619 4750 2861 4703 
Q 3103 4656 3366 4563 
z
" id="DejaVuSans-36" transform="scale(0.015625)"/>
      </defs>
      <use xlink:href="#DejaVuSans-36"/>
     </g>
    </g>
   </g>
   <g id="text_12">
    <g clip-path="url(#p38060cecc4)">
     <!-- 7 -->
     <g transform="translate(141.163871 77.559944)scale(0.12 -0.12)">
      <defs>
       <path d="M 525 4666 
L 3525 4666 
L 3525 4397 
L 1831 0 
L 1172 0 
L 2766 4134 
L 525 4134 
L 525 4666 
z
" id="DejaVuSans-37" transform="scale(0.015625)"/>
      </defs>
      <use xlink:href="#DejaVuSans-37"/>
     </g>
    </g>
   </g>
   <g id="text_13">
    <g clip-path="url(#p38060cecc4)">
     <!-- Sp -->
     <g transform="translate(85.082354 121.213445)scale(0.12 -0.12)">
      <defs>
       <path d="M 3425 4513 
L 3425 3897 
Q 3066 4069 2747 4153 
Q 2428 4238 2131 4238 
Q 1616 4238 1336 4038 
Q 1056 3838 1056 3469 
Q 1056 3159 1242 3001 
Q 1428 2844 1947 2747 
L 2328 2669 
Q 3034 2534 3370 2195 
Q 3706 1856 3706 1288 
Q 3706 609 3251 259 
Q 2797 -91 1919 -91 
Q 1588 -91 1214 -16 
Q 841 59 441 206 
L 441 856 
Q 825 641 1194 531 
Q 1563 422 1919 422 
Q 2459 422 2753 634 
Q 3047 847 3047 1241 
Q 3047 1584 2836 1778 
Q 2625 1972 2144 2069 
L 1759 2144 
Q 1053 2284 737 2584 
Q 422 2884 422 3419 
Q 422 4038 858 4394 
Q 1294 4750 2059 4750 
Q 2388 4750 2728 4690 
Q 3069 4631 3425 4513 
z
" id="DejaVuSans-53" transform="scale(0.015625)"/>
       <path d="M 1159 525 
L 1159 -1331 
L 581 -1331 
L 581 3500 
L 1159 3500 
L 1159 2969 
Q 1341 3281 1617 3432 
Q 1894 3584 2278 3584 
Q 2916 3584 3314 3078 
Q 3713 2572 3713 1747 
Q 3713 922 3314 415 
Q 2916 -91 2278 -91 
Q 1894 -91 1617 61 
Q 1341 213 1159 525 
z
M 3116 1747 
Q 3116 2381 2855 2742 
Q 2594 3103 2138 3103 
Q 1681 3103 1420 2742 
Q 1159 2381 1159 1747 
Q 1159 1113 1420 752 
Q 1681 391 2138 391 
Q 2594 391 2855 752 
Q 3116 1113 3116 1747 
z
" id="DejaVuSans-70" transform="scale(0.015625)"/>
      </defs>
      <use xlink:href="#DejaVuSans-53"/>
      <use x="63.476562" xlink:href="#DejaVuSans-70"/>
     </g>
    </g>
   </g>
  </g>
 </g>
 <defs>
  <clipPath id="p38060cecc4">
   <rect height="266.112" width="357.12" x="57.6" y="41.472"/>
  </clipPath>
 </defs>
</svg>
