<?xml version="1.0" encoding="utf-8" standalone="no"?>
<!DOCTYPE svg PUBLIC "-//W3C//DTD SVG 1.1//EN"
  "http://www.w3.org/Graphics/SVG/1.1/DTD/svg11.dtd">
<svg height="345.6pt" version="1.1" viewBox="0 0 460.8 345.6" width="460.8pt" xmlns="http://www.w3.org/2000/svg" xmlns:xlink="http://www.w3.org/1999/xlink">
 <metadata>
  <rdf:RDF xmlns:cc="http://creativecommons.org/ns#" xmlns:dc="http://purl.org/dc/elements/1.1/" xmlns:rdf="http://www.w3.org/1999/02/22-rdf-syntax-ns#">
   <cc:Work>
    <dc:type rdf:resource="http://purl.org/dc/dcmitype/StillImage"/>
    <dc:date>2021-06-27T09:48:09.587255</dc:date>
    <dc:format>image/svg+xml</dc:format>
    <dc:creator>
     <cc:Agent>
      <dc:title>Matplotlib v3.4.2, https://matplotlib.org/</dc:title>
     </cc:Agent>
    </dc:creator>
   </cc:Work>
  </rdf:RDF>
 </metadata>
 <defs>
  <style type="text/css">*{stroke-linecap:butt;stroke-linejoin:round;}</style>
 </defs>
 <g id="figure_1">
  <g id="patch_1">
   <path d="M 0 345.6 
L 460.8 345.6 
L 460.8 0 
L 0 0 
z
" style="fill:#ffffff;"/>
  </g>
  <g id="axes_1">
   <g id="patch_2">
    <path d="M 57.6 307.584 
L 414.72 307.584 
L 414.72 41.472 
L 57.6 41.472 
z
" style="fill:#ffffff;"/>
   </g>
   <g id="patch_3">
    <path clip-path="url(#pe1f849e804)" d="M 87.36 74.736 
L 102.24 74.736 
L 102.24 63.648 
L 87.36 63.648 
z
" style="fill:none;stroke:#000000;stroke-dasharray:3.7,1.6;stroke-dashoffset:0;stroke-linejoin:miter;"/>
   </g>
   <g id="matplotlib.axis_1">
    <g id="xtick_1">
     <g id="line2d_1">
      <defs>
       <path d="M 0 0 
L 0 3.5 
" id="m8de80c2e54" style="stroke:#000000;stroke-width:0.8;"/>
      </defs>
      <g>
       <use style="stroke:#000000;stroke-width:0.8;" x="87.36" xlink:href="#m8de80c2e54" y="307.584"/>
      </g>
     </g>
     <g id="text_1">
      <!-- 0.0 -->
      <g transform="translate(79.408438 322.182437)scale(0.1 -0.1)">
       <defs>
        <path d="M 2034 4250 
Q 1547 4250 1301 3770 
Q 1056 3291 1056 2328 
Q 1056 1369 1301 889 
Q 1547 409 2034 409 
Q 2525 409 2770 889 
Q 3016 1369 3016 2328 
Q 3016 3291 2770 3770 
Q 2525 4250 2034 4250 
z
M 2034 4750 
Q 2819 4750 3233 4129 
Q 3647 3509 3647 2328 
Q 3647 1150 3233 529 
Q 2819 -91 2034 -91 
Q 1250 -91 836 529 
Q 422 1150 422 2328 
Q 422 3509 836 4129 
Q 1250 4750 2034 4750 
z
" id="DejaVuSans-30" transform="scale(0.015625)"/>
        <path d="M 684 794 
L 1344 794 
L 1344 0 
L 684 0 
L 684 794 
z
" id="DejaVuSans-2e" transform="scale(0.015625)"/>
       </defs>
       <use xlink:href="#DejaVuSans-30"/>
       <use x="63.623047" xlink:href="#DejaVuSans-2e"/>
       <use x="95.410156" xlink:href="#DejaVuSans-30"/>
      </g>
     </g>
    </g>
    <g id="xtick_2">
     <g id="line2d_2">
      <g>
       <use style="stroke:#000000;stroke-width:0.8;" x="146.88" xlink:href="#m8de80c2e54" y="307.584"/>
      </g>
     </g>
     <g id="text_2">
      <!-- 0.2 -->
      <g transform="translate(138.928438 322.182437)scale(0.1 -0.1)">
       <defs>
        <path d="M 1228 531 
L 3431 531 
L 3431 0 
L 469 0 
L 469 531 
Q 828 903 1448 1529 
Q 2069 2156 2228 2338 
Q 2531 2678 2651 2914 
Q 2772 3150 2772 3378 
Q 2772 3750 2511 3984 
Q 2250 4219 1831 4219 
Q 1534 4219 1204 4116 
Q 875 4013 500 3803 
L 500 4441 
Q 881 4594 1212 4672 
Q 1544 4750 1819 4750 
Q 2544 4750 2975 4387 
Q 3406 4025 3406 3419 
Q 3406 3131 3298 2873 
Q 3191 2616 2906 2266 
Q 2828 2175 2409 1742 
Q 1991 1309 1228 531 
z
" id="DejaVuSans-32" transform="scale(0.015625)"/>
       </defs>
       <use xlink:href="#DejaVuSans-30"/>
       <use x="63.623047" xlink:href="#DejaVuSans-2e"/>
       <use x="95.410156" xlink:href="#DejaVuSans-32"/>
      </g>
     </g>
    </g>
    <g id="xtick_3">
     <g id="line2d_3">
      <g>
       <use style="stroke:#000000;stroke-width:0.8;" x="206.4" xlink:href="#m8de80c2e54" y="307.584"/>
      </g>
     </g>
     <g id="text_3">
      <!-- 0.4 -->
      <g transform="translate(198.448438 322.182437)scale(0.1 -0.1)">
       <defs>
        <path d="M 2419 4116 
L 825 1625 
L 2419 1625 
L 2419 4116 
z
M 2253 4666 
L 3047 4666 
L 3047 1625 
L 3713 1625 
L 3713 1100 
L 3047 1100 
L 3047 0 
L 2419 0 
L 2419 1100 
L 313 1100 
L 313 1709 
L 2253 4666 
z
" id="DejaVuSans-34" transform="scale(0.015625)"/>
       </defs>
       <use xlink:href="#DejaVuSans-30"/>
       <use x="63.623047" xlink:href="#DejaVuSans-2e"/>
       <use x="95.410156" xlink:href="#DejaVuSans-34"/>
      </g>
     </g>
    </g>
    <g id="xtick_4">
     <g id="line2d_4">
      <g>
       <use style="stroke:#000000;stroke-width:0.8;" x="265.92" xlink:href="#m8de80c2e54" y="307.584"/>
      </g>
     </g>
     <g id="text_4">
      <!-- 0.6 -->
      <g transform="translate(257.968437 322.182437)scale(0.1 -0.1)">
       <defs>
        <path d="M 2113 2584 
Q 1688 2584 1439 2293 
Q 1191 2003 1191 1497 
Q 1191 994 1439 701 
Q 1688 409 2113 409 
Q 2538 409 2786 701 
Q 3034 994 3034 1497 
Q 3034 2003 2786 2293 
Q 2538 2584 2113 2584 
z
M 3366 4563 
L 3366 3988 
Q 3128 4100 2886 4159 
Q 2644 4219 2406 4219 
Q 1781 4219 1451 3797 
Q 1122 3375 1075 2522 
Q 1259 2794 1537 2939 
Q 1816 3084 2150 3084 
Q 2853 3084 3261 2657 
Q 3669 2231 3669 1497 
Q 3669 778 3244 343 
Q 2819 -91 2113 -91 
Q 1303 -91 875 529 
Q 447 1150 447 2328 
Q 447 3434 972 4092 
Q 1497 4750 2381 4750 
Q 2619 4750 2861 4703 
Q 3103 4656 3366 4563 
z
" id="DejaVuSans-36" transform="scale(0.015625)"/>
       </defs>
       <use xlink:href="#DejaVuSans-30"/>
       <use x="63.623047" xlink:href="#DejaVuSans-2e"/>
       <use x="95.410156" xlink:href="#DejaVuSans-36"/>
      </g>
     </g>
    </g>
    <g id="xtick_5">
     <g id="line2d_5">
      <g>
       <use style="stroke:#000000;stroke-width:0.8;" x="325.44" xlink:href="#m8de80c2e54" y="307.584"/>
      </g>
     </g>
     <g id="text_5">
      <!-- 0.8 -->
      <g transform="translate(317.488437 322.182437)scale(0.1 -0.1)">
       <defs>
        <path d="M 2034 2216 
Q 1584 2216 1326 1975 
Q 1069 1734 1069 1313 
Q 1069 891 1326 650 
Q 1584 409 2034 409 
Q 2484 409 2743 651 
Q 3003 894 3003 1313 
Q 3003 1734 2745 1975 
Q 2488 2216 2034 2216 
z
M 1403 2484 
Q 997 2584 770 2862 
Q 544 3141 544 3541 
Q 544 4100 942 4425 
Q 1341 4750 2034 4750 
Q 2731 4750 3128 4425 
Q 3525 4100 3525 3541 
Q 3525 3141 3298 2862 
Q 3072 2584 2669 2484 
Q 3125 2378 3379 2068 
Q 3634 1759 3634 1313 
Q 3634 634 3220 271 
Q 2806 -91 2034 -91 
Q 1263 -91 848 271 
Q 434 634 434 1313 
Q 434 1759 690 2068 
Q 947 2378 1403 2484 
z
M 1172 3481 
Q 1172 3119 1398 2916 
Q 1625 2713 2034 2713 
Q 2441 2713 2670 2916 
Q 2900 3119 2900 3481 
Q 2900 3844 2670 4047 
Q 2441 4250 2034 4250 
Q 1625 4250 1398 4047 
Q 1172 3844 1172 3481 
z
" id="DejaVuSans-38" transform="scale(0.015625)"/>
       </defs>
       <use xlink:href="#DejaVuSans-30"/>
       <use x="63.623047" xlink:href="#DejaVuSans-2e"/>
       <use x="95.410156" xlink:href="#DejaVuSans-38"/>
      </g>
     </g>
    </g>
    <g id="xtick_6">
     <g id="line2d_6">
      <g>
       <use style="stroke:#000000;stroke-width:0.8;" x="384.96" xlink:href="#m8de80c2e54" y="307.584"/>
      </g>
     </g>
     <g id="text_6">
      <!-- 1.0 -->
      <g transform="translate(377.008438 322.182437)scale(0.1 -0.1)">
       <defs>
        <path d="M 794 531 
L 1825 531 
L 1825 4091 
L 703 3866 
L 703 4441 
L 1819 4666 
L 2450 4666 
L 2450 531 
L 3481 531 
L 3481 0 
L 794 0 
L 794 531 
z
" id="DejaVuSans-31" transform="scale(0.015625)"/>
       </defs>
       <use xlink:href="#DejaVuSans-31"/>
       <use x="63.623047" xlink:href="#DejaVuSans-2e"/>
       <use x="95.410156" xlink:href="#DejaVuSans-30"/>
      </g>
     </g>
    </g>
    <g id="text_7">
     <!-- False Positive Rate -->
     <g transform="translate(189.693594 335.860562)scale(0.1 -0.1)">
      <defs>
       <path d="M 628 4666 
L 3309 4666 
L 3309 4134 
L 1259 4134 
L 1259 2759 
L 3109 2759 
L 3109 2228 
L 1259 2228 
L 1259 0 
L 628 0 
L 628 4666 
z
" id="DejaVuSans-46" transform="scale(0.015625)"/>
       <path d="M 2194 1759 
Q 1497 1759 1228 1600 
Q 959 1441 959 1056 
Q 959 750 1161 570 
Q 1363 391 1709 391 
Q 2188 391 2477 730 
Q 2766 1069 2766 1631 
L 2766 1759 
L 2194 1759 
z
M 3341 1997 
L 3341 0 
L 2766 0 
L 2766 531 
Q 2569 213 2275 61 
Q 1981 -91 1556 -91 
Q 1019 -91 701 211 
Q 384 513 384 1019 
Q 384 1609 779 1909 
Q 1175 2209 1959 2209 
L 2766 2209 
L 2766 2266 
Q 2766 2663 2505 2880 
Q 2244 3097 1772 3097 
Q 1472 3097 1187 3025 
Q 903 2953 641 2809 
L 641 3341 
Q 956 3463 1253 3523 
Q 1550 3584 1831 3584 
Q 2591 3584 2966 3190 
Q 3341 2797 3341 1997 
z
" id="DejaVuSans-61" transform="scale(0.015625)"/>
       <path d="M 603 4863 
L 1178 4863 
L 1178 0 
L 603 0 
L 603 4863 
z
" id="DejaVuSans-6c" transform="scale(0.015625)"/>
       <path d="M 2834 3397 
L 2834 2853 
Q 2591 2978 2328 3040 
Q 2066 3103 1784 3103 
Q 1356 3103 1142 2972 
Q 928 2841 928 2578 
Q 928 2378 1081 2264 
Q 1234 2150 1697 2047 
L 1894 2003 
Q 2506 1872 2764 1633 
Q 3022 1394 3022 966 
Q 3022 478 2636 193 
Q 2250 -91 1575 -91 
Q 1294 -91 989 -36 
Q 684 19 347 128 
L 347 722 
Q 666 556 975 473 
Q 1284 391 1588 391 
Q 1994 391 2212 530 
Q 2431 669 2431 922 
Q 2431 1156 2273 1281 
Q 2116 1406 1581 1522 
L 1381 1569 
Q 847 1681 609 1914 
Q 372 2147 372 2553 
Q 372 3047 722 3315 
Q 1072 3584 1716 3584 
Q 2034 3584 2315 3537 
Q 2597 3491 2834 3397 
z
" id="DejaVuSans-73" transform="scale(0.015625)"/>
       <path d="M 3597 1894 
L 3597 1613 
L 953 1613 
Q 991 1019 1311 708 
Q 1631 397 2203 397 
Q 2534 397 2845 478 
Q 3156 559 3463 722 
L 3463 178 
Q 3153 47 2828 -22 
Q 2503 -91 2169 -91 
Q 1331 -91 842 396 
Q 353 884 353 1716 
Q 353 2575 817 3079 
Q 1281 3584 2069 3584 
Q 2775 3584 3186 3129 
Q 3597 2675 3597 1894 
z
M 3022 2063 
Q 3016 2534 2758 2815 
Q 2500 3097 2075 3097 
Q 1594 3097 1305 2825 
Q 1016 2553 972 2059 
L 3022 2063 
z
" id="DejaVuSans-65" transform="scale(0.015625)"/>
       <path id="DejaVuSans-20" transform="scale(0.015625)"/>
       <path d="M 1259 4147 
L 1259 2394 
L 2053 2394 
Q 2494 2394 2734 2622 
Q 2975 2850 2975 3272 
Q 2975 3691 2734 3919 
Q 2494 4147 2053 4147 
L 1259 4147 
z
M 628 4666 
L 2053 4666 
Q 2838 4666 3239 4311 
Q 3641 3956 3641 3272 
Q 3641 2581 3239 2228 
Q 2838 1875 2053 1875 
L 1259 1875 
L 1259 0 
L 628 0 
L 628 4666 
z
" id="DejaVuSans-50" transform="scale(0.015625)"/>
       <path d="M 1959 3097 
Q 1497 3097 1228 2736 
Q 959 2375 959 1747 
Q 959 1119 1226 758 
Q 1494 397 1959 397 
Q 2419 397 2687 759 
Q 2956 1122 2956 1747 
Q 2956 2369 2687 2733 
Q 2419 3097 1959 3097 
z
M 1959 3584 
Q 2709 3584 3137 3096 
Q 3566 2609 3566 1747 
Q 3566 888 3137 398 
Q 2709 -91 1959 -91 
Q 1206 -91 779 398 
Q 353 888 353 1747 
Q 353 2609 779 3096 
Q 1206 3584 1959 3584 
z
" id="DejaVuSans-6f" transform="scale(0.015625)"/>
       <path d="M 603 3500 
L 1178 3500 
L 1178 0 
L 603 0 
L 603 3500 
z
M 603 4863 
L 1178 4863 
L 1178 4134 
L 603 4134 
L 603 4863 
z
" id="DejaVuSans-69" transform="scale(0.015625)"/>
       <path d="M 1172 4494 
L 1172 3500 
L 2356 3500 
L 2356 3053 
L 1172 3053 
L 1172 1153 
Q 1172 725 1289 603 
Q 1406 481 1766 481 
L 2356 481 
L 2356 0 
L 1766 0 
Q 1100 0 847 248 
Q 594 497 594 1153 
L 594 3053 
L 172 3053 
L 172 3500 
L 594 3500 
L 594 4494 
L 1172 4494 
z
" id="DejaVuSans-74" transform="scale(0.015625)"/>
       <path d="M 191 3500 
L 800 3500 
L 1894 563 
L 2988 3500 
L 3597 3500 
L 2284 0 
L 1503 0 
L 191 3500 
z
" id="DejaVuSans-76" transform="scale(0.015625)"/>
       <path d="M 2841 2188 
Q 3044 2119 3236 1894 
Q 3428 1669 3622 1275 
L 4263 0 
L 3584 0 
L 2988 1197 
Q 2756 1666 2539 1819 
Q 2322 1972 1947 1972 
L 1259 1972 
L 1259 0 
L 628 0 
L 628 4666 
L 2053 4666 
Q 2853 4666 3247 4331 
Q 3641 3997 3641 3322 
Q 3641 2881 3436 2590 
Q 3231 2300 2841 2188 
z
M 1259 4147 
L 1259 2491 
L 2053 2491 
Q 2509 2491 2742 2702 
Q 2975 2913 2975 3322 
Q 2975 3731 2742 3939 
Q 2509 4147 2053 4147 
L 1259 4147 
z
" id="DejaVuSans-52" transform="scale(0.015625)"/>
      </defs>
      <use xlink:href="#DejaVuSans-46"/>
      <use x="48.394531" xlink:href="#DejaVuSans-61"/>
      <use x="109.673828" xlink:href="#DejaVuSans-6c"/>
      <use x="137.457031" xlink:href="#DejaVuSans-73"/>
      <use x="189.556641" xlink:href="#DejaVuSans-65"/>
      <use x="251.080078" xlink:href="#DejaVuSans-20"/>
      <use x="282.867188" xlink:href="#DejaVuSans-50"/>
      <use x="339.544922" xlink:href="#DejaVuSans-6f"/>
      <use x="400.726562" xlink:href="#DejaVuSans-73"/>
      <use x="452.826172" xlink:href="#DejaVuSans-69"/>
      <use x="480.609375" xlink:href="#DejaVuSans-74"/>
      <use x="519.818359" xlink:href="#DejaVuSans-69"/>
      <use x="547.601562" xlink:href="#DejaVuSans-76"/>
      <use x="606.78125" xlink:href="#DejaVuSans-65"/>
      <use x="668.304688" xlink:href="#DejaVuSans-20"/>
      <use x="700.091797" xlink:href="#DejaVuSans-52"/>
      <use x="767.324219" xlink:href="#DejaVuSans-61"/>
      <use x="828.603516" xlink:href="#DejaVuSans-74"/>
      <use x="867.8125" xlink:href="#DejaVuSans-65"/>
     </g>
    </g>
   </g>
   <g id="matplotlib.axis_2">
    <g id="ytick_1">
     <g id="line2d_7">
      <defs>
       <path d="M 0 0 
L -3.5 0 
" id="m25a5ad4161" style="stroke:#000000;stroke-width:0.8;"/>
      </defs>
      <g>
       <use style="stroke:#000000;stroke-width:0.8;" x="57.6" xlink:href="#m25a5ad4161" y="285.408"/>
      </g>
     </g>
     <g id="text_8">
      <!-- 0.0 -->
      <g transform="translate(34.696875 289.207219)scale(0.1 -0.1)">
       <use xlink:href="#DejaVuSans-30"/>
       <use x="63.623047" xlink:href="#DejaVuSans-2e"/>
       <use x="95.410156" xlink:href="#DejaVuSans-30"/>
      </g>
     </g>
    </g>
    <g id="ytick_2">
     <g id="line2d_8">
      <g>
       <use style="stroke:#000000;stroke-width:0.8;" x="57.6" xlink:href="#m25a5ad4161" y="241.056"/>
      </g>
     </g>
     <g id="text_9">
      <!-- 0.2 -->
      <g transform="translate(34.696875 244.855219)scale(0.1 -0.1)">
       <use xlink:href="#DejaVuSans-30"/>
       <use x="63.623047" xlink:href="#DejaVuSans-2e"/>
       <use x="95.410156" xlink:href="#DejaVuSans-32"/>
      </g>
     </g>
    </g>
    <g id="ytick_3">
     <g id="line2d_9">
      <g>
       <use style="stroke:#000000;stroke-width:0.8;" x="57.6" xlink:href="#m25a5ad4161" y="196.704"/>
      </g>
     </g>
     <g id="text_10">
      <!-- 0.4 -->
      <g transform="translate(34.696875 200.503219)scale(0.1 -0.1)">
       <use xlink:href="#DejaVuSans-30"/>
       <use x="63.623047" xlink:href="#DejaVuSans-2e"/>
       <use x="95.410156" xlink:href="#DejaVuSans-34"/>
      </g>
     </g>
    </g>
    <g id="ytick_4">
     <g id="line2d_10">
      <g>
       <use style="stroke:#000000;stroke-width:0.8;" x="57.6" xlink:href="#m25a5ad4161" y="152.352"/>
      </g>
     </g>
     <g id="text_11">
      <!-- 0.6 -->
      <g transform="translate(34.696875 156.151219)scale(0.1 -0.1)">
       <use xlink:href="#DejaVuSans-30"/>
       <use x="63.623047" xlink:href="#DejaVuSans-2e"/>
       <use x="95.410156" xlink:href="#DejaVuSans-36"/>
      </g>
     </g>
    </g>
    <g id="ytick_5">
     <g id="line2d_11">
      <g>
       <use style="stroke:#000000;stroke-width:0.8;" x="57.6" xlink:href="#m25a5ad4161" y="108"/>
      </g>
     </g>
     <g id="text_12">
      <!-- 0.8 -->
      <g transform="translate(34.696875 111.799219)scale(0.1 -0.1)">
       <use xlink:href="#DejaVuSans-30"/>
       <use x="63.623047" xlink:href="#DejaVuSans-2e"/>
       <use x="95.410156" xlink:href="#DejaVuSans-38"/>
      </g>
     </g>
    </g>
    <g id="ytick_6">
     <g id="line2d_12">
      <g>
       <use style="stroke:#000000;stroke-width:0.8;" x="57.6" xlink:href="#m25a5ad4161" y="63.648"/>
      </g>
     </g>
     <g id="text_13">
      <!-- 1.0 -->
      <g transform="translate(34.696875 67.447219)scale(0.1 -0.1)">
       <use xlink:href="#DejaVuSans-31"/>
       <use x="63.623047" xlink:href="#DejaVuSans-2e"/>
       <use x="95.410156" xlink:href="#DejaVuSans-30"/>
      </g>
     </g>
    </g>
    <g id="text_14">
     <!-- True Positive Rate -->
     <g transform="translate(28.617187 219.057687)rotate(-90)scale(0.1 -0.1)">
      <defs>
       <path d="M -19 4666 
L 3928 4666 
L 3928 4134 
L 2272 4134 
L 2272 0 
L 1638 0 
L 1638 4134 
L -19 4134 
L -19 4666 
z
" id="DejaVuSans-54" transform="scale(0.015625)"/>
       <path d="M 2631 2963 
Q 2534 3019 2420 3045 
Q 2306 3072 2169 3072 
Q 1681 3072 1420 2755 
Q 1159 2438 1159 1844 
L 1159 0 
L 581 0 
L 581 3500 
L 1159 3500 
L 1159 2956 
Q 1341 3275 1631 3429 
Q 1922 3584 2338 3584 
Q 2397 3584 2469 3576 
Q 2541 3569 2628 3553 
L 2631 2963 
z
" id="DejaVuSans-72" transform="scale(0.015625)"/>
       <path d="M 544 1381 
L 544 3500 
L 1119 3500 
L 1119 1403 
Q 1119 906 1312 657 
Q 1506 409 1894 409 
Q 2359 409 2629 706 
Q 2900 1003 2900 1516 
L 2900 3500 
L 3475 3500 
L 3475 0 
L 2900 0 
L 2900 538 
Q 2691 219 2414 64 
Q 2138 -91 1772 -91 
Q 1169 -91 856 284 
Q 544 659 544 1381 
z
M 1991 3584 
L 1991 3584 
z
" id="DejaVuSans-75" transform="scale(0.015625)"/>
      </defs>
      <use xlink:href="#DejaVuSans-54"/>
      <use x="46.333984" xlink:href="#DejaVuSans-72"/>
      <use x="87.447266" xlink:href="#DejaVuSans-75"/>
      <use x="150.826172" xlink:href="#DejaVuSans-65"/>
      <use x="212.349609" xlink:href="#DejaVuSans-20"/>
      <use x="244.136719" xlink:href="#DejaVuSans-50"/>
      <use x="300.814453" xlink:href="#DejaVuSans-6f"/>
      <use x="361.996094" xlink:href="#DejaVuSans-73"/>
      <use x="414.095703" xlink:href="#DejaVuSans-69"/>
      <use x="441.878906" xlink:href="#DejaVuSans-74"/>
      <use x="481.087891" xlink:href="#DejaVuSans-69"/>
      <use x="508.871094" xlink:href="#DejaVuSans-76"/>
      <use x="568.050781" xlink:href="#DejaVuSans-65"/>
      <use x="629.574219" xlink:href="#DejaVuSans-20"/>
      <use x="661.361328" xlink:href="#DejaVuSans-52"/>
      <use x="728.59375" xlink:href="#DejaVuSans-61"/>
      <use x="789.873047" xlink:href="#DejaVuSans-74"/>
      <use x="829.082031" xlink:href="#DejaVuSans-65"/>
     </g>
    </g>
   </g>
   <g id="line2d_13">
    <path clip-path="url(#pe1f849e804)" d="M 87.36 285.408 
L 87.467465 195.488 
L 87.481794 195.488 
L 87.582095 152.394667 
L 87.589259 152.394667 
L 87.596424 152.288 
L 87.703889 137.141333 
L 87.711053 137.034667 
L 87.818519 129.354667 
L 87.832847 129.354667 
L 87.832847 129.248 
L 87.940312 116.234667 
L 87.954641 116.128 
L 88.062106 108.234667 
L 88.076435 106.421333 
L 88.1839 101.301333 
L 88.191065 101.301333 
L 88.29853 97.674667 
L 88.312859 97.674667 
L 88.312859 97.568 
L 88.41316 92.768 
L 88.420324 92.768 
L 88.434653 92.661333 
L 88.542118 87.648 
L 88.570775 87.541333 
L 88.678241 84.128 
L 88.699734 84.021333 
L 88.800035 80.714667 
L 88.807199 80.714667 
L 88.828692 80.608 
L 88.936157 77.621333 
L 88.95765 77.514667 
L 89.065116 74.421333 
L 89.158252 74.314667 
L 89.251389 71.434667 
L 89.265718 71.434667 
L 89.280046 71.328 
L 89.358854 70.261333 
L 89.387511 70.261333 
L 89.40184 70.261333 
L 89.40184 70.154667 
L 89.502141 68.341333 
L 89.509305 68.341333 
L 89.51647 68.234667 
L 89.588113 67.701333 
L 89.623935 67.701333 
L 89.709907 67.594667 
L 89.79588 66.954667 
L 89.817373 66.954667 
L 89.953495 66.848 
L 90.01081 66.421333 
L 90.060961 66.421333 
L 90.068125 66.314667 
L 90.118275 66.101333 
L 90.17559 66.101333 
L 90.211412 66.101333 
L 90.211412 65.994667 
L 90.304548 65.781333 
L 90.318877 65.781333 
L 90.877697 65.674667 
L 90.977998 65.461333 
L 90.985162 65.461333 
L 91.06397 65.354667 
L 91.135613 65.141333 
L 91.171435 65.141333 
L 91.60846 65.034667 
L 91.615625 64.928 
L 91.715926 64.928 
L 92.124294 64.821333 
L 92.131458 64.714667 
L 92.231759 64.714667 
L 93.485521 64.608 
L 93.485521 64.501333 
L 93.592986 64.501333 
L 94.201956 64.394667 
L 94.259271 64.074667 
L 94.309421 64.074667 
L 96.465891 63.968 
L 96.465891 63.861333 
L 96.573356 63.861333 
L 103.279189 63.754667 
L 103.286354 63.648 
L 103.386654 63.648 
L 384.96 63.648 
L 384.96 63.648 
" style="fill:none;stroke:#1f77b4;stroke-linecap:square;stroke-width:1.5;"/>
   </g>
   <g id="line2d_14">
    <path clip-path="url(#pe1f849e804)" d="M 87.36 285.408 
L 87.467442 182.261333 
L 87.474605 182.261333 
L 87.474605 182.154667 
L 87.582047 148.021333 
L 87.58921 148.021333 
L 87.58921 147.914667 
L 87.696652 122.528 
L 87.703814 122.528 
L 87.703814 122.421333 
L 87.811256 114.741333 
L 87.818419 114.741333 
L 87.818419 114.634667 
L 87.925861 99.701333 
L 87.976001 97.354667 
L 88.07628 90.528 
L 88.083443 90.528 
L 88.090606 90.528 
L 88.090606 90.421333 
L 88.198048 85.194667 
L 88.226699 85.194667 
L 88.226699 85.088 
L 88.319815 76.128 
L 88.334141 76.128 
L 88.348466 76.021333 
L 88.455908 73.248 
L 88.48456 73.248 
L 88.48456 73.141333 
L 88.584839 71.968 
L 88.592002 71.968 
L 88.656467 71.861333 
L 88.749583 70.794667 
L 88.763909 70.794667 
L 88.821211 70.688 
L 88.92149 69.941333 
L 88.928653 69.941333 
L 88.964467 69.941333 
L 89.057584 68.874667 
L 89.071909 68.874667 
L 89.107723 68.768 
L 89.179351 68.234667 
L 89.215165 68.234667 
L 89.243816 68.234667 
L 89.243816 68.128 
L 89.322607 67.488 
L 89.351258 67.488 
L 89.387072 67.488 
L 89.387072 67.381333 
L 89.480189 66.741333 
L 89.494514 66.741333 
L 89.580468 66.634667 
L 89.644933 66.208 
L 89.68791 66.208 
L 89.924282 66.101333 
L 89.988747 65.888 
L 90.031724 65.888 
L 90.096189 65.781333 
L 90.167817 65.461333 
L 90.203631 65.461333 
L 90.253771 65.461333 
L 90.253771 65.248 
L 90.361213 65.248 
L 90.461492 65.141333 
L 90.461492 65.034667 
L 90.568934 65.034667 
L 90.991539 64.928 
L 91.098981 64.608 
L 91.256563 64.501333 
L 91.356842 64.288 
L 91.364005 64.288 
L 96.220383 64.181333 
L 96.227546 64.074667 
L 96.327825 64.074667 
L 98.827642 63.968 
L 98.827642 63.861333 
L 98.935084 63.861333 
L 146.238213 63.754667 
L 384.96 63.648 
L 384.96 63.648 
" style="fill:none;stroke:#ff7f0e;stroke-dasharray:9.6,2.4,1.5,2.4;stroke-dashoffset:0;stroke-width:1.5;"/>
   </g>
   <g id="line2d_15">
    <path clip-path="url(#pe1f849e804)" d="M 87.36 285.408 
L 87.467473 179.808 
L 87.474638 179.808 
L 87.474638 179.701333 
L 87.582111 133.621333 
L 87.589276 133.621333 
L 87.589276 133.514667 
L 87.689584 120.821333 
L 87.703914 120.821333 
L 87.703914 120.714667 
L 87.811387 108.661333 
L 87.818552 108.661333 
L 87.818552 108.554667 
L 87.91886 100.661333 
L 87.926025 100.661333 
L 87.93319 100.661333 
L 87.93319 100.554667 
L 88.040663 89.141333 
L 88.047827 89.141333 
L 88.1553 77.194667 
L 88.16963 77.194667 
L 88.16963 77.088 
L 88.241279 75.381333 
L 88.277103 75.381333 
L 88.298598 75.274667 
L 88.370247 74.314667 
L 88.406071 74.314667 
L 88.420401 74.208 
L 88.513544 72.928 
L 88.527874 72.928 
L 88.542203 72.821333 
L 88.642512 71.754667 
L 88.649676 71.754667 
L 88.721325 71.648 
L 88.814468 70.261333 
L 88.828798 70.261333 
L 88.843128 70.154667 
L 88.936271 69.621333 
L 88.950601 69.621333 
L 88.972096 69.514667 
L 89.043744 69.194667 
L 89.079569 69.194667 
L 89.144052 69.088 
L 89.237196 68.768 
L 89.251525 68.768 
L 89.351834 68.768 
L 89.351834 68.661333 
L 89.444977 68.021333 
L 89.459307 68.021333 
L 89.588274 67.914667 
L 89.681418 67.488 
L 89.695747 67.488 
L 89.738737 67.488 
L 89.83188 66.528 
L 89.84621 66.528 
L 89.968012 66.421333 
L 89.982342 66.101333 
L 90.075485 66.101333 
L 90.197288 65.994667 
L 90.268937 65.674667 
L 90.304761 65.674667 
L 90.534037 65.568 
L 90.670169 65.354667 
L 90.763313 65.248 
L 90.799137 64.928 
L 90.870786 64.928 
L 91.164545 64.821333 
L 91.221864 64.608 
L 91.272018 64.608 
L 91.515624 64.608 
L 91.515624 64.394667 
L 91.623097 64.394667 
L 92.2751 64.288 
L 92.282265 64.181333 
L 92.382573 64.181333 
L 97.376487 64.074667 
L 97.376487 63.968 
L 97.48396 63.968 
L 108.904761 63.861333 
L 108.904761 63.754667 
L 109.012234 63.754667 
L 384.96 63.648 
L 384.96 63.648 
" style="fill:none;stroke:#2ca02c;stroke-dasharray:5.55,2.4;stroke-dashoffset:0;stroke-width:1.5;"/>
   </g>
   <g id="patch_4">
    <path d="M 57.6 307.584 
L 57.6 41.472 
" style="fill:none;stroke:#000000;stroke-linecap:square;stroke-linejoin:miter;stroke-width:0.8;"/>
   </g>
   <g id="patch_5">
    <path d="M 414.72 307.584 
L 414.72 41.472 
" style="fill:none;stroke:#000000;stroke-linecap:square;stroke-linejoin:miter;stroke-width:0.8;"/>
   </g>
   <g id="patch_6">
    <path d="M 57.6 307.584 
L 414.72 307.584 
" style="fill:none;stroke:#000000;stroke-linecap:square;stroke-linejoin:miter;stroke-width:0.8;"/>
   </g>
   <g id="patch_7">
    <path d="M 57.6 41.472 
L 414.72 41.472 
" style="fill:none;stroke:#000000;stroke-linecap:square;stroke-linejoin:miter;stroke-width:0.8;"/>
   </g>
   <g id="legend_1">
    <g id="patch_8">
     <path d="M 217.846562 302.584 
L 407.72 302.584 
Q 409.72 302.584 409.72 300.584 
L 409.72 257.549625 
Q 409.72 255.549625 407.72 255.549625 
L 217.846562 255.549625 
Q 215.846562 255.549625 215.846562 257.549625 
L 215.846562 300.584 
Q 215.846562 302.584 217.846562 302.584 
z
" style="fill:#ffffff;opacity:0.8;stroke:#cccccc;stroke-linejoin:miter;"/>
    </g>
    <g id="line2d_16">
     <path d="M 219.846562 263.648062 
L 239.846562 263.648062 
" style="fill:none;stroke:#1f77b4;stroke-linecap:square;stroke-width:1.5;"/>
    </g>
    <g id="line2d_17"/>
    <g id="text_15">
     <!-- linear-SVM model (auc: 0.9985) -->
     <g transform="translate(247.846562 267.148062)scale(0.1 -0.1)">
      <defs>
       <path d="M 3513 2113 
L 3513 0 
L 2938 0 
L 2938 2094 
Q 2938 2591 2744 2837 
Q 2550 3084 2163 3084 
Q 1697 3084 1428 2787 
Q 1159 2491 1159 1978 
L 1159 0 
L 581 0 
L 581 3500 
L 1159 3500 
L 1159 2956 
Q 1366 3272 1645 3428 
Q 1925 3584 2291 3584 
Q 2894 3584 3203 3211 
Q 3513 2838 3513 2113 
z
" id="DejaVuSans-6e" transform="scale(0.015625)"/>
       <path d="M 313 2009 
L 1997 2009 
L 1997 1497 
L 313 1497 
L 313 2009 
z
" id="DejaVuSans-2d" transform="scale(0.015625)"/>
       <path d="M 3425 4513 
L 3425 3897 
Q 3066 4069 2747 4153 
Q 2428 4238 2131 4238 
Q 1616 4238 1336 4038 
Q 1056 3838 1056 3469 
Q 1056 3159 1242 3001 
Q 1428 2844 1947 2747 
L 2328 2669 
Q 3034 2534 3370 2195 
Q 3706 1856 3706 1288 
Q 3706 609 3251 259 
Q 2797 -91 1919 -91 
Q 1588 -91 1214 -16 
Q 841 59 441 206 
L 441 856 
Q 825 641 1194 531 
Q 1563 422 1919 422 
Q 2459 422 2753 634 
Q 3047 847 3047 1241 
Q 3047 1584 2836 1778 
Q 2625 1972 2144 2069 
L 1759 2144 
Q 1053 2284 737 2584 
Q 422 2884 422 3419 
Q 422 4038 858 4394 
Q 1294 4750 2059 4750 
Q 2388 4750 2728 4690 
Q 3069 4631 3425 4513 
z
" id="DejaVuSans-53" transform="scale(0.015625)"/>
       <path d="M 1831 0 
L 50 4666 
L 709 4666 
L 2188 738 
L 3669 4666 
L 4325 4666 
L 2547 0 
L 1831 0 
z
" id="DejaVuSans-56" transform="scale(0.015625)"/>
       <path d="M 628 4666 
L 1569 4666 
L 2759 1491 
L 3956 4666 
L 4897 4666 
L 4897 0 
L 4281 0 
L 4281 4097 
L 3078 897 
L 2444 897 
L 1241 4097 
L 1241 0 
L 628 0 
L 628 4666 
z
" id="DejaVuSans-4d" transform="scale(0.015625)"/>
       <path d="M 3328 2828 
Q 3544 3216 3844 3400 
Q 4144 3584 4550 3584 
Q 5097 3584 5394 3201 
Q 5691 2819 5691 2113 
L 5691 0 
L 5113 0 
L 5113 2094 
Q 5113 2597 4934 2840 
Q 4756 3084 4391 3084 
Q 3944 3084 3684 2787 
Q 3425 2491 3425 1978 
L 3425 0 
L 2847 0 
L 2847 2094 
Q 2847 2600 2669 2842 
Q 2491 3084 2119 3084 
Q 1678 3084 1418 2786 
Q 1159 2488 1159 1978 
L 1159 0 
L 581 0 
L 581 3500 
L 1159 3500 
L 1159 2956 
Q 1356 3278 1631 3431 
Q 1906 3584 2284 3584 
Q 2666 3584 2933 3390 
Q 3200 3197 3328 2828 
z
" id="DejaVuSans-6d" transform="scale(0.015625)"/>
       <path d="M 2906 2969 
L 2906 4863 
L 3481 4863 
L 3481 0 
L 2906 0 
L 2906 525 
Q 2725 213 2448 61 
Q 2172 -91 1784 -91 
Q 1150 -91 751 415 
Q 353 922 353 1747 
Q 353 2572 751 3078 
Q 1150 3584 1784 3584 
Q 2172 3584 2448 3432 
Q 2725 3281 2906 2969 
z
M 947 1747 
Q 947 1113 1208 752 
Q 1469 391 1925 391 
Q 2381 391 2643 752 
Q 2906 1113 2906 1747 
Q 2906 2381 2643 2742 
Q 2381 3103 1925 3103 
Q 1469 3103 1208 2742 
Q 947 2381 947 1747 
z
" id="DejaVuSans-64" transform="scale(0.015625)"/>
       <path d="M 1984 4856 
Q 1566 4138 1362 3434 
Q 1159 2731 1159 2009 
Q 1159 1288 1364 580 
Q 1569 -128 1984 -844 
L 1484 -844 
Q 1016 -109 783 600 
Q 550 1309 550 2009 
Q 550 2706 781 3412 
Q 1013 4119 1484 4856 
L 1984 4856 
z
" id="DejaVuSans-28" transform="scale(0.015625)"/>
       <path d="M 3122 3366 
L 3122 2828 
Q 2878 2963 2633 3030 
Q 2388 3097 2138 3097 
Q 1578 3097 1268 2742 
Q 959 2388 959 1747 
Q 959 1106 1268 751 
Q 1578 397 2138 397 
Q 2388 397 2633 464 
Q 2878 531 3122 666 
L 3122 134 
Q 2881 22 2623 -34 
Q 2366 -91 2075 -91 
Q 1284 -91 818 406 
Q 353 903 353 1747 
Q 353 2603 823 3093 
Q 1294 3584 2113 3584 
Q 2378 3584 2631 3529 
Q 2884 3475 3122 3366 
z
" id="DejaVuSans-63" transform="scale(0.015625)"/>
       <path d="M 750 794 
L 1409 794 
L 1409 0 
L 750 0 
L 750 794 
z
M 750 3309 
L 1409 3309 
L 1409 2516 
L 750 2516 
L 750 3309 
z
" id="DejaVuSans-3a" transform="scale(0.015625)"/>
       <path d="M 703 97 
L 703 672 
Q 941 559 1184 500 
Q 1428 441 1663 441 
Q 2288 441 2617 861 
Q 2947 1281 2994 2138 
Q 2813 1869 2534 1725 
Q 2256 1581 1919 1581 
Q 1219 1581 811 2004 
Q 403 2428 403 3163 
Q 403 3881 828 4315 
Q 1253 4750 1959 4750 
Q 2769 4750 3195 4129 
Q 3622 3509 3622 2328 
Q 3622 1225 3098 567 
Q 2575 -91 1691 -91 
Q 1453 -91 1209 -44 
Q 966 3 703 97 
z
M 1959 2075 
Q 2384 2075 2632 2365 
Q 2881 2656 2881 3163 
Q 2881 3666 2632 3958 
Q 2384 4250 1959 4250 
Q 1534 4250 1286 3958 
Q 1038 3666 1038 3163 
Q 1038 2656 1286 2365 
Q 1534 2075 1959 2075 
z
" id="DejaVuSans-39" transform="scale(0.015625)"/>
       <path d="M 691 4666 
L 3169 4666 
L 3169 4134 
L 1269 4134 
L 1269 2991 
Q 1406 3038 1543 3061 
Q 1681 3084 1819 3084 
Q 2600 3084 3056 2656 
Q 3513 2228 3513 1497 
Q 3513 744 3044 326 
Q 2575 -91 1722 -91 
Q 1428 -91 1123 -41 
Q 819 9 494 109 
L 494 744 
Q 775 591 1075 516 
Q 1375 441 1709 441 
Q 2250 441 2565 725 
Q 2881 1009 2881 1497 
Q 2881 1984 2565 2268 
Q 2250 2553 1709 2553 
Q 1456 2553 1204 2497 
Q 953 2441 691 2322 
L 691 4666 
z
" id="DejaVuSans-35" transform="scale(0.015625)"/>
       <path d="M 513 4856 
L 1013 4856 
Q 1481 4119 1714 3412 
Q 1947 2706 1947 2009 
Q 1947 1309 1714 600 
Q 1481 -109 1013 -844 
L 513 -844 
Q 928 -128 1133 580 
Q 1338 1288 1338 2009 
Q 1338 2731 1133 3434 
Q 928 4138 513 4856 
z
" id="DejaVuSans-29" transform="scale(0.015625)"/>
      </defs>
      <use xlink:href="#DejaVuSans-6c"/>
      <use x="27.783203" xlink:href="#DejaVuSans-69"/>
      <use x="55.566406" xlink:href="#DejaVuSans-6e"/>
      <use x="118.945312" xlink:href="#DejaVuSans-65"/>
      <use x="180.46875" xlink:href="#DejaVuSans-61"/>
      <use x="241.748047" xlink:href="#DejaVuSans-72"/>
      <use x="276.486328" xlink:href="#DejaVuSans-2d"/>
      <use x="312.570312" xlink:href="#DejaVuSans-53"/>
      <use x="376.046875" xlink:href="#DejaVuSans-56"/>
      <use x="444.455078" xlink:href="#DejaVuSans-4d"/>
      <use x="530.734375" xlink:href="#DejaVuSans-20"/>
      <use x="562.521484" xlink:href="#DejaVuSans-6d"/>
      <use x="659.933594" xlink:href="#DejaVuSans-6f"/>
      <use x="721.115234" xlink:href="#DejaVuSans-64"/>
      <use x="784.591797" xlink:href="#DejaVuSans-65"/>
      <use x="846.115234" xlink:href="#DejaVuSans-6c"/>
      <use x="873.898438" xlink:href="#DejaVuSans-20"/>
      <use x="905.685547" xlink:href="#DejaVuSans-28"/>
      <use x="944.699219" xlink:href="#DejaVuSans-61"/>
      <use x="1005.978516" xlink:href="#DejaVuSans-75"/>
      <use x="1069.357422" xlink:href="#DejaVuSans-63"/>
      <use x="1124.337891" xlink:href="#DejaVuSans-3a"/>
      <use x="1158.029297" xlink:href="#DejaVuSans-20"/>
      <use x="1189.816406" xlink:href="#DejaVuSans-30"/>
      <use x="1253.439453" xlink:href="#DejaVuSans-2e"/>
      <use x="1285.226562" xlink:href="#DejaVuSans-39"/>
      <use x="1348.849609" xlink:href="#DejaVuSans-39"/>
      <use x="1412.472656" xlink:href="#DejaVuSans-38"/>
      <use x="1476.095703" xlink:href="#DejaVuSans-35"/>
      <use x="1539.71875" xlink:href="#DejaVuSans-29"/>
     </g>
    </g>
    <g id="line2d_18">
     <path d="M 219.846562 278.326188 
L 239.846562 278.326188 
" style="fill:none;stroke:#ff7f0e;stroke-dasharray:9.6,2.4,1.5,2.4;stroke-dashoffset:0;stroke-width:1.5;"/>
    </g>
    <g id="line2d_19"/>
    <g id="text_16">
     <!-- rbf-SVM model (auc: 0.9986) -->
     <g transform="translate(247.846562 281.826188)scale(0.1 -0.1)">
      <defs>
       <path d="M 3116 1747 
Q 3116 2381 2855 2742 
Q 2594 3103 2138 3103 
Q 1681 3103 1420 2742 
Q 1159 2381 1159 1747 
Q 1159 1113 1420 752 
Q 1681 391 2138 391 
Q 2594 391 2855 752 
Q 3116 1113 3116 1747 
z
M 1159 2969 
Q 1341 3281 1617 3432 
Q 1894 3584 2278 3584 
Q 2916 3584 3314 3078 
Q 3713 2572 3713 1747 
Q 3713 922 3314 415 
Q 2916 -91 2278 -91 
Q 1894 -91 1617 61 
Q 1341 213 1159 525 
L 1159 0 
L 581 0 
L 581 4863 
L 1159 4863 
L 1159 2969 
z
" id="DejaVuSans-62" transform="scale(0.015625)"/>
       <path d="M 2375 4863 
L 2375 4384 
L 1825 4384 
Q 1516 4384 1395 4259 
Q 1275 4134 1275 3809 
L 1275 3500 
L 2222 3500 
L 2222 3053 
L 1275 3053 
L 1275 0 
L 697 0 
L 697 3053 
L 147 3053 
L 147 3500 
L 697 3500 
L 697 3744 
Q 697 4328 969 4595 
Q 1241 4863 1831 4863 
L 2375 4863 
z
" id="DejaVuSans-66" transform="scale(0.015625)"/>
      </defs>
      <use xlink:href="#DejaVuSans-72"/>
      <use x="41.113281" xlink:href="#DejaVuSans-62"/>
      <use x="104.589844" xlink:href="#DejaVuSans-66"/>
      <use x="134.294922" xlink:href="#DejaVuSans-2d"/>
      <use x="170.378906" xlink:href="#DejaVuSans-53"/>
      <use x="233.855469" xlink:href="#DejaVuSans-56"/>
      <use x="302.263672" xlink:href="#DejaVuSans-4d"/>
      <use x="388.542969" xlink:href="#DejaVuSans-20"/>
      <use x="420.330078" xlink:href="#DejaVuSans-6d"/>
      <use x="517.742188" xlink:href="#DejaVuSans-6f"/>
      <use x="578.923828" xlink:href="#DejaVuSans-64"/>
      <use x="642.400391" xlink:href="#DejaVuSans-65"/>
      <use x="703.923828" xlink:href="#DejaVuSans-6c"/>
      <use x="731.707031" xlink:href="#DejaVuSans-20"/>
      <use x="763.494141" xlink:href="#DejaVuSans-28"/>
      <use x="802.507812" xlink:href="#DejaVuSans-61"/>
      <use x="863.787109" xlink:href="#DejaVuSans-75"/>
      <use x="927.166016" xlink:href="#DejaVuSans-63"/>
      <use x="982.146484" xlink:href="#DejaVuSans-3a"/>
      <use x="1015.837891" xlink:href="#DejaVuSans-20"/>
      <use x="1047.625" xlink:href="#DejaVuSans-30"/>
      <use x="1111.248047" xlink:href="#DejaVuSans-2e"/>
      <use x="1143.035156" xlink:href="#DejaVuSans-39"/>
      <use x="1206.658203" xlink:href="#DejaVuSans-39"/>
      <use x="1270.28125" xlink:href="#DejaVuSans-38"/>
      <use x="1333.904297" xlink:href="#DejaVuSans-36"/>
      <use x="1397.527344" xlink:href="#DejaVuSans-29"/>
     </g>
    </g>
    <g id="line2d_20">
     <path d="M 219.846562 293.004312 
L 239.846562 293.004312 
" style="fill:none;stroke:#2ca02c;stroke-dasharray:5.55,2.4;stroke-dashoffset:0;stroke-width:1.5;"/>
    </g>
    <g id="line2d_21"/>
    <g id="text_17">
     <!-- poly-SVM model (auc: 0.9989) -->
     <g transform="translate(247.846562 296.504312)scale(0.1 -0.1)">
      <defs>
       <path d="M 1159 525 
L 1159 -1331 
L 581 -1331 
L 581 3500 
L 1159 3500 
L 1159 2969 
Q 1341 3281 1617 3432 
Q 1894 3584 2278 3584 
Q 2916 3584 3314 3078 
Q 3713 2572 3713 1747 
Q 3713 922 3314 415 
Q 2916 -91 2278 -91 
Q 1894 -91 1617 61 
Q 1341 213 1159 525 
z
M 3116 1747 
Q 3116 2381 2855 2742 
Q 2594 3103 2138 3103 
Q 1681 3103 1420 2742 
Q 1159 2381 1159 1747 
Q 1159 1113 1420 752 
Q 1681 391 2138 391 
Q 2594 391 2855 752 
Q 3116 1113 3116 1747 
z
" id="DejaVuSans-70" transform="scale(0.015625)"/>
       <path d="M 2059 -325 
Q 1816 -950 1584 -1140 
Q 1353 -1331 966 -1331 
L 506 -1331 
L 506 -850 
L 844 -850 
Q 1081 -850 1212 -737 
Q 1344 -625 1503 -206 
L 1606 56 
L 191 3500 
L 800 3500 
L 1894 763 
L 2988 3500 
L 3597 3500 
L 2059 -325 
z
" id="DejaVuSans-79" transform="scale(0.015625)"/>
      </defs>
      <use xlink:href="#DejaVuSans-70"/>
      <use x="63.476562" xlink:href="#DejaVuSans-6f"/>
      <use x="124.658203" xlink:href="#DejaVuSans-6c"/>
      <use x="152.441406" xlink:href="#DejaVuSans-79"/>
      <use x="209.871094" xlink:href="#DejaVuSans-2d"/>
      <use x="245.955078" xlink:href="#DejaVuSans-53"/>
      <use x="309.431641" xlink:href="#DejaVuSans-56"/>
      <use x="377.839844" xlink:href="#DejaVuSans-4d"/>
      <use x="464.119141" xlink:href="#DejaVuSans-20"/>
      <use x="495.90625" xlink:href="#DejaVuSans-6d"/>
      <use x="593.318359" xlink:href="#DejaVuSans-6f"/>
      <use x="654.5" xlink:href="#DejaVuSans-64"/>
      <use x="717.976562" xlink:href="#DejaVuSans-65"/>
      <use x="779.5" xlink:href="#DejaVuSans-6c"/>
      <use x="807.283203" xlink:href="#DejaVuSans-20"/>
      <use x="839.070312" xlink:href="#DejaVuSans-28"/>
      <use x="878.083984" xlink:href="#DejaVuSans-61"/>
      <use x="939.363281" xlink:href="#DejaVuSans-75"/>
      <use x="1002.742188" xlink:href="#DejaVuSans-63"/>
      <use x="1057.722656" xlink:href="#DejaVuSans-3a"/>
      <use x="1091.414062" xlink:href="#DejaVuSans-20"/>
      <use x="1123.201172" xlink:href="#DejaVuSans-30"/>
      <use x="1186.824219" xlink:href="#DejaVuSans-2e"/>
      <use x="1218.611328" xlink:href="#DejaVuSans-39"/>
      <use x="1282.234375" xlink:href="#DejaVuSans-39"/>
      <use x="1345.857422" xlink:href="#DejaVuSans-38"/>
      <use x="1409.480469" xlink:href="#DejaVuSans-39"/>
      <use x="1473.103516" xlink:href="#DejaVuSans-29"/>
     </g>
    </g>
   </g>
  </g>
  <g id="axes_2">
   <g id="patch_9">
    <path d="M 182.592 227.7504 
L 289.728 227.7504 
L 289.728 121.3056 
L 182.592 121.3056 
z
" style="fill:#ffffff;"/>
   </g>
   <g id="patch_10">
    <path d="M 289.728 121.3056 
L 102.24 63.648 
" style="fill:none;stroke:#000000;stroke-dasharray:3.7,1.6;stroke-dashoffset:0;stroke-linejoin:miter;"/>
   </g>
   <g id="patch_11">
    <path d="M 182.592 227.7504 
L 87.36 74.736 
" style="fill:none;stroke:#000000;stroke-dasharray:3.7,1.6;stroke-dashoffset:0;stroke-linejoin:miter;"/>
   </g>
   <g id="matplotlib.axis_3">
    <g id="xtick_7">
     <g id="line2d_22">
      <g>
       <use style="stroke:#000000;stroke-width:0.8;" x="182.592" xlink:href="#m8de80c2e54" y="227.7504"/>
      </g>
     </g>
     <g id="text_18">
      <!-- 0.00 -->
      <g transform="translate(171.459188 242.348838)scale(0.1 -0.1)">
       <use xlink:href="#DejaVuSans-30"/>
       <use x="63.623047" xlink:href="#DejaVuSans-2e"/>
       <use x="95.410156" xlink:href="#DejaVuSans-30"/>
       <use x="159.033203" xlink:href="#DejaVuSans-30"/>
      </g>
     </g>
    </g>
    <g id="xtick_8">
     <g id="line2d_23">
      <g>
       <use style="stroke:#000000;stroke-width:0.8;" x="225.4464" xlink:href="#m8de80c2e54" y="227.7504"/>
      </g>
     </g>
     <g id="text_19">
      <!-- 0.02 -->
      <g transform="translate(214.313588 242.348838)scale(0.1 -0.1)">
       <use xlink:href="#DejaVuSans-30"/>
       <use x="63.623047" xlink:href="#DejaVuSans-2e"/>
       <use x="95.410156" xlink:href="#DejaVuSans-30"/>
       <use x="159.033203" xlink:href="#DejaVuSans-32"/>
      </g>
     </g>
    </g>
    <g id="xtick_9">
     <g id="line2d_24">
      <g>
       <use style="stroke:#000000;stroke-width:0.8;" x="268.3008" xlink:href="#m8de80c2e54" y="227.7504"/>
      </g>
     </g>
     <g id="text_20">
      <!-- 0.04 -->
      <g transform="translate(257.167987 242.348838)scale(0.1 -0.1)">
       <use xlink:href="#DejaVuSans-30"/>
       <use x="63.623047" xlink:href="#DejaVuSans-2e"/>
       <use x="95.410156" xlink:href="#DejaVuSans-30"/>
       <use x="159.033203" xlink:href="#DejaVuSans-34"/>
      </g>
     </g>
    </g>
   </g>
   <g id="matplotlib.axis_4">
    <g id="ytick_7">
     <g id="line2d_25">
      <g>
       <use style="stroke:#000000;stroke-width:0.8;" x="182.592" xlink:href="#m25a5ad4161" y="206.46144"/>
      </g>
     </g>
     <g id="text_21">
      <!-- 0.96 -->
      <g transform="translate(153.326375 210.260659)scale(0.1 -0.1)">
       <use xlink:href="#DejaVuSans-30"/>
       <use x="63.623047" xlink:href="#DejaVuSans-2e"/>
       <use x="95.410156" xlink:href="#DejaVuSans-39"/>
       <use x="159.033203" xlink:href="#DejaVuSans-36"/>
      </g>
     </g>
    </g>
    <g id="ytick_8">
     <g id="line2d_26">
      <g>
       <use style="stroke:#000000;stroke-width:0.8;" x="182.592" xlink:href="#m25a5ad4161" y="163.88352"/>
      </g>
     </g>
     <g id="text_22">
      <!-- 0.98 -->
      <g transform="translate(153.326375 167.682739)scale(0.1 -0.1)">
       <use xlink:href="#DejaVuSans-30"/>
       <use x="63.623047" xlink:href="#DejaVuSans-2e"/>
       <use x="95.410156" xlink:href="#DejaVuSans-39"/>
       <use x="159.033203" xlink:href="#DejaVuSans-38"/>
      </g>
     </g>
    </g>
    <g id="ytick_9">
     <g id="line2d_27">
      <g>
       <use style="stroke:#000000;stroke-width:0.8;" x="182.592" xlink:href="#m25a5ad4161" y="121.3056"/>
      </g>
     </g>
     <g id="text_23">
      <!-- 1.00 -->
      <g transform="translate(153.326375 125.104819)scale(0.1 -0.1)">
       <use xlink:href="#DejaVuSans-31"/>
       <use x="63.623047" xlink:href="#DejaVuSans-2e"/>
       <use x="95.410156" xlink:href="#DejaVuSans-30"/>
       <use x="159.033203" xlink:href="#DejaVuSans-30"/>
      </g>
     </g>
    </g>
   </g>
   <g id="line2d_28">
    <path clip-path="url(#p0e45ee268a)" d="M 191.361166 346.6 
L 191.41275 344.5376 
L 191.464333 344.5376 
L 191.5675 344.5376 
L 191.670666 337.3696 
L 191.72225 337.3696 
L 191.825416 327.1296 
L 191.928583 327.1296 
L 192.03175 318.9376 
L 192.083333 318.9376 
L 192.134916 316.8896 
L 192.1865 316.8896 
L 192.238083 316.8896 
L 192.238083 315.8656 
L 192.34125 315.8656 
L 192.496 315.8656 
L 192.599166 305.6256 
L 192.702333 305.6256 
L 192.8055 292.3136 
L 192.857083 292.3136 
L 192.96025 285.1456 
L 193.063416 285.1456 
L 193.166583 282.0736 
L 193.4245 282.0736 
L 193.527666 280.0256 
L 193.57925 280.0256 
L 193.630833 276.9536 
L 193.682416 276.9536 
L 193.785583 276.9536 
L 193.88875 263.6416 
L 193.940333 263.6416 
L 193.991916 254.4256 
L 194.0435 254.4256 
L 194.095083 254.4256 
L 194.146666 252.3776 
L 194.19825 252.3776 
L 194.301416 252.3776 
L 194.404583 242.1376 
L 194.50775 242.1376 
L 194.610916 227.8016 
L 194.765666 227.8016 
L 194.868833 224.7296 
L 194.920416 224.7296 
L 194.920416 223.7056 
L 195.023583 223.7056 
L 195.539416 223.7056 
L 195.539416 222.6816 
L 195.590999 222.6816 
L 195.694166 222.6816 
L 195.745749 216.5376 
L 195.797333 216.5376 
L 195.848916 216.5376 
L 195.952083 202.2016 
L 196.003666 202.2016 
L 196.106833 197.0816 
L 196.209999 197.0816 
L 196.209999 196.0576 
L 196.313166 196.0576 
L 196.364749 196.0576 
L 196.467916 192.9856 
L 196.622666 192.9856 
L 196.725833 185.8176 
L 196.983749 185.8176 
L 196.983749 184.7936 
L 197.086916 184.7936 
L 197.293249 184.7936 
L 197.293249 180.6976 
L 197.396416 180.6976 
L 197.602749 180.6976 
L 197.705916 177.6256 
L 197.757499 177.6256 
L 197.757499 176.6016 
L 197.860666 176.6016 
L 197.912249 176.6016 
L 198.015416 166.3616 
L 198.118583 166.3616 
L 198.118583 164.3136 
L 198.221749 164.3136 
L 198.479666 164.3136 
L 198.582833 161.2416 
L 198.634416 161.2416 
L 198.634416 160.2176 
L 198.737583 160.2176 
L 198.943916 160.2176 
L 198.943916 159.1936 
L 199.047083 159.1936 
L 199.511333 159.1936 
L 199.511333 158.1696 
L 199.614499 158.1696 
L 199.717666 158.1696 
L 199.717666 157.1456 
L 199.820833 157.1456 
L 199.975583 157.1456 
L 200.027166 155.0976 
L 200.078749 155.0976 
L 200.130333 155.0976 
L 200.130333 153.0496 
L 200.233499 153.0496 
L 200.336666 153.0496 
L 200.336666 152.0256 
L 200.439833 152.0256 
L 201.265166 152.0256 
L 201.265166 148.9536 
L 201.368333 148.9536 
L 201.677833 148.9536 
L 201.677833 147.9296 
L 201.780999 147.9296 
L 202.090499 147.9296 
L 202.090499 145.8816 
L 202.193666 145.8816 
L 202.451583 145.8816 
L 202.451583 144.8576 
L 202.554749 144.8576 
L 203.122166 144.8576 
L 203.122166 142.8096 
L 203.225333 142.8096 
L 203.792749 142.8096 
L 203.792749 141.7856 
L 203.895916 141.7856 
L 204.102249 141.7856 
L 204.102249 140.7616 
L 204.205416 140.7616 
L 207.919416 140.7616 
L 207.919416 139.7376 
L 208.022582 139.7376 
L 208.641582 139.7376 
L 208.641582 138.7136 
L 208.744749 138.7136 
L 209.105832 138.7136 
L 209.105832 137.6896 
L 209.208999 137.6896 
L 209.260582 137.6896 
L 209.260582 136.6656 
L 209.312166 136.6656 
L 209.776416 136.6656 
L 209.776416 135.6416 
L 209.879582 135.6416 
L 212.510332 135.6416 
L 212.510332 134.6176 
L 212.613499 134.6176 
L 213.180915 134.6176 
L 213.180915 133.5936 
L 213.284082 133.5936 
L 216.017999 133.5936 
L 216.017999 132.5696 
L 216.121165 132.5696 
L 216.894915 132.5696 
L 216.894915 131.5456 
L 216.998082 131.5456 
L 218.184499 131.5456 
L 218.184499 130.5216 
L 218.287665 130.5216 
L 226.695748 130.5216 
L 226.695748 129.4976 
L 226.798915 129.4976 
L 228.501165 129.4976 
L 228.501165 128.4736 
L 228.604332 128.4736 
L 231.854081 128.4736 
L 231.854081 127.4496 
L 231.957248 127.4496 
L 232.266748 127.4496 
L 232.266748 125.4016 
L 232.369915 125.4016 
L 245.523664 125.4016 
L 245.523664 124.3776 
L 245.626831 124.3776 
L 248.154414 124.3776 
L 248.154414 123.3536 
L 248.257581 123.3536 
L 273.63658 123.3536 
L 273.63658 122.3296 
L 273.739746 122.3296 
L 289.730579 122.3296 
L 289.730579 122.3296 
" style="fill:none;stroke:#1f77b4;stroke-linecap:square;stroke-width:1.5;"/>
   </g>
   <g id="line2d_29">
    <path clip-path="url(#p0e45ee268a)" d="M 188.264937 346.6 
L 188.368082 334.2976 
L 188.471226 334.2976 
L 188.522798 329.1776 
L 188.57437 329.1776 
L 188.625942 329.1776 
L 188.625942 328.1536 
L 188.729087 328.1536 
L 188.832231 328.1536 
L 188.883803 322.0096 
L 188.935375 322.0096 
L 188.986948 322.0096 
L 189.03852 318.9376 
L 189.090092 318.9376 
L 189.29638 318.9376 
L 189.399525 242.1376 
L 189.502669 242.1376 
L 189.502669 241.1136 
L 189.605813 241.1136 
L 189.657386 241.1136 
L 189.708958 239.0656 
L 189.76053 239.0656 
L 189.812102 239.0656 
L 189.915246 231.8976 
L 189.966819 231.8976 
L 189.966819 228.8256 
L 190.069963 228.8256 
L 190.121535 228.8256 
L 190.224679 223.7056 
L 190.327824 223.7056 
L 190.379396 215.5136 
L 190.430968 215.5136 
L 190.48254 215.5136 
L 190.48254 213.4656 
L 190.585684 213.4656 
L 190.688829 213.4656 
L 190.740401 209.3696 
L 190.791973 209.3696 
L 190.895117 209.3696 
L 190.998262 206.2976 
L 191.049834 206.2976 
L 191.049834 205.2736 
L 191.152978 205.2736 
L 191.20455 205.2736 
L 191.20455 202.2016 
L 191.307695 202.2016 
L 191.410839 202.2016 
L 191.410839 201.1776 
L 191.513983 201.1776 
L 191.823416 201.1776 
L 191.926561 197.0816 
L 192.184421 197.0816 
L 192.287566 192.9856 
L 192.339138 192.9856 
L 192.339138 191.9616 
L 192.39071 191.9616 
L 192.545426 191.9616 
L 192.596999 189.9136 
L 193.061148 189.9136 
L 193.11272 187.8656 
L 193.164292 187.8656 
L 193.215864 187.8656 
L 193.215864 186.8416 
L 193.319009 186.8416 
L 193.422153 186.8416 
L 193.473725 184.7936 
L 193.525297 184.7936 
L 193.628442 184.7936 
L 193.731586 182.7456 
L 193.83473 182.7456 
L 193.83473 181.7216 
L 193.937875 181.7216 
L 194.144163 181.7216 
L 194.144163 178.6496 
L 194.247308 178.6496 
L 194.402024 178.6496 
L 194.402024 176.6016 
L 194.505168 176.6016 
L 194.608313 176.6016 
L 194.711457 172.5056 
L 194.814601 172.5056 
L 194.814601 171.4816 
L 194.917746 171.4816 
L 195.072462 171.4816 
L 195.175606 169.4336 
L 195.588184 169.4336 
L 195.691328 165.3376 
L 196.155477 165.3376 
L 196.155477 163.2896 
L 196.258622 163.2896 
L 196.361766 163.2896 
L 196.413338 161.2416 
L 196.46491 161.2416 
L 196.722771 161.2416 
L 196.722771 158.1696 
L 196.825915 158.1696 
L 197.186921 158.1696 
L 197.186921 155.0976 
L 197.290065 155.0976 
L 197.393209 155.0976 
L 197.393209 154.0736 
L 197.496354 154.0736 
L 197.599498 154.0736 
L 197.599498 153.0496 
L 197.702642 153.0496 
L 197.857359 153.0496 
L 197.857359 151.0016 
L 197.960503 151.0016 
L 198.166792 151.0016 
L 198.166792 149.9776 
L 198.269936 149.9776 
L 198.579369 149.9776 
L 198.579369 148.9536 
L 198.682513 148.9536 
L 198.888802 148.9536 
L 198.888802 146.9056 
L 198.991946 146.9056 
L 199.043518 146.9056 
L 199.043518 145.8816 
L 199.146663 145.8816 
L 200.951688 145.8816 
L 201.054832 143.8336 
L 201.518982 143.8336 
L 201.518982 142.8096 
L 201.622126 142.8096 
L 202.240992 142.8096 
L 202.292564 140.7616 
L 202.344136 140.7616 
L 202.653569 140.7616 
L 202.653569 139.7376 
L 202.705141 139.7376 
L 202.808286 139.7376 
L 202.808286 138.7136 
L 202.91143 138.7136 
L 203.427152 138.7136 
L 203.427152 136.6656 
L 203.530296 136.6656 
L 204.561739 136.6656 
L 204.561739 135.6416 
L 204.664883 135.6416 
L 204.922744 135.6416 
L 204.922744 134.6176 
L 205.025889 134.6176 
L 206.212048 134.6176 
L 206.212048 133.5936 
L 206.315192 133.5936 
L 208.739084 133.5936 
L 208.739084 132.5696 
L 208.842228 132.5696 
L 208.996945 132.5696 
L 208.996945 131.5456 
L 209.100089 131.5456 
L 209.512666 131.5456 
L 209.512666 130.5216 
L 209.615811 130.5216 
L 210.028388 130.5216 
L 210.028388 129.4976 
L 210.131532 129.4976 
L 210.647254 129.4976 
L 210.647254 128.4736 
L 210.750398 128.4736 
L 211.369264 128.4736 
L 211.369264 127.4496 
L 211.472408 127.4496 
L 218.898799 127.4496 
L 218.898799 126.4256 
L 219.001943 126.4256 
L 246.386759 126.4256 
L 246.386759 125.4016 
L 246.489903 125.4016 
L 248.965367 125.4016 
L 248.965367 124.3776 
L 249.068511 124.3776 
L 265.159024 124.3776 
L 265.159024 123.3536 
L 265.262168 123.3536 
L 268.201781 123.3536 
L 268.201781 122.3296 
L 268.304926 122.3296 
L 289.758943 122.3296 
L 289.758943 122.3296 
" style="fill:none;stroke:#ff7f0e;stroke-dasharray:9.6,2.4,1.5,2.4;stroke-dashoffset:0;stroke-width:1.5;"/>
   </g>
   <g id="line2d_30">
    <path clip-path="url(#p0e45ee268a)" d="M 187.544357 346.6 
L 187.647532 292.3136 
L 187.750706 292.3136 
L 187.85388 281.0496 
L 187.957054 281.0496 
L 188.060228 256.4736 
L 188.163402 256.4736 
L 188.266576 253.4016 
L 188.318163 253.4016 
L 188.421337 248.2816 
L 188.472924 248.2816 
L 188.524512 241.1136 
L 188.576099 241.1136 
L 188.627686 241.1136 
L 188.627686 240.0896 
L 188.73086 240.0896 
L 188.782447 240.0896 
L 188.885621 234.9696 
L 188.937208 234.9696 
L 188.937208 233.9456 
L 189.040382 233.9456 
L 189.24673 233.9456 
L 189.349904 231.8976 
L 189.401492 231.8976 
L 189.453079 226.7776 
L 189.504666 226.7776 
L 189.865775 226.7776 
L 189.865775 223.7056 
L 189.968949 223.7056 
L 190.175297 223.7056 
L 190.278471 219.6096 
L 190.330059 219.6096 
L 190.433233 217.5616 
L 190.691168 217.5616 
L 190.794342 211.4176 
L 190.897516 211.4176 
L 190.897516 210.3936 
L 191.00069 210.3936 
L 191.052277 210.3936 
L 191.103864 208.3456 
L 191.155451 208.3456 
L 191.310213 208.3456 
L 191.413387 206.2976 
L 191.516561 206.2976 
L 191.619735 202.2016 
L 191.774496 202.2016 
L 191.826083 199.1296 
L 191.87767 199.1296 
L 191.980844 199.1296 
L 191.980844 198.1056 
L 192.084018 198.1056 
L 192.393541 198.1056 
L 192.393541 196.0576 
L 192.496715 196.0576 
L 192.548302 196.0576 
L 192.599889 189.9136 
L 192.651476 189.9136 
L 192.909411 189.9136 
L 193.012586 185.8176 
L 193.064173 185.8176 
L 193.064173 184.7936 
L 193.167347 184.7936 
L 193.218934 184.7936 
L 193.270521 182.7456 
L 193.322108 182.7456 
L 193.425282 182.7456 
L 193.425282 181.7216 
L 193.528456 181.7216 
L 193.786391 181.7216 
L 193.786391 179.6736 
L 193.889565 179.6736 
L 193.941153 179.6736 
L 193.941153 178.6496 
L 194.044327 178.6496 
L 194.147501 178.6496 
L 194.199088 176.6016 
L 194.250675 176.6016 
L 194.714958 176.6016 
L 194.714958 174.5536 
L 194.818133 174.5536 
L 195.024481 174.5536 
L 195.024481 173.5296 
L 195.127655 173.5296 
L 195.437177 173.5296 
L 195.437177 171.4816 
L 195.540351 171.4816 
L 196.107809 171.4816 
L 196.107809 170.4576 
L 196.210983 170.4576 
L 196.933202 170.4576 
L 197.036376 166.3616 
L 197.603834 166.3616 
L 197.603834 163.2896 
L 197.707008 163.2896 
L 197.861769 163.2896 
L 197.861769 162.2656 
L 197.964943 162.2656 
L 198.635575 162.2656 
L 198.687162 159.1936 
L 198.738749 159.1936 
L 199.306206 159.1936 
L 199.306206 158.1696 
L 199.409381 158.1696 
L 199.718903 158.1696 
L 199.718903 156.1216 
L 199.822077 156.1216 
L 199.976838 156.1216 
L 199.976838 154.0736 
L 200.080012 154.0736 
L 200.234773 154.0736 
L 200.286361 149.9776 
L 200.337948 149.9776 
L 200.389535 149.9776 
L 200.389535 148.9536 
L 200.492709 148.9536 
L 200.595883 148.9536 
L 200.595883 147.9296 
L 200.699057 147.9296 
L 201.369689 147.9296 
L 201.472863 144.8576 
L 202.968888 144.8576 
L 203.020475 142.8096 
L 203.072062 142.8096 
L 203.175236 142.8096 
L 203.175236 141.7856 
L 203.27841 141.7856 
L 203.536345 141.7856 
L 203.536345 140.7616 
L 203.639519 140.7616 
L 205.341892 140.7616 
L 205.341892 139.7376 
L 205.445066 139.7376 
L 205.651414 138.7136 
L 206.270459 138.7136 
L 206.270459 137.6896 
L 206.373633 137.6896 
L 206.941091 137.6896 
L 206.941091 136.6656 
L 207.044265 136.6656 
L 207.095852 136.6656 
L 207.095852 135.6416 
L 207.199026 135.6416 
L 207.3022 135.6416 
L 207.353787 133.5936 
L 207.405374 133.5936 
L 209.262508 133.5936 
L 209.262508 132.5696 
L 209.365683 132.5696 
L 209.984727 132.5696 
L 209.984727 131.5456 
L 210.087901 131.5456 
L 210.397424 131.5456 
L 210.397424 130.5216 
L 210.500598 130.5216 
L 212.512493 130.5216 
L 212.512493 128.4736 
L 212.56408 128.4736 
L 213.492647 128.4736 
L 213.492647 127.4496 
L 213.595821 127.4496 
L 217.980721 127.4496 
L 217.980721 126.4256 
L 218.083895 126.4256 
L 227.575914 126.4256 
L 227.575914 125.4016 
L 227.679088 125.4016 
L 254.710706 125.4016 
L 254.710706 124.3776 
L 254.81388 124.3776 
L 270.186823 124.3776 
L 270.186823 123.3536 
L 270.289997 123.3536 
L 289.738317 123.3536 
L 289.738317 123.3536 
" style="fill:none;stroke:#2ca02c;stroke-dasharray:5.55,2.4;stroke-dashoffset:0;stroke-width:1.5;"/>
   </g>
   <g id="patch_12">
    <path d="M 182.592 227.7504 
L 182.592 121.3056 
" style="fill:none;stroke:#000000;stroke-linecap:square;stroke-linejoin:miter;stroke-width:0.8;"/>
   </g>
   <g id="patch_13">
    <path d="M 289.728 227.7504 
L 289.728 121.3056 
" style="fill:none;stroke:#000000;stroke-linecap:square;stroke-linejoin:miter;stroke-width:0.8;"/>
   </g>
   <g id="patch_14">
    <path d="M 182.592 227.7504 
L 289.728 227.7504 
" style="fill:none;stroke:#000000;stroke-linecap:square;stroke-linejoin:miter;stroke-width:0.8;"/>
   </g>
   <g id="patch_15">
    <path d="M 182.592 121.3056 
L 289.728 121.3056 
" style="fill:none;stroke:#000000;stroke-linecap:square;stroke-linejoin:miter;stroke-width:0.8;"/>
   </g>
  </g>
 </g>
 <defs>
  <clipPath id="pe1f849e804">
   <rect height="266.112" width="357.12" x="57.6" y="41.472"/>
  </clipPath>
  <clipPath id="p0e45ee268a">
   <rect height="106.4448" width="107.136" x="182.592" y="121.3056"/>
  </clipPath>
 </defs>
</svg>
