<?xml version="1.0" encoding="utf-8" standalone="no"?>
<!DOCTYPE svg PUBLIC "-//W3C//DTD SVG 1.1//EN"
  "http://www.w3.org/Graphics/SVG/1.1/DTD/svg11.dtd">
<svg height="345.6pt" version="1.1" viewBox="0 0 460.8 345.6" width="460.8pt" xmlns="http://www.w3.org/2000/svg" xmlns:xlink="http://www.w3.org/1999/xlink">
 <metadata>
  <rdf:RDF xmlns:cc="http://creativecommons.org/ns#" xmlns:dc="http://purl.org/dc/elements/1.1/" xmlns:rdf="http://www.w3.org/1999/02/22-rdf-syntax-ns#">
   <cc:Work>
    <dc:type rdf:resource="http://purl.org/dc/dcmitype/StillImage"/>
    <dc:date>2021-06-27T11:00:54.919442</dc:date>
    <dc:format>image/svg+xml</dc:format>
    <dc:creator>
     <cc:Agent>
      <dc:title>Matplotlib v3.4.2, https://matplotlib.org/</dc:title>
     </cc:Agent>
    </dc:creator>
   </cc:Work>
  </rdf:RDF>
 </metadata>
 <defs>
  <style type="text/css">*{stroke-linecap:butt;stroke-linejoin:round;}</style>
 </defs>
 <g id="figure_1">
  <g id="patch_1">
   <path d="M 0 345.6 
L 460.8 345.6 
L 460.8 0 
L 0 0 
z
" style="fill:#ffffff;"/>
  </g>
  <g id="axes_1">
   <g id="patch_2">
    <path d="M 57.6 307.584 
L 414.72 307.584 
L 414.72 41.472 
L 57.6 41.472 
z
" style="fill:#ffffff;"/>
   </g>
   <g id="matplotlib.axis_1">
    <g id="xtick_1">
     <g id="line2d_1">
      <defs>
       <path d="M 0 0 
L 0 3.5 
" id="m637f1f89a4" style="stroke:#000000;stroke-width:0.8;"/>
      </defs>
      <g>
       <use style="stroke:#000000;stroke-width:0.8;" x="85.925459" xlink:href="#m637f1f89a4" y="307.584"/>
      </g>
     </g>
     <g id="text_1">
      <!-- −4 -->
      <g transform="translate(78.554365 322.182437)scale(0.1 -0.1)">
       <defs>
        <path d="M 678 2272 
L 4684 2272 
L 4684 1741 
L 678 1741 
L 678 2272 
z
" id="DejaVuSans-2212" transform="scale(0.015625)"/>
        <path d="M 2419 4116 
L 825 1625 
L 2419 1625 
L 2419 4116 
z
M 2253 4666 
L 3047 4666 
L 3047 1625 
L 3713 1625 
L 3713 1100 
L 3047 1100 
L 3047 0 
L 2419 0 
L 2419 1100 
L 313 1100 
L 313 1709 
L 2253 4666 
z
" id="DejaVuSans-34" transform="scale(0.015625)"/>
       </defs>
       <use xlink:href="#DejaVuSans-2212"/>
       <use x="83.789062" xlink:href="#DejaVuSans-34"/>
      </g>
     </g>
    </g>
    <g id="xtick_2">
     <g id="line2d_2">
      <g>
       <use style="stroke:#000000;stroke-width:0.8;" x="153.670267" xlink:href="#m637f1f89a4" y="307.584"/>
      </g>
     </g>
     <g id="text_2">
      <!-- −2 -->
      <g transform="translate(146.299173 322.182437)scale(0.1 -0.1)">
       <defs>
        <path d="M 1228 531 
L 3431 531 
L 3431 0 
L 469 0 
L 469 531 
Q 828 903 1448 1529 
Q 2069 2156 2228 2338 
Q 2531 2678 2651 2914 
Q 2772 3150 2772 3378 
Q 2772 3750 2511 3984 
Q 2250 4219 1831 4219 
Q 1534 4219 1204 4116 
Q 875 4013 500 3803 
L 500 4441 
Q 881 4594 1212 4672 
Q 1544 4750 1819 4750 
Q 2544 4750 2975 4387 
Q 3406 4025 3406 3419 
Q 3406 3131 3298 2873 
Q 3191 2616 2906 2266 
Q 2828 2175 2409 1742 
Q 1991 1309 1228 531 
z
" id="DejaVuSans-32" transform="scale(0.015625)"/>
       </defs>
       <use xlink:href="#DejaVuSans-2212"/>
       <use x="83.789062" xlink:href="#DejaVuSans-32"/>
      </g>
     </g>
    </g>
    <g id="xtick_3">
     <g id="line2d_3">
      <g>
       <use style="stroke:#000000;stroke-width:0.8;" x="221.415076" xlink:href="#m637f1f89a4" y="307.584"/>
      </g>
     </g>
     <g id="text_3">
      <!-- 0 -->
      <g transform="translate(218.233826 322.182437)scale(0.1 -0.1)">
       <defs>
        <path d="M 2034 4250 
Q 1547 4250 1301 3770 
Q 1056 3291 1056 2328 
Q 1056 1369 1301 889 
Q 1547 409 2034 409 
Q 2525 409 2770 889 
Q 3016 1369 3016 2328 
Q 3016 3291 2770 3770 
Q 2525 4250 2034 4250 
z
M 2034 4750 
Q 2819 4750 3233 4129 
Q 3647 3509 3647 2328 
Q 3647 1150 3233 529 
Q 2819 -91 2034 -91 
Q 1250 -91 836 529 
Q 422 1150 422 2328 
Q 422 3509 836 4129 
Q 1250 4750 2034 4750 
z
" id="DejaVuSans-30" transform="scale(0.015625)"/>
       </defs>
       <use xlink:href="#DejaVuSans-30"/>
      </g>
     </g>
    </g>
    <g id="xtick_4">
     <g id="line2d_4">
      <g>
       <use style="stroke:#000000;stroke-width:0.8;" x="289.159884" xlink:href="#m637f1f89a4" y="307.584"/>
      </g>
     </g>
     <g id="text_4">
      <!-- 2 -->
      <g transform="translate(285.978634 322.182437)scale(0.1 -0.1)">
       <use xlink:href="#DejaVuSans-32"/>
      </g>
     </g>
    </g>
    <g id="xtick_5">
     <g id="line2d_5">
      <g>
       <use style="stroke:#000000;stroke-width:0.8;" x="356.904692" xlink:href="#m637f1f89a4" y="307.584"/>
      </g>
     </g>
     <g id="text_5">
      <!-- 4 -->
      <g transform="translate(353.723442 322.182437)scale(0.1 -0.1)">
       <use xlink:href="#DejaVuSans-34"/>
      </g>
     </g>
    </g>
    <g id="text_6">
     <!-- Threshold -->
     <g transform="translate(211.521719 335.860562)scale(0.1 -0.1)">
      <defs>
       <path d="M -19 4666 
L 3928 4666 
L 3928 4134 
L 2272 4134 
L 2272 0 
L 1638 0 
L 1638 4134 
L -19 4134 
L -19 4666 
z
" id="DejaVuSans-54" transform="scale(0.015625)"/>
       <path d="M 3513 2113 
L 3513 0 
L 2938 0 
L 2938 2094 
Q 2938 2591 2744 2837 
Q 2550 3084 2163 3084 
Q 1697 3084 1428 2787 
Q 1159 2491 1159 1978 
L 1159 0 
L 581 0 
L 581 4863 
L 1159 4863 
L 1159 2956 
Q 1366 3272 1645 3428 
Q 1925 3584 2291 3584 
Q 2894 3584 3203 3211 
Q 3513 2838 3513 2113 
z
" id="DejaVuSans-68" transform="scale(0.015625)"/>
       <path d="M 2631 2963 
Q 2534 3019 2420 3045 
Q 2306 3072 2169 3072 
Q 1681 3072 1420 2755 
Q 1159 2438 1159 1844 
L 1159 0 
L 581 0 
L 581 3500 
L 1159 3500 
L 1159 2956 
Q 1341 3275 1631 3429 
Q 1922 3584 2338 3584 
Q 2397 3584 2469 3576 
Q 2541 3569 2628 3553 
L 2631 2963 
z
" id="DejaVuSans-72" transform="scale(0.015625)"/>
       <path d="M 3597 1894 
L 3597 1613 
L 953 1613 
Q 991 1019 1311 708 
Q 1631 397 2203 397 
Q 2534 397 2845 478 
Q 3156 559 3463 722 
L 3463 178 
Q 3153 47 2828 -22 
Q 2503 -91 2169 -91 
Q 1331 -91 842 396 
Q 353 884 353 1716 
Q 353 2575 817 3079 
Q 1281 3584 2069 3584 
Q 2775 3584 3186 3129 
Q 3597 2675 3597 1894 
z
M 3022 2063 
Q 3016 2534 2758 2815 
Q 2500 3097 2075 3097 
Q 1594 3097 1305 2825 
Q 1016 2553 972 2059 
L 3022 2063 
z
" id="DejaVuSans-65" transform="scale(0.015625)"/>
       <path d="M 2834 3397 
L 2834 2853 
Q 2591 2978 2328 3040 
Q 2066 3103 1784 3103 
Q 1356 3103 1142 2972 
Q 928 2841 928 2578 
Q 928 2378 1081 2264 
Q 1234 2150 1697 2047 
L 1894 2003 
Q 2506 1872 2764 1633 
Q 3022 1394 3022 966 
Q 3022 478 2636 193 
Q 2250 -91 1575 -91 
Q 1294 -91 989 -36 
Q 684 19 347 128 
L 347 722 
Q 666 556 975 473 
Q 1284 391 1588 391 
Q 1994 391 2212 530 
Q 2431 669 2431 922 
Q 2431 1156 2273 1281 
Q 2116 1406 1581 1522 
L 1381 1569 
Q 847 1681 609 1914 
Q 372 2147 372 2553 
Q 372 3047 722 3315 
Q 1072 3584 1716 3584 
Q 2034 3584 2315 3537 
Q 2597 3491 2834 3397 
z
" id="DejaVuSans-73" transform="scale(0.015625)"/>
       <path d="M 1959 3097 
Q 1497 3097 1228 2736 
Q 959 2375 959 1747 
Q 959 1119 1226 758 
Q 1494 397 1959 397 
Q 2419 397 2687 759 
Q 2956 1122 2956 1747 
Q 2956 2369 2687 2733 
Q 2419 3097 1959 3097 
z
M 1959 3584 
Q 2709 3584 3137 3096 
Q 3566 2609 3566 1747 
Q 3566 888 3137 398 
Q 2709 -91 1959 -91 
Q 1206 -91 779 398 
Q 353 888 353 1747 
Q 353 2609 779 3096 
Q 1206 3584 1959 3584 
z
" id="DejaVuSans-6f" transform="scale(0.015625)"/>
       <path d="M 603 4863 
L 1178 4863 
L 1178 0 
L 603 0 
L 603 4863 
z
" id="DejaVuSans-6c" transform="scale(0.015625)"/>
       <path d="M 2906 2969 
L 2906 4863 
L 3481 4863 
L 3481 0 
L 2906 0 
L 2906 525 
Q 2725 213 2448 61 
Q 2172 -91 1784 -91 
Q 1150 -91 751 415 
Q 353 922 353 1747 
Q 353 2572 751 3078 
Q 1150 3584 1784 3584 
Q 2172 3584 2448 3432 
Q 2725 3281 2906 2969 
z
M 947 1747 
Q 947 1113 1208 752 
Q 1469 391 1925 391 
Q 2381 391 2643 752 
Q 2906 1113 2906 1747 
Q 2906 2381 2643 2742 
Q 2381 3103 1925 3103 
Q 1469 3103 1208 2742 
Q 947 2381 947 1747 
z
" id="DejaVuSans-64" transform="scale(0.015625)"/>
      </defs>
      <use xlink:href="#DejaVuSans-54"/>
      <use x="61.083984" xlink:href="#DejaVuSans-68"/>
      <use x="124.462891" xlink:href="#DejaVuSans-72"/>
      <use x="163.326172" xlink:href="#DejaVuSans-65"/>
      <use x="224.849609" xlink:href="#DejaVuSans-73"/>
      <use x="276.949219" xlink:href="#DejaVuSans-68"/>
      <use x="340.328125" xlink:href="#DejaVuSans-6f"/>
      <use x="401.509766" xlink:href="#DejaVuSans-6c"/>
      <use x="429.292969" xlink:href="#DejaVuSans-64"/>
     </g>
    </g>
   </g>
   <g id="matplotlib.axis_2">
    <g id="ytick_1">
     <g id="line2d_6">
      <defs>
       <path d="M 0 0 
L -3.5 0 
" id="m80cb1d8834" style="stroke:#000000;stroke-width:0.8;"/>
      </defs>
      <g>
       <use style="stroke:#000000;stroke-width:0.8;" x="57.6" xlink:href="#m80cb1d8834" y="306.822287"/>
      </g>
     </g>
     <g id="text_7">
      <!-- 0.0 -->
      <g transform="translate(34.696875 310.621506)scale(0.1 -0.1)">
       <defs>
        <path d="M 684 794 
L 1344 794 
L 1344 0 
L 684 0 
L 684 794 
z
" id="DejaVuSans-2e" transform="scale(0.015625)"/>
       </defs>
       <use xlink:href="#DejaVuSans-30"/>
       <use x="63.623047" xlink:href="#DejaVuSans-2e"/>
       <use x="95.410156" xlink:href="#DejaVuSans-30"/>
      </g>
     </g>
    </g>
    <g id="ytick_2">
     <g id="line2d_7">
      <g>
       <use style="stroke:#000000;stroke-width:0.8;" x="57.6" xlink:href="#m80cb1d8834" y="256.17143"/>
      </g>
     </g>
     <g id="text_8">
      <!-- 0.2 -->
      <g transform="translate(34.696875 259.970648)scale(0.1 -0.1)">
       <use xlink:href="#DejaVuSans-30"/>
       <use x="63.623047" xlink:href="#DejaVuSans-2e"/>
       <use x="95.410156" xlink:href="#DejaVuSans-32"/>
      </g>
     </g>
    </g>
    <g id="ytick_3">
     <g id="line2d_8">
      <g>
       <use style="stroke:#000000;stroke-width:0.8;" x="57.6" xlink:href="#m80cb1d8834" y="205.520572"/>
      </g>
     </g>
     <g id="text_9">
      <!-- 0.4 -->
      <g transform="translate(34.696875 209.319791)scale(0.1 -0.1)">
       <use xlink:href="#DejaVuSans-30"/>
       <use x="63.623047" xlink:href="#DejaVuSans-2e"/>
       <use x="95.410156" xlink:href="#DejaVuSans-34"/>
      </g>
     </g>
    </g>
    <g id="ytick_4">
     <g id="line2d_9">
      <g>
       <use style="stroke:#000000;stroke-width:0.8;" x="57.6" xlink:href="#m80cb1d8834" y="154.869715"/>
      </g>
     </g>
     <g id="text_10">
      <!-- 0.6 -->
      <g transform="translate(34.696875 158.668934)scale(0.1 -0.1)">
       <defs>
        <path d="M 2113 2584 
Q 1688 2584 1439 2293 
Q 1191 2003 1191 1497 
Q 1191 994 1439 701 
Q 1688 409 2113 409 
Q 2538 409 2786 701 
Q 3034 994 3034 1497 
Q 3034 2003 2786 2293 
Q 2538 2584 2113 2584 
z
M 3366 4563 
L 3366 3988 
Q 3128 4100 2886 4159 
Q 2644 4219 2406 4219 
Q 1781 4219 1451 3797 
Q 1122 3375 1075 2522 
Q 1259 2794 1537 2939 
Q 1816 3084 2150 3084 
Q 2853 3084 3261 2657 
Q 3669 2231 3669 1497 
Q 3669 778 3244 343 
Q 2819 -91 2113 -91 
Q 1303 -91 875 529 
Q 447 1150 447 2328 
Q 447 3434 972 4092 
Q 1497 4750 2381 4750 
Q 2619 4750 2861 4703 
Q 3103 4656 3366 4563 
z
" id="DejaVuSans-36" transform="scale(0.015625)"/>
       </defs>
       <use xlink:href="#DejaVuSans-30"/>
       <use x="63.623047" xlink:href="#DejaVuSans-2e"/>
       <use x="95.410156" xlink:href="#DejaVuSans-36"/>
      </g>
     </g>
    </g>
    <g id="ytick_5">
     <g id="line2d_10">
      <g>
       <use style="stroke:#000000;stroke-width:0.8;" x="57.6" xlink:href="#m80cb1d8834" y="104.218857"/>
      </g>
     </g>
     <g id="text_11">
      <!-- 0.8 -->
      <g transform="translate(34.696875 108.018076)scale(0.1 -0.1)">
       <defs>
        <path d="M 2034 2216 
Q 1584 2216 1326 1975 
Q 1069 1734 1069 1313 
Q 1069 891 1326 650 
Q 1584 409 2034 409 
Q 2484 409 2743 651 
Q 3003 894 3003 1313 
Q 3003 1734 2745 1975 
Q 2488 2216 2034 2216 
z
M 1403 2484 
Q 997 2584 770 2862 
Q 544 3141 544 3541 
Q 544 4100 942 4425 
Q 1341 4750 2034 4750 
Q 2731 4750 3128 4425 
Q 3525 4100 3525 3541 
Q 3525 3141 3298 2862 
Q 3072 2584 2669 2484 
Q 3125 2378 3379 2068 
Q 3634 1759 3634 1313 
Q 3634 634 3220 271 
Q 2806 -91 2034 -91 
Q 1263 -91 848 271 
Q 434 634 434 1313 
Q 434 1759 690 2068 
Q 947 2378 1403 2484 
z
M 1172 3481 
Q 1172 3119 1398 2916 
Q 1625 2713 2034 2713 
Q 2441 2713 2670 2916 
Q 2900 3119 2900 3481 
Q 2900 3844 2670 4047 
Q 2441 4250 2034 4250 
Q 1625 4250 1398 4047 
Q 1172 3844 1172 3481 
z
" id="DejaVuSans-38" transform="scale(0.015625)"/>
       </defs>
       <use xlink:href="#DejaVuSans-30"/>
       <use x="63.623047" xlink:href="#DejaVuSans-2e"/>
       <use x="95.410156" xlink:href="#DejaVuSans-38"/>
      </g>
     </g>
    </g>
    <g id="ytick_6">
     <g id="line2d_11">
      <g>
       <use style="stroke:#000000;stroke-width:0.8;" x="57.6" xlink:href="#m80cb1d8834" y="53.568"/>
      </g>
     </g>
     <g id="text_12">
      <!-- 1.0 -->
      <g transform="translate(34.696875 57.367219)scale(0.1 -0.1)">
       <defs>
        <path d="M 794 531 
L 1825 531 
L 1825 4091 
L 703 3866 
L 703 4441 
L 1819 4666 
L 2450 4666 
L 2450 531 
L 3481 531 
L 3481 0 
L 794 0 
L 794 531 
z
" id="DejaVuSans-31" transform="scale(0.015625)"/>
       </defs>
       <use xlink:href="#DejaVuSans-31"/>
       <use x="63.623047" xlink:href="#DejaVuSans-2e"/>
       <use x="95.410156" xlink:href="#DejaVuSans-30"/>
      </g>
     </g>
    </g>
    <g id="text_13">
     <!-- Metrics -->
     <g transform="translate(28.617187 192.677219)rotate(-90)scale(0.1 -0.1)">
      <defs>
       <path d="M 628 4666 
L 1569 4666 
L 2759 1491 
L 3956 4666 
L 4897 4666 
L 4897 0 
L 4281 0 
L 4281 4097 
L 3078 897 
L 2444 897 
L 1241 4097 
L 1241 0 
L 628 0 
L 628 4666 
z
" id="DejaVuSans-4d" transform="scale(0.015625)"/>
       <path d="M 1172 4494 
L 1172 3500 
L 2356 3500 
L 2356 3053 
L 1172 3053 
L 1172 1153 
Q 1172 725 1289 603 
Q 1406 481 1766 481 
L 2356 481 
L 2356 0 
L 1766 0 
Q 1100 0 847 248 
Q 594 497 594 1153 
L 594 3053 
L 172 3053 
L 172 3500 
L 594 3500 
L 594 4494 
L 1172 4494 
z
" id="DejaVuSans-74" transform="scale(0.015625)"/>
       <path d="M 603 3500 
L 1178 3500 
L 1178 0 
L 603 0 
L 603 3500 
z
M 603 4863 
L 1178 4863 
L 1178 4134 
L 603 4134 
L 603 4863 
z
" id="DejaVuSans-69" transform="scale(0.015625)"/>
       <path d="M 3122 3366 
L 3122 2828 
Q 2878 2963 2633 3030 
Q 2388 3097 2138 3097 
Q 1578 3097 1268 2742 
Q 959 2388 959 1747 
Q 959 1106 1268 751 
Q 1578 397 2138 397 
Q 2388 397 2633 464 
Q 2878 531 3122 666 
L 3122 134 
Q 2881 22 2623 -34 
Q 2366 -91 2075 -91 
Q 1284 -91 818 406 
Q 353 903 353 1747 
Q 353 2603 823 3093 
Q 1294 3584 2113 3584 
Q 2378 3584 2631 3529 
Q 2884 3475 3122 3366 
z
" id="DejaVuSans-63" transform="scale(0.015625)"/>
      </defs>
      <use xlink:href="#DejaVuSans-4d"/>
      <use x="86.279297" xlink:href="#DejaVuSans-65"/>
      <use x="147.802734" xlink:href="#DejaVuSans-74"/>
      <use x="187.011719" xlink:href="#DejaVuSans-72"/>
      <use x="228.125" xlink:href="#DejaVuSans-69"/>
      <use x="255.908203" xlink:href="#DejaVuSans-63"/>
      <use x="310.888672" xlink:href="#DejaVuSans-73"/>
     </g>
    </g>
   </g>
   <g id="line2d_12">
    <path clip-path="url(#p5e78e2f491)" d="M 73.832727 53.568 
L 73.975811 53.689874 
L 77.543026 53.689874 
L 77.6494 53.811748 
L 79.141428 53.811748 
L 79.244745 53.933622 
L 92.322806 53.933622 
L 92.330619 54.055496 
L 102.857665 54.055496 
L 102.961089 54.17737 
L 113.062951 54.17737 
L 113.273009 54.299244 
L 117.193113 54.299244 
L 117.595229 54.421118 
L 142.683454 54.421118 
L 143.029394 54.542992 
L 168.068209 54.542992 
L 168.136198 54.664866 
L 201.00035 54.664866 
L 201.15079 54.786741 
L 202.24257 54.786741 
L 202.280308 54.908615 
L 211.097702 54.908615 
L 211.288301 55.030489 
L 213.629814 55.030489 
L 213.94381 55.152363 
L 220.270155 55.152363 
L 220.406636 55.274237 
L 220.71384 55.274237 
L 222.717733 55.517985 
L 223.454105 55.517985 
L 223.576991 55.639859 
L 224.097143 55.761733 
L 225.010142 55.761733 
L 225.015905 55.883607 
L 225.654874 55.883607 
L 225.795008 56.005481 
L 226.215064 56.005481 
L 226.292354 56.127355 
L 226.53378 56.127355 
L 226.660355 56.249229 
L 228.469939 56.249229 
L 228.720874 56.371103 
L 229.386951 56.371103 
L 229.508961 56.492977 
L 230.837743 56.492977 
L 231.052194 56.614851 
L 232.167801 56.614851 
L 232.20128 56.736725 
L 233.125133 56.736725 
L 233.184888 56.858599 
L 233.972147 56.858599 
L 234.360895 57.102348 
L 235.673808 57.102348 
L 235.674045 57.224222 
L 236.620333 57.224222 
L 236.63763 57.346096 
L 240.072399 57.346096 
L 240.262954 57.46797 
L 241.969933 57.46797 
L 242.092189 57.589844 
L 242.168747 57.589844 
L 242.289981 57.711718 
L 243.822925 57.711718 
L 243.893325 57.833592 
L 244.69241 57.833592 
L 244.781095 57.955466 
L 246.975864 57.955466 
L 247.348713 58.07734 
L 247.537637 58.07734 
L 247.860857 58.199214 
L 248.358949 58.199214 
L 248.786833 58.321088 
L 249.002877 58.321088 
L 249.362842 58.564836 
L 249.984436 58.564836 
L 250.133133 58.68671 
L 251.821518 58.68671 
L 252.081796 58.930458 
L 252.563522 58.930458 
L 252.698099 59.174207 
L 254.267253 59.174207 
L 254.440773 59.296081 
L 255.541757 59.296081 
L 255.674101 59.539829 
L 256.38825 59.539829 
L 256.624144 59.661703 
L 257.955601 59.661703 
L 258.108353 60.027325 
L 258.996352 60.027325 
L 259.240255 60.392947 
L 260.708091 60.392947 
L 260.846862 60.514821 
L 261.190268 60.514821 
L 261.292013 60.636695 
L 261.426502 60.636695 
L 261.470635 60.758569 
L 263.486292 60.758569 
L 263.748935 60.880443 
L 264.670962 60.880443 
L 264.805892 61.002317 
L 265.05693 61.002317 
L 265.092254 61.124191 
L 266.264351 61.124191 
L 266.28563 61.246065 
L 266.630763 61.246065 
L 267.320793 61.489814 
L 267.979884 61.489814 
L 268.169503 61.611688 
L 268.207655 61.611688 
L 268.423324 61.855436 
L 268.604226 61.855436 
L 268.77217 61.97731 
L 269.400682 61.97731 
L 269.563003 62.221058 
L 270.608046 62.221058 
L 270.637975 62.342932 
L 271.760182 62.342932 
L 271.767879 62.464806 
L 272.036748 62.464806 
L 272.077255 62.708554 
L 272.502929 62.830428 
L 272.571941 62.830428 
L 272.647183 63.805421 
L 273.020343 64.171043 
L 273.638027 64.171043 
L 273.639808 64.292917 
L 273.933761 64.292917 
L 274.011086 64.414791 
L 274.266616 64.658539 
L 274.624386 64.658539 
L 274.674693 64.780413 
L 275.131994 64.780413 
L 275.156158 64.902287 
L 275.368367 64.902287 
L 275.604093 65.024161 
L 275.700907 65.024161 
L 276.38829 65.633531 
L 276.472503 65.633531 
L 276.646364 65.87728 
L 277.263325 65.87728 
L 277.358886 65.999154 
L 277.509911 65.999154 
L 278.073476 66.608524 
L 278.14677 66.730398 
L 278.639297 67.217894 
L 279.146102 67.217894 
L 279.304828 67.461642 
L 279.519129 67.461642 
L 280.762466 68.314761 
L 280.875342 68.680383 
L 281.091466 68.924131 
L 281.115361 68.924131 
L 281.227818 69.411627 
L 281.375048 69.411627 
L 281.460384 69.533501 
L 281.661847 69.533501 
L 281.782946 69.777249 
L 282.225785 69.777249 
L 282.28164 70.020997 
L 283.193793 70.142872 
L 283.565461 70.508494 
L 283.73659 70.508494 
L 283.903696 71.849108 
L 283.995984 71.849108 
L 284.038589 72.092856 
L 284.514294 72.092856 
L 285.027869 72.580353 
L 285.200516 72.824101 
L 285.70304 72.824101 
L 285.878714 73.189723 
L 285.91003 73.189723 
L 286.386506 73.555345 
L 286.663162 73.555345 
L 286.822344 73.799093 
L 286.876284 73.799093 
L 286.98766 74.042841 
L 287.077841 74.164715 
L 287.240482 74.408463 
L 287.370795 74.408463 
L 287.61412 74.530338 
L 287.780235 74.530338 
L 287.94227 74.774086 
L 288.033467 74.774086 
L 288.210274 75.139708 
L 288.302857 75.139708 
L 288.700114 75.261582 
L 288.809822 75.627204 
L 288.955495 75.870952 
L 289.144427 75.870952 
L 289.235087 76.1147 
L 289.300075 76.1147 
L 289.472211 76.602196 
L 289.720373 76.845945 
L 289.865557 77.089693 
L 290.356538 77.089693 
L 290.526392 77.333441 
L 290.59667 77.333441 
L 290.778836 77.455315 
L 290.982095 77.455315 
L 291.097562 77.577189 
L 291.183618 77.577189 
L 291.191959 77.699063 
L 291.48987 77.699063 
L 292.14429 78.308433 
L 292.267505 78.430307 
L 292.358024 78.430307 
L 292.449188 78.552181 
L 292.611868 78.552181 
L 292.777373 78.795929 
L 292.824366 79.161552 
L 292.989708 79.161552 
L 293.115149 79.283426 
L 293.223614 79.283426 
L 293.648924 79.770922 
L 293.785762 79.892796 
L 294.052241 80.01467 
L 294.091715 80.01467 
L 294.106293 80.136544 
L 294.39759 80.136544 
L 294.608503 80.502166 
L 294.657303 80.62404 
L 294.963554 80.62404 
L 295.065681 80.867788 
L 295.633364 81.599033 
L 295.669796 81.599033 
L 295.778825 81.842781 
L 296.337838 82.086529 
L 296.433875 82.086529 
L 296.65473 82.330277 
L 296.992157 82.330277 
L 297.210914 82.939647 
L 297.297532 82.939647 
L 297.364532 83.061521 
L 298.196687 83.061521 
L 298.263548 83.183395 
L 298.442244 83.183395 
L 298.851874 83.792766 
L 298.952692 84.280262 
L 299.626327 84.889632 
L 299.728473 85.011506 
L 299.918045 85.13338 
L 299.978107 85.499003 
L 300.15856 85.499003 
L 300.223601 85.620877 
L 300.462609 85.620877 
L 300.557898 85.742751 
L 300.740789 86.230247 
L 300.854272 86.230247 
L 300.912535 86.352121 
L 300.998723 86.352121 
L 301.092956 86.473995 
L 301.137978 86.473995 
L 301.210625 86.839617 
L 301.26096 86.839617 
L 301.446716 86.961491 
L 301.549632 86.961491 
L 301.649909 87.083365 
L 301.787045 87.083365 
L 301.88956 87.205239 
L 302.306898 87.448987 
L 302.558475 87.448987 
L 302.636389 87.570861 
L 302.841607 87.936484 
L 302.956198 88.180232 
L 303.224698 88.180232 
L 303.354862 88.42398 
L 303.539006 88.42398 
L 303.699986 88.545854 
L 303.919259 88.789602 
L 304.281077 89.277098 
L 304.43029 89.277098 
L 304.580535 89.64272 
L 304.75541 89.64272 
L 305.140479 90.008343 
L 305.262495 90.373965 
L 305.418954 90.373965 
L 305.629547 90.861461 
L 305.733519 90.861461 
L 305.73804 91.227083 
L 305.867431 91.227083 
L 305.938787 91.348957 
L 306.007651 91.470831 
L 306.184088 91.958327 
L 306.533798 92.445824 
L 306.623738 92.445824 
L 307.304956 92.811446 
L 307.343012 93.055194 
L 307.608894 93.54269 
L 308.329335 93.908312 
L 308.402576 94.030186 
L 308.846229 94.030186 
L 309.669866 95.127053 
L 309.786812 95.492675 
L 310.026638 95.492675 
L 310.166947 95.980171 
L 310.301628 95.980171 
L 310.376914 96.345793 
L 310.476655 96.345793 
L 310.63719 96.589542 
L 310.741309 97.077038 
L 310.958373 97.44266 
L 311.017338 97.564534 
L 311.342135 97.930156 
L 311.437667 97.930156 
L 311.604033 98.295778 
L 311.700855 98.661401 
L 311.833689 98.661401 
L 311.970112 98.783275 
L 311.981444 98.783275 
L 312.111002 99.392645 
L 312.200598 99.392645 
L 312.509397 100.002015 
L 313.031603 100.489511 
L 313.191144 100.855134 
L 313.327727 100.855134 
L 313.558823 101.586378 
L 313.682364 102.195748 
L 313.842487 102.195748 
L 313.94635 102.683244 
L 314.03555 102.683244 
L 314.135785 103.536363 
L 314.205129 104.023859 
L 314.679678 105.608222 
L 314.77809 105.608222 
L 314.884864 106.095718 
L 314.910847 106.095718 
L 315.075471 106.46134 
L 315.256718 106.46134 
L 315.320751 106.948836 
L 315.417068 107.192584 
L 315.546303 107.192584 
L 315.740794 107.680081 
L 316.010933 108.045703 
L 316.140015 108.167577 
L 316.451648 109.142569 
L 317.007636 109.75194 
L 317.115072 109.995688 
L 317.257103 110.239436 
L 317.513896 110.726932 
L 317.568663 110.848806 
L 318.02897 111.214428 
L 318.485857 111.945673 
L 318.555436 111.945673 
L 318.656451 112.189421 
L 319.047487 112.676917 
L 319.122961 112.676917 
L 319.456095 113.286287 
L 319.587327 113.530035 
L 319.729374 113.773783 
L 319.769873 113.895657 
L 320.220055 114.383154 
L 320.454852 115.114398 
L 320.488084 115.114398 
L 320.582181 115.48002 
L 320.800778 115.723768 
L 321.27073 116.455013 
L 321.36942 116.820635 
L 321.543645 117.064383 
L 321.671133 117.308131 
L 322.118321 118.161249 
L 322.224107 118.404997 
L 322.464826 119.014368 
L 322.55521 119.014368 
L 322.754936 119.37999 
L 322.816337 119.37999 
L 322.890959 119.745612 
L 323.003059 119.745612 
L 323.290894 120.354982 
L 323.324952 120.59873 
L 323.470204 120.59873 
L 323.66046 121.451849 
L 323.838613 121.939345 
L 324.015742 121.939345 
L 324.168621 122.304967 
L 324.305628 122.304967 
L 324.400456 122.670589 
L 324.533919 122.670589 
L 324.538121 122.792463 
L 325.135621 123.523708 
L 325.566576 124.4987 
L 326.022828 124.742448 
L 326.16187 124.986196 
L 326.267686 125.351819 
L 326.378061 126.083063 
L 326.571124 126.692433 
L 326.695035 126.936181 
L 326.76219 126.936181 
L 326.83103 127.058055 
L 327.028363 127.179929 
L 327.238185 128.033048 
L 327.338548 128.033048 
L 327.936107 130.104907 
L 327.972267 130.104907 
L 328.222305 130.836151 
L 328.366347 131.079899 
L 328.540261 131.323647 
L 328.732613 131.323647 
L 328.852145 131.811144 
L 328.969837 132.176766 
L 329.123604 132.176766 
L 329.193627 132.420514 
L 329.198804 132.786136 
L 329.451211 133.029884 
L 329.629527 133.273632 
L 329.669682 133.273632 
L 329.780155 133.51738 
L 329.888706 133.761128 
L 330.037026 134.857995 
L 330.152462 135.467365 
L 330.280279 135.832987 
L 330.435802 136.076736 
L 330.671859 136.80798 
L 331.219969 138.514217 
L 331.306591 138.879839 
L 331.569234 139.489209 
L 331.715816 139.489209 
L 331.826378 139.732957 
L 331.828674 139.976705 
L 332.101526 140.220453 
L 332.118497 140.464202 
L 332.55109 140.951698 
L 332.693942 141.561068 
L 332.755943 141.561068 
L 332.864931 141.804816 
L 332.974365 141.804816 
L 333.228175 142.414186 
L 333.319081 142.657935 
L 333.403676 142.657935 
L 333.573489 143.145431 
L 333.918109 143.511053 
L 334.054124 143.754801 
L 334.123397 143.754801 
L 334.284571 144.364171 
L 334.613238 144.607919 
L 334.786435 145.21729 
L 334.964631 145.582912 
L 335.06011 145.582912 
L 335.122085 146.070408 
L 335.296713 146.070408 
L 335.401359 146.557904 
L 335.527112 149.117259 
L 335.543364 149.117259 
L 335.654126 149.482882 
L 335.738844 149.604756 
L 335.851838 149.604756 
L 336.254426 150.457874 
L 336.257847 150.457874 
L 336.609081 151.310992 
L 336.63071 151.310992 
L 336.822215 151.554741 
L 336.959775 151.798489 
L 337.02101 151.798489 
L 337.297553 152.773481 
L 337.316845 152.773481 
L 337.533458 153.382851 
L 337.53925 153.382851 
L 337.686337 153.748474 
L 337.971994 153.748474 
L 338.04134 154.114096 
L 338.275788 154.357844 
L 338.336179 154.601592 
L 338.438958 154.601592 
L 338.533654 154.967214 
L 338.840599 155.698458 
L 338.902747 155.820332 
L 339.032641 156.185955 
L 339.173115 156.185955 
L 339.385177 157.160947 
L 339.800243 158.379688 
L 339.872981 158.379688 
L 340.007691 159.476554 
L 340.145284 159.476554 
L 340.177883 159.842176 
L 340.450805 159.842176 
L 340.552307 160.451547 
L 340.696603 160.695295 
L 340.817287 161.426539 
L 340.914723 161.426539 
L 341.043351 161.548413 
L 341.128884 161.548413 
L 341.546569 161.914035 
L 341.944692 163.25465 
L 342.204457 163.25465 
L 342.501938 164.229642 
L 342.609532 164.717139 
L 342.670901 164.717139 
L 342.881523 165.204635 
L 342.978681 165.204635 
L 343.692269 166.788997 
L 344.608161 168.738982 
L 344.659753 168.738982 
L 344.969988 169.226479 
L 345.080481 169.835849 
L 345.214142 170.567093 
L 345.303234 170.810841 
L 345.457215 170.810841 
L 345.654083 171.298338 
L 345.98344 172.029582 
L 346.62659 172.517078 
L 346.948537 173.248322 
L 346.968609 173.248322 
L 347.300536 173.613945 
L 347.310222 173.735819 
L 347.444721 173.735819 
L 347.584243 173.979567 
L 347.638205 173.979567 
L 348.038774 174.467063 
L 348.188409 174.954559 
L 348.527701 175.442055 
L 348.709044 175.929552 
L 348.733139 176.295174 
L 348.854262 176.295174 
L 348.904953 176.538922 
L 349.192083 176.904544 
L 349.521512 177.635788 
L 349.740076 177.879537 
L 350.071131 178.488907 
L 350.189359 178.976403 
L 350.319709 178.976403 
L 350.49021 179.463899 
L 350.560879 179.829521 
L 350.742913 180.804514 
L 350.774807 180.804514 
L 350.808925 181.170136 
L 351.050134 181.657632 
L 351.126965 182.267003 
L 351.244031 182.510751 
L 351.366799 182.876373 
L 351.558013 183.120121 
L 351.752442 183.973239 
L 351.754371 184.095113 
L 352.167257 184.826358 
L 352.580065 185.19198 
L 352.849957 186.166972 
L 353.006499 186.166972 
L 353.131311 186.776343 
L 353.361313 188.360705 
L 353.425774 188.604453 
L 353.546301 189.213824 
L 353.671336 189.213824 
L 353.757556 189.457572 
L 353.85277 189.457572 
L 354.000922 189.70132 
L 354.456748 190.92006 
L 354.554633 191.285683 
L 354.684697 191.651305 
L 354.9545 192.504423 
L 355.092502 193.357542 
L 355.215821 193.60129 
L 355.583371 194.454408 
L 355.813224 194.454408 
L 355.867641 194.576282 
L 356.075966 194.576282 
L 356.198891 195.063778 
L 356.315799 195.429401 
L 356.437121 195.916897 
L 356.500138 196.160645 
L 356.62732 196.404393 
L 356.775805 196.770015 
L 356.88158 196.770015 
L 357.714174 199.816866 
L 357.882364 199.816866 
L 358.016494 200.426237 
L 358.340498 200.669985 
L 358.420407 201.644977 
L 358.839391 203.22934 
L 358.910265 206.398065 
L 359.008911 206.641814 
L 359.163503 207.373058 
L 359.250397 207.616806 
L 359.422858 207.860554 
L 359.643479 208.713673 
L 359.771819 208.713673 
L 359.903616 209.688665 
L 360.371309 210.785531 
L 360.457906 211.516776 
L 360.671163 212.004272 
L 360.886481 212.369894 
L 361.104341 213.223013 
L 361.309359 213.466761 
L 361.695165 214.198005 
L 361.798583 214.198005 
L 361.839846 214.685501 
L 362.112278 215.172997 
L 362.258486 215.660494 
L 362.493911 216.14799 
L 362.782755 217.36673 
L 362.90209 217.36673 
L 363.094358 217.732353 
L 363.196857 217.976101 
L 363.542279 218.707345 
L 363.79935 218.951093 
L 363.9845 218.951093 
L 364.19346 219.560463 
L 364.37538 219.926086 
L 364.548039 220.413582 
L 364.867785 220.779204 
L 365.112212 221.388574 
L 365.267316 221.632322 
L 365.500367 222.363567 
L 365.682619 223.704181 
L 365.882211 223.947929 
L 366.015665 224.5573 
L 366.238646 225.288544 
L 366.271414 225.288544 
L 366.737203 225.654166 
L 366.846809 226.141662 
L 366.893366 226.141662 
L 367.059725 226.872907 
L 367.228357 227.847899 
L 367.343156 227.847899 
L 367.451178 228.213521 
L 367.509216 228.213521 
L 367.553417 228.45727 
L 367.714438 228.822892 
L 367.946274 229.310388 
L 368.132859 229.67601 
L 368.372263 230.28538 
L 368.557399 230.651003 
L 368.651472 230.894751 
L 368.805807 231.138499 
L 368.891707 231.747869 
L 369.3662 233.210358 
L 369.394625 233.819728 
L 369.61091 233.819728 
L 369.724612 234.429098 
L 369.751375 234.672846 
L 370.169571 235.160343 
L 370.343749 236.257209 
L 370.751406 237.110327 
L 370.920832 237.719698 
L 371.191231 238.08532 
L 371.253494 238.572816 
L 371.386881 238.69469 
L 371.505147 239.060312 
L 371.622136 239.182186 
L 371.789219 240.035305 
L 371.904402 240.644675 
L 372.163671 240.888423 
L 372.240869 241.132171 
L 372.326387 241.497793 
L 372.464072 241.863416 
L 373.049867 242.960282 
L 373.195582 245.641511 
L 373.227337 245.763385 
L 373.578971 246.129008 
L 373.608475 246.250882 
L 374.022012 246.49463 
L 374.152378 246.982126 
L 375.260814 250.150851 
L 375.384517 250.150851 
L 375.636666 251.61334 
L 375.700562 251.978962 
L 375.844865 252.466458 
L 376.03898 253.197703 
L 376.116772 253.563325 
L 376.702316 254.172695 
L 377.21807 255.757058 
L 377.26289 255.757058 
L 378.072846 257.585169 
L 378.641534 258.560161 
L 378.955208 259.291406 
L 379.255832 259.535154 
L 379.350454 260.266398 
L 379.469561 260.753894 
L 379.650809 260.997642 
L 379.752078 261.24139 
L 379.911971 261.24139 
L 380.346265 262.703879 
L 380.49662 262.825753 
L 380.558094 263.069501 
L 380.772204 263.313249 
L 380.877012 263.800746 
L 380.93795 264.044494 
L 381.214653 264.288242 
L 381.657256 265.75073 
L 381.72691 266.360101 
L 382.099858 266.725723 
L 382.228749 267.822589 
L 383.169463 270.016322 
L 383.393464 270.138196 
L 383.394648 270.503819 
L 383.823465 270.747567 
L 383.880732 271.113189 
L 384.062078 271.235063 
L 384.181376 271.722559 
L 384.308894 272.088181 
L 384.411509 272.453804 
L 384.697396 272.819426 
L 385.016347 273.185048 
L 385.20966 273.428796 
L 385.261265 273.55067 
L 385.460923 273.55067 
L 385.698465 273.794418 
L 385.914636 274.525662 
L 386.263175 274.769411 
L 386.656935 275.866277 
L 386.836393 276.597521 
L 387.040428 276.84127 
L 387.326944 277.938136 
L 387.643123 278.06001 
L 387.737042 278.425632 
L 387.803449 278.66938 
L 388.30191 278.791254 
L 388.330244 279.156877 
L 388.6107 279.522499 
L 388.636734 279.644373 
L 389.308715 280.253743 
L 389.508843 280.984987 
L 389.840799 281.228736 
L 390.057214 282.081854 
L 390.231267 282.325602 
L 390.51756 282.813098 
L 390.617063 283.17872 
L 390.68961 283.422469 
L 391.02658 283.788091 
L 391.271087 283.788091 
L 391.727769 284.397461 
L 391.881047 284.763083 
L 392.490537 285.494327 
L 392.794617 285.738076 
L 393.053536 286.46932 
L 393.213924 286.591194 
L 394.400956 290.491164 
L 395.021536 291.344282 
L 395.498324 291.953652 
L 395.660345 291.953652 
L 396.012458 292.075526 
L 396.186591 292.563023 
L 396.571806 293.172393 
L 397.372944 293.659889 
L 397.501169 293.903637 
L 398.235183 295.488 
L 398.487273 295.488 
L 398.487273 295.488 
" style="fill:none;stroke:#1f77b4;stroke-dasharray:5.55,2.4;stroke-dashoffset:0;stroke-width:1.5;"/>
   </g>
   <g id="line2d_13">
    <path clip-path="url(#p5e78e2f491)" d="M 73.832727 199.487511 
L 73.953086 199.47348 
L 73.958405 199.451568 
L 74.224256 199.275946 
L 75.594056 198.65672 
L 77.064735 198.030321 
L 77.076469 198.007816 
L 77.441004 197.850016 
L 77.799927 197.608349 
L 77.937319 197.517526 
L 78.630339 197.24415 
L 78.731195 197.152721 
L 79.05672 196.969404 
L 79.244745 196.838477 
L 79.769136 196.630917 
L 79.858036 196.584686 
L 80.255885 196.422572 
L 81.273411 196.026874 
L 81.598814 195.886538 
L 81.684379 195.83968 
L 82.068528 195.628329 
L 82.870376 195.297957 
L 83.287014 195.132033 
L 84.405169 194.511399 
L 84.958154 194.343125 
L 85.801429 194.101857 
L 85.992501 193.908096 
L 87.296446 193.445233 
L 87.69933 193.273747 
L 88.405623 192.97856 
L 88.861048 192.805658 
L 89.715866 192.308745 
L 89.738805 192.258815 
L 90.29368 192.108765 
L 93.759471 190.924363 
L 94.330154 190.745074 
L 95.272584 190.384825 
L 96.107161 190.074256 
L 96.904482 189.91835 
L 96.999057 189.866288 
L 97.556954 189.709825 
L 98.25331 189.500556 
L 98.339046 189.421887 
L 99.303019 189.237915 
L 99.49484 189.132529 
L 100.702345 188.921189 
L 101.291075 188.629355 
L 101.611801 188.522875 
L 102.24042 188.389504 
L 102.246852 188.336072 
L 102.441649 188.20228 
L 102.451916 188.175485 
L 102.812929 188.014463 
L 103.060758 187.829509 
L 103.894678 187.586281 
L 105.373075 187.396414 
L 105.37852 187.369241 
L 106.281293 187.178682 
L 107.453994 186.905399 
L 107.46584 186.878002 
L 108.97649 186.575806 
L 109.146805 186.465539 
L 110.280715 186.216696 
L 110.356846 186.105769 
L 112.300283 185.827556 
L 114.081735 185.662536 
L 116.258338 185.213276 
L 116.324989 185.156884 
L 117.72555 185.017914 
L 118.824498 184.847955 
L 121.534648 184.449532 
L 121.694387 184.363817 
L 123.419485 184.105949 
L 125.783396 183.96222 
L 130.944 183.325789 
L 132.399703 183.063526 
L 142.545834 181.824759 
L 143.029394 181.825536 
L 143.759456 181.67634 
L 143.788745 181.616561 
L 146.53942 181.256688 
L 147.602536 181.045806 
L 148.162915 180.95521 
L 151.807819 180.500269 
L 151.842181 180.469823 
L 153.957764 180.317371 
L 154.553159 180.256287 
L 157.595876 180.07268 
L 159.629703 179.703865 
L 160.497971 179.518651 
L 160.544404 179.487729 
L 161.436353 179.332896 
L 164.478338 178.678465 
L 164.911518 178.615788 
L 165.448366 178.458826 
L 165.703607 178.395934 
L 167.624764 178.143747 
L 167.823906 178.080545 
L 171.455236 177.411786 
L 172.075964 177.283815 
L 173.445334 177.059256 
L 173.461439 177.027112 
L 174.939243 176.672481 
L 174.954389 176.640146 
L 176.039732 176.543043 
L 183.310438 175.563991 
L 183.310713 175.498197 
L 184.049949 175.267399 
L 184.089196 175.201307 
L 186.443469 174.836615 
L 188.271662 174.168333 
L 188.768487 174.000203 
L 188.993492 173.899121 
L 191.60244 173.187214 
L 192.200976 173.016587 
L 192.302801 172.914002 
L 193.052856 172.708358 
L 194.148582 172.260623 
L 195.739359 171.983605 
L 195.919028 171.844667 
L 198.703459 171.321092 
L 199.457784 171.110523 
L 199.958203 170.96978 
L 200.360919 170.758117 
L 200.783518 170.510341 
L 200.889974 170.36835 
L 201.645959 170.113891 
L 203.078749 169.858234 
L 203.439974 169.606924 
L 203.596592 169.498937 
L 204.617549 169.246305 
L 204.692708 169.13775 
L 205.156084 168.883786 
L 205.165819 168.847429 
L 205.700788 168.701809 
L 205.815975 168.592392 
L 206.41512 168.373038 
L 207.433814 167.932234 
L 207.453239 167.895373 
L 207.848198 167.747736 
L 208.072805 167.599784 
L 208.950341 167.228524 
L 209.123292 167.11676 
L 210.708576 166.555242 
L 211.673629 166.133027 
L 212.25293 165.981545 
L 212.313337 165.905681 
L 212.919345 165.715664 
L 212.937834 165.639514 
L 214.179073 165.402573 
L 216.800694 164.672218 
L 216.979429 164.517497 
L 217.417052 164.362439 
L 217.764255 164.012319 
L 218.643309 163.660474 
L 218.720368 163.464255 
L 219.044964 163.306891 
L 220.000605 162.911967 
L 220.270155 162.713689 
L 220.304752 162.743773 
L 220.361678 162.664304 
L 220.71384 162.465245 
L 221.415076 162.495327 
L 222.717733 161.683227 
L 223.3556 161.400304 
L 223.576991 161.227563 
L 224.068671 161.176326 
L 224.347849 160.931954 
L 225.156609 160.5118 
L 225.572158 160.223868 
L 226.035155 160.047485 
L 228.868371 159.305972 
L 229.386951 158.928692 
L 229.508961 158.916599 
L 230.040853 158.706027 
L 230.172303 158.62163 
L 231.88913 157.972859 
L 231.956592 157.844908 
L 233.008898 157.532486 
L 233.184888 157.47653 
L 233.71122 157.304572 
L 233.972147 157.175343 
L 234.360895 157.191943 
L 234.494888 157.019159 
L 234.506886 156.975901 
L 235.182439 156.759235 
L 236.966251 155.989722 
L 237.819337 155.151273 
L 237.855432 155.018034 
L 238.602594 154.795447 
L 238.763543 154.616907 
L 239.686569 154.437947 
L 240.211696 154.15338 
L 240.867297 153.656969 
L 241.18474 153.475655 
L 241.795722 153.157319 
L 241.831426 153.020485 
L 242.372467 152.759262 
L 243.596708 151.836729 
L 244.200664 151.633772 
L 245.455085 150.49059 
L 246.810319 150.206523 
L 247.537637 149.950663 
L 247.798338 149.884637 
L 248.211051 149.693715 
L 249.002877 149.483624 
L 249.362842 149.494144 
L 249.758727 149.253875 
L 249.808044 149.157561 
L 250.133133 148.993781 
L 250.23405 148.848718 
L 250.599189 148.654886 
L 250.724584 148.509199 
L 251.238634 148.070523 
L 251.338371 147.97271 
L 251.629272 147.77672 
L 251.821518 147.62941 
L 251.997716 147.589143 
L 252.337669 147.14491 
L 253.073023 146.606624 
L 253.147115 146.456843 
L 253.698362 146.306781 
L 253.967923 145.955544 
L 254.247662 145.754146 
L 254.267253 145.653258 
L 254.32234 145.682106 
L 254.924964 145.327952 
L 255.541757 144.66609 
L 255.556459 144.694819 
L 255.77937 144.672414 
L 256.505466 144.290738 
L 256.831516 144.084741 
L 257.052658 143.929901 
L 257.71349 143.255506 
L 257.977321 143.075416 
L 257.987063 143.023168 
L 258.055317 143.05172 
L 258.181618 143.027994 
L 258.934155 142.713509 
L 258.996352 142.660977 
L 259.240255 142.694028 
L 259.679953 142.377789 
L 259.854129 142.272104 
L 260.012665 142.113323 
L 260.021974 142.060328 
L 260.59452 141.79484 
L 260.846862 141.450102 
L 261.292013 141.264468 
L 261.606652 141.185615 
L 262.03301 141.02449 
L 262.614225 140.485135 
L 263.212941 140.322643 
L 263.295174 140.159834 
L 263.748935 139.915967 
L 263.996106 139.75228 
L 264.022853 139.588272 
L 264.976028 138.957056 
L 265.05693 138.846655 
L 265.092254 138.874707 
L 267.347304 137.902181 
L 267.348662 137.846192 
L 268.100485 137.481102 
L 268.207655 137.368471 
L 268.423324 137.367854 
L 268.780496 137.113193 
L 268.893856 136.999903 
L 269.818559 136.086192 
L 270.48015 135.568462 
L 271.354116 135.075127 
L 272.036748 134.578445 
L 272.077255 134.633442 
L 272.373692 134.60249 
L 272.547303 134.426815 
L 272.636994 134.357068 
L 272.592905 134.478259 
L 272.647183 134.412233 
L 272.793863 134.38095 
L 272.911948 134.231613 
L 273.020343 134.200142 
L 274.419424 133.657707 
L 274.995075 133.386765 
L 276.117425 132.803299 
L 276.210938 132.649488 
L 276.38829 132.616436 
L 276.646364 132.550193 
L 276.998047 132.368027 
L 277.263325 132.06357 
L 277.509911 132.029946 
L 277.772906 131.996276 
L 277.783315 131.935148 
L 277.793995 131.962559 
L 278.377189 132.032398 
L 278.442155 131.909653 
L 278.698068 131.875721 
L 278.847616 131.62949 
L 279.380107 131.31367 
L 279.519129 131.189724 
L 279.698885 131.217142 
L 279.704101 131.155091 
L 279.714259 131.092996 
L 279.717504 131.120409 
L 280.209304 130.898923 
L 280.875342 130.086974 
L 280.986474 130.051157 
L 281.091466 129.95203 
L 281.12457 129.85269 
L 281.190315 129.907375 
L 281.227818 129.934746 
L 281.272968 129.8713 
L 281.375048 129.744272 
L 281.460384 129.771624 
L 281.991459 129.50782 
L 282.208376 129.188104 
L 282.225785 129.124023 
L 282.28164 129.178576 
L 282.912495 129.141714 
L 283.376989 128.939117 
L 283.485553 128.745695 
L 283.516115 128.772953 
L 283.53926 128.708372 
L 283.565461 128.643745 
L 283.806564 128.493668 
L 283.8083 128.685014 
L 283.903696 128.489831 
L 284.160643 128.152779 
L 284.744732 127.983511 
L 284.855872 127.813746 
L 284.878227 127.841032 
L 284.88937 127.77523 
L 285.13128 127.499956 
L 285.137606 127.527217 
L 285.756252 126.957381 
L 285.764628 126.984552 
L 286.283564 127.026773 
L 286.70792 126.518807 
L 286.813675 126.478825 
L 286.876284 126.277098 
L 286.876684 126.304218 
L 287.077841 126.156206 
L 287.205564 126.210497 
L 287.233296 126.142929 
L 287.240482 126.075309 
L 287.701764 125.763521 
L 287.829188 125.450326 
L 288.099289 125.463231 
L 288.210274 125.35361 
L 288.302857 125.216704 
L 288.584372 125.243742 
L 288.590472 125.175196 
L 289.320684 124.633271 
L 289.472211 124.436718 
L 289.617641 124.39417 
L 289.720373 124.281859 
L 289.782742 124.335922 
L 289.81115 124.266138 
L 290.356538 123.705935 
L 290.459509 123.662565 
L 290.68899 123.434612 
L 291.090896 122.895139 
L 291.183618 122.681849 
L 291.191959 122.708575 
L 291.944772 122.431947 
L 292.14429 122.12692 
L 292.156399 122.153597 
L 292.34111 121.937778 
L 292.487338 121.603513 
L 292.762056 121.557721 
L 292.797214 121.637521 
L 292.824366 121.591665 
L 294.015423 120.975983 
L 294.218682 120.782408 
L 294.555334 120.56755 
L 294.608503 120.419905 
L 294.657303 120.446412 
L 294.963554 120.298495 
L 294.963704 120.324986 
L 295.018304 120.176795 
L 295.065681 120.20327 
L 295.240017 120.182041 
L 295.386102 120.011908 
L 295.618652 120.064936 
L 295.633364 119.990382 
L 295.778825 119.74449 
L 296.102872 119.696072 
L 296.166927 119.572526 
L 296.395313 119.347014 
L 296.732091 118.795525 
L 297.055241 118.798616 
L 297.081486 118.824961 
L 297.10508 118.749002 
L 297.297532 118.623207 
L 297.364532 118.649535 
L 298.081805 118.268 
L 298.126002 118.038336 
L 298.442244 117.834236 
L 298.777514 117.888188 
L 298.905429 117.786421 
L 298.952692 117.838908 
L 299.136318 117.787901 
L 299.349774 117.685636 
L 299.59427 117.505351 
L 299.728473 117.298108 
L 299.978107 117.325054 
L 300.435401 117.038418 
L 300.557898 116.986222 
L 300.611901 117.064938 
L 300.617559 116.986396 
L 300.854272 116.539905 
L 300.85847 116.566056 
L 301.88956 115.072613 
L 302.041877 115.017842 
L 302.319655 114.720426 
L 302.841607 114.254675 
L 302.843352 114.280379 
L 302.851158 114.306104 
L 302.859164 114.224495 
L 303.610221 113.481099 
L 303.699986 113.068153 
L 303.892106 113.010755 
L 304.015092 112.83797 
L 304.112528 112.722286 
L 304.514025 112.438992 
L 304.900658 111.986052 
L 305.305339 111.943772 
L 305.418954 111.774753 
L 305.454331 111.800005 
L 306.007651 111.407298 
L 306.057061 111.483169 
L 306.098304 111.397719 
L 306.24377 111.36278 
L 306.269193 111.388107 
L 306.325816 111.302428 
L 306.403004 111.216673 
L 306.431106 111.241969 
L 306.623738 111.181404 
L 306.943931 111.120733 
L 307.304956 110.912803 
L 307.309343 110.938077 
L 307.325394 110.963372 
L 307.343012 110.876976 
L 307.504448 110.978274 
L 307.530132 110.891694 
L 307.608894 110.805037 
L 307.865387 110.830363 
L 307.868353 110.743603 
L 308.083051 110.508099 
L 308.161967 110.533361 
L 308.167628 110.446238 
L 308.59981 109.94696 
L 308.82697 109.59571 
L 308.846229 109.507702 
L 308.946934 109.532675 
L 308.972872 109.55767 
L 309.239078 109.406266 
L 309.30076 109.456256 
L 309.303403 109.36787 
L 309.568296 109.215803 
L 309.580011 109.265756 
L 309.669866 109.290766 
L 309.685994 109.227032 
L 309.716482 109.138185 
L 309.786812 109.188203 
L 309.955985 108.92101 
L 310.210152 108.48371 
L 310.476655 108.198239 
L 311.342135 108.341332 
L 312.073767 107.678168 
L 312.092911 107.70315 
L 312.111002 107.728155 
L 312.197613 107.544064 
L 312.200598 107.451891 
L 312.296902 107.501783 
L 312.413184 107.434412 
L 312.719374 107.416869 
L 313.001836 106.977773 
L 313.051 107.052472 
L 313.191144 107.102387 
L 313.379588 106.940749 
L 313.406881 106.990677 
L 313.572667 107.047319 
L 313.842487 106.344235 
L 313.899472 106.418989 
L 313.904178 106.324325 
L 313.945195 106.349257 
L 314.03555 106.159595 
L 314.035983 106.184485 
L 314.135785 106.334318 
L 314.236758 106.459833 
L 314.242448 106.364467 
L 314.362642 106.178131 
L 314.57685 106.32931 
L 314.578266 106.233242 
L 314.679229 105.87316 
L 314.679678 105.898295 
L 314.884864 105.514463 
L 315.256718 104.514198 
L 315.342642 104.539745 
L 315.546303 104.367176 
L 315.696897 104.466539 
L 315.937788 104.144298 
L 316.010933 104.0448 
L 316.420699 104.068855 
L 316.451648 103.96873 
L 317.023673 104.118509 
L 317.042328 104.018061 
L 317.050938 103.917514 
L 317.115072 103.942489 
L 317.480899 103.99195 
L 317.513896 103.789827 
L 317.568663 103.814863 
L 318.160585 103.838976 
L 318.255631 103.559077 
L 318.359096 103.278053 
L 318.382765 103.303021 
L 318.485857 103.328013 
L 318.737923 103.095552 
L 318.738596 103.120528 
L 318.872686 103.042714 
L 319.034427 102.836772 
L 319.040871 102.861681 
L 319.122961 102.655243 
L 319.264686 102.729881 
L 319.278293 102.626386 
L 319.304764 102.522786 
L 319.386265 102.547636 
L 319.467071 102.597412 
L 319.56673 102.493587 
L 319.587327 102.518473 
L 320.148622 102.564108 
L 320.179727 102.459788 
L 320.261361 102.559873 
L 320.454852 102.635207 
L 320.488084 102.530496 
L 320.522585 102.555617 
L 320.800778 102.656363 
L 320.90219 102.681614 
L 321.233961 102.255646 
L 321.279301 102.331248 
L 321.326325 102.25056 
L 321.36942 101.932078 
L 322.224107 102.153637 
L 322.27611 102.204485 
L 322.326132 102.122777 
L 322.464826 102.1737 
L 322.816337 101.819606 
L 322.832315 101.870451 
L 322.878501 101.895914 
L 322.890959 101.78783 
L 323.077455 101.705035 
L 323.429672 101.749393 
L 323.470204 101.640659 
L 323.524629 101.742833 
L 323.706881 101.736237 
L 323.826434 101.652547 
L 323.838613 101.703892 
L 324.015115 101.59432 
L 324.098953 101.341585 
L 324.305628 101.010698 
L 324.310669 101.036177 
L 324.386051 101.087218 
L 324.400456 100.976549 
L 324.533919 100.643824 
L 324.538121 100.669202 
L 324.655289 100.694607 
L 324.780529 100.360526 
L 325.04312 100.350076 
L 325.045504 100.238167 
L 325.135621 100.263476 
L 325.234566 100.314177 
L 325.360516 100.027823 
L 325.37381 99.91519 
L 325.447324 99.965732 
L 325.543285 99.765123 
L 325.566576 99.790367 
L 325.866446 99.815639 
L 326.022828 99.500695 
L 326.591027 99.614234 
L 327.028363 98.857485 
L 327.238185 99.034793 
L 327.338548 98.918516 
L 327.390453 98.969329 
L 327.42822 98.878217 
L 327.662713 99.056805 
L 327.677289 98.939754 
L 327.757384 99.042231 
L 327.866066 99.093643 
L 327.972267 98.884169 
L 328.024747 98.909844 
L 328.10434 98.961281 
L 328.222305 98.565345 
L 328.255694 98.616653 
L 328.732613 97.952772 
L 328.738719 97.978207 
L 329.123604 97.287995 
L 329.193627 97.338539 
L 329.198804 97.414573 
L 329.369098 97.439977 
L 329.509742 96.759796 
L 329.629527 96.784952 
L 329.780155 96.590182 
L 329.822168 96.615312 
L 329.886912 96.369456 
L 329.932833 96.595918 
L 330.152462 96.748229 
L 330.207927 96.82479 
L 330.280279 96.700605 
L 330.831998 96.758654 
L 331.095841 96.536203 
L 331.115702 96.587786 
L 331.349542 96.616649 
L 331.423472 96.489867 
L 331.476691 96.567671 
L 331.569234 96.593668 
L 331.804542 96.492455 
L 331.998147 96.596641 
L 332.323931 96.625859 
L 332.55109 96.395495 
L 332.693942 96.526627 
L 332.974365 96.062419 
L 333.046961 96.088554 
L 333.149565 95.881139 
L 333.179083 95.907242 
L 333.231347 95.959545 
L 333.232999 95.698738 
L 333.319081 95.724809 
L 333.403676 95.594098 
L 333.41942 95.620137 
L 333.516718 95.646208 
L 333.52863 95.515205 
L 333.573489 95.567313 
L 333.757786 95.619551 
L 333.840458 95.356534 
L 333.931293 95.40864 
L 334.123397 95.03839 
L 334.284571 95.168391 
L 334.502026 95.194489 
L 334.701357 94.631944 
L 334.959589 94.627593 
L 335.06011 94.223669 
L 335.122085 94.327119 
L 335.370714 94.243641 
L 335.371542 94.269582 
L 335.401359 94.295556 
L 335.527112 94.848776 
L 335.654126 94.65403 
L 335.703978 94.680709 
L 335.851838 94.404842 
L 335.941354 94.484654 
L 336.122736 94.287317 
L 336.254426 94.313948 
L 336.257847 94.174872 
L 336.348876 94.281452 
L 336.519528 94.028744 
L 336.53198 94.055363 
L 336.609081 94.082017 
L 336.63071 93.941872 
L 336.778143 93.968486 
L 336.821819 93.828081 
L 336.858822 93.881265 
L 336.959775 93.90791 
L 337.02101 93.767093 
L 337.043596 93.793697 
L 337.152414 93.847012 
L 337.200937 93.705782 
L 337.276889 93.812531 
L 337.297553 93.839307 
L 337.316845 93.697508 
L 337.341329 93.751014 
L 337.457277 93.804662 
L 337.53925 93.403848 
L 337.686337 93.484001 
L 337.971994 93.053883 
L 338.04134 93.133653 
L 338.460217 93.149692 
L 338.529968 93.005025 
L 338.603919 93.058499 
L 338.842904 93.219794 
L 338.902747 93.074289 
L 338.971796 93.128185 
L 339.007752 93.155189 
L 339.173115 92.716748 
L 339.263158 92.824152 
L 339.264503 92.677276 
L 339.265199 92.530198 
L 339.297076 92.610643 
L 339.574057 92.745459 
L 339.713935 92.908472 
L 339.800243 92.164165 
L 339.920299 91.671339 
L 339.971415 91.778296 
L 340.007691 91.805129 
L 340.145284 91.351187 
L 340.177883 91.431123 
L 340.41406 91.279118 
L 340.539221 90.747885 
L 340.552307 90.800697 
L 340.696603 90.85366 
L 340.750548 90.986728 
L 340.766923 90.832559 
L 340.817287 90.859196 
L 341.128884 89.95511 
L 341.46902 90.0337 
L 341.546569 89.721099 
L 341.60181 89.825664 
L 341.847496 89.957223 
L 341.944692 89.694521 
L 342.310129 89.27149 
L 342.346794 89.112461 
L 342.395356 89.164503 
L 342.461081 89.190581 
L 342.609532 88.892768 
L 342.753976 88.648409 
L 342.761678 88.674413 
L 343.065875 88.239718 
L 343.133844 88.317283 
L 343.247563 88.343216 
L 343.409737 87.930088 
L 343.484515 87.955866 
L 343.594957 87.678246 
L 343.743789 87.729656 
L 343.774282 87.564428 
L 344.161287 87.744848 
L 344.266545 87.822759 
L 344.400986 87.206356 
L 344.475225 86.870552 
L 344.502007 86.947109 
L 344.734354 86.634996 
L 344.946642 86.711363 
L 345.080481 86.498898 
L 345.134049 86.575541 
L 345.163959 86.430056 
L 345.181787 86.45561 
L 345.253074 86.506836 
L 345.294696 86.335117 
L 345.303234 86.360677 
L 345.538473 86.239585 
L 345.94292 86.445228 
L 345.98344 86.271703 
L 346.186636 86.323286 
L 346.212714 86.149254 
L 346.591094 86.200766 
L 346.62659 86.026224 
L 346.662399 86.051923 
L 346.909232 86.155128 
L 346.968609 85.829693 
L 347.310222 85.932765 
L 347.767158 85.478853 
L 348.120913 85.659141 
L 348.303015 85.327235 
L 348.513176 85.404508 
L 348.621243 84.915436 
L 348.641069 84.940984 
L 348.733139 85.043594 
L 348.854262 84.862106 
L 348.904953 84.913408 
L 349.395271 84.937235 
L 349.504071 84.753859 
L 349.521512 84.779653 
L 349.819472 84.857294 
L 349.896723 84.488582 
L 349.963362 84.565819 
L 350.07581 84.617525 
L 350.121673 84.432045 
L 350.189359 84.509528 
L 350.49021 84.239671 
L 350.64591 84.421314 
L 350.742913 84.526079 
L 350.774807 84.337212 
L 350.808925 84.415839 
L 351.054472 84.54778 
L 351.32136 84.76125 
L 351.342137 84.569818 
L 351.366799 84.596567 
L 351.601361 84.677091 
L 351.703761 84.37217 
L 351.754371 84.479596 
L 352.353718 84.69671 
L 352.576727 84.528726 
L 352.672317 83.99431 
L 352.816091 84.129298 
L 352.849957 83.958514 
L 353.006499 83.561607 
L 353.010004 83.588339 
L 353.015613 83.389201 
L 353.110467 83.4425 
L 353.239818 83.711883 
L 353.250759 83.51052 
L 353.532615 83.634719 
L 353.671336 83.226325 
L 353.672936 83.253484 
L 353.749695 83.048563 
L 353.757556 83.07561 
L 353.85277 82.870149 
L 353.871709 82.897081 
L 354.000922 82.924063 
L 354.037205 82.744761 
L 354.125551 82.825658 
L 354.563457 83.098584 
L 354.570332 82.889692 
L 354.676923 82.917095 
L 354.782594 82.999614 
L 354.89452 83.082597 
L 354.944673 82.688663 
L 355.003277 82.882064 
L 355.024109 82.669395 
L 355.092502 82.697058 
L 355.193969 82.724773 
L 355.211644 82.511347 
L 355.215821 82.538938 
L 355.477099 82.649832 
L 355.506588 82.219971 
L 355.583371 82.302621 
L 355.790135 82.086529 
L 355.813224 81.870021 
L 355.867641 81.897313 
L 356.154641 81.734579 
L 356.261284 81.816538 
L 356.42733 81.294765 
L 356.437121 81.321894 
L 356.693718 81.485795 
L 356.775805 81.513301 
L 356.916199 81.09564 
L 357.024296 81.204877 
L 357.075016 81.259821 
L 357.170978 81.03538 
L 357.200924 81.117618 
L 357.411699 81.311434 
L 357.714174 81.536305 
L 357.882364 81.30782 
L 357.918732 81.335983 
L 357.998957 81.449206 
L 358.016494 81.219233 
L 358.230079 81.247478 
L 358.340498 80.813594 
L 358.407036 80.897599 
L 358.461307 81.067173 
L 358.539722 80.833472 
L 358.552562 80.918411 
L 358.745904 81.089887 
L 358.790081 80.853765 
L 358.839391 80.93966 
L 358.910265 81.707365 
L 359.048012 81.829313 
L 359.056558 81.890684 
L 359.107404 81.646193 
L 359.161072 81.707365 
L 359.163503 81.461875 
L 359.250397 81.522845 
L 359.448597 81.614802 
L 359.473018 81.738356 
L 359.532117 81.27206 
L 359.643479 81.302706 
L 359.771819 81.052961 
L 359.794307 81.205996 
L 359.967723 81.360744 
L 360.084872 80.916045 
L 360.173076 80.946842 
L 360.28202 80.692191 
L 360.356246 80.753488 
L 360.529985 81.06418 
L 360.920127 81.285923 
L 360.973138 81.317893 
L 360.978632 81.057495 
L 360.993848 81.153056 
L 361.384635 81.313808 
L 361.385715 81.050671 
L 361.441096 81.082777 
L 361.607952 81.147214 
L 361.798583 80.649246 
L 361.798589 80.713041 
L 361.93792 80.8093 
L 362.072891 80.841539 
L 362.086955 80.573789 
L 362.183415 80.734729 
L 362.243843 80.464935 
L 362.258486 80.49707 
L 362.513671 80.691504 
L 362.645685 80.955159 
L 362.880217 80.404934 
L 362.90209 80.128815 
L 363.025514 80.193756 
L 363.196857 79.45483 
L 363.290335 79.582982 
L 363.450272 79.05073 
L 363.542279 79.082424 
L 363.75602 79.146051 
L 363.79935 78.861811 
L 363.9845 78.576861 
L 364.035661 78.63954 
L 364.121089 78.702534 
L 364.145768 78.41559 
L 364.19346 78.446885 
L 364.689672 78.700105 
L 364.717916 78.409503 
L 365.138581 78.665272 
L 365.194279 78.371255 
L 365.267316 78.403259 
L 365.360772 78.532106 
L 365.397169 78.235625 
L 365.500367 78.299864 
L 365.563431 78.461934 
L 365.586507 78.162248 
L 365.682619 78.357441 
L 365.819497 78.390275 
L 365.870397 78.087314 
L 365.945876 78.185261 
L 366.238646 78.483853 
L 366.271414 78.175704 
L 366.821277 78.376583 
L 366.846809 78.410382 
L 366.893366 78.09877 
L 367.059725 78.301225 
L 367.228357 78.576421 
L 367.343156 78.258529 
L 367.390297 78.327497 
L 367.451178 78.362126 
L 367.509216 78.042154 
L 367.553417 78.110901 
L 367.759247 78.284472 
L 367.774227 78.319481 
L 367.827523 77.995364 
L 368.189484 78.205041 
L 368.355079 78.311235 
L 368.372263 77.982442 
L 368.458321 78.017621 
L 368.555811 78.088285 
L 368.651472 77.494641 
L 368.824266 77.669799 
L 368.891707 77.740582 
L 369.370572 78.211007 
L 369.394625 78.359459 
L 369.61091 78.014869 
L 369.652448 78.051798 
L 369.751375 78.275735 
L 370.030751 78.389247 
L 370.169571 78.076479 
L 370.18087 78.114185 
L 370.343749 78.420056 
L 370.483364 78.536733 
L 370.581577 77.858112 
L 370.602582 77.896365 
L 370.789895 78.050586 
L 370.803669 78.089447 
L 370.809654 77.725802 
L 370.85333 77.764269 
L 371.604643 78.275735 
L 371.622136 77.90351 
L 371.816248 78.224771 
L 371.904402 78.388603 
L 372.107366 78.471338 
L 372.163671 78.090118 
L 372.240869 78.172269 
L 372.537908 78.464184 
L 372.538915 78.506453 
L 372.994992 78.676972 
L 373.049867 78.8064 
L 373.177541 79.751153 
L 373.178054 79.345669 
L 373.227337 79.438062 
L 373.410512 79.484507 
L 373.498609 78.710574 
L 373.780387 78.847466 
L 373.795108 78.432966 
L 373.833236 78.478258 
L 374.101062 76.930942 
L 374.320357 77.192467 
L 374.359256 76.33243 
L 374.420376 76.418011 
L 374.625224 76.591117 
L 374.668337 76.678657 
L 374.793938 76.766866 
L 374.956472 76.01443 
L 374.959937 76.057763 
L 375.260814 76.365842 
L 375.384517 75.913967 
L 375.428238 76.046191 
L 375.478782 76.315391 
L 375.690876 76.544699 
L 375.844865 76.778678 
L 376.03898 77.06582 
L 376.263961 77.310589 
L 376.736372 77.510107 
L 376.79625 77.764269 
L 376.881052 77.276912 
L 376.952877 77.378232 
L 376.987502 77.531847 
L 377.032215 77.037686 
L 377.21807 77.139286 
L 377.496372 74.906499 
L 377.839777 75.194209 
L 377.868424 75.291844 
L 377.999833 74.76802 
L 378.072846 74.816092 
L 378.539445 75.059763 
L 378.73882 74.181721 
L 378.742513 74.229772 
L 378.955208 74.424235 
L 379.288097 74.572502 
L 379.33581 74.02084 
L 379.374508 74.366661 
L 379.695528 74.672524 
L 379.911971 73.528929 
L 380.032602 73.677522 
L 380.058751 72.514705 
L 380.176815 72.657519 
L 380.783686 73.353491 
L 380.785014 72.743912 
L 380.895759 72.844573 
L 380.93795 72.895301 
L 381.25957 73.049099 
L 381.526897 73.41766 
L 381.72691 73.912527 
L 382.104395 74.140477 
L 382.171931 74.373593 
L 382.369737 74.733344 
L 382.5063 74.917925 
L 382.58991 73.798372 
L 382.607413 73.858403 
L 383.053892 74.163981 
L 383.169463 74.351786 
L 383.301681 74.415152 
L 383.393464 73.704427 
L 383.394648 73.890875 
L 383.823465 74.017104 
L 383.835741 74.144911 
L 383.84377 73.415515 
L 383.880732 73.477928 
L 384.062078 73.540736 
L 384.181376 73.795978 
L 384.308894 73.991733 
L 384.411509 74.191313 
L 384.474262 74.326548 
L 384.559825 73.56176 
L 384.814832 73.761033 
L 384.833718 73.828343 
L 384.984828 73.049099 
L 385.016347 72.264625 
L 385.261265 72.45476 
L 385.460923 71.657592 
L 385.726218 71.844083 
L 385.730236 71.907104 
L 385.903428 72.034458 
L 385.914636 72.163595 
L 386.263175 72.294549 
L 386.412808 72.427362 
L 386.41722 71.593216 
L 386.518127 71.722429 
L 386.600445 71.91976 
L 386.640829 71.986494 
L 386.642586 71.129429 
L 386.656935 71.193756 
L 387.326944 72.364217 
L 387.643123 72.437927 
L 387.737042 72.662569 
L 387.803449 72.815326 
L 388.310141 72.970546 
L 388.330244 73.12829 
L 388.920662 73.617298 
L 388.950515 73.701186 
L 389.339247 73.957116 
L 389.490792 74.308653 
L 389.508843 74.398439 
L 389.72399 74.580364 
L 389.840799 73.56176 
L 389.904456 73.738695 
L 390.035565 74.102131 
L 390.088703 74.288805 
L 390.193798 73.227009 
L 390.231267 73.317188 
L 390.582842 73.780783 
L 390.778804 74.266668 
L 391.02658 74.467626 
L 391.222842 73.334188 
L 391.271087 72.189639 
L 391.727769 72.657519 
L 391.881047 72.949706 
L 392.105394 73.250976 
L 392.261647 72.034458 
L 392.355822 72.131141 
L 392.645807 72.427362 
L 392.794617 72.528214 
L 393.053536 73.156729 
L 393.213924 73.265556 
L 393.394588 73.944782 
L 393.424364 72.598669 
L 393.446824 72.709312 
L 393.707298 73.643035 
L 393.960892 74.144911 
L 394.037895 74.946609 
L 394.205663 75.227906 
L 394.28984 75.371349 
L 394.400956 75.964638 
L 394.864832 76.591117 
L 394.873403 74.969771 
L 394.898872 75.121556 
L 395.021536 75.431679 
L 395.498324 76.247488 
L 395.660345 74.513843 
L 396.012458 74.672524 
L 396.309752 75.677501 
L 396.832967 76.402403 
L 397.372944 76.97806 
L 397.468257 75.213666 
L 397.501169 75.400266 
L 398.235183 78.155795 
L 398.487273 75.913967 
L 398.487273 75.913967 
" style="fill:none;stroke:#ff7f0e;stroke-dasharray:9.6,2.4,1.5,2.4;stroke-dashoffset:0;stroke-width:1.5;"/>
   </g>
   <g id="line2d_14">
    <path clip-path="url(#p5e78e2f491)" d="M 73.832727 156.052366 
L 73.953086 156.060133 
L 73.958405 156.038525 
L 74.224256 155.865434 
L 75.594056 155.256474 
L 77.064735 154.642581 
L 77.076469 154.620564 
L 77.441004 154.466268 
L 77.859605 154.208093 
L 78.967854 153.674632 
L 79.141428 153.540684 
L 79.164007 153.592182 
L 79.244745 153.525133 
L 79.769136 153.323632 
L 79.858036 153.278782 
L 80.304285 153.09912 
L 80.4037 153.009132 
L 81.923443 152.421627 
L 82.416319 152.148955 
L 83.08905 151.966638 
L 85.602007 150.956161 
L 85.860823 150.817346 
L 86.049505 150.678283 
L 88.219514 149.885556 
L 88.272674 149.838674 
L 89.023895 149.603844 
L 89.738805 149.132071 
L 90.29368 148.989986 
L 93.994493 147.80037 
L 94.104993 147.752211 
L 94.747493 147.583424 
L 94.85993 147.535133 
L 96.036363 147.14775 
L 96.107161 147.099194 
L 96.904482 146.95335 
L 96.999057 146.904677 
L 97.720648 146.734085 
L 97.72071 146.709685 
L 98.25331 146.563129 
L 98.339046 146.48975 
L 99.303019 146.318271 
L 99.49484 146.220119 
L 100.702345 146.023453 
L 102.394857 145.430555 
L 102.451916 145.331314 
L 102.833248 145.157347 
L 103.060758 145.036112 
L 103.894678 144.811444 
L 105.37852 144.611214 
L 106.967377 144.385363 
L 107.317965 144.209266 
L 109.501434 143.704022 
L 109.524165 143.678677 
L 110.291181 143.501044 
L 110.583777 143.399365 
L 111.897189 143.221123 
L 114.515036 142.968147 
L 114.532245 142.942561 
L 119.85131 142.250706 
L 121.264489 142.043893 
L 121.285358 142.018005 
L 122.609494 141.784644 
L 122.855995 141.706711 
L 126.862742 141.420323 
L 127.718255 141.289818 
L 129.426953 141.13294 
L 144.082977 139.414855 
L 144.148841 139.388121 
L 145.523642 139.254323 
L 145.59428 139.227538 
L 147.081926 139.066647 
L 148.527039 138.824731 
L 151.14662 138.555115 
L 151.842181 138.447026 
L 154.205892 138.284633 
L 160.154204 137.713779 
L 160.243645 137.659211 
L 161.832785 137.358452 
L 162.033686 137.303654 
L 164.478338 136.863988 
L 165.703607 136.615672 
L 167.624764 136.394337 
L 167.823906 136.338913 
L 173.445334 135.473981 
L 173.461439 135.44596 
L 174.939243 135.137123 
L 174.954389 135.108992 
L 176.946845 134.855395 
L 179.383663 134.685914 
L 179.424521 134.657635 
L 183.24413 134.203898 
L 184.089196 133.862023 
L 186.443469 133.547446 
L 188.271662 132.972546 
L 188.768487 132.828224 
L 189.103955 132.712594 
L 191.60244 132.132132 
L 192.217665 131.957238 
L 192.639932 131.811225 
L 193.142641 131.664968 
L 194.148582 131.342341 
L 195.757977 131.077488 
L 195.919028 130.989025 
L 199.158315 130.456377 
L 199.457784 130.367288 
L 199.958203 130.248363 
L 200.360919 130.069675 
L 200.783518 129.860747 
L 200.889974 129.741138 
L 201.645959 129.557144 
L 203.180059 129.312415 
L 203.33032 129.191947 
L 205.103518 128.617483 
L 205.165819 128.526439 
L 205.77634 128.34407 
L 206.015339 128.283197 
L 206.41512 128.130834 
L 207.433814 127.7641 
L 207.453239 127.73347 
L 207.875863 127.580167 
L 208.072805 127.488059 
L 209.25575 127.056967 
L 209.341267 126.964321 
L 210.226302 126.809697 
L 212.919345 125.963885 
L 212.937834 125.901348 
L 214.383544 125.675733 
L 214.430123 125.644354 
L 216.35634 125.329973 
L 216.365638 125.266966 
L 217.417052 124.888002 
L 217.764255 124.602739 
L 218.647971 124.284729 
L 218.720368 124.157215 
L 219.179537 123.99757 
L 219.482331 123.869654 
L 220.032532 123.677443 
L 220.71384 123.380684 
L 221.415076 123.437382 
L 222.859095 122.783401 
L 223.576991 122.482861 
L 224.068671 122.474644 
L 224.408288 122.246369 
L 224.764268 122.08297 
L 225.309552 121.877943 
L 225.322778 121.84514 
L 228.469939 121.225846 
L 228.720874 121.216881 
L 228.993865 121.05125 
L 229.103244 120.95173 
L 230.837743 120.443102 
L 231.052194 120.467072 
L 231.846816 120.232999 
L 231.956592 120.065444 
L 233.752541 119.675992 
L 233.972147 119.608539 
L 234.360895 119.689927 
L 234.494888 119.554862 
L 234.506886 119.521066 
L 235.556904 119.284147 
L 235.673808 119.182427 
L 235.674045 119.240088 
L 236.367229 119.036342 
L 236.620333 118.900265 
L 236.63763 118.957991 
L 236.966251 118.821734 
L 237.837013 118.137473 
L 237.855432 118.068773 
L 238.648587 117.862373 
L 239.242798 117.724521 
L 239.847676 117.551924 
L 240.072399 117.448214 
L 240.206628 117.471558 
L 240.211696 117.436954 
L 240.867297 117.055478 
L 241.301095 116.881572 
L 241.455206 116.777075 
L 242.530568 116.299003 
L 242.663575 116.228855 
L 243.412533 115.771627 
L 244.264519 115.51206 
L 244.48203 115.335052 
L 244.937787 115.145025 
L 245.03699 115.002831 
L 245.455085 114.789144 
L 246.932921 114.53924 
L 246.975864 114.503487 
L 247.348713 114.526156 
L 247.537637 114.418788 
L 247.798338 114.405622 
L 248.211051 114.262188 
L 249.002877 114.141134 
L 249.362842 114.222331 
L 249.778553 114.006371 
L 249.808044 113.970331 
L 250.382074 113.740194 
L 250.6116 113.595482 
L 251.238634 113.196403 
L 251.515437 113.014458 
L 252.081796 112.730644 
L 252.563522 112.474345 
L 252.60935 112.592164 
L 252.698099 112.518828 
L 252.940459 112.335246 
L 253.147115 112.151316 
L 253.731155 112.003922 
L 254.676113 111.471183 
L 255.179379 111.211161 
L 255.326839 110.987733 
L 255.396012 110.913143 
L 255.541757 110.875827 
L 255.556459 110.934993 
L 255.77937 110.95686 
L 257.032511 110.529646 
L 257.141656 110.37949 
L 257.71349 109.965371 
L 259.108084 109.733069 
L 259.348846 109.754683 
L 259.408733 109.678815 
L 259.854129 109.488889 
L 260.628338 109.107936 
L 260.846862 108.938307 
L 262.107833 108.674484 
L 262.614225 108.328341 
L 263.242039 108.174111 
L 263.486292 108.019641 
L 263.715317 108.002154 
L 264.122414 107.692285 
L 264.670962 107.459248 
L 264.717611 107.519167 
L 265.05693 107.246629 
L 265.092254 107.3066 
L 266.630763 106.897747 
L 266.976548 106.939566 
L 267.347304 106.743449 
L 267.348662 106.704179 
L 268.985206 106.196158 
L 269.239952 105.918886 
L 269.400682 105.879213 
L 269.463023 105.999943 
L 269.504317 105.960262 
L 270.48015 105.363169 
L 272.077255 104.884255 
L 272.373692 104.904691 
L 272.571941 104.743737 
L 272.58986 104.925848 
L 272.647183 105.109066 
L 272.793863 105.129662 
L 272.808967 105.089356 
L 272.856483 105.109956 
L 272.911948 105.069622 
L 273.020343 105.090226 
L 273.933761 104.868358 
L 273.948562 104.929391 
L 274.011086 104.848439 
L 274.266616 104.930103 
L 275.856362 104.565641 
L 276.075553 104.606752 
L 276.210938 104.504963 
L 276.38829 104.525523 
L 276.616951 104.505252 
L 276.646364 104.566692 
L 277.04491 104.403154 
L 277.358886 104.30085 
L 277.783315 104.239372 
L 277.905995 104.362519 
L 277.995633 104.321493 
L 278.001482 104.383108 
L 278.377189 104.650541 
L 278.403643 104.609507 
L 278.442155 104.568457 
L 278.718579 104.548093 
L 279.519129 104.218857 
L 279.717504 104.260155 
L 280.403043 104.032527 
L 280.522237 103.887196 
L 280.733336 103.866251 
L 280.762466 103.824687 
L 280.772176 104.011272 
L 280.875342 103.928119 
L 281.059884 103.969448 
L 281.115361 103.886175 
L 281.174444 103.969192 
L 281.227818 104.093973 
L 281.272968 104.052311 
L 281.375048 103.968935 
L 281.460384 104.031377 
L 282.156898 103.780412 
L 282.225785 103.696684 
L 282.28164 103.821842 
L 282.912495 103.842582 
L 283.712766 103.611005 
L 283.73659 103.56895 
L 283.746323 103.694521 
L 283.8083 104.176815 
L 283.843964 104.092677 
L 284.160643 103.923886 
L 284.983748 103.733049 
L 285.011206 103.648322 
L 285.06158 103.774923 
L 285.70304 103.456235 
L 285.878714 103.604008 
L 285.91003 103.561467 
L 286.329616 103.709484 
L 286.663162 103.411164 
L 286.70792 103.474773 
L 286.813675 103.49573 
L 286.820323 103.453032 
L 286.876284 103.367583 
L 286.876684 103.431263 
L 286.960265 103.388516 
L 286.98766 103.452227 
L 286.999897 103.515965 
L 287.077841 103.430434 
L 287.205564 103.558009 
L 287.240482 103.472424 
L 287.750357 103.193234 
L 287.829188 103.171204 
L 288.210274 103.298127 
L 288.302857 103.212052 
L 289.140341 103.295199 
L 289.232429 103.186702 
L 289.144605 103.316297 
L 289.235087 103.251007 
L 289.34336 103.228868 
L 289.407715 103.378805 
L 289.424199 103.335538 
L 289.472211 103.292252 
L 289.652876 103.334597 
L 289.720373 103.291265 
L 289.782742 103.420356 
L 289.81115 103.377015 
L 290.356538 103.029616 
L 290.392185 103.094244 
L 290.459509 103.05074 
L 290.59667 102.984791 
L 290.655906 103.049492 
L 290.68899 103.005923 
L 291.48987 102.567435 
L 291.841801 102.653345 
L 292.057288 102.519968 
L 292.242413 102.562105 
L 292.487338 102.319041 
L 292.611868 102.274948 
L 292.793105 102.470392 
L 292.824366 102.556739 
L 293.45917 102.466612 
L 293.684689 102.639788 
L 293.785762 102.551339 
L 293.949695 102.572567 
L 294.218682 102.46091 
L 294.431747 102.482131 
L 294.532957 102.568992 
L 294.533822 102.524628 
L 294.608503 102.391419 
L 294.657303 102.457088 
L 295.143093 102.476459 
L 295.210082 102.542261 
L 295.240017 102.497765 
L 295.335356 102.408716 
L 295.386102 102.495889 
L 295.721884 102.559987 
L 295.738602 102.515378 
L 295.757265 102.58139 
L 295.778825 102.536766 
L 296.102872 102.558174 
L 296.118862 102.513516 
L 296.153092 102.579599 
L 296.166927 102.534927 
L 296.65473 102.30918 
L 296.732091 102.174603 
L 297.024781 102.195935 
L 297.081486 102.394804 
L 297.10508 102.349904 
L 297.297532 102.326408 
L 297.364532 102.392799 
L 298.102854 102.077738 
L 298.196687 101.987542 
L 298.223773 102.054005 
L 298.442244 101.963739 
L 299.206927 102.471117 
L 299.523973 102.447535 
L 299.574912 102.536105 
L 299.626327 102.400276 
L 299.634068 102.467243 
L 299.728473 102.421931 
L 299.951203 102.577707 
L 299.978107 102.644802 
L 300.557898 102.552266 
L 300.611901 102.753983 
L 300.682453 102.730453 
L 301.137978 102.36426 
L 301.169931 102.453546 
L 301.32643 102.542952 
L 301.397487 102.451572 
L 301.787045 102.152865 
L 301.82437 102.220527 
L 301.869803 102.128757 
L 301.88956 102.082841 
L 302.022193 102.150548 
L 302.041877 102.104616 
L 302.392164 101.942414 
L 302.498558 101.8042 
L 302.636389 101.779775 
L 302.843352 102.005236 
L 302.851158 102.073215 
L 302.859164 102.027069 
L 303.224698 101.842278 
L 303.287056 101.978377 
L 303.331716 101.885876 
L 303.354862 101.839594 
L 303.632398 101.676006 
L 303.699986 101.536735 
L 304.112528 101.667351 
L 304.900658 101.474741 
L 305.147725 101.633806 
L 305.262495 101.771175 
L 305.317158 101.677651 
L 305.540947 101.605962 
L 305.558846 101.67475 
L 305.627627 101.765583 
L 305.629547 101.718724 
L 305.733519 101.671843 
L 305.73804 101.87863 
L 305.938787 101.853837 
L 306.007651 101.922871 
L 306.057061 102.130162 
L 306.098304 102.083258 
L 306.156567 102.036331 
L 306.184088 102.105502 
L 306.325816 102.197006 
L 306.403004 102.150052 
L 306.431106 102.219329 
L 306.623738 102.241671 
L 306.943931 102.264035 
L 307.14922 102.12296 
L 307.173225 102.192357 
L 307.309343 102.331248 
L 307.434349 102.492786 
L 307.608894 102.537889 
L 307.929631 102.513363 
L 308.083051 102.488803 
L 308.161967 102.558557 
L 308.222924 102.464209 
L 309.055407 102.10596 
L 309.669866 102.454019 
L 309.786812 102.56976 
L 310.026638 102.37958 
L 310.044662 102.520273 
L 310.047843 102.590668 
L 310.065152 102.495477 
L 310.134366 102.518292 
L 310.301628 102.327577 
L 310.307689 102.398075 
L 310.360305 102.53917 
L 310.376914 102.491451 
L 310.476655 102.443711 
L 310.64866 102.655632 
L 310.841511 102.890932 
L 311.101672 103.126784 
L 311.518646 103.244345 
L 311.563971 103.196568 
L 311.585594 103.267668 
L 311.648759 103.504627 
L 311.700855 103.456832 
L 311.981444 103.288828 
L 311.996968 103.360166 
L 312.111002 103.645857 
L 312.189823 103.597961 
L 312.200598 103.5021 
L 312.244818 103.573624 
L 312.509397 103.812119 
L 312.719374 103.835864 
L 312.809428 103.73989 
L 312.95217 103.811638 
L 312.990414 103.715584 
L 313.001836 103.667523 
L 313.051 103.883024 
L 313.191144 104.026862 
L 313.379588 104.002709 
L 313.472391 104.290975 
L 313.488604 104.242902 
L 313.566465 104.459479 
L 313.598685 104.555968 
L 313.636314 104.411629 
L 313.842487 104.291233 
L 313.945195 104.532859 
L 313.94635 104.484614 
L 314.03555 104.436347 
L 314.035983 104.508912 
L 314.124866 104.726817 
L 314.236758 105.309426 
L 314.255505 105.212962 
L 314.317571 105.432052 
L 314.326936 105.505151 
L 314.362642 105.408643 
L 314.428773 105.481789 
L 314.54549 105.70144 
L 314.57685 105.84805 
L 314.659427 105.703221 
L 314.66563 105.654898 
L 314.679678 105.753363 
L 314.769255 105.705006 
L 314.77809 105.656625 
L 314.787392 105.877143 
L 314.815061 105.828757 
L 314.869133 105.90234 
L 314.884864 105.805511 
L 314.991506 105.661832 
L 315.153185 105.686998 
L 315.256718 105.492477 
L 315.696897 106.08617 
L 315.845537 106.014202 
L 315.869831 106.162709 
L 315.937788 106.113958 
L 316.010933 106.065183 
L 316.192556 106.28825 
L 316.349826 106.563233 
L 316.616321 106.738432 
L 317.292561 107.191035 
L 317.480899 107.416294 
L 317.481934 107.367491 
L 317.513896 107.318665 
L 317.568663 107.393838 
L 318.27575 107.601385 
L 318.359096 107.578988 
L 318.485857 107.730053 
L 318.555436 107.681099 
L 318.562357 107.756694 
L 318.601306 107.832326 
L 318.656451 107.734374 
L 318.844561 107.961532 
L 318.872686 107.912539 
L 319.203512 107.868019 
L 319.467071 108.149745 
L 319.56673 108.100629 
L 319.587327 108.176738 
L 319.729374 108.329071 
L 319.73397 108.405293 
L 319.769873 108.35618 
L 320.24534 108.688789 
L 320.309473 108.994869 
L 320.77158 109.329257 
L 320.90219 109.48292 
L 320.999538 109.412524 
L 321.326325 109.804606 
L 321.351418 109.755437 
L 321.36942 109.657027 
L 321.543645 109.811583 
L 321.611601 109.966293 
L 321.671133 109.917079 
L 322.118321 110.459835 
L 322.224107 110.615257 
L 322.393078 110.877425 
L 322.598796 110.984174 
L 322.603048 110.934993 
L 322.658795 111.013019 
L 322.692139 110.963821 
L 322.878501 111.227152 
L 322.890959 111.177933 
L 323.077455 111.206941 
L 323.290894 111.520342 
L 323.324952 111.677279 
L 323.470204 111.578821 
L 323.481659 111.657363 
L 323.706881 112.159068 
L 323.768286 112.109836 
L 323.826434 112.188712 
L 323.838613 112.346583 
L 324.052693 112.277823 
L 324.056114 112.356882 
L 324.064607 112.43598 
L 324.144908 112.337382 
L 324.305628 112.238684 
L 324.386051 112.476311 
L 324.400456 112.426947 
L 324.533919 112.278704 
L 324.538121 112.358024 
L 324.655289 112.437384 
L 324.668179 112.387935 
L 324.924213 112.368384 
L 325.234566 112.746808 
L 325.323742 112.697286 
L 325.447324 112.867828 
L 325.543285 112.848551 
L 325.566576 112.928524 
L 326.263851 113.210749 
L 326.378061 113.724031 
L 326.590698 114.158583 
L 326.591027 114.239429 
L 326.695035 114.140159 
L 326.83103 114.022249 
L 327.159014 114.296677 
L 327.42496 114.81593 
L 327.42822 114.7662 
L 327.492391 115.01072 
L 328.10434 116.00794 
L 328.16595 115.908532 
L 328.181443 116.023306 
L 328.255694 116.220679 
L 328.434956 116.203625 
L 328.511166 116.286146 
L 328.540261 116.236359 
L 328.803483 116.119556 
L 328.898656 116.35064 
L 328.943428 116.283647 
L 328.969837 116.366557 
L 329.167461 116.399531 
L 329.369098 116.814996 
L 329.385528 116.765034 
L 329.415051 116.798286 
L 329.509742 116.681424 
L 329.888706 116.89829 
L 330.037026 117.652462 
L 330.152462 118.073001 
L 330.207927 118.32586 
L 330.280279 118.275848 
L 330.435802 118.444662 
L 330.551152 118.78283 
L 330.608105 118.732846 
L 331.227313 120.064179 
L 331.349542 120.185331 
L 331.423472 120.135374 
L 331.44613 120.221002 
L 331.569234 120.478163 
L 331.804542 120.514039 
L 331.998147 120.857786 
L 332.102186 121.029937 
L 332.226094 121.202272 
L 332.243226 121.152388 
L 332.321725 121.238635 
L 332.323931 121.324928 
L 332.392862 121.275036 
L 332.450615 121.361386 
L 332.55109 121.311477 
L 332.693942 121.743972 
L 332.806877 121.730831 
L 332.864931 121.817537 
L 332.932731 121.767616 
L 332.974365 121.717669 
L 333.516718 122.250618 
L 333.52863 122.200598 
L 333.573489 122.375157 
L 334.054124 122.612319 
L 334.123397 122.562235 
L 334.137419 122.649874 
L 334.284571 123.000907 
L 334.526566 123.038735 
L 334.589241 122.888421 
L 334.613238 122.976388 
L 334.904506 123.631789 
L 334.973087 123.481427 
L 335.06011 123.431252 
L 335.085856 123.519704 
L 335.122085 123.785353 
L 335.348391 123.823849 
L 335.401359 124.090113 
L 335.527112 125.966301 
L 335.543364 125.916382 
L 335.553262 126.006278 
L 335.703978 126.226361 
L 335.738844 126.176431 
L 335.851838 126.126474 
L 336.033033 126.618073 
L 336.122736 126.568127 
L 336.326295 126.789689 
L 336.435662 127.011743 
L 336.519528 126.961782 
L 336.53198 127.052568 
L 336.778143 127.184337 
L 336.821819 127.134354 
L 336.822215 127.225314 
L 336.959775 127.407387 
L 337.02101 127.357411 
L 337.043596 127.448535 
L 337.200937 127.580965 
L 337.341329 128.171135 
L 337.817284 128.522184 
L 337.971994 128.422184 
L 338.04134 128.698447 
L 338.275788 128.882881 
L 338.336179 129.067522 
L 338.438958 129.017563 
L 338.44758 129.109973 
L 338.533654 129.244999 
L 338.840599 129.801252 
L 338.842904 129.894144 
L 338.902747 129.844249 
L 339.007752 130.123276 
L 339.032641 130.023474 
L 339.173115 129.973531 
L 339.187041 130.066681 
L 339.454927 130.807686 
L 339.574057 130.995147 
L 339.713935 131.558809 
L 339.71442 131.509004 
L 339.800243 131.309501 
L 339.872981 131.209579 
L 339.878271 131.303798 
L 340.007691 131.959675 
L 340.081003 131.859754 
L 340.145284 131.80975 
L 340.177883 132.094215 
L 340.450805 131.944148 
L 340.479638 132.134139 
L 340.552307 132.319477 
L 340.696603 132.510065 
L 340.817287 133.033179 
L 341.128884 132.828564 
L 341.59485 133.208173 
L 341.647728 133.49681 
L 341.875713 133.928943 
L 341.892635 134.02556 
L 341.944692 133.975503 
L 342.253178 133.972014 
L 342.461081 134.259244 
L 342.490536 134.209109 
L 342.4914 134.403235 
L 342.580707 134.839469 
L 342.609532 134.789372 
L 342.670901 134.739246 
L 342.714966 134.836718 
L 342.761678 135.079374 
L 343.024781 135.076827 
L 343.247563 135.516286 
L 343.290393 135.41599 
L 343.299567 135.6123 
L 343.743789 136.052289 
L 343.774282 136.002122 
L 343.978935 136.29823 
L 344.039002 136.594862 
L 344.169793 136.792907 
L 344.292598 137.139674 
L 344.351734 137.039537 
L 344.475225 136.889109 
L 344.502007 137.18758 
L 344.734354 137.186871 
L 344.946642 137.486137 
L 344.969988 137.435978 
L 345.063558 137.936011 
L 345.080481 137.885896 
L 345.214142 138.437932 
L 345.303234 138.589082 
L 345.457215 138.538998 
L 345.481283 138.63972 
L 345.94292 139.548927 
L 345.98344 139.498965 
L 346.662399 139.906412 
L 346.909232 140.313475 
L 346.948537 140.365496 
L 346.968609 140.315569 
L 347.300536 140.621785 
L 347.310222 140.72398 
L 347.473975 140.726449 
L 348.080281 141.394359 
L 348.120913 141.600015 
L 348.188409 141.500333 
L 348.59687 141.965915 
L 348.709044 142.17634 
L 348.733139 142.48703 
L 348.854262 142.437232 
L 348.860921 142.540937 
L 349.084938 142.85243 
L 349.244653 143.060407 
L 349.346495 143.323167 
L 349.395271 143.427457 
L 349.504071 143.377762 
L 349.521512 143.482132 
L 349.740076 143.691063 
L 349.819472 143.795624 
L 349.896723 143.696278 
L 349.923287 143.800936 
L 350.07581 144.220206 
L 350.121673 144.170572 
L 350.164686 144.275566 
L 350.189359 144.485747 
L 350.319709 144.436134 
L 350.49021 144.80776 
L 350.560879 145.124391 
L 350.742913 145.971591 
L 350.774807 145.922175 
L 350.781184 146.028385 
L 350.808925 146.241002 
L 351.050134 146.667021 
L 351.126965 147.201022 
L 351.274973 147.522214 
L 351.366799 147.687527 
L 351.558013 147.902286 
L 352.167257 149.315272 
L 352.752145 149.771483 
L 352.849957 150.267967 
L 353.006499 150.170151 
L 353.015613 150.230546 
L 353.131311 150.668627 
L 353.361313 152.051355 
L 353.425774 152.224012 
L 353.532615 152.778551 
L 353.546301 152.729988 
L 353.749695 152.743945 
L 353.871709 152.917913 
L 354.073264 153.203779 
L 354.962273 155.644983 
L 355.003277 156.098791 
L 355.024109 156.050651 
L 355.583371 157.0465 
L 356.075966 157.016765 
L 356.198891 157.475547 
L 356.315799 157.724433 
L 356.437121 158.137512 
L 356.500138 158.368515 
L 356.62732 158.599817 
L 356.775805 158.94733 
L 356.88158 158.899505 
L 357.271539 160.084499 
L 357.343443 160.318345 
L 357.480324 161.256773 
L 357.553086 161.609946 
L 357.714174 161.727824 
L 357.882364 161.68047 
L 357.998957 162.271131 
L 358.016494 162.223862 
L 358.341419 162.484764 
L 358.412339 162.840997 
L 358.461307 163.43628 
L 358.539722 163.389176 
L 358.682253 164.226031 
L 358.839391 164.779302 
L 358.910265 167.932748 
L 359.008911 168.177582 
L 359.056558 168.668231 
L 359.107404 168.622149 
L 359.250397 169.068201 
L 359.422858 169.314777 
L 359.643479 170.088752 
L 359.771819 170.042883 
L 359.903616 171.037782 
L 360.173076 171.571178 
L 360.28202 171.525562 
L 360.371309 172.02703 
L 360.457906 172.781778 
L 360.671163 173.286648 
L 360.886481 173.6662 
L 361.104341 174.509843 
L 361.309359 174.764572 
L 361.695165 175.441224 
L 361.798583 175.396368 
L 361.839846 175.909302 
L 362.112278 176.378983 
L 362.258486 176.850276 
L 362.493911 177.367674 
L 362.645685 178.667412 
L 362.782755 178.62322 
L 362.90209 178.534746 
L 363.094358 178.882492 
L 363.194178 179.100132 
L 363.196857 179.055937 
L 363.542279 179.755771 
L 363.75602 180.019273 
L 363.79935 179.975228 
L 363.9845 179.931154 
L 364.19346 180.547865 
L 364.37538 180.945461 
L 364.548039 181.476884 
L 364.941237 181.966153 
L 365.360772 183.261929 
L 365.397169 183.218544 
L 365.500367 183.487627 
L 365.682619 184.931374 
L 365.882211 185.160037 
L 366.015665 185.84094 
L 366.238646 186.66121 
L 366.271414 186.618585 
L 366.737203 187.030131 
L 366.846809 187.580226 
L 366.893366 187.537806 
L 367.059725 188.366093 
L 367.228357 189.476003 
L 367.343156 189.434034 
L 367.451178 189.851993 
L 367.509216 189.810099 
L 367.553417 190.089307 
L 367.701787 190.368917 
L 367.774227 190.929341 
L 367.827523 190.887698 
L 368.109238 191.309181 
L 368.355079 192.154881 
L 368.372263 192.11353 
L 368.567704 192.638273 
L 368.808293 193.30715 
L 368.994327 194.01987 
L 369.113339 194.448744 
L 369.370572 195.596988 
L 369.394625 196.173623 
L 369.61091 196.133255 
L 369.724612 196.85661 
L 369.751375 197.146692 
L 370.18087 197.833822 
L 370.343749 199.002999 
L 370.751406 199.952902 
L 370.920832 200.652098 
L 371.122727 200.948316 
L 371.20742 201.393465 
L 371.604643 202.436005 
L 371.622136 202.397228 
L 371.766835 203.295404 
L 371.904402 204.197602 
L 372.097077 204.348361 
L 372.16452 204.612037 
L 372.304473 205.065795 
L 372.464072 205.672392 
L 373.049867 207.043906 
L 373.195582 210.399343 
L 373.227337 210.554914 
L 373.578971 210.949513 
L 373.608475 211.105648 
L 373.942203 211.309242 
L 374.022012 211.272842 
L 374.152378 211.864017 
L 375.260814 215.850295 
L 375.384517 215.815144 
L 375.636666 217.750709 
L 375.700562 218.237422 
L 375.844865 218.88814 
L 376.03898 219.868025 
L 376.116772 220.359691 
L 376.607455 221.01704 
L 376.736372 221.346486 
L 376.79625 222.172365 
L 376.881052 222.139142 
L 376.987502 222.968528 
L 377.032215 222.935541 
L 377.26289 223.235405 
L 377.999833 225.419123 
L 378.539445 226.433695 
L 378.600706 226.401706 
L 378.687319 227.081001 
L 378.73882 227.049206 
L 378.856028 227.730892 
L 378.955208 227.901654 
L 379.255832 228.243588 
L 379.350454 229.241583 
L 379.469561 229.930624 
L 379.642268 230.10323 
L 379.695528 230.621882 
L 379.752078 230.591218 
L 379.911971 230.560529 
L 380.346265 232.589047 
L 380.49662 232.764128 
L 380.558094 233.114716 
L 380.760084 233.290223 
L 380.93795 234.493357 
L 381.18322 234.670069 
L 381.401636 235.555787 
L 381.489566 235.733364 
L 381.72691 237.875651 
L 382.09851 238.234749 
L 382.217043 239.858015 
L 382.277546 240.220377 
L 382.437188 240.583336 
L 382.886529 242.353741 
L 383.394063 243.79854 
L 383.394648 243.983172 
L 383.823465 244.352896 
L 383.880732 244.8828 
L 384.062078 245.068423 
L 384.181376 245.812471 
L 384.308894 246.372143 
L 384.411509 246.933223 
L 384.559825 247.283076 
L 384.76998 247.658681 
L 384.833718 248.034917 
L 385.016347 247.985433 
L 385.20966 248.362578 
L 385.261265 248.551389 
L 385.460923 248.526823 
L 385.698465 248.905062 
L 385.914636 250.043619 
L 386.243178 250.23394 
L 386.412808 250.805873 
L 386.41722 250.782127 
L 386.427199 250.973165 
L 386.598794 251.547254 
L 386.656935 252.09954 
L 386.836393 253.255495 
L 387.040428 253.64213 
L 387.326944 255.390183 
L 387.643123 255.585243 
L 387.737042 256.17143 
L 387.803449 256.56306 
L 388.30191 256.759128 
L 388.330244 257.348343 
L 388.6107 257.939081 
L 388.636734 258.136334 
L 388.920662 258.531349 
L 388.950515 258.729112 
L 389.308715 259.125151 
L 389.508843 260.317386 
L 389.713178 260.516694 
L 389.72399 260.716175 
L 389.840799 260.696181 
L 390.057214 262.097955 
L 390.088703 262.298905 
L 390.193798 262.279522 
L 390.377649 262.883662 
L 390.617063 263.894081 
L 390.68961 264.299486 
L 391.02658 264.908924 
L 391.271087 264.872191 
L 391.537576 265.48372 
L 392.105394 267.122364 
L 392.261647 267.104875 
L 392.855584 268.548771 
L 392.857339 268.755772 
L 393.017923 268.962955 
L 393.053536 269.377873 
L 393.213924 269.585607 
L 394.400956 276.317951 
L 395.021536 277.807137 
L 395.498324 278.886462 
L 395.660345 278.873827 
L 396.012458 279.09037 
L 396.186591 279.958505 
L 396.571806 281.048112 
L 397.267016 281.704255 
L 397.501169 282.351043 
L 398.179074 285.002028 
L 398.235183 285.22426 
L 398.487273 285.214353 
L 398.487273 285.214353 
" style="fill:none;stroke:#2ca02c;stroke-dasharray:1.5,2.475;stroke-dashoffset:0;stroke-width:1.5;"/>
   </g>
   <g id="line2d_15">
    <defs>
     <path d="M 0 1.5 
C 0.397805 1.5 0.77937 1.341951 1.06066 1.06066 
C 1.341951 0.77937 1.5 0.397805 1.5 0 
C 1.5 -0.397805 1.341951 -0.77937 1.06066 -1.06066 
C 0.77937 -1.341951 0.397805 -1.5 0 -1.5 
C -0.397805 -1.5 -0.77937 -1.341951 -1.06066 -1.06066 
C -1.341951 -0.77937 -1.5 -0.397805 -1.5 0 
C -1.5 0.397805 -1.341951 0.77937 -1.06066 1.06066 
C -0.77937 1.341951 -0.397805 1.5 0 1.5 
z
" id="m9d69ef1ea8" style="stroke:#008000;"/>
    </defs>
    <g clip-path="url(#p5e78e2f491)">
     <use style="fill:#008000;stroke:#008000;" x="304.75541" xlink:href="#m9d69ef1ea8" y="101.406202"/>
    </g>
   </g>
   <g id="patch_3">
    <path d="M 57.6 307.584 
L 57.6 41.472 
" style="fill:none;stroke:#000000;stroke-linecap:square;stroke-linejoin:miter;stroke-width:0.8;"/>
   </g>
   <g id="patch_4">
    <path d="M 414.72 307.584 
L 414.72 41.472 
" style="fill:none;stroke:#000000;stroke-linecap:square;stroke-linejoin:miter;stroke-width:0.8;"/>
   </g>
   <g id="patch_5">
    <path d="M 57.6 307.584 
L 414.72 307.584 
" style="fill:none;stroke:#000000;stroke-linecap:square;stroke-linejoin:miter;stroke-width:0.8;"/>
   </g>
   <g id="patch_6">
    <path d="M 57.6 41.472 
L 414.72 41.472 
" style="fill:none;stroke:#000000;stroke-linecap:square;stroke-linejoin:miter;stroke-width:0.8;"/>
   </g>
   <g id="text_14">
    <!-- (2.46 0.81) -->
    <g style="fill:#008000;" transform="translate(220.074399 101.406202)scale(0.1 -0.1)">
     <defs>
      <path d="M 1984 4856 
Q 1566 4138 1362 3434 
Q 1159 2731 1159 2009 
Q 1159 1288 1364 580 
Q 1569 -128 1984 -844 
L 1484 -844 
Q 1016 -109 783 600 
Q 550 1309 550 2009 
Q 550 2706 781 3412 
Q 1013 4119 1484 4856 
L 1984 4856 
z
" id="DejaVuSans-28" transform="scale(0.015625)"/>
      <path id="DejaVuSans-20" transform="scale(0.015625)"/>
      <path d="M 513 4856 
L 1013 4856 
Q 1481 4119 1714 3412 
Q 1947 2706 1947 2009 
Q 1947 1309 1714 600 
Q 1481 -109 1013 -844 
L 513 -844 
Q 928 -128 1133 580 
Q 1338 1288 1338 2009 
Q 1338 2731 1133 3434 
Q 928 4138 513 4856 
z
" id="DejaVuSans-29" transform="scale(0.015625)"/>
     </defs>
     <use xlink:href="#DejaVuSans-28"/>
     <use x="39.013672" xlink:href="#DejaVuSans-32"/>
     <use x="102.636719" xlink:href="#DejaVuSans-2e"/>
     <use x="134.423828" xlink:href="#DejaVuSans-34"/>
     <use x="198.046875" xlink:href="#DejaVuSans-36"/>
     <use x="261.669922" xlink:href="#DejaVuSans-20"/>
     <use x="293.457031" xlink:href="#DejaVuSans-30"/>
     <use x="357.080078" xlink:href="#DejaVuSans-2e"/>
     <use x="388.867188" xlink:href="#DejaVuSans-38"/>
     <use x="452.490234" xlink:href="#DejaVuSans-31"/>
     <use x="516.113281" xlink:href="#DejaVuSans-29"/>
    </g>
   </g>
   <g id="legend_1">
    <g id="patch_7">
     <path d="M 64.6 302.584 
L 141.214063 302.584 
Q 143.214063 302.584 143.214063 300.584 
L 143.214063 257.549625 
Q 143.214063 255.549625 141.214063 255.549625 
L 64.6 255.549625 
Q 62.6 255.549625 62.6 257.549625 
L 62.6 300.584 
Q 62.6 302.584 64.6 302.584 
z
" style="fill:#ffffff;opacity:0.8;stroke:#cccccc;stroke-linejoin:miter;"/>
    </g>
    <g id="line2d_16">
     <path d="M 66.6 263.648062 
L 86.6 263.648062 
" style="fill:none;stroke:#1f77b4;stroke-dasharray:5.55,2.4;stroke-dashoffset:0;stroke-width:1.5;"/>
    </g>
    <g id="line2d_17"/>
    <g id="text_15">
     <!-- Precision -->
     <g transform="translate(94.6 267.148062)scale(0.1 -0.1)">
      <defs>
       <path d="M 1259 4147 
L 1259 2394 
L 2053 2394 
Q 2494 2394 2734 2622 
Q 2975 2850 2975 3272 
Q 2975 3691 2734 3919 
Q 2494 4147 2053 4147 
L 1259 4147 
z
M 628 4666 
L 2053 4666 
Q 2838 4666 3239 4311 
Q 3641 3956 3641 3272 
Q 3641 2581 3239 2228 
Q 2838 1875 2053 1875 
L 1259 1875 
L 1259 0 
L 628 0 
L 628 4666 
z
" id="DejaVuSans-50" transform="scale(0.015625)"/>
       <path d="M 3513 2113 
L 3513 0 
L 2938 0 
L 2938 2094 
Q 2938 2591 2744 2837 
Q 2550 3084 2163 3084 
Q 1697 3084 1428 2787 
Q 1159 2491 1159 1978 
L 1159 0 
L 581 0 
L 581 3500 
L 1159 3500 
L 1159 2956 
Q 1366 3272 1645 3428 
Q 1925 3584 2291 3584 
Q 2894 3584 3203 3211 
Q 3513 2838 3513 2113 
z
" id="DejaVuSans-6e" transform="scale(0.015625)"/>
      </defs>
      <use xlink:href="#DejaVuSans-50"/>
      <use x="58.552734" xlink:href="#DejaVuSans-72"/>
      <use x="97.416016" xlink:href="#DejaVuSans-65"/>
      <use x="158.939453" xlink:href="#DejaVuSans-63"/>
      <use x="213.919922" xlink:href="#DejaVuSans-69"/>
      <use x="241.703125" xlink:href="#DejaVuSans-73"/>
      <use x="293.802734" xlink:href="#DejaVuSans-69"/>
      <use x="321.585938" xlink:href="#DejaVuSans-6f"/>
      <use x="382.767578" xlink:href="#DejaVuSans-6e"/>
     </g>
    </g>
    <g id="line2d_18">
     <path d="M 66.6 278.326188 
L 86.6 278.326188 
" style="fill:none;stroke:#ff7f0e;stroke-dasharray:9.6,2.4,1.5,2.4;stroke-dashoffset:0;stroke-width:1.5;"/>
    </g>
    <g id="line2d_19"/>
    <g id="text_16">
     <!-- Recall -->
     <g transform="translate(94.6 281.826188)scale(0.1 -0.1)">
      <defs>
       <path d="M 2841 2188 
Q 3044 2119 3236 1894 
Q 3428 1669 3622 1275 
L 4263 0 
L 3584 0 
L 2988 1197 
Q 2756 1666 2539 1819 
Q 2322 1972 1947 1972 
L 1259 1972 
L 1259 0 
L 628 0 
L 628 4666 
L 2053 4666 
Q 2853 4666 3247 4331 
Q 3641 3997 3641 3322 
Q 3641 2881 3436 2590 
Q 3231 2300 2841 2188 
z
M 1259 4147 
L 1259 2491 
L 2053 2491 
Q 2509 2491 2742 2702 
Q 2975 2913 2975 3322 
Q 2975 3731 2742 3939 
Q 2509 4147 2053 4147 
L 1259 4147 
z
" id="DejaVuSans-52" transform="scale(0.015625)"/>
       <path d="M 2194 1759 
Q 1497 1759 1228 1600 
Q 959 1441 959 1056 
Q 959 750 1161 570 
Q 1363 391 1709 391 
Q 2188 391 2477 730 
Q 2766 1069 2766 1631 
L 2766 1759 
L 2194 1759 
z
M 3341 1997 
L 3341 0 
L 2766 0 
L 2766 531 
Q 2569 213 2275 61 
Q 1981 -91 1556 -91 
Q 1019 -91 701 211 
Q 384 513 384 1019 
Q 384 1609 779 1909 
Q 1175 2209 1959 2209 
L 2766 2209 
L 2766 2266 
Q 2766 2663 2505 2880 
Q 2244 3097 1772 3097 
Q 1472 3097 1187 3025 
Q 903 2953 641 2809 
L 641 3341 
Q 956 3463 1253 3523 
Q 1550 3584 1831 3584 
Q 2591 3584 2966 3190 
Q 3341 2797 3341 1997 
z
" id="DejaVuSans-61" transform="scale(0.015625)"/>
      </defs>
      <use xlink:href="#DejaVuSans-52"/>
      <use x="64.982422" xlink:href="#DejaVuSans-65"/>
      <use x="126.505859" xlink:href="#DejaVuSans-63"/>
      <use x="181.486328" xlink:href="#DejaVuSans-61"/>
      <use x="242.765625" xlink:href="#DejaVuSans-6c"/>
      <use x="270.548828" xlink:href="#DejaVuSans-6c"/>
     </g>
    </g>
    <g id="line2d_20">
     <path d="M 66.6 293.004312 
L 86.6 293.004312 
" style="fill:none;stroke:#2ca02c;stroke-dasharray:1.5,2.475;stroke-dashoffset:0;stroke-width:1.5;"/>
    </g>
    <g id="line2d_21"/>
    <g id="text_17">
     <!-- F1 score -->
     <g transform="translate(94.6 296.504312)scale(0.1 -0.1)">
      <defs>
       <path d="M 628 4666 
L 3309 4666 
L 3309 4134 
L 1259 4134 
L 1259 2759 
L 3109 2759 
L 3109 2228 
L 1259 2228 
L 1259 0 
L 628 0 
L 628 4666 
z
" id="DejaVuSans-46" transform="scale(0.015625)"/>
      </defs>
      <use xlink:href="#DejaVuSans-46"/>
      <use x="57.519531" xlink:href="#DejaVuSans-31"/>
      <use x="121.142578" xlink:href="#DejaVuSans-20"/>
      <use x="152.929688" xlink:href="#DejaVuSans-73"/>
      <use x="205.029297" xlink:href="#DejaVuSans-63"/>
      <use x="260.009766" xlink:href="#DejaVuSans-6f"/>
      <use x="321.191406" xlink:href="#DejaVuSans-72"/>
      <use x="360.054688" xlink:href="#DejaVuSans-65"/>
     </g>
    </g>
   </g>
  </g>
 </g>
 <defs>
  <clipPath id="p5e78e2f491">
   <rect height="266.112" width="357.12" x="57.6" y="41.472"/>
  </clipPath>
 </defs>
</svg>
