<?xml version="1.0" encoding="utf-8" standalone="no"?>
<!DOCTYPE svg PUBLIC "-//W3C//DTD SVG 1.1//EN"
  "http://www.w3.org/Graphics/SVG/1.1/DTD/svg11.dtd">
<svg height="345.6pt" version="1.1" viewBox="0 0 460.8 345.6" width="460.8pt" xmlns="http://www.w3.org/2000/svg" xmlns:xlink="http://www.w3.org/1999/xlink">
 <metadata>
  <rdf:RDF xmlns:cc="http://creativecommons.org/ns#" xmlns:dc="http://purl.org/dc/elements/1.1/" xmlns:rdf="http://www.w3.org/1999/02/22-rdf-syntax-ns#">
   <cc:Work>
    <dc:type rdf:resource="http://purl.org/dc/dcmitype/StillImage"/>
    <dc:date>2021-06-27T11:00:56.039432</dc:date>
    <dc:format>image/svg+xml</dc:format>
    <dc:creator>
     <cc:Agent>
      <dc:title>Matplotlib v3.4.2, https://matplotlib.org/</dc:title>
     </cc:Agent>
    </dc:creator>
   </cc:Work>
  </rdf:RDF>
 </metadata>
 <defs>
  <style type="text/css">*{stroke-linecap:butt;stroke-linejoin:round;}</style>
 </defs>
 <g id="figure_1">
  <g id="patch_1">
   <path d="M 0 345.6 
L 460.8 345.6 
L 460.8 0 
L 0 0 
z
" style="fill:#ffffff;"/>
  </g>
  <g id="axes_1">
   <g id="patch_2">
    <path d="M 57.6 307.584 
L 414.72 307.584 
L 414.72 41.472 
L 57.6 41.472 
z
" style="fill:#ffffff;"/>
   </g>
   <g id="matplotlib.axis_1">
    <g id="xtick_1">
     <g id="line2d_1">
      <defs>
       <path d="M 0 0 
L 0 3.5 
" id="m276283d80b" style="stroke:#000000;stroke-width:0.8;"/>
      </defs>
      <g>
       <use style="stroke:#000000;stroke-width:0.8;" x="99.335688" xlink:href="#m276283d80b" y="307.584"/>
      </g>
     </g>
     <g id="text_1">
      <!-- −4 -->
      <g transform="translate(91.964595 322.182437)scale(0.1 -0.1)">
       <defs>
        <path d="M 678 2272 
L 4684 2272 
L 4684 1741 
L 678 1741 
L 678 2272 
z
" id="DejaVuSans-2212" transform="scale(0.015625)"/>
        <path d="M 2419 4116 
L 825 1625 
L 2419 1625 
L 2419 4116 
z
M 2253 4666 
L 3047 4666 
L 3047 1625 
L 3713 1625 
L 3713 1100 
L 3047 1100 
L 3047 0 
L 2419 0 
L 2419 1100 
L 313 1100 
L 313 1709 
L 2253 4666 
z
" id="DejaVuSans-34" transform="scale(0.015625)"/>
       </defs>
       <use xlink:href="#DejaVuSans-2212"/>
       <use x="83.789062" xlink:href="#DejaVuSans-34"/>
      </g>
     </g>
    </g>
    <g id="xtick_2">
     <g id="line2d_2">
      <g>
       <use style="stroke:#000000;stroke-width:0.8;" x="159.758628" xlink:href="#m276283d80b" y="307.584"/>
      </g>
     </g>
     <g id="text_2">
      <!-- −2 -->
      <g transform="translate(152.387535 322.182437)scale(0.1 -0.1)">
       <defs>
        <path d="M 1228 531 
L 3431 531 
L 3431 0 
L 469 0 
L 469 531 
Q 828 903 1448 1529 
Q 2069 2156 2228 2338 
Q 2531 2678 2651 2914 
Q 2772 3150 2772 3378 
Q 2772 3750 2511 3984 
Q 2250 4219 1831 4219 
Q 1534 4219 1204 4116 
Q 875 4013 500 3803 
L 500 4441 
Q 881 4594 1212 4672 
Q 1544 4750 1819 4750 
Q 2544 4750 2975 4387 
Q 3406 4025 3406 3419 
Q 3406 3131 3298 2873 
Q 3191 2616 2906 2266 
Q 2828 2175 2409 1742 
Q 1991 1309 1228 531 
z
" id="DejaVuSans-32" transform="scale(0.015625)"/>
       </defs>
       <use xlink:href="#DejaVuSans-2212"/>
       <use x="83.789062" xlink:href="#DejaVuSans-32"/>
      </g>
     </g>
    </g>
    <g id="xtick_3">
     <g id="line2d_3">
      <g>
       <use style="stroke:#000000;stroke-width:0.8;" x="220.181568" xlink:href="#m276283d80b" y="307.584"/>
      </g>
     </g>
     <g id="text_3">
      <!-- 0 -->
      <g transform="translate(217.000318 322.182437)scale(0.1 -0.1)">
       <defs>
        <path d="M 2034 4250 
Q 1547 4250 1301 3770 
Q 1056 3291 1056 2328 
Q 1056 1369 1301 889 
Q 1547 409 2034 409 
Q 2525 409 2770 889 
Q 3016 1369 3016 2328 
Q 3016 3291 2770 3770 
Q 2525 4250 2034 4250 
z
M 2034 4750 
Q 2819 4750 3233 4129 
Q 3647 3509 3647 2328 
Q 3647 1150 3233 529 
Q 2819 -91 2034 -91 
Q 1250 -91 836 529 
Q 422 1150 422 2328 
Q 422 3509 836 4129 
Q 1250 4750 2034 4750 
z
" id="DejaVuSans-30" transform="scale(0.015625)"/>
       </defs>
       <use xlink:href="#DejaVuSans-30"/>
      </g>
     </g>
    </g>
    <g id="xtick_4">
     <g id="line2d_4">
      <g>
       <use style="stroke:#000000;stroke-width:0.8;" x="280.604508" xlink:href="#m276283d80b" y="307.584"/>
      </g>
     </g>
     <g id="text_4">
      <!-- 2 -->
      <g transform="translate(277.423258 322.182437)scale(0.1 -0.1)">
       <use xlink:href="#DejaVuSans-32"/>
      </g>
     </g>
    </g>
    <g id="xtick_5">
     <g id="line2d_5">
      <g>
       <use style="stroke:#000000;stroke-width:0.8;" x="341.027448" xlink:href="#m276283d80b" y="307.584"/>
      </g>
     </g>
     <g id="text_5">
      <!-- 4 -->
      <g transform="translate(337.846198 322.182437)scale(0.1 -0.1)">
       <use xlink:href="#DejaVuSans-34"/>
      </g>
     </g>
    </g>
    <g id="xtick_6">
     <g id="line2d_6">
      <g>
       <use style="stroke:#000000;stroke-width:0.8;" x="401.450388" xlink:href="#m276283d80b" y="307.584"/>
      </g>
     </g>
     <g id="text_6">
      <!-- 6 -->
      <g transform="translate(398.269138 322.182437)scale(0.1 -0.1)">
       <defs>
        <path d="M 2113 2584 
Q 1688 2584 1439 2293 
Q 1191 2003 1191 1497 
Q 1191 994 1439 701 
Q 1688 409 2113 409 
Q 2538 409 2786 701 
Q 3034 994 3034 1497 
Q 3034 2003 2786 2293 
Q 2538 2584 2113 2584 
z
M 3366 4563 
L 3366 3988 
Q 3128 4100 2886 4159 
Q 2644 4219 2406 4219 
Q 1781 4219 1451 3797 
Q 1122 3375 1075 2522 
Q 1259 2794 1537 2939 
Q 1816 3084 2150 3084 
Q 2853 3084 3261 2657 
Q 3669 2231 3669 1497 
Q 3669 778 3244 343 
Q 2819 -91 2113 -91 
Q 1303 -91 875 529 
Q 447 1150 447 2328 
Q 447 3434 972 4092 
Q 1497 4750 2381 4750 
Q 2619 4750 2861 4703 
Q 3103 4656 3366 4563 
z
" id="DejaVuSans-36" transform="scale(0.015625)"/>
       </defs>
       <use xlink:href="#DejaVuSans-36"/>
      </g>
     </g>
    </g>
    <g id="text_7">
     <!-- Threshold -->
     <g transform="translate(211.521719 335.860562)scale(0.1 -0.1)">
      <defs>
       <path d="M -19 4666 
L 3928 4666 
L 3928 4134 
L 2272 4134 
L 2272 0 
L 1638 0 
L 1638 4134 
L -19 4134 
L -19 4666 
z
" id="DejaVuSans-54" transform="scale(0.015625)"/>
       <path d="M 3513 2113 
L 3513 0 
L 2938 0 
L 2938 2094 
Q 2938 2591 2744 2837 
Q 2550 3084 2163 3084 
Q 1697 3084 1428 2787 
Q 1159 2491 1159 1978 
L 1159 0 
L 581 0 
L 581 4863 
L 1159 4863 
L 1159 2956 
Q 1366 3272 1645 3428 
Q 1925 3584 2291 3584 
Q 2894 3584 3203 3211 
Q 3513 2838 3513 2113 
z
" id="DejaVuSans-68" transform="scale(0.015625)"/>
       <path d="M 2631 2963 
Q 2534 3019 2420 3045 
Q 2306 3072 2169 3072 
Q 1681 3072 1420 2755 
Q 1159 2438 1159 1844 
L 1159 0 
L 581 0 
L 581 3500 
L 1159 3500 
L 1159 2956 
Q 1341 3275 1631 3429 
Q 1922 3584 2338 3584 
Q 2397 3584 2469 3576 
Q 2541 3569 2628 3553 
L 2631 2963 
z
" id="DejaVuSans-72" transform="scale(0.015625)"/>
       <path d="M 3597 1894 
L 3597 1613 
L 953 1613 
Q 991 1019 1311 708 
Q 1631 397 2203 397 
Q 2534 397 2845 478 
Q 3156 559 3463 722 
L 3463 178 
Q 3153 47 2828 -22 
Q 2503 -91 2169 -91 
Q 1331 -91 842 396 
Q 353 884 353 1716 
Q 353 2575 817 3079 
Q 1281 3584 2069 3584 
Q 2775 3584 3186 3129 
Q 3597 2675 3597 1894 
z
M 3022 2063 
Q 3016 2534 2758 2815 
Q 2500 3097 2075 3097 
Q 1594 3097 1305 2825 
Q 1016 2553 972 2059 
L 3022 2063 
z
" id="DejaVuSans-65" transform="scale(0.015625)"/>
       <path d="M 2834 3397 
L 2834 2853 
Q 2591 2978 2328 3040 
Q 2066 3103 1784 3103 
Q 1356 3103 1142 2972 
Q 928 2841 928 2578 
Q 928 2378 1081 2264 
Q 1234 2150 1697 2047 
L 1894 2003 
Q 2506 1872 2764 1633 
Q 3022 1394 3022 966 
Q 3022 478 2636 193 
Q 2250 -91 1575 -91 
Q 1294 -91 989 -36 
Q 684 19 347 128 
L 347 722 
Q 666 556 975 473 
Q 1284 391 1588 391 
Q 1994 391 2212 530 
Q 2431 669 2431 922 
Q 2431 1156 2273 1281 
Q 2116 1406 1581 1522 
L 1381 1569 
Q 847 1681 609 1914 
Q 372 2147 372 2553 
Q 372 3047 722 3315 
Q 1072 3584 1716 3584 
Q 2034 3584 2315 3537 
Q 2597 3491 2834 3397 
z
" id="DejaVuSans-73" transform="scale(0.015625)"/>
       <path d="M 1959 3097 
Q 1497 3097 1228 2736 
Q 959 2375 959 1747 
Q 959 1119 1226 758 
Q 1494 397 1959 397 
Q 2419 397 2687 759 
Q 2956 1122 2956 1747 
Q 2956 2369 2687 2733 
Q 2419 3097 1959 3097 
z
M 1959 3584 
Q 2709 3584 3137 3096 
Q 3566 2609 3566 1747 
Q 3566 888 3137 398 
Q 2709 -91 1959 -91 
Q 1206 -91 779 398 
Q 353 888 353 1747 
Q 353 2609 779 3096 
Q 1206 3584 1959 3584 
z
" id="DejaVuSans-6f" transform="scale(0.015625)"/>
       <path d="M 603 4863 
L 1178 4863 
L 1178 0 
L 603 0 
L 603 4863 
z
" id="DejaVuSans-6c" transform="scale(0.015625)"/>
       <path d="M 2906 2969 
L 2906 4863 
L 3481 4863 
L 3481 0 
L 2906 0 
L 2906 525 
Q 2725 213 2448 61 
Q 2172 -91 1784 -91 
Q 1150 -91 751 415 
Q 353 922 353 1747 
Q 353 2572 751 3078 
Q 1150 3584 1784 3584 
Q 2172 3584 2448 3432 
Q 2725 3281 2906 2969 
z
M 947 1747 
Q 947 1113 1208 752 
Q 1469 391 1925 391 
Q 2381 391 2643 752 
Q 2906 1113 2906 1747 
Q 2906 2381 2643 2742 
Q 2381 3103 1925 3103 
Q 1469 3103 1208 2742 
Q 947 2381 947 1747 
z
" id="DejaVuSans-64" transform="scale(0.015625)"/>
      </defs>
      <use xlink:href="#DejaVuSans-54"/>
      <use x="61.083984" xlink:href="#DejaVuSans-68"/>
      <use x="124.462891" xlink:href="#DejaVuSans-72"/>
      <use x="163.326172" xlink:href="#DejaVuSans-65"/>
      <use x="224.849609" xlink:href="#DejaVuSans-73"/>
      <use x="276.949219" xlink:href="#DejaVuSans-68"/>
      <use x="340.328125" xlink:href="#DejaVuSans-6f"/>
      <use x="401.509766" xlink:href="#DejaVuSans-6c"/>
      <use x="429.292969" xlink:href="#DejaVuSans-64"/>
     </g>
    </g>
   </g>
   <g id="matplotlib.axis_2">
    <g id="ytick_1">
     <g id="line2d_7">
      <defs>
       <path d="M 0 0 
L -3.5 0 
" id="mc0c49718cb" style="stroke:#000000;stroke-width:0.8;"/>
      </defs>
      <g>
       <use style="stroke:#000000;stroke-width:0.8;" x="57.6" xlink:href="#mc0c49718cb" y="305.805712"/>
      </g>
     </g>
     <g id="text_8">
      <!-- 0.0 -->
      <g transform="translate(34.696875 309.604931)scale(0.1 -0.1)">
       <defs>
        <path d="M 684 794 
L 1344 794 
L 1344 0 
L 684 0 
L 684 794 
z
" id="DejaVuSans-2e" transform="scale(0.015625)"/>
       </defs>
       <use xlink:href="#DejaVuSans-30"/>
       <use x="63.623047" xlink:href="#DejaVuSans-2e"/>
       <use x="95.410156" xlink:href="#DejaVuSans-30"/>
      </g>
     </g>
    </g>
    <g id="ytick_2">
     <g id="line2d_8">
      <g>
       <use style="stroke:#000000;stroke-width:0.8;" x="57.6" xlink:href="#mc0c49718cb" y="255.35817"/>
      </g>
     </g>
     <g id="text_9">
      <!-- 0.2 -->
      <g transform="translate(34.696875 259.157388)scale(0.1 -0.1)">
       <use xlink:href="#DejaVuSans-30"/>
       <use x="63.623047" xlink:href="#DejaVuSans-2e"/>
       <use x="95.410156" xlink:href="#DejaVuSans-32"/>
      </g>
     </g>
    </g>
    <g id="ytick_3">
     <g id="line2d_9">
      <g>
       <use style="stroke:#000000;stroke-width:0.8;" x="57.6" xlink:href="#mc0c49718cb" y="204.910627"/>
      </g>
     </g>
     <g id="text_10">
      <!-- 0.4 -->
      <g transform="translate(34.696875 208.709846)scale(0.1 -0.1)">
       <use xlink:href="#DejaVuSans-30"/>
       <use x="63.623047" xlink:href="#DejaVuSans-2e"/>
       <use x="95.410156" xlink:href="#DejaVuSans-34"/>
      </g>
     </g>
    </g>
    <g id="ytick_4">
     <g id="line2d_10">
      <g>
       <use style="stroke:#000000;stroke-width:0.8;" x="57.6" xlink:href="#mc0c49718cb" y="154.463085"/>
      </g>
     </g>
     <g id="text_11">
      <!-- 0.6 -->
      <g transform="translate(34.696875 158.262304)scale(0.1 -0.1)">
       <use xlink:href="#DejaVuSans-30"/>
       <use x="63.623047" xlink:href="#DejaVuSans-2e"/>
       <use x="95.410156" xlink:href="#DejaVuSans-36"/>
      </g>
     </g>
    </g>
    <g id="ytick_5">
     <g id="line2d_11">
      <g>
       <use style="stroke:#000000;stroke-width:0.8;" x="57.6" xlink:href="#mc0c49718cb" y="104.015542"/>
      </g>
     </g>
     <g id="text_12">
      <!-- 0.8 -->
      <g transform="translate(34.696875 107.814761)scale(0.1 -0.1)">
       <defs>
        <path d="M 2034 2216 
Q 1584 2216 1326 1975 
Q 1069 1734 1069 1313 
Q 1069 891 1326 650 
Q 1584 409 2034 409 
Q 2484 409 2743 651 
Q 3003 894 3003 1313 
Q 3003 1734 2745 1975 
Q 2488 2216 2034 2216 
z
M 1403 2484 
Q 997 2584 770 2862 
Q 544 3141 544 3541 
Q 544 4100 942 4425 
Q 1341 4750 2034 4750 
Q 2731 4750 3128 4425 
Q 3525 4100 3525 3541 
Q 3525 3141 3298 2862 
Q 3072 2584 2669 2484 
Q 3125 2378 3379 2068 
Q 3634 1759 3634 1313 
Q 3634 634 3220 271 
Q 2806 -91 2034 -91 
Q 1263 -91 848 271 
Q 434 634 434 1313 
Q 434 1759 690 2068 
Q 947 2378 1403 2484 
z
M 1172 3481 
Q 1172 3119 1398 2916 
Q 1625 2713 2034 2713 
Q 2441 2713 2670 2916 
Q 2900 3119 2900 3481 
Q 2900 3844 2670 4047 
Q 2441 4250 2034 4250 
Q 1625 4250 1398 4047 
Q 1172 3844 1172 3481 
z
" id="DejaVuSans-38" transform="scale(0.015625)"/>
       </defs>
       <use xlink:href="#DejaVuSans-30"/>
       <use x="63.623047" xlink:href="#DejaVuSans-2e"/>
       <use x="95.410156" xlink:href="#DejaVuSans-38"/>
      </g>
     </g>
    </g>
    <g id="ytick_6">
     <g id="line2d_12">
      <g>
       <use style="stroke:#000000;stroke-width:0.8;" x="57.6" xlink:href="#mc0c49718cb" y="53.568"/>
      </g>
     </g>
     <g id="text_13">
      <!-- 1.0 -->
      <g transform="translate(34.696875 57.367219)scale(0.1 -0.1)">
       <defs>
        <path d="M 794 531 
L 1825 531 
L 1825 4091 
L 703 3866 
L 703 4441 
L 1819 4666 
L 2450 4666 
L 2450 531 
L 3481 531 
L 3481 0 
L 794 0 
L 794 531 
z
" id="DejaVuSans-31" transform="scale(0.015625)"/>
       </defs>
       <use xlink:href="#DejaVuSans-31"/>
       <use x="63.623047" xlink:href="#DejaVuSans-2e"/>
       <use x="95.410156" xlink:href="#DejaVuSans-30"/>
      </g>
     </g>
    </g>
    <g id="text_14">
     <!-- Metrics -->
     <g transform="translate(28.617187 192.677219)rotate(-90)scale(0.1 -0.1)">
      <defs>
       <path d="M 628 4666 
L 1569 4666 
L 2759 1491 
L 3956 4666 
L 4897 4666 
L 4897 0 
L 4281 0 
L 4281 4097 
L 3078 897 
L 2444 897 
L 1241 4097 
L 1241 0 
L 628 0 
L 628 4666 
z
" id="DejaVuSans-4d" transform="scale(0.015625)"/>
       <path d="M 1172 4494 
L 1172 3500 
L 2356 3500 
L 2356 3053 
L 1172 3053 
L 1172 1153 
Q 1172 725 1289 603 
Q 1406 481 1766 481 
L 2356 481 
L 2356 0 
L 1766 0 
Q 1100 0 847 248 
Q 594 497 594 1153 
L 594 3053 
L 172 3053 
L 172 3500 
L 594 3500 
L 594 4494 
L 1172 4494 
z
" id="DejaVuSans-74" transform="scale(0.015625)"/>
       <path d="M 603 3500 
L 1178 3500 
L 1178 0 
L 603 0 
L 603 3500 
z
M 603 4863 
L 1178 4863 
L 1178 4134 
L 603 4134 
L 603 4863 
z
" id="DejaVuSans-69" transform="scale(0.015625)"/>
       <path d="M 3122 3366 
L 3122 2828 
Q 2878 2963 2633 3030 
Q 2388 3097 2138 3097 
Q 1578 3097 1268 2742 
Q 959 2388 959 1747 
Q 959 1106 1268 751 
Q 1578 397 2138 397 
Q 2388 397 2633 464 
Q 2878 531 3122 666 
L 3122 134 
Q 2881 22 2623 -34 
Q 2366 -91 2075 -91 
Q 1284 -91 818 406 
Q 353 903 353 1747 
Q 353 2603 823 3093 
Q 1294 3584 2113 3584 
Q 2378 3584 2631 3529 
Q 2884 3475 3122 3366 
z
" id="DejaVuSans-63" transform="scale(0.015625)"/>
      </defs>
      <use xlink:href="#DejaVuSans-4d"/>
      <use x="86.279297" xlink:href="#DejaVuSans-65"/>
      <use x="147.802734" xlink:href="#DejaVuSans-74"/>
      <use x="187.011719" xlink:href="#DejaVuSans-72"/>
      <use x="228.125" xlink:href="#DejaVuSans-69"/>
      <use x="255.908203" xlink:href="#DejaVuSans-63"/>
      <use x="310.888672" xlink:href="#DejaVuSans-73"/>
     </g>
    </g>
   </g>
   <g id="line2d_13">
    <path clip-path="url(#p7b2bfcd29e)" d="M 73.832727 53.568 
L 73.949096 53.689385 
L 85.601829 53.689385 
L 85.706048 53.81077 
L 86.205687 53.81077 
L 86.298859 53.932155 
L 102.834635 53.932155 
L 102.971058 54.053539 
L 104.314234 54.053539 
L 104.419168 54.174924 
L 125.193055 54.174924 
L 125.294537 54.296309 
L 134.478762 54.296309 
L 134.56052 54.417694 
L 139.657695 54.417694 
L 139.769659 54.539079 
L 144.752574 54.539079 
L 144.874172 54.660464 
L 158.023235 54.660464 
L 158.122609 54.781848 
L 159.417567 54.781848 
L 159.49417 54.903233 
L 167.009421 54.903233 
L 167.185057 55.024618 
L 184.961514 55.024618 
L 185.220753 55.146003 
L 188.202937 55.146003 
L 188.542481 55.388773 
L 191.885989 55.388773 
L 192.136751 55.510158 
L 197.056067 55.510158 
L 197.096445 55.631542 
L 198.667062 55.631542 
L 198.840265 55.752927 
L 199.65405 55.752927 
L 200.316507 55.874312 
L 200.366428 55.874312 
L 200.45606 55.995697 
L 205.575502 55.995697 
L 205.645357 56.117082 
L 207.182499 56.117082 
L 207.46044 56.481236 
L 208.149839 56.481236 
L 208.595561 56.724006 
L 209.101629 56.724006 
L 209.142796 56.845391 
L 212.707664 56.845391 
L 212.881657 56.966776 
L 216.74955 56.966776 
L 216.894138 57.088161 
L 217.447803 57.088161 
L 217.667079 57.209545 
L 219.187325 57.209545 
L 219.477484 57.33093 
L 220.181568 57.33093 
L 221.895923 57.695085 
L 221.992694 57.81647 
L 222.174651 57.81647 
L 222.388403 57.937854 
L 223.07885 57.937854 
L 223.159805 58.059239 
L 224.067913 58.180624 
L 224.70122 58.180624 
L 224.803371 58.302009 
L 227.923545 58.302009 
L 228.196026 58.544779 
L 228.394321 58.544779 
L 228.497469 58.666164 
L 228.958124 58.666164 
L 229.063503 58.787548 
L 229.1508 58.787548 
L 229.751852 59.030318 
L 231.538655 59.030318 
L 231.848946 59.151703 
L 236.367524 59.151703 
L 236.421548 59.394473 
L 237.245237 59.394473 
L 238.273219 59.758627 
L 238.316127 59.758627 
L 238.399181 59.880012 
L 239.153535 59.880012 
L 239.514079 60.122782 
L 240.771122 60.122782 
L 241.870283 60.486936 
L 243.274745 60.486936 
L 243.398104 60.729706 
L 244.040995 60.729706 
L 244.551797 61.215245 
L 244.895101 61.215245 
L 244.905896 61.33663 
L 245.227069 61.33663 
L 245.296799 61.458015 
L 245.495535 61.458015 
L 245.568754 61.5794 
L 246.448475 61.5794 
L 246.543965 61.700785 
L 247.766933 61.700785 
L 248.059364 61.82217 
L 248.387218 61.82217 
L 248.513213 61.943554 
L 248.596342 62.064939 
L 249.65524 62.064939 
L 249.874127 62.307709 
L 249.973662 62.307709 
L 250.943141 62.793248 
L 251.301014 62.793248 
L 251.301277 62.914633 
L 251.77646 62.914633 
L 251.92634 63.036018 
L 252.515627 63.036018 
L 252.666155 63.157403 
L 253.104424 63.157403 
L 253.279244 63.400173 
L 253.504135 63.400173 
L 253.508952 63.521557 
L 254.024156 63.521557 
L 254.262551 63.642942 
L 255.038028 63.642942 
L 255.316712 64.128482 
L 256.775679 64.128482 
L 256.82038 64.249867 
L 258.318425 64.249867 
L 258.591597 64.371251 
L 259.362501 64.371251 
L 259.719592 64.735406 
L 260.72571 64.735406 
L 260.731598 64.856791 
L 261.06664 64.856791 
L 261.298633 65.220945 
L 261.646438 65.706485 
L 262.124212 65.706485 
L 262.53639 65.82787 
L 262.586676 65.82787 
L 262.735923 65.949254 
L 262.817642 65.949254 
L 262.914 66.070639 
L 263.424446 66.192024 
L 263.863483 66.192024 
L 263.980581 66.434794 
L 264.815255 66.434794 
L 264.923843 66.556179 
L 265.335424 66.556179 
L 265.523909 66.677563 
L 265.849818 66.677563 
L 266.15731 67.041718 
L 266.275762 67.163103 
L 266.744555 67.163103 
L 266.916363 67.405873 
L 268.329094 67.405873 
L 268.609869 67.648642 
L 269.346311 67.891412 
L 269.952388 67.891412 
L 270.168454 68.134182 
L 270.717406 68.134182 
L 270.81042 68.255566 
L 270.829551 68.255566 
L 270.938645 68.619721 
L 271.216188 68.862491 
L 271.408116 68.862491 
L 271.4806 68.983876 
L 271.900254 68.983876 
L 272.097603 69.34803 
L 272.653798 69.34803 
L 273.055117 69.469415 
L 273.670881 69.469415 
L 273.75173 70.076339 
L 273.976242 70.076339 
L 274.20278 70.440494 
L 274.742117 70.440494 
L 274.743915 70.561879 
L 274.960116 70.683263 
L 275.149884 70.683263 
L 275.160178 70.804648 
L 275.487435 70.804648 
L 275.62385 71.290188 
L 275.744818 71.411573 
L 276.232039 71.411573 
L 276.746022 71.654342 
L 277.411762 71.654342 
L 277.747178 71.775727 
L 278.121675 71.775727 
L 278.316754 72.018497 
L 278.612817 72.018497 
L 278.649191 72.139882 
L 279.017796 72.382651 
L 279.164535 72.746806 
L 279.280437 72.868191 
L 279.550341 72.868191 
L 279.711789 72.989576 
L 280.737133 72.989576 
L 280.899016 73.11096 
L 280.986377 73.11096 
L 281.126376 73.475115 
L 281.287386 73.475115 
L 281.518898 73.839269 
L 281.855458 74.324809 
L 282.269505 74.324809 
L 282.359668 74.446194 
L 282.40418 74.446194 
L 282.606196 74.688963 
L 283.089798 74.688963 
L 283.239282 74.810348 
L 283.78578 75.902812 
L 283.957848 75.902812 
L 284.024929 76.024197 
L 284.431181 76.024197 
L 284.442305 76.266966 
L 284.742859 76.509736 
L 285.166649 76.509736 
L 285.182797 76.631121 
L 285.767816 76.873891 
L 286.060334 76.873891 
L 286.079014 77.11666 
L 286.899455 77.844969 
L 287.424593 78.087739 
L 287.729274 78.087739 
L 287.962402 78.330509 
L 288.022226 78.451894 
L 289.042252 78.451894 
L 289.206744 78.694663 
L 290.166424 78.694663 
L 290.279617 78.937433 
L 290.825293 79.301588 
L 290.978735 79.301588 
L 291.192002 79.422972 
L 291.25683 79.422972 
L 291.311341 79.544357 
L 291.900556 79.544357 
L 292.077994 79.787127 
L 292.676032 80.151281 
L 292.916323 80.151281 
L 293.046035 80.515436 
L 293.481518 80.515436 
L 293.588856 80.636821 
L 293.818686 80.636821 
L 293.84512 80.879591 
L 294.19273 81.12236 
L 294.257306 81.36513 
L 294.32803 81.486515 
L 294.713326 81.6079 
L 294.869871 81.6079 
L 295.045663 81.850669 
L 295.128514 81.850669 
L 295.238505 81.972054 
L 295.448898 81.972054 
L 295.621521 82.336209 
L 295.803533 82.336209 
L 295.937369 82.578978 
L 296.188848 82.578978 
L 296.225407 82.700363 
L 296.605206 82.700363 
L 296.61659 82.821748 
L 297.340897 83.185903 
L 297.442459 83.550057 
L 297.528845 83.671442 
L 297.556694 84.156981 
L 297.653549 84.156981 
L 297.763336 84.399751 
L 297.834997 84.399751 
L 297.939083 84.642521 
L 298.035792 84.642521 
L 298.188636 85.006675 
L 298.397138 85.6136 
L 299.092075 85.6136 
L 299.194629 85.856369 
L 299.412464 85.856369 
L 299.655584 86.584678 
L 299.99111 87.070218 
L 300.389057 87.070218 
L 300.547225 87.312987 
L 300.960791 87.312987 
L 301.207678 88.041297 
L 301.750542 88.526836 
L 302.07359 88.526836 
L 302.3426 88.648221 
L 302.525582 88.648221 
L 302.85183 89.255145 
L 302.884923 89.255145 
L 303.029027 89.740684 
L 303.488306 90.347609 
L 303.791133 90.347609 
L 304.11409 90.833148 
L 304.343718 91.075918 
L 304.608646 91.318687 
L 304.753095 91.318687 
L 305.017457 91.561457 
L 305.023786 91.925612 
L 305.310074 92.289766 
L 305.604762 92.89669 
L 305.792003 93.13946 
L 305.836255 102.850248 
L 305.93048 115.717042 
L 306.047483 115.959811 
L 306.068814 116.202581 
L 306.338409 116.445351 
L 306.49089 116.68812 
L 306.875149 116.93089 
L 307.173047 117.295045 
L 307.424865 117.901969 
L 307.515139 117.901969 
L 307.547602 118.023354 
L 307.785057 118.023354 
L 308.067931 118.508893 
L 308.198072 118.994433 
L 308.361072 119.479972 
L 308.570966 119.479972 
L 308.66357 120.086896 
L 308.77423 120.086896 
L 308.880084 120.69382 
L 309.372379 121.907669 
L 309.51107 121.907669 
L 309.55637 122.271823 
L 310.188007 123.121517 
L 310.432036 123.607057 
L 310.521256 123.607057 
L 310.654917 123.849826 
L 310.804221 124.092596 
L 310.904643 125.063675 
L 311.008884 125.063675 
L 311.31741 125.791984 
L 311.480253 126.034754 
L 311.743962 126.641678 
L 311.793025 126.641678 
L 311.936609 127.005832 
L 312.4618 127.976911 
L 312.532712 127.976911 
L 312.636621 128.219681 
L 313.059644 128.70522 
L 313.144678 128.94799 
L 313.258886 128.94799 
L 313.382239 129.433529 
L 313.531086 130.040454 
L 313.58426 130.161838 
L 313.882809 130.161838 
L 314.213873 131.132917 
L 314.354825 131.132917 
L 314.53399 131.618457 
L 314.654924 131.861226 
L 314.815538 131.861226 
L 315.145127 132.589535 
L 315.168188 132.71092 
L 315.33468 132.71092 
L 315.678448 133.681999 
L 315.705495 133.681999 
L 316.015069 134.895847 
L 316.063113 134.895847 
L 316.714593 137.566314 
L 316.885593 137.566314 
L 317.029423 138.173238 
L 317.186858 138.537393 
L 317.190747 138.658778 
L 317.457783 139.022932 
L 317.573484 139.265702 
L 317.769737 139.265702 
L 317.899763 139.508472 
L 318.256395 140.236781 
L 318.369314 140.600935 
L 318.717839 140.96509 
L 318.835267 141.450629 
L 319.43783 142.300323 
L 319.504309 142.543093 
L 319.636951 142.543093 
L 320.082419 143.150017 
L 320.451926 143.635556 
L 320.696797 143.635556 
L 320.855853 144.121096 
L 321.104705 144.363866 
L 321.820224 145.577714 
L 321.909369 145.577714 
L 321.9117 145.699099 
L 322.155282 145.941869 
L 322.297752 146.184638 
L 322.408213 146.427408 
L 322.535893 147.277102 
L 322.680583 147.762641 
L 322.835971 148.369565 
L 323.01306 148.97649 
L 323.112706 148.97649 
L 323.48679 149.947568 
L 323.776124 150.433108 
L 323.906758 150.554493 
L 324.138642 150.554493 
L 324.243707 150.797262 
L 324.32235 150.797262 
L 324.369048 151.040032 
L 324.517336 151.282802 
L 324.706439 152.011111 
L 324.739349 152.253881 
L 325.238863 152.73942 
L 325.461044 153.103575 
L 325.591701 153.589114 
L 326.206753 154.802962 
L 326.315823 155.167117 
L 326.430602 155.167117 
L 326.559985 155.531271 
L 326.65624 155.531271 
L 326.839164 156.016811 
L 327.018922 156.016811 
L 327.175245 156.623735 
L 328.640174 159.172817 
L 328.773051 159.901126 
L 328.907983 160.26528 
L 329.574602 161.721899 
L 329.623112 161.721899 
L 329.730989 162.086053 
L 330.39311 164.27098 
L 330.718745 165.848983 
L 331.063536 166.091753 
L 331.160699 166.334523 
L 331.31203 166.455908 
L 331.349998 166.455908 
L 331.490507 166.698677 
L 331.566954 166.820062 
L 331.717716 167.184217 
L 331.837612 167.548371 
L 332.131445 168.76222 
L 332.450204 169.247759 
L 332.522856 169.369144 
L 332.719617 169.611914 
L 332.732859 169.976068 
L 333.126488 170.340223 
L 333.239125 170.582992 
L 333.257059 170.582992 
L 333.517683 172.039611 
L 333.76741 172.52515 
L 333.775995 172.76792 
L 334.41308 173.496229 
L 334.883569 174.710077 
L 335.066526 174.710077 
L 335.322238 175.195617 
L 335.355997 175.195617 
L 335.575596 175.802541 
L 335.629191 175.802541 
L 335.807566 176.28808 
L 336.140114 176.77362 
L 336.662743 178.594392 
L 337.100626 179.808241 
L 337.218659 179.808241 
L 337.458896 180.415165 
L 337.507982 180.900704 
L 337.597953 180.900704 
L 337.716082 181.386244 
L 337.861162 182.114553 
L 338.176822 182.357323 
L 338.692094 183.571171 
L 339.063446 183.813941 
L 339.106876 183.935326 
L 339.224273 183.935326 
L 339.324286 184.178095 
L 339.360578 184.420865 
L 339.586483 184.663635 
L 339.740971 186.241638 
L 339.966768 186.484407 
L 340.135335 186.484407 
L 340.245025 186.727177 
L 340.641898 187.091332 
L 340.739425 187.455486 
L 340.787518 187.455486 
L 341.580009 189.154874 
L 341.868221 189.883183 
L 342.044458 189.883183 
L 342.180057 190.247338 
L 342.466702 191.097032 
L 342.614422 191.097032 
L 343.008314 192.675035 
L 343.515708 193.767498 
L 343.749449 194.010268 
L 344.619674 196.923504 
L 344.741486 197.530428 
L 345.192541 198.501507 
L 345.214928 198.501507 
L 345.537332 199.108432 
L 345.546079 199.229816 
L 345.684183 199.229816 
L 346.363572 201.293359 
L 346.387972 201.293359 
L 346.43295 201.657513 
L 346.587381 201.657513 
L 346.671993 202.021668 
L 346.81834 202.143053 
L 346.923582 202.749977 
L 346.950087 202.871362 
L 347.122466 202.871362 
L 347.209435 202.992747 
L 347.577151 203.599671 
L 347.677026 203.599671 
L 348.548884 205.784598 
L 348.707239 205.905983 
L 348.97234 206.391522 
L 349.249557 206.877062 
L 349.416911 207.119831 
L 349.444087 207.119831 
L 349.540416 207.969525 
L 350.128341 209.304759 
L 350.194633 209.304759 
L 350.34741 209.790298 
L 350.488237 209.790298 
L 350.673545 210.761377 
L 350.876362 211.125531 
L 351.348157 212.09661 
L 351.354666 212.33938 
L 351.542119 212.824919 
L 351.557697 212.946304 
L 351.675105 212.946304 
L 351.780072 213.310459 
L 352.027262 213.674613 
L 352.098943 214.160153 
L 352.113871 214.281537 
L 352.211219 216.830619 
L 352.481921 217.073389 
L 352.578513 217.073389 
L 352.749387 217.437543 
L 353.090862 218.044468 
L 353.542282 219.86524 
L 353.742489 220.10801 
L 354.037874 221.079089 
L 354.613104 221.686013 
L 354.7479 222.414322 
L 354.871603 223.021246 
L 354.99062 223.992325 
L 355.104304 224.235095 
L 355.162769 224.599249 
L 355.227244 224.599249 
L 355.353501 224.963404 
L 355.579295 224.963404 
L 355.73836 225.570328 
L 355.944915 225.813098 
L 356.223191 227.148331 
L 356.352888 227.755255 
L 356.442817 227.755255 
L 357.36645 229.697413 
L 357.495724 229.818798 
L 357.723753 229.818798 
L 357.930984 230.304337 
L 358.102671 231.154031 
L 358.630586 232.853419 
L 358.969507 233.217574 
L 359.441849 234.188652 
L 359.575805 234.795577 
L 359.760184 235.038346 
L 359.924642 235.64527 
L 360.471389 236.009425 
L 360.547968 236.37358 
L 360.62988 236.737734 
L 361.031529 237.101889 
L 361.04656 237.223273 
L 361.167021 237.223273 
L 361.265489 238.194352 
L 361.660045 238.801276 
L 362.273199 239.286816 
L 362.496096 239.89374 
L 362.606709 240.257895 
L 362.73538 240.743434 
L 362.909461 241.714513 
L 362.945176 241.835898 
L 363.236022 242.078667 
L 363.385492 242.442822 
L 363.78082 244.384979 
L 363.905065 244.384979 
L 364.014948 244.506364 
L 364.148401 245.356058 
L 364.288128 245.477443 
L 364.481371 245.720213 
L 364.577093 245.841598 
L 364.719795 246.448522 
L 364.934548 246.569907 
L 365.002462 246.934061 
L 365.680389 247.298216 
L 366.306863 248.997604 
L 366.374956 249.483143 
L 366.665848 249.847298 
L 366.687758 250.211452 
L 366.937581 250.454222 
L 367.685378 250.696991 
L 368.015429 251.061146 
L 368.052611 251.182531 
L 368.333845 251.425301 
L 368.561305 252.639149 
L 368.898159 253.003304 
L 368.996765 253.610228 
L 369.268492 253.974382 
L 369.384643 254.217152 
L 369.840006 254.945461 
L 370.407881 255.91654 
L 370.694145 258.829776 
L 370.757756 259.072546 
L 371.29941 259.558085 
L 371.618024 260.529164 
L 371.619121 260.650549 
L 371.87791 260.893319 
L 372.160246 261.500243 
L 372.678979 261.621628 
L 372.727244 261.985782 
L 372.988892 262.107167 
L 373.150374 263.078246 
L 373.263034 263.4424 
L 373.623408 263.563785 
L 373.686895 263.92794 
L 373.836444 264.049325 
L 374.235675 264.777634 
L 374.448252 265.020403 
L 374.948148 265.748712 
L 374.965494 265.748712 
L 375.054055 265.870097 
L 375.422361 266.234252 
L 375.651216 266.598406 
L 376.343362 268.176409 
L 376.42761 268.419179 
L 376.507262 268.419179 
L 376.650278 268.540564 
L 377.705271 270.725491 
L 378.184707 270.968261 
L 378.323027 271.575185 
L 378.792203 271.69657 
L 379.372393 272.910418 
L 379.802629 273.395958 
L 379.837321 273.638728 
L 380.153315 274.002882 
L 380.577465 274.245652 
L 380.660459 274.488421 
L 380.680326 274.852576 
L 381.455778 275.338115 
L 381.815948 275.338115 
L 381.917232 275.70227 
L 382.143682 276.430579 
L 382.656702 276.794734 
L 383.573423 277.037503 
L 383.783118 277.401658 
L 383.790922 277.523043 
L 384.515315 277.765812 
L 384.586324 277.887197 
L 384.802277 278.008582 
L 384.920354 278.494121 
L 385.089327 278.494121 
L 385.17914 278.858276 
L 385.425171 279.101046 
L 385.697611 279.586585 
L 386.164312 279.95074 
L 386.511107 280.314894 
L 386.784876 280.314894 
L 387.222068 280.557664 
L 387.519226 283.71367 
L 388.014875 284.441979 
L 388.31305 284.684749 
L 388.719086 285.291673 
L 389.529926 286.141367 
L 389.566843 286.505521 
L 390.015922 286.869676 
L 390.027117 287.23383 
L 390.522919 287.4766 
L 390.963769 287.840755 
L 391.529642 288.447679 
L 391.715366 288.447679 
L 391.81592 288.690449 
L 392.278587 288.933218 
L 392.582604 290.025682 
L 392.893794 290.025682 
L 393.285596 290.389836 
L 393.47566 290.753991 
L 393.672246 291.846455 
L 394.216535 292.210609 
L 394.255117 292.574764 
L 394.517723 292.574764 
L 394.655129 293.303073 
L 394.660663 293.424458 
L 395.141268 293.667227 
L 395.917868 293.667227 
L 396.634265 294.638306 
L 397.779494 294.881076 
L 397.90208 295.002461 
L 397.986079 295.24523 
L 398.487273 295.488 
L 398.487273 295.488 
" style="fill:none;stroke:#1f77b4;stroke-dasharray:5.55,2.4;stroke-dashoffset:0;stroke-width:1.5;"/>
   </g>
   <g id="line2d_14">
    <path clip-path="url(#p7b2bfcd29e)" d="M 73.832727 257.434545 
L 73.933478 257.404222 
L 73.934444 257.39975 
L 74.252559 257.188625 
L 74.369881 257.12538 
L 75.664497 256.306683 
L 75.777312 256.217664 
L 76.194545 256.010281 
L 76.311703 255.920192 
L 76.633796 255.724675 
L 76.748564 255.643157 
L 76.936762 255.503482 
L 77.222152 255.343592 
L 78.3102 254.598818 
L 78.550768 254.503545 
L 78.870898 254.306869 
L 79.574426 253.816258 
L 80.166358 253.421178 
L 80.444649 253.237206 
L 80.743519 253.05725 
L 80.828455 253.020047 
L 81.020548 252.88675 
L 81.319777 252.623525 
L 84.103216 250.74552 
L 84.356416 250.571371 
L 85.133424 250.024438 
L 85.243231 249.970933 
L 85.576535 249.779862 
L 85.706048 249.656721 
L 86.008247 249.481576 
L 86.720237 249.075466 
L 86.876084 248.946043 
L 87.154546 248.772558 
L 87.944819 248.093367 
L 88.174153 247.921035 
L 88.307979 247.805573 
L 88.654149 247.605639 
L 89.184274 247.293331 
L 89.325935 247.149066 
L 89.506012 246.984263 
L 89.600886 246.851752 
L 89.891133 246.658548 
L 90.452057 246.261542 
L 90.756763 246.009842 
L 91.340819 245.541665 
L 91.611718 245.290826 
L 91.85514 245.143536 
L 91.990554 244.988462 
L 92.137495 244.853895 
L 92.306844 244.697335 
L 92.664467 244.439403 
L 92.971527 244.25176 
L 93.178078 244.092087 
L 93.975525 243.407852 
L 94.074539 243.273663 
L 94.296647 242.980931 
L 94.439392 242.829746 
L 94.549167 242.685445 
L 94.793992 242.471582 
L 94.941595 242.325633 
L 95.224373 242.171274 
L 95.370058 242.023936 
L 95.576558 241.844664 
L 95.752634 241.727204 
L 96.146312 241.316647 
L 96.416231 241.133371 
L 96.665521 240.941013 
L 96.778573 240.844405 
L 96.966631 240.658431 
L 97.2321 240.365195 
L 97.598599 240.069308 
L 97.746889 239.936941 
L 98.820293 238.901295 
L 98.92413 238.738406 
L 99.120871 238.557446 
L 99.302901 238.375507 
L 99.796908 238.026218 
L 100.231436 237.611151 
L 100.412979 237.432981 
L 101.586462 236.371744 
L 101.742784 236.224051 
L 101.988115 235.945427 
L 102.320973 235.664563 
L 102.438814 235.504402 
L 102.581246 235.324531 
L 102.800585 235.105556 
L 102.944685 234.957796 
L 103.264346 234.601001 
L 103.483865 234.348122 
L 104.662076 232.949536 
L 104.789285 232.674415 
L 105.041985 232.479562 
L 105.164925 232.345642 
L 105.407591 232.128274 
L 107.708021 229.090809 
L 107.846511 228.978093 
L 108.070671 228.683474 
L 108.215217 228.512471 
L 108.530121 228.214263 
L 109.013103 227.727651 
L 109.296297 227.423344 
L 109.499428 227.163995 
L 109.753232 226.938626 
L 109.914782 226.75979 
L 110.033123 226.616135 
L 110.23851 226.242599 
L 110.543573 225.779881 
L 110.761685 225.583439 
L 110.865076 225.423118 
L 111.055041 225.15034 
L 111.240333 225.025737 
L 111.359305 224.863177 
L 111.535608 224.662202 
L 112.38693 223.52581 
L 112.529773 223.253016 
L 112.686922 223.043956 
L 112.797427 222.886464 
L 112.925925 222.675541 
L 113.071974 222.529907 
L 113.278106 222.277153 
L 113.612888 221.955684 
L 114.296696 221.045009 
L 114.410974 220.907388 
L 114.806283 220.547473 
L 115.368322 219.733485 
L 115.524013 219.56313 
L 115.75302 219.292016 
L 115.896663 219.105533 
L 116.086719 218.947111 
L 116.23589 218.672105 
L 116.358124 218.482937 
L 116.543691 218.219652 
L 116.716079 217.910473 
L 116.824488 217.777298 
L 116.949555 217.569334 
L 117.100996 217.405243 
L 117.290492 216.999874 
L 117.473415 216.818514 
L 117.739389 216.453563 
L 117.824703 216.346554 
L 117.991675 216.239289 
L 118.101862 216.054806 
L 118.191788 215.885028 
L 118.321492 215.730126 
L 119.357965 214.103015 
L 119.60933 213.893464 
L 119.740811 213.634237 
L 119.929349 213.324499 
L 120.029222 213.144224 
L 120.310899 212.86423 
L 120.424099 212.682154 
L 120.604326 212.532652 
L 121.457095 211.506564 
L 121.54691 211.284964 
L 121.801647 211.010792 
L 121.915861 210.873109 
L 122.09061 210.717737 
L 122.289337 210.370637 
L 122.377909 210.161158 
L 122.500116 209.898013 
L 122.69917 209.721776 
L 122.878306 209.562609 
L 123.117748 209.385137 
L 124.177869 207.813063 
L 124.345303 207.592193 
L 124.954129 206.904865 
L 125.348903 206.464039 
L 125.573714 206.293804 
L 125.689467 206.160995 
L 126.705474 204.871657 
L 126.886451 204.676351 
L 127.019416 204.42132 
L 127.291905 204.14523 
L 127.742736 203.528503 
L 127.933765 203.348049 
L 128.415059 202.619821 
L 129.449995 201.507859 
L 129.572439 201.278404 
L 129.827382 201.005925 
L 130.054286 200.541555 
L 130.223352 200.307824 
L 130.355692 200.115815 
L 131.767594 198.289452 
L 131.832662 198.178748 
L 131.947898 198.045601 
L 132.056421 197.822956 
L 132.282024 197.487258 
L 132.371426 197.307365 
L 132.692315 197.01376 
L 132.760137 196.877713 
L 132.832671 196.741326 
L 132.96855 196.558944 
L 133.14408 196.375951 
L 133.252937 196.192344 
L 133.338808 196.031182 
L 133.457736 195.846415 
L 133.660987 195.591343 
L 133.769671 195.264989 
L 133.983991 195.030693 
L 134.091134 194.889638 
L 134.392888 194.653747 
L 134.632656 194.494333 
L 134.803305 194.30426 
L 134.960853 194.089651 
L 135.504898 193.465002 
L 135.645234 193.344075 
L 135.744294 193.19862 
L 135.849013 193.004092 
L 135.978657 192.784444 
L 136.330045 192.293261 
L 136.704172 191.772902 
L 136.821049 191.673245 
L 136.961847 191.423338 
L 137.055837 191.272868 
L 137.346439 191.122001 
L 139.162405 189.123938 
L 140.161659 188.155405 
L 140.509882 188.022706 
L 142.199444 186.406658 
L 142.549487 185.968194 
L 142.712444 185.802939 
L 142.819057 185.720141 
L 143.08141 185.526499 
L 143.202924 185.360023 
L 143.389736 185.165217 
L 143.630217 184.96978 
L 143.824627 184.745646 
L 144.600182 183.783729 
L 144.703007 183.669557 
L 144.951686 183.413633 
L 145.070969 183.241169 
L 145.368244 183.010459 
L 145.461887 182.923719 
L 145.616048 182.778879 
L 145.844331 182.517305 
L 146.195804 182.28386 
L 146.581596 181.69636 
L 146.938421 181.370846 
L 147.023462 181.192573 
L 147.364582 180.924203 
L 147.512721 180.744647 
L 147.625593 180.53451 
L 148.083461 180.112112 
L 148.124224 179.960565 
L 148.626184 179.686856 
L 148.75263 179.442558 
L 149.100734 179.135851 
L 149.437761 178.7349 
L 149.689615 178.580011 
L 150.344274 178.050553 
L 150.475158 177.925333 
L 151.182751 177.232215 
L 151.555545 177.010098 
L 151.852187 176.787214 
L 152.31577 176.499511 
L 154.356038 174.975974 
L 155.006075 174.81178 
L 155.300686 174.482152 
L 155.421921 174.349836 
L 156.354654 173.817896 
L 157.045619 173.684237 
L 157.2544 173.449682 
L 157.492792 173.315276 
L 158.2308 172.83921 
L 158.571125 172.669523 
L 159.18973 172.533462 
L 159.314765 172.431233 
L 160.401856 171.98247 
L 160.555289 171.810505 
L 160.697758 171.741595 
L 161.223419 171.499851 
L 161.311755 171.36132 
L 161.633101 171.222503 
L 163.396936 169.960128 
L 163.87803 169.818401 
L 164.036213 169.676378 
L 164.697755 169.427122 
L 164.708595 169.391439 
L 165.560917 169.141138 
L 166.402045 168.637769 
L 166.96832 168.457095 
L 167.009421 168.384692 
L 167.076562 168.414962 
L 167.185057 168.30621 
L 168.180316 167.942455 
L 168.269994 167.869472 
L 168.799338 167.650062 
L 169.457007 167.466685 
L 169.573687 167.356426 
L 171.391391 166.728287 
L 171.413995 166.69116 
L 171.781975 166.542454 
L 171.979433 166.356123 
L 172.148314 166.2067 
L 172.241902 166.094422 
L 173.054064 165.492542 
L 175.251016 164.65644 
L 175.481197 164.388314 
L 175.51797 164.311519 
L 176.115435 164.119167 
L 176.875004 163.694146 
L 177.475664 163.46124 
L 177.859382 163.383435 
L 178.423358 163.188549 
L 179.247266 162.836408 
L 179.303747 162.640022 
L 180.540441 162.285163 
L 180.784982 162.087258 
L 181.015331 161.888807 
L 181.426436 161.729651 
L 182.510823 161.290151 
L 182.850573 160.968827 
L 183.480048 160.686494 
L 183.653404 160.484152 
L 186.566715 159.657879 
L 186.659816 159.57582 
L 187.202814 159.370268 
L 187.289523 159.164137 
L 188.202937 158.957425 
L 188.542481 158.934021 
L 191.109567 158.142148 
L 192.237743 157.877907 
L 192.509399 157.793714 
L 193.179126 157.58281 
L 193.922121 157.413654 
L 194.69714 157.031638 
L 194.701949 156.98907 
L 195.294011 156.818556 
L 195.644776 156.519213 
L 196.956745 156.089488 
L 197.540239 155.903196 
L 197.890706 155.773411 
L 197.984983 155.6434 
L 198.545445 155.382701 
L 198.667062 155.295601 
L 198.832521 155.237851 
L 198.972286 155.019384 
L 199.279224 154.844153 
L 199.396643 154.756384 
L 200.316507 154.433678 
L 200.45606 154.286386 
L 201.128032 154.064931 
L 201.394887 153.842828 
L 201.399409 153.798329 
L 201.664746 153.620074 
L 202.111618 153.396666 
L 202.123349 153.351905 
L 203.653504 152.722488 
L 203.764076 152.586937 
L 204.309097 152.360483 
L 204.335667 152.315111 
L 204.609684 152.133358 
L 204.621126 152.087853 
L 205.619809 151.706225 
L 205.770946 151.614635 
L 206.053474 151.385184 
L 206.355276 151.155049 
L 207.098541 150.924227 
L 207.182499 150.87798 
L 207.46044 150.965228 
L 209.368814 150.588326 
L 209.583804 150.355127 
L 209.760215 150.168062 
L 209.771665 150.121226 
L 210.222936 149.933598 
L 210.224047 149.88662 
L 210.548377 149.698426 
L 210.973847 149.509776 
L 211.668794 149.225946 
L 212.446469 148.893505 
L 212.881657 148.540715 
L 213.249472 148.349162 
L 213.814619 148.157142 
L 214.709192 147.723379 
L 215.26478 147.529829 
L 215.591643 147.384355 
L 216.080627 147.238613 
L 216.149194 147.092603 
L 216.496423 146.946323 
L 216.585985 146.848654 
L 217.20283 146.58357 
L 217.447803 146.288715 
L 217.667079 146.268086 
L 218.71625 145.971914 
L 218.720023 145.922445 
L 218.957593 145.724264 
L 219.046698 145.575304 
L 219.122358 145.52559 
L 219.187325 145.226653 
L 219.41669 145.205215 
L 219.477484 145.105246 
L 220.181568 145.055215 
L 220.895866 144.329379 
L 221.204964 144.30724 
L 221.336452 144.104734 
L 222.730762 143.8342 
L 223.159805 143.556367 
L 224.067913 143.533579 
L 224.774857 143.356977 
L 224.941972 143.2029 
L 225.966557 142.893867 
L 227.257837 142.01186 
L 227.68571 141.85522 
L 229.1508 140.915335 
L 229.635268 140.865452 
L 229.751852 140.759279 
L 230.272605 140.493246 
L 230.532257 140.065806 
L 230.850712 139.851256 
L 230.905524 139.797532 
L 231.774138 139.55627 
L 232.908398 138.416087 
L 233.086842 138.251926 
L 233.795906 137.757505 
L 234.410067 137.592049 
L 234.429392 137.536825 
L 234.640085 137.370934 
L 234.644293 137.315564 
L 234.932897 137.149236 
L 234.975206 137.09372 
L 235.797612 136.871292 
L 235.880192 136.704085 
L 236.630658 136.255197 
L 236.64495 136.199036 
L 236.918803 135.974019 
L 237.043625 135.691906 
L 237.507011 135.662654 
L 237.525765 135.689955 
L 237.560979 135.633363 
L 237.92464 135.406618 
L 238.824707 134.432941 
L 239.918216 133.910382 
L 240.353929 133.387904 
L 241.316343 132.974586 
L 241.380707 132.798706 
L 241.790032 132.649321 
L 241.870283 132.531607 
L 243.189096 132.354737 
L 243.274745 132.177505 
L 243.303708 132.23109 
L 243.398104 132.17191 
L 244.474837 131.923061 
L 244.551797 131.804004 
L 244.895101 131.625112 
L 244.905896 131.651872 
L 245.296799 131.439464 
L 246.078574 130.925534 
L 246.791246 130.710773 
L 247.766933 129.92151 
L 248.059364 129.886975 
L 248.855736 129.63412 
L 248.878107 129.572822 
L 251.138616 128.744036 
L 251.301014 128.495354 
L 251.301277 128.521672 
L 254.024156 127.334789 
L 254.211176 127.297647 
L 254.262551 127.234301 
L 254.587546 127.043994 
L 255.633101 126.446682 
L 255.699057 126.254305 
L 256.213741 125.99716 
L 256.360496 125.803818 
L 256.500395 125.674692 
L 257.121413 125.376867 
L 257.214458 125.052004 
L 258.318425 124.26754 
L 259.049945 124.227424 
L 259.068003 124.161683 
L 259.480779 124.055595 
L 259.704219 124.040801 
L 259.719592 123.974824 
L 260.093806 123.776607 
L 260.196824 123.644223 
L 260.662406 123.445284 
L 260.72571 123.312417 
L 260.731598 123.337834 
L 261.298633 123.147639 
L 261.646438 123.182654 
L 262.096042 123.048864 
L 262.124212 122.981896 
L 262.437248 122.940308 
L 262.914 122.587808 
L 263.300696 122.545777 
L 265.335424 121.262085 
L 265.819024 121.218679 
L 266.146821 120.649495 
L 266.170257 120.699575 
L 266.744555 120.353453 
L 266.888173 120.334029 
L 266.916363 120.264564 
L 267.505268 120.055856 
L 268.282449 119.916456 
L 268.408893 119.871567 
L 268.430607 119.896474 
L 268.463164 119.82661 
L 268.609869 119.546626 
L 269.019501 119.526166 
L 269.319321 119.385684 
L 269.346311 119.315363 
L 269.79295 119.174562 
L 270.717406 118.65852 
L 270.718034 118.683194 
L 270.829551 118.470151 
L 270.871329 118.544128 
L 270.938645 118.472953 
L 271.216188 118.451064 
L 271.590459 118.19009 
L 271.645153 117.975263 
L 272.292548 117.689685 
L 272.432623 117.401163 
L 273.570473 116.918472 
L 273.976242 116.676123 
L 274.177661 116.749306 
L 274.180532 116.676198 
L 274.290973 116.529813 
L 274.700661 116.236362 
L 274.742117 116.162857 
L 274.743915 116.187137 
L 274.894212 116.211436 
L 274.898821 116.137836 
L 275.149884 115.990464 
L 275.160178 116.014725 
L 275.727829 115.617886 
L 275.895304 115.245844 
L 276.232039 114.947161 
L 276.484731 114.920445 
L 276.746022 114.620429 
L 277.273222 114.470067 
L 277.411762 114.394797 
L 277.630968 114.418735 
L 277.633982 114.343386 
L 277.747178 114.192509 
L 278.273878 114.013437 
L 278.316754 113.937689 
L 279.711789 113.6723 
L 280.69696 113.443115 
L 280.791897 113.390394 
L 281.02965 113.107364 
L 281.03564 113.131113 
L 281.057305 113.054228 
L 281.126376 113.077975 
L 281.518898 112.995205 
L 281.822961 113.0132 
L 281.966439 112.703618 
L 282.359668 112.416702 
L 282.502495 112.362539 
L 282.830643 112.152243 
L 283.025205 111.995945 
L 283.300871 111.808086 
L 283.698231 111.918445 
L 284.431181 111.231144 
L 284.442305 111.278178 
L 284.645036 111.222334 
L 284.72572 111.14288 
L 284.742859 111.166399 
L 285.083611 111.00725 
L 285.182797 110.631614 
L 285.767816 110.598357 
L 286.194348 110.588445 
L 286.369424 110.555039 
L 286.520525 110.394206 
L 286.535543 110.441054 
L 287.160405 110.003319 
L 287.341355 109.945634 
L 287.424593 109.702128 
L 287.72049 109.539454 
L 287.729274 109.458016 
L 288.017321 109.446097 
L 288.022226 109.36445 
L 289.102634 108.814057 
L 289.128283 108.837115 
L 289.492905 108.590184 
L 289.77481 108.342633 
L 289.79713 108.259978 
L 290.176444 108.117312 
L 290.279617 107.891235 
L 290.825293 107.87654 
L 291.192002 107.565791 
L 291.311341 107.504955 
L 291.699484 107.337542 
L 292.0432 106.771888 
L 292.077994 106.794432 
L 292.618346 106.777738 
L 292.916323 106.523984 
L 292.936746 106.569033 
L 292.969223 106.484252 
L 293.002084 106.506779 
L 293.251634 105.911095 
L 293.588856 105.676988 
L 293.62689 105.591354 
L 294.075272 105.486569 
L 294.097698 105.508842 
L 294.133502 105.422877 
L 294.32803 105.317414 
L 294.663718 105.253386 
L 294.911547 105.016227 
L 295.128514 104.865048 
L 295.147474 104.887206 
L 295.448898 104.713476 
L 295.472648 104.735598 
L 295.525322 104.648592 
L 295.621521 104.256394 
L 295.803533 103.993618 
L 295.854848 104.037486 
L 295.937369 103.949684 
L 296.398779 103.707667 
L 296.401825 103.61953 
L 296.605206 103.354658 
L 296.613008 103.376408 
L 296.61659 103.287934 
L 297.074336 103.221093 
L 297.340897 103.08706 
L 297.353637 103.108769 
L 297.74611 103.126599 
L 297.834997 102.858387 
L 297.862043 102.90191 
L 298.112916 102.654507 
L 298.211906 102.673257 
L 298.367039 102.514661 
L 298.397138 102.536405 
L 299.022825 102.083891 
L 299.194629 101.76342 
L 299.540305 101.575625 
L 299.545638 101.597134 
L 299.836548 101.57015 
L 299.84519 101.478441 
L 299.875611 101.499964 
L 299.954748 101.521507 
L 299.967202 101.429652 
L 299.99111 101.337715 
L 302.212205 100.783783 
L 302.3426 100.597314 
L 302.856177 99.765383 
L 302.998393 99.334604 
L 303.029027 99.376688 
L 303.167093 99.41885 
L 303.172555 99.323828 
L 303.352171 99.15453 
L 303.488306 99.101216 
L 303.791133 98.910177 
L 303.918899 98.952121 
L 304.0963 98.877367 
L 304.11409 98.898353 
L 304.608646 98.886475 
L 304.753095 98.790367 
L 305.188369 98.841435 
L 305.260617 98.648282 
L 305.357803 98.690393 
L 305.523616 98.61466 
L 305.537783 98.63573 
L 305.801286 98.847514 
L 305.885931 102.53865 
L 305.93048 102.509646 
L 307.023233 102.683163 
L 307.072576 102.577918 
L 307.094768 102.603325 
L 307.424865 102.650677 
L 307.547602 102.570431 
L 307.785057 102.464524 
L 308.124469 102.617884 
L 308.124921 102.511615 
L 308.143559 102.298741 
L 308.254858 102.375402 
L 308.361072 102.452304 
L 308.570966 102.345445 
L 308.603527 102.448189 
L 308.66357 102.473942 
L 308.77423 102.366756 
L 308.78476 102.444051 
L 309.222594 102.729572 
L 309.33554 102.405514 
L 309.372379 102.431506 
L 309.51107 102.214804 
L 309.55637 102.292681 
L 309.674557 102.344737 
L 309.994705 102.205159 
L 310.819756 102.436504 
L 310.826792 102.462891 
L 310.853922 102.353036 
L 310.860042 102.379406 
L 311.008884 102.127863 
L 311.261579 102.149148 
L 311.31741 101.953654 
L 311.743962 102.027462 
L 311.936609 101.771583 
L 312.166482 101.930933 
L 312.212836 101.818544 
L 312.236087 101.70603 
L 312.341441 101.732596 
L 312.367489 101.759192 
L 312.636621 101.360409 
L 313.045356 101.353033 
L 313.144678 101.064572 
L 313.258886 100.950446 
L 313.268767 101.003329 
L 313.40218 101.162686 
L 313.455058 101.18935 
L 313.531086 100.95983 
L 313.58426 100.986425 
L 313.915673 100.897998 
L 313.918498 100.924602 
L 314.026022 101.004597 
L 314.048072 100.889216 
L 314.154659 100.658064 
L 314.201155 100.711243 
L 314.213873 100.737877 
L 314.514326 100.585681 
L 314.53399 100.612335 
L 314.622602 100.665734 
L 314.815538 100.315865 
L 315.058229 100.305318 
L 315.140646 100.097287 
L 315.168188 100.150493 
L 315.443464 100.086066 
L 315.46953 100.166132 
L 315.501987 100.048084 
L 315.513752 100.074781 
L 315.596584 100.101509 
L 315.705495 99.772834 
L 315.789657 99.933082 
L 315.815493 99.959898 
L 315.829369 99.840775 
L 315.861148 99.867568 
L 315.879427 99.6288 
L 315.93263 99.655517 
L 316.015069 99.682265 
L 316.063113 99.562565 
L 316.13981 99.642835 
L 316.264599 99.831225 
L 316.289016 99.79189 
L 316.319263 99.671202 
L 316.356667 99.725282 
L 316.714593 99.915565 
L 316.962712 99.510765 
L 317.029423 99.565167 
L 317.11123 99.592417 
L 317.348373 99.087968 
L 317.504732 99.196673 
L 317.977025 98.534747 
L 317.992979 98.561754 
L 318.0086 98.437208 
L 318.174603 98.339435 
L 318.263045 98.447448 
L 318.267654 98.322307 
L 318.710115 98.457762 
L 318.717839 98.332173 
L 318.795076 98.44089 
L 318.835267 98.314909 
L 319.108223 98.297539 
L 319.189983 98.044326 
L 319.19519 98.071479 
L 319.400534 98.098665 
L 319.504309 97.798525 
L 319.702086 97.570156 
L 319.711564 97.597201 
L 320.215086 97.604565 
L 320.696797 96.755102 
L 320.768285 96.808751 
L 320.822767 96.862533 
L 320.855853 96.732512 
L 321.062267 96.7863 
L 321.104705 96.655988 
L 321.521557 96.871968 
L 321.528857 96.740975 
L 321.555457 96.609818 
L 321.737136 96.636837 
L 321.756168 96.50545 
L 321.820224 96.532437 
L 321.909369 96.400819 
L 321.9117 96.427775 
L 322.413559 96.485106 
L 322.421842 96.219975 
L 322.535893 96.249445 
L 322.835971 96.495211 
L 323.01306 96.632975 
L 323.112706 96.498632 
L 323.147196 96.526222 
L 323.668005 96.640934 
L 323.680303 96.505552 
L 323.776124 96.561207 
L 323.843101 96.589088 
L 324.138642 96.044962 
L 324.142533 96.072598 
L 324.243707 96.10027 
L 324.32235 95.963655 
L 324.369048 96.018965 
L 324.598087 96.157875 
L 324.671211 96.213694 
L 324.6981 96.076257 
L 324.739349 96.160045 
L 325.476783 96.385102 
L 325.546539 96.470112 
L 325.591701 96.33148 
L 325.666094 96.359819 
L 325.941122 96.502079 
L 325.948603 96.362821 
L 326.092001 96.112094 
L 326.148217 96.168895 
L 326.315823 96.282954 
L 326.457883 96.030552 
L 326.65624 94.954741 
L 326.676857 94.982705 
L 326.894117 94.494553 
L 327.035984 94.234896 
L 327.076236 94.290301 
L 327.410779 94.429475 
L 327.518241 94.167906 
L 327.518858 94.195733 
L 327.787039 93.988486 
L 327.881442 94.016305 
L 327.914915 93.870444 
L 328.00286 93.926034 
L 328.085042 93.981777 
L 328.488117 93.533391 
L 328.50093 93.561184 
L 328.640174 93.616885 
L 328.673152 93.756818 
L 328.727516 93.608532 
L 328.730112 93.460038 
L 328.773051 93.487974 
L 329.08761 93.535243 
L 329.216647 93.141691 
L 329.320278 93.197704 
L 329.398311 93.047132 
L 329.460579 93.13119 
L 329.471957 93.159289 
L 329.623112 92.856804 
L 329.730989 92.940815 
L 330.181639 93.156064 
L 330.274834 92.849432 
L 330.309171 92.934579 
L 330.48341 93.1347 
L 330.607243 93.278893 
L 330.704528 93.365915 
L 330.718745 93.210623 
L 330.948518 93.239623 
L 331.048682 92.92817 
L 331.075433 92.985926 
L 331.211215 93.043851 
L 331.566954 92.502772 
L 331.859848 92.546785 
L 331.912895 92.258222 
L 331.923966 92.287053 
L 331.994685 92.127829 
L 332.023717 92.185424 
L 332.131445 92.330167 
L 332.227401 92.359246 
L 332.332509 91.745545 
L 332.347671 91.774315 
L 332.456428 91.831985 
L 332.719617 91.403657 
L 332.732859 91.489843 
L 332.885719 91.547519 
L 333.126488 91.413262 
L 333.132414 91.442108 
L 333.239125 91.470997 
L 333.257059 91.307383 
L 333.270403 91.336214 
L 333.362296 91.422971 
L 333.384208 91.258693 
L 333.475069 91.403657 
L 333.60764 91.520434 
L 333.904834 91.696956 
L 333.931259 91.726537 
L 334.045486 91.560326 
L 334.081349 91.589846 
L 334.304736 91.649024 
L 334.400544 91.315187 
L 334.464675 91.403657 
L 334.526128 91.433239 
L 334.574959 91.265498 
L 334.583065 91.354198 
L 334.684811 91.383858 
L 334.79749 90.907126 
L 334.803583 90.93655 
L 334.883569 90.96602 
L 335.066526 90.456519 
L 335.106286 90.485703 
L 335.109945 90.54421 
L 335.322238 90.573533 
L 335.355997 90.402713 
L 335.415755 90.461274 
L 335.575596 90.549465 
L 335.629191 90.37781 
L 335.65785 90.407187 
L 335.989027 90.55478 
L 336.080555 90.382165 
L 336.140114 90.441304 
L 336.246936 90.619867 
L 336.253641 90.44605 
L 336.741666 90.631501 
L 336.847313 90.223234 
L 336.986301 90.313741 
L 337.35319 89.631739 
L 337.460166 89.781381 
L 337.507982 89.871764 
L 337.716082 89.632088 
L 337.731778 89.662267 
L 337.786114 89.692496 
L 337.80205 89.511345 
L 337.861162 89.632265 
L 338.065976 89.662622 
L 338.091374 89.48053 
L 338.176822 89.510811 
L 338.29569 89.571525 
L 338.389958 89.205646 
L 338.391185 89.326657 
L 338.475762 88.958495 
L 338.478819 88.773944 
L 338.574522 88.833972 
L 338.692094 88.894204 
L 338.947955 88.924397 
L 339.224273 88.426602 
L 339.595126 88.637319 
L 339.740971 89.004537 
L 339.838195 89.035486 
L 340.245025 88.557955 
L 340.437059 88.619503 
L 340.641898 88.075366 
L 340.645844 88.136387 
L 340.739425 88.166978 
L 340.941039 87.423906 
L 340.941608 86.839998 
L 341.01683 86.929199 
L 341.092879 86.733424 
L 341.480187 86.942387 
L 341.623575 87.123605 
L 341.670195 87.154 
L 341.68431 86.955766 
L 341.868221 87.016416 
L 342.030492 86.817517 
L 342.108396 86.248433 
L 342.141881 86.278279 
L 342.259658 86.398206 
L 342.402323 85.995254 
L 342.466702 86.114802 
L 342.614422 85.912135 
L 342.681867 86.001896 
L 342.889031 86.21329 
L 343.135342 86.427458 
L 343.1824 86.221663 
L 343.213889 86.252323 
L 343.960218 86.593431 
L 344.004836 86.385252 
L 344.062373 86.447702 
L 344.095964 86.573317 
L 344.10094 86.363725 
L 344.148308 86.395109 
L 344.18112 86.426553 
L 344.203369 86.216218 
L 344.207219 86.24755 
L 344.364564 86.373483 
L 344.489961 85.981155 
L 344.619674 85.711133 
L 344.627783 85.77379 
L 345.079028 86.090776 
L 345.084849 85.874308 
L 345.214928 85.471584 
L 345.295598 85.503141 
L 345.334016 85.285019 
L 345.395223 85.316453 
L 345.546079 85.442815 
L 345.684183 85.22333 
L 345.749147 85.286515 
L 346.062217 85.541794 
L 346.095709 85.606258 
L 346.100686 85.384059 
L 346.107729 85.416196 
L 346.296361 85.033759 
L 346.311198 85.065704 
L 346.312416 85.097714 
L 346.387972 84.648207 
L 346.394762 84.679889 
L 346.43295 84.743448 
L 346.59619 84.322393 
L 346.661747 84.095231 
L 346.671993 84.157979 
L 346.881058 84.315986 
L 346.950087 84.379646 
L 347.603735 83.413928 
L 347.775679 82.978069 
L 347.840329 83.008995 
L 348.195599 83.321864 
L 348.212722 83.085179 
L 348.539724 83.243025 
L 348.548884 83.274797 
L 348.784893 83.370522 
L 348.863632 83.131345 
L 348.910692 83.163167 
L 349.281981 83.355552 
L 349.363748 82.87249 
L 349.416911 82.904343 
L 349.444087 82.661795 
L 349.499145 82.820951 
L 349.738705 83.014253 
L 349.755101 82.554433 
L 349.761615 82.618633 
L 349.909034 82.65084 
L 349.918813 82.403166 
L 350.122979 82.499497 
L 350.194633 82.001046 
L 350.215565 82.032814 
L 350.34741 82.128548 
L 350.488237 81.877508 
L 350.528025 81.941196 
L 350.596954 82.037268 
L 350.619236 81.784422 
L 350.673545 81.880396 
L 350.809014 81.944743 
L 350.832951 81.434809 
L 350.876362 81.466584 
L 350.953013 81.530352 
L 351.046767 81.273744 
L 351.132845 81.30548 
L 351.166966 81.401127 
L 351.253807 81.142894 
L 351.348157 81.206504 
L 351.354666 81.270408 
L 351.557697 81.431468 
L 351.675105 81.170264 
L 351.749569 81.23468 
L 351.780072 81.267001 
L 352.0794 81.429745 
L 352.113871 81.528312 
L 352.211219 82.238308 
L 352.335796 82.307812 
L 352.40403 81.218906 
L 352.578513 80.395238 
L 352.650366 80.460991 
L 352.836705 80.527067 
L 353.037959 80.03739 
L 353.064745 80.070108 
L 353.079446 80.102908 
L 353.090862 79.823227 
L 353.176905 79.986912 
L 353.542282 80.320485 
L 353.842508 80.49045 
L 354.036426 80.627984 
L 354.037874 80.374313 
L 354.180614 80.443135 
L 354.38137 80.153466 
L 354.641275 80.325429 
L 354.86372 80.569948 
L 354.881439 80.783122 
L 354.884952 80.486649 
L 354.909178 80.593469 
L 355.107437 80.737222 
L 355.227244 80.208079 
L 355.233268 80.243742 
L 355.323551 79.638206 
L 355.353501 79.708382 
L 355.579295 79.403669 
L 355.626449 79.473495 
L 355.73836 79.578945 
L 355.925094 79.649723 
L 355.944915 79.032653 
L 356.035528 79.102324 
L 356.207136 79.349203 
L 356.217507 79.035985 
L 356.307752 79.249106 
L 356.352888 79.284973 
L 356.442817 78.968161 
L 356.494668 79.003736 
L 356.577303 79.111059 
L 356.688267 78.791771 
L 356.754406 78.898803 
L 357.209414 79.188712 
L 357.36645 78.574325 
L 357.495724 78.610305 
L 357.795331 78.318598 
L 357.910929 78.390235 
L 357.918675 78.060647 
L 357.995055 78.167602 
L 358.029646 78.203462 
L 358.033723 77.871196 
L 358.137408 78.049896 
L 358.336284 78.304536 
L 358.808451 78.602119 
L 358.865346 77.916738 
L 358.969507 77.953519 
L 359.099574 78.101759 
L 359.175019 77.40754 
L 359.244178 77.443936 
L 359.340047 77.480444 
L 359.441849 76.851481 
L 359.519604 76.995651 
L 360.19002 77.364011 
L 360.547968 77.514618 
L 360.62988 77.628831 
L 360.830915 77.70558 
L 361.167021 76.683031 
L 361.168359 76.720254 
L 361.461197 77.099178 
L 361.634064 77.176456 
L 361.660045 76.800421 
L 361.822536 76.838695 
L 362.102863 76.498701 
L 362.273199 76.574756 
L 362.385949 76.728391 
L 362.390926 76.345318 
L 362.496096 76.383471 
L 362.73538 76.654163 
L 362.909461 76.971499 
L 362.945176 77.01178 
L 363.368091 77.174302 
L 363.78082 77.890922 
L 363.905065 77.483203 
L 364.014948 77.526062 
L 364.148401 77.83043 
L 364.381339 77.963253 
L 364.481371 77.546722 
L 364.577093 77.590639 
L 364.703197 77.81266 
L 364.719795 77.390451 
L 364.981798 77.523537 
L 365.002462 77.56823 
L 365.296838 77.61309 
L 365.498265 77.185763 
L 365.791289 77.364011 
L 366.10927 77.636484 
L 366.181518 77.775074 
L 366.23301 77.38235 
L 366.313531 77.520806 
L 366.358281 77.660881 
L 366.374956 77.215285 
L 366.453994 77.261562 
L 366.535903 76.813436 
L 366.646423 76.859105 
L 366.658932 76.408423 
L 366.687758 76.589696 
L 368.366271 77.151201 
L 368.561305 77.541006 
L 368.874213 77.690525 
L 368.898159 77.215285 
L 368.996765 77.464204 
L 369.272969 77.667144 
L 369.575488 77.821626 
L 369.575784 77.333438 
L 369.660201 77.435654 
L 369.962287 77.642749 
L 370.013724 77.146743 
L 370.053859 77.301527 
L 370.139586 77.353574 
L 370.297764 76.347177 
L 370.407881 76.447969 
L 370.693405 77.730958 
L 370.694145 77.196825 
L 370.757756 77.30802 
L 371.43627 77.647973 
L 371.484013 77.102141 
L 371.557159 77.387058 
L 372.160246 77.91768 
L 372.703917 78.038823 
L 372.727244 78.161177 
L 372.988892 78.222814 
L 373.057859 78.535692 
L 373.094072 77.957397 
L 373.150374 78.145008 
L 373.253105 78.271693 
L 373.259817 77.68375 
L 373.263034 77.746226 
L 373.635423 77.872155 
L 373.686895 77.999401 
L 374.072452 78.257935 
L 374.127258 78.389264 
L 374.612055 78.791771 
L 374.642078 78.860128 
L 374.948148 78.99796 
L 375.054055 77.821626 
L 375.19745 77.888441 
L 375.230038 77.258835 
L 375.422361 77.390451 
L 375.715931 77.725978 
L 375.936434 77.86285 
L 375.942336 77.93187 
L 376.00042 77.282657 
L 376.069433 77.487093 
L 376.2175 76.167333 
L 376.340139 76.364994 
L 376.360341 76.566144 
L 376.40969 75.889921 
L 376.42761 75.955963 
L 376.507262 75.273916 
L 376.650278 75.338517 
L 376.94591 75.734344 
L 377.219697 73.747017 
L 377.256004 73.809298 
L 377.510336 74.12656 
L 377.590087 72.725295 
L 377.630238 72.786111 
L 377.705271 72.908911 
L 378.201252 73.096081 
L 378.323027 73.35135 
L 378.792203 73.416213 
L 379.50404 74.158834 
L 379.802629 74.37111 
L 379.837321 74.515076 
L 380.153315 74.734801 
L 380.543605 74.883863 
L 380.577465 74.067885 
L 380.660459 74.213791 
L 380.680326 74.436588 
L 381.322575 74.664245 
L 381.389021 73.820663 
L 381.455778 73.894849 
L 381.714931 73.042235 
L 381.815948 71.318061 
L 381.915745 71.450524 
L 382.006364 71.790496 
L 382.499629 72.071925 
L 382.656702 72.143645 
L 383.573423 72.288768 
L 383.790922 72.585923 
L 384.515315 72.738066 
L 384.521999 72.815054 
L 384.586324 71.875576 
L 384.802277 71.949696 
L 384.920354 72.252275 
L 385.089327 71.287178 
L 385.149151 71.434838 
L 385.17914 71.509595 
L 385.472195 71.737666 
L 385.574617 71.814983 
L 385.609135 70.815023 
L 385.697611 70.963704 
L 386.249451 71.268892 
L 386.280122 71.34687 
L 386.511107 71.425537 
L 386.784876 70.383847 
L 387.222068 70.534662 
L 387.519226 72.773917 
L 388.014875 73.377244 
L 388.31305 73.586866 
L 388.621475 74.019706 
L 388.672434 72.76 
L 388.719086 72.864874 
L 389.096695 73.296089 
L 389.135604 71.989855 
L 389.522978 72.199195 
L 389.566843 72.632478 
L 390.015922 72.970901 
L 390.027117 73.321556 
L 390.522919 73.562453 
L 390.963769 73.93502 
L 391.529642 74.587809 
L 391.715366 73.096081 
L 391.81592 73.35135 
L 392.135773 71.942933 
L 392.321198 72.189576 
L 392.521644 72.970901 
L 392.547364 73.107541 
L 392.580495 71.457199 
L 392.582604 71.584979 
L 392.893794 69.899938 
L 393.285596 70.260202 
L 393.47566 70.636717 
L 393.672246 71.875576 
L 394.015511 72.1757 
L 394.152611 70.244874 
L 394.216535 70.383847 
L 394.255117 70.815023 
L 394.517723 68.789241 
L 394.559454 68.9216 
L 394.660663 69.766752 
L 395.141268 70.069533 
L 395.607563 67.845606 
L 395.917868 65.57932 
L 396.432635 66.307278 
L 396.634265 66.569944 
L 397.619051 66.705381 
L 397.90208 66.9849 
L 397.986079 67.276571 
L 398.487273 67.581206 
L 398.487273 67.581206 
" style="fill:none;stroke:#ff7f0e;stroke-dasharray:9.6,2.4,1.5,2.4;stroke-dashoffset:0;stroke-width:1.5;"/>
   </g>
   <g id="line2d_15">
    <path clip-path="url(#p7b2bfcd29e)" d="M 73.832727 224.630249 
L 73.877953 224.656745 
L 73.934444 224.587554 
L 74.203896 224.353951 
L 74.342475 224.233469 
L 74.557578 223.991434 
L 74.913098 223.728675 
L 75.13507 223.567626 
L 75.331922 223.360559 
L 75.610509 223.113308 
L 75.75872 222.956384 
L 77.770162 221.203737 
L 77.947739 221.012036 
L 78.195166 220.798779 
L 78.447329 220.598307 
L 79.782274 219.396718 
L 80.009138 219.211046 
L 80.174655 219.038947 
L 80.340756 218.873375 
L 80.521568 218.743356 
L 80.647874 218.634709 
L 80.791795 218.53306 
L 81.002594 218.350954 
L 81.607365 217.718662 
L 81.757533 217.577735 
L 81.911497 217.361764 
L 82.135006 217.129726 
L 82.749352 216.54807 
L 83.003551 216.334663 
L 83.275674 216.112555 
L 83.420876 216.05109 
L 83.557012 215.897058 
L 83.674837 215.78892 
L 83.862204 215.571863 
L 84.171986 215.361564 
L 84.780186 214.835452 
L 84.933157 214.68514 
L 85.136339 214.438825 
L 85.437503 214.223206 
L 85.601829 214.086922 
L 85.615243 214.123056 
L 85.673168 213.986408 
L 86.027155 213.719984 
L 86.280032 213.52091 
L 86.636644 213.251644 
L 86.768069 213.186131 
L 87.758617 212.125158 
L 87.932763 211.906671 
L 88.495079 211.381528 
L 88.839642 211.125312 
L 89.557453 210.365659 
L 89.661271 210.234955 
L 90.032824 209.884654 
L 90.158198 209.752628 
L 91.820886 208.039157 
L 91.926065 207.901998 
L 92.244446 207.543579 
L 92.670671 207.108135 
L 92.786277 206.987011 
L 93.061288 206.800084 
L 93.380009 206.414665 
L 93.510001 206.244507 
L 93.8659 205.892903 
L 94.044455 205.673083 
L 94.250647 205.365633 
L 94.398717 205.133803 
L 94.643608 204.764544 
L 94.863893 204.490719 
L 94.990853 204.392565 
L 95.224373 204.205547 
L 95.370058 204.017837 
L 95.560224 203.829433 
L 96.416231 202.886972 
L 96.645371 202.674037 
L 96.927135 202.37853 
L 97.312426 201.834069 
L 98.88361 199.984189 
L 98.994917 199.82348 
L 99.276148 199.478997 
L 99.38588 199.338411 
L 99.860219 198.914412 
L 99.988199 198.772327 
L 100.91683 197.588354 
L 101.819997 196.674508 
L 101.971153 196.446487 
L 102.376847 195.987573 
L 102.502461 195.802927 
L 102.595447 195.629256 
L 104.663239 192.797548 
L 104.95412 192.380815 
L 105.043143 192.232998 
L 105.274912 191.936205 
L 105.457093 191.762358 
L 105.568106 191.53806 
L 105.762652 191.225066 
L 106.056207 190.885102 
L 106.544044 190.083951 
L 106.795709 189.724287 
L 106.984981 189.466013 
L 107.323556 188.893744 
L 107.584291 188.460834 
L 107.708021 188.223347 
L 107.846511 188.090994 
L 108.068148 187.758804 
L 108.215217 187.545217 
L 108.523006 187.223384 
L 108.685379 187.034837 
L 110.059664 185.254985 
L 110.23851 184.906573 
L 110.543573 184.373112 
L 110.76022 184.161237 
L 110.894233 183.920216 
L 111.110526 183.621163 
L 111.311704 183.406654 
L 111.394818 183.248868 
L 111.535608 183.090674 
L 112.385963 181.81027 
L 112.510849 181.574594 
L 112.805377 181.026145 
L 112.924491 180.847228 
L 113.042087 180.697738 
L 113.197329 180.487851 
L 113.325818 180.307386 
L 113.492322 180.1264 
L 113.872245 179.808416 
L 114.014307 179.504075 
L 114.501046 178.705863 
L 114.798392 178.473732 
L 115.068658 178.038143 
L 115.219208 177.787894 
L 116.014072 176.761098 
L 116.120924 176.569732 
L 117.887644 173.796427 
L 118.055386 173.579444 
L 118.757412 172.330593 
L 118.866301 172.091666 
L 119.034588 171.937618 
L 119.211469 171.611236 
L 119.519555 171.283258 
L 119.634777 171.109994 
L 120.871574 169.281227 
L 121.206057 168.977562 
L 121.457095 168.618574 
L 121.54691 168.38422 
L 121.784068 168.112815 
L 122.267318 167.457048 
L 122.495238 166.942672 
L 122.627641 166.795004 
L 122.936905 166.554373 
L 123.243632 166.238442 
L 123.354276 166.014567 
L 125.348903 163.378531 
L 125.573714 163.203655 
L 125.689467 163.067343 
L 126.705474 161.749334 
L 126.886451 161.550526 
L 127.019416 161.291253 
L 127.291905 161.010993 
L 127.742736 160.38653 
L 127.933765 160.204225 
L 128.415059 159.470408 
L 129.449995 158.355708 
L 129.572439 158.126554 
L 129.827382 157.854816 
L 130.054286 157.392667 
L 130.223352 157.160507 
L 130.355692 156.970018 
L 131.767594 155.168289 
L 131.832662 155.059667 
L 131.947898 154.929113 
L 132.056421 154.71102 
L 132.282024 154.382696 
L 132.371426 154.207006 
L 132.693206 153.898565 
L 132.816968 153.743873 
L 133.116168 153.344645 
L 133.312113 153.055006 
L 133.492427 152.764266 
L 133.660987 152.539865 
L 133.769671 152.224596 
L 133.983991 151.998608 
L 134.091134 151.862696 
L 134.392888 151.635641 
L 134.632656 151.505224 
L 134.803305 151.322701 
L 134.960853 151.116846 
L 135.504898 150.519059 
L 135.645234 150.40357 
L 135.744343 150.241596 
L 135.955045 149.93989 
L 136.446751 149.23916 
L 136.558119 149.098257 
L 136.71061 148.862854 
L 136.915562 148.674023 
L 137.031425 148.461043 
L 137.399173 148.247485 
L 137.584889 148.104791 
L 137.776933 147.866392 
L 137.899204 147.699083 
L 138.017082 147.411442 
L 138.65177 146.857195 
L 138.771009 146.71197 
L 139.189025 146.396404 
L 139.282133 146.225965 
L 139.96018 145.667063 
L 140.503003 145.445742 
L 140.540244 145.396476 
L 140.81627 145.248497 
L 140.925282 145.124972 
L 141.087003 144.976492 
L 142.15208 144.004639 
L 142.402331 143.70324 
L 142.636579 143.476452 
L 142.819057 143.299623 
L 143.08141 143.122408 
L 143.202924 142.970202 
L 143.40693 142.766816 
L 143.823848 142.435229 
L 143.927084 142.281733 
L 144.304702 141.948168 
L 144.964584 141.174852 
L 145.16285 140.992882 
L 146.510053 139.760588 
L 146.581596 139.681305 
L 146.942711 139.363414 
L 147.023462 139.2306 
L 147.420472 138.964335 
L 148.362918 138.025668 
L 148.626184 137.89071 
L 148.75263 137.674325 
L 149.100734 137.403058 
L 149.437761 137.049099 
L 149.739286 136.885231 
L 150.533039 136.254112 
L 150.642414 136.061095 
L 150.926863 135.895301 
L 151.281442 135.701466 
L 151.384719 135.590505 
L 152.145939 135.228877 
L 152.563436 134.977618 
L 152.935832 134.669517 
L 153.050308 134.557205 
L 153.53736 134.303962 
L 153.988718 133.965137 
L 154.088091 133.880222 
L 155.300686 133.340469 
L 155.421921 133.226404 
L 156.354654 132.768634 
L 157.064872 132.625083 
L 157.224765 132.481293 
L 157.2544 132.452506 
L 157.532881 132.308429 
L 158.008003 132.019556 
L 158.025985 132.045689 
L 158.122609 131.987789 
L 160.395229 131.286766 
L 160.522297 131.140603 
L 160.811348 131.023496 
L 161.223419 130.847541 
L 161.311755 130.73004 
L 161.68129 130.582942 
L 161.76126 130.465086 
L 162.236764 130.317543 
L 162.570133 129.962423 
L 162.921474 129.814032 
L 164.201075 129.277745 
L 165.789158 128.647931 
L 166.079331 128.527456 
L 166.771626 128.346437 
L 167.009421 128.225552 
L 167.163765 128.220736 
L 167.318942 128.160199 
L 167.893268 128.008676 
L 169.890168 127.338892 
L 170.245139 127.185965 
L 171.130847 126.940734 
L 171.965204 126.602441 
L 172.159986 126.386496 
L 172.44063 126.17003 
L 172.700168 125.984072 
L 174.214873 125.517487 
L 174.315365 125.455093 
L 174.8885 125.298918 
L 175.076408 125.236373 
L 175.315721 125.079819 
L 175.51797 124.891595 
L 176.173026 124.702979 
L 177.859382 124.134764 
L 178.546317 123.944566 
L 179.247266 123.690348 
L 179.303747 123.531101 
L 180.65257 123.211769 
L 180.784982 123.083723 
L 181.426436 122.794961 
L 182.546165 122.408523 
L 182.997123 122.149989 
L 183.480048 121.95561 
L 183.653404 121.793313 
L 187.112497 121.001428 
L 187.260607 120.837361 
L 187.289523 120.771653 
L 188.202937 120.607179 
L 188.542481 120.654885 
L 191.388302 119.99375 
L 192.826319 119.68506 
L 192.831158 119.651753 
L 194.044262 119.451659 
L 194.237561 119.318024 
L 195.005673 119.083701 
L 195.526682 118.848788 
L 195.528322 118.815181 
L 197.096445 118.468082 
L 197.890706 118.231501 
L 197.984983 118.129927 
L 198.566937 117.892492 
L 199.279224 117.541333 
L 199.396643 117.473096 
L 200.958733 117.074495 
L 202.321207 116.351255 
L 202.617077 116.247483 
L 203.286957 116.108942 
L 203.391843 116.039596 
L 203.738915 115.900751 
L 203.764076 115.866008 
L 204.510302 115.622451 
L 205.365234 115.273427 
L 205.990761 115.086001 
L 206.095722 114.945689 
L 206.773213 114.664443 
L 207.362449 114.709491 
L 207.46044 114.767268 
L 209.579963 114.44653 
L 209.696754 114.375722 
L 209.969583 114.198472 
L 210.548377 113.914189 
L 210.973847 113.77173 
L 211.820306 113.521918 
L 211.841426 113.486178 
L 212.446469 113.307276 
L 212.881657 113.078426 
L 213.535025 112.898676 
L 214.578707 112.53817 
L 214.709192 112.465907 
L 215.497311 112.248793 
L 217.935646 111.418945 
L 218.860881 111.162594 
L 218.991884 110.979073 
L 219.122358 110.905567 
L 219.187325 110.684717 
L 219.41669 110.706299 
L 219.477484 110.632551 
L 220.181568 110.595657 
L 220.895866 110.099091 
L 221.204964 110.120537 
L 221.336452 109.971953 
L 225.363661 109.465687 
L 225.369733 109.428203 
L 226.035415 109.278125 
L 226.183495 109.127817 
L 226.93431 108.864224 
L 227.137276 108.713283 
L 229.1508 108.038906 
L 229.635268 108.080912 
L 229.751852 108.004644 
L 230.296775 107.775487 
L 230.378806 107.545798 
L 231.848946 107.067042 
L 232.70898 106.603601 
L 233.162423 106.215747 
L 233.760069 105.943349 
L 233.795906 105.904374 
L 234.429392 105.748323 
L 234.874967 105.513789 
L 234.975206 105.435489 
L 235.800324 105.23947 
L 235.880192 105.160955 
L 236.918803 104.728722 
L 237.043625 104.531123 
L 237.507011 104.551163 
L 237.525765 104.610794 
L 237.560979 104.571219 
L 237.972071 104.373115 
L 237.989443 104.293764 
L 238.012824 104.353449 
L 238.377955 104.174777 
L 238.508214 103.975694 
L 239.327772 103.676164 
L 239.514079 103.735999 
L 239.872353 103.575912 
L 240.545615 103.094126 
L 241.09678 103.073534 
L 241.112492 103.133487 
L 241.180686 103.012609 
L 242.703393 102.628185 
L 243.222438 102.506643 
L 243.274745 102.466097 
L 243.303708 102.586262 
L 243.398104 102.545708 
L 244.284637 102.503628 
L 244.356957 102.624025 
L 244.410185 102.583405 
L 244.895101 102.339343 
L 244.905896 102.399605 
L 245.516411 102.234803 
L 245.568754 102.153113 
L 246.873608 101.845101 
L 246.905223 101.763058 
L 247.626544 101.434222 
L 247.766933 101.351847 
L 248.059364 101.371115 
L 249.60728 101.079226 
L 249.760477 101.057041 
L 249.781465 101.117666 
L 249.874127 101.076256 
L 249.973662 101.03483 
L 250.309306 101.07328 
L 250.459432 101.092528 
L 251.239939 100.862571 
L 251.301014 100.779362 
L 251.301277 100.840164 
L 252.515627 100.525784 
L 252.651352 100.544899 
L 252.718997 100.419485 
L 254.587546 100.118307 
L 255.206822 99.988001 
L 255.256641 100.110326 
L 255.316712 100.068193 
L 255.588851 99.941689 
L 255.880471 99.730503 
L 256.360496 99.476507 
L 256.775679 99.306829 
L 256.814884 99.368103 
L 256.82038 99.325643 
L 257.150752 99.155631 
L 257.310555 98.985338 
L 257.467126 98.900087 
L 258.023331 98.68665 
L 258.318425 98.515583 
L 258.591597 98.57696 
L 260.094359 98.332489 
L 261.06664 98.006642 
L 261.646438 98.351993 
L 262.70408 98.173253 
L 262.817642 98.043428 
L 263.184592 98.167162 
L 265.335424 97.440025 
L 265.523909 97.502089 
L 266.02963 97.345668 
L 266.146821 97.188852 
L 266.170257 97.313241 
L 266.744555 97.093868 
L 266.826407 97.2184 
L 266.888173 97.174477 
L 266.916363 97.130537 
L 268.329094 96.866502 
L 268.501124 96.903056 
L 268.609869 96.7707 
L 269.262511 96.807227 
L 269.346311 96.718837 
L 269.94991 96.586112 
L 269.952388 96.541832 
L 270.049083 96.604324 
L 270.168454 96.578243 
L 270.829551 96.330133 
L 270.871329 96.518031 
L 270.938645 96.473587 
L 271.216188 96.554537 
L 271.628347 96.350178 
L 271.645153 96.305594 
L 271.930357 96.323796 
L 271.960851 96.386628 
L 271.978283 96.342013 
L 272.138051 96.360246 
L 272.413951 96.136814 
L 272.432623 96.09207 
L 273.670881 95.751467 
L 273.680107 95.940481 
L 273.82083 96.021713 
L 274.027166 95.994956 
L 274.177661 96.121286 
L 274.20278 96.031351 
L 274.742117 95.761081 
L 274.743915 95.824318 
L 274.960116 95.797353 
L 275.487435 95.679976 
L 275.500559 95.743318 
L 275.66493 95.95176 
L 275.786221 95.725478 
L 275.957532 95.544101 
L 277.411762 95.170843 
L 277.712073 95.143243 
L 277.747178 95.097606 
L 278.649191 95.014483 
L 279.164535 95.196272 
L 279.280437 95.260184 
L 279.711789 95.278327 
L 280.952685 95.067122 
L 281.057305 95.057362 
L 281.126376 95.121452 
L 281.390003 95.093597 
L 281.822961 95.432952 
L 281.966439 95.248778 
L 283.239282 94.905727 
L 283.530758 95.099336 
L 283.533741 95.053006 
L 283.698231 95.441015 
L 283.78578 95.39469 
L 284.431181 95.088153 
L 284.442305 95.217847 
L 284.645036 95.236244 
L 284.72572 95.18973 
L 284.742859 95.254657 
L 285.089612 95.115003 
L 285.166649 94.975164 
L 285.182797 94.993494 
L 285.767816 95.076886 
L 286.060334 95.030203 
L 286.061847 95.095281 
L 286.194348 95.225525 
L 286.369424 95.309201 
L 286.520525 95.215771 
L 286.535543 95.346271 
L 286.630793 95.299534 
L 286.780652 95.318077 
L 287.160405 95.196199 
L 287.341355 95.214725 
L 287.424593 95.07405 
L 289.644267 94.648325 
L 289.77481 94.553805 
L 289.79713 94.506514 
L 290.689572 94.485179 
L 291.089984 94.56937 
L 291.25683 94.379495 
L 291.311341 94.445364 
L 291.777145 94.255163 
L 291.900556 94.112288 
L 291.937752 94.178215 
L 291.991931 94.130551 
L 292.0432 94.082866 
L 292.077994 94.148831 
L 292.618346 94.299214 
L 292.916323 94.156014 
L 293.002084 94.306641 
L 293.046035 94.258855 
L 293.62689 93.846049 
L 293.818686 93.798029 
L 293.825555 93.864303 
L 293.843947 93.930608 
L 293.84512 93.882574 
L 294.713326 94.040687 
L 295.128514 93.981143 
L 295.147474 94.04776 
L 295.238505 93.999546 
L 295.663308 93.813186 
L 295.803533 93.716364 
L 295.854848 93.849965 
L 295.937369 93.801529 
L 296.578214 93.577324 
L 296.605206 93.528736 
L 296.61659 93.547042 
L 297.074336 93.565364 
L 297.290791 93.535039 
L 297.528845 93.870444 
L 297.556694 94.139323 
L 297.653549 94.090675 
L 297.66665 94.157977 
L 297.690414 94.225309 
L 297.763336 94.127963 
L 297.834997 94.030528 
L 297.862043 94.16532 
L 298.112916 94.08648 
L 298.320734 94.394284 
L 298.367039 94.345459 
L 298.397138 94.413146 
L 299.054403 94.119749 
L 299.103232 94.206298 
L 299.194629 94.10829 
L 299.412464 93.961108 
L 299.458073 94.096805 
L 299.954748 94.542706 
L 299.99111 94.444467 
L 300.462758 94.463484 
L 300.547225 94.531686 
L 301.011791 94.52064 
L 301.449705 94.832559 
L 301.470068 94.783312 
L 302.212205 94.89042 
L 302.3426 94.791793 
L 302.594985 94.632701 
L 302.63746 94.770176 
L 302.998393 94.530693 
L 303.029027 94.668572 
L 303.167093 94.806581 
L 303.22686 94.707264 
L 303.250407 94.657571 
L 303.580408 94.765439 
L 303.854223 94.784867 
L 304.015148 94.804314 
L 304.608646 95.170534 
L 304.753095 95.12075 
L 305.170428 95.488188 
L 305.188369 95.557844 
L 305.260617 95.458224 
L 305.455501 95.547818 
L 305.793916 96.0369 
L 305.813205 97.938687 
L 305.93048 109.335054 
L 306.060122 109.565023 
L 306.068814 109.641756 
L 306.388747 109.872183 
L 306.727347 110.102955 
L 306.875149 110.054151 
L 307.28187 110.341964 
L 307.547602 110.60224 
L 307.785057 110.553403 
L 308.082722 110.940706 
L 308.143559 110.871753 
L 308.361072 111.338164 
L 308.570966 111.289315 
L 308.66357 111.679103 
L 308.77423 111.630266 
L 308.880084 112.021072 
L 309.222594 112.727009 
L 309.258785 112.62947 
L 309.51107 112.561649 
L 309.55637 112.797908 
L 310.804221 113.838323 
L 310.904643 114.377601 
L 311.008884 114.279984 
L 311.280396 114.661856 
L 311.31741 114.613007 
L 311.480253 114.773213 
L 311.693343 115.045292 
L 311.901596 115.269225 
L 311.936609 115.220357 
L 311.994198 115.300883 
L 312.367489 115.768043 
L 312.636621 115.734235 
L 313.344737 116.219962 
L 313.396095 116.54585 
L 313.455058 116.709048 
L 313.507273 116.660084 
L 313.531086 116.611096 
L 313.58426 116.692775 
L 313.915673 116.725499 
L 314.026022 117.052842 
L 314.154659 116.9058 
L 314.213873 117.151831 
L 314.424878 117.13584 
L 314.622602 117.547045 
L 314.815538 117.399853 
L 315.168188 117.830286 
L 315.364284 117.863887 
L 315.443464 117.946663 
L 315.513752 118.229095 
L 315.678448 118.346029 
L 315.691867 118.296891 
L 315.705495 118.247728 
L 315.768783 118.414002 
L 315.861148 118.864753 
L 315.879427 118.766441 
L 316.210926 119.386486 
L 316.336456 119.960379 
L 316.431964 120.213193 
L 316.626014 120.466409 
L 316.791284 120.586391 
L 316.885593 120.488209 
L 316.895736 120.572822 
L 317.029423 120.862638 
L 317.11123 120.947484 
L 317.148955 120.84926 
L 317.157846 120.800109 
L 317.190747 121.005856 
L 317.457783 121.212042 
L 317.504732 121.382509 
L 317.573484 121.333355 
L 317.899763 121.25796 
L 317.992979 121.428907 
L 318.0086 121.379635 
L 318.174603 121.415898 
L 318.369314 121.880973 
L 318.710115 122.138788 
L 318.717839 122.089535 
L 318.795076 122.433974 
L 318.835267 122.384733 
L 319.400534 122.755141 
L 319.436542 122.656541 
L 319.447163 122.829716 
L 319.448716 122.916374 
L 319.504309 122.867064 
L 319.702086 122.8551 
L 319.711564 122.941881 
L 320.451926 123.254475 
L 320.696797 123.155531 
L 320.720317 123.242771 
L 320.822767 123.504772 
L 320.855853 123.455301 
L 321.224595 123.755885 
L 321.481177 124.194559 
L 321.521557 124.282437 
L 321.555457 124.183569 
L 322.297752 124.651921 
L 322.408213 124.8286 
L 322.455034 125.349699 
L 322.421842 124.818084 
L 322.535893 125.300259 
L 322.680583 125.655684 
L 322.835971 126.101064 
L 323.01306 126.547668 
L 323.112706 126.498354 
L 323.147196 126.587833 
L 323.452728 127.125745 
L 323.587038 127.256203 
L 323.906758 127.517769 
L 324.138642 127.369853 
L 324.142533 127.460043 
L 324.568234 127.952957 
L 324.739349 128.538653 
L 325.354562 128.993741 
L 325.476783 129.267402 
L 325.666094 129.583881 
L 325.782452 129.767008 
L 325.885761 129.950338 
L 325.941122 130.04208 
L 325.948603 129.992998 
L 326.092001 129.98658 
L 326.242752 130.446497 
L 326.315823 130.538634 
L 326.484261 130.385206 
L 326.489164 130.335999 
L 326.526989 130.520678 
L 326.559985 130.422231 
L 326.725003 130.366831 
L 326.804562 130.644577 
L 326.853212 130.54595 
L 327.018922 130.447213 
L 327.175245 130.862062 
L 327.518858 131.228975 
L 327.645014 131.130205 
L 327.645086 131.223526 
L 327.881442 131.50381 
L 327.914915 131.454432 
L 327.934807 131.547978 
L 328.198692 131.77958 
L 328.207535 131.730197 
L 328.28531 131.917817 
L 328.311251 132.105651 
L 328.369604 132.056291 
L 328.640174 132.383312 
L 328.773051 132.850932 
L 328.907983 133.134849 
L 329.120572 133.556376 
L 329.216647 133.507063 
L 329.460579 133.933959 
L 329.471957 134.02937 
L 329.574602 133.98008 
L 329.623112 133.930761 
L 329.624356 134.026254 
L 329.947279 134.838947 
L 330.09294 135.127283 
L 330.457575 136.090665 
L 330.618309 136.867146 
L 330.704528 137.061829 
L 330.718745 137.012861 
L 331.011242 137.061319 
L 331.048682 137.012308 
L 331.063536 137.109834 
L 331.160699 137.305054 
L 331.211215 137.40275 
L 331.450094 137.402536 
L 331.494405 137.549271 
L 331.566954 137.500246 
L 331.72251 137.892509 
L 331.859848 138.138354 
L 331.861855 138.089372 
L 331.923966 138.237267 
L 331.994685 138.188256 
L 331.99857 138.28681 
L 332.227401 138.978307 
L 332.244289 138.880432 
L 332.262614 138.831452 
L 332.27111 138.930513 
L 332.332509 138.881519 
L 332.456428 139.179095 
L 332.615968 139.180447 
L 332.885719 139.728775 
L 333.126488 139.779592 
L 333.239125 139.979326 
L 333.257059 139.930381 
L 333.270403 140.030351 
L 333.401076 140.482207 
L 333.517683 141.085144 
L 333.76741 141.488294 
L 333.775995 141.690228 
L 334.464675 142.354473 
L 334.883569 142.974433 
L 334.924945 142.925754 
L 335.066526 142.828309 
L 335.322238 143.237411 
L 335.355997 143.188709 
L 335.575596 143.701548 
L 335.629191 143.652897 
L 335.65785 143.755666 
L 335.908953 144.167359 
L 336.223559 144.738257 
L 336.246936 145.048846 
L 336.253641 145.000367 
L 336.43238 145.311569 
L 336.554171 145.623334 
L 336.986301 146.78795 
L 337.218659 146.691312 
L 337.460166 147.22556 
L 337.650763 147.916457 
L 337.716082 147.868232 
L 337.731778 147.97411 
L 338.29569 148.833745 
L 338.389958 148.737443 
L 338.391185 149.164234 
L 338.478819 149.019775 
L 338.947955 149.555011 
L 339.00804 149.50689 
L 339.087247 149.721482 
L 339.106876 149.673367 
L 339.224273 149.625223 
L 339.324286 149.840154 
L 339.360578 150.05535 
L 339.586483 150.270811 
L 339.740971 151.67783 
L 339.838195 151.786532 
L 339.96661 151.73873 
L 339.966768 151.847518 
L 340.135335 151.799705 
L 340.245025 151.969719 
L 340.643505 152.26288 
L 340.739425 152.481666 
L 340.787518 152.433857 
L 340.852413 152.543372 
L 340.918369 152.447702 
L 340.941608 152.256005 
L 340.990794 152.475471 
L 341.01683 152.585306 
L 341.092879 152.537365 
L 341.358616 152.867344 
L 341.670195 154.082588 
L 341.68431 154.034891 
L 341.868221 154.256788 
L 342.141881 154.288196 
L 342.259658 154.733709 
L 342.300462 154.686022 
L 342.402323 154.638305 
L 342.458763 154.7499 
L 342.466702 155.085106 
L 342.614422 155.03744 
L 343.008314 156.497647 
L 343.515708 157.468402 
L 343.749449 157.695458 
L 344.489961 159.632621 
L 344.572705 159.58565 
L 344.627783 160.346464 
L 344.882606 160.92571 
L 345.079028 161.506827 
L 345.117936 161.41349 
L 345.546079 162.137395 
L 345.684183 162.090779 
L 346.22763 163.76255 
L 346.296361 163.716191 
L 346.311198 163.834502 
L 346.414396 164.097279 
L 346.43295 164.215946 
L 346.587381 164.169615 
L 346.671993 164.433543 
L 346.81834 164.552593 
L 346.923582 165.149017 
L 346.950087 165.268537 
L 347.122466 165.222354 
L 347.131513 165.341976 
L 347.209435 165.295786 
L 347.418748 165.729038 
L 347.53444 165.682884 
L 347.577151 165.802974 
L 347.603735 165.756814 
L 347.677026 165.710624 
L 348.395076 167.309143 
L 348.539724 167.673543 
L 348.548884 167.795171 
L 348.707239 167.91688 
L 348.910692 168.236757 
L 349.281981 168.970325 
L 349.295117 168.924714 
L 349.363748 168.879071 
L 349.455311 169.324385 
L 349.637957 170.186775 
L 349.739632 170.388549 
L 349.755101 170.343153 
L 349.761615 170.590729 
L 350.122774 170.917423 
L 350.215565 171.075309 
L 350.34741 171.448789 
L 350.488237 171.403536 
L 350.673545 172.358328 
L 350.941175 172.770385 
L 350.953013 172.896169 
L 351.046767 172.851146 
L 351.147863 173.103024 
L 351.267737 173.436566 
L 351.348157 173.562918 
L 351.354666 173.81588 
L 351.542119 174.322835 
L 351.557697 174.44979 
L 351.675105 174.405065 
L 351.780072 174.786532 
L 352.027262 175.16878 
L 352.098943 175.679663 
L 352.113871 175.807602 
L 352.211219 178.514667 
L 352.335796 178.774525 
L 352.40403 178.599249 
L 352.578513 178.467475 
L 352.59819 178.597747 
L 352.836705 178.989103 
L 352.911809 178.945237 
L 353.2022 180.168727 
L 353.354251 180.30036 
L 353.672306 181.489182 
L 353.842508 182.019945 
L 353.921769 182.418991 
L 354.165247 182.775841 
L 354.180614 182.909354 
L 354.38137 182.866323 
L 354.596868 183.133692 
L 354.99062 185.785791 
L 355.104304 186.057395 
L 355.162769 186.423307 
L 355.227244 186.381063 
L 355.336323 186.569317 
L 355.353501 186.705878 
L 355.579295 186.663644 
L 355.73836 187.348072 
L 355.980717 187.67588 
L 356.128937 188.226622 
L 356.237718 189.152531 
L 356.352888 189.707753 
L 356.442817 189.666185 
L 357.012703 190.880301 
L 357.202884 191.581435 
L 357.209414 191.721965 
L 357.263921 191.680868 
L 357.495724 191.921249 
L 357.723753 191.880165 
L 357.942603 192.544961 
L 358.060864 193.070711 
L 358.395738 194.637673 
L 358.619073 195.21059 
L 358.630586 195.35408 
L 358.969507 195.704871 
L 359.441849 196.699957 
L 359.575805 197.425939 
L 359.760184 197.717078 
L 359.924642 198.446804 
L 360.471389 198.88593 
L 360.538432 199.032521 
L 360.62988 199.767102 
L 361.007948 200.170089 
L 361.031529 200.130993 
L 361.04656 200.278643 
L 361.167021 200.239558 
L 361.265489 201.425024 
L 361.634064 202.169525 
L 361.660045 202.130941 
L 361.822536 202.280215 
L 362.005923 202.241644 
L 362.273199 202.690258 
L 362.496096 203.401916 
L 362.606709 203.853343 
L 362.73538 204.456826 
L 362.909461 205.669237 
L 362.945176 205.821301 
L 363.231034 205.97348 
L 363.328513 206.278181 
L 363.385492 206.583341 
L 363.78082 209.041283 
L 363.905065 209.004588 
L 364.014948 209.159244 
L 364.148401 210.245133 
L 364.288128 210.400733 
L 364.381339 210.712287 
L 364.481371 210.676061 
L 364.577093 210.832061 
L 364.703197 211.613852 
L 364.719795 211.577873 
L 364.934548 211.734636 
L 365.002462 212.205643 
L 365.296838 212.362886 
L 365.498265 212.327111 
L 365.680389 212.642051 
L 366.306863 214.825173 
L 366.358281 215.463529 
L 366.374956 215.428648 
L 366.535903 215.553733 
L 366.665848 215.839302 
L 366.687758 216.320916 
L 366.937581 216.642614 
L 367.538009 216.80365 
L 368.015429 217.449046 
L 368.052611 217.610708 
L 368.30202 217.772496 
L 368.485787 219.234266 
L 368.561305 219.560499 
L 368.916054 220.181021 
L 368.996765 220.83727 
L 369.177239 221.166166 
L 369.630482 222.123075 
L 369.660201 222.288546 
L 369.840006 222.619879 
L 370.407881 223.85338 
L 370.693405 227.89989 
L 370.694145 227.86879 
L 370.757756 228.209612 
L 371.29941 228.892892 
L 371.618024 230.235699 
L 371.619121 230.408019 
L 371.87791 230.753076 
L 372.160246 231.61815 
L 372.678979 231.791583 
L 372.727244 232.312722 
L 372.988892 232.486716 
L 373.150374 233.854598 
L 373.263034 234.352009 
L 373.623408 234.52782 
L 373.686895 235.05611 
L 373.836444 235.232493 
L 374.235675 236.293811 
L 374.448252 236.648738 
L 374.948148 237.717004 
L 374.965494 237.689145 
L 375.015852 237.867761 
L 375.054055 237.83994 
L 375.422361 238.349195 
L 375.651216 238.887617 
L 377.151761 243.061057 
L 377.219697 243.034946 
L 377.582069 244.299731 
L 377.590087 244.27404 
L 377.630238 244.459139 
L 377.705271 244.829803 
L 378.106658 245.015368 
L 378.261336 245.572995 
L 378.323027 246.132025 
L 378.792203 246.318681 
L 379.372393 248.193896 
L 379.802629 248.948414 
L 379.837321 249.32663 
L 380.153315 249.895153 
L 380.526471 250.084982 
L 380.680326 251.20417 
L 381.455778 251.946362 
L 381.815948 251.877547 
L 381.917232 252.45394 
L 382.143682 253.611162 
L 382.656702 254.192002 
L 383.427639 254.385947 
L 383.753062 254.96878 
L 383.790922 255.35817 
L 384.401941 255.553115 
L 384.882094 256.509147 
L 384.920354 256.901373 
L 385.089327 256.880294 
L 385.17914 257.47013 
L 385.425171 257.864203 
L 385.697611 258.633984 
L 386.164312 259.228657 
L 386.511107 259.824879 
L 386.784876 259.804913 
L 387.175321 260.004077 
L 387.222068 260.203414 
L 387.519226 265.447678 
L 388.014875 266.674961 
L 388.31305 267.085499 
L 388.377322 267.291039 
L 388.387365 267.702665 
L 388.719086 268.098349 
L 389.135604 268.909238 
L 389.522978 269.324126 
L 389.566843 270.156115 
L 390.015922 270.782051 
L 390.027117 271.40966 
L 390.391804 271.619237 
L 390.522919 271.829 
L 390.940305 272.249088 
L 390.963769 272.459413 
L 391.529642 273.513865 
L 391.715366 273.499404 
L 391.81592 273.922684 
L 392.278587 274.332604 
L 392.582604 276.237721 
L 392.893794 276.224384 
L 393.285596 276.867872 
L 393.47566 277.513106 
L 393.672246 279.459357 
L 394.216535 280.099958 
L 394.255117 280.754313 
L 394.517723 280.742895 
L 394.645587 281.837944 
L 394.660663 282.277366 
L 395.141268 282.717592 
L 395.917868 282.696439 
L 396.432635 284.023126 
L 396.634265 284.466981 
L 397.619051 284.689215 
L 397.90208 285.134297 
L 397.986079 285.5802 
L 398.487273 286.026925 
L 398.487273 286.026925 
" style="fill:none;stroke:#2ca02c;stroke-dasharray:1.5,2.475;stroke-dashoffset:0;stroke-width:1.5;"/>
   </g>
   <g id="line2d_16">
    <defs>
     <path d="M 0 1.5 
C 0.397805 1.5 0.77937 1.341951 1.06066 1.06066 
C 1.341951 0.77937 1.5 0.397805 1.5 0 
C 1.5 -0.397805 1.341951 -0.77937 1.06066 -1.06066 
C 0.77937 -1.341951 0.397805 -1.5 0 -1.5 
C -0.397805 -1.5 -0.77937 -1.341951 -1.06066 -1.06066 
C -1.341951 -0.77937 -1.5 -0.397805 -1.5 0 
C -1.5 0.397805 -1.341951 0.77937 -1.06066 1.06066 
C -0.77937 1.341951 -0.397805 1.5 0 1.5 
z
" id="mabb42ef06e" style="stroke:#008000;"/>
    </defs>
    <g clip-path="url(#p7b2bfcd29e)">
     <use style="fill:#008000;stroke:#008000;" x="297.188117" xlink:href="#mabb42ef06e" y="93.516719"/>
    </g>
   </g>
   <g id="patch_3">
    <path d="M 57.6 307.584 
L 57.6 41.472 
" style="fill:none;stroke:#000000;stroke-linecap:square;stroke-linejoin:miter;stroke-width:0.8;"/>
   </g>
   <g id="patch_4">
    <path d="M 414.72 307.584 
L 414.72 41.472 
" style="fill:none;stroke:#000000;stroke-linecap:square;stroke-linejoin:miter;stroke-width:0.8;"/>
   </g>
   <g id="patch_5">
    <path d="M 57.6 307.584 
L 414.72 307.584 
" style="fill:none;stroke:#000000;stroke-linecap:square;stroke-linejoin:miter;stroke-width:0.8;"/>
   </g>
   <g id="patch_6">
    <path d="M 57.6 41.472 
L 414.72 41.472 
" style="fill:none;stroke:#000000;stroke-linecap:square;stroke-linejoin:miter;stroke-width:0.8;"/>
   </g>
   <g id="text_15">
    <!-- (2.55 0.84) -->
    <g style="fill:#008000;" transform="translate(221.659442 93.516719)scale(0.1 -0.1)">
     <defs>
      <path d="M 1984 4856 
Q 1566 4138 1362 3434 
Q 1159 2731 1159 2009 
Q 1159 1288 1364 580 
Q 1569 -128 1984 -844 
L 1484 -844 
Q 1016 -109 783 600 
Q 550 1309 550 2009 
Q 550 2706 781 3412 
Q 1013 4119 1484 4856 
L 1984 4856 
z
" id="DejaVuSans-28" transform="scale(0.015625)"/>
      <path d="M 691 4666 
L 3169 4666 
L 3169 4134 
L 1269 4134 
L 1269 2991 
Q 1406 3038 1543 3061 
Q 1681 3084 1819 3084 
Q 2600 3084 3056 2656 
Q 3513 2228 3513 1497 
Q 3513 744 3044 326 
Q 2575 -91 1722 -91 
Q 1428 -91 1123 -41 
Q 819 9 494 109 
L 494 744 
Q 775 591 1075 516 
Q 1375 441 1709 441 
Q 2250 441 2565 725 
Q 2881 1009 2881 1497 
Q 2881 1984 2565 2268 
Q 2250 2553 1709 2553 
Q 1456 2553 1204 2497 
Q 953 2441 691 2322 
L 691 4666 
z
" id="DejaVuSans-35" transform="scale(0.015625)"/>
      <path id="DejaVuSans-20" transform="scale(0.015625)"/>
      <path d="M 513 4856 
L 1013 4856 
Q 1481 4119 1714 3412 
Q 1947 2706 1947 2009 
Q 1947 1309 1714 600 
Q 1481 -109 1013 -844 
L 513 -844 
Q 928 -128 1133 580 
Q 1338 1288 1338 2009 
Q 1338 2731 1133 3434 
Q 928 4138 513 4856 
z
" id="DejaVuSans-29" transform="scale(0.015625)"/>
     </defs>
     <use xlink:href="#DejaVuSans-28"/>
     <use x="39.013672" xlink:href="#DejaVuSans-32"/>
     <use x="102.636719" xlink:href="#DejaVuSans-2e"/>
     <use x="134.423828" xlink:href="#DejaVuSans-35"/>
     <use x="198.046875" xlink:href="#DejaVuSans-35"/>
     <use x="261.669922" xlink:href="#DejaVuSans-20"/>
     <use x="293.457031" xlink:href="#DejaVuSans-30"/>
     <use x="357.080078" xlink:href="#DejaVuSans-2e"/>
     <use x="388.867188" xlink:href="#DejaVuSans-38"/>
     <use x="452.490234" xlink:href="#DejaVuSans-34"/>
     <use x="516.113281" xlink:href="#DejaVuSans-29"/>
    </g>
   </g>
   <g id="legend_1">
    <g id="patch_7">
     <path d="M 197.852969 302.584 
L 274.467031 302.584 
Q 276.467031 302.584 276.467031 300.584 
L 276.467031 257.549625 
Q 276.467031 255.549625 274.467031 255.549625 
L 197.852969 255.549625 
Q 195.852969 255.549625 195.852969 257.549625 
L 195.852969 300.584 
Q 195.852969 302.584 197.852969 302.584 
z
" style="fill:#ffffff;opacity:0.8;stroke:#cccccc;stroke-linejoin:miter;"/>
    </g>
    <g id="line2d_17">
     <path d="M 199.852969 263.648062 
L 219.852969 263.648062 
" style="fill:none;stroke:#1f77b4;stroke-dasharray:5.55,2.4;stroke-dashoffset:0;stroke-width:1.5;"/>
    </g>
    <g id="line2d_18"/>
    <g id="text_16">
     <!-- Precision -->
     <g transform="translate(227.852969 267.148062)scale(0.1 -0.1)">
      <defs>
       <path d="M 1259 4147 
L 1259 2394 
L 2053 2394 
Q 2494 2394 2734 2622 
Q 2975 2850 2975 3272 
Q 2975 3691 2734 3919 
Q 2494 4147 2053 4147 
L 1259 4147 
z
M 628 4666 
L 2053 4666 
Q 2838 4666 3239 4311 
Q 3641 3956 3641 3272 
Q 3641 2581 3239 2228 
Q 2838 1875 2053 1875 
L 1259 1875 
L 1259 0 
L 628 0 
L 628 4666 
z
" id="DejaVuSans-50" transform="scale(0.015625)"/>
       <path d="M 3513 2113 
L 3513 0 
L 2938 0 
L 2938 2094 
Q 2938 2591 2744 2837 
Q 2550 3084 2163 3084 
Q 1697 3084 1428 2787 
Q 1159 2491 1159 1978 
L 1159 0 
L 581 0 
L 581 3500 
L 1159 3500 
L 1159 2956 
Q 1366 3272 1645 3428 
Q 1925 3584 2291 3584 
Q 2894 3584 3203 3211 
Q 3513 2838 3513 2113 
z
" id="DejaVuSans-6e" transform="scale(0.015625)"/>
      </defs>
      <use xlink:href="#DejaVuSans-50"/>
      <use x="58.552734" xlink:href="#DejaVuSans-72"/>
      <use x="97.416016" xlink:href="#DejaVuSans-65"/>
      <use x="158.939453" xlink:href="#DejaVuSans-63"/>
      <use x="213.919922" xlink:href="#DejaVuSans-69"/>
      <use x="241.703125" xlink:href="#DejaVuSans-73"/>
      <use x="293.802734" xlink:href="#DejaVuSans-69"/>
      <use x="321.585938" xlink:href="#DejaVuSans-6f"/>
      <use x="382.767578" xlink:href="#DejaVuSans-6e"/>
     </g>
    </g>
    <g id="line2d_19">
     <path d="M 199.852969 278.326188 
L 219.852969 278.326188 
" style="fill:none;stroke:#ff7f0e;stroke-dasharray:9.6,2.4,1.5,2.4;stroke-dashoffset:0;stroke-width:1.5;"/>
    </g>
    <g id="line2d_20"/>
    <g id="text_17">
     <!-- Recall -->
     <g transform="translate(227.852969 281.826188)scale(0.1 -0.1)">
      <defs>
       <path d="M 2841 2188 
Q 3044 2119 3236 1894 
Q 3428 1669 3622 1275 
L 4263 0 
L 3584 0 
L 2988 1197 
Q 2756 1666 2539 1819 
Q 2322 1972 1947 1972 
L 1259 1972 
L 1259 0 
L 628 0 
L 628 4666 
L 2053 4666 
Q 2853 4666 3247 4331 
Q 3641 3997 3641 3322 
Q 3641 2881 3436 2590 
Q 3231 2300 2841 2188 
z
M 1259 4147 
L 1259 2491 
L 2053 2491 
Q 2509 2491 2742 2702 
Q 2975 2913 2975 3322 
Q 2975 3731 2742 3939 
Q 2509 4147 2053 4147 
L 1259 4147 
z
" id="DejaVuSans-52" transform="scale(0.015625)"/>
       <path d="M 2194 1759 
Q 1497 1759 1228 1600 
Q 959 1441 959 1056 
Q 959 750 1161 570 
Q 1363 391 1709 391 
Q 2188 391 2477 730 
Q 2766 1069 2766 1631 
L 2766 1759 
L 2194 1759 
z
M 3341 1997 
L 3341 0 
L 2766 0 
L 2766 531 
Q 2569 213 2275 61 
Q 1981 -91 1556 -91 
Q 1019 -91 701 211 
Q 384 513 384 1019 
Q 384 1609 779 1909 
Q 1175 2209 1959 2209 
L 2766 2209 
L 2766 2266 
Q 2766 2663 2505 2880 
Q 2244 3097 1772 3097 
Q 1472 3097 1187 3025 
Q 903 2953 641 2809 
L 641 3341 
Q 956 3463 1253 3523 
Q 1550 3584 1831 3584 
Q 2591 3584 2966 3190 
Q 3341 2797 3341 1997 
z
" id="DejaVuSans-61" transform="scale(0.015625)"/>
      </defs>
      <use xlink:href="#DejaVuSans-52"/>
      <use x="64.982422" xlink:href="#DejaVuSans-65"/>
      <use x="126.505859" xlink:href="#DejaVuSans-63"/>
      <use x="181.486328" xlink:href="#DejaVuSans-61"/>
      <use x="242.765625" xlink:href="#DejaVuSans-6c"/>
      <use x="270.548828" xlink:href="#DejaVuSans-6c"/>
     </g>
    </g>
    <g id="line2d_21">
     <path d="M 199.852969 293.004312 
L 219.852969 293.004312 
" style="fill:none;stroke:#2ca02c;stroke-dasharray:1.5,2.475;stroke-dashoffset:0;stroke-width:1.5;"/>
    </g>
    <g id="line2d_22"/>
    <g id="text_18">
     <!-- F1 score -->
     <g transform="translate(227.852969 296.504312)scale(0.1 -0.1)">
      <defs>
       <path d="M 628 4666 
L 3309 4666 
L 3309 4134 
L 1259 4134 
L 1259 2759 
L 3109 2759 
L 3109 2228 
L 1259 2228 
L 1259 0 
L 628 0 
L 628 4666 
z
" id="DejaVuSans-46" transform="scale(0.015625)"/>
      </defs>
      <use xlink:href="#DejaVuSans-46"/>
      <use x="57.519531" xlink:href="#DejaVuSans-31"/>
      <use x="121.142578" xlink:href="#DejaVuSans-20"/>
      <use x="152.929688" xlink:href="#DejaVuSans-73"/>
      <use x="205.029297" xlink:href="#DejaVuSans-63"/>
      <use x="260.009766" xlink:href="#DejaVuSans-6f"/>
      <use x="321.191406" xlink:href="#DejaVuSans-72"/>
      <use x="360.054688" xlink:href="#DejaVuSans-65"/>
     </g>
    </g>
   </g>
  </g>
 </g>
 <defs>
  <clipPath id="p7b2bfcd29e">
   <rect height="266.112" width="357.12" x="57.6" y="41.472"/>
  </clipPath>
 </defs>
</svg>
