<?xml version="1.0" encoding="utf-8" standalone="no"?>
<!DOCTYPE svg PUBLIC "-//W3C//DTD SVG 1.1//EN"
  "http://www.w3.org/Graphics/SVG/1.1/DTD/svg11.dtd">
<svg height="345.6pt" version="1.1" viewBox="0 0 460.8 345.6" width="460.8pt" xmlns="http://www.w3.org/2000/svg" xmlns:xlink="http://www.w3.org/1999/xlink">
 <metadata>
  <rdf:RDF xmlns:cc="http://creativecommons.org/ns#" xmlns:dc="http://purl.org/dc/elements/1.1/" xmlns:rdf="http://www.w3.org/1999/02/22-rdf-syntax-ns#">
   <cc:Work>
    <dc:type rdf:resource="http://purl.org/dc/dcmitype/StillImage"/>
    <dc:date>2021-06-27T11:00:55.487773</dc:date>
    <dc:format>image/svg+xml</dc:format>
    <dc:creator>
     <cc:Agent>
      <dc:title>Matplotlib v3.4.2, https://matplotlib.org/</dc:title>
     </cc:Agent>
    </dc:creator>
   </cc:Work>
  </rdf:RDF>
 </metadata>
 <defs>
  <style type="text/css">*{stroke-linecap:butt;stroke-linejoin:round;}</style>
 </defs>
 <g id="figure_1">
  <g id="patch_1">
   <path d="M 0 345.6 
L 460.8 345.6 
L 460.8 0 
L 0 0 
z
" style="fill:#ffffff;"/>
  </g>
  <g id="axes_1">
   <g id="patch_2">
    <path d="M 57.6 307.584 
L 414.72 307.584 
L 414.72 41.472 
L 57.6 41.472 
z
" style="fill:#ffffff;"/>
   </g>
   <g id="matplotlib.axis_1">
    <g id="xtick_1">
     <g id="line2d_1">
      <defs>
       <path d="M 0 0 
L 0 3.5 
" id="m5df9d9ce75" style="stroke:#000000;stroke-width:0.8;"/>
      </defs>
      <g>
       <use style="stroke:#000000;stroke-width:0.8;" x="105.206059" xlink:href="#m5df9d9ce75" y="307.584"/>
      </g>
     </g>
     <g id="text_1">
      <!-- −2 -->
      <g transform="translate(97.834965 322.182437)scale(0.1 -0.1)">
       <defs>
        <path d="M 678 2272 
L 4684 2272 
L 4684 1741 
L 678 1741 
L 678 2272 
z
" id="DejaVuSans-2212" transform="scale(0.015625)"/>
        <path d="M 1228 531 
L 3431 531 
L 3431 0 
L 469 0 
L 469 531 
Q 828 903 1448 1529 
Q 2069 2156 2228 2338 
Q 2531 2678 2651 2914 
Q 2772 3150 2772 3378 
Q 2772 3750 2511 3984 
Q 2250 4219 1831 4219 
Q 1534 4219 1204 4116 
Q 875 4013 500 3803 
L 500 4441 
Q 881 4594 1212 4672 
Q 1544 4750 1819 4750 
Q 2544 4750 2975 4387 
Q 3406 4025 3406 3419 
Q 3406 3131 3298 2873 
Q 3191 2616 2906 2266 
Q 2828 2175 2409 1742 
Q 1991 1309 1228 531 
z
" id="DejaVuSans-32" transform="scale(0.015625)"/>
       </defs>
       <use xlink:href="#DejaVuSans-2212"/>
       <use x="83.789062" xlink:href="#DejaVuSans-32"/>
      </g>
     </g>
    </g>
    <g id="xtick_2">
     <g id="line2d_2">
      <g>
       <use style="stroke:#000000;stroke-width:0.8;" x="175.52837" xlink:href="#m5df9d9ce75" y="307.584"/>
      </g>
     </g>
     <g id="text_2">
      <!-- 0 -->
      <g transform="translate(172.34712 322.182437)scale(0.1 -0.1)">
       <defs>
        <path d="M 2034 4250 
Q 1547 4250 1301 3770 
Q 1056 3291 1056 2328 
Q 1056 1369 1301 889 
Q 1547 409 2034 409 
Q 2525 409 2770 889 
Q 3016 1369 3016 2328 
Q 3016 3291 2770 3770 
Q 2525 4250 2034 4250 
z
M 2034 4750 
Q 2819 4750 3233 4129 
Q 3647 3509 3647 2328 
Q 3647 1150 3233 529 
Q 2819 -91 2034 -91 
Q 1250 -91 836 529 
Q 422 1150 422 2328 
Q 422 3509 836 4129 
Q 1250 4750 2034 4750 
z
" id="DejaVuSans-30" transform="scale(0.015625)"/>
       </defs>
       <use xlink:href="#DejaVuSans-30"/>
      </g>
     </g>
    </g>
    <g id="xtick_3">
     <g id="line2d_3">
      <g>
       <use style="stroke:#000000;stroke-width:0.8;" x="245.850682" xlink:href="#m5df9d9ce75" y="307.584"/>
      </g>
     </g>
     <g id="text_3">
      <!-- 2 -->
      <g transform="translate(242.669432 322.182437)scale(0.1 -0.1)">
       <use xlink:href="#DejaVuSans-32"/>
      </g>
     </g>
    </g>
    <g id="xtick_4">
     <g id="line2d_4">
      <g>
       <use style="stroke:#000000;stroke-width:0.8;" x="316.172994" xlink:href="#m5df9d9ce75" y="307.584"/>
      </g>
     </g>
     <g id="text_4">
      <!-- 4 -->
      <g transform="translate(312.991744 322.182437)scale(0.1 -0.1)">
       <defs>
        <path d="M 2419 4116 
L 825 1625 
L 2419 1625 
L 2419 4116 
z
M 2253 4666 
L 3047 4666 
L 3047 1625 
L 3713 1625 
L 3713 1100 
L 3047 1100 
L 3047 0 
L 2419 0 
L 2419 1100 
L 313 1100 
L 313 1709 
L 2253 4666 
z
" id="DejaVuSans-34" transform="scale(0.015625)"/>
       </defs>
       <use xlink:href="#DejaVuSans-34"/>
      </g>
     </g>
    </g>
    <g id="xtick_5">
     <g id="line2d_5">
      <g>
       <use style="stroke:#000000;stroke-width:0.8;" x="386.495305" xlink:href="#m5df9d9ce75" y="307.584"/>
      </g>
     </g>
     <g id="text_5">
      <!-- 6 -->
      <g transform="translate(383.314055 322.182437)scale(0.1 -0.1)">
       <defs>
        <path d="M 2113 2584 
Q 1688 2584 1439 2293 
Q 1191 2003 1191 1497 
Q 1191 994 1439 701 
Q 1688 409 2113 409 
Q 2538 409 2786 701 
Q 3034 994 3034 1497 
Q 3034 2003 2786 2293 
Q 2538 2584 2113 2584 
z
M 3366 4563 
L 3366 3988 
Q 3128 4100 2886 4159 
Q 2644 4219 2406 4219 
Q 1781 4219 1451 3797 
Q 1122 3375 1075 2522 
Q 1259 2794 1537 2939 
Q 1816 3084 2150 3084 
Q 2853 3084 3261 2657 
Q 3669 2231 3669 1497 
Q 3669 778 3244 343 
Q 2819 -91 2113 -91 
Q 1303 -91 875 529 
Q 447 1150 447 2328 
Q 447 3434 972 4092 
Q 1497 4750 2381 4750 
Q 2619 4750 2861 4703 
Q 3103 4656 3366 4563 
z
" id="DejaVuSans-36" transform="scale(0.015625)"/>
       </defs>
       <use xlink:href="#DejaVuSans-36"/>
      </g>
     </g>
    </g>
    <g id="text_6">
     <!-- Threshold -->
     <g transform="translate(211.521719 335.860562)scale(0.1 -0.1)">
      <defs>
       <path d="M -19 4666 
L 3928 4666 
L 3928 4134 
L 2272 4134 
L 2272 0 
L 1638 0 
L 1638 4134 
L -19 4134 
L -19 4666 
z
" id="DejaVuSans-54" transform="scale(0.015625)"/>
       <path d="M 3513 2113 
L 3513 0 
L 2938 0 
L 2938 2094 
Q 2938 2591 2744 2837 
Q 2550 3084 2163 3084 
Q 1697 3084 1428 2787 
Q 1159 2491 1159 1978 
L 1159 0 
L 581 0 
L 581 4863 
L 1159 4863 
L 1159 2956 
Q 1366 3272 1645 3428 
Q 1925 3584 2291 3584 
Q 2894 3584 3203 3211 
Q 3513 2838 3513 2113 
z
" id="DejaVuSans-68" transform="scale(0.015625)"/>
       <path d="M 2631 2963 
Q 2534 3019 2420 3045 
Q 2306 3072 2169 3072 
Q 1681 3072 1420 2755 
Q 1159 2438 1159 1844 
L 1159 0 
L 581 0 
L 581 3500 
L 1159 3500 
L 1159 2956 
Q 1341 3275 1631 3429 
Q 1922 3584 2338 3584 
Q 2397 3584 2469 3576 
Q 2541 3569 2628 3553 
L 2631 2963 
z
" id="DejaVuSans-72" transform="scale(0.015625)"/>
       <path d="M 3597 1894 
L 3597 1613 
L 953 1613 
Q 991 1019 1311 708 
Q 1631 397 2203 397 
Q 2534 397 2845 478 
Q 3156 559 3463 722 
L 3463 178 
Q 3153 47 2828 -22 
Q 2503 -91 2169 -91 
Q 1331 -91 842 396 
Q 353 884 353 1716 
Q 353 2575 817 3079 
Q 1281 3584 2069 3584 
Q 2775 3584 3186 3129 
Q 3597 2675 3597 1894 
z
M 3022 2063 
Q 3016 2534 2758 2815 
Q 2500 3097 2075 3097 
Q 1594 3097 1305 2825 
Q 1016 2553 972 2059 
L 3022 2063 
z
" id="DejaVuSans-65" transform="scale(0.015625)"/>
       <path d="M 2834 3397 
L 2834 2853 
Q 2591 2978 2328 3040 
Q 2066 3103 1784 3103 
Q 1356 3103 1142 2972 
Q 928 2841 928 2578 
Q 928 2378 1081 2264 
Q 1234 2150 1697 2047 
L 1894 2003 
Q 2506 1872 2764 1633 
Q 3022 1394 3022 966 
Q 3022 478 2636 193 
Q 2250 -91 1575 -91 
Q 1294 -91 989 -36 
Q 684 19 347 128 
L 347 722 
Q 666 556 975 473 
Q 1284 391 1588 391 
Q 1994 391 2212 530 
Q 2431 669 2431 922 
Q 2431 1156 2273 1281 
Q 2116 1406 1581 1522 
L 1381 1569 
Q 847 1681 609 1914 
Q 372 2147 372 2553 
Q 372 3047 722 3315 
Q 1072 3584 1716 3584 
Q 2034 3584 2315 3537 
Q 2597 3491 2834 3397 
z
" id="DejaVuSans-73" transform="scale(0.015625)"/>
       <path d="M 1959 3097 
Q 1497 3097 1228 2736 
Q 959 2375 959 1747 
Q 959 1119 1226 758 
Q 1494 397 1959 397 
Q 2419 397 2687 759 
Q 2956 1122 2956 1747 
Q 2956 2369 2687 2733 
Q 2419 3097 1959 3097 
z
M 1959 3584 
Q 2709 3584 3137 3096 
Q 3566 2609 3566 1747 
Q 3566 888 3137 398 
Q 2709 -91 1959 -91 
Q 1206 -91 779 398 
Q 353 888 353 1747 
Q 353 2609 779 3096 
Q 1206 3584 1959 3584 
z
" id="DejaVuSans-6f" transform="scale(0.015625)"/>
       <path d="M 603 4863 
L 1178 4863 
L 1178 0 
L 603 0 
L 603 4863 
z
" id="DejaVuSans-6c" transform="scale(0.015625)"/>
       <path d="M 2906 2969 
L 2906 4863 
L 3481 4863 
L 3481 0 
L 2906 0 
L 2906 525 
Q 2725 213 2448 61 
Q 2172 -91 1784 -91 
Q 1150 -91 751 415 
Q 353 922 353 1747 
Q 353 2572 751 3078 
Q 1150 3584 1784 3584 
Q 2172 3584 2448 3432 
Q 2725 3281 2906 2969 
z
M 947 1747 
Q 947 1113 1208 752 
Q 1469 391 1925 391 
Q 2381 391 2643 752 
Q 2906 1113 2906 1747 
Q 2906 2381 2643 2742 
Q 2381 3103 1925 3103 
Q 1469 3103 1208 2742 
Q 947 2381 947 1747 
z
" id="DejaVuSans-64" transform="scale(0.015625)"/>
      </defs>
      <use xlink:href="#DejaVuSans-54"/>
      <use x="61.083984" xlink:href="#DejaVuSans-68"/>
      <use x="124.462891" xlink:href="#DejaVuSans-72"/>
      <use x="163.326172" xlink:href="#DejaVuSans-65"/>
      <use x="224.849609" xlink:href="#DejaVuSans-73"/>
      <use x="276.949219" xlink:href="#DejaVuSans-68"/>
      <use x="340.328125" xlink:href="#DejaVuSans-6f"/>
      <use x="401.509766" xlink:href="#DejaVuSans-6c"/>
      <use x="429.292969" xlink:href="#DejaVuSans-64"/>
     </g>
    </g>
   </g>
   <g id="matplotlib.axis_2">
    <g id="ytick_1">
     <g id="line2d_6">
      <defs>
       <path d="M 0 0 
L -3.5 0 
" id="m36fe9c91ee" style="stroke:#000000;stroke-width:0.8;"/>
      </defs>
      <g>
       <use style="stroke:#000000;stroke-width:0.8;" x="57.6" xlink:href="#m36fe9c91ee" y="304.421174"/>
      </g>
     </g>
     <g id="text_7">
      <!-- 0.0 -->
      <g transform="translate(34.696875 308.220392)scale(0.1 -0.1)">
       <defs>
        <path d="M 684 794 
L 1344 794 
L 1344 0 
L 684 0 
L 684 794 
z
" id="DejaVuSans-2e" transform="scale(0.015625)"/>
       </defs>
       <use xlink:href="#DejaVuSans-30"/>
       <use x="63.623047" xlink:href="#DejaVuSans-2e"/>
       <use x="95.410156" xlink:href="#DejaVuSans-30"/>
      </g>
     </g>
    </g>
    <g id="ytick_2">
     <g id="line2d_7">
      <g>
       <use style="stroke:#000000;stroke-width:0.8;" x="57.6" xlink:href="#m36fe9c91ee" y="254.250539"/>
      </g>
     </g>
     <g id="text_8">
      <!-- 0.2 -->
      <g transform="translate(34.696875 258.049758)scale(0.1 -0.1)">
       <use xlink:href="#DejaVuSans-30"/>
       <use x="63.623047" xlink:href="#DejaVuSans-2e"/>
       <use x="95.410156" xlink:href="#DejaVuSans-32"/>
      </g>
     </g>
    </g>
    <g id="ytick_3">
     <g id="line2d_8">
      <g>
       <use style="stroke:#000000;stroke-width:0.8;" x="57.6" xlink:href="#m36fe9c91ee" y="204.079904"/>
      </g>
     </g>
     <g id="text_9">
      <!-- 0.4 -->
      <g transform="translate(34.696875 207.879123)scale(0.1 -0.1)">
       <use xlink:href="#DejaVuSans-30"/>
       <use x="63.623047" xlink:href="#DejaVuSans-2e"/>
       <use x="95.410156" xlink:href="#DejaVuSans-34"/>
      </g>
     </g>
    </g>
    <g id="ytick_4">
     <g id="line2d_9">
      <g>
       <use style="stroke:#000000;stroke-width:0.8;" x="57.6" xlink:href="#m36fe9c91ee" y="153.909269"/>
      </g>
     </g>
     <g id="text_10">
      <!-- 0.6 -->
      <g transform="translate(34.696875 157.708488)scale(0.1 -0.1)">
       <use xlink:href="#DejaVuSans-30"/>
       <use x="63.623047" xlink:href="#DejaVuSans-2e"/>
       <use x="95.410156" xlink:href="#DejaVuSans-36"/>
      </g>
     </g>
    </g>
    <g id="ytick_5">
     <g id="line2d_10">
      <g>
       <use style="stroke:#000000;stroke-width:0.8;" x="57.6" xlink:href="#m36fe9c91ee" y="103.738635"/>
      </g>
     </g>
     <g id="text_11">
      <!-- 0.8 -->
      <g transform="translate(34.696875 107.537853)scale(0.1 -0.1)">
       <defs>
        <path d="M 2034 2216 
Q 1584 2216 1326 1975 
Q 1069 1734 1069 1313 
Q 1069 891 1326 650 
Q 1584 409 2034 409 
Q 2484 409 2743 651 
Q 3003 894 3003 1313 
Q 3003 1734 2745 1975 
Q 2488 2216 2034 2216 
z
M 1403 2484 
Q 997 2584 770 2862 
Q 544 3141 544 3541 
Q 544 4100 942 4425 
Q 1341 4750 2034 4750 
Q 2731 4750 3128 4425 
Q 3525 4100 3525 3541 
Q 3525 3141 3298 2862 
Q 3072 2584 2669 2484 
Q 3125 2378 3379 2068 
Q 3634 1759 3634 1313 
Q 3634 634 3220 271 
Q 2806 -91 2034 -91 
Q 1263 -91 848 271 
Q 434 634 434 1313 
Q 434 1759 690 2068 
Q 947 2378 1403 2484 
z
M 1172 3481 
Q 1172 3119 1398 2916 
Q 1625 2713 2034 2713 
Q 2441 2713 2670 2916 
Q 2900 3119 2900 3481 
Q 2900 3844 2670 4047 
Q 2441 4250 2034 4250 
Q 1625 4250 1398 4047 
Q 1172 3844 1172 3481 
z
" id="DejaVuSans-38" transform="scale(0.015625)"/>
       </defs>
       <use xlink:href="#DejaVuSans-30"/>
       <use x="63.623047" xlink:href="#DejaVuSans-2e"/>
       <use x="95.410156" xlink:href="#DejaVuSans-38"/>
      </g>
     </g>
    </g>
    <g id="ytick_6">
     <g id="line2d_11">
      <g>
       <use style="stroke:#000000;stroke-width:0.8;" x="57.6" xlink:href="#m36fe9c91ee" y="53.568"/>
      </g>
     </g>
     <g id="text_12">
      <!-- 1.0 -->
      <g transform="translate(34.696875 57.367219)scale(0.1 -0.1)">
       <defs>
        <path d="M 794 531 
L 1825 531 
L 1825 4091 
L 703 3866 
L 703 4441 
L 1819 4666 
L 2450 4666 
L 2450 531 
L 3481 531 
L 3481 0 
L 794 0 
L 794 531 
z
" id="DejaVuSans-31" transform="scale(0.015625)"/>
       </defs>
       <use xlink:href="#DejaVuSans-31"/>
       <use x="63.623047" xlink:href="#DejaVuSans-2e"/>
       <use x="95.410156" xlink:href="#DejaVuSans-30"/>
      </g>
     </g>
    </g>
    <g id="text_13">
     <!-- Metrics -->
     <g transform="translate(28.617187 192.677219)rotate(-90)scale(0.1 -0.1)">
      <defs>
       <path d="M 628 4666 
L 1569 4666 
L 2759 1491 
L 3956 4666 
L 4897 4666 
L 4897 0 
L 4281 0 
L 4281 4097 
L 3078 897 
L 2444 897 
L 1241 4097 
L 1241 0 
L 628 0 
L 628 4666 
z
" id="DejaVuSans-4d" transform="scale(0.015625)"/>
       <path d="M 1172 4494 
L 1172 3500 
L 2356 3500 
L 2356 3053 
L 1172 3053 
L 1172 1153 
Q 1172 725 1289 603 
Q 1406 481 1766 481 
L 2356 481 
L 2356 0 
L 1766 0 
Q 1100 0 847 248 
Q 594 497 594 1153 
L 594 3053 
L 172 3053 
L 172 3500 
L 594 3500 
L 594 4494 
L 1172 4494 
z
" id="DejaVuSans-74" transform="scale(0.015625)"/>
       <path d="M 603 3500 
L 1178 3500 
L 1178 0 
L 603 0 
L 603 3500 
z
M 603 4863 
L 1178 4863 
L 1178 4134 
L 603 4134 
L 603 4863 
z
" id="DejaVuSans-69" transform="scale(0.015625)"/>
       <path d="M 3122 3366 
L 3122 2828 
Q 2878 2963 2633 3030 
Q 2388 3097 2138 3097 
Q 1578 3097 1268 2742 
Q 959 2388 959 1747 
Q 959 1106 1268 751 
Q 1578 397 2138 397 
Q 2388 397 2633 464 
Q 2878 531 3122 666 
L 3122 134 
Q 2881 22 2623 -34 
Q 2366 -91 2075 -91 
Q 1284 -91 818 406 
Q 353 903 353 1747 
Q 353 2603 823 3093 
Q 1294 3584 2113 3584 
Q 2378 3584 2631 3529 
Q 2884 3475 3122 3366 
z
" id="DejaVuSans-63" transform="scale(0.015625)"/>
      </defs>
      <use xlink:href="#DejaVuSans-4d"/>
      <use x="86.279297" xlink:href="#DejaVuSans-65"/>
      <use x="147.802734" xlink:href="#DejaVuSans-74"/>
      <use x="187.011719" xlink:href="#DejaVuSans-72"/>
      <use x="228.125" xlink:href="#DejaVuSans-69"/>
      <use x="255.908203" xlink:href="#DejaVuSans-63"/>
      <use x="310.888672" xlink:href="#DejaVuSans-73"/>
     </g>
    </g>
   </g>
   <g id="line2d_12">
    <path clip-path="url(#p576f8a86bf)" d="M 73.832727 53.568 
L 73.954485 53.688719 
L 76.431369 53.688719 
L 76.545727 53.809437 
L 87.120253 53.809437 
L 87.266526 53.930156 
L 90.551817 53.930156 
L 90.568275 54.050874 
L 101.171247 54.050874 
L 101.298265 54.171593 
L 106.388386 54.171593 
L 106.583476 54.292311 
L 118.461398 54.292311 
L 118.814465 54.41303 
L 124.152907 54.41303 
L 124.67334 54.533749 
L 127.077266 54.533749 
L 127.247726 54.654467 
L 137.216112 54.654467 
L 137.254575 54.775186 
L 139.300883 54.775186 
L 139.417051 54.895904 
L 140.681375 54.895904 
L 141.024237 55.016623 
L 146.278628 55.016623 
L 146.420404 55.137341 
L 149.145774 55.137341 
L 149.339459 55.25806 
L 150.253716 55.25806 
L 150.430747 55.499497 
L 156.787338 55.499497 
L 158.283987 55.740934 
L 159.034478 55.740934 
L 159.28051 55.861653 
L 160.248148 55.861653 
L 160.250858 55.982371 
L 160.520559 55.982371 
L 161.598189 56.10309 
L 170.803452 56.10309 
L 170.998033 56.223808 
L 171.28934 56.223808 
L 171.698858 56.465246 
L 172.191567 56.465246 
L 172.307686 56.585964 
L 173.276011 56.585964 
L 173.357027 56.706683 
L 176.705392 56.706683 
L 176.756541 56.827401 
L 176.920661 56.827401 
L 177.355673 57.189557 
L 177.875792 57.189557 
L 178.040617 57.310275 
L 178.644696 57.310275 
L 178.793809 57.430994 
L 179.033284 57.430994 
L 179.105897 57.551713 
L 181.343438 57.551713 
L 181.859014 57.672431 
L 182.129568 57.672431 
L 182.226572 57.79315 
L 183.698031 57.79315 
L 184.130495 58.034587 
L 184.966082 58.034587 
L 185.076529 58.155305 
L 186.605519 58.155305 
L 186.65206 58.276024 
L 187.228304 58.276024 
L 187.445387 58.396743 
L 191.840821 58.396743 
L 191.950344 58.517461 
L 195.71124 58.517461 
L 196.002519 58.63818 
L 197.287834 58.63818 
L 197.390062 58.758898 
L 202.614368 58.758898 
L 203.373488 59.121054 
L 204.063275 59.121054 
L 204.434241 59.241772 
L 209.149022 59.241772 
L 209.183906 59.362491 
L 209.48887 59.362491 
L 209.53521 59.48321 
L 211.890214 59.48321 
L 212.573634 59.603928 
L 212.883492 59.603928 
L 213.010201 59.724647 
L 213.950663 59.724647 
L 214.113567 59.845365 
L 214.619797 59.845365 
L 214.766118 59.966084 
L 215.486883 59.966084 
L 215.640528 60.086802 
L 216.079409 60.086802 
L 216.24123 60.32824 
L 216.577286 60.32824 
L 216.773704 60.448958 
L 217.228178 60.448958 
L 217.392112 60.569677 
L 217.84202 60.569677 
L 218.415005 60.811114 
L 218.941685 60.811114 
L 218.957847 60.931832 
L 221.30287 60.931832 
L 221.769798 61.173269 
L 222.087268 61.173269 
L 222.282067 61.535425 
L 222.36942 61.656144 
L 223.305685 61.656144 
L 223.450234 61.776862 
L 225.016096 61.776862 
L 225.096525 61.897581 
L 225.595085 61.897581 
L 225.668817 62.139018 
L 226.076781 62.139018 
L 226.100586 62.259737 
L 226.368043 62.259737 
L 226.417091 62.380455 
L 226.641018 62.380455 
L 226.807858 62.501174 
L 226.974631 62.501174 
L 227.004464 62.621892 
L 227.135887 62.621892 
L 227.390926 62.984048 
L 227.744393 62.984048 
L 227.837845 63.104766 
L 228.197419 63.104766 
L 228.36787 63.225485 
L 228.496825 63.225485 
L 228.622397 63.466922 
L 229.052537 63.466922 
L 229.745695 63.587641 
L 229.953979 63.587641 
L 230.123627 63.949796 
L 230.7723 63.949796 
L 231.00231 64.070515 
L 231.551824 64.070515 
L 231.655243 64.311952 
L 233.220545 64.311952 
L 233.394671 64.432671 
L 233.729193 64.432671 
L 233.914946 64.553389 
L 234.477512 65.036263 
L 234.955341 65.036263 
L 235.05448 65.277701 
L 235.464464 65.277701 
L 235.584264 65.519138 
L 236.001736 65.519138 
L 236.130966 65.760575 
L 236.477482 65.760575 
L 236.531003 65.881293 
L 236.81804 65.881293 
L 236.840848 66.002012 
L 236.960559 66.002012 
L 237.043404 66.122731 
L 237.103051 66.122731 
L 237.190695 66.243449 
L 237.549861 66.243449 
L 237.624542 66.484886 
L 238.959028 66.484886 
L 239.214417 67.329916 
L 239.479479 67.329916 
L 239.688252 67.450635 
L 240.361105 67.450635 
L 240.464062 67.571353 
L 240.588838 67.692072 
L 240.856963 67.692072 
L 241.084751 67.933509 
L 241.20392 67.933509 
L 241.403833 68.054228 
L 242.146235 68.054228 
L 242.282093 68.174946 
L 242.491421 68.174946 
L 242.689105 68.416383 
L 242.699173 68.416383 
L 242.757712 68.537102 
L 244.135944 68.537102 
L 244.250132 68.899257 
L 244.483849 69.019976 
L 244.704854 69.019976 
L 244.958316 69.382132 
L 245.208696 69.382132 
L 245.497557 69.623569 
L 245.946973 69.623569 
L 246.486606 69.865006 
L 246.518478 69.985725 
L 246.860441 69.985725 
L 246.929475 70.106443 
L 247.346854 70.106443 
L 247.658682 70.227162 
L 247.777993 70.227162 
L 247.990281 70.34788 
L 248.63501 70.34788 
L 248.734061 70.468599 
L 248.916136 70.468599 
L 249.056 70.710036 
L 249.189174 70.710036 
L 249.43204 70.830754 
L 249.796123 70.830754 
L 250.060688 71.19291 
L 250.252 71.19291 
L 250.597302 71.675784 
L 251.032937 71.917222 
L 251.567861 71.917222 
L 251.690386 72.03794 
L 251.838391 72.03794 
L 251.921181 72.158659 
L 252.405273 72.158659 
L 252.561256 72.279377 
L 252.951428 72.279377 
L 252.998538 72.520814 
L 253.475981 72.520814 
L 254.25281 73.245126 
L 254.800526 73.245126 
L 254.911607 73.365844 
L 255.091308 73.365844 
L 255.168148 73.486563 
L 255.270596 73.728 
L 255.587706 73.728 
L 255.607376 73.848719 
L 256.009648 73.969437 
L 256.780348 73.969437 
L 256.796747 74.090156 
L 257.069066 74.331593 
L 257.183013 74.57303 
L 257.583336 74.57303 
L 257.692564 74.693749 
L 257.814086 74.693749 
L 257.83133 74.814467 
L 258.047388 74.814467 
L 258.365414 75.297341 
L 258.488392 75.297341 
L 258.567446 75.41806 
L 259.022212 75.41806 
L 259.513008 75.780216 
L 259.962724 75.780216 
L 260.184002 76.142371 
L 260.239094 76.142371 
L 260.281519 76.26309 
L 260.446288 76.26309 
L 262.157644 78.073868 
L 262.316924 78.315305 
L 262.493504 78.677461 
L 262.887587 78.677461 
L 263.128855 78.79818 
L 263.774886 78.79818 
L 264.997515 79.281054 
L 265.077935 79.401772 
L 265.235073 79.401772 
L 265.352733 79.64321 
L 265.425925 79.884647 
L 265.734831 80.126084 
L 265.931491 80.367521 
L 265.992722 80.850395 
L 266.82673 81.333269 
L 266.831699 81.453988 
L 267.202303 81.453988 
L 267.654243 81.936862 
L 267.98596 81.936862 
L 268.451886 82.781892 
L 268.676165 82.781892 
L 268.687241 82.902611 
L 268.879978 82.902611 
L 271.344957 84.954826 
L 271.374233 91.594347 
L 271.45013 105.114826 
L 271.566347 105.114826 
L 271.689878 105.597701 
L 271.896292 106.080575 
L 272.052627 106.322012 
L 272.325492 107.046323 
L 272.480739 107.167042 
L 272.688518 107.167042 
L 273.312031 107.529198 
L 273.602826 108.13279 
L 273.787374 108.13279 
L 273.84068 108.494946 
L 274.094645 108.494946 
L 274.827038 108.97782 
L 274.996778 108.97782 
L 275.052539 109.219257 
L 275.231215 109.219257 
L 275.34929 109.339976 
L 275.488784 109.702132 
L 275.844973 110.305725 
L 275.964645 110.547162 
L 276.046878 110.547162 
L 276.202541 110.909317 
L 276.280834 110.909317 
L 276.414111 111.51291 
L 277.022076 111.754347 
L 277.173977 112.237222 
L 277.545622 112.720096 
L 277.654732 112.720096 
L 277.879405 113.082251 
L 278.056607 113.082251 
L 278.097199 113.565126 
L 278.64906 113.927281 
L 278.807419 114.289437 
L 278.927294 114.289437 
L 279.145303 114.651593 
L 279.978132 116.341653 
L 280.3349 116.341653 
L 280.546051 117.065964 
L 280.73733 117.42812 
L 280.836287 117.910994 
L 281.331828 117.910994 
L 281.410047 118.031713 
L 281.69101 118.393868 
L 281.89278 121.170395 
L 282.011147 121.170395 
L 282.256855 121.532551 
L 282.329461 121.532551 
L 282.345297 121.773988 
L 282.613188 121.773988 
L 282.724137 122.256862 
L 283.293207 123.222611 
L 283.415652 123.222611 
L 283.538616 123.826204 
L 283.807155 124.188359 
L 284.087027 124.791952 
L 284.152064 125.154108 
L 284.270588 125.154108 
L 284.443928 125.757701 
L 284.664557 126.602731 
L 284.826162 126.844168 
L 285.121147 127.206323 
L 285.161049 127.327042 
L 285.364116 127.327042 
L 285.486411 127.689198 
L 285.908127 128.29279 
L 286.191517 128.654946 
L 286.289682 129.017102 
L 286.519743 129.017102 
L 286.591055 129.13782 
L 286.838711 129.13782 
L 286.90955 129.499976 
L 287.670954 130.103569 
L 287.974328 130.224287 
L 288.060089 130.707162 
L 288.144872 130.707162 
L 288.485782 130.948599 
L 288.668735 131.552192 
L 288.789736 131.67291 
L 288.974939 131.67291 
L 289.581499 132.276503 
L 289.6333 132.276503 
L 289.672342 132.397222 
L 289.905339 132.397222 
L 289.992184 132.51794 
L 290.055569 132.880096 
L 290.203487 132.880096 
L 290.390139 133.36297 
L 290.588165 133.604407 
L 290.728943 133.845844 
L 290.998225 133.845844 
L 291.153789 134.087281 
L 291.213005 134.087281 
L 291.366353 134.690874 
L 291.572293 134.690874 
L 291.587849 134.811593 
L 291.730751 134.811593 
L 292.163996 135.535904 
L 292.549827 136.380934 
L 292.749092 136.380934 
L 293.060156 136.74309 
L 293.224721 137.58812 
L 293.357842 137.58812 
L 293.60364 138.070994 
L 293.698958 138.070994 
L 293.938069 138.674587 
L 294.108837 138.916024 
L 294.399125 139.519617 
L 294.413669 139.519617 
L 294.465721 140.002491 
L 294.627669 140.002491 
L 294.63913 140.12321 
L 294.852364 140.364647 
L 294.969029 140.485365 
L 295.079224 141.933988 
L 295.110522 141.933988 
L 295.730042 142.658299 
L 295.94881 142.658299 
L 296.157818 143.020455 
L 296.219936 143.020455 
L 296.367235 143.382611 
L 296.521683 144.469078 
L 296.603941 144.469078 
L 296.627647 144.589796 
L 296.982405 144.951952 
L 297.044033 145.193389 
L 297.137525 146.159138 
L 297.435857 146.159138 
L 297.522643 146.521293 
L 297.687218 146.521293 
L 297.725583 146.642012 
L 297.906811 146.642012 
L 298.095917 146.762731 
L 298.096871 147.124886 
L 298.209656 147.124886 
L 298.434159 147.60776 
L 298.582691 147.60776 
L 298.718988 147.728479 
L 298.791574 148.090635 
L 298.901137 148.090635 
L 299.184479 148.332072 
L 299.407732 148.573509 
L 299.520826 149.177102 
L 299.553172 149.177102 
L 299.801647 150.14285 
L 300.137477 150.384287 
L 300.255994 150.625725 
L 300.341999 150.625725 
L 300.626582 150.98788 
L 300.841896 151.229317 
L 300.998483 151.712192 
L 301.305226 151.83291 
L 301.453593 151.83291 
L 301.998831 152.074347 
L 302.57064 152.919377 
L 302.690797 153.281533 
L 303.009463 154.247281 
L 303.121559 154.247281 
L 303.211721 154.488719 
L 303.457814 154.730156 
L 303.591891 154.730156 
L 304.127601 155.333749 
L 304.134096 155.454467 
L 304.862295 155.937341 
L 305.076053 155.937341 
L 305.649928 157.265246 
L 305.665023 157.265246 
L 305.778883 157.506683 
L 306.053456 157.989557 
L 306.148891 158.230994 
L 306.229624 158.351713 
L 306.404301 158.351713 
L 306.478295 158.59315 
L 306.648859 158.834587 
L 306.792845 159.679617 
L 307.111965 159.921054 
L 307.259872 160.645365 
L 307.402258 160.645365 
L 307.498891 160.886802 
L 307.55474 160.886802 
L 307.561978 161.12824 
L 307.813493 161.369677 
L 307.946449 161.731832 
L 307.975194 161.731832 
L 308.064452 161.973269 
L 308.214935 162.214707 
L 308.292571 162.456144 
L 308.344454 162.456144 
L 308.382999 162.818299 
L 309.000705 163.663329 
L 309.155058 164.387641 
L 309.310576 164.508359 
L 309.557018 164.508359 
L 309.707139 164.991234 
L 309.800739 165.232671 
L 310.116569 165.474108 
L 310.215844 165.474108 
L 310.29038 165.594826 
L 310.442549 165.594826 
L 310.520128 166.077701 
L 310.726965 166.319138 
L 311.013773 166.681293 
L 311.049946 166.802012 
L 311.168188 166.802012 
L 311.44646 167.043449 
L 312.084814 167.647042 
L 312.181585 167.76776 
L 312.220806 167.76776 
L 312.295708 167.888479 
L 312.497637 168.129916 
L 312.608832 168.61279 
L 312.800661 168.61279 
L 312.942973 169.216383 
L 313.253565 169.45782 
L 313.475457 170.061413 
L 313.54303 170.061413 
L 313.598399 170.423569 
L 313.852033 170.906443 
L 313.944943 171.14788 
L 314.30051 171.630754 
L 315.983275 175.010874 
L 316.227125 175.252311 
L 316.230993 175.37303 
L 316.479096 175.614467 
L 316.503406 175.855904 
L 317.08141 176.580216 
L 317.216721 177.425246 
L 317.368369 177.425246 
L 317.584373 178.028838 
L 317.676425 178.390994 
L 317.968096 178.632431 
L 318.481272 179.236024 
L 318.535636 179.236024 
L 318.635946 179.356743 
L 318.684101 180.081054 
L 318.758872 180.081054 
L 318.918874 180.44321 
L 319.452598 180.926084 
L 319.519967 180.926084 
L 320.300934 182.133269 
L 320.53115 182.253988 
L 320.760235 183.702611 
L 320.778469 183.702611 
L 320.927386 183.823329 
L 321.060492 184.426922 
L 321.13085 184.426922 
L 321.351859 185.151234 
L 321.629795 185.151234 
L 321.800702 185.875545 
L 321.988647 186.358419 
L 322.092721 186.358419 
L 322.22891 186.720575 
L 322.268459 186.720575 
L 322.272594 186.841293 
L 322.572122 186.962012 
L 322.684871 187.807042 
L 322.704119 187.807042 
L 322.79504 188.169198 
L 322.946654 188.531353 
L 323.240731 188.77279 
L 323.372756 188.893509 
L 323.549158 189.134946 
L 323.837478 189.376383 
L 323.953637 189.738539 
L 324.176718 189.738539 
L 324.34812 190.100695 
L 324.531342 190.100695 
L 324.551923 190.221413 
L 324.743518 190.583569 
L 324.807249 191.187162 
L 324.91312 191.187162 
L 325.051664 191.670036 
L 325.168374 191.670036 
L 325.484199 192.515066 
L 325.958615 193.480814 
L 326.054797 194.084407 
L 326.333758 194.205126 
L 326.436154 194.205126 
L 326.582075 195.53303 
L 326.668993 195.53303 
L 326.780296 195.774467 
L 326.944115 198.671713 
L 327.078654 198.671713 
L 327.183123 199.033868 
L 327.323827 199.275305 
L 327.394834 199.75818 
L 327.551685 199.878898 
L 327.636082 200.241054 
L 327.953452 201.206802 
L 328.105941 201.206802 
L 328.22431 201.568958 
L 328.266138 201.689677 
L 328.566252 201.931114 
L 328.669073 202.051832 
L 328.74468 202.051832 
L 328.816564 202.534707 
L 329.115896 202.896862 
L 329.342432 203.500455 
L 329.532945 203.621174 
L 329.607545 203.862611 
L 329.844645 204.104048 
L 329.940726 204.104048 
L 330.130961 204.586922 
L 330.42187 205.190515 
L 331.011104 205.914826 
L 331.176839 206.276982 
L 331.497129 207.122012 
L 331.776217 207.363449 
L 331.92096 208.329198 
L 332.210084 208.93279 
L 332.292684 209.174228 
L 332.354838 209.174228 
L 332.865046 210.019257 
L 333.098727 210.260695 
L 333.214633 210.502132 
L 333.266853 210.502132 
L 333.355192 210.743569 
L 333.731775 210.743569 
L 333.885944 211.226443 
L 333.898856 211.347162 
L 334.471011 212.071473 
L 334.660098 212.071473 
L 334.754955 212.554347 
L 335.407503 214.365126 
L 335.559261 214.606563 
L 335.602587 214.727281 
L 335.879085 214.968719 
L 336.022539 215.210156 
L 336.063733 215.330874 
L 336.312515 215.330874 
L 336.585641 216.175904 
L 336.649019 216.53806 
L 337.167728 217.020934 
L 337.370335 217.624527 
L 337.537498 217.865964 
L 337.755221 217.865964 
L 337.804423 218.107401 
L 338.040522 218.22812 
L 338.189362 218.710994 
L 338.332022 219.556024 
L 338.509279 219.676743 
L 338.644566 220.159617 
L 338.832801 220.280335 
L 338.868222 220.76321 
L 338.973442 220.76321 
L 339.13783 221.004647 
L 339.625576 221.849677 
L 340.071536 222.091114 
L 340.349166 222.332551 
L 340.377385 222.573988 
L 340.591243 222.815425 
L 340.696265 223.539737 
L 340.875262 223.660455 
L 340.993212 223.901892 
L 341.383761 224.746922 
L 341.467775 224.746922 
L 341.767285 225.109078 
L 341.801692 225.229796 
L 342.003972 225.471234 
L 342.630471 226.799138 
L 342.86935 226.799138 
L 342.936172 227.161293 
L 343.461796 227.644168 
L 343.784431 228.006323 
L 343.866562 228.368479 
L 344.007014 228.730635 
L 344.577666 230.299976 
L 344.717663 230.903569 
L 344.807663 230.903569 
L 345.289224 232.352192 
L 345.414712 232.47291 
L 345.738732 232.47291 
L 345.926037 233.197222 
L 346.539972 234.16297 
L 346.696175 234.525126 
L 346.89389 235.008 
L 347.033211 235.732311 
L 347.034327 235.85303 
L 347.203094 235.85303 
L 347.68458 236.939497 
L 347.846003 237.422371 
L 348.253768 238.267401 
L 348.478477 238.629557 
L 348.875059 239.474587 
L 348.889899 239.595305 
L 349.053908 239.595305 
L 349.076125 239.836743 
L 349.396573 240.198898 
L 349.404126 240.319617 
L 349.642279 240.561054 
L 349.810402 240.92321 
L 350.407499 241.285365 
L 350.596897 241.526802 
L 350.685239 241.647521 
L 350.724484 242.009677 
L 351.230217 242.371832 
L 351.365831 242.613269 
L 351.566032 243.096144 
L 351.649555 243.579018 
L 352.01019 243.579018 
L 352.402711 243.820455 
L 352.4088 243.941174 
L 352.939504 244.665485 
L 353.248459 245.027641 
L 353.939904 246.959138 
L 353.971546 246.959138 
L 354.14387 247.562731 
L 354.229295 247.562731 
L 354.436759 247.683449 
L 354.568192 248.045605 
L 354.987151 248.40776 
L 355.105137 248.528479 
L 355.203891 249.132072 
L 355.911379 249.494228 
L 355.981388 249.735665 
L 356.078797 249.977102 
L 356.083327 250.09782 
L 356.30789 250.339257 
L 356.50876 251.546443 
L 356.794797 251.908599 
L 358.359654 253.960814 
L 358.476684 254.685126 
L 358.537828 254.685126 
L 358.67486 254.926563 
L 358.754514 254.926563 
L 359.431179 255.409437 
L 359.706045 256.01303 
L 360.582259 256.616623 
L 360.597898 256.978778 
L 360.747356 256.978778 
L 361.236696 257.340934 
L 361.872264 259.030994 
L 362.495907 259.272431 
L 362.882438 259.513868 
L 363.119274 259.513868 
L 363.576837 260.358898 
L 363.725223 260.841772 
L 364.236811 261.08321 
L 364.242544 261.203928 
L 364.546286 261.445365 
L 364.560929 261.566084 
L 364.850022 261.566084 
L 365.335982 262.048958 
L 365.374385 262.290395 
L 365.731347 262.652551 
L 365.809482 262.773269 
L 366.109088 263.376862 
L 366.388684 263.376862 
L 366.568456 264.101174 
L 366.602602 264.704766 
L 366.884478 264.946204 
L 366.98068 265.066922 
L 367.348489 265.066922 
L 368.231396 265.911952 
L 368.312841 266.394826 
L 368.427347 266.636263 
L 368.643495 266.998419 
L 369.142041 267.481293 
L 369.573188 268.205605 
L 369.944377 268.447042 
L 370.163082 268.809198 
L 370.47743 268.809198 
L 370.516538 269.050635 
L 370.66706 269.292072 
L 371.02337 269.533509 
L 371.092296 270.016383 
L 371.923117 270.378539 
L 372.505477 271.465006 
L 373.491915 271.94788 
L 373.732264 272.189317 
L 373.847306 273.034347 
L 373.901942 273.155066 
L 374.126322 273.396503 
L 374.309677 273.63794 
L 374.417506 273.758659 
L 374.511243 273.879377 
L 374.570421 276.293749 
L 374.751553 276.293749 
L 375.002221 276.776623 
L 375.680202 278.828838 
L 375.833607 278.828838 
L 375.868536 279.070275 
L 377.152974 279.432431 
L 377.41194 279.794587 
L 377.492767 279.915305 
L 377.961967 280.156743 
L 378.028321 280.277461 
L 378.172346 280.277461 
L 378.457208 280.39818 
L 378.567915 280.881054 
L 378.820263 281.001772 
L 378.843357 281.24321 
L 379.966059 281.726084 
L 380.270331 282.450395 
L 380.63977 282.933269 
L 380.660415 283.295425 
L 381.294544 284.019737 
L 381.381838 284.140455 
L 382.082869 284.381892 
L 382.177162 284.623329 
L 382.65082 285.226922 
L 383.488227 285.468359 
L 383.82966 285.709796 
L 384.043654 286.071952 
L 384.676083 286.313389 
L 384.735916 286.554826 
L 385.528841 286.916982 
L 385.582897 287.037701 
L 386.263518 287.279138 
L 386.443121 287.520575 
L 386.593285 288.365605 
L 387.029735 288.607042 
L 387.033973 288.72776 
L 387.232151 288.72776 
L 387.545381 288.969198 
L 387.916063 289.210635 
L 388.454871 289.331353 
L 388.572104 289.693509 
L 389.479917 290.41782 
L 390.220342 290.659257 
L 390.954488 290.900695 
L 390.994762 291.021413 
L 391.397185 291.383569 
L 392.196234 291.504287 
L 392.547978 291.745725 
L 393.855307 292.349317 
L 393.895617 292.470036 
L 394.592169 292.590754 
L 394.626195 292.711473 
L 395.287249 293.315066 
L 395.490131 293.79794 
L 395.60618 294.280814 
L 397.10233 295.125844 
L 398.308072 295.367281 
L 398.487273 295.488 
L 398.487273 295.488 
" style="fill:none;stroke:#1f77b4;stroke-dasharray:5.55,2.4;stroke-dashoffset:0;stroke-width:1.5;"/>
   </g>
   <g id="line2d_13">
    <path clip-path="url(#p576f8a86bf)" d="M 73.832727 205.657836 
L 73.933739 205.649223 
L 74.455563 205.122138 
L 74.692956 204.951521 
L 74.77828 204.818413 
L 75.063566 204.684948 
L 75.132721 204.570265 
L 75.263841 204.416943 
L 75.383828 204.2824 
L 75.949581 203.798918 
L 76.025698 203.643216 
L 76.268051 203.467474 
L 76.363493 203.38917 
L 76.661689 203.182607 
L 79.777142 200.370986 
L 82.508464 198.336189 
L 82.568071 198.292951 
L 82.764795 198.119645 
L 82.982789 197.967537 
L 83.113276 197.77133 
L 83.278125 197.596314 
L 85.032375 196.466947 
L 85.141737 196.377359 
L 85.538744 196.17524 
L 85.650293 196.107699 
L 86.275066 195.56432 
L 86.353555 195.473226 
L 86.61393 195.267707 
L 86.661234 195.176116 
L 87.254369 194.953175 
L 87.406913 194.791785 
L 87.555728 194.583584 
L 87.671894 194.397852 
L 87.936137 194.21149 
L 88.04717 194.071304 
L 88.589722 193.695725 
L 88.767968 193.554223 
L 89.494595 192.865165 
L 89.773051 192.577526 
L 90.327727 192.167489 
L 90.436196 191.997775 
L 90.551817 191.924883 
L 90.568275 191.954792 
L 90.893678 191.784351 
L 91.459258 191.417376 
L 91.557377 191.319112 
L 91.838484 191.097392 
L 92.173393 190.924341 
L 92.635086 190.576648 
L 93.481489 189.748597 
L 93.912854 189.393652 
L 94.283614 189.138771 
L 94.649193 188.702872 
L 95.66796 187.977691 
L 95.809386 187.82111 
L 96.166435 187.6379 
L 96.206123 187.585449 
L 96.711481 187.322483 
L 96.793996 187.243362 
L 97.132111 187.005357 
L 97.53741 186.579841 
L 97.948665 186.446234 
L 98.02763 186.365925 
L 98.276373 186.15123 
L 98.590335 185.82772 
L 98.981843 185.52961 
L 99.248446 185.339122 
L 99.692736 184.983735 
L 99.824146 184.818994 
L 100.202776 184.405145 
L 101.06789 183.764986 
L 101.404607 183.430334 
L 101.815213 183.091582 
L 102.148056 182.722454 
L 104.35388 181.659458 
L 104.828527 181.485328 
L 105.49222 180.989266 
L 108.48115 179.236257 
L 108.86814 179.085322 
L 110.711049 178.141345 
L 110.72751 178.110657 
L 110.916371 177.987757 
L 111.252102 177.710356 
L 111.945646 177.431734 
L 111.996959 177.400701 
L 112.508743 177.245305 
L 112.951897 177.058327 
L 113.153849 176.902092 
L 113.535482 176.714103 
L 113.961344 176.557022 
L 114.531163 176.336458 
L 116.997962 175.029146 
L 117.582894 174.83559 
L 117.764894 174.576613 
L 118.160638 174.414226 
L 118.814465 174.249056 
L 119.6309 173.790818 
L 121.157457 173.196894 
L 121.954685 173.030955 
L 122.119549 172.864597 
L 122.974093 172.463611 
L 123.141383 172.362983 
L 123.627881 172.161265 
L 123.942374 172.093888 
L 124.152907 172.026443 
L 124.544005 171.989123 
L 124.67334 171.853885 
L 126.139701 171.276028 
L 126.806019 171.070873 
L 127.837705 170.826523 
L 128.752499 170.274051 
L 129.733003 170.065694 
L 130.876565 169.821792 
L 132.189874 169.33132 
L 132.192318 169.260961 
L 134.136596 168.659935 
L 134.371611 168.553316 
L 135.587741 168.053539 
L 136.011766 167.91007 
L 136.122533 167.730308 
L 136.44183 167.513968 
L 138.297165 167.00015 
L 139.417051 166.591958 
L 140.360956 166.408528 
L 140.681375 166.187767 
L 140.919862 166.144051 
L 141.406253 165.848271 
L 141.864347 165.625604 
L 143.005822 165.252898 
L 143.100423 165.178117 
L 146.765535 164.114618 
L 146.926763 164.038571 
L 149.143079 163.388829 
L 149.145774 163.350421 
L 149.247657 163.380326 
L 150.253716 163.033694 
L 150.430747 163.093511 
L 151.106235 162.938886 
L 151.110388 162.900177 
L 153.058333 162.628618 
L 154.561202 161.964758 
L 154.573834 161.925514 
L 155.820693 161.650198 
L 155.878942 161.61078 
L 156.567642 161.452892 
L 156.787338 161.413365 
L 157.426471 161.364065 
L 157.610847 161.275041 
L 158.261197 161.076503 
L 158.283987 161.036729 
L 158.701933 160.877413 
L 158.804952 160.797622 
L 159.034478 160.717743 
L 159.28051 160.667574 
L 159.833947 160.467248 
L 161.561995 160.205137 
L 161.697542 160.003324 
L 161.939452 159.841466 
L 162.816197 159.679244 
L 163.056194 159.557339 
L 163.863805 159.149502 
L 165.15995 158.985723 
L 165.171654 158.944721 
L 165.634522 158.78048 
L 166.585679 158.244126 
L 167.404903 157.995243 
L 167.406762 157.953681 
L 167.783202 157.787193 
L 168.421407 157.494927 
L 168.470996 157.369313 
L 169.334736 157.201494 
L 169.903316 156.906886 
L 170.160626 156.695729 
L 170.473662 156.568744 
L 170.53613 156.441541 
L 171.698858 156.147096 
L 173.859503 155.563246 
L 173.865315 155.520187 
L 174.737032 155.347698 
L 174.792896 155.304513 
L 175.52837 155.261303 
L 176.508471 154.216706 
L 178.151033 153.747334 
L 178.243244 153.658858 
L 179.930477 153.362652 
L 180.584893 153.184517 
L 181.343438 152.961256 
L 181.826773 152.901112 
L 182.054109 152.766667 
L 182.487338 152.616365 
L 183.028066 152.391202 
L 183.139553 152.255784 
L 185.600578 150.92973 
L 185.664864 150.745356 
L 186.136558 150.514264 
L 187.906872 149.921697 
L 188.458779 149.781498 
L 188.760471 149.500335 
L 189.973736 148.982205 
L 190.401729 148.698125 
L 190.619308 148.555696 
L 190.679133 148.413005 
L 191.481151 148.174606 
L 191.622867 148.031217 
L 192.325723 147.676415 
L 192.437084 147.532038 
L 192.498253 147.483853 
L 193.245435 147.339122 
L 195.170708 146.465095 
L 195.19826 146.416253 
L 195.478834 146.269544 
L 195.546632 146.171587 
L 195.709066 146.024424 
L 195.71124 145.975309 
L 195.902605 145.954819 
L 197.085013 145.164217 
L 197.428827 144.993876 
L 197.471852 144.894234 
L 198.242776 144.744537 
L 199.394496 143.739333 
L 200.442 143.435299 
L 200.672436 143.23197 
L 201.655972 143.079136 
L 202.614368 142.721393 
L 203.093475 142.675375 
L 203.188155 142.62406 
L 203.603237 142.600968 
L 203.813549 142.498159 
L 205.18001 142.010337 
L 205.97779 141.647118 
L 206.531404 141.438833 
L 206.803043 141.230016 
L 207.22218 141.073051 
L 207.69961 140.863294 
L 208.36992 140.600339 
L 211.364424 139.64905 
L 211.890214 139.38191 
L 212.319909 139.302629 
L 212.66555 139.08798 
L 213.746002 138.738742 
L 214.766118 138.198112 
L 215.175666 137.980257 
L 215.425471 137.816491 
L 215.640528 137.62524 
L 216.276513 137.405989 
L 216.443449 137.295929 
L 217.228178 137.047696 
L 217.392112 137.019981 
L 218.370965 136.520111 
L 218.941685 135.905293 
L 218.957847 135.932712 
L 219.350504 135.764223 
L 219.575433 135.539047 
L 220.152393 135.313269 
L 220.914513 135.030196 
L 222.73842 134.624562 
L 222.749056 134.567392 
L 223.14654 134.395649 
L 223.274903 134.28096 
L 223.305685 134.223558 
L 223.353658 134.250779 
L 223.640852 134.078309 
L 224.635681 133.847805 
L 227.744393 132.838976 
L 227.789085 132.866095 
L 227.806964 132.807384 
L 227.837845 132.68984 
L 228.429581 132.422326 
L 228.569673 132.212928 
L 228.622397 132.239972 
L 228.827944 132.121471 
L 228.860074 132.002808 
L 229.052537 131.943415 
L 229.522253 131.910977 
L 229.662225 131.732395 
L 229.745695 131.613134 
L 229.953979 131.433935 
L 230.08879 131.514765 
L 230.123627 131.454915 
L 230.417927 131.275116 
L 230.7723 130.914395 
L 231.330179 130.880983 
L 231.922005 130.632611 
L 232.448568 130.450824 
L 232.576715 130.268656 
L 233.198935 130.086106 
L 233.220545 129.903174 
L 233.298433 129.929883 
L 234.081254 129.493364 
L 234.448585 129.511946 
L 234.477512 129.327248 
L 234.777357 129.142159 
L 234.791595 129.080376 
L 235.394794 128.761882 
L 235.464464 128.699767 
L 235.471269 128.726344 
L 235.584264 128.752939 
L 236.182781 128.557087 
L 236.188553 128.494702 
L 236.794597 128.271255 
L 236.81804 128.208635 
L 236.840848 128.235179 
L 237.933843 127.585836 
L 237.934501 127.522567 
L 238.053771 127.459253 
L 238.823173 127.26904 
L 238.959028 127.014785 
L 239.049357 127.12035 
L 239.117946 127.056618 
L 239.214417 127.135951 
L 239.325551 126.944361 
L 239.893329 126.714649 
L 240.276894 126.522048 
L 240.588838 126.317237 
L 241.541975 125.878639 
L 241.549159 125.813714 
L 241.960329 125.618657 
L 241.974505 125.553543 
L 242.577821 125.148683 
L 242.937489 124.938529 
L 244.139145 124.767251 
L 244.228384 124.595469 
L 244.250132 124.621562 
L 244.483849 124.581582 
L 245.663859 123.981298 
L 245.761441 123.780884 
L 247.676359 122.765647 
L 248.078174 122.042357 
L 248.224812 121.836976 
L 248.304317 121.768412 
L 249.086828 121.501496 
L 249.189174 121.432574 
L 249.854139 121.414747 
L 250.060688 121.18929 
L 250.420888 121.006756 
L 250.732619 121.109052 
L 251.154523 121.065116 
L 251.480448 120.856123 
L 251.921181 120.557743 
L 252.951428 120.302604 
L 252.998538 120.353585 
L 253.668639 120.167886 
L 253.822144 120.122843 
L 253.865434 120.173843 
L 254.225904 120.154266 
L 254.364622 119.871105 
L 254.876003 119.470105 
L 255.168148 119.066936 
L 255.240995 119.117573 
L 255.270596 119.045917 
L 256.675397 118.521054 
L 256.780348 118.44886 
L 256.796747 118.474066 
L 257.181435 118.430347 
L 257.183013 118.357893 
L 257.493674 118.212814 
L 257.583336 118.067509 
L 257.692564 118.019928 
L 258.276852 117.584235 
L 258.365414 117.414369 
L 258.624123 117.145113 
L 258.725161 116.923746 
L 259.848213 116.256456 
L 260.281519 115.682122 
L 260.745939 115.50582 
L 261.009051 115.555271 
L 261.013949 115.479846 
L 261.017889 115.40436 
L 261.113287 115.453809 
L 261.341067 115.327288 
L 261.582289 115.325758 
L 261.762762 115.173996 
L 261.876214 115.046681 
L 262.062366 115.019964 
L 262.106604 114.943746 
L 262.157644 114.993183 
L 262.430693 114.939426 
L 262.579731 114.657648 
L 262.887587 114.503994 
L 263.128855 114.451732 
L 263.744564 114.066086 
L 263.774886 113.988768 
L 264.620488 113.985038 
L 264.759906 113.90753 
L 265.077935 113.879073 
L 265.327095 113.592483 
L 265.353406 113.641543 
L 265.861297 113.764544 
L 265.931491 113.686438 
L 265.969041 113.760415 
L 265.992722 113.785114 
L 266.351507 113.756272 
L 266.389416 113.677906 
L 266.701063 113.545652 
L 266.82673 113.334337 
L 266.831699 113.358983 
L 267.009742 113.201276 
L 267.202303 112.964227 
L 267.350584 112.934163 
L 267.649892 112.879454 
L 267.654243 112.904024 
L 269.171128 112.592276 
L 269.40131 112.561457 
L 269.570166 112.401039 
L 269.901353 112.369916 
L 270.001037 112.233579 
L 270.162392 112.202166 
L 270.364086 112.040705 
L 270.374477 112.065274 
L 270.383317 111.984418 
L 270.728951 111.733786 
L 270.993032 111.538717 
L 271.11315 111.563218 
L 271.117715 111.481671 
L 271.125228 111.400056 
L 271.354411 111.539167 
L 271.443668 115.309437 
L 271.498335 115.22127 
L 271.648793 114.931076 
L 271.689878 114.987347 
L 271.713646 115.015521 
L 271.721056 114.928597 
L 271.721639 114.95677 
L 271.854648 114.548882 
L 271.896292 114.576971 
L 272.178472 114.630181 
L 272.185577 114.542478 
L 272.325492 114.275166 
L 272.478265 114.303323 
L 272.480739 114.215101 
L 273.033815 114.066512 
L 273.067107 114.094637 
L 273.312031 113.945603 
L 273.487014 113.969417 
L 273.602826 113.730542 
L 274.094645 113.546959 
L 274.51262 113.541821 
L 274.665498 113.362339 
L 274.827038 113.030369 
L 275.231215 112.90579 
L 275.904411 113.033907 
L 276.046878 112.760756 
L 276.067373 112.78893 
L 276.202541 112.845358 
L 276.3674 112.747306 
L 276.395905 112.775581 
L 276.414111 112.803883 
L 276.745085 112.832212 
L 277.073635 112.521504 
L 277.11529 112.578108 
L 277.331166 112.599377 
L 277.532648 112.627799 
L 277.545622 112.535413 
L 278.097199 111.897452 
L 279.038289 111.908792 
L 279.076717 111.720883 
L 279.145303 111.777701 
L 279.219013 111.83463 
L 279.243997 111.740409 
L 279.254345 111.646096 
L 279.434316 111.731505 
L 279.456767 111.637003 
L 279.582828 111.504605 
L 279.734329 111.40016 
L 279.931442 111.51434 
L 280.103374 111.132724 
L 280.414069 111.122519 
L 280.425917 111.179617 
L 280.511379 111.083715 
L 280.711294 111.198117 
L 280.810293 111.091659 
L 280.836287 111.120349 
L 281.077219 110.830687 
L 281.331828 110.540156 
L 281.340513 110.568671 
L 281.506262 110.500108 
L 281.587316 110.557211 
L 281.69101 110.459939 
L 281.766657 110.996823 
L 281.785812 110.898588 
L 281.89278 110.92772 
L 282.329461 110.521909 
L 282.342092 110.550982 
L 282.345297 110.580085 
L 282.613188 110.481035 
L 282.634501 110.568414 
L 283.186464 110.703196 
L 283.224568 110.603547 
L 283.293207 110.632901 
L 283.512685 110.550652 
L 283.66124 110.668567 
L 284.031075 110.455824 
L 284.14519 110.603815 
L 284.152064 110.300818 
L 284.32429 110.22915 
L 284.332468 110.258722 
L 284.769427 110.412226 
L 284.975623 110.033106 
L 285.161049 110.019903 
L 285.730828 109.550111 
L 285.742393 109.579873 
L 285.816253 109.090169 
L 285.908127 109.119797 
L 286.080079 109.179147 
L 286.099416 109.074795 
L 286.191517 108.790632 
L 286.242745 108.849852 
L 286.249012 108.87951 
L 286.289682 108.774549 
L 286.568722 108.488517 
L 286.747019 108.171816 
L 286.838711 108.066021 
L 286.895567 108.124842 
L 287.046136 108.183791 
L 287.138682 108.213313 
L 287.165285 108.107197 
L 287.227546 107.71093 
L 287.379868 107.52664 
L 288.060089 107.488431 
L 288.144872 107.380935 
L 288.532069 107.390903 
L 288.57921 107.283 
L 288.641897 107.341899 
L 288.77693 107.400926 
L 288.789736 107.292732 
L 289.14395 107.164383 
L 289.260686 107.193913 
L 289.313824 107.085188 
L 289.550154 107.005817 
L 289.6333 106.787679 
L 289.672342 106.817098 
L 289.992184 106.737212 
L 290.055569 106.825631 
L 290.230554 106.745532 
L 290.951912 106.842838 
L 291.213005 106.46042 
L 291.255821 106.579013 
L 291.32856 106.468052 
L 291.334635 106.356968 
L 291.366353 106.386608 
L 291.95939 106.058991 
L 291.982419 106.088614 
L 292.035169 105.976625 
L 292.224114 106.065553 
L 292.342537 105.817214 
L 292.349599 105.846884 
L 292.549827 105.906326 
L 292.854531 105.823129 
L 293.005302 105.882679 
L 293.171225 105.775293 
L 293.181138 105.80516 
L 293.22344 105.607455 
L 293.224721 105.637294 
L 293.449764 105.582931 
L 293.60364 105.642753 
L 293.774508 105.473642 
L 293.79564 105.503576 
L 293.857888 105.533545 
L 293.870698 105.418714 
L 294.10773 105.50868 
L 294.108837 105.393569 
L 294.181135 105.453622 
L 294.239902 105.4837 
L 294.264297 105.368307 
L 294.307136 105.398371 
L 294.399125 105.42847 
L 294.462088 105.287291 
L 294.465721 105.317431 
L 294.837535 105.145288 
L 294.852364 105.175433 
L 294.883743 105.205612 
L 294.969029 105.089044 
L 294.976481 105.422808 
L 295.079224 105.336049 
L 295.110522 105.218594 
L 295.194929 105.249085 
L 295.221806 105.279611 
L 295.250735 105.161915 
L 295.661851 104.692562 
L 295.94881 104.216735 
L 295.990682 104.246919 
L 296.219936 103.828654 
L 296.276828 103.858732 
L 296.367235 103.918997 
L 296.521683 104.191984 
L 296.603941 104.071291 
L 296.627647 104.101752 
L 297.044033 104.254606 
L 297.069722 104.501106 
L 297.137525 104.257747 
L 297.522202 103.953039 
L 297.522643 103.983818 
L 297.906811 103.769339 
L 298.783678 103.893482 
L 298.901137 103.645611 
L 298.988078 103.676581 
L 299.184479 103.583308 
L 299.435033 103.707492 
L 299.471667 103.769816 
L 299.503718 103.645033 
L 299.520826 103.676195 
L 299.553172 103.551198 
L 299.611483 103.644741 
L 299.784604 103.738635 
L 299.801647 103.675804 
L 300.255994 103.675606 
L 300.341999 103.549431 
L 300.544328 103.643854 
L 300.626582 103.51734 
L 300.970562 103.548234 
L 300.977093 103.421099 
L 300.998483 103.452672 
L 301.204726 103.484284 
L 301.305226 103.229288 
L 301.453593 102.845578 
L 301.729656 102.876925 
L 301.983668 102.620181 
L 302.129181 102.714091 
L 302.220071 102.487577 
L 302.272568 102.518875 
L 302.436399 102.420892 
L 302.651273 102.514961 
L 302.767648 102.219292 
L 303.009463 102.308902 
L 303.591891 101.645466 
L 303.862133 101.70823 
L 303.957187 101.341739 
L 304.009406 101.373025 
L 304.281239 101.46713 
L 304.299801 101.33387 
L 304.377833 101.365254 
L 304.573594 101.26311 
L 304.701499 101.294509 
L 304.793834 101.026709 
L 305.076053 100.623681 
L 305.118434 100.654782 
L 305.122669 100.520016 
L 305.164086 100.551089 
L 305.242311 100.582204 
L 305.254665 100.447122 
L 305.35337 100.571718 
L 305.465745 100.60297 
L 305.59931 100.393926 
L 305.649928 100.425164 
L 305.778883 100.214945 
L 305.969824 100.308739 
L 306.000945 100.171842 
L 306.075727 100.265802 
L 306.404301 99.470235 
L 306.478295 99.532307 
L 306.701042 99.688224 
L 306.792845 99.813721 
L 307.143937 99.939903 
L 307.231126 100.066776 
L 307.259872 99.926903 
L 307.398123 99.646582 
L 307.464087 99.396945 
L 307.498891 99.428443 
L 307.55474 99.287457 
L 307.561978 99.350432 
L 307.758668 99.381984 
L 307.824703 99.161908 
L 307.87803 99.193439 
L 307.975194 98.940611 
L 307.999328 98.972077 
L 308.21572 99.098374 
L 308.344454 98.700579 
L 308.345188 98.763614 
L 308.483841 98.826824 
L 308.600998 98.538877 
L 308.72783 98.633553 
L 309.009991 98.760408 
L 309.023201 98.615577 
L 309.026007 98.470541 
L 309.109044 98.565674 
L 309.310576 98.66121 
L 309.536697 98.515488 
L 309.557018 98.223423 
L 309.650362 98.318637 
L 309.892045 98.446223 
L 309.895839 98.299308 
L 309.952448 98.331236 
L 310.442549 97.476303 
L 310.464972 97.53939 
L 310.520128 97.602658 
L 311.883263 97.804082 
L 311.889818 97.654033 
L 312.037629 97.686073 
L 312.220806 96.84384 
L 312.265587 96.875497 
L 312.295708 96.571401 
L 312.518196 96.697789 
L 312.521158 96.761262 
L 312.608832 96.608346 
L 312.840576 96.486832 
L 312.84606 96.518506 
L 312.942973 96.613811 
L 313.475457 96.683389 
L 313.54303 96.528707 
L 313.598399 96.624888 
L 313.682029 96.657044 
L 313.821689 95.941847 
L 313.856755 96.005567 
L 314.122528 96.101507 
L 314.30051 95.693117 
L 314.503338 95.820962 
L 314.580611 95.662572 
L 314.714473 95.758678 
L 314.867797 95.887505 
L 315.003338 95.952214 
L 315.009497 95.632966 
L 315.060264 95.665199 
L 315.170935 95.762197 
L 315.233686 95.601814 
L 315.314848 95.634148 
L 315.330697 95.666531 
L 315.515741 95.698964 
L 315.553466 95.376862 
L 315.648021 95.473867 
L 315.739568 95.506301 
L 315.752685 95.344477 
L 315.921393 95.409297 
L 315.936 95.247021 
L 315.983275 95.311841 
L 316.760235 95.50813 
L 317.054341 95.047659 
L 317.08141 95.080346 
L 317.180123 95.310604 
L 317.216721 95.144775 
L 317.428074 95.011574 
L 317.438561 95.044518 
L 317.478332 95.077515 
L 317.50955 94.91084 
L 317.584373 94.976777 
L 317.676425 95.076079 
L 317.879528 95.109286 
L 317.895507 94.941702 
L 317.968096 94.974854 
L 318.097515 95.07463 
L 318.436785 94.465773 
L 318.535636 93.956173 
L 318.635946 93.988876 
L 318.644567 94.153188 
L 318.668993 93.9821 
L 318.684101 94.01501 
L 318.758872 93.84353 
L 318.809287 93.909286 
L 318.902369 93.942244 
L 318.918874 93.770144 
L 319.024407 93.803043 
L 319.182992 93.869002 
L 319.18733 93.696276 
L 319.193522 93.729222 
L 319.718203 93.448282 
L 319.867742 93.514091 
L 319.867781 93.339932 
L 319.911805 93.438703 
L 320.10855 93.504824 
L 320.109871 93.329789 
L 320.264362 93.154464 
L 320.300934 93.187371 
L 320.56386 93.319545 
L 320.651106 93.586558 
L 320.760235 93.620187 
L 320.778469 93.442895 
L 320.91798 93.476459 
L 320.927386 93.298747 
L 321.008895 93.433086 
L 321.060492 93.466813 
L 321.13085 93.109263 
L 321.231061 93.176396 
L 321.285946 93.243757 
L 321.322819 93.064032 
L 321.351859 93.131374 
L 321.629795 92.770503 
L 321.643937 92.804009 
L 321.698011 92.622985 
L 321.750402 92.72347 
L 321.843442 92.824473 
L 321.988647 92.377609 
L 322.421849 91.807813 
L 322.647823 91.602706 
L 322.660797 91.636069 
L 322.684871 91.669492 
L 322.79504 91.018695 
L 323.27512 91.218254 
L 323.358068 91.028741 
L 323.372756 90.648701 
L 323.433785 90.681749 
L 323.5292 90.714857 
L 323.549158 90.524048 
L 323.760359 90.557074 
L 323.953637 90.113157 
L 324.299649 89.759621 
L 324.30734 89.565883 
L 324.34812 89.630979 
L 324.515615 89.436599 
L 324.531342 89.241866 
L 324.551923 89.274209 
L 324.757042 89.436805 
L 324.807249 89.535076 
L 325.083291 88.87668 
L 325.168374 88.280155 
L 325.198114 88.312207 
L 325.227148 88.112476 
L 325.317269 88.176447 
L 325.937728 88.532568 
L 326.21625 88.763031 
L 326.512992 88.316163 
L 326.534672 88.349162 
L 326.582075 88.515102 
L 326.742425 88.135327 
L 326.780296 88.168438 
L 326.851839 88.94788 
L 326.944115 88.771144 
L 327.078654 88.559307 
L 327.106922 88.628188 
L 327.551685 88.906443 
L 327.636082 89.011931 
L 327.750927 89.118051 
L 327.751028 88.902963 
L 327.811051 88.938297 
L 327.953452 89.080347 
L 328.189067 88.899433 
L 328.266138 89.00639 
L 328.469826 89.078055 
L 328.733115 88.238764 
L 328.74468 88.018843 
L 328.816564 88.159602 
L 329.330565 88.408719 
L 329.342432 88.4446 
L 329.547006 88.552688 
L 329.798711 87.91719 
L 329.844645 87.952859 
L 329.940726 87.72784 
L 329.987276 87.799006 
L 330.076453 87.8347 
L 330.090844 87.608619 
L 330.130961 87.644189 
L 330.42187 87.82316 
L 330.541696 87.85918 
L 330.678977 87.63122 
L 330.684205 87.667114 
L 330.970474 87.775251 
L 330.97826 87.545996 
L 331.011104 87.58199 
L 331.397977 87.836096 
L 331.663523 87.983012 
L 331.835512 88.131193 
L 331.999524 88.355872 
L 332.114798 88.469311 
L 332.18216 88.234325 
L 332.21827 88.309934 
L 332.292684 88.347861 
L 332.538828 87.474528 
L 332.592259 87.511829 
L 332.763639 87.624226 
L 332.840563 87.384671 
L 332.865046 87.422079 
L 333.104989 87.5348 
L 333.205657 87.052295 
L 333.214633 87.089582 
L 333.338966 86.397778 
L 333.355192 86.434541 
L 333.662287 86.190162 
L 333.731775 85.945233 
L 333.797571 86.018073 
L 334.095477 86.238572 
L 334.189093 85.991199 
L 334.232323 86.028002 
L 334.397032 86.101859 
L 334.660098 85.35419 
L 334.711638 85.390517 
L 334.807959 85.573405 
L 334.912332 84.85223 
L 334.942706 84.888396 
L 335.378144 85.254717 
L 335.380229 85.291821 
L 335.407503 85.034928 
L 336.063733 85.33284 
L 336.359715 85.110629 
L 336.507459 85.261011 
L 336.555907 85.298831 
L 336.567145 85.037036 
L 336.649019 85.188148 
L 336.957724 85.302438 
L 337.103137 85.038121 
L 337.167728 85.076128 
L 337.312478 85.22908 
L 337.346336 84.962747 
L 337.409715 85.039226 
L 337.537498 85.077606 
L 337.755221 84.541314 
L 337.770615 84.579225 
L 337.804423 84.617229 
L 337.989925 84.655326 
L 338.177276 84.227832 
L 338.332022 84.533666 
L 338.610002 84.688882 
L 338.644566 84.72793 
L 338.832801 84.767076 
L 338.868222 84.924647 
L 338.973442 84.647154 
L 339.296152 84.844859 
L 339.395172 84.565144 
L 339.434204 84.7239 
L 339.625576 84.442237 
L 340.349166 84.601382 
L 340.377385 84.681572 
L 340.611442 84.843201 
L 340.696265 85.006518 
L 340.886445 85.130129 
L 340.993212 84.842346 
L 341.383761 85.132307 
L 341.467775 84.841473 
L 342.003972 85.092329 
L 342.537486 85.562842 
L 342.630471 85.26548 
L 342.86935 84.967309 
L 342.89511 85.052982 
L 343.038277 85.139124 
L 343.25251 84.622726 
L 343.378007 84.665501 
L 343.461796 84.36239 
L 343.849136 84.57624 
L 343.952016 84.662613 
L 343.966133 84.356116 
L 344.007014 84.442237 
L 344.112251 84.528841 
L 344.176271 83.953032 
L 344.243735 83.995888 
L 344.281647 84.125185 
L 344.717663 84.608824 
L 344.807663 84.292092 
L 344.88009 84.38089 
L 345.414712 84.878602 
L 345.676566 84.555745 
L 345.738732 83.907174 
L 345.7603 84.087229 
L 346.016102 84.223678 
L 346.179879 83.655337 
L 346.277983 83.700513 
L 346.43493 83.080138 
L 346.459324 83.124718 
L 346.696175 83.349655 
L 346.948839 83.624141 
L 347.034327 83.856773 
L 347.203094 83.514813 
L 347.274244 83.60796 
L 347.614721 83.796004 
L 347.846003 84.130808 
L 348.094607 84.276576 
L 348.108697 83.926027 
L 348.166756 84.071746 
L 348.341503 84.21887 
L 348.43867 83.864277 
L 348.478477 83.913142 
L 348.573353 84.011346 
L 348.732328 83.654118 
L 348.762951 83.751959 
L 348.889899 83.949563 
L 349.053908 83.588134 
L 349.076125 83.686884 
L 349.590019 83.936626 
L 349.810402 84.139422 
L 350.042514 84.190545 
L 350.063462 83.821649 
L 350.153972 83.87241 
L 350.535485 84.025721 
L 350.596897 83.653431 
L 350.685239 83.704337 
L 350.724484 83.858094 
L 351.258932 84.06556 
L 351.351762 84.117872 
L 351.365831 83.739344 
L 351.465694 83.843383 
L 351.649555 84.15985 
L 352.01019 83.77545 
L 352.4088 83.934437 
L 352.729165 84.203166 
L 352.912662 83.027625 
L 352.939504 83.080138 
L 353.285826 83.292074 
L 353.403138 83.615749 
L 353.497172 83.725212 
L 353.546882 82.972035 
L 353.607982 83.080138 
L 353.635816 82.263381 
L 353.736909 82.369661 
L 353.939904 82.47673 
L 353.971546 82.063426 
L 354.037194 82.277275 
L 354.229295 81.493165 
L 354.479023 81.652131 
L 354.515832 81.705523 
L 354.568192 81.281303 
L 354.753821 81.334191 
L 354.84775 80.907638 
L 355.140074 81.171535 
L 355.185046 80.739717 
L 355.203891 80.898307 
L 355.892118 81.058759 
L 355.911379 80.620793 
L 355.981388 80.7273 
L 356.23093 80.94285 
L 356.30789 80.105362 
L 356.376928 80.427027 
L 356.406255 80.590801 
L 356.486162 80.134935 
L 356.50876 80.189153 
L 357.103471 80.519167 
L 358.364335 81.381145 
L 358.461154 81.5602 
L 358.476684 81.680856 
L 358.537828 81.199775 
L 358.555302 81.259584 
L 358.662657 81.319653 
L 358.754514 80.347533 
L 359.531746 80.76226 
L 359.850285 80.943959 
L 360.218944 80.62632 
L 360.430869 80.122277 
L 360.582259 80.182219 
L 360.597898 80.36368 
L 360.747356 79.853298 
L 360.944712 79.91331 
L 360.999632 79.399563 
L 361.063613 79.458809 
L 361.217159 79.518328 
L 361.236696 78.479516 
L 361.288911 78.595115 
L 361.366613 78.711791 
L 361.440232 78.184433 
L 361.542367 78.242083 
L 361.739174 78.593732 
L 361.872264 78.773343 
L 362.639634 78.95555 
L 362.658418 78.410947 
L 362.882438 78.4711 
L 363.050734 77.371586 
L 363.119274 76.817806 
L 363.201731 76.874652 
L 363.385017 77.046868 
L 363.454113 76.48545 
L 363.488003 76.542177 
L 363.725223 76.888521 
L 364.435461 77.125278 
L 364.560929 77.245468 
L 364.850022 76.664456 
L 365.350223 76.963633 
L 365.358255 77.024401 
L 365.374385 76.432222 
L 365.734125 76.672898 
L 365.809482 76.071979 
L 365.873487 76.131513 
L 366.109088 76.372834 
L 366.388684 75.761444 
L 366.454565 75.881086 
L 366.504636 76.062986 
L 366.508204 75.440756 
L 366.602602 75.804292 
L 366.98068 75.99063 
L 367.299886 75.350769 
L 367.348489 74.707312 
L 368.255665 75.255594 
L 368.312841 75.381319 
L 368.427347 75.508511 
L 368.643495 75.702104 
L 368.958308 75.899143 
L 369.072099 75.219018 
L 369.142041 75.283648 
L 369.573188 75.679678 
L 369.944377 75.814918 
L 370.163082 76.020908 
L 370.47743 75.313786 
L 370.516538 75.449274 
L 370.892952 75.655701 
L 371.02337 75.725378 
L 371.092296 76.008539 
L 371.986213 76.299032 
L 372.335309 76.82591 
L 373.189639 77.138097 
L 373.732264 77.377793 
L 373.847306 77.956503 
L 373.896948 78.04148 
L 373.901942 77.249943 
L 374.25931 77.500988 
L 374.327797 77.67133 
L 374.417506 76.861509 
L 374.511243 76.944998 
L 374.570421 78.750172 
L 374.751553 77.875478 
L 375.002221 78.258273 
L 375.680202 80.029305 
L 375.833607 79.078492 
L 375.868536 79.296531 
L 376.971398 79.630667 
L 377.152974 78.653317 
L 377.204479 78.76286 
L 377.247447 78.873364 
L 378.028321 79.440749 
L 378.172346 78.427324 
L 378.457208 78.539809 
L 378.567915 79.000119 
L 378.820263 79.11786 
L 378.843357 79.356644 
L 379.542649 79.723307 
L 379.800697 78.653317 
L 379.893062 78.773343 
L 379.966059 77.688497 
L 380.043397 77.922677 
L 380.140822 78.04148 
L 380.143084 76.931776 
L 380.223265 77.046868 
L 380.374525 77.399051 
L 380.586135 77.639769 
L 380.63977 77.761961 
L 380.660415 78.136094 
L 381.03802 78.653317 
L 381.381838 79.055756 
L 382.082869 79.331299 
L 382.177162 79.612865 
L 382.65082 80.344462 
L 383.488227 80.64874 
L 383.82966 80.960013 
L 384.043654 81.440575 
L 384.676083 81.770428 
L 384.735916 82.108181 
L 385.468789 82.454123 
L 385.483508 82.630258 
L 385.528841 81.269577 
L 385.582897 81.440575 
L 386.16513 81.613696 
L 386.321431 81.966472 
L 386.340962 80.558531 
L 386.443121 80.730446 
L 386.593285 81.998026 
L 387.029735 82.382216 
L 387.033973 82.578231 
L 387.232151 81.058759 
L 387.480919 81.24835 
L 387.662273 81.635488 
L 387.916063 81.833146 
L 388.454871 82.033608 
L 388.572104 82.652426 
L 389.19329 83.298747 
L 389.214664 81.648579 
L 389.479917 82.291646 
L 390.125524 82.512597 
L 390.149874 80.792375 
L 390.220342 81.005066 
L 390.766281 81.221106 
L 390.79836 81.440575 
L 390.954488 79.65673 
L 390.994762 79.867123 
L 391.397185 80.519167 
L 392.196234 80.74376 
L 392.547978 81.204367 
L 393.855307 82.427215 
L 393.895617 82.684886 
L 394.592169 82.947201 
L 394.626195 83.214284 
L 395.043782 84.045488 
L 395.371226 84.924647 
L 395.60618 87.187497 
L 396.35201 88.26046 
L 396.748009 88.633497 
L 396.874545 89.404168 
L 397.10233 89.802347 
L 397.970482 90.209475 
L 398.308072 90.625855 
L 398.487273 91.051808 
L 398.487273 91.051808 
" style="fill:none;stroke:#ff7f0e;stroke-dasharray:9.6,2.4,1.5,2.4;stroke-dashoffset:0;stroke-width:1.5;"/>
   </g>
   <g id="line2d_14">
    <path clip-path="url(#p576f8a86bf)" d="M 73.832727 162.693905 
L 73.849642 162.742848 
L 73.933739 162.704312 
L 74.455563 162.162596 
L 74.692956 161.987592 
L 74.77828 161.85118 
L 75.063566 161.714507 
L 75.132721 161.597149 
L 75.263841 161.440372 
L 75.383828 161.302909 
L 75.949581 160.809806 
L 76.025698 160.651295 
L 76.268051 160.47255 
L 76.363493 160.392966 
L 76.682414 160.183204 
L 76.918788 159.983179 
L 77.136288 159.82276 
L 77.316392 159.581461 
L 77.727137 159.217998 
L 77.844133 159.096438 
L 78.453879 158.444667 
L 78.677974 158.280809 
L 78.909174 158.013755 
L 79.012477 157.910782 
L 79.594014 157.497436 
L 79.714666 157.414487 
L 79.911099 157.206703 
L 80.369755 156.977462 
L 80.498341 156.914818 
L 80.76533 156.726565 
L 81.210538 156.453795 
L 81.334163 156.327561 
L 81.530224 156.074446 
L 81.617394 156.032176 
L 81.783029 155.905221 
L 81.787368 155.841662 
L 82.075561 155.693146 
L 82.11339 155.629406 
L 82.338936 155.480465 
L 82.743748 155.1603 
L 83.556694 154.429472 
L 83.91804 154.278118 
L 84.015503 154.191493 
L 84.474356 153.974492 
L 84.604186 153.865756 
L 84.849039 153.691452 
L 85.269448 153.363541 
L 85.68362 153.14414 
L 85.792109 152.99018 
L 86.172793 152.79177 
L 86.427014 152.504258 
L 87.120253 152.082081 
L 87.254369 152.066326 
L 87.406913 151.910088 
L 87.555728 151.708738 
L 87.671894 151.529314 
L 87.936137 151.349468 
L 88.04717 151.214305 
L 88.589722 150.852702 
L 88.767968 150.71666 
L 89.494595 150.055712 
L 89.773051 149.780551 
L 90.327727 149.389056 
L 90.436196 149.227275 
L 90.551817 149.157837 
L 90.568275 149.209514 
L 90.893678 149.04728 
L 91.463686 148.675183 
L 91.949974 148.301299 
L 92.0738 148.254437 
L 92.515895 148.043211 
L 92.690809 147.831412 
L 93.126816 147.571767 
L 93.361823 147.287534 
L 93.903656 146.811515 
L 93.980925 146.763755 
L 94.182273 146.644227 
L 94.839439 145.995631 
L 95.214185 145.826605 
L 95.301535 145.729857 
L 95.585891 145.511741 
L 96.377694 145.000465 
L 96.715858 144.829308 
L 98.336141 143.645685 
L 98.82974 143.272194 
L 99.220142 143.072288 
L 99.35272 142.922033 
L 99.678815 142.721257 
L 99.933103 142.419155 
L 100.036159 142.267681 
L 100.346659 142.065273 
L 100.674302 141.86236 
L 100.956479 141.684395 
L 101.085869 141.557038 
L 101.298265 141.380374 
L 101.534781 141.175646 
L 101.67533 141.124383 
L 101.859231 140.919011 
L 101.975726 140.79039 
L 102.326604 140.584176 
L 102.86801 140.222049 
L 104.858176 139.519119 
L 105.183282 139.231012 
L 106.330979 138.704593 
L 106.826362 138.387704 
L 107.844587 137.882316 
L 107.906325 137.828938 
L 108.226751 137.668599 
L 108.376378 137.615084 
L 109.04412 137.346993 
L 109.11798 137.293271 
L 109.764216 137.078039 
L 110.512011 136.754149 
L 111.71568 136.020793 
L 112.508743 135.802268 
L 112.967576 135.610594 
L 113.535482 135.336016 
L 114.115728 135.17084 
L 115.44856 134.534664 
L 115.534682 134.479118 
L 116.273724 134.172967 
L 116.281043 134.14508 
L 116.627438 134.005509 
L 116.784204 133.921657 
L 117.256714 133.809726 
L 117.594066 133.669605 
L 117.677518 133.557342 
L 118.160638 133.332373 
L 118.885554 133.161268 
L 120.242221 132.53799 
L 121.954685 132.167552 
L 122.119549 132.02465 
L 127.077266 130.462691 
L 127.183185 130.48846 
L 127.698455 130.371805 
L 127.975535 130.225766 
L 128.142273 130.050196 
L 129.511074 129.727395 
L 131.177602 129.403397 
L 131.204317 129.344359 
L 132.191537 129.048571 
L 132.192318 129.018938 
L 134.17326 128.483812 
L 136.122533 127.735143 
L 136.44183 127.554513 
L 138.706676 127.035514 
L 138.712289 127.005181 
L 140.411057 126.665428 
L 140.681375 126.512953 
L 140.919862 126.507457 
L 141.45762 126.232191 
L 141.594958 126.140246 
L 143.005822 125.771516 
L 143.100423 125.709913 
L 147.231077 124.711962 
L 147.410259 124.649595 
L 148.585753 124.399695 
L 149.143079 124.274485 
L 149.145774 124.243155 
L 149.247657 124.299083 
L 150.253716 124.016661 
L 150.430747 124.128652 
L 151.544474 123.93993 
L 151.619469 123.876935 
L 153.341202 123.687685 
L 154.840963 123.149317 
L 156.474991 122.831128 
L 156.787338 122.767357 
L 157.426471 122.759757 
L 157.610847 122.720211 
L 158.283987 122.528341 
L 158.703593 122.368139 
L 159.833947 122.103248 
L 161.697542 121.796867 
L 161.939452 121.667507 
L 162.854526 121.505549 
L 163.863805 121.115675 
L 165.171654 120.952737 
L 165.837435 120.756828 
L 166.234749 120.527739 
L 166.414685 120.429383 
L 167.704117 120.100767 
L 167.917714 120.001953 
L 168.421407 119.804008 
L 168.470996 119.704876 
L 169.467081 119.539419 
L 169.957482 119.30728 
L 171.28934 118.831348 
L 171.527481 118.854841 
L 172.191567 118.677692 
L 172.307686 118.734653 
L 173.859503 118.456321 
L 173.865315 118.422723 
L 175.52837 118.22088 
L 176.508471 117.409107 
L 177.019204 117.387529 
L 177.100308 117.502018 
L 179.033284 117.071076 
L 179.062854 117.128461 
L 179.105897 117.094265 
L 179.214217 117.060056 
L 180.573276 116.888825 
L 180.690618 116.820245 
L 180.744388 116.785936 
L 181.991482 116.6029 
L 182.226572 116.522719 
L 183.028066 116.315821 
L 183.139553 116.212201 
L 186.65206 114.87527 
L 187.185151 114.734683 
L 187.228304 114.664312 
L 187.445387 114.686986 
L 187.906872 114.616545 
L 188.458779 114.510784 
L 188.760471 114.29891 
L 190.078278 113.838222 
L 192.498253 112.824655 
L 193.366839 112.680868 
L 193.386249 112.644887 
L 193.971272 112.50083 
L 194.809475 112.212065 
L 195.170708 112.067357 
L 195.19826 112.031146 
L 195.484924 111.886164 
L 196.152142 111.54464 
L 196.571793 111.362371 
L 197.471852 110.981913 
L 198.300789 110.835202 
L 199.394496 110.135271 
L 200.500385 109.876125 
L 200.672436 109.76485 
L 201.781518 109.616286 
L 201.876549 109.504714 
L 202.830381 109.451607 
L 202.932958 109.510223 
L 202.9409 109.47297 
L 204.063275 109.233102 
L 204.434241 109.254426 
L 205.18001 109.029881 
L 205.97779 108.767258 
L 206.531404 108.616871 
L 206.803043 108.466252 
L 207.538356 108.277653 
L 208.235896 108.050853 
L 209.149022 107.861453 
L 209.183906 107.920328 
L 209.53521 107.827474 
L 210.384008 107.675488 
L 210.428675 107.637455 
L 211.092037 107.485175 
L 211.890214 107.218117 
L 212.319909 107.200691 
L 212.66555 107.047658 
L 214.111759 106.705348 
L 214.2018 106.589905 
L 217.228178 105.880244 
L 217.392112 105.900738 
L 218.682604 105.434655 
L 218.941685 105.199724 
L 218.957847 105.259256 
L 219.392851 105.102343 
L 221.30287 104.551195 
L 221.634327 104.630998 
L 222.150808 104.532631 
L 222.36942 104.711858 
L 223.14654 104.434759 
L 223.274903 104.355446 
L 223.305685 104.315766 
L 223.353658 104.375596 
L 223.640852 104.256474 
L 224.797025 104.057621 
L 226.076781 103.878525 
L 226.100586 103.938518 
L 227.195621 103.818796 
L 227.439097 103.858972 
L 228.429581 103.618032 
L 228.496825 103.457003 
L 228.569673 103.517308 
L 228.622397 103.577638 
L 229.669301 103.234407 
L 229.953979 103.072519 
L 230.08879 103.253894 
L 230.123627 103.213394 
L 230.474781 103.051227 
L 230.7723 102.848152 
L 231.00231 102.908699 
L 232.467086 102.622604 
L 233.729193 102.151407 
L 233.814842 102.212145 
L 233.819768 102.17112 
L 234.081254 102.149796 
L 234.448585 102.291209 
L 234.454511 102.250134 
L 234.477512 102.167934 
L 235.394794 101.877812 
L 235.464464 101.836528 
L 235.471269 101.897511 
L 235.584264 101.958518 
L 237.47587 101.66275 
L 237.624542 101.660622 
L 237.934501 101.494186 
L 238.053771 101.452534 
L 238.868103 101.285757 
L 238.959028 101.160493 
L 238.979699 101.221851 
L 239.214417 101.54877 
L 239.325551 101.423385 
L 239.893329 101.317532 
L 240.340163 101.149851 
L 240.464062 101.085529 
L 240.588838 101.147176 
L 240.953701 101.124825 
L 241.084751 101.144496 
L 242.937489 100.567108 
L 244.76288 100.514651 
L 244.993404 100.534249 
L 245.902405 100.189519 
L 245.946973 100.146766 
L 246.275983 100.123491 
L 246.486606 100.143002 
L 246.503972 100.162531 
L 246.518478 100.1197 
L 247.301731 99.924739 
L 247.346854 99.881787 
L 247.658682 99.901251 
L 247.777993 99.643073 
L 247.875917 99.705558 
L 247.895038 99.619362 
L 248.049143 99.446752 
L 248.304317 99.230579 
L 248.916136 99.206547 
L 249.032575 99.288441 
L 249.189174 99.158391 
L 249.43204 99.221051 
L 249.917599 99.216271 
L 249.9345 99.279023 
L 249.975747 99.235597 
L 250.420888 99.12451 
L 250.732619 99.375971 
L 251.154523 99.39541 
L 252.951428 99.061168 
L 252.998538 99.18738 
L 253.822144 99.138768 
L 253.865434 99.265229 
L 254.25281 99.304253 
L 254.480252 99.12894 
L 254.911607 98.928781 
L 255.091308 98.796773 
L 255.103152 98.860188 
L 255.168148 98.772097 
L 255.240995 98.899024 
L 255.270596 98.854958 
L 255.607376 98.830287 
L 255.912715 98.805584 
L 256.269476 98.717261 
L 257.05739 98.667624 
L 257.181435 98.81444 
L 257.183013 98.770176 
L 257.512634 98.637269 
L 257.814086 98.567966 
L 257.83133 98.631768 
L 258.627871 98.328289 
L 259.136821 98.168955 
L 259.332602 98.252412 
L 259.801564 98.02851 
L 260.13114 97.752676 
L 260.281519 97.836207 
L 260.640022 97.810472 
L 260.678427 97.874819 
L 260.745939 97.82977 
L 261.224379 97.952244 
L 261.314725 97.907134 
L 261.341067 97.971643 
L 261.582289 98.120226 
L 261.956787 98.068892 
L 262.023212 98.133591 
L 262.062366 98.088392 
L 262.106604 98.043174 
L 262.115257 98.10791 
L 262.343416 98.432019 
L 262.38322 98.386807 
L 262.720004 98.18005 
L 263.774886 97.88171 
L 265.141289 98.025095 
L 265.235073 97.888349 
L 265.941412 98.496098 
L 265.992722 98.627119 
L 266.389416 98.667074 
L 267.163695 98.45282 
L 267.202303 98.407029 
L 267.350584 98.492762 
L 267.649892 98.51276 
L 267.654243 98.57861 
L 268.145831 98.57286 
L 268.233768 98.836842 
L 268.2357 98.790973 
L 268.546802 98.811162 
L 268.879978 98.785447 
L 269.480255 98.958342 
L 269.570166 98.912377 
L 270.162392 99.060091 
L 270.364086 98.96798 
L 270.374477 99.034434 
L 270.4516 98.94225 
L 270.479117 98.962625 
L 270.60619 98.870325 
L 270.728951 99.003429 
L 270.954299 98.931462 
L 271.11315 99.064773 
L 271.117715 99.018553 
L 271.125228 98.972311 
L 271.348017 99.193087 
L 271.45013 110.344984 
L 271.529108 110.253996 
L 271.638076 110.235043 
L 271.721639 110.505069 
L 271.854648 110.349354 
L 271.896292 110.421755 
L 272.083922 110.639165 
L 272.178472 110.738638 
L 272.185577 110.69298 
L 272.220511 110.6473 
L 272.230057 110.719926 
L 272.28185 110.792586 
L 272.325492 110.728168 
L 272.478265 110.800916 
L 272.480739 110.755175 
L 272.688518 110.709413 
L 273.067107 110.809266 
L 273.312031 110.790541 
L 273.487014 111.036614 
L 273.5273 110.990788 
L 273.570957 111.063857 
L 273.602826 110.972153 
L 273.787374 110.926268 
L 273.84068 111.099853 
L 274.319564 111.08126 
L 274.637833 111.181924 
L 274.827038 111.025322 
L 275.028998 111.052696 
L 275.052539 111.126162 
L 275.34929 111.153603 
L 275.488784 111.374337 
L 275.944313 111.7525 
L 275.964645 111.706418 
L 276.046878 111.660314 
L 276.067373 111.734242 
L 276.414111 112.160564 
L 276.745085 112.234789 
L 277.022076 112.170674 
L 277.173977 112.422014 
L 277.331166 112.599377 
L 277.532648 112.673958 
L 277.545622 112.627799 
L 277.722348 112.563831 
L 277.814286 112.713228 
L 277.875633 112.620749 
L 277.928627 112.528181 
L 278.056607 112.481864 
L 278.058186 112.781228 
L 278.097199 112.734916 
L 278.671377 112.98858 
L 279.038289 113.167652 
L 279.076717 113.074968 
L 279.145303 113.225446 
L 279.434316 113.509603 
L 279.456767 113.463232 
L 279.470869 113.416838 
L 279.502819 113.567884 
L 279.619695 113.475057 
L 279.632838 113.701944 
L 279.734329 113.655518 
L 279.931442 113.958579 
L 280.103374 113.772762 
L 280.353503 113.802144 
L 280.546051 114.135677 
L 280.956485 114.529869 
L 281.24151 114.34361 
L 281.410047 114.326793 
L 281.69101 114.509731 
L 281.89278 116.188293 
L 282.165146 116.079543 
L 282.169162 116.157109 
L 282.345297 116.343447 
L 282.613188 116.296836 
L 282.617791 116.37457 
L 282.724137 116.608006 
L 283.186464 117.107494 
L 283.224568 117.060922 
L 283.293207 117.139098 
L 283.415652 117.09251 
L 283.424112 117.170733 
L 283.538616 117.437443 
L 283.66124 117.672837 
L 283.883214 117.704818 
L 283.889861 117.783408 
L 283.894395 117.73683 
L 284.091786 118.005047 
L 284.14519 118.162692 
L 284.152064 118.022894 
L 284.32429 118.055161 
L 284.467711 118.529476 
L 284.503369 118.482863 
L 284.532821 118.562063 
L 284.769427 118.991516 
L 284.826162 118.85164 
L 285.314347 119.029936 
L 285.364116 118.983227 
L 285.486411 119.175753 
L 285.696473 119.288746 
L 285.816253 119.121081 
L 286.080079 119.361389 
L 286.118428 119.267641 
L 286.165172 119.220731 
L 286.191517 119.254015 
L 286.249012 119.494912 
L 286.289682 119.447989 
L 286.895567 119.360323 
L 286.90955 119.440894 
L 287.138682 119.60216 
L 287.168125 119.508009 
L 287.329485 119.400164 
L 287.379649 119.480951 
L 287.379868 119.433761 
L 287.974328 119.595476 
L 288.040568 119.872239 
L 288.060089 119.825051 
L 288.144872 119.77784 
L 288.511178 119.974088 
L 288.668735 120.252117 
L 288.77693 120.333537 
L 288.789736 120.286323 
L 289.074214 120.320564 
L 289.14395 120.436411 
L 289.313824 120.470773 
L 289.581499 120.457879 
L 289.6333 120.410564 
L 289.672342 120.492297 
L 289.992184 120.526749 
L 290.055569 120.772354 
L 290.230554 120.806995 
L 290.38212 120.971045 
L 290.390139 121.053133 
L 291.038181 121.369659 
L 291.213005 121.310037 
L 291.366353 121.627931 
L 291.730751 121.568406 
L 293.005302 122.61316 
L 293.060156 122.565715 
L 293.181138 122.93618 
L 293.21661 122.888733 
L 293.224721 123.008779 
L 293.357842 122.961301 
L 293.60364 123.296902 
L 293.698958 123.249437 
L 293.857888 123.538329 
L 293.870698 123.490853 
L 294.6305 124.351992 
L 294.63913 124.304492 
L 294.852364 124.474241 
L 294.883743 124.559183 
L 294.969029 124.511689 
L 295.079224 125.487219 
L 295.110522 125.439795 
L 295.221806 125.610956 
L 295.250735 125.563526 
L 295.399129 125.468591 
L 295.429177 125.639995 
L 295.505724 125.59251 
L 295.581776 125.545 
L 295.602045 125.630791 
L 295.603373 125.716627 
L 295.708086 125.621571 
L 295.730042 125.526414 
L 296.041939 125.517099 
L 296.112745 125.689123 
L 296.157818 125.593825 
L 296.219936 125.546137 
L 296.276828 125.632249 
L 296.367235 125.804609 
L 296.521683 126.582514 
L 296.603941 126.534925 
L 296.627647 126.621601 
L 297.019763 126.968768 
L 297.05254 127.31668 
L 297.069722 127.752621 
L 297.137525 127.657663 
L 297.435857 127.515036 
L 297.436958 127.602418 
L 297.725583 127.817296 
L 297.906811 127.76972 
L 298.095917 127.857312 
L 298.096871 128.120373 
L 298.270878 128.160606 
L 298.434159 128.424267 
L 298.582691 128.376726 
L 298.718988 128.464719 
L 298.783678 128.728983 
L 298.791574 128.68146 
L 298.901137 128.633912 
L 299.095596 128.674554 
L 299.435033 129.116353 
L 299.520826 129.334508 
L 299.553172 129.286982 
L 299.801647 129.950232 
L 300.145834 130.170127 
L 300.626582 130.432424 
L 300.841896 130.611358 
L 300.998483 130.874953 
L 301.284855 130.917255 
L 301.453593 130.727166 
L 301.795516 130.769456 
L 301.983668 130.721854 
L 301.998831 130.811793 
L 302.272568 131.076877 
L 302.338818 131.029255 
L 302.690797 131.476144 
L 303.009463 132.10679 
L 303.121559 132.059203 
L 303.129834 132.150182 
L 303.167389 132.241211 
L 303.211721 132.146005 
L 303.457814 132.233 
L 303.591891 132.185329 
L 303.902491 132.411542 
L 303.920425 132.363854 
L 303.957187 132.31614 
L 304.009406 132.407569 
L 304.701499 132.861872 
L 304.715294 132.814164 
L 305.076053 132.623065 
L 305.465745 133.263955 
L 305.48149 133.216159 
L 305.481725 133.308478 
L 306.214191 134.088772 
L 306.221354 133.993133 
L 306.343923 133.897387 
L 306.404301 133.849474 
L 306.411406 133.942541 
L 306.701042 134.502048 
L 306.792845 134.876103 
L 307.111965 135.063447 
L 307.231126 135.62675 
L 307.259872 135.579055 
L 307.55474 135.528522 
L 307.561978 135.717085 
L 307.821973 135.952565 
L 307.824703 135.904772 
L 308.064452 136.18773 
L 308.214935 136.377364 
L 308.24581 136.376674 
L 308.292571 136.471653 
L 308.344454 136.423832 
L 308.382999 136.709134 
L 308.574141 136.756549 
L 308.600998 136.708727 
L 308.62943 136.804017 
L 309.310576 137.856391 
L 309.557018 137.71313 
L 309.568741 137.809201 
L 309.952448 138.435544 
L 310.442549 138.245396 
L 310.520128 138.632398 
L 310.869076 138.923236 
L 311.245556 139.264084 
L 312.084814 139.705644 
L 312.089656 139.803323 
L 312.181585 139.707837 
L 312.295708 139.614354 
L 312.497637 139.810169 
L 312.521158 140.202483 
L 312.608832 140.154689 
L 312.840576 140.205118 
L 312.942973 140.598693 
L 313.253565 140.795825 
L 313.396927 141.044253 
L 314.580611 142.456474 
L 314.710219 142.556574 
L 314.790004 143.057964 
L 315.515741 143.922698 
L 315.545603 143.875143 
L 315.553466 143.827559 
L 315.624898 144.02988 
L 315.739568 144.232441 
L 315.752685 144.184893 
L 315.981638 144.441705 
L 315.983275 144.543289 
L 316.227125 144.746637 
L 316.230993 144.848402 
L 316.479096 145.004654 
L 316.503406 145.208641 
L 316.898808 145.569955 
L 316.969672 145.522536 
L 317.08141 145.679906 
L 317.180123 146.398695 
L 317.216721 146.351369 
L 317.368369 146.304014 
L 317.584373 146.77215 
L 317.676425 147.082205 
L 318.046958 147.345592 
L 318.097515 147.553014 
L 318.381767 147.515121 
L 318.432839 147.619039 
L 318.481272 147.477137 
L 318.535636 147.429779 
L 318.635946 147.533828 
L 318.684101 148.112179 
L 318.758872 148.064884 
L 318.780593 148.169409 
L 318.902369 148.378648 
L 318.918874 148.331377 
L 319.193522 148.703457 
L 319.592973 148.71395 
L 319.867742 149.029451 
L 319.867781 148.982205 
L 319.992038 149.40384 
L 320.10855 149.509409 
L 320.109871 149.462223 
L 320.264362 149.415008 
L 320.300934 149.520677 
L 320.53115 149.62641 
L 320.760235 150.90026 
L 320.778469 150.853268 
L 320.91798 150.959863 
L 320.927386 150.912861 
L 321.060492 151.446907 
L 321.13085 151.353 
L 321.16229 151.460043 
L 321.572748 151.902444 
L 321.698011 151.916041 
L 321.843442 152.562511 
L 321.871999 152.515641 
L 321.879594 152.623637 
L 321.88672 152.576757 
L 322.111831 152.807471 
L 322.138301 152.760561 
L 322.167775 152.8689 
L 322.272594 152.991988 
L 322.421849 153.100567 
L 322.572122 153.053646 
L 322.684871 153.76891 
L 322.704119 153.628289 
L 322.754883 153.84679 
L 322.946654 154.237796 
L 323.240731 154.457155 
L 323.27512 154.566937 
L 323.358068 154.520151 
L 323.372756 154.426492 
L 323.433785 154.536402 
L 323.5292 154.646381 
L 323.549158 154.599547 
L 323.846094 154.836318 
L 323.900191 155.057015 
L 323.953637 155.010192 
L 324.176718 154.96334 
L 324.34812 155.201352 
L 324.531342 155.107562 
L 324.551923 155.218343 
L 324.743518 155.551103 
L 324.807249 156.107101 
L 324.97608 156.125007 
L 325.051664 156.459782 
L 325.101097 156.272666 
L 325.227148 156.290787 
L 325.752049 157.525889 
L 325.937728 157.75138 
L 326.054797 158.429578 
L 326.333758 158.49639 
L 326.436154 158.449888 
L 326.56408 159.540831 
L 326.702287 159.722896 
L 326.742425 159.676563 
L 326.780296 159.790901 
L 326.944115 162.511338 
L 327.078654 162.465502 
L 327.183123 162.814435 
L 327.323827 163.047434 
L 327.394834 163.514338 
L 327.551685 163.631252 
L 327.636082 163.982452 
L 327.953452 164.876955 
L 328.105941 164.831546 
L 328.22431 165.185406 
L 328.266138 165.303513 
L 328.652029 165.56772 
L 328.669073 165.522387 
L 328.74468 165.431633 
L 328.756322 165.550168 
L 328.946787 166.025084 
L 329.230404 166.501244 
L 329.532945 166.978654 
L 329.547006 167.217829 
L 329.607545 167.127682 
L 329.68782 167.247437 
L 329.798711 167.202344 
L 330.076453 167.637224 
L 330.090844 167.59217 
L 330.130961 167.712393 
L 330.42187 168.314699 
L 330.541696 168.435399 
L 330.678977 168.39049 
L 330.791077 168.632179 
L 331.176839 169.31443 
L 331.497129 170.166421 
L 331.776217 170.410575 
L 331.92096 171.390443 
L 332.210084 171.96132 
L 332.292684 172.207978 
L 332.354838 172.163804 
L 332.763639 172.773697 
L 332.840563 172.729565 
L 332.865046 172.853647 
L 333.098727 173.102063 
L 333.214633 173.262727 
L 333.266853 173.174523 
L 333.355192 173.379731 
L 333.791152 173.416315 
L 333.898856 173.916587 
L 334.471011 174.581743 
L 334.711638 174.619735 
L 334.807959 175.25051 
L 334.833685 175.206678 
L 335.109483 175.879194 
L 335.132378 176.133306 
L 335.602587 177.109761 
L 335.879085 177.36567 
L 336.022539 177.621929 
L 336.063733 177.75019 
L 336.312515 177.70684 
L 336.585641 178.564159 
L 336.649019 178.9515 
L 336.939835 179.210171 
L 336.957724 179.339639 
L 337.103137 179.296612 
L 337.370335 180.0326 
L 337.537498 180.292999 
L 337.755221 180.207275 
L 337.804423 180.468154 
L 338.127867 180.817395 
L 338.207631 181.824413 
L 338.509279 182.087775 
L 338.644566 182.615598 
L 338.832801 182.747783 
L 338.868222 183.277446 
L 338.973442 183.235221 
L 339.13783 183.500669 
L 339.434204 184.390694 
L 339.625576 184.348696 
L 340.071536 184.615946 
L 340.349166 184.883572 
L 340.377385 185.151572 
L 340.591243 185.419949 
L 340.696265 186.227344 
L 340.875262 186.362241 
L 340.886445 186.63232 
L 340.993212 186.590845 
L 341.383761 187.539356 
L 341.467775 187.498084 
L 341.767285 187.906126 
L 341.801692 188.042332 
L 342.003972 188.315034 
L 342.537486 189.82182 
L 342.630471 189.781095 
L 342.86935 189.740341 
L 342.936172 190.153536 
L 343.378007 190.624727 
L 343.461796 190.584129 
L 343.784431 190.999703 
L 343.866562 191.416169 
L 344.007014 191.793218 
L 344.577666 193.532874 
L 344.717663 194.237558 
L 344.807663 194.197809 
L 345.289224 195.899909 
L 345.414712 196.042419 
L 345.738732 195.924445 
L 345.756367 196.067171 
L 345.7603 196.495971 
L 345.926037 196.782357 
L 346.277983 197.278346 
L 346.333034 197.239285 
L 346.459324 197.488142 
L 346.696175 198.209848 
L 346.89389 198.789116 
L 347.033211 199.661206 
L 347.034327 199.806928 
L 347.203094 199.768509 
L 347.68458 201.085194 
L 347.846003 201.673195 
L 348.253768 202.668739 
L 348.341503 202.965001 
L 348.43867 202.927411 
L 348.573353 203.372751 
L 348.732328 203.335257 
L 348.819542 203.930753 
L 348.889899 204.229166 
L 349.053908 204.191892 
L 349.076125 204.490833 
L 349.396573 204.940079 
L 349.404126 205.090051 
L 349.642279 205.390331 
L 349.810402 205.841593 
L 350.407499 206.257156 
L 350.535485 206.559322 
L 350.596897 206.522669 
L 350.685239 206.673965 
L 350.724484 207.128532 
L 351.027119 207.432146 
L 351.258932 207.736216 
L 351.518924 208.30957 
L 351.649555 209.074266 
L 352.01019 209.0383 
L 352.402711 209.345075 
L 352.4088 209.498636 
L 352.729165 210.268185 
L 352.800767 210.196884 
L 352.912662 210.161193 
L 352.939504 210.315587 
L 353.248459 210.779473 
L 353.851105 212.975271 
L 354.011633 213.411297 
L 354.14387 213.848659 
L 354.229295 213.813931 
L 354.436759 213.971621 
L 354.515832 214.445419 
L 354.568192 214.410853 
L 355.105137 215.010073 
L 355.203891 215.770901 
L 355.892118 216.249529 
L 355.911379 216.21546 
L 355.981388 216.535259 
L 356.078797 216.855553 
L 356.083327 217.015887 
L 356.320466 217.430197 
L 356.406255 218.72114 
L 356.486162 218.687781 
L 356.50876 218.849764 
L 356.760272 219.174109 
L 356.893309 219.49896 
L 357.390395 220.31331 
L 357.733235 220.803449 
L 357.992208 221.45876 
L 358.359654 222.116129 
L 358.476684 223.106062 
L 358.537828 223.07406 
L 358.662657 223.405182 
L 358.67486 223.373261 
L 358.754514 223.341315 
L 359.431179 224.005549 
L 359.706045 224.838798 
L 360.218944 225.476497 
L 360.430869 225.445194 
L 360.582259 225.612878 
L 360.597898 226.116728 
L 360.747356 226.085618 
L 361.27717 226.666684 
L 361.366613 227.174006 
L 361.440232 227.143181 
L 361.556826 227.482181 
L 361.739174 228.332056 
L 361.872264 228.843615 
L 362.367626 229.014408 
L 362.639634 229.356405 
L 362.658418 229.326283 
L 363.00163 229.467454 
L 363.119274 229.407202 
L 363.576837 230.581328 
L 363.725223 231.27255 
L 364.236811 231.619 
L 364.242544 231.792434 
L 364.546286 232.139725 
L 364.560929 232.313581 
L 364.850022 232.284376 
L 365.335982 232.981446 
L 365.358255 233.33083 
L 365.374385 233.301955 
L 365.546657 233.47692 
L 366.067243 234.677242 
L 366.109088 234.853409 
L 366.388684 234.825026 
L 366.490378 235.531377 
L 366.602602 236.745328 
L 366.884478 237.101528 
L 366.98068 237.279848 
L 367.348489 237.224678 
L 368.231396 238.4779 
L 368.312841 239.197278 
L 368.427347 239.557858 
L 368.643495 240.099847 
L 369.142041 240.798239 
L 369.573188 241.890262 
L 369.944377 242.255481 
L 370.163082 242.804449 
L 370.47743 242.778786 
L 370.516538 243.145659 
L 370.66706 243.513144 
L 371.02337 243.881243 
L 371.092296 244.619288 
L 371.923117 245.174444 
L 372.505477 246.848314 
L 372.970671 247.222007 
L 373.732264 247.971281 
L 373.847306 249.288608 
L 373.896948 249.477434 
L 373.901942 249.454192 
L 374.101998 249.643248 
L 374.25931 250.021841 
L 374.511243 250.568095 
L 374.570421 254.400815 
L 374.751553 254.379402 
L 374.980498 254.960196 
L 375.178617 255.736917 
L 375.254012 255.931514 
L 375.440057 257.298389 
L 375.658309 258.279787 
L 375.680202 258.476575 
L 375.833607 258.45672 
L 375.868536 258.85096 
L 376.397299 259.048337 
L 376.51892 259.245884 
L 377.204479 259.622081 
L 377.247447 259.820219 
L 378.172346 260.794535 
L 378.457208 260.993786 
L 378.567915 261.79253 
L 378.820263 261.992651 
L 378.843357 262.393417 
L 379.092588 262.594062 
L 379.538948 262.794883 
L 379.542649 262.995879 
L 379.800697 262.977773 
L 380.264733 264.152638 
L 380.374525 264.557763 
L 380.586135 264.963601 
L 380.63977 265.166787 
L 380.660415 265.777419 
L 380.97182 266.389666 
L 381.03802 266.594108 
L 381.381838 267.208517 
L 382.082869 267.619029 
L 382.177162 268.030267 
L 382.577767 268.854928 
L 382.65082 269.061551 
L 383.488227 269.475346 
L 383.82966 269.889875 
L 384.043654 270.513052 
L 384.676083 270.929428 
L 384.735916 271.346546 
L 385.468789 271.764407 
L 385.582897 272.168623 
L 386.16513 272.378294 
L 386.443121 272.994378 
L 386.593285 274.471917 
L 387.029735 274.895778 
L 387.033973 275.107994 
L 387.232151 275.094813 
L 387.480919 275.30731 
L 387.662273 275.732877 
L 387.916063 275.945949 
L 388.454871 276.159212 
L 388.572104 276.800156 
L 389.34123 277.860249 
L 389.479917 278.075345 
L 390.149874 278.278795 
L 390.220342 278.494372 
L 390.766281 278.710145 
L 390.79836 278.926114 
L 390.954488 278.914541 
L 390.994762 279.130799 
L 391.397185 279.780753 
L 392.196234 279.997798 
L 392.547978 280.432482 
L 393.855307 281.522664 
L 393.895617 281.741298 
L 394.592169 281.960131 
L 394.626195 282.179165 
L 395.043782 282.837468 
L 395.371226 283.497582 
L 395.60618 285.044929 
L 396.35201 285.71113 
L 396.748009 285.933607 
L 396.874545 286.379175 
L 397.10233 286.602267 
L 397.970482 286.825566 
L 398.487273 287.272781 
L 398.487273 287.272781 
" style="fill:none;stroke:#2ca02c;stroke-dasharray:1.5,2.475;stroke-dashoffset:0;stroke-width:1.5;"/>
   </g>
   <g id="line2d_15">
    <defs>
     <path d="M 0 1.5 
C 0.397805 1.5 0.77937 1.341951 1.06066 1.06066 
C 1.341951 0.77937 1.5 0.397805 1.5 0 
C 1.5 -0.397805 1.341951 -0.77937 1.06066 -1.06066 
C 0.77937 -1.341951 0.397805 -1.5 0 -1.5 
C -0.397805 -1.5 -0.77937 -1.341951 -1.06066 -1.06066 
C -1.341951 -0.77937 -1.5 -0.397805 -1.5 0 
C -1.5 0.397805 -1.341951 0.77937 -1.06066 1.06066 
C -0.77937 1.341951 -0.397805 1.5 0 1.5 
z
" id="m10fb147f57" style="stroke:#008000;"/>
    </defs>
    <g clip-path="url(#p576f8a86bf)">
     <use style="fill:#008000;stroke:#008000;" x="260.089014" xlink:href="#m10fb147f57" y="97.733445"/>
    </g>
   </g>
   <g id="patch_3">
    <path d="M 57.6 307.584 
L 57.6 41.472 
" style="fill:none;stroke:#000000;stroke-linecap:square;stroke-linejoin:miter;stroke-width:0.8;"/>
   </g>
   <g id="patch_4">
    <path d="M 414.72 307.584 
L 414.72 41.472 
" style="fill:none;stroke:#000000;stroke-linecap:square;stroke-linejoin:miter;stroke-width:0.8;"/>
   </g>
   <g id="patch_5">
    <path d="M 57.6 307.584 
L 414.72 307.584 
" style="fill:none;stroke:#000000;stroke-linecap:square;stroke-linejoin:miter;stroke-width:0.8;"/>
   </g>
   <g id="patch_6">
    <path d="M 57.6 41.472 
L 414.72 41.472 
" style="fill:none;stroke:#000000;stroke-linecap:square;stroke-linejoin:miter;stroke-width:0.8;"/>
   </g>
   <g id="text_14">
    <!-- (2.4 0.82) -->
    <g style="fill:#008000;" transform="translate(172.186125 97.733445)scale(0.1 -0.1)">
     <defs>
      <path d="M 1984 4856 
Q 1566 4138 1362 3434 
Q 1159 2731 1159 2009 
Q 1159 1288 1364 580 
Q 1569 -128 1984 -844 
L 1484 -844 
Q 1016 -109 783 600 
Q 550 1309 550 2009 
Q 550 2706 781 3412 
Q 1013 4119 1484 4856 
L 1984 4856 
z
" id="DejaVuSans-28" transform="scale(0.015625)"/>
      <path id="DejaVuSans-20" transform="scale(0.015625)"/>
      <path d="M 513 4856 
L 1013 4856 
Q 1481 4119 1714 3412 
Q 1947 2706 1947 2009 
Q 1947 1309 1714 600 
Q 1481 -109 1013 -844 
L 513 -844 
Q 928 -128 1133 580 
Q 1338 1288 1338 2009 
Q 1338 2731 1133 3434 
Q 928 4138 513 4856 
z
" id="DejaVuSans-29" transform="scale(0.015625)"/>
     </defs>
     <use xlink:href="#DejaVuSans-28"/>
     <use x="39.013672" xlink:href="#DejaVuSans-32"/>
     <use x="102.636719" xlink:href="#DejaVuSans-2e"/>
     <use x="134.423828" xlink:href="#DejaVuSans-34"/>
     <use x="198.046875" xlink:href="#DejaVuSans-20"/>
     <use x="229.833984" xlink:href="#DejaVuSans-30"/>
     <use x="293.457031" xlink:href="#DejaVuSans-2e"/>
     <use x="325.244141" xlink:href="#DejaVuSans-38"/>
     <use x="388.867188" xlink:href="#DejaVuSans-32"/>
     <use x="452.490234" xlink:href="#DejaVuSans-29"/>
    </g>
   </g>
   <g id="legend_1">
    <g id="patch_7">
     <path d="M 64.6 302.584 
L 141.214063 302.584 
Q 143.214063 302.584 143.214063 300.584 
L 143.214063 257.549625 
Q 143.214063 255.549625 141.214063 255.549625 
L 64.6 255.549625 
Q 62.6 255.549625 62.6 257.549625 
L 62.6 300.584 
Q 62.6 302.584 64.6 302.584 
z
" style="fill:#ffffff;opacity:0.8;stroke:#cccccc;stroke-linejoin:miter;"/>
    </g>
    <g id="line2d_16">
     <path d="M 66.6 263.648062 
L 86.6 263.648062 
" style="fill:none;stroke:#1f77b4;stroke-dasharray:5.55,2.4;stroke-dashoffset:0;stroke-width:1.5;"/>
    </g>
    <g id="line2d_17"/>
    <g id="text_15">
     <!-- Precision -->
     <g transform="translate(94.6 267.148062)scale(0.1 -0.1)">
      <defs>
       <path d="M 1259 4147 
L 1259 2394 
L 2053 2394 
Q 2494 2394 2734 2622 
Q 2975 2850 2975 3272 
Q 2975 3691 2734 3919 
Q 2494 4147 2053 4147 
L 1259 4147 
z
M 628 4666 
L 2053 4666 
Q 2838 4666 3239 4311 
Q 3641 3956 3641 3272 
Q 3641 2581 3239 2228 
Q 2838 1875 2053 1875 
L 1259 1875 
L 1259 0 
L 628 0 
L 628 4666 
z
" id="DejaVuSans-50" transform="scale(0.015625)"/>
       <path d="M 3513 2113 
L 3513 0 
L 2938 0 
L 2938 2094 
Q 2938 2591 2744 2837 
Q 2550 3084 2163 3084 
Q 1697 3084 1428 2787 
Q 1159 2491 1159 1978 
L 1159 0 
L 581 0 
L 581 3500 
L 1159 3500 
L 1159 2956 
Q 1366 3272 1645 3428 
Q 1925 3584 2291 3584 
Q 2894 3584 3203 3211 
Q 3513 2838 3513 2113 
z
" id="DejaVuSans-6e" transform="scale(0.015625)"/>
      </defs>
      <use xlink:href="#DejaVuSans-50"/>
      <use x="58.552734" xlink:href="#DejaVuSans-72"/>
      <use x="97.416016" xlink:href="#DejaVuSans-65"/>
      <use x="158.939453" xlink:href="#DejaVuSans-63"/>
      <use x="213.919922" xlink:href="#DejaVuSans-69"/>
      <use x="241.703125" xlink:href="#DejaVuSans-73"/>
      <use x="293.802734" xlink:href="#DejaVuSans-69"/>
      <use x="321.585938" xlink:href="#DejaVuSans-6f"/>
      <use x="382.767578" xlink:href="#DejaVuSans-6e"/>
     </g>
    </g>
    <g id="line2d_18">
     <path d="M 66.6 278.326188 
L 86.6 278.326188 
" style="fill:none;stroke:#ff7f0e;stroke-dasharray:9.6,2.4,1.5,2.4;stroke-dashoffset:0;stroke-width:1.5;"/>
    </g>
    <g id="line2d_19"/>
    <g id="text_16">
     <!-- Recall -->
     <g transform="translate(94.6 281.826188)scale(0.1 -0.1)">
      <defs>
       <path d="M 2841 2188 
Q 3044 2119 3236 1894 
Q 3428 1669 3622 1275 
L 4263 0 
L 3584 0 
L 2988 1197 
Q 2756 1666 2539 1819 
Q 2322 1972 1947 1972 
L 1259 1972 
L 1259 0 
L 628 0 
L 628 4666 
L 2053 4666 
Q 2853 4666 3247 4331 
Q 3641 3997 3641 3322 
Q 3641 2881 3436 2590 
Q 3231 2300 2841 2188 
z
M 1259 4147 
L 1259 2491 
L 2053 2491 
Q 2509 2491 2742 2702 
Q 2975 2913 2975 3322 
Q 2975 3731 2742 3939 
Q 2509 4147 2053 4147 
L 1259 4147 
z
" id="DejaVuSans-52" transform="scale(0.015625)"/>
       <path d="M 2194 1759 
Q 1497 1759 1228 1600 
Q 959 1441 959 1056 
Q 959 750 1161 570 
Q 1363 391 1709 391 
Q 2188 391 2477 730 
Q 2766 1069 2766 1631 
L 2766 1759 
L 2194 1759 
z
M 3341 1997 
L 3341 0 
L 2766 0 
L 2766 531 
Q 2569 213 2275 61 
Q 1981 -91 1556 -91 
Q 1019 -91 701 211 
Q 384 513 384 1019 
Q 384 1609 779 1909 
Q 1175 2209 1959 2209 
L 2766 2209 
L 2766 2266 
Q 2766 2663 2505 2880 
Q 2244 3097 1772 3097 
Q 1472 3097 1187 3025 
Q 903 2953 641 2809 
L 641 3341 
Q 956 3463 1253 3523 
Q 1550 3584 1831 3584 
Q 2591 3584 2966 3190 
Q 3341 2797 3341 1997 
z
" id="DejaVuSans-61" transform="scale(0.015625)"/>
      </defs>
      <use xlink:href="#DejaVuSans-52"/>
      <use x="64.982422" xlink:href="#DejaVuSans-65"/>
      <use x="126.505859" xlink:href="#DejaVuSans-63"/>
      <use x="181.486328" xlink:href="#DejaVuSans-61"/>
      <use x="242.765625" xlink:href="#DejaVuSans-6c"/>
      <use x="270.548828" xlink:href="#DejaVuSans-6c"/>
     </g>
    </g>
    <g id="line2d_20">
     <path d="M 66.6 293.004312 
L 86.6 293.004312 
" style="fill:none;stroke:#2ca02c;stroke-dasharray:1.5,2.475;stroke-dashoffset:0;stroke-width:1.5;"/>
    </g>
    <g id="line2d_21"/>
    <g id="text_17">
     <!-- F1 score -->
     <g transform="translate(94.6 296.504312)scale(0.1 -0.1)">
      <defs>
       <path d="M 628 4666 
L 3309 4666 
L 3309 4134 
L 1259 4134 
L 1259 2759 
L 3109 2759 
L 3109 2228 
L 1259 2228 
L 1259 0 
L 628 0 
L 628 4666 
z
" id="DejaVuSans-46" transform="scale(0.015625)"/>
      </defs>
      <use xlink:href="#DejaVuSans-46"/>
      <use x="57.519531" xlink:href="#DejaVuSans-31"/>
      <use x="121.142578" xlink:href="#DejaVuSans-20"/>
      <use x="152.929688" xlink:href="#DejaVuSans-73"/>
      <use x="205.029297" xlink:href="#DejaVuSans-63"/>
      <use x="260.009766" xlink:href="#DejaVuSans-6f"/>
      <use x="321.191406" xlink:href="#DejaVuSans-72"/>
      <use x="360.054688" xlink:href="#DejaVuSans-65"/>
     </g>
    </g>
   </g>
  </g>
 </g>
 <defs>
  <clipPath id="p576f8a86bf">
   <rect height="266.112" width="357.12" x="57.6" y="41.472"/>
  </clipPath>
 </defs>
</svg>
