<?xml version="1.0" encoding="utf-8" standalone="no"?>
<!DOCTYPE svg PUBLIC "-//W3C//DTD SVG 1.1//EN"
  "http://www.w3.org/Graphics/SVG/1.1/DTD/svg11.dtd">
<svg height="345.6pt" version="1.1" viewBox="0 0 460.8 345.6" width="460.8pt" xmlns="http://www.w3.org/2000/svg" xmlns:xlink="http://www.w3.org/1999/xlink">
 <metadata>
  <rdf:RDF xmlns:cc="http://creativecommons.org/ns#" xmlns:dc="http://purl.org/dc/elements/1.1/" xmlns:rdf="http://www.w3.org/1999/02/22-rdf-syntax-ns#">
   <cc:Work>
    <dc:type rdf:resource="http://purl.org/dc/dcmitype/StillImage"/>
    <dc:date>2021-06-27T11:00:54.234079</dc:date>
    <dc:format>image/svg+xml</dc:format>
    <dc:creator>
     <cc:Agent>
      <dc:title>Matplotlib v3.4.2, https://matplotlib.org/</dc:title>
     </cc:Agent>
    </dc:creator>
   </cc:Work>
  </rdf:RDF>
 </metadata>
 <defs>
  <style type="text/css">*{stroke-linecap:butt;stroke-linejoin:round;}</style>
 </defs>
 <g id="figure_1">
  <g id="patch_1">
   <path d="M 0 345.6 
L 460.8 345.6 
L 460.8 0 
L 0 0 
z
" style="fill:#ffffff;"/>
  </g>
  <g id="axes_1">
   <g id="patch_2">
    <path d="M 57.6 307.584 
L 414.72 307.584 
L 414.72 41.472 
L 57.6 41.472 
z
" style="fill:#ffffff;"/>
   </g>
   <g id="patch_3">
    <path clip-path="url(#p226877fdb7)" d="M 87.36 74.736 
L 102.24 74.736 
L 102.24 63.648 
L 87.36 63.648 
z
" style="fill:none;stroke:#000000;stroke-dasharray:3.7,1.6;stroke-dashoffset:0;stroke-linejoin:miter;"/>
   </g>
   <g id="matplotlib.axis_1">
    <g id="xtick_1">
     <g id="line2d_1">
      <defs>
       <path d="M 0 0 
L 0 3.5 
" id="mc97844f739" style="stroke:#000000;stroke-width:0.8;"/>
      </defs>
      <g>
       <use style="stroke:#000000;stroke-width:0.8;" x="87.36" xlink:href="#mc97844f739" y="307.584"/>
      </g>
     </g>
     <g id="text_1">
      <!-- 0.0 -->
      <g transform="translate(79.408438 322.182437)scale(0.1 -0.1)">
       <defs>
        <path d="M 2034 4250 
Q 1547 4250 1301 3770 
Q 1056 3291 1056 2328 
Q 1056 1369 1301 889 
Q 1547 409 2034 409 
Q 2525 409 2770 889 
Q 3016 1369 3016 2328 
Q 3016 3291 2770 3770 
Q 2525 4250 2034 4250 
z
M 2034 4750 
Q 2819 4750 3233 4129 
Q 3647 3509 3647 2328 
Q 3647 1150 3233 529 
Q 2819 -91 2034 -91 
Q 1250 -91 836 529 
Q 422 1150 422 2328 
Q 422 3509 836 4129 
Q 1250 4750 2034 4750 
z
" id="DejaVuSans-30" transform="scale(0.015625)"/>
        <path d="M 684 794 
L 1344 794 
L 1344 0 
L 684 0 
L 684 794 
z
" id="DejaVuSans-2e" transform="scale(0.015625)"/>
       </defs>
       <use xlink:href="#DejaVuSans-30"/>
       <use x="63.623047" xlink:href="#DejaVuSans-2e"/>
       <use x="95.410156" xlink:href="#DejaVuSans-30"/>
      </g>
     </g>
    </g>
    <g id="xtick_2">
     <g id="line2d_2">
      <g>
       <use style="stroke:#000000;stroke-width:0.8;" x="146.88" xlink:href="#mc97844f739" y="307.584"/>
      </g>
     </g>
     <g id="text_2">
      <!-- 0.2 -->
      <g transform="translate(138.928438 322.182437)scale(0.1 -0.1)">
       <defs>
        <path d="M 1228 531 
L 3431 531 
L 3431 0 
L 469 0 
L 469 531 
Q 828 903 1448 1529 
Q 2069 2156 2228 2338 
Q 2531 2678 2651 2914 
Q 2772 3150 2772 3378 
Q 2772 3750 2511 3984 
Q 2250 4219 1831 4219 
Q 1534 4219 1204 4116 
Q 875 4013 500 3803 
L 500 4441 
Q 881 4594 1212 4672 
Q 1544 4750 1819 4750 
Q 2544 4750 2975 4387 
Q 3406 4025 3406 3419 
Q 3406 3131 3298 2873 
Q 3191 2616 2906 2266 
Q 2828 2175 2409 1742 
Q 1991 1309 1228 531 
z
" id="DejaVuSans-32" transform="scale(0.015625)"/>
       </defs>
       <use xlink:href="#DejaVuSans-30"/>
       <use x="63.623047" xlink:href="#DejaVuSans-2e"/>
       <use x="95.410156" xlink:href="#DejaVuSans-32"/>
      </g>
     </g>
    </g>
    <g id="xtick_3">
     <g id="line2d_3">
      <g>
       <use style="stroke:#000000;stroke-width:0.8;" x="206.4" xlink:href="#mc97844f739" y="307.584"/>
      </g>
     </g>
     <g id="text_3">
      <!-- 0.4 -->
      <g transform="translate(198.448438 322.182437)scale(0.1 -0.1)">
       <defs>
        <path d="M 2419 4116 
L 825 1625 
L 2419 1625 
L 2419 4116 
z
M 2253 4666 
L 3047 4666 
L 3047 1625 
L 3713 1625 
L 3713 1100 
L 3047 1100 
L 3047 0 
L 2419 0 
L 2419 1100 
L 313 1100 
L 313 1709 
L 2253 4666 
z
" id="DejaVuSans-34" transform="scale(0.015625)"/>
       </defs>
       <use xlink:href="#DejaVuSans-30"/>
       <use x="63.623047" xlink:href="#DejaVuSans-2e"/>
       <use x="95.410156" xlink:href="#DejaVuSans-34"/>
      </g>
     </g>
    </g>
    <g id="xtick_4">
     <g id="line2d_4">
      <g>
       <use style="stroke:#000000;stroke-width:0.8;" x="265.92" xlink:href="#mc97844f739" y="307.584"/>
      </g>
     </g>
     <g id="text_4">
      <!-- 0.6 -->
      <g transform="translate(257.968437 322.182437)scale(0.1 -0.1)">
       <defs>
        <path d="M 2113 2584 
Q 1688 2584 1439 2293 
Q 1191 2003 1191 1497 
Q 1191 994 1439 701 
Q 1688 409 2113 409 
Q 2538 409 2786 701 
Q 3034 994 3034 1497 
Q 3034 2003 2786 2293 
Q 2538 2584 2113 2584 
z
M 3366 4563 
L 3366 3988 
Q 3128 4100 2886 4159 
Q 2644 4219 2406 4219 
Q 1781 4219 1451 3797 
Q 1122 3375 1075 2522 
Q 1259 2794 1537 2939 
Q 1816 3084 2150 3084 
Q 2853 3084 3261 2657 
Q 3669 2231 3669 1497 
Q 3669 778 3244 343 
Q 2819 -91 2113 -91 
Q 1303 -91 875 529 
Q 447 1150 447 2328 
Q 447 3434 972 4092 
Q 1497 4750 2381 4750 
Q 2619 4750 2861 4703 
Q 3103 4656 3366 4563 
z
" id="DejaVuSans-36" transform="scale(0.015625)"/>
       </defs>
       <use xlink:href="#DejaVuSans-30"/>
       <use x="63.623047" xlink:href="#DejaVuSans-2e"/>
       <use x="95.410156" xlink:href="#DejaVuSans-36"/>
      </g>
     </g>
    </g>
    <g id="xtick_5">
     <g id="line2d_5">
      <g>
       <use style="stroke:#000000;stroke-width:0.8;" x="325.44" xlink:href="#mc97844f739" y="307.584"/>
      </g>
     </g>
     <g id="text_5">
      <!-- 0.8 -->
      <g transform="translate(317.488437 322.182437)scale(0.1 -0.1)">
       <defs>
        <path d="M 2034 2216 
Q 1584 2216 1326 1975 
Q 1069 1734 1069 1313 
Q 1069 891 1326 650 
Q 1584 409 2034 409 
Q 2484 409 2743 651 
Q 3003 894 3003 1313 
Q 3003 1734 2745 1975 
Q 2488 2216 2034 2216 
z
M 1403 2484 
Q 997 2584 770 2862 
Q 544 3141 544 3541 
Q 544 4100 942 4425 
Q 1341 4750 2034 4750 
Q 2731 4750 3128 4425 
Q 3525 4100 3525 3541 
Q 3525 3141 3298 2862 
Q 3072 2584 2669 2484 
Q 3125 2378 3379 2068 
Q 3634 1759 3634 1313 
Q 3634 634 3220 271 
Q 2806 -91 2034 -91 
Q 1263 -91 848 271 
Q 434 634 434 1313 
Q 434 1759 690 2068 
Q 947 2378 1403 2484 
z
M 1172 3481 
Q 1172 3119 1398 2916 
Q 1625 2713 2034 2713 
Q 2441 2713 2670 2916 
Q 2900 3119 2900 3481 
Q 2900 3844 2670 4047 
Q 2441 4250 2034 4250 
Q 1625 4250 1398 4047 
Q 1172 3844 1172 3481 
z
" id="DejaVuSans-38" transform="scale(0.015625)"/>
       </defs>
       <use xlink:href="#DejaVuSans-30"/>
       <use x="63.623047" xlink:href="#DejaVuSans-2e"/>
       <use x="95.410156" xlink:href="#DejaVuSans-38"/>
      </g>
     </g>
    </g>
    <g id="xtick_6">
     <g id="line2d_6">
      <g>
       <use style="stroke:#000000;stroke-width:0.8;" x="384.96" xlink:href="#mc97844f739" y="307.584"/>
      </g>
     </g>
     <g id="text_6">
      <!-- 1.0 -->
      <g transform="translate(377.008438 322.182437)scale(0.1 -0.1)">
       <defs>
        <path d="M 794 531 
L 1825 531 
L 1825 4091 
L 703 3866 
L 703 4441 
L 1819 4666 
L 2450 4666 
L 2450 531 
L 3481 531 
L 3481 0 
L 794 0 
L 794 531 
z
" id="DejaVuSans-31" transform="scale(0.015625)"/>
       </defs>
       <use xlink:href="#DejaVuSans-31"/>
       <use x="63.623047" xlink:href="#DejaVuSans-2e"/>
       <use x="95.410156" xlink:href="#DejaVuSans-30"/>
      </g>
     </g>
    </g>
    <g id="text_7">
     <!-- False Positive Rate -->
     <g transform="translate(189.693594 335.860562)scale(0.1 -0.1)">
      <defs>
       <path d="M 628 4666 
L 3309 4666 
L 3309 4134 
L 1259 4134 
L 1259 2759 
L 3109 2759 
L 3109 2228 
L 1259 2228 
L 1259 0 
L 628 0 
L 628 4666 
z
" id="DejaVuSans-46" transform="scale(0.015625)"/>
       <path d="M 2194 1759 
Q 1497 1759 1228 1600 
Q 959 1441 959 1056 
Q 959 750 1161 570 
Q 1363 391 1709 391 
Q 2188 391 2477 730 
Q 2766 1069 2766 1631 
L 2766 1759 
L 2194 1759 
z
M 3341 1997 
L 3341 0 
L 2766 0 
L 2766 531 
Q 2569 213 2275 61 
Q 1981 -91 1556 -91 
Q 1019 -91 701 211 
Q 384 513 384 1019 
Q 384 1609 779 1909 
Q 1175 2209 1959 2209 
L 2766 2209 
L 2766 2266 
Q 2766 2663 2505 2880 
Q 2244 3097 1772 3097 
Q 1472 3097 1187 3025 
Q 903 2953 641 2809 
L 641 3341 
Q 956 3463 1253 3523 
Q 1550 3584 1831 3584 
Q 2591 3584 2966 3190 
Q 3341 2797 3341 1997 
z
" id="DejaVuSans-61" transform="scale(0.015625)"/>
       <path d="M 603 4863 
L 1178 4863 
L 1178 0 
L 603 0 
L 603 4863 
z
" id="DejaVuSans-6c" transform="scale(0.015625)"/>
       <path d="M 2834 3397 
L 2834 2853 
Q 2591 2978 2328 3040 
Q 2066 3103 1784 3103 
Q 1356 3103 1142 2972 
Q 928 2841 928 2578 
Q 928 2378 1081 2264 
Q 1234 2150 1697 2047 
L 1894 2003 
Q 2506 1872 2764 1633 
Q 3022 1394 3022 966 
Q 3022 478 2636 193 
Q 2250 -91 1575 -91 
Q 1294 -91 989 -36 
Q 684 19 347 128 
L 347 722 
Q 666 556 975 473 
Q 1284 391 1588 391 
Q 1994 391 2212 530 
Q 2431 669 2431 922 
Q 2431 1156 2273 1281 
Q 2116 1406 1581 1522 
L 1381 1569 
Q 847 1681 609 1914 
Q 372 2147 372 2553 
Q 372 3047 722 3315 
Q 1072 3584 1716 3584 
Q 2034 3584 2315 3537 
Q 2597 3491 2834 3397 
z
" id="DejaVuSans-73" transform="scale(0.015625)"/>
       <path d="M 3597 1894 
L 3597 1613 
L 953 1613 
Q 991 1019 1311 708 
Q 1631 397 2203 397 
Q 2534 397 2845 478 
Q 3156 559 3463 722 
L 3463 178 
Q 3153 47 2828 -22 
Q 2503 -91 2169 -91 
Q 1331 -91 842 396 
Q 353 884 353 1716 
Q 353 2575 817 3079 
Q 1281 3584 2069 3584 
Q 2775 3584 3186 3129 
Q 3597 2675 3597 1894 
z
M 3022 2063 
Q 3016 2534 2758 2815 
Q 2500 3097 2075 3097 
Q 1594 3097 1305 2825 
Q 1016 2553 972 2059 
L 3022 2063 
z
" id="DejaVuSans-65" transform="scale(0.015625)"/>
       <path id="DejaVuSans-20" transform="scale(0.015625)"/>
       <path d="M 1259 4147 
L 1259 2394 
L 2053 2394 
Q 2494 2394 2734 2622 
Q 2975 2850 2975 3272 
Q 2975 3691 2734 3919 
Q 2494 4147 2053 4147 
L 1259 4147 
z
M 628 4666 
L 2053 4666 
Q 2838 4666 3239 4311 
Q 3641 3956 3641 3272 
Q 3641 2581 3239 2228 
Q 2838 1875 2053 1875 
L 1259 1875 
L 1259 0 
L 628 0 
L 628 4666 
z
" id="DejaVuSans-50" transform="scale(0.015625)"/>
       <path d="M 1959 3097 
Q 1497 3097 1228 2736 
Q 959 2375 959 1747 
Q 959 1119 1226 758 
Q 1494 397 1959 397 
Q 2419 397 2687 759 
Q 2956 1122 2956 1747 
Q 2956 2369 2687 2733 
Q 2419 3097 1959 3097 
z
M 1959 3584 
Q 2709 3584 3137 3096 
Q 3566 2609 3566 1747 
Q 3566 888 3137 398 
Q 2709 -91 1959 -91 
Q 1206 -91 779 398 
Q 353 888 353 1747 
Q 353 2609 779 3096 
Q 1206 3584 1959 3584 
z
" id="DejaVuSans-6f" transform="scale(0.015625)"/>
       <path d="M 603 3500 
L 1178 3500 
L 1178 0 
L 603 0 
L 603 3500 
z
M 603 4863 
L 1178 4863 
L 1178 4134 
L 603 4134 
L 603 4863 
z
" id="DejaVuSans-69" transform="scale(0.015625)"/>
       <path d="M 1172 4494 
L 1172 3500 
L 2356 3500 
L 2356 3053 
L 1172 3053 
L 1172 1153 
Q 1172 725 1289 603 
Q 1406 481 1766 481 
L 2356 481 
L 2356 0 
L 1766 0 
Q 1100 0 847 248 
Q 594 497 594 1153 
L 594 3053 
L 172 3053 
L 172 3500 
L 594 3500 
L 594 4494 
L 1172 4494 
z
" id="DejaVuSans-74" transform="scale(0.015625)"/>
       <path d="M 191 3500 
L 800 3500 
L 1894 563 
L 2988 3500 
L 3597 3500 
L 2284 0 
L 1503 0 
L 191 3500 
z
" id="DejaVuSans-76" transform="scale(0.015625)"/>
       <path d="M 2841 2188 
Q 3044 2119 3236 1894 
Q 3428 1669 3622 1275 
L 4263 0 
L 3584 0 
L 2988 1197 
Q 2756 1666 2539 1819 
Q 2322 1972 1947 1972 
L 1259 1972 
L 1259 0 
L 628 0 
L 628 4666 
L 2053 4666 
Q 2853 4666 3247 4331 
Q 3641 3997 3641 3322 
Q 3641 2881 3436 2590 
Q 3231 2300 2841 2188 
z
M 1259 4147 
L 1259 2491 
L 2053 2491 
Q 2509 2491 2742 2702 
Q 2975 2913 2975 3322 
Q 2975 3731 2742 3939 
Q 2509 4147 2053 4147 
L 1259 4147 
z
" id="DejaVuSans-52" transform="scale(0.015625)"/>
      </defs>
      <use xlink:href="#DejaVuSans-46"/>
      <use x="48.394531" xlink:href="#DejaVuSans-61"/>
      <use x="109.673828" xlink:href="#DejaVuSans-6c"/>
      <use x="137.457031" xlink:href="#DejaVuSans-73"/>
      <use x="189.556641" xlink:href="#DejaVuSans-65"/>
      <use x="251.080078" xlink:href="#DejaVuSans-20"/>
      <use x="282.867188" xlink:href="#DejaVuSans-50"/>
      <use x="339.544922" xlink:href="#DejaVuSans-6f"/>
      <use x="400.726562" xlink:href="#DejaVuSans-73"/>
      <use x="452.826172" xlink:href="#DejaVuSans-69"/>
      <use x="480.609375" xlink:href="#DejaVuSans-74"/>
      <use x="519.818359" xlink:href="#DejaVuSans-69"/>
      <use x="547.601562" xlink:href="#DejaVuSans-76"/>
      <use x="606.78125" xlink:href="#DejaVuSans-65"/>
      <use x="668.304688" xlink:href="#DejaVuSans-20"/>
      <use x="700.091797" xlink:href="#DejaVuSans-52"/>
      <use x="767.324219" xlink:href="#DejaVuSans-61"/>
      <use x="828.603516" xlink:href="#DejaVuSans-74"/>
      <use x="867.8125" xlink:href="#DejaVuSans-65"/>
     </g>
    </g>
   </g>
   <g id="matplotlib.axis_2">
    <g id="ytick_1">
     <g id="line2d_7">
      <defs>
       <path d="M 0 0 
L -3.5 0 
" id="ma69958a536" style="stroke:#000000;stroke-width:0.8;"/>
      </defs>
      <g>
       <use style="stroke:#000000;stroke-width:0.8;" x="57.6" xlink:href="#ma69958a536" y="285.408"/>
      </g>
     </g>
     <g id="text_8">
      <!-- 0.0 -->
      <g transform="translate(34.696875 289.207219)scale(0.1 -0.1)">
       <use xlink:href="#DejaVuSans-30"/>
       <use x="63.623047" xlink:href="#DejaVuSans-2e"/>
       <use x="95.410156" xlink:href="#DejaVuSans-30"/>
      </g>
     </g>
    </g>
    <g id="ytick_2">
     <g id="line2d_8">
      <g>
       <use style="stroke:#000000;stroke-width:0.8;" x="57.6" xlink:href="#ma69958a536" y="241.056"/>
      </g>
     </g>
     <g id="text_9">
      <!-- 0.2 -->
      <g transform="translate(34.696875 244.855219)scale(0.1 -0.1)">
       <use xlink:href="#DejaVuSans-30"/>
       <use x="63.623047" xlink:href="#DejaVuSans-2e"/>
       <use x="95.410156" xlink:href="#DejaVuSans-32"/>
      </g>
     </g>
    </g>
    <g id="ytick_3">
     <g id="line2d_9">
      <g>
       <use style="stroke:#000000;stroke-width:0.8;" x="57.6" xlink:href="#ma69958a536" y="196.704"/>
      </g>
     </g>
     <g id="text_10">
      <!-- 0.4 -->
      <g transform="translate(34.696875 200.503219)scale(0.1 -0.1)">
       <use xlink:href="#DejaVuSans-30"/>
       <use x="63.623047" xlink:href="#DejaVuSans-2e"/>
       <use x="95.410156" xlink:href="#DejaVuSans-34"/>
      </g>
     </g>
    </g>
    <g id="ytick_4">
     <g id="line2d_10">
      <g>
       <use style="stroke:#000000;stroke-width:0.8;" x="57.6" xlink:href="#ma69958a536" y="152.352"/>
      </g>
     </g>
     <g id="text_11">
      <!-- 0.6 -->
      <g transform="translate(34.696875 156.151219)scale(0.1 -0.1)">
       <use xlink:href="#DejaVuSans-30"/>
       <use x="63.623047" xlink:href="#DejaVuSans-2e"/>
       <use x="95.410156" xlink:href="#DejaVuSans-36"/>
      </g>
     </g>
    </g>
    <g id="ytick_5">
     <g id="line2d_11">
      <g>
       <use style="stroke:#000000;stroke-width:0.8;" x="57.6" xlink:href="#ma69958a536" y="108"/>
      </g>
     </g>
     <g id="text_12">
      <!-- 0.8 -->
      <g transform="translate(34.696875 111.799219)scale(0.1 -0.1)">
       <use xlink:href="#DejaVuSans-30"/>
       <use x="63.623047" xlink:href="#DejaVuSans-2e"/>
       <use x="95.410156" xlink:href="#DejaVuSans-38"/>
      </g>
     </g>
    </g>
    <g id="ytick_6">
     <g id="line2d_12">
      <g>
       <use style="stroke:#000000;stroke-width:0.8;" x="57.6" xlink:href="#ma69958a536" y="63.648"/>
      </g>
     </g>
     <g id="text_13">
      <!-- 1.0 -->
      <g transform="translate(34.696875 67.447219)scale(0.1 -0.1)">
       <use xlink:href="#DejaVuSans-31"/>
       <use x="63.623047" xlink:href="#DejaVuSans-2e"/>
       <use x="95.410156" xlink:href="#DejaVuSans-30"/>
      </g>
     </g>
    </g>
    <g id="text_14">
     <!-- True Positive Rate -->
     <g transform="translate(28.617187 219.057687)rotate(-90)scale(0.1 -0.1)">
      <defs>
       <path d="M -19 4666 
L 3928 4666 
L 3928 4134 
L 2272 4134 
L 2272 0 
L 1638 0 
L 1638 4134 
L -19 4134 
L -19 4666 
z
" id="DejaVuSans-54" transform="scale(0.015625)"/>
       <path d="M 2631 2963 
Q 2534 3019 2420 3045 
Q 2306 3072 2169 3072 
Q 1681 3072 1420 2755 
Q 1159 2438 1159 1844 
L 1159 0 
L 581 0 
L 581 3500 
L 1159 3500 
L 1159 2956 
Q 1341 3275 1631 3429 
Q 1922 3584 2338 3584 
Q 2397 3584 2469 3576 
Q 2541 3569 2628 3553 
L 2631 2963 
z
" id="DejaVuSans-72" transform="scale(0.015625)"/>
       <path d="M 544 1381 
L 544 3500 
L 1119 3500 
L 1119 1403 
Q 1119 906 1312 657 
Q 1506 409 1894 409 
Q 2359 409 2629 706 
Q 2900 1003 2900 1516 
L 2900 3500 
L 3475 3500 
L 3475 0 
L 2900 0 
L 2900 538 
Q 2691 219 2414 64 
Q 2138 -91 1772 -91 
Q 1169 -91 856 284 
Q 544 659 544 1381 
z
M 1991 3584 
L 1991 3584 
z
" id="DejaVuSans-75" transform="scale(0.015625)"/>
      </defs>
      <use xlink:href="#DejaVuSans-54"/>
      <use x="46.333984" xlink:href="#DejaVuSans-72"/>
      <use x="87.447266" xlink:href="#DejaVuSans-75"/>
      <use x="150.826172" xlink:href="#DejaVuSans-65"/>
      <use x="212.349609" xlink:href="#DejaVuSans-20"/>
      <use x="244.136719" xlink:href="#DejaVuSans-50"/>
      <use x="300.814453" xlink:href="#DejaVuSans-6f"/>
      <use x="361.996094" xlink:href="#DejaVuSans-73"/>
      <use x="414.095703" xlink:href="#DejaVuSans-69"/>
      <use x="441.878906" xlink:href="#DejaVuSans-74"/>
      <use x="481.087891" xlink:href="#DejaVuSans-69"/>
      <use x="508.871094" xlink:href="#DejaVuSans-76"/>
      <use x="568.050781" xlink:href="#DejaVuSans-65"/>
      <use x="629.574219" xlink:href="#DejaVuSans-20"/>
      <use x="661.361328" xlink:href="#DejaVuSans-52"/>
      <use x="728.59375" xlink:href="#DejaVuSans-61"/>
      <use x="789.873047" xlink:href="#DejaVuSans-74"/>
      <use x="829.082031" xlink:href="#DejaVuSans-65"/>
     </g>
    </g>
   </g>
   <g id="line2d_13">
    <path clip-path="url(#p226877fdb7)" d="M 87.36 285.408 
L 87.367165 285.408 
L 87.367165 285.301282 
L 87.467468 265.238298 
L 87.474632 265.238298 
L 87.481797 265.238298 
L 87.481797 265.13158 
L 87.589265 245.495469 
L 87.603594 245.495469 
L 87.603594 245.388751 
L 87.703897 233.543053 
L 87.711062 233.543053 
L 87.718226 233.543053 
L 87.825694 218.922687 
L 87.832859 218.922687 
L 87.832859 218.815969 
L 87.940326 208.144169 
L 87.954655 208.037451 
L 88.062123 199.500012 
L 88.076452 199.393294 
L 88.18392 187.120724 
L 88.205414 187.014006 
L 88.312882 179.757182 
L 88.334375 179.650464 
L 88.441843 171.113024 
L 88.449008 171.113024 
L 88.449008 171.006306 
L 88.556476 165.883842 
L 88.635285 163.109174 
L 88.735589 159.907634 
L 88.742753 159.907634 
L 88.749918 159.907634 
L 88.749918 159.800916 
L 88.857386 156.706094 
L 88.878879 156.706094 
L 88.979182 153.504554 
L 88.986347 153.504554 
L 89.000676 153.504554 
L 89.000676 153.397836 
L 89.108144 148.91568 
L 89.115308 148.91568 
L 89.208447 143.259627 
L 89.222776 143.259627 
L 89.237105 143.259627 
L 89.237105 143.152909 
L 89.344573 140.164805 
L 89.358902 140.058087 
L 89.459206 133.334853 
L 89.46637 133.334853 
L 89.487864 133.228135 
L 89.595332 131.307211 
L 89.602496 131.307211 
L 89.602496 131.200493 
L 89.709964 127.465363 
L 89.717128 127.465363 
L 89.717128 127.358645 
L 89.810267 124.370541 
L 89.824596 124.370541 
L 89.831761 124.370541 
L 89.831761 124.263823 
L 89.939229 121.595873 
L 89.953558 121.595873 
L 89.953558 121.489155 
L 90.061026 117.540589 
L 90.06819 117.540589 
L 90.06819 117.433871 
L 90.168493 114.445767 
L 90.175658 114.445767 
L 90.204316 114.339049 
L 90.311784 110.497201 
L 90.318948 110.497201 
L 90.318948 110.390483 
L 90.426416 109.216585 
L 90.44791 109.109867 
L 90.548213 106.121763 
L 90.555378 106.121763 
L 90.584036 106.015045 
L 90.677175 103.240377 
L 90.691504 103.240377 
L 90.720162 103.133659 
L 90.82763 100.358991 
L 90.856288 100.358991 
L 90.856288 100.252273 
L 90.963756 98.971657 
L 90.999578 98.864939 
L 91.107046 96.730579 
L 91.121375 96.623861 
L 91.221678 95.129809 
L 91.228843 95.129809 
L 91.236008 95.129809 
L 91.236008 95.023091 
L 91.343475 94.169347 
L 91.379298 94.169347 
L 91.486766 93.208885 
L 91.522588 93.102167 
L 91.630056 92.355141 
L 91.687373 92.248423 
L 91.79484 90.647654 
L 91.809169 90.647654 
L 91.809169 90.540936 
L 91.916637 89.26032 
L 91.930966 89.26032 
L 91.930966 89.153602 
L 92.038434 88.406576 
L 92.059928 88.299858 
L 92.167396 86.912524 
L 92.210383 86.805806 
L 92.310686 85.418472 
L 92.353673 85.311754 
L 92.453977 84.564728 
L 92.461141 84.564728 
L 92.518457 84.45801 
L 92.618761 83.817702 
L 92.625925 83.817702 
L 92.640254 83.710984 
L 92.733393 82.537086 
L 92.747722 82.537086 
L 92.762051 82.430368 
L 92.869519 81.469906 
L 92.905342 81.363188 
L 92.976987 80.509444 
L 93.012809 80.509444 
L 93.041468 80.402726 
L 93.141771 79.6557 
L 93.148935 79.6557 
L 93.184758 79.6557 
L 93.285061 77.841494 
L 93.292226 77.841494 
L 93.349542 77.734776 
L 93.45701 76.45416 
L 93.528655 76.347442 
L 93.614629 75.600416 
L 93.636123 75.600416 
L 93.686275 75.493698 
L 93.786578 74.213082 
L 93.793743 74.213082 
L 93.808072 74.106364 
L 93.894046 73.466056 
L 93.91554 73.466056 
L 93.951362 73.359338 
L 94.05883 72.398876 
L 94.073159 72.398876 
L 94.073159 72.292158 
L 94.144804 71.331696 
L 94.180627 71.331696 
L 94.35974 71.224978 
L 94.467208 70.904824 
L 94.488701 70.904824 
L 94.596169 70.477952 
L 94.624827 70.371234 
L 94.696473 70.157798 
L 94.732295 70.157798 
L 94.861257 70.05108 
L 94.861257 69.944362 
L 94.968725 69.944362 
L 95.033205 69.837644 
L 95.076192 69.624208 
L 95.140673 69.624208 
L 95.233812 69.51749 
L 95.305457 68.9839 
L 95.34128 68.9839 
L 95.534722 68.877182 
L 95.534722 68.663746 
L 95.64219 68.663746 
L 95.878619 68.557028 
L 95.978922 68.130156 
L 95.986087 68.130156 
L 96.265503 68.023438 
L 96.372971 67.489848 
L 96.638059 67.38313 
L 96.638059 67.276412 
L 96.745527 67.276412 
L 96.831501 67.169694 
L 96.831501 67.062976 
L 96.938969 67.062976 
L 97.347347 66.956258 
L 97.418992 66.742822 
L 97.454814 66.742822 
L 97.533624 66.742822 
L 97.583776 66.422668 
L 97.641092 66.422668 
L 97.74856 66.31595 
L 97.848863 66.102514 
L 97.856028 66.102514 
L 98.042305 65.995796 
L 98.149773 65.568924 
L 98.285899 65.462206 
L 98.285899 65.355488 
L 98.393367 65.355488 
L 98.515164 65.24877 
L 98.565316 65.035334 
L 98.622632 65.035334 
L 99.267439 64.928616 
L 99.267439 64.821898 
L 99.374907 64.821898 
L 100.034043 64.71518 
L 100.034043 64.608462 
L 100.141511 64.608462 
L 102.577449 64.501744 
L 102.577449 64.395026 
L 102.684917 64.395026 
L 103.587647 64.288308 
L 103.587647 64.18159 
L 103.695115 64.18159 
L 105.120855 64.074872 
L 105.120855 63.968154 
L 105.228323 63.968154 
L 107.048112 63.861436 
L 107.048112 63.754718 
L 107.15558 63.754718 
L 384.96 63.648 
L 384.96 63.648 
" style="fill:none;stroke:#1f77b4;stroke-linecap:square;stroke-width:1.5;"/>
   </g>
   <g id="line2d_14">
    <path clip-path="url(#p226877fdb7)" d="M 87.36 285.408 
L 87.467468 272.708558 
L 87.474632 272.708558 
L 87.474632 272.60184 
L 87.574936 250.617933 
L 87.5821 250.617933 
L 87.589265 250.617933 
L 87.589265 250.511215 
L 87.696733 243.040955 
L 87.703897 243.040955 
L 87.861517 231.088539 
L 87.968985 220.416739 
L 87.976149 220.416739 
L 87.976149 220.310021 
L 88.083617 208.891195 
L 88.097946 208.891195 
L 88.097946 208.784477 
L 88.205414 202.381397 
L 88.234072 202.274679 
L 88.327211 194.911138 
L 88.34154 194.911138 
L 88.363033 194.80442 
L 88.470501 185.413236 
L 88.48483 185.306518 
L 88.577969 182.318414 
L 88.599463 182.318414 
L 88.599463 182.211696 
L 88.706931 178.79672 
L 88.72126 178.690002 
L 88.821563 174.528 
L 88.828727 174.528 
L 88.835892 174.528 
L 88.835892 174.421282 
L 88.94336 168.445074 
L 88.950524 168.445074 
L 88.950524 168.338356 
L 89.050828 164.603226 
L 89.057992 164.603226 
L 89.079486 164.603226 
L 89.079486 164.496508 
L 89.179789 161.081532 
L 89.186954 161.081532 
L 89.194118 161.081532 
L 89.194118 160.974814 
L 89.301586 156.279222 
L 89.344573 156.172504 
L 89.444876 153.397836 
L 89.452041 153.397836 
L 89.46637 153.291118 
L 89.573838 150.51645 
L 89.609661 150.51645 
L 89.609661 150.409732 
L 89.717128 145.500705 
L 89.752951 145.500705 
L 89.860419 141.765575 
L 89.874748 141.658857 
L 89.982216 136.856547 
L 89.98938 136.856547 
L 89.98938 136.749829 
L 90.096848 133.761725 
L 90.104013 133.761725 
L 90.104013 133.655007 
L 90.204316 131.093775 
L 90.211481 131.093775 
L 90.247303 130.987057 
L 90.333277 129.599723 
L 90.354771 129.599723 
L 90.519555 125.651157 
L 90.612694 120.528693 
L 90.627023 120.528693 
L 90.662846 120.421975 
L 90.763149 117.433871 
L 90.770313 117.433871 
L 90.784642 117.327153 
L 90.884946 114.979357 
L 90.899275 114.979357 
L 90.899275 114.872639 
L 91.006743 112.311407 
L 91.021072 112.204689 
L 91.121375 110.603919 
L 91.12854 110.603919 
L 91.142869 110.497201 
L 91.250337 93.422321 
L 91.257501 93.422321 
L 91.257501 93.315603 
L 91.364969 90.220782 
L 91.379298 90.220782 
L 91.379298 90.114064 
L 91.465272 88.299858 
L 91.486766 88.299858 
L 91.508259 88.19314 
L 91.608563 85.952062 
L 91.615727 85.952062 
L 91.694537 85.845344 
L 91.802005 83.817702 
L 91.816334 83.710984 
L 91.923802 83.177394 
L 91.930966 83.177394 
L 91.930966 83.070676 
L 92.016941 82.643804 
L 92.038434 82.643804 
L 92.052763 82.537086 
L 92.131573 81.683342 
L 92.160231 81.683342 
L 92.181725 81.683342 
L 92.181725 81.576624 
L 92.260534 81.043034 
L 92.289193 81.043034 
L 92.325015 80.936316 
L 92.410989 79.869136 
L 92.432483 79.869136 
L 92.446812 79.869136 
L 92.446812 79.762418 
L 92.539951 78.481802 
L 92.55428 78.481802 
L 92.676077 78.375084 
L 92.762051 77.841494 
L 92.783545 77.841494 
L 92.826532 77.841494 
L 92.905342 76.881032 
L 92.934 76.881032 
L 92.948329 76.774314 
L 92.991316 76.45416 
L 93.055797 76.45416 
L 93.084455 76.347442 
L 93.163264 75.813852 
L 93.184758 75.813852 
L 93.199087 75.813852 
L 93.29939 74.85339 
L 93.306555 74.85339 
L 93.349542 74.746672 
L 93.428352 73.999646 
L 93.45701 73.999646 
L 93.471339 73.999646 
L 93.471339 73.892928 
L 93.557313 73.25262 
L 93.578807 73.25262 
L 93.700604 73.145902 
L 93.793743 72.505594 
L 93.808072 72.505594 
L 93.894046 72.398876 
L 94.001514 71.65185 
L 94.030172 71.545132 
L 94.123311 70.904824 
L 94.13764 70.904824 
L 94.259437 70.798106 
L 94.295259 70.157798 
L 94.366905 70.157798 
L 94.531689 70.05108 
L 94.610498 69.624208 
L 94.639156 69.624208 
L 94.646321 69.624208 
L 94.646321 69.51749 
L 94.746624 69.197336 
L 94.753789 69.197336 
L 94.868421 69.090618 
L 94.918573 68.877182 
L 94.975889 68.877182 
L 95.061863 68.770464 
L 95.061863 68.663746 
L 95.169331 68.663746 
L 95.377102 68.557028 
L 95.398596 68.236874 
L 95.48457 68.236874 
L 95.871455 68.130156 
L 95.871455 68.023438 
L 95.978922 68.023438 
L 96.487604 67.91672 
L 96.537755 67.703284 
L 96.595072 67.703284 
L 96.788514 67.596566 
L 96.788514 67.38313 
L 96.895982 67.38313 
L 96.974791 67.276412 
L 97.06793 67.062976 
L 97.082259 67.062976 
L 97.14674 66.956258 
L 97.204056 66.422668 
L 97.239879 66.422668 
L 97.504966 66.31595 
L 97.59094 65.889078 
L 97.612434 65.889078 
L 98.293064 65.78236 
L 98.364709 65.568924 
L 98.400532 65.568924 
L 98.500835 65.462206 
L 98.500835 65.355488 
L 98.608303 65.355488 
L 98.808909 65.355488 
L 98.87339 65.035334 
L 98.916377 65.035334 
L 99.425059 64.928616 
L 99.511033 64.71518 
L 99.525362 64.71518 
L 100.413763 64.608462 
L 100.413763 64.501744 
L 100.521231 64.501744 
L 101.151709 64.395026 
L 101.151709 64.288308 
L 101.259177 64.288308 
L 103.358382 64.18159 
L 103.358382 64.074872 
L 103.46585 64.074872 
L 106.582418 63.968154 
L 106.582418 63.861436 
L 106.689886 63.861436 
L 110.286477 63.754718 
L 110.286477 63.648 
L 110.393945 63.648 
L 384.96 63.648 
L 384.96 63.648 
" style="fill:none;stroke:#ff7f0e;stroke-dasharray:9.6,2.4,1.5,2.4;stroke-dashoffset:0;stroke-width:1.5;"/>
   </g>
   <g id="line2d_15">
    <path clip-path="url(#p226877fdb7)" d="M 87.36 285.408 
L 87.467468 262.99722 
L 87.474632 262.99722 
L 87.474632 262.890502 
L 87.5821 251.791831 
L 87.596429 251.791831 
L 87.596429 251.685113 
L 87.703897 235.890849 
L 87.711062 235.890849 
L 87.81853 221.483919 
L 87.832859 221.483919 
L 87.832859 221.377201 
L 87.940326 213.053197 
L 87.947491 213.053197 
L 87.947491 212.946479 
L 88.054959 202.061244 
L 88.069288 202.061244 
L 88.069288 201.954526 
L 88.176756 195.444728 
L 88.18392 195.444728 
L 88.18392 195.33801 
L 88.284224 190.962572 
L 88.291388 190.962572 
L 88.298553 190.962572 
L 88.298553 190.855854 
L 88.406021 183.278876 
L 88.413185 183.278876 
L 88.413185 183.172158 
L 88.513488 178.26313 
L 88.520653 178.26313 
L 88.527817 178.26313 
L 88.527817 178.156412 
L 88.635285 174.207846 
L 88.64245 174.207846 
L 88.749918 168.65851 
L 88.757082 168.65851 
L 88.757082 168.551792 
L 88.86455 163.109174 
L 88.871715 163.109174 
L 88.871715 163.002456 
L 88.979182 157.026248 
L 88.993511 157.026248 
L 89.100979 153.291118 
L 89.129637 153.291118 
L 89.129637 153.1844 
L 89.215612 148.91568 
L 89.237105 148.91568 
L 89.24427 148.91568 
L 89.24427 148.808962 
L 89.337409 142.832755 
L 89.351738 142.832755 
L 89.380396 142.726037 
L 89.487864 139.204343 
L 89.495028 139.204343 
L 89.602496 136.216239 
L 89.609661 136.216239 
L 89.609661 136.109521 
L 89.717128 131.947519 
L 89.731457 131.840801 
L 89.838925 128.852697 
L 89.853254 128.852697 
L 89.853254 128.745979 
L 89.953558 123.730233 
L 89.960722 123.730233 
L 89.98938 123.623515 
L 90.096848 97.797759 
L 90.104013 97.797759 
L 90.104013 97.691041 
L 90.197152 95.129809 
L 90.204316 95.129809 
L 90.247303 95.023091 
L 90.347607 93.315603 
L 90.354771 93.315603 
L 90.3691 93.315603 
L 90.3691 93.208885 
L 90.440745 91.821551 
L 90.476568 91.821551 
L 90.498062 91.714833 
L 90.598365 89.26032 
L 90.605529 89.26032 
L 90.655681 89.153602 
L 90.74882 88.299858 
L 90.763149 88.299858 
L 90.777478 88.299858 
L 90.777478 88.19314 
L 90.834794 87.339396 
L 90.884946 87.339396 
L 90.899275 87.232678 
L 90.992414 86.378934 
L 91.006743 86.378934 
L 91.028236 86.272216 
L 91.121375 85.52519 
L 91.135704 85.52519 
L 91.178691 85.52519 
L 91.178691 85.418472 
L 91.278995 84.671446 
L 91.286159 84.671446 
L 91.300488 84.564728 
L 91.379298 83.39083 
L 91.407956 83.39083 
L 91.443779 83.284112 
L 91.529753 81.896778 
L 91.551247 81.896778 
L 91.579905 81.896778 
L 91.687373 79.869136 
L 91.716031 79.869136 
L 91.716031 79.762418 
L 91.809169 79.335546 
L 91.823498 79.335546 
L 91.895144 79.335546 
L 91.895144 79.228828 
L 92.002612 78.161648 
L 92.024105 78.161648 
L 92.024105 78.05493 
L 92.081421 77.52134 
L 92.131573 77.52134 
L 92.145902 77.414622 
L 92.239041 76.45416 
L 92.25337 76.45416 
L 92.282028 76.347442 
L 92.375167 75.813852 
L 92.389496 75.813852 
L 92.432483 75.813852 
L 92.539951 75.066826 
L 92.63309 74.960108 
L 92.740558 74.3198 
L 92.762051 74.3198 
L 92.762051 74.213082 
L 92.797874 73.466056 
L 92.869519 73.466056 
L 92.883848 73.359338 
L 92.912506 73.039184 
L 92.991316 73.039184 
L 93.191923 72.932466 
L 93.285061 72.292158 
L 93.29939 72.292158 
L 93.320884 72.18544 
L 93.421187 71.758568 
L 93.428352 71.758568 
L 93.485668 71.65185 
L 93.593136 70.904824 
L 93.722097 70.798106 
L 93.829565 70.371234 
L 93.879717 70.371234 
L 93.987185 69.624208 
L 94.044501 69.624208 
L 94.044501 69.51749 
L 94.044501 69.410772 
L 94.151969 69.410772 
L 94.180627 69.304054 
L 94.288095 69.090618 
L 94.374069 68.9839 
L 94.474372 68.557028 
L 94.481537 68.557028 
L 95.083357 68.45031 
L 95.190825 67.810002 
L 95.470241 67.703284 
L 95.556216 67.169694 
L 95.577709 67.169694 
L 95.606367 67.062976 
L 96.158036 66.636104 
L 96.559249 66.529386 
L 96.616565 65.889078 
L 96.666717 65.889078 
L 97.182562 65.78236 
L 97.232714 65.568924 
L 97.29003 65.568924 
L 97.469143 65.462206 
L 97.469143 65.355488 
L 97.576611 65.355488 
L 97.977825 65.24877 
L 97.977825 65.035334 
L 98.085293 65.035334 
L 99.733133 64.928616 
L 99.733133 64.821898 
L 99.840601 64.821898 
L 100.671686 64.71518 
L 100.671686 64.608462 
L 100.779154 64.608462 
L 104.454554 64.501744 
L 104.454554 64.395026 
L 104.562022 64.395026 
L 110.286477 64.288308 
L 110.286477 64.18159 
L 110.393945 64.18159 
L 125.52542 64.074872 
L 125.52542 63.968154 
L 125.632887 63.968154 
L 139.438925 63.861436 
L 139.438925 63.754718 
L 139.546393 63.754718 
L 384.96 63.648 
L 384.96 63.648 
" style="fill:none;stroke:#2ca02c;stroke-dasharray:5.55,2.4;stroke-dashoffset:0;stroke-width:1.5;"/>
   </g>
   <g id="patch_4">
    <path d="M 57.6 307.584 
L 57.6 41.472 
" style="fill:none;stroke:#000000;stroke-linecap:square;stroke-linejoin:miter;stroke-width:0.8;"/>
   </g>
   <g id="patch_5">
    <path d="M 414.72 307.584 
L 414.72 41.472 
" style="fill:none;stroke:#000000;stroke-linecap:square;stroke-linejoin:miter;stroke-width:0.8;"/>
   </g>
   <g id="patch_6">
    <path d="M 57.6 307.584 
L 414.72 307.584 
" style="fill:none;stroke:#000000;stroke-linecap:square;stroke-linejoin:miter;stroke-width:0.8;"/>
   </g>
   <g id="patch_7">
    <path d="M 57.6 41.472 
L 414.72 41.472 
" style="fill:none;stroke:#000000;stroke-linecap:square;stroke-linejoin:miter;stroke-width:0.8;"/>
   </g>
   <g id="legend_1">
    <g id="patch_8">
     <path d="M 217.846562 302.584 
L 407.72 302.584 
Q 409.72 302.584 409.72 300.584 
L 409.72 257.549625 
Q 409.72 255.549625 407.72 255.549625 
L 217.846562 255.549625 
Q 215.846562 255.549625 215.846562 257.549625 
L 215.846562 300.584 
Q 215.846562 302.584 217.846562 302.584 
z
" style="fill:#ffffff;opacity:0.8;stroke:#cccccc;stroke-linejoin:miter;"/>
    </g>
    <g id="line2d_16">
     <path d="M 219.846562 263.648062 
L 239.846562 263.648062 
" style="fill:none;stroke:#1f77b4;stroke-linecap:square;stroke-width:1.5;"/>
    </g>
    <g id="line2d_17"/>
    <g id="text_15">
     <!-- linear-SVM model (auc: 0.9935) -->
     <g transform="translate(247.846562 267.148062)scale(0.1 -0.1)">
      <defs>
       <path d="M 3513 2113 
L 3513 0 
L 2938 0 
L 2938 2094 
Q 2938 2591 2744 2837 
Q 2550 3084 2163 3084 
Q 1697 3084 1428 2787 
Q 1159 2491 1159 1978 
L 1159 0 
L 581 0 
L 581 3500 
L 1159 3500 
L 1159 2956 
Q 1366 3272 1645 3428 
Q 1925 3584 2291 3584 
Q 2894 3584 3203 3211 
Q 3513 2838 3513 2113 
z
" id="DejaVuSans-6e" transform="scale(0.015625)"/>
       <path d="M 313 2009 
L 1997 2009 
L 1997 1497 
L 313 1497 
L 313 2009 
z
" id="DejaVuSans-2d" transform="scale(0.015625)"/>
       <path d="M 3425 4513 
L 3425 3897 
Q 3066 4069 2747 4153 
Q 2428 4238 2131 4238 
Q 1616 4238 1336 4038 
Q 1056 3838 1056 3469 
Q 1056 3159 1242 3001 
Q 1428 2844 1947 2747 
L 2328 2669 
Q 3034 2534 3370 2195 
Q 3706 1856 3706 1288 
Q 3706 609 3251 259 
Q 2797 -91 1919 -91 
Q 1588 -91 1214 -16 
Q 841 59 441 206 
L 441 856 
Q 825 641 1194 531 
Q 1563 422 1919 422 
Q 2459 422 2753 634 
Q 3047 847 3047 1241 
Q 3047 1584 2836 1778 
Q 2625 1972 2144 2069 
L 1759 2144 
Q 1053 2284 737 2584 
Q 422 2884 422 3419 
Q 422 4038 858 4394 
Q 1294 4750 2059 4750 
Q 2388 4750 2728 4690 
Q 3069 4631 3425 4513 
z
" id="DejaVuSans-53" transform="scale(0.015625)"/>
       <path d="M 1831 0 
L 50 4666 
L 709 4666 
L 2188 738 
L 3669 4666 
L 4325 4666 
L 2547 0 
L 1831 0 
z
" id="DejaVuSans-56" transform="scale(0.015625)"/>
       <path d="M 628 4666 
L 1569 4666 
L 2759 1491 
L 3956 4666 
L 4897 4666 
L 4897 0 
L 4281 0 
L 4281 4097 
L 3078 897 
L 2444 897 
L 1241 4097 
L 1241 0 
L 628 0 
L 628 4666 
z
" id="DejaVuSans-4d" transform="scale(0.015625)"/>
       <path d="M 3328 2828 
Q 3544 3216 3844 3400 
Q 4144 3584 4550 3584 
Q 5097 3584 5394 3201 
Q 5691 2819 5691 2113 
L 5691 0 
L 5113 0 
L 5113 2094 
Q 5113 2597 4934 2840 
Q 4756 3084 4391 3084 
Q 3944 3084 3684 2787 
Q 3425 2491 3425 1978 
L 3425 0 
L 2847 0 
L 2847 2094 
Q 2847 2600 2669 2842 
Q 2491 3084 2119 3084 
Q 1678 3084 1418 2786 
Q 1159 2488 1159 1978 
L 1159 0 
L 581 0 
L 581 3500 
L 1159 3500 
L 1159 2956 
Q 1356 3278 1631 3431 
Q 1906 3584 2284 3584 
Q 2666 3584 2933 3390 
Q 3200 3197 3328 2828 
z
" id="DejaVuSans-6d" transform="scale(0.015625)"/>
       <path d="M 2906 2969 
L 2906 4863 
L 3481 4863 
L 3481 0 
L 2906 0 
L 2906 525 
Q 2725 213 2448 61 
Q 2172 -91 1784 -91 
Q 1150 -91 751 415 
Q 353 922 353 1747 
Q 353 2572 751 3078 
Q 1150 3584 1784 3584 
Q 2172 3584 2448 3432 
Q 2725 3281 2906 2969 
z
M 947 1747 
Q 947 1113 1208 752 
Q 1469 391 1925 391 
Q 2381 391 2643 752 
Q 2906 1113 2906 1747 
Q 2906 2381 2643 2742 
Q 2381 3103 1925 3103 
Q 1469 3103 1208 2742 
Q 947 2381 947 1747 
z
" id="DejaVuSans-64" transform="scale(0.015625)"/>
       <path d="M 1984 4856 
Q 1566 4138 1362 3434 
Q 1159 2731 1159 2009 
Q 1159 1288 1364 580 
Q 1569 -128 1984 -844 
L 1484 -844 
Q 1016 -109 783 600 
Q 550 1309 550 2009 
Q 550 2706 781 3412 
Q 1013 4119 1484 4856 
L 1984 4856 
z
" id="DejaVuSans-28" transform="scale(0.015625)"/>
       <path d="M 3122 3366 
L 3122 2828 
Q 2878 2963 2633 3030 
Q 2388 3097 2138 3097 
Q 1578 3097 1268 2742 
Q 959 2388 959 1747 
Q 959 1106 1268 751 
Q 1578 397 2138 397 
Q 2388 397 2633 464 
Q 2878 531 3122 666 
L 3122 134 
Q 2881 22 2623 -34 
Q 2366 -91 2075 -91 
Q 1284 -91 818 406 
Q 353 903 353 1747 
Q 353 2603 823 3093 
Q 1294 3584 2113 3584 
Q 2378 3584 2631 3529 
Q 2884 3475 3122 3366 
z
" id="DejaVuSans-63" transform="scale(0.015625)"/>
       <path d="M 750 794 
L 1409 794 
L 1409 0 
L 750 0 
L 750 794 
z
M 750 3309 
L 1409 3309 
L 1409 2516 
L 750 2516 
L 750 3309 
z
" id="DejaVuSans-3a" transform="scale(0.015625)"/>
       <path d="M 703 97 
L 703 672 
Q 941 559 1184 500 
Q 1428 441 1663 441 
Q 2288 441 2617 861 
Q 2947 1281 2994 2138 
Q 2813 1869 2534 1725 
Q 2256 1581 1919 1581 
Q 1219 1581 811 2004 
Q 403 2428 403 3163 
Q 403 3881 828 4315 
Q 1253 4750 1959 4750 
Q 2769 4750 3195 4129 
Q 3622 3509 3622 2328 
Q 3622 1225 3098 567 
Q 2575 -91 1691 -91 
Q 1453 -91 1209 -44 
Q 966 3 703 97 
z
M 1959 2075 
Q 2384 2075 2632 2365 
Q 2881 2656 2881 3163 
Q 2881 3666 2632 3958 
Q 2384 4250 1959 4250 
Q 1534 4250 1286 3958 
Q 1038 3666 1038 3163 
Q 1038 2656 1286 2365 
Q 1534 2075 1959 2075 
z
" id="DejaVuSans-39" transform="scale(0.015625)"/>
       <path d="M 2597 2516 
Q 3050 2419 3304 2112 
Q 3559 1806 3559 1356 
Q 3559 666 3084 287 
Q 2609 -91 1734 -91 
Q 1441 -91 1130 -33 
Q 819 25 488 141 
L 488 750 
Q 750 597 1062 519 
Q 1375 441 1716 441 
Q 2309 441 2620 675 
Q 2931 909 2931 1356 
Q 2931 1769 2642 2001 
Q 2353 2234 1838 2234 
L 1294 2234 
L 1294 2753 
L 1863 2753 
Q 2328 2753 2575 2939 
Q 2822 3125 2822 3475 
Q 2822 3834 2567 4026 
Q 2313 4219 1838 4219 
Q 1578 4219 1281 4162 
Q 984 4106 628 3988 
L 628 4550 
Q 988 4650 1302 4700 
Q 1616 4750 1894 4750 
Q 2613 4750 3031 4423 
Q 3450 4097 3450 3541 
Q 3450 3153 3228 2886 
Q 3006 2619 2597 2516 
z
" id="DejaVuSans-33" transform="scale(0.015625)"/>
       <path d="M 691 4666 
L 3169 4666 
L 3169 4134 
L 1269 4134 
L 1269 2991 
Q 1406 3038 1543 3061 
Q 1681 3084 1819 3084 
Q 2600 3084 3056 2656 
Q 3513 2228 3513 1497 
Q 3513 744 3044 326 
Q 2575 -91 1722 -91 
Q 1428 -91 1123 -41 
Q 819 9 494 109 
L 494 744 
Q 775 591 1075 516 
Q 1375 441 1709 441 
Q 2250 441 2565 725 
Q 2881 1009 2881 1497 
Q 2881 1984 2565 2268 
Q 2250 2553 1709 2553 
Q 1456 2553 1204 2497 
Q 953 2441 691 2322 
L 691 4666 
z
" id="DejaVuSans-35" transform="scale(0.015625)"/>
       <path d="M 513 4856 
L 1013 4856 
Q 1481 4119 1714 3412 
Q 1947 2706 1947 2009 
Q 1947 1309 1714 600 
Q 1481 -109 1013 -844 
L 513 -844 
Q 928 -128 1133 580 
Q 1338 1288 1338 2009 
Q 1338 2731 1133 3434 
Q 928 4138 513 4856 
z
" id="DejaVuSans-29" transform="scale(0.015625)"/>
      </defs>
      <use xlink:href="#DejaVuSans-6c"/>
      <use x="27.783203" xlink:href="#DejaVuSans-69"/>
      <use x="55.566406" xlink:href="#DejaVuSans-6e"/>
      <use x="118.945312" xlink:href="#DejaVuSans-65"/>
      <use x="180.46875" xlink:href="#DejaVuSans-61"/>
      <use x="241.748047" xlink:href="#DejaVuSans-72"/>
      <use x="276.486328" xlink:href="#DejaVuSans-2d"/>
      <use x="312.570312" xlink:href="#DejaVuSans-53"/>
      <use x="376.046875" xlink:href="#DejaVuSans-56"/>
      <use x="444.455078" xlink:href="#DejaVuSans-4d"/>
      <use x="530.734375" xlink:href="#DejaVuSans-20"/>
      <use x="562.521484" xlink:href="#DejaVuSans-6d"/>
      <use x="659.933594" xlink:href="#DejaVuSans-6f"/>
      <use x="721.115234" xlink:href="#DejaVuSans-64"/>
      <use x="784.591797" xlink:href="#DejaVuSans-65"/>
      <use x="846.115234" xlink:href="#DejaVuSans-6c"/>
      <use x="873.898438" xlink:href="#DejaVuSans-20"/>
      <use x="905.685547" xlink:href="#DejaVuSans-28"/>
      <use x="944.699219" xlink:href="#DejaVuSans-61"/>
      <use x="1005.978516" xlink:href="#DejaVuSans-75"/>
      <use x="1069.357422" xlink:href="#DejaVuSans-63"/>
      <use x="1124.337891" xlink:href="#DejaVuSans-3a"/>
      <use x="1158.029297" xlink:href="#DejaVuSans-20"/>
      <use x="1189.816406" xlink:href="#DejaVuSans-30"/>
      <use x="1253.439453" xlink:href="#DejaVuSans-2e"/>
      <use x="1285.226562" xlink:href="#DejaVuSans-39"/>
      <use x="1348.849609" xlink:href="#DejaVuSans-39"/>
      <use x="1412.472656" xlink:href="#DejaVuSans-33"/>
      <use x="1476.095703" xlink:href="#DejaVuSans-35"/>
      <use x="1539.71875" xlink:href="#DejaVuSans-29"/>
     </g>
    </g>
    <g id="line2d_18">
     <path d="M 219.846562 278.326188 
L 239.846562 278.326188 
" style="fill:none;stroke:#ff7f0e;stroke-dasharray:9.6,2.4,1.5,2.4;stroke-dashoffset:0;stroke-width:1.5;"/>
    </g>
    <g id="line2d_19"/>
    <g id="text_16">
     <!-- rbf-SVM model (auc: 0.9929) -->
     <g transform="translate(247.846562 281.826188)scale(0.1 -0.1)">
      <defs>
       <path d="M 3116 1747 
Q 3116 2381 2855 2742 
Q 2594 3103 2138 3103 
Q 1681 3103 1420 2742 
Q 1159 2381 1159 1747 
Q 1159 1113 1420 752 
Q 1681 391 2138 391 
Q 2594 391 2855 752 
Q 3116 1113 3116 1747 
z
M 1159 2969 
Q 1341 3281 1617 3432 
Q 1894 3584 2278 3584 
Q 2916 3584 3314 3078 
Q 3713 2572 3713 1747 
Q 3713 922 3314 415 
Q 2916 -91 2278 -91 
Q 1894 -91 1617 61 
Q 1341 213 1159 525 
L 1159 0 
L 581 0 
L 581 4863 
L 1159 4863 
L 1159 2969 
z
" id="DejaVuSans-62" transform="scale(0.015625)"/>
       <path d="M 2375 4863 
L 2375 4384 
L 1825 4384 
Q 1516 4384 1395 4259 
Q 1275 4134 1275 3809 
L 1275 3500 
L 2222 3500 
L 2222 3053 
L 1275 3053 
L 1275 0 
L 697 0 
L 697 3053 
L 147 3053 
L 147 3500 
L 697 3500 
L 697 3744 
Q 697 4328 969 4595 
Q 1241 4863 1831 4863 
L 2375 4863 
z
" id="DejaVuSans-66" transform="scale(0.015625)"/>
      </defs>
      <use xlink:href="#DejaVuSans-72"/>
      <use x="41.113281" xlink:href="#DejaVuSans-62"/>
      <use x="104.589844" xlink:href="#DejaVuSans-66"/>
      <use x="134.294922" xlink:href="#DejaVuSans-2d"/>
      <use x="170.378906" xlink:href="#DejaVuSans-53"/>
      <use x="233.855469" xlink:href="#DejaVuSans-56"/>
      <use x="302.263672" xlink:href="#DejaVuSans-4d"/>
      <use x="388.542969" xlink:href="#DejaVuSans-20"/>
      <use x="420.330078" xlink:href="#DejaVuSans-6d"/>
      <use x="517.742188" xlink:href="#DejaVuSans-6f"/>
      <use x="578.923828" xlink:href="#DejaVuSans-64"/>
      <use x="642.400391" xlink:href="#DejaVuSans-65"/>
      <use x="703.923828" xlink:href="#DejaVuSans-6c"/>
      <use x="731.707031" xlink:href="#DejaVuSans-20"/>
      <use x="763.494141" xlink:href="#DejaVuSans-28"/>
      <use x="802.507812" xlink:href="#DejaVuSans-61"/>
      <use x="863.787109" xlink:href="#DejaVuSans-75"/>
      <use x="927.166016" xlink:href="#DejaVuSans-63"/>
      <use x="982.146484" xlink:href="#DejaVuSans-3a"/>
      <use x="1015.837891" xlink:href="#DejaVuSans-20"/>
      <use x="1047.625" xlink:href="#DejaVuSans-30"/>
      <use x="1111.248047" xlink:href="#DejaVuSans-2e"/>
      <use x="1143.035156" xlink:href="#DejaVuSans-39"/>
      <use x="1206.658203" xlink:href="#DejaVuSans-39"/>
      <use x="1270.28125" xlink:href="#DejaVuSans-32"/>
      <use x="1333.904297" xlink:href="#DejaVuSans-39"/>
      <use x="1397.527344" xlink:href="#DejaVuSans-29"/>
     </g>
    </g>
    <g id="line2d_20">
     <path d="M 219.846562 293.004312 
L 239.846562 293.004312 
" style="fill:none;stroke:#2ca02c;stroke-dasharray:5.55,2.4;stroke-dashoffset:0;stroke-width:1.5;"/>
    </g>
    <g id="line2d_21"/>
    <g id="text_17">
     <!-- poly-SVM model (auc: 0.9938) -->
     <g transform="translate(247.846562 296.504312)scale(0.1 -0.1)">
      <defs>
       <path d="M 1159 525 
L 1159 -1331 
L 581 -1331 
L 581 3500 
L 1159 3500 
L 1159 2969 
Q 1341 3281 1617 3432 
Q 1894 3584 2278 3584 
Q 2916 3584 3314 3078 
Q 3713 2572 3713 1747 
Q 3713 922 3314 415 
Q 2916 -91 2278 -91 
Q 1894 -91 1617 61 
Q 1341 213 1159 525 
z
M 3116 1747 
Q 3116 2381 2855 2742 
Q 2594 3103 2138 3103 
Q 1681 3103 1420 2742 
Q 1159 2381 1159 1747 
Q 1159 1113 1420 752 
Q 1681 391 2138 391 
Q 2594 391 2855 752 
Q 3116 1113 3116 1747 
z
" id="DejaVuSans-70" transform="scale(0.015625)"/>
       <path d="M 2059 -325 
Q 1816 -950 1584 -1140 
Q 1353 -1331 966 -1331 
L 506 -1331 
L 506 -850 
L 844 -850 
Q 1081 -850 1212 -737 
Q 1344 -625 1503 -206 
L 1606 56 
L 191 3500 
L 800 3500 
L 1894 763 
L 2988 3500 
L 3597 3500 
L 2059 -325 
z
" id="DejaVuSans-79" transform="scale(0.015625)"/>
      </defs>
      <use xlink:href="#DejaVuSans-70"/>
      <use x="63.476562" xlink:href="#DejaVuSans-6f"/>
      <use x="124.658203" xlink:href="#DejaVuSans-6c"/>
      <use x="152.441406" xlink:href="#DejaVuSans-79"/>
      <use x="209.871094" xlink:href="#DejaVuSans-2d"/>
      <use x="245.955078" xlink:href="#DejaVuSans-53"/>
      <use x="309.431641" xlink:href="#DejaVuSans-56"/>
      <use x="377.839844" xlink:href="#DejaVuSans-4d"/>
      <use x="464.119141" xlink:href="#DejaVuSans-20"/>
      <use x="495.90625" xlink:href="#DejaVuSans-6d"/>
      <use x="593.318359" xlink:href="#DejaVuSans-6f"/>
      <use x="654.5" xlink:href="#DejaVuSans-64"/>
      <use x="717.976562" xlink:href="#DejaVuSans-65"/>
      <use x="779.5" xlink:href="#DejaVuSans-6c"/>
      <use x="807.283203" xlink:href="#DejaVuSans-20"/>
      <use x="839.070312" xlink:href="#DejaVuSans-28"/>
      <use x="878.083984" xlink:href="#DejaVuSans-61"/>
      <use x="939.363281" xlink:href="#DejaVuSans-75"/>
      <use x="1002.742188" xlink:href="#DejaVuSans-63"/>
      <use x="1057.722656" xlink:href="#DejaVuSans-3a"/>
      <use x="1091.414062" xlink:href="#DejaVuSans-20"/>
      <use x="1123.201172" xlink:href="#DejaVuSans-30"/>
      <use x="1186.824219" xlink:href="#DejaVuSans-2e"/>
      <use x="1218.611328" xlink:href="#DejaVuSans-39"/>
      <use x="1282.234375" xlink:href="#DejaVuSans-39"/>
      <use x="1345.857422" xlink:href="#DejaVuSans-33"/>
      <use x="1409.480469" xlink:href="#DejaVuSans-38"/>
      <use x="1473.103516" xlink:href="#DejaVuSans-29"/>
     </g>
    </g>
   </g>
  </g>
  <g id="axes_2">
   <g id="patch_9">
    <path d="M 182.592 227.7504 
L 289.728 227.7504 
L 289.728 121.3056 
L 182.592 121.3056 
z
" style="fill:#ffffff;"/>
   </g>
   <g id="patch_10">
    <path d="M 289.728 121.3056 
L 102.24 63.648 
" style="fill:none;stroke:#000000;stroke-dasharray:3.7,1.6;stroke-dashoffset:0;stroke-linejoin:miter;"/>
   </g>
   <g id="patch_11">
    <path d="M 182.592 227.7504 
L 87.36 74.736 
" style="fill:none;stroke:#000000;stroke-dasharray:3.7,1.6;stroke-dashoffset:0;stroke-linejoin:miter;"/>
   </g>
   <g id="matplotlib.axis_3">
    <g id="xtick_7">
     <g id="line2d_22">
      <g>
       <use style="stroke:#000000;stroke-width:0.8;" x="182.592" xlink:href="#mc97844f739" y="227.7504"/>
      </g>
     </g>
     <g id="text_18">
      <!-- 0.00 -->
      <g transform="translate(171.459188 242.348838)scale(0.1 -0.1)">
       <use xlink:href="#DejaVuSans-30"/>
       <use x="63.623047" xlink:href="#DejaVuSans-2e"/>
       <use x="95.410156" xlink:href="#DejaVuSans-30"/>
       <use x="159.033203" xlink:href="#DejaVuSans-30"/>
      </g>
     </g>
    </g>
    <g id="xtick_8">
     <g id="line2d_23">
      <g>
       <use style="stroke:#000000;stroke-width:0.8;" x="225.4464" xlink:href="#mc97844f739" y="227.7504"/>
      </g>
     </g>
     <g id="text_19">
      <!-- 0.02 -->
      <g transform="translate(214.313588 242.348838)scale(0.1 -0.1)">
       <use xlink:href="#DejaVuSans-30"/>
       <use x="63.623047" xlink:href="#DejaVuSans-2e"/>
       <use x="95.410156" xlink:href="#DejaVuSans-30"/>
       <use x="159.033203" xlink:href="#DejaVuSans-32"/>
      </g>
     </g>
    </g>
    <g id="xtick_9">
     <g id="line2d_24">
      <g>
       <use style="stroke:#000000;stroke-width:0.8;" x="268.3008" xlink:href="#mc97844f739" y="227.7504"/>
      </g>
     </g>
     <g id="text_20">
      <!-- 0.04 -->
      <g transform="translate(257.167987 242.348838)scale(0.1 -0.1)">
       <use xlink:href="#DejaVuSans-30"/>
       <use x="63.623047" xlink:href="#DejaVuSans-2e"/>
       <use x="95.410156" xlink:href="#DejaVuSans-30"/>
       <use x="159.033203" xlink:href="#DejaVuSans-34"/>
      </g>
     </g>
    </g>
   </g>
   <g id="matplotlib.axis_4">
    <g id="ytick_7">
     <g id="line2d_25">
      <g>
       <use style="stroke:#000000;stroke-width:0.8;" x="182.592" xlink:href="#ma69958a536" y="206.46144"/>
      </g>
     </g>
     <g id="text_21">
      <!-- 0.96 -->
      <g transform="translate(153.326375 210.260659)scale(0.1 -0.1)">
       <use xlink:href="#DejaVuSans-30"/>
       <use x="63.623047" xlink:href="#DejaVuSans-2e"/>
       <use x="95.410156" xlink:href="#DejaVuSans-39"/>
       <use x="159.033203" xlink:href="#DejaVuSans-36"/>
      </g>
     </g>
    </g>
    <g id="ytick_8">
     <g id="line2d_26">
      <g>
       <use style="stroke:#000000;stroke-width:0.8;" x="182.592" xlink:href="#ma69958a536" y="163.88352"/>
      </g>
     </g>
     <g id="text_22">
      <!-- 0.98 -->
      <g transform="translate(153.326375 167.682739)scale(0.1 -0.1)">
       <use xlink:href="#DejaVuSans-30"/>
       <use x="63.623047" xlink:href="#DejaVuSans-2e"/>
       <use x="95.410156" xlink:href="#DejaVuSans-39"/>
       <use x="159.033203" xlink:href="#DejaVuSans-38"/>
      </g>
     </g>
    </g>
    <g id="ytick_9">
     <g id="line2d_27">
      <g>
       <use style="stroke:#000000;stroke-width:0.8;" x="182.592" xlink:href="#ma69958a536" y="121.3056"/>
      </g>
     </g>
     <g id="text_23">
      <!-- 1.00 -->
      <g transform="translate(153.326375 125.104819)scale(0.1 -0.1)">
       <use xlink:href="#DejaVuSans-31"/>
       <use x="63.623047" xlink:href="#DejaVuSans-2e"/>
       <use x="95.410156" xlink:href="#DejaVuSans-30"/>
       <use x="159.033203" xlink:href="#DejaVuSans-30"/>
      </g>
     </g>
    </g>
   </g>
   <g id="line2d_28">
    <path clip-path="url(#pcb651cef0f)" d="M 217.205249 346.6 
L 217.308418 343.620534 
L 217.514756 343.620534 
L 217.617925 341.571548 
L 217.721094 341.571548 
L 217.772679 337.473577 
L 217.824263 337.473577 
L 217.927433 337.473577 
L 218.030602 331.32662 
L 218.23694 331.32662 
L 218.23694 330.302127 
L 218.340109 330.302127 
L 218.494863 330.302127 
L 218.598032 327.228649 
L 218.752786 327.228649 
L 218.855955 325.179664 
L 218.90754 325.179664 
L 219.010709 323.130678 
L 219.268632 323.130678 
L 219.268632 322.106185 
L 219.371801 322.106185 
L 219.629724 322.106185 
L 219.732893 320.0572 
L 219.836062 320.0572 
L 219.836062 319.032707 
L 219.939231 319.032707 
L 220.300323 319.032707 
L 220.351908 315.959228 
L 220.403492 315.959228 
L 220.455077 315.959228 
L 220.558246 313.910243 
L 220.60983 313.910243 
L 220.713 309.812272 
L 220.867753 309.812272 
L 220.970922 307.763286 
L 221.022507 307.763286 
L 221.022507 306.738793 
L 221.125676 306.738793 
L 221.177261 306.738793 
L 221.28043 302.640822 
L 221.435184 302.640822 
L 221.538353 298.542851 
L 221.589937 298.542851 
L 221.589937 297.518358 
L 221.693106 297.518358 
L 222.002614 297.518358 
L 222.002614 296.493866 
L 222.105783 296.493866 
L 222.157368 296.493866 
L 222.260537 292.395895 
L 222.312121 292.395895 
L 222.312121 291.371402 
L 222.41529 291.371402 
L 222.51846 291.371402 
L 222.51846 289.322416 
L 222.621629 289.322416 
L 222.931136 289.322416 
L 223.034305 283.175459 
L 223.446982 283.175459 
L 223.498567 280.101981 
L 223.550151 280.101981 
L 223.756489 280.101981 
L 223.808074 278.052996 
L 223.859659 278.052996 
L 224.014412 278.052996 
L 224.014412 277.028503 
L 224.065997 277.028503 
L 224.220751 277.028503 
L 224.220751 274.979517 
L 224.32392 274.979517 
L 224.530258 274.979517 
L 224.633427 263.710097 
L 224.839765 263.710097 
L 224.839765 262.685604 
L 224.942935 262.685604 
L 225.097688 262.685604 
L 225.097688 260.636618 
L 225.200857 260.636618 
L 225.252442 260.636618 
L 225.252442 257.56314 
L 225.355611 257.56314 
L 225.665119 257.56314 
L 225.716703 255.514154 
L 225.768288 255.514154 
L 225.819872 255.514154 
L 225.819872 254.489662 
L 225.923041 254.489662 
L 225.974626 254.489662 
L 226.026211 250.39169 
L 226.077795 250.39169 
L 226.12938 250.39169 
L 226.232549 248.342705 
L 226.335718 248.342705 
L 226.335718 245.269227 
L 226.438887 245.269227 
L 226.490472 245.269227 
L 226.490472 244.244734 
L 226.593641 244.244734 
L 226.645225 244.244734 
L 226.799979 243.220241 
L 227.006317 243.220241 
L 227.109487 240.146763 
L 227.26424 240.146763 
L 227.36741 238.097777 
L 227.625332 238.097777 
L 227.625332 236.048792 
L 227.728502 236.048792 
L 228.038009 236.048792 
L 228.141178 231.95082 
L 228.192763 231.95082 
L 228.244347 226.828356 
L 228.295932 226.828356 
L 228.347516 226.828356 
L 228.399101 224.779371 
L 228.450686 224.779371 
L 228.811778 224.779371 
L 228.863362 222.730385 
L 228.914947 222.730385 
L 228.966531 222.730385 
L 229.018116 220.6814 
L 229.0697 220.6814 
L 229.224454 220.6814 
L 229.327623 217.607921 
L 229.482377 217.607921 
L 229.482377 216.583429 
L 229.585546 216.583429 
L 229.637131 216.583429 
L 229.637131 215.558936 
L 229.7403 215.558936 
L 229.946638 215.558936 
L 230.049807 213.50995 
L 230.101392 213.50995 
L 230.204561 211.460965 
L 230.359315 211.460965 
L 230.359315 210.436472 
L 230.462484 210.436472 
L 230.617238 210.436472 
L 230.668822 208.387486 
L 230.720407 208.387486 
L 230.823576 208.387486 
L 230.926745 203.265023 
L 230.97833 203.265023 
L 230.97833 199.167051 
L 231.029914 199.167051 
L 231.236252 199.167051 
L 231.236252 196.093573 
L 231.339422 196.093573 
L 231.442591 196.093573 
L 231.442591 195.06908 
L 231.54576 195.06908 
L 232.11319 195.06908 
L 232.11319 194.044587 
L 232.216359 194.044587 
L 232.990128 194.044587 
L 232.990128 191.995602 
L 233.093297 191.995602 
L 233.763897 191.995602 
L 233.763897 190.971109 
L 233.867066 190.971109 
L 233.91865 190.971109 
L 233.91865 188.922124 
L 234.021819 188.922124 
L 234.073404 188.922124 
L 234.073404 187.897631 
L 234.176573 187.897631 
L 234.692419 187.897631 
L 234.795588 185.848645 
L 234.898757 185.848645 
L 234.898757 184.824152 
L 235.001926 184.824152 
L 235.414603 184.824152 
L 235.414603 183.79966 
L 235.517772 183.79966 
L 235.775695 183.79966 
L 235.775695 182.775167 
L 235.878864 182.775167 
L 236.601048 182.775167 
L 236.601048 181.750674 
L 236.704217 181.750674 
L 237.735909 181.750674 
L 237.839078 179.701689 
L 238.148585 179.701689 
L 238.148585 178.677196 
L 238.251754 178.677196 
L 239.231861 178.677196 
L 239.283446 175.603717 
L 239.33503 175.603717 
L 239.696122 175.603717 
L 239.799292 172.530239 
L 241.088906 172.530239 
L 241.088906 171.505746 
L 241.192075 171.505746 
L 241.449998 171.505746 
L 241.449998 169.456761 
L 241.553167 169.456761 
L 242.481689 169.456761 
L 242.481689 168.432268 
L 242.584859 168.432268 
L 243.926057 168.432268 
L 243.926057 166.383282 
L 244.029227 166.383282 
L 244.596657 166.383282 
L 244.648242 164.334297 
L 244.699826 164.334297 
L 246.247363 164.334297 
L 246.247363 163.309804 
L 246.350532 163.309804 
L 246.711624 163.309804 
L 246.711624 161.260818 
L 246.814794 161.260818 
L 246.917963 161.260818 
L 246.917963 160.236326 
L 247.021132 160.236326 
L 247.279055 160.236326 
L 247.279055 159.211833 
L 247.382224 159.211833 
L 247.485393 159.211833 
L 247.485393 158.18734 
L 247.588562 158.18734 
L 248.620254 158.18734 
L 248.620254 157.162847 
L 248.723423 157.162847 
L 249.394022 157.162847 
L 249.394022 156.138355 
L 249.497191 156.138355 
L 250.632052 156.138355 
L 250.632052 155.113862 
L 250.735221 155.113862 
L 250.786806 155.113862 
L 250.786806 154.089369 
L 250.889975 154.089369 
L 252.231174 154.089369 
L 252.231174 153.064876 
L 252.334343 153.064876 
L 254.500895 153.064876 
L 254.500895 152.040383 
L 254.604064 152.040383 
L 255.016741 152.040383 
L 255.016741 151.015891 
L 255.11991 151.015891 
L 255.842094 151.015891 
L 255.842094 148.966905 
L 255.945263 148.966905 
L 256.203186 148.966905 
L 256.203186 147.942412 
L 256.306355 147.942412 
L 256.667447 147.942412 
L 256.667447 146.91792 
L 256.770616 146.91792 
L 257.389631 146.91792 
L 257.389631 145.893427 
L 257.4928 145.893427 
L 258.111815 145.893427 
L 258.111815 144.868934 
L 258.214984 144.868934 
L 258.782415 144.868934 
L 258.782415 143.844441 
L 258.885584 143.844441 
L 259.504599 143.844441 
L 259.556183 141.795456 
L 259.607768 141.795456 
L 259.762521 141.795456 
L 259.762521 140.770963 
L 259.865691 140.770963 
L 260.278367 140.770963 
L 260.278367 139.74647 
L 260.381536 139.74647 
L 261.206889 139.74647 
L 261.258474 137.697485 
L 261.310059 137.697485 
L 262.135412 137.697485 
L 262.90918 136.672992 
L 262.90918 135.648499 
L 263.01235 135.648499 
L 263.270272 135.648499 
L 263.270272 134.624006 
L 263.373442 134.624006 
L 266.984362 134.624006 
L 266.984362 133.599513 
L 267.087531 133.599513 
L 268.325561 133.599513 
L 268.325561 132.575021 
L 268.42873 132.575021 
L 273.329264 132.575021 
L 273.329264 131.550528 
L 273.432433 131.550528 
L 273.84511 131.550528 
L 273.84511 130.526035 
L 273.948279 130.526035 
L 285.761146 130.526035 
L 285.761146 129.501542 
L 285.864315 129.501542 
L 289.733158 129.501542 
L 289.733158 129.501542 
" style="fill:none;stroke:#1f77b4;stroke-linecap:square;stroke-width:1.5;"/>
   </g>
   <g id="line2d_29">
    <path clip-path="url(#pcb651cef0f)" d="M 212.82056 346.6 
L 212.82056 340.547055 
L 212.923729 340.547055 
L 213.078483 340.547055 
L 213.181652 335.424591 
L 213.542744 335.424591 
L 213.542744 334.400099 
L 213.645913 334.400099 
L 213.800667 334.400099 
L 213.800667 333.375606 
L 213.903836 333.375606 
L 213.95542 333.375606 
L 214.05859 325.179664 
L 214.110174 325.179664 
L 214.110174 324.155171 
L 214.213343 324.155171 
L 214.264928 324.155171 
L 214.316512 320.0572 
L 214.368097 320.0572 
L 214.419682 320.0572 
L 214.522851 315.959228 
L 214.574435 315.959228 
L 214.677605 312.88575 
L 214.729189 312.88575 
L 214.780774 310.836765 
L 214.832358 310.836765 
L 214.883943 310.836765 
L 214.883943 309.812272 
L 214.987112 309.812272 
L 215.451373 309.812272 
L 215.502958 306.738793 
L 215.554542 306.738793 
L 215.967219 306.738793 
L 215.967219 305.714301 
L 216.070388 305.714301 
L 216.121973 305.714301 
L 216.121973 303.665315 
L 216.225142 303.665315 
L 216.328311 303.665315 
L 216.379895 301.61633 
L 216.43148 301.61633 
L 216.483065 301.61633 
L 216.586234 299.567344 
L 216.844157 299.567344 
L 216.947326 294.44488 
L 217.308418 294.44488 
L 217.308418 292.395895 
L 217.411587 292.395895 
L 217.463171 292.395895 
L 217.566341 289.322416 
L 217.875848 289.322416 
L 217.875848 288.297923 
L 217.979017 288.297923 
L 218.288525 288.297923 
L 218.340109 283.175459 
L 218.391694 283.175459 
L 218.443278 283.175459 
L 218.546447 280.101981 
L 218.598032 280.101981 
L 218.598032 279.077488 
L 218.701201 279.077488 
L 218.80437 279.077488 
L 218.80437 278.052996 
L 218.90754 278.052996 
L 218.959124 278.052996 
L 218.959124 277.028503 
L 219.062293 277.028503 
L 219.217047 277.028503 
L 219.268632 270.881546 
L 219.320216 270.881546 
L 219.47497 270.881546 
L 219.578139 267.808068 
L 219.629724 267.808068 
L 219.629724 266.783575 
L 219.732893 266.783575 
L 219.784477 266.783575 
L 219.887646 263.710097 
L 220.506661 263.710097 
L 220.506661 262.685604 
L 220.60983 262.685604 
L 220.867753 262.685604 
L 220.867753 261.661111 
L 220.970922 261.661111 
L 221.177261 261.661111 
L 221.177261 260.636618 
L 221.28043 260.636618 
L 221.538353 257.56314 
L 221.951029 257.56314 
L 221.951029 255.514154 
L 222.054198 255.514154 
L 222.157368 255.514154 
L 222.157368 252.440676 
L 222.260537 252.440676 
L 222.363706 252.440676 
L 222.41529 249.367198 
L 222.466875 249.367198 
L 222.51846 249.367198 
L 222.51846 248.342705 
L 222.621629 248.342705 
L 222.776382 248.342705 
L 222.827967 246.293719 
L 222.879552 246.293719 
L 222.931136 246.293719 
L 222.931136 245.269227 
L 223.034305 245.269227 
L 223.137475 245.269227 
L 223.137475 244.244734 
L 223.240644 244.244734 
L 223.704905 244.244734 
L 223.808074 241.171255 
L 223.911243 241.171255 
L 224.014412 239.12227 
L 224.375504 239.12227 
L 224.375504 238.097777 
L 224.478673 238.097777 
L 224.633427 238.097777 
L 224.685012 230.926328 
L 224.736596 230.926328 
L 225.355611 230.926328 
L 225.355611 228.877342 
L 225.45878 228.877342 
L 225.561949 228.877342 
L 225.561949 227.852849 
L 225.665119 227.852849 
L 225.716703 227.852849 
L 225.768288 225.803864 
L 225.819872 225.803864 
L 225.974626 225.803864 
L 225.974626 224.779371 
L 226.077795 224.779371 
L 226.180964 224.779371 
L 226.284133 220.6814 
L 226.593641 220.6814 
L 226.593641 218.632414 
L 226.69681 218.632414 
L 227.057902 218.632414 
L 227.109487 214.534443 
L 227.161071 214.534443 
L 227.212656 214.534443 
L 227.212656 213.50995 
L 227.315825 213.50995 
L 227.470579 213.50995 
L 227.470579 212.485458 
L 227.573748 212.485458 
L 228.244347 212.485458 
L 228.244347 210.436472 
L 228.347516 210.436472 
L 228.399101 210.436472 
L 228.399101 209.411979 
L 228.50227 209.411979 
L 228.914947 209.411979 
L 228.914947 206.338501 
L 229.018116 206.338501 
L 229.379208 206.338501 
L 229.379208 205.314008 
L 229.430792 205.314008 
L 229.637131 205.314008 
L 229.637131 203.265023 
L 229.7403 203.265023 
L 229.946638 203.265023 
L 230.101392 202.24053 
L 230.256146 202.24053 
L 230.359315 200.191544 
L 230.410899 200.191544 
L 230.462484 197.118066 
L 230.514068 197.118066 
L 230.617238 197.118066 
L 230.617238 196.093573 
L 230.720407 196.093573 
L 230.771991 196.093573 
L 230.87516 194.044587 
L 231.029914 194.044587 
L 231.029914 191.995602 
L 231.133083 191.995602 
L 231.287837 191.995602 
L 231.287837 190.971109 
L 231.391006 190.971109 
L 231.752098 190.971109 
L 231.752098 189.946616 
L 231.855267 189.946616 
L 232.267944 189.946616 
L 232.319529 185.848645 
L 232.371113 185.848645 
L 232.474282 185.848645 
L 232.525867 183.79966 
L 232.577451 183.79966 
L 233.454389 183.79966 
L 233.454389 182.775167 
L 233.557558 182.775167 
L 234.228158 182.775167 
L 234.331327 180.726181 
L 234.58925 180.726181 
L 234.58925 179.701689 
L 234.692419 179.701689 
L 234.795588 179.701689 
L 234.795588 178.677196 
L 234.898757 178.677196 
L 235.053511 178.677196 
L 235.053511 176.62821 
L 235.15668 176.62821 
L 235.311434 176.62821 
L 235.311434 175.603717 
L 235.414603 175.603717 
L 235.775695 175.603717 
L 235.775695 174.579225 
L 235.878864 174.579225 
L 236.188372 174.579225 
L 236.188372 173.554732 
L 236.291541 173.554732 
L 236.652633 173.554732 
L 236.652633 172.530239 
L 236.755802 172.530239 
L 237.013725 172.530239 
L 237.013725 171.505746 
L 237.116894 171.505746 
L 237.839078 171.505746 
L 237.839078 170.481254 
L 237.942247 170.481254 
L 238.045416 170.481254 
L 238.045416 169.456761 
L 238.148585 169.456761 
L 240.00563 169.456761 
L 240.00563 168.432268 
L 240.108799 168.432268 
L 240.315137 168.432268 
L 240.315137 167.407775 
L 240.418307 167.407775 
L 240.469891 167.407775 
L 240.469891 165.35879 
L 240.57306 165.35879 
L 242.945951 165.35879 
L 242.945951 164.334297 
L 243.04912 164.334297 
L 243.874473 164.334297 
L 243.874473 163.309804 
L 243.977642 163.309804 
L 245.937856 163.309804 
L 245.937856 162.285311 
L 246.041025 162.285311 
L 248.310746 162.285311 
L 248.310746 161.260818 
L 248.413915 161.260818 
L 248.671838 161.260818 
L 248.671838 160.236326 
L 248.775007 160.236326 
L 249.755114 160.236326 
L 249.755114 159.211833 
L 249.858283 159.211833 
L 250.477298 159.211833 
L 250.477298 157.162847 
L 250.580467 157.162847 
L 251.50899 157.162847 
L 251.50899 156.138355 
L 251.612159 156.138355 
L 251.818497 156.138355 
L 251.818497 155.113862 
L 251.921666 155.113862 
L 252.489097 155.113862 
L 252.489097 154.089369 
L 252.592266 154.089369 
L 252.64385 154.089369 
L 252.64385 153.064876 
L 252.74702 153.064876 
L 253.056527 153.064876 
L 253.056527 152.040383 
L 253.159696 152.040383 
L 253.31445 152.040383 
L 253.31445 148.966905 
L 253.417619 148.966905 
L 253.469204 148.966905 
L 253.469204 147.942412 
L 253.572373 147.942412 
L 255.377833 147.942412 
L 255.377833 146.91792 
L 255.481002 146.91792 
L 255.635756 146.91792 
L 255.635756 145.893427 
L 255.738925 145.893427 
L 255.945263 145.893427 
L 256.048432 143.844441 
L 256.25477 143.844441 
L 256.25477 142.819948 
L 256.35794 142.819948 
L 261.206889 142.819948 
L 261.413228 140.770963 
L 261.825904 140.770963 
L 261.825904 139.74647 
L 261.929074 139.74647 
L 262.548088 139.74647 
L 262.548088 138.721977 
L 262.651258 138.721977 
L 262.806011 138.721977 
L 262.806011 137.697485 
L 262.90918 137.697485 
L 265.024148 137.697485 
L 265.024148 135.648499 
L 265.127317 135.648499 
L 265.488409 135.648499 
L 265.488409 134.624006 
L 265.591578 134.624006 
L 266.829608 134.624006 
L 266.829608 133.599513 
L 266.932777 133.599513 
L 269.460421 133.599513 
L 269.460421 132.575021 
L 269.56359 132.575021 
L 270.079436 132.575021 
L 270.079436 131.550528 
L 270.182605 131.550528 
L 271.059543 131.550528 
L 271.059543 130.526035 
L 271.111128 130.526035 
L 276.579092 130.526035 
L 276.579092 129.501542 
L 276.682261 129.501542 
L 278.178214 129.501542 
L 278.178214 128.477049 
L 278.281383 128.477049 
L 281.892303 128.477049 
L 281.892303 127.452557 
L 281.995472 127.452557 
L 289.733158 127.452557 
L 289.733158 127.452557 
" style="fill:none;stroke:#ff7f0e;stroke-dasharray:9.6,2.4,1.5,2.4;stroke-dashoffset:0;stroke-width:1.5;"/>
   </g>
   <g id="line2d_30">
    <path clip-path="url(#pcb651cef0f)" d="M 208.074779 346.6 
L 208.074779 345.669519 
L 208.177948 345.669519 
L 208.229533 345.669519 
L 208.281117 341.571548 
L 208.332702 341.571548 
L 208.384287 341.571548 
L 208.384287 340.547055 
L 208.487456 340.547055 
L 208.745379 340.547055 
L 208.745379 339.522562 
L 208.848548 339.522562 
L 208.951717 339.522562 
L 209.054886 335.424591 
L 209.106471 335.424591 
L 209.20964 333.375606 
L 209.673901 333.375606 
L 209.673901 331.32662 
L 209.77707 331.32662 
L 210.086577 331.32662 
L 210.138162 328.253142 
L 210.189747 328.253142 
L 210.499254 328.253142 
L 210.550839 326.204156 
L 210.602423 326.204156 
L 210.757177 326.204156 
L 210.808762 323.130678 
L 210.860346 323.130678 
L 210.911931 323.130678 
L 211.0151 316.983721 
L 211.066684 316.983721 
L 211.118269 314.934736 
L 211.169854 314.934736 
L 211.427776 314.934736 
L 211.530946 310.836765 
L 211.840453 310.836765 
L 211.840453 309.812272 
L 211.943622 309.812272 
L 211.995207 309.812272 
L 212.046791 300.591837 
L 212.098376 300.591837 
L 212.14996 300.591837 
L 212.14996 299.567344 
L 212.25313 299.567344 
L 212.356299 299.567344 
L 212.459468 297.518358 
L 212.614222 297.518358 
L 212.614222 296.493866 
L 212.717391 296.493866 
L 212.975314 296.493866 
L 213.078483 288.297923 
L 213.130067 288.297923 
L 213.181652 286.248938 
L 213.233236 286.248938 
L 213.336406 286.248938 
L 213.336406 285.224445 
L 213.439575 285.224445 
L 213.542744 285.224445 
L 213.645913 280.101981 
L 213.697498 280.101981 
L 213.749082 277.028503 
L 213.800667 277.028503 
L 213.95542 277.028503 
L 213.95542 274.979517 
L 214.05859 274.979517 
L 214.213343 274.979517 
L 214.213343 273.955024 
L 214.316512 273.955024 
L 214.574435 273.955024 
L 214.62602 271.906039 
L 214.677605 271.906039 
L 215.245035 271.906039 
L 215.296619 266.783575 
L 215.348204 266.783575 
L 215.451373 266.783575 
L 215.451373 265.759082 
L 215.554542 265.759082 
L 215.606127 265.759082 
L 215.606127 263.710097 
L 215.709296 263.710097 
L 216.018803 263.710097 
L 216.018803 260.636618 
L 216.121973 260.636618 
L 216.173557 260.636618 
L 216.173557 255.514154 
L 216.276726 255.514154 
L 216.586234 255.514154 
L 216.586234 254.489662 
L 216.689403 254.489662 
L 216.99891 254.489662 
L 217.050495 251.416183 
L 217.102079 251.416183 
L 217.360002 251.416183 
L 217.463171 249.367198 
L 217.514756 249.367198 
L 217.566341 245.269227 
L 217.617925 245.269227 
L 217.721094 245.269227 
L 217.721094 244.244734 
L 217.824263 244.244734 
L 217.979017 244.244734 
L 218.030602 242.195748 
L 218.082186 242.195748 
L 218.443278 242.195748 
L 218.443278 240.146763 
L 218.546447 240.146763 
L 218.701201 240.146763 
L 218.701201 238.097777 
L 218.80437 238.097777 
L 219.113878 238.097777 
L 219.113878 236.048792 
L 219.217047 236.048792 
L 219.371801 236.048792 
L 219.423385 232.975313 
L 219.47497 232.975313 
L 219.732893 232.975313 
L 219.939231 230.926328 
L 220.0424 230.926328 
L 220.0424 229.901835 
L 220.145569 229.901835 
L 220.558246 229.901835 
L 220.558246 227.852849 
L 220.661415 227.852849 
L 220.970922 227.852849 
L 220.970922 225.803864 
L 221.022507 225.803864 
L 221.177261 225.803864 
L 221.177261 224.779371 
L 221.28043 224.779371 
L 221.332014 224.779371 
L 221.332014 223.754878 
L 221.435184 223.754878 
L 221.486768 223.754878 
L 221.589937 216.583429 
L 221.744691 216.583429 
L 221.744691 215.558936 
L 221.84786 215.558936 
L 222.312121 215.558936 
L 222.363706 212.485458 
L 222.41529 212.485458 
L 222.570044 212.485458 
L 222.570044 211.460965 
L 222.673213 211.460965 
L 223.601736 211.460965 
L 223.601736 210.436472 
L 223.704905 210.436472 
L 224.581843 210.436472 
L 224.685012 206.338501 
L 225.149273 206.338501 
L 225.252442 204.289515 
L 225.45878 204.289515 
L 225.510365 202.24053 
L 225.561949 202.24053 
L 225.768288 202.24053 
L 225.768288 201.216037 
L 225.871457 201.216037 
L 226.026211 201.216037 
L 226.026211 200.191544 
L 226.12938 200.191544 
L 226.232549 200.191544 
L 226.232549 199.167051 
L 226.335718 199.167051 
L 226.645225 199.167051 
L 226.69681 197.118066 
L 226.748395 197.118066 
L 226.851564 197.118066 
L 226.954733 194.044587 
L 227.006317 194.044587 
L 227.006317 193.020095 
L 227.109487 193.020095 
L 227.418994 193.020095 
L 227.470579 190.971109 
L 227.522163 190.971109 
L 227.625332 190.971109 
L 227.625332 189.946616 
L 227.728502 189.946616 
L 228.399101 189.946616 
L 228.399101 188.922124 
L 228.50227 188.922124 
L 228.863362 188.922124 
L 228.863362 187.897631 
L 228.966531 187.897631 
L 229.0697 187.897631 
L 229.17287 185.848645 
L 229.533962 185.848645 
L 229.637131 181.750674 
L 229.791884 181.750674 
L 229.791884 179.701689 
L 229.895054 179.701689 
L 230.30773 179.701689 
L 230.30773 178.677196 
L 230.410899 178.677196 
L 230.720407 178.677196 
L 230.720407 176.62821 
L 230.823576 176.62821 
L 231.648929 176.62821 
L 231.700514 174.579225 
L 231.752098 174.579225 
L 232.474282 174.579225 
L 232.474282 173.554732 
L 232.577451 173.554732 
L 232.680621 173.554732 
L 232.680621 172.530239 
L 232.78379 172.530239 
L 233.093297 172.530239 
L 233.093297 170.481254 
L 233.196466 170.481254 
L 233.815481 170.481254 
L 233.815481 168.432268 
L 233.91865 168.432268 
L 236.910556 168.432268 
L 236.910556 167.407775 
L 237.013725 167.407775 
L 238.20017 167.407775 
L 238.20017 165.35879 
L 238.303339 165.35879 
L 238.354924 165.35879 
L 238.354924 164.334297 
L 238.458093 164.334297 
L 238.7676 164.334297 
L 238.7676 163.309804 
L 238.870769 163.309804 
L 238.973938 163.309804 
L 238.973938 161.260818 
L 239.077108 161.260818 
L 240.779399 161.260818 
L 240.779399 160.236326 
L 240.882568 160.236326 
L 240.985737 160.236326 
L 241.088906 158.18734 
L 241.398413 158.18734 
L 241.449998 156.138355 
L 241.501583 156.138355 
L 241.604752 156.138355 
L 241.604752 155.113862 
L 241.707921 155.113862 
L 241.914259 155.113862 
L 241.914259 154.089369 
L 241.965844 154.089369 
L 242.791197 153.064876 
L 242.894366 153.064876 
L 242.894366 152.040383 
L 242.945951 152.040383 
L 244.029227 152.040383 
L 244.029227 151.015891 
L 244.132396 151.015891 
L 244.596657 151.015891 
L 244.596657 149.991398 
L 244.699826 149.991398 
L 246.556871 149.991398 
L 246.556871 148.966905 
L 246.66004 148.966905 
L 248.826592 148.966905 
L 248.826592 147.942412 
L 248.929761 147.942412 
L 249.084515 147.942412 
L 249.084515 145.893427 
L 249.187684 145.893427 
L 249.239269 145.893427 
L 249.239269 142.819948 
L 249.342438 142.819948 
L 250.27096 142.819948 
L 250.27096 141.795456 
L 250.374129 141.795456 
L 253.31445 141.795456 
L 253.31445 140.770963 
L 253.417619 140.770963 
L 253.675542 140.770963 
L 253.675542 139.74647 
L 253.778711 139.74647 
L 254.44931 139.74647 
L 254.44931 138.721977 
L 254.55248 138.721977 
L 255.377833 138.721977 
L 255.377833 137.697485 
L 255.481002 137.697485 
L 257.750723 137.697485 
L 257.750723 136.672992 
L 257.853892 136.672992 
L 259.040337 136.672992 
L 259.040337 134.624006 
L 259.143507 134.624006 
L 260.484705 134.624006 
L 260.484705 133.599513 
L 260.587875 133.599513 
L 271.678558 133.599513 
L 271.678558 132.575021 
L 271.781727 132.575021 
L 277.610784 132.575021 
L 277.610784 131.550528 
L 277.713953 131.550528 
L 278.436137 131.550528 
L 278.436137 130.526035 
L 278.539306 130.526035 
L 289.733158 130.526035 
L 289.733158 130.526035 
" style="fill:none;stroke:#2ca02c;stroke-dasharray:5.55,2.4;stroke-dashoffset:0;stroke-width:1.5;"/>
   </g>
   <g id="patch_12">
    <path d="M 182.592 227.7504 
L 182.592 121.3056 
" style="fill:none;stroke:#000000;stroke-linecap:square;stroke-linejoin:miter;stroke-width:0.8;"/>
   </g>
   <g id="patch_13">
    <path d="M 289.728 227.7504 
L 289.728 121.3056 
" style="fill:none;stroke:#000000;stroke-linecap:square;stroke-linejoin:miter;stroke-width:0.8;"/>
   </g>
   <g id="patch_14">
    <path d="M 182.592 227.7504 
L 289.728 227.7504 
" style="fill:none;stroke:#000000;stroke-linecap:square;stroke-linejoin:miter;stroke-width:0.8;"/>
   </g>
   <g id="patch_15">
    <path d="M 182.592 121.3056 
L 289.728 121.3056 
" style="fill:none;stroke:#000000;stroke-linecap:square;stroke-linejoin:miter;stroke-width:0.8;"/>
   </g>
  </g>
 </g>
 <defs>
  <clipPath id="p226877fdb7">
   <rect height="266.112" width="357.12" x="57.6" y="41.472"/>
  </clipPath>
  <clipPath id="pcb651cef0f">
   <rect height="106.4448" width="107.136" x="182.592" y="121.3056"/>
  </clipPath>
 </defs>
</svg>
