<?xml version="1.0" encoding="utf-8" standalone="no"?>
<!DOCTYPE svg PUBLIC "-//W3C//DTD SVG 1.1//EN"
  "http://www.w3.org/Graphics/SVG/1.1/DTD/svg11.dtd">
<svg height="345.6pt" version="1.1" viewBox="0 0 460.8 345.6" width="460.8pt" xmlns="http://www.w3.org/2000/svg" xmlns:xlink="http://www.w3.org/1999/xlink">
 <metadata>
  <rdf:RDF xmlns:cc="http://creativecommons.org/ns#" xmlns:dc="http://purl.org/dc/elements/1.1/" xmlns:rdf="http://www.w3.org/1999/02/22-rdf-syntax-ns#">
   <cc:Work>
    <dc:type rdf:resource="http://purl.org/dc/dcmitype/StillImage"/>
    <dc:date>2021-06-25T19:01:32.090590</dc:date>
    <dc:format>image/svg+xml</dc:format>
    <dc:creator>
     <cc:Agent>
      <dc:title>Matplotlib v3.4.2, https://matplotlib.org/</dc:title>
     </cc:Agent>
    </dc:creator>
   </cc:Work>
  </rdf:RDF>
 </metadata>
 <defs>
  <style type="text/css">*{stroke-linecap:butt;stroke-linejoin:round;}</style>
 </defs>
 <g id="figure_1">
  <g id="patch_1">
   <path d="M 0 345.6 
L 460.8 345.6 
L 460.8 0 
L 0 0 
z
" style="fill:#ffffff;"/>
  </g>
  <g id="axes_1">
   <g id="patch_2">
    <path d="M 57.6 307.584 
L 414.72 307.584 
L 414.72 41.472 
L 57.6 41.472 
z
" style="fill:#ffffff;"/>
   </g>
   <g id="matplotlib.axis_1">
    <g id="xtick_1">
     <g id="line2d_1">
      <defs>
       <path d="M 0 0 
L 0 3.5 
" id="mad03489d78" style="stroke:#000000;stroke-width:0.8;"/>
      </defs>
      <g>
       <use style="stroke:#000000;stroke-width:0.8;" x="95.444213" xlink:href="#mad03489d78" y="307.584"/>
      </g>
     </g>
     <g id="text_1">
      <!-- −10.0 -->
      <g transform="translate(80.121557 322.182437)scale(0.1 -0.1)">
       <defs>
        <path d="M 678 2272 
L 4684 2272 
L 4684 1741 
L 678 1741 
L 678 2272 
z
" id="DejaVuSans-2212" transform="scale(0.015625)"/>
        <path d="M 794 531 
L 1825 531 
L 1825 4091 
L 703 3866 
L 703 4441 
L 1819 4666 
L 2450 4666 
L 2450 531 
L 3481 531 
L 3481 0 
L 794 0 
L 794 531 
z
" id="DejaVuSans-31" transform="scale(0.015625)"/>
        <path d="M 2034 4250 
Q 1547 4250 1301 3770 
Q 1056 3291 1056 2328 
Q 1056 1369 1301 889 
Q 1547 409 2034 409 
Q 2525 409 2770 889 
Q 3016 1369 3016 2328 
Q 3016 3291 2770 3770 
Q 2525 4250 2034 4250 
z
M 2034 4750 
Q 2819 4750 3233 4129 
Q 3647 3509 3647 2328 
Q 3647 1150 3233 529 
Q 2819 -91 2034 -91 
Q 1250 -91 836 529 
Q 422 1150 422 2328 
Q 422 3509 836 4129 
Q 1250 4750 2034 4750 
z
" id="DejaVuSans-30" transform="scale(0.015625)"/>
        <path d="M 684 794 
L 1344 794 
L 1344 0 
L 684 0 
L 684 794 
z
" id="DejaVuSans-2e" transform="scale(0.015625)"/>
       </defs>
       <use xlink:href="#DejaVuSans-2212"/>
       <use x="83.789062" xlink:href="#DejaVuSans-31"/>
       <use x="147.412109" xlink:href="#DejaVuSans-30"/>
       <use x="211.035156" xlink:href="#DejaVuSans-2e"/>
       <use x="242.822266" xlink:href="#DejaVuSans-30"/>
      </g>
     </g>
    </g>
    <g id="xtick_2">
     <g id="line2d_2">
      <g>
       <use style="stroke:#000000;stroke-width:0.8;" x="139.42501" xlink:href="#mad03489d78" y="307.584"/>
      </g>
     </g>
     <g id="text_2">
      <!-- −7.5 -->
      <g transform="translate(127.283604 322.182437)scale(0.1 -0.1)">
       <defs>
        <path d="M 525 4666 
L 3525 4666 
L 3525 4397 
L 1831 0 
L 1172 0 
L 2766 4134 
L 525 4134 
L 525 4666 
z
" id="DejaVuSans-37" transform="scale(0.015625)"/>
        <path d="M 691 4666 
L 3169 4666 
L 3169 4134 
L 1269 4134 
L 1269 2991 
Q 1406 3038 1543 3061 
Q 1681 3084 1819 3084 
Q 2600 3084 3056 2656 
Q 3513 2228 3513 1497 
Q 3513 744 3044 326 
Q 2575 -91 1722 -91 
Q 1428 -91 1123 -41 
Q 819 9 494 109 
L 494 744 
Q 775 591 1075 516 
Q 1375 441 1709 441 
Q 2250 441 2565 725 
Q 2881 1009 2881 1497 
Q 2881 1984 2565 2268 
Q 2250 2553 1709 2553 
Q 1456 2553 1204 2497 
Q 953 2441 691 2322 
L 691 4666 
z
" id="DejaVuSans-35" transform="scale(0.015625)"/>
       </defs>
       <use xlink:href="#DejaVuSans-2212"/>
       <use x="83.789062" xlink:href="#DejaVuSans-37"/>
       <use x="147.412109" xlink:href="#DejaVuSans-2e"/>
       <use x="179.199219" xlink:href="#DejaVuSans-35"/>
      </g>
     </g>
    </g>
    <g id="xtick_3">
     <g id="line2d_3">
      <g>
       <use style="stroke:#000000;stroke-width:0.8;" x="183.405807" xlink:href="#mad03489d78" y="307.584"/>
      </g>
     </g>
     <g id="text_3">
      <!-- −5.0 -->
      <g transform="translate(171.264401 322.182437)scale(0.1 -0.1)">
       <use xlink:href="#DejaVuSans-2212"/>
       <use x="83.789062" xlink:href="#DejaVuSans-35"/>
       <use x="147.412109" xlink:href="#DejaVuSans-2e"/>
       <use x="179.199219" xlink:href="#DejaVuSans-30"/>
      </g>
     </g>
    </g>
    <g id="xtick_4">
     <g id="line2d_4">
      <g>
       <use style="stroke:#000000;stroke-width:0.8;" x="227.386605" xlink:href="#mad03489d78" y="307.584"/>
      </g>
     </g>
     <g id="text_4">
      <!-- −2.5 -->
      <g transform="translate(215.245198 322.182437)scale(0.1 -0.1)">
       <defs>
        <path d="M 1228 531 
L 3431 531 
L 3431 0 
L 469 0 
L 469 531 
Q 828 903 1448 1529 
Q 2069 2156 2228 2338 
Q 2531 2678 2651 2914 
Q 2772 3150 2772 3378 
Q 2772 3750 2511 3984 
Q 2250 4219 1831 4219 
Q 1534 4219 1204 4116 
Q 875 4013 500 3803 
L 500 4441 
Q 881 4594 1212 4672 
Q 1544 4750 1819 4750 
Q 2544 4750 2975 4387 
Q 3406 4025 3406 3419 
Q 3406 3131 3298 2873 
Q 3191 2616 2906 2266 
Q 2828 2175 2409 1742 
Q 1991 1309 1228 531 
z
" id="DejaVuSans-32" transform="scale(0.015625)"/>
       </defs>
       <use xlink:href="#DejaVuSans-2212"/>
       <use x="83.789062" xlink:href="#DejaVuSans-32"/>
       <use x="147.412109" xlink:href="#DejaVuSans-2e"/>
       <use x="179.199219" xlink:href="#DejaVuSans-35"/>
      </g>
     </g>
    </g>
    <g id="xtick_5">
     <g id="line2d_5">
      <g>
       <use style="stroke:#000000;stroke-width:0.8;" x="271.367402" xlink:href="#mad03489d78" y="307.584"/>
      </g>
     </g>
     <g id="text_5">
      <!-- 0.0 -->
      <g transform="translate(263.415839 322.182437)scale(0.1 -0.1)">
       <use xlink:href="#DejaVuSans-30"/>
       <use x="63.623047" xlink:href="#DejaVuSans-2e"/>
       <use x="95.410156" xlink:href="#DejaVuSans-30"/>
      </g>
     </g>
    </g>
    <g id="xtick_6">
     <g id="line2d_6">
      <g>
       <use style="stroke:#000000;stroke-width:0.8;" x="315.348199" xlink:href="#mad03489d78" y="307.584"/>
      </g>
     </g>
     <g id="text_6">
      <!-- 2.5 -->
      <g transform="translate(307.396636 322.182437)scale(0.1 -0.1)">
       <use xlink:href="#DejaVuSans-32"/>
       <use x="63.623047" xlink:href="#DejaVuSans-2e"/>
       <use x="95.410156" xlink:href="#DejaVuSans-35"/>
      </g>
     </g>
    </g>
    <g id="xtick_7">
     <g id="line2d_7">
      <g>
       <use style="stroke:#000000;stroke-width:0.8;" x="359.328996" xlink:href="#mad03489d78" y="307.584"/>
      </g>
     </g>
     <g id="text_7">
      <!-- 5.0 -->
      <g transform="translate(351.377433 322.182437)scale(0.1 -0.1)">
       <use xlink:href="#DejaVuSans-35"/>
       <use x="63.623047" xlink:href="#DejaVuSans-2e"/>
       <use x="95.410156" xlink:href="#DejaVuSans-30"/>
      </g>
     </g>
    </g>
    <g id="xtick_8">
     <g id="line2d_8">
      <g>
       <use style="stroke:#000000;stroke-width:0.8;" x="403.309793" xlink:href="#mad03489d78" y="307.584"/>
      </g>
     </g>
     <g id="text_8">
      <!-- 7.5 -->
      <g transform="translate(395.358231 322.182437)scale(0.1 -0.1)">
       <use xlink:href="#DejaVuSans-37"/>
       <use x="63.623047" xlink:href="#DejaVuSans-2e"/>
       <use x="95.410156" xlink:href="#DejaVuSans-35"/>
      </g>
     </g>
    </g>
    <g id="text_9">
     <!-- Threshold -->
     <g transform="translate(211.521719 335.860562)scale(0.1 -0.1)">
      <defs>
       <path d="M -19 4666 
L 3928 4666 
L 3928 4134 
L 2272 4134 
L 2272 0 
L 1638 0 
L 1638 4134 
L -19 4134 
L -19 4666 
z
" id="DejaVuSans-54" transform="scale(0.015625)"/>
       <path d="M 3513 2113 
L 3513 0 
L 2938 0 
L 2938 2094 
Q 2938 2591 2744 2837 
Q 2550 3084 2163 3084 
Q 1697 3084 1428 2787 
Q 1159 2491 1159 1978 
L 1159 0 
L 581 0 
L 581 4863 
L 1159 4863 
L 1159 2956 
Q 1366 3272 1645 3428 
Q 1925 3584 2291 3584 
Q 2894 3584 3203 3211 
Q 3513 2838 3513 2113 
z
" id="DejaVuSans-68" transform="scale(0.015625)"/>
       <path d="M 2631 2963 
Q 2534 3019 2420 3045 
Q 2306 3072 2169 3072 
Q 1681 3072 1420 2755 
Q 1159 2438 1159 1844 
L 1159 0 
L 581 0 
L 581 3500 
L 1159 3500 
L 1159 2956 
Q 1341 3275 1631 3429 
Q 1922 3584 2338 3584 
Q 2397 3584 2469 3576 
Q 2541 3569 2628 3553 
L 2631 2963 
z
" id="DejaVuSans-72" transform="scale(0.015625)"/>
       <path d="M 3597 1894 
L 3597 1613 
L 953 1613 
Q 991 1019 1311 708 
Q 1631 397 2203 397 
Q 2534 397 2845 478 
Q 3156 559 3463 722 
L 3463 178 
Q 3153 47 2828 -22 
Q 2503 -91 2169 -91 
Q 1331 -91 842 396 
Q 353 884 353 1716 
Q 353 2575 817 3079 
Q 1281 3584 2069 3584 
Q 2775 3584 3186 3129 
Q 3597 2675 3597 1894 
z
M 3022 2063 
Q 3016 2534 2758 2815 
Q 2500 3097 2075 3097 
Q 1594 3097 1305 2825 
Q 1016 2553 972 2059 
L 3022 2063 
z
" id="DejaVuSans-65" transform="scale(0.015625)"/>
       <path d="M 2834 3397 
L 2834 2853 
Q 2591 2978 2328 3040 
Q 2066 3103 1784 3103 
Q 1356 3103 1142 2972 
Q 928 2841 928 2578 
Q 928 2378 1081 2264 
Q 1234 2150 1697 2047 
L 1894 2003 
Q 2506 1872 2764 1633 
Q 3022 1394 3022 966 
Q 3022 478 2636 193 
Q 2250 -91 1575 -91 
Q 1294 -91 989 -36 
Q 684 19 347 128 
L 347 722 
Q 666 556 975 473 
Q 1284 391 1588 391 
Q 1994 391 2212 530 
Q 2431 669 2431 922 
Q 2431 1156 2273 1281 
Q 2116 1406 1581 1522 
L 1381 1569 
Q 847 1681 609 1914 
Q 372 2147 372 2553 
Q 372 3047 722 3315 
Q 1072 3584 1716 3584 
Q 2034 3584 2315 3537 
Q 2597 3491 2834 3397 
z
" id="DejaVuSans-73" transform="scale(0.015625)"/>
       <path d="M 1959 3097 
Q 1497 3097 1228 2736 
Q 959 2375 959 1747 
Q 959 1119 1226 758 
Q 1494 397 1959 397 
Q 2419 397 2687 759 
Q 2956 1122 2956 1747 
Q 2956 2369 2687 2733 
Q 2419 3097 1959 3097 
z
M 1959 3584 
Q 2709 3584 3137 3096 
Q 3566 2609 3566 1747 
Q 3566 888 3137 398 
Q 2709 -91 1959 -91 
Q 1206 -91 779 398 
Q 353 888 353 1747 
Q 353 2609 779 3096 
Q 1206 3584 1959 3584 
z
" id="DejaVuSans-6f" transform="scale(0.015625)"/>
       <path d="M 603 4863 
L 1178 4863 
L 1178 0 
L 603 0 
L 603 4863 
z
" id="DejaVuSans-6c" transform="scale(0.015625)"/>
       <path d="M 2906 2969 
L 2906 4863 
L 3481 4863 
L 3481 0 
L 2906 0 
L 2906 525 
Q 2725 213 2448 61 
Q 2172 -91 1784 -91 
Q 1150 -91 751 415 
Q 353 922 353 1747 
Q 353 2572 751 3078 
Q 1150 3584 1784 3584 
Q 2172 3584 2448 3432 
Q 2725 3281 2906 2969 
z
M 947 1747 
Q 947 1113 1208 752 
Q 1469 391 1925 391 
Q 2381 391 2643 752 
Q 2906 1113 2906 1747 
Q 2906 2381 2643 2742 
Q 2381 3103 1925 3103 
Q 1469 3103 1208 2742 
Q 947 2381 947 1747 
z
" id="DejaVuSans-64" transform="scale(0.015625)"/>
      </defs>
      <use xlink:href="#DejaVuSans-54"/>
      <use x="61.083984" xlink:href="#DejaVuSans-68"/>
      <use x="124.462891" xlink:href="#DejaVuSans-72"/>
      <use x="163.326172" xlink:href="#DejaVuSans-65"/>
      <use x="224.849609" xlink:href="#DejaVuSans-73"/>
      <use x="276.949219" xlink:href="#DejaVuSans-68"/>
      <use x="340.328125" xlink:href="#DejaVuSans-6f"/>
      <use x="401.509766" xlink:href="#DejaVuSans-6c"/>
      <use x="429.292969" xlink:href="#DejaVuSans-64"/>
     </g>
    </g>
   </g>
   <g id="matplotlib.axis_2">
    <g id="ytick_1">
     <g id="line2d_9">
      <defs>
       <path d="M 0 0 
L -3.5 0 
" id="m494b7eadd3" style="stroke:#000000;stroke-width:0.8;"/>
      </defs>
      <g>
       <use style="stroke:#000000;stroke-width:0.8;" x="57.6" xlink:href="#m494b7eadd3" y="295.701145"/>
      </g>
     </g>
     <g id="text_10">
      <!-- 0.0 -->
      <g transform="translate(34.696875 299.500364)scale(0.1 -0.1)">
       <use xlink:href="#DejaVuSans-30"/>
       <use x="63.623047" xlink:href="#DejaVuSans-2e"/>
       <use x="95.410156" xlink:href="#DejaVuSans-30"/>
      </g>
     </g>
    </g>
    <g id="ytick_2">
     <g id="line2d_10">
      <g>
       <use style="stroke:#000000;stroke-width:0.8;" x="57.6" xlink:href="#m494b7eadd3" y="247.274516"/>
      </g>
     </g>
     <g id="text_11">
      <!-- 0.2 -->
      <g transform="translate(34.696875 251.073735)scale(0.1 -0.1)">
       <use xlink:href="#DejaVuSans-30"/>
       <use x="63.623047" xlink:href="#DejaVuSans-2e"/>
       <use x="95.410156" xlink:href="#DejaVuSans-32"/>
      </g>
     </g>
    </g>
    <g id="ytick_3">
     <g id="line2d_11">
      <g>
       <use style="stroke:#000000;stroke-width:0.8;" x="57.6" xlink:href="#m494b7eadd3" y="198.847887"/>
      </g>
     </g>
     <g id="text_12">
      <!-- 0.4 -->
      <g transform="translate(34.696875 202.647106)scale(0.1 -0.1)">
       <defs>
        <path d="M 2419 4116 
L 825 1625 
L 2419 1625 
L 2419 4116 
z
M 2253 4666 
L 3047 4666 
L 3047 1625 
L 3713 1625 
L 3713 1100 
L 3047 1100 
L 3047 0 
L 2419 0 
L 2419 1100 
L 313 1100 
L 313 1709 
L 2253 4666 
z
" id="DejaVuSans-34" transform="scale(0.015625)"/>
       </defs>
       <use xlink:href="#DejaVuSans-30"/>
       <use x="63.623047" xlink:href="#DejaVuSans-2e"/>
       <use x="95.410156" xlink:href="#DejaVuSans-34"/>
      </g>
     </g>
    </g>
    <g id="ytick_4">
     <g id="line2d_12">
      <g>
       <use style="stroke:#000000;stroke-width:0.8;" x="57.6" xlink:href="#m494b7eadd3" y="150.421258"/>
      </g>
     </g>
     <g id="text_13">
      <!-- 0.6 -->
      <g transform="translate(34.696875 154.220477)scale(0.1 -0.1)">
       <defs>
        <path d="M 2113 2584 
Q 1688 2584 1439 2293 
Q 1191 2003 1191 1497 
Q 1191 994 1439 701 
Q 1688 409 2113 409 
Q 2538 409 2786 701 
Q 3034 994 3034 1497 
Q 3034 2003 2786 2293 
Q 2538 2584 2113 2584 
z
M 3366 4563 
L 3366 3988 
Q 3128 4100 2886 4159 
Q 2644 4219 2406 4219 
Q 1781 4219 1451 3797 
Q 1122 3375 1075 2522 
Q 1259 2794 1537 2939 
Q 1816 3084 2150 3084 
Q 2853 3084 3261 2657 
Q 3669 2231 3669 1497 
Q 3669 778 3244 343 
Q 2819 -91 2113 -91 
Q 1303 -91 875 529 
Q 447 1150 447 2328 
Q 447 3434 972 4092 
Q 1497 4750 2381 4750 
Q 2619 4750 2861 4703 
Q 3103 4656 3366 4563 
z
" id="DejaVuSans-36" transform="scale(0.015625)"/>
       </defs>
       <use xlink:href="#DejaVuSans-30"/>
       <use x="63.623047" xlink:href="#DejaVuSans-2e"/>
       <use x="95.410156" xlink:href="#DejaVuSans-36"/>
      </g>
     </g>
    </g>
    <g id="ytick_5">
     <g id="line2d_13">
      <g>
       <use style="stroke:#000000;stroke-width:0.8;" x="57.6" xlink:href="#m494b7eadd3" y="101.994629"/>
      </g>
     </g>
     <g id="text_14">
      <!-- 0.8 -->
      <g transform="translate(34.696875 105.793848)scale(0.1 -0.1)">
       <defs>
        <path d="M 2034 2216 
Q 1584 2216 1326 1975 
Q 1069 1734 1069 1313 
Q 1069 891 1326 650 
Q 1584 409 2034 409 
Q 2484 409 2743 651 
Q 3003 894 3003 1313 
Q 3003 1734 2745 1975 
Q 2488 2216 2034 2216 
z
M 1403 2484 
Q 997 2584 770 2862 
Q 544 3141 544 3541 
Q 544 4100 942 4425 
Q 1341 4750 2034 4750 
Q 2731 4750 3128 4425 
Q 3525 4100 3525 3541 
Q 3525 3141 3298 2862 
Q 3072 2584 2669 2484 
Q 3125 2378 3379 2068 
Q 3634 1759 3634 1313 
Q 3634 634 3220 271 
Q 2806 -91 2034 -91 
Q 1263 -91 848 271 
Q 434 634 434 1313 
Q 434 1759 690 2068 
Q 947 2378 1403 2484 
z
M 1172 3481 
Q 1172 3119 1398 2916 
Q 1625 2713 2034 2713 
Q 2441 2713 2670 2916 
Q 2900 3119 2900 3481 
Q 2900 3844 2670 4047 
Q 2441 4250 2034 4250 
Q 1625 4250 1398 4047 
Q 1172 3844 1172 3481 
z
" id="DejaVuSans-38" transform="scale(0.015625)"/>
       </defs>
       <use xlink:href="#DejaVuSans-30"/>
       <use x="63.623047" xlink:href="#DejaVuSans-2e"/>
       <use x="95.410156" xlink:href="#DejaVuSans-38"/>
      </g>
     </g>
    </g>
    <g id="ytick_6">
     <g id="line2d_14">
      <g>
       <use style="stroke:#000000;stroke-width:0.8;" x="57.6" xlink:href="#m494b7eadd3" y="53.568"/>
      </g>
     </g>
     <g id="text_15">
      <!-- 1.0 -->
      <g transform="translate(34.696875 57.367219)scale(0.1 -0.1)">
       <use xlink:href="#DejaVuSans-31"/>
       <use x="63.623047" xlink:href="#DejaVuSans-2e"/>
       <use x="95.410156" xlink:href="#DejaVuSans-30"/>
      </g>
     </g>
    </g>
    <g id="text_16">
     <!-- Metrics -->
     <g transform="translate(28.617187 192.677219)rotate(-90)scale(0.1 -0.1)">
      <defs>
       <path d="M 628 4666 
L 1569 4666 
L 2759 1491 
L 3956 4666 
L 4897 4666 
L 4897 0 
L 4281 0 
L 4281 4097 
L 3078 897 
L 2444 897 
L 1241 4097 
L 1241 0 
L 628 0 
L 628 4666 
z
" id="DejaVuSans-4d" transform="scale(0.015625)"/>
       <path d="M 1172 4494 
L 1172 3500 
L 2356 3500 
L 2356 3053 
L 1172 3053 
L 1172 1153 
Q 1172 725 1289 603 
Q 1406 481 1766 481 
L 2356 481 
L 2356 0 
L 1766 0 
Q 1100 0 847 248 
Q 594 497 594 1153 
L 594 3053 
L 172 3053 
L 172 3500 
L 594 3500 
L 594 4494 
L 1172 4494 
z
" id="DejaVuSans-74" transform="scale(0.015625)"/>
       <path d="M 603 3500 
L 1178 3500 
L 1178 0 
L 603 0 
L 603 3500 
z
M 603 4863 
L 1178 4863 
L 1178 4134 
L 603 4134 
L 603 4863 
z
" id="DejaVuSans-69" transform="scale(0.015625)"/>
       <path d="M 3122 3366 
L 3122 2828 
Q 2878 2963 2633 3030 
Q 2388 3097 2138 3097 
Q 1578 3097 1268 2742 
Q 959 2388 959 1747 
Q 959 1106 1268 751 
Q 1578 397 2138 397 
Q 2388 397 2633 464 
Q 2878 531 3122 666 
L 3122 134 
Q 2881 22 2623 -34 
Q 2366 -91 2075 -91 
Q 1284 -91 818 406 
Q 353 903 353 1747 
Q 353 2603 823 3093 
Q 1294 3584 2113 3584 
Q 2378 3584 2631 3529 
Q 2884 3475 3122 3366 
z
" id="DejaVuSans-63" transform="scale(0.015625)"/>
      </defs>
      <use xlink:href="#DejaVuSans-4d"/>
      <use x="86.279297" xlink:href="#DejaVuSans-65"/>
      <use x="147.802734" xlink:href="#DejaVuSans-74"/>
      <use x="187.011719" xlink:href="#DejaVuSans-72"/>
      <use x="228.125" xlink:href="#DejaVuSans-69"/>
      <use x="255.908203" xlink:href="#DejaVuSans-63"/>
      <use x="310.888672" xlink:href="#DejaVuSans-73"/>
     </g>
    </g>
   </g>
   <g id="line2d_15">
    <path clip-path="url(#p943143b503)" d="M 73.832727 53.568 
L 74.859063 53.781145 
L 231.978516 53.781145 
L 232.101478 53.994291 
L 249.303951 53.994291 
L 249.355932 54.207436 
L 250.078712 54.207436 
L 250.092929 54.420581 
L 251.549191 54.420581 
L 251.941943 54.633727 
L 256.138686 54.633727 
L 256.313624 54.846872 
L 256.808657 54.846872 
L 256.88838 55.060018 
L 259.36256 55.060018 
L 259.384434 55.273163 
L 267.527714 55.273163 
L 267.680057 55.486308 
L 272.04487 55.486308 
L 272.255129 55.699454 
L 275.92281 55.699454 
L 276.077454 55.912599 
L 281.376173 55.912599 
L 281.54641 56.125744 
L 283.44543 56.125744 
L 283.54241 56.33889 
L 285.86642 56.33889 
L 286.081704 56.552035 
L 287.842834 56.552035 
L 288.198083 56.978326 
L 290.233769 56.978326 
L 290.29203 57.191471 
L 290.772483 57.191471 
L 290.785438 57.404617 
L 291.362287 57.404617 
L 291.512074 57.617762 
L 292.525705 57.617762 
L 292.709419 58.044053 
L 293.09491 58.044053 
L 293.236407 58.257198 
L 293.305497 58.257198 
L 293.337852 58.470344 
L 294.49062 58.470344 
L 294.576168 58.683489 
L 295.72817 58.683489 
L 295.766337 58.896634 
L 295.881922 58.896634 
L 296.070303 59.10978 
L 296.93324 59.10978 
L 296.951329 59.322925 
L 297.558316 59.322925 
L 297.702613 59.53607 
L 297.969233 59.53607 
L 298.303172 59.962361 
L 298.90793 59.962361 
L 299.240752 60.175507 
L 300.141818 60.175507 
L 300.165532 60.388652 
L 300.848708 60.388652 
L 300.96257 60.601797 
L 301.363786 60.601797 
L 301.658088 61.028088 
L 301.792554 61.028088 
L 301.863035 61.241233 
L 302.121689 61.241233 
L 302.367764 61.667524 
L 302.765562 61.667524 
L 302.789258 61.88067 
L 303.145342 61.88067 
L 303.187538 62.30696 
L 303.363045 62.30696 
L 303.5347 62.520106 
L 303.555418 63.372687 
L 303.918587 63.798978 
L 304.713866 63.798978 
L 305.0792 64.438414 
L 305.334396 64.651559 
L 305.505384 64.651559 
L 305.617493 65.07785 
L 306.120103 65.07785 
L 306.243696 65.504141 
L 306.579876 65.504141 
L 306.603058 65.717286 
L 307.044177 65.717286 
L 307.23818 66.143577 
L 307.614016 66.996159 
L 308.342901 67.635595 
L 308.43574 67.635595 
L 308.605236 67.84874 
L 308.884334 67.84874 
L 308.949798 68.061885 
L 309.358547 68.061885 
L 309.50419 68.275031 
L 309.7125 68.275031 
L 310.370867 68.914467 
L 310.531013 68.914467 
L 310.596635 69.127612 
L 310.827115 69.127612 
L 311.047294 69.767048 
L 311.142345 69.767048 
L 311.492253 69.980194 
L 311.669654 70.406485 
L 311.770349 70.406485 
L 311.845193 70.61963 
L 312.063972 71.259066 
L 312.499363 71.259066 
L 312.534644 71.472211 
L 312.857561 71.472211 
L 313.00154 71.685357 
L 313.195406 71.685357 
L 313.234388 71.898502 
L 313.399256 71.898502 
L 313.674888 72.751084 
L 313.946348 72.964229 
L 314.461425 72.964229 
L 314.59981 73.39052 
L 314.630582 73.39052 
L 314.932989 74.243101 
L 315.069623 74.243101 
L 315.236599 74.669392 
L 315.85635 74.669392 
L 315.970731 75.308828 
L 316.038858 75.308828 
L 316.179175 75.948264 
L 316.260169 76.16141 
L 316.738952 76.374555 
L 316.82119 76.800846 
L 317.189192 77.440282 
L 317.91148 77.440282 
L 318.281945 77.866573 
L 318.373611 78.719154 
L 318.739564 78.719154 
L 318.889629 79.145445 
L 319.167157 79.784881 
L 319.473082 79.784881 
L 319.633889 80.424317 
L 319.738857 80.637463 
L 319.815041 80.637463 
L 319.959049 80.850608 
L 320.038991 80.850608 
L 320.278357 81.276899 
L 320.558995 81.276899 
L 320.670025 81.703189 
L 320.728652 81.703189 
L 321.166711 83.195207 
L 321.24561 83.195207 
L 321.334068 83.621498 
L 321.45788 83.621498 
L 321.757584 85.539806 
L 322.254401 86.605533 
L 322.390214 86.605533 
L 322.48527 87.244969 
L 322.745798 87.244969 
L 323.057352 88.097551 
L 323.128998 88.097551 
L 323.386132 88.310696 
L 323.573392 89.376423 
L 323.795468 90.229004 
L 324.228551 90.44215 
L 324.349781 90.868441 
L 324.560374 91.507877 
L 324.782548 91.507877 
L 324.925104 91.934167 
L 325.183634 91.934167 
L 325.247997 92.147313 
L 325.366317 92.147313 
L 325.481228 92.573604 
L 325.562606 92.786749 
L 325.679103 92.786749 
L 325.904086 93.426185 
L 325.988968 93.426185 
L 326.109523 93.852476 
L 326.30828 93.852476 
L 326.57567 94.278767 
L 326.648753 94.278767 
L 326.802258 95.131348 
L 327.044567 95.344493 
L 327.05151 95.344493 
L 327.366877 96.197075 
L 327.600045 97.049656 
L 327.733709 97.049656 
L 327.747327 97.262802 
L 327.916126 97.262802 
L 328.308586 98.967965 
L 328.372923 98.967965 
L 328.487 99.394256 
L 328.645621 99.394256 
L 328.685157 99.607401 
L 328.846697 99.820546 
L 328.992059 100.459982 
L 329.022178 100.673128 
L 329.261957 100.673128 
L 329.347147 101.099419 
L 329.471718 101.099419 
L 330.004207 101.738855 
L 330.071555 102.378291 
L 330.263888 102.591436 
L 330.271094 102.804581 
L 330.583705 103.230872 
L 330.707391 104.72289 
L 330.806709 105.575471 
L 331.147299 106.214907 
L 331.314089 106.641198 
L 331.410512 106.641198 
L 331.637773 107.280634 
L 331.737643 107.706925 
L 332.034965 108.985797 
L 332.132932 108.985797 
L 332.419214 109.412088 
L 332.535894 109.412088 
L 332.637176 109.625233 
L 332.705063 109.625233 
L 332.724431 109.838379 
L 332.916282 109.838379 
L 333.095797 110.26467 
L 333.196316 111.117251 
L 333.279062 111.756687 
L 333.395506 111.756687 
L 333.577153 111.969833 
L 333.733635 113.46185 
L 333.888603 113.46185 
L 333.966329 113.888141 
L 334.106413 114.314432 
L 334.512377 115.167013 
L 334.693061 115.806449 
L 334.968034 116.23274 
L 335.082348 116.445885 
L 335.26257 116.445885 
L 335.472916 117.511612 
L 335.545792 117.511612 
L 336.0006 118.790485 
L 336.20977 119.00363 
L 336.414731 119.00363 
L 336.490669 119.429921 
L 336.674861 119.643066 
L 336.746947 120.069357 
L 337.359495 121.77452 
L 337.456112 123.692828 
L 337.649478 123.905974 
L 337.680128 124.119119 
L 337.829956 124.119119 
L 338.104898 124.54541 
L 338.204406 124.54541 
L 338.427847 125.611137 
L 338.732049 126.037427 
L 338.855005 126.463718 
L 339.40879 127.529445 
L 339.490071 128.382026 
L 339.630406 128.382026 
L 340.131419 130.300335 
L 340.310734 131.792352 
L 340.493732 132.005498 
L 340.546818 132.431789 
L 340.797477 132.858079 
L 340.912573 134.136952 
L 341.208398 134.989533 
L 341.347309 134.989533 
L 341.36948 135.415824 
L 341.528524 135.628969 
L 341.550227 136.05526 
L 342.073122 137.334132 
L 342.217298 138.399859 
L 342.534988 139.039295 
L 342.627907 139.465586 
L 343.024429 139.465586 
L 343.04373 139.678731 
L 343.193 139.891877 
L 343.237869 140.531313 
L 343.432818 140.957604 
L 343.667356 141.810185 
L 343.876908 142.449621 
L 343.992832 143.089057 
L 344.954863 148.417692 
L 345.317819 148.630837 
L 345.396082 149.057128 
L 345.525239 149.057128 
L 345.729649 150.336 
L 346.072111 151.828018 
L 346.23098 152.041163 
L 346.282376 152.680599 
L 346.414438 153.10689 
L 346.593454 154.172617 
L 346.607471 154.172617 
L 346.666792 154.598907 
L 346.797299 154.598907 
L 346.929326 155.664634 
L 346.994985 155.87778 
L 347.150278 155.87778 
L 347.203203 156.30407 
L 347.318119 156.30407 
L 347.441067 157.156652 
L 347.57352 157.156652 
L 347.654392 157.582943 
L 347.694108 158.009233 
L 347.86154 158.009233 
L 348.064899 159.07496 
L 348.273447 159.714396 
L 348.465467 159.714396 
L 348.748201 160.566978 
L 348.784929 160.993269 
L 348.947645 160.993269 
L 349.000892 161.419559 
L 349.295189 161.419559 
L 349.50419 161.84585 
L 349.592318 161.84585 
L 350.100098 164.403595 
L 350.273629 165.895612 
L 350.460579 166.961339 
L 350.534235 168.027066 
L 350.734265 168.453357 
L 350.830858 169.305938 
L 350.980739 169.519084 
L 351.115671 170.584811 
L 351.216992 171.011101 
L 351.536799 171.650537 
L 351.974135 173.3557 
L 352.082815 173.3557 
L 352.186265 174.208282 
L 352.334667 174.634573 
L 352.70521 175.913445 
L 352.880846 176.552881 
L 352.945368 176.552881 
L 353.311402 178.258044 
L 353.369506 178.684335 
L 353.536889 178.89748 
L 353.55274 179.110626 
L 353.769399 179.110626 
L 353.901766 180.176352 
L 354.023477 180.602643 
L 354.137477 182.094661 
L 354.219089 182.520952 
L 354.419849 183.373533 
L 354.538455 184.012969 
L 354.702279 184.652405 
L 354.974222 185.718132 
L 355.183541 186.144423 
L 355.403168 186.783859 
L 355.777557 188.489022 
L 355.888534 189.554749 
L 356.139911 190.833621 
L 356.271823 190.833621 
L 356.648978 191.899348 
L 356.802339 193.391366 
L 356.866562 193.391366 
L 356.923962 194.030802 
L 356.981762 194.457093 
L 357.11224 195.096529 
L 357.337692 196.375401 
L 357.523535 197.014837 
L 357.63217 198.080564 
L 358.104298 199.359436 
L 358.236992 201.704035 
L 358.317749 202.343471 
L 358.561079 203.409198 
L 358.591596 203.409198 
L 358.757193 205.114361 
L 358.899936 205.540652 
L 359.782029 211.935013 
L 360.062501 212.574449 
L 360.272851 214.066467 
L 360.707478 214.919048 
L 360.806899 215.132194 
L 361.39456 217.903084 
L 361.484724 217.903084 
L 361.691681 218.755665 
L 361.749612 218.755665 
L 361.866768 219.395101 
L 361.940577 219.821392 
L 362.091618 221.31341 
L 362.154084 221.31341 
L 362.325609 221.952846 
L 362.41545 222.379137 
L 362.867475 224.723736 
L 362.870914 224.936881 
L 362.984242 224.936881 
L 363.159576 225.150026 
L 363.423836 227.494626 
L 363.538743 227.494626 
L 363.669877 227.920916 
L 363.845832 229.412934 
L 364.08447 229.626079 
L 364.2417 230.478661 
L 364.407468 231.331242 
L 364.539722 231.757533 
L 364.604196 232.396969 
L 364.736739 232.82326 
L 364.90546 234.102132 
L 365.004199 234.102132 
L 365.128366 234.528423 
L 365.252035 234.954714 
L 365.428827 236.446731 
L 365.618188 237.512458 
L 366.116146 239.857057 
L 366.252905 240.283348 
L 366.442315 240.496493 
L 366.5636 243.054238 
L 366.701667 243.267383 
L 366.705324 243.480529 
L 366.853964 243.693674 
L 366.85853 243.906819 
L 367.114839 244.546256 
L 367.274839 244.972546 
L 367.356133 245.185692 
L 367.414266 245.825128 
L 367.689151 246.464564 
L 367.835249 247.104 
L 368.090217 247.743436 
L 368.120066 247.956581 
L 368.285439 248.169727 
L 368.368038 248.596018 
L 368.519083 249.448599 
L 368.640251 250.088035 
L 368.769759 250.088035 
L 369.248705 253.285216 
L 369.559954 253.924652 
L 369.564629 254.137797 
L 369.730918 254.350943 
L 369.747937 254.777233 
L 370.057708 254.990379 
L 370.659462 256.908687 
L 370.750774 257.121833 
L 370.91947 257.334978 
L 371.104286 258.61385 
L 371.234676 259.040141 
L 371.270913 259.679577 
L 371.592276 260.319013 
L 371.764087 260.745304 
L 372.028129 261.597885 
L 372.09484 262.450467 
L 372.231133 262.876758 
L 372.489324 263.516194 
L 372.693368 263.729339 
L 372.796698 264.581921 
L 373.044939 264.795066 
L 373.228986 265.434502 
L 373.463747 265.647648 
L 373.555746 265.860793 
L 373.695172 265.860793 
L 374.438995 267.352811 
L 374.456155 267.352811 
L 374.806455 267.565956 
L 375.069925 268.631683 
L 375.456193 269.69741 
L 375.576183 270.336846 
L 375.878233 271.189427 
L 375.946483 271.402573 
L 376.03829 271.828863 
L 376.296315 272.255154 
L 376.529828 272.4683 
L 376.555626 272.89459 
L 376.854774 273.747172 
L 377.044234 273.960317 
L 377.121491 274.812899 
L 377.355522 274.812899 
L 377.484962 276.091771 
L 377.806664 276.304916 
L 378.256127 277.157498 
L 378.257434 277.583789 
L 378.545299 277.796934 
L 378.655311 279.075806 
L 378.761367 279.715242 
L 378.971091 279.928388 
L 379.205199 281.846696 
L 379.458979 282.059841 
L 379.528014 282.699278 
L 379.80075 283.125568 
L 379.886269 283.338714 
L 380.522249 283.765004 
L 380.582338 284.191295 
L 380.876654 284.830731 
L 381.130215 285.470167 
L 381.254447 286.109604 
L 382.205659 286.74904 
L 382.402804 287.17533 
L 382.670867 287.17533 
L 383.135924 287.388476 
L 383.187723 287.601621 
L 383.683985 288.241057 
L 383.716687 288.454203 
L 384.654197 288.880493 
L 385.981878 289.733075 
L 386.976944 291.011947 
L 387.04733 291.651383 
L 387.371662 291.864529 
L 387.396633 292.077674 
L 388.117526 292.71711 
L 388.859562 293.143401 
L 389.286124 293.782837 
L 391.309767 293.995982 
L 391.357831 294.209128 
L 391.533716 294.422273 
L 392.62621 294.635419 
L 394.99452 294.848564 
L 395.629572 295.061709 
L 398.487273 295.488 
L 398.487273 295.488 
" style="fill:none;stroke:#1f77b4;stroke-dasharray:5.55,2.4;stroke-dashoffset:0;stroke-width:1.5;"/>
   </g>
   <g id="line2d_16">
    <path clip-path="url(#p943143b503)" d="M 73.832727 194.612114 
L 74.859063 194.663969 
L 87.368153 194.515166 
L 88.049678 194.477897 
L 99.777493 194.291138 
L 116.373006 193.990886 
L 131.394455 193.688851 
L 131.675042 193.613062 
L 132.698062 193.461145 
L 132.841662 193.423096 
L 135.583349 193.308776 
L 142.125734 193.079368 
L 144.013668 192.925857 
L 155.244505 192.540064 
L 155.477617 192.501326 
L 157.881276 192.307195 
L 159.186875 192.151364 
L 160.929321 191.995062 
L 162.747147 191.759723 
L 163.797102 191.641653 
L 166.292878 191.404705 
L 166.36236 191.365109 
L 167.40789 191.206423 
L 167.440474 191.126899 
L 169.322516 191.007385 
L 170.777932 190.807588 
L 178.256745 190.000715 
L 178.264814 189.960045 
L 180.454846 189.797053 
L 181.148087 189.674479 
L 183.234646 189.387366 
L 184.649666 189.140029 
L 185.889427 189.015928 
L 185.954859 188.974497 
L 188.321602 188.558409 
L 188.427835 188.516621 
L 189.824369 188.307195 
L 190.166942 188.096948 
L 190.665891 187.928157 
L 191.420514 187.716422 
L 191.478789 187.673976 
L 192.559382 187.418592 
L 195.057224 186.688404 
L 195.075832 186.645145 
L 196.06136 186.384869 
L 196.360522 186.254264 
L 197.663325 186.079638 
L 197.739837 185.992115 
L 199.726934 185.772697 
L 199.739111 185.728708 
L 200.729853 185.375525 
L 201.389349 185.153631 
L 202.530325 184.886178 
L 203.412112 184.662309 
L 204.496993 184.482562 
L 204.593529 184.39247 
L 204.662273 184.347369 
L 205.223899 184.1666 
L 207.656495 183.620754 
L 207.76154 183.52926 
L 209.122817 182.884594 
L 209.229849 182.791893 
L 210.198461 182.606034 
L 210.238108 182.559474 
L 213.017253 181.856439 
L 213.214211 181.525358 
L 213.502539 181.382876 
L 213.773092 181.144613 
L 213.917219 181.096842 
L 215.216424 180.905356 
L 216.108351 180.472164 
L 217.015479 180.278583 
L 219.389393 179.30084 
L 219.89109 179.152748 
L 221.183071 178.606505 
L 221.513248 178.45664 
L 222.247974 178.004734 
L 223.088384 177.853324 
L 223.358793 177.498513 
L 223.830953 177.294803 
L 223.835031 177.243766 
L 224.492293 177.09039 
L 224.525229 177.039176 
L 225.0337 176.88527 
L 225.039622 176.833879 
L 226.119768 176.524597 
L 226.650556 176.161728 
L 227.466097 176.005536 
L 227.776349 175.691923 
L 228.3669 175.376662 
L 228.968128 174.953729 
L 230.13211 174.741145 
L 230.905778 174.260085 
L 231.920353 174.04505 
L 232.101478 173.990602 
L 232.677058 173.774419 
L 232.815919 173.611778 
L 232.86693 173.503109 
L 233.167358 173.394247 
L 233.230257 173.28519 
L 233.867428 173.066493 
L 234.301013 172.79202 
L 235.896943 171.961178 
L 236.410901 171.513453 
L 237.067475 171.34472 
L 237.384863 171.175528 
L 237.920179 171.005874 
L 237.994889 170.892515 
L 238.531023 170.665177 
L 238.857549 170.494129 
L 239.641091 170.265336 
L 239.704198 170.150626 
L 240.113634 169.978166 
L 240.469132 169.573912 
L 241.842848 169.283564 
L 241.914495 169.16705 
L 242.559906 168.991876 
L 242.700517 168.816216 
L 245.185831 167.930561 
L 245.196267 167.871077 
L 245.459589 167.692294 
L 245.542357 167.51301 
L 246.002008 167.333223 
L 246.517924 167.152931 
L 247.199937 166.972131 
L 247.239124 166.911752 
L 247.924583 166.609003 
L 249.303951 165.630569 
L 249.309406 165.683679 
L 249.355932 165.560323 
L 249.798462 165.436732 
L 250.402607 164.868343 
L 251.051975 164.555346 
L 251.549191 164.051424 
L 251.941943 164.041248 
L 252.971229 163.020628 
L 253.677557 162.762996 
L 254.395779 162.439546 
L 255.194836 162.309724 
L 255.337664 162.17965 
L 256.795968 161.314871 
L 256.88838 161.235665 
L 257.29408 161.036948 
L 257.347743 160.970578 
L 258.188894 160.704444 
L 258.218173 160.570982 
L 260.590939 159.749832 
L 260.691798 159.546515 
L 262.522866 158.175371 
L 263.708835 157.688923 
L 264.181075 157.199022 
L 264.723593 156.70563 
L 265.141865 156.493098 
L 265.379133 156.20871 
L 265.792649 155.779943 
L 266.211019 155.564569 
L 266.471066 155.348531 
L 266.708475 155.204135 
L 266.735809 155.131826 
L 267.003401 154.986984 
L 267.162175 154.841843 
L 268.115518 154.456811 
L 268.155311 154.237146 
L 268.506576 153.869516 
L 268.620251 153.648019 
L 269.37869 153.202944 
L 269.433532 153.053966 
L 269.870795 152.605154 
L 270.062817 152.304375 
L 270.44758 152.15351 
L 270.527194 151.699006 
L 270.798075 151.470672 
L 271.418834 150.781307 
L 271.676595 150.627219 
L 271.709667 150.472803 
L 272.617924 149.903326 
L 273.206433 149.66905 
L 273.749099 149.43402 
L 274.197557 149.198232 
L 274.487559 148.961683 
L 274.832684 148.803558 
L 274.952576 148.486285 
L 276.819114 147.57728 
L 276.92639 147.49669 
L 277.961277 147.173453 
L 278.026728 147.011304 
L 278.490813 146.685944 
L 278.521122 146.604381 
L 279.199066 146.195224 
L 279.324825 146.030932 
L 279.553876 145.866278 
L 279.576513 145.783815 
L 280.178595 145.535882 
L 280.308557 145.287126 
L 280.473413 145.120831 
L 280.542172 144.870698 
L 280.87516 144.619732 
L 280.982543 144.36793 
L 281.54641 143.996767 
L 281.957044 143.742655 
L 282.434497 143.487692 
L 282.892941 142.975188 
L 283.002235 142.803586 
L 283.275054 142.631598 
L 283.287544 142.545459 
L 283.745559 142.163301 
L 283.761487 142.076557 
L 284.059134 141.902773 
L 284.211354 141.554024 
L 284.593166 141.379056 
L 284.807937 141.20369 
L 284.958265 141.027925 
L 285.199557 140.675192 
L 285.470422 140.498222 
L 285.86642 139.964878 
L 286.081704 139.92512 
L 286.552703 139.746272 
L 287.204352 139.297352 
L 287.205248 139.207258 
L 288.292918 138.762996 
L 288.410224 138.672122 
L 288.962234 138.39887 
L 290.040041 137.94133 
L 290.772483 137.252613 
L 290.785438 137.30158 
L 291.038771 137.023035 
L 291.362287 136.743508 
L 291.512074 136.792377 
L 291.777307 136.605426 
L 292.11113 136.136117 
L 293.091253 135.666494 
L 293.191737 135.334722 
L 293.305497 135.14381 
L 293.337852 135.192396 
L 293.579982 134.905089 
L 293.679176 134.712979 
L 293.723217 134.423952 
L 293.874388 134.23069 
L 293.939234 134.036964 
L 294.104342 133.842773 
L 294.15284 133.745502 
L 294.576168 133.501111 
L 294.771124 133.305453 
L 295.119716 133.109323 
L 295.72817 132.320042 
L 295.746605 132.367858 
L 295.881922 131.970211 
L 296.040373 132.017959 
L 296.070303 131.918213 
L 296.408626 131.718356 
L 296.548206 131.518011 
L 296.828675 131.317175 
L 297.164943 131.062483 
L 297.600823 130.806539 
L 297.702613 130.50193 
L 298.1753 130.243496 
L 298.227091 130.038975 
L 298.303172 130.086267 
L 299.48079 129.82568 
L 300.141818 128.790899 
L 300.165532 128.837854 
L 300.453122 128.52479 
L 300.456989 128.420174 
L 300.711323 128.210549 
L 300.848708 128.000397 
L 300.880064 128.047122 
L 300.939585 127.941812 
L 301.036141 127.730794 
L 301.26838 127.519244 
L 301.363786 127.200919 
L 301.658088 127.293948 
L 302.442032 126.577613 
L 302.756873 126.362169 
L 302.765562 126.254241 
L 302.789258 126.300597 
L 303.047757 126.084249 
L 303.145342 125.975867 
L 303.187538 126.06852 
L 303.5347 125.788598 
L 303.555418 125.974375 
L 303.683784 126.020968 
L 304.798112 125.014551 
L 305.222674 125.153823 
L 305.933295 124.355126 
L 305.954653 124.242989 
L 306.120103 124.130704 
L 306.243696 124.223246 
L 306.532936 123.998061 
L 306.72399 123.818472 
L 307.23818 123.684392 
L 307.3302 123.777016 
L 307.387847 123.663385 
L 307.614016 123.642294 
L 307.815874 123.688732 
L 307.832652 123.574665 
L 308.122631 123.667636 
L 308.155744 123.553328 
L 308.509108 123.255887 
L 308.853497 122.679533 
L 308.949798 122.494046 
L 309.156857 122.261709 
L 309.358547 122.028748 
L 309.50419 122.074757 
L 309.679006 121.841074 
L 309.7125 121.606761 
L 309.941694 121.698581 
L 310.370867 121.273477 
L 310.703812 120.726615 
L 310.827115 120.488393 
L 310.907864 120.579627 
L 310.978543 120.505832 
L 311.142345 120.146334 
L 311.437297 120.191904 
L 311.492253 120.071693 
L 311.558998 120.162919 
L 312.095242 119.375971 
L 312.118112 119.009391 
L 312.799127 118.316696 
L 312.857561 118.193083 
L 313.00154 118.23815 
L 313.399256 118.035315 
L 313.658193 118.216023 
L 313.674888 118.091559 
L 313.840483 118.136839 
L 314.098324 117.63701 
L 314.220998 117.386038 
L 314.480654 117.053086 
L 314.630582 116.718246 
L 314.719918 116.807885 
L 314.764775 116.68083 
L 314.854856 116.725686 
L 314.871673 116.598392 
L 314.932989 116.643254 
L 315.069623 116.515719 
L 315.102128 116.560586 
L 315.153874 116.605516 
L 315.156488 116.477682 
L 315.397908 116.093083 
L 315.636843 115.835764 
L 315.769967 115.448402 
L 316.035587 114.931707 
L 316.111514 114.714503 
L 316.136895 114.803122 
L 316.179175 114.671941 
L 316.260169 114.716283 
L 316.82119 114.849698 
L 317.084785 114.983696 
L 317.189192 114.587675 
L 317.362756 114.189915 
L 317.724157 114.05694 
L 317.799113 113.790404 
L 317.91148 113.656842 
L 318.346847 113.878245 
L 318.373611 113.788568 
L 318.482549 113.654216 
L 318.868261 113.564009 
L 318.943962 113.652892 
L 319.008247 113.517941 
L 319.067593 113.562414 
L 319.167157 113.606954 
L 319.271963 112.792215 
L 319.295153 112.655715 
L 319.560693 112.563071 
L 319.595686 112.607196 
L 319.603492 112.47015 
L 319.643219 112.558459 
L 320.278357 111.306032 
L 320.774989 111.017081 
L 320.862424 110.594785 
L 320.89104 110.72548 
L 321.044243 110.573273 
L 321.166711 110.288898 
L 321.45788 109.80417 
L 321.479816 109.847596 
L 321.996228 110.373983 
L 322.037397 110.229422 
L 322.249945 110.273655 
L 322.289222 109.983698 
L 322.48527 109.67898 
L 322.966327 109.474235 
L 322.985656 109.518325 
L 323.017502 109.562484 
L 323.128998 109.268194 
L 323.326978 109.312261 
L 323.386132 109.164684 
L 323.420354 109.297057 
L 323.450583 109.341322 
L 323.459329 109.193182 
L 323.63006 109.281757 
L 323.795468 108.968064 
L 324.316058 108.951585 
L 324.349781 108.801585 
L 324.419078 108.890456 
L 324.456526 108.934999 
L 325.031547 107.353475 
L 325.366317 106.781902 
L 325.375192 106.825413 
L 325.505878 106.912649 
L 325.988968 105.639644 
L 326.001319 105.68275 
L 326.109523 105.725927 
L 326.391916 105.611556 
L 326.434047 105.654781 
L 326.57567 105.180061 
L 326.677537 104.905078 
L 326.719954 104.990926 
L 326.798655 105.033957 
L 326.802258 104.874269 
L 326.921796 104.917276 
L 327.147279 104.639781 
L 327.184139 104.682735 
L 327.236343 104.725761 
L 327.238662 104.564871 
L 327.314579 104.60787 
L 327.366877 104.44661 
L 327.417718 104.575744 
L 327.455446 104.618934 
L 327.598849 104.294791 
L 327.600045 104.132307 
L 327.991588 103.485954 
L 328.150172 102.787141 
L 328.264289 102.829571 
L 328.372923 102.538749 
L 328.418976 102.581111 
L 328.487 102.288633 
L 328.846697 102.036776 
L 328.861944 102.078996 
L 328.886255 101.910189 
L 328.906899 101.952372 
L 328.951829 101.994629 
L 329.165128 101.357437 
L 329.305494 100.886273 
L 329.347147 100.927963 
L 329.653712 100.453198 
L 329.871708 100.536254 
L 330.060788 99.750258 
L 330.071555 99.791455 
L 330.458834 99.915489 
L 330.6785 98.885867 
L 330.806709 99.174516 
L 330.957216 99.216052 
L 331.047109 98.898863 
L 331.177673 98.98181 
L 331.223039 98.801665 
L 331.314089 98.843125 
L 331.496409 98.703931 
L 331.540512 98.745416 
L 331.541187 98.564224 
L 331.643835 98.688752 
L 331.837412 98.407471 
L 331.853286 98.449028 
L 331.978806 98.490661 
L 332.132932 98.023014 
L 332.419214 98.10603 
L 332.654766 97.592208 
L 332.705063 97.406365 
L 332.724431 97.447528 
L 332.916282 97.261199 
L 333.18743 97.426079 
L 333.226767 97.592208 
L 333.272484 97.027795 
L 333.279062 97.069107 
L 333.395506 96.880114 
L 333.554867 96.921363 
L 333.577153 96.731869 
L 333.658485 96.938592 
L 333.733635 97.021837 
L 334.064325 96.572342 
L 334.106413 96.613893 
L 334.239303 96.697234 
L 334.302048 96.504401 
L 334.446539 96.546046 
L 334.650431 95.852715 
L 334.693061 95.935383 
L 335.082348 96.059993 
L 335.297409 95.709167 
L 335.545792 95.282027 
L 335.78688 95.447888 
L 336.0006 94.529463 
L 336.20977 94.570507 
L 336.414731 94.368771 
L 336.427348 94.409735 
L 336.684419 94.533124 
L 336.70543 94.330334 
L 336.746947 94.371466 
L 337.028579 94.53683 
L 337.171679 93.964578 
L 337.2632 94.046936 
L 337.359495 93.675944 
L 337.371479 94.006731 
L 337.378678 94.048464 
L 337.456112 93.631395 
L 337.655971 93.714428 
L 337.829956 93.084532 
L 337.968815 93.166858 
L 338.204406 92.744031 
L 338.246628 92.825989 
L 338.327123 92.867097 
L 338.427847 92.094981 
L 338.855005 92.258058 
L 339.358857 92.463856 
L 339.40879 92.247416 
L 339.490071 92.41289 
L 339.695823 92.236637 
L 339.735359 92.319706 
L 339.77684 91.881856 
L 339.843719 91.923143 
L 340.110329 92.130917 
L 340.200424 91.771815 
L 340.22797 91.855139 
L 340.294238 91.980808 
L 340.310734 91.757675 
L 340.500774 91.883575 
L 340.546818 91.659353 
L 340.697771 91.701304 
L 340.777281 91.476387 
L 340.814883 91.602189 
L 340.971269 91.813725 
L 341.117183 91.94178 
L 341.208398 91.257258 
L 341.347309 91.028061 
L 341.36948 91.112241 
L 341.520392 91.154473 
L 341.528524 90.924127 
L 341.550227 91.008453 
L 341.824482 91.135657 
L 341.93645 90.671263 
L 342.073122 90.798039 
L 342.217298 91.01127 
L 342.510118 91.097248 
L 342.596465 90.475131 
L 342.627907 90.517798 
L 342.859266 90.042286 
L 343.024429 89.564565 
L 343.027882 89.606422 
L 343.04373 89.366498 
L 343.237869 89.533976 
L 343.374845 89.576091 
L 343.424631 89.092229 
L 343.542606 89.259796 
L 343.76209 88.609808 
L 343.857447 88.651425 
L 343.888042 88.776872 
L 343.898576 88.529946 
L 343.992832 88.075598 
L 344.03555 88.116974 
L 344.184881 88.325351 
L 344.250221 87.823838 
L 344.336027 87.948556 
L 344.401509 87.990331 
L 344.50256 87.608723 
L 344.756507 87.90254 
L 344.797988 87.645998 
L 344.842452 87.688122 
L 345.343065 87.943067 
L 345.525239 87.46664 
L 345.54138 87.509067 
L 345.563741 87.551599 
L 345.580386 87.290433 
L 345.64802 87.417848 
L 345.71515 87.460534 
L 345.814435 86.976244 
L 345.822061 87.018587 
L 346.051003 87.189035 
L 346.072111 87.231919 
L 346.257363 87.36123 
L 346.494239 87.710966 
L 346.606521 87.171433 
L 346.607471 86.900615 
L 346.666792 86.987419 
L 346.797299 86.442474 
L 346.849386 86.571731 
L 346.981105 86.702009 
L 346.994985 86.426648 
L 347.57352 85.291327 
L 347.574723 85.333794 
L 347.596742 85.0518 
L 347.694108 85.178922 
L 347.86154 84.895199 
L 347.884059 84.937476 
L 348.000477 85.064995 
L 348.064899 84.246995 
L 348.122817 84.288849 
L 348.259923 84.372901 
L 348.273447 84.08341 
L 348.440241 83.793125 
L 348.465467 83.502043 
L 348.564628 83.543217 
L 348.784929 83.750802 
L 348.963022 83.203211 
L 348.972357 82.907253 
L 349.000892 82.948172 
L 349.363886 82.691707 
L 349.388937 82.732497 
L 349.807973 81.387553 
L 349.823184 81.427069 
L 349.910337 81.546295 
L 349.978083 80.933549 
L 350.100098 81.091048 
L 350.273629 81.371079 
L 350.495709 81.698174 
L 350.665294 81.822828 
L 350.976049 82.075479 
L 350.980739 81.756635 
L 351.04478 81.88342 
L 351.208473 82.054252 
L 351.216992 81.731523 
L 351.418407 81.816867 
L 351.431219 81.492308 
L 351.536799 81.534746 
L 351.974135 81.878952 
L 352.082815 81.549488 
L 352.160893 81.635984 
L 352.212449 81.766736 
L 352.228546 81.434023 
L 352.334667 81.477428 
L 352.732722 81.785091 
L 352.754457 81.447684 
L 352.759245 81.491728 
L 352.880846 81.535911 
L 352.945368 81.196505 
L 353.034986 81.284354 
L 353.036602 81.328488 
L 353.045387 80.986586 
L 353.262075 80.428429 
L 353.311451 80.558609 
L 353.55274 80.690057 
L 353.74884 80.340445 
L 353.769399 79.989695 
L 353.804694 80.119425 
L 354.01991 80.294393 
L 354.044306 79.711944 
L 354.108548 79.842882 
L 354.419849 80.153565 
L 354.49768 80.198549 
L 354.521138 79.83329 
L 354.594512 80.012576 
L 354.671942 79.273916 
L 354.778737 79.362253 
L 354.859824 79.451198 
L 354.90406 78.702929 
L 354.974222 78.790203 
L 355.721342 79.326845 
L 355.747607 78.942521 
L 355.828026 79.169892 
L 356.10041 79.448173 
L 356.101306 79.0557 
L 356.139911 79.102041 
L 356.271823 78.707507 
L 356.3532 78.753382 
L 356.648978 78.938569 
L 356.730036 79.173917 
L 356.866562 78.460193 
L 356.926654 78.647704 
L 357.085867 77.550712 
L 357.133684 77.642424 
L 357.161853 77.827968 
L 357.297598 77.407364 
L 357.337692 77.453475 
L 357.541583 77.686731 
L 357.787244 77.972724 
L 357.946274 78.069568 
L 358.01267 77.636901 
L 358.104298 77.684847 
L 358.236992 78.225143 
L 358.299406 78.275464 
L 358.304177 77.830831 
L 358.405904 78.030936 
L 358.591596 76.82087 
L 358.61703 77.016684 
L 359.229799 78.047395 
L 359.343956 77.138483 
L 359.348521 77.190746 
L 359.497484 77.348934 
L 359.569419 77.726409 
L 359.577321 77.231012 
L 359.645615 77.284914 
L 359.670185 76.786247 
L 359.772981 76.892753 
L 359.903017 77.054356 
L 360.109227 77.218214 
L 360.155365 77.328729 
L 360.215903 76.357002 
L 360.263716 76.41075 
L 360.272851 76.464751 
L 360.707999 76.738636 
L 360.806899 76.213546 
L 360.892158 76.322681 
L 360.95841 76.377644 
L 361.008862 75.846594 
L 361.037764 75.955006 
L 361.158545 76.175026 
L 361.201563 76.230708 
L 361.296061 75.251565 
L 361.39456 75.305639 
L 361.484724 74.75465 
L 361.512312 74.80775 
L 361.607999 74.968657 
L 361.749612 73.283676 
L 361.866768 73.435335 
L 362.055229 73.745762 
L 362.091618 73.904642 
L 362.142739 73.320967 
L 362.154084 72.734212 
L 362.241004 72.784916 
L 362.41545 71.18955 
L 362.514733 71.285059 
L 362.620433 71.479219 
L 362.783793 71.627654 
L 362.817768 71.006952 
L 362.870914 71.153089 
L 362.984242 70.524103 
L 363.159576 70.571732 
L 363.254741 70.863225 
L 363.265698 70.21899 
L 363.404213 70.363363 
L 363.423836 70.46101 
L 363.538743 69.804333 
L 363.637775 69.851808 
L 363.845832 70.241839 
L 364.178176 70.392962 
L 364.539722 70.809679 
L 364.604196 70.97132 
L 364.758247 71.13602 
L 364.766188 71.360531 
L 364.90546 71.417559 
L 365.004199 70.69639 
L 365.019077 70.751643 
L 365.266466 70.976265 
L 365.489705 71.383817 
L 365.529627 70.631074 
L 365.618188 70.863225 
L 365.744358 71.041526 
L 365.847287 69.542062 
L 365.92318 69.59772 
L 366.39114 70.116668 
L 366.442315 69.302284 
L 366.494786 69.830674 
L 366.974966 70.331064 
L 366.999928 69.460909 
L 367.080632 69.52251 
L 367.274839 69.71021 
L 367.371926 69.902379 
L 367.556351 70.099179 
L 367.704801 70.233034 
L 368.552903 71.234367 
L 368.640251 71.387322 
L 368.769759 70.412045 
L 368.799302 70.4856 
L 369.107375 71.503789 
L 369.559954 71.8422 
L 369.564629 71.928807 
L 369.730918 72.01624 
L 369.747937 72.193627 
L 370.135838 72.374458 
L 370.428788 72.746863 
L 370.49847 72.938652 
L 370.659462 73.134315 
L 370.673319 73.233636 
L 370.750774 72.098598 
L 370.946217 72.289635 
L 371.10181 72.683775 
L 371.104286 72.784916 
L 371.234676 72.990445 
L 371.270913 73.307115 
L 371.407202 73.414979 
L 371.438027 72.193627 
L 371.592276 72.400578 
L 371.677854 72.61218 
L 371.764087 71.35179 
L 371.832492 71.452835 
L 372.301764 72.530234 
L 372.399638 71.177683 
L 372.489324 71.393753 
L 372.693368 71.503789 
L 372.796698 71.957859 
L 373.087643 72.193627 
L 373.163442 72.435518 
L 373.228986 69.497812 
L 373.501406 69.71021 
L 373.695172 66.656278 
L 374.438995 67.306051 
L 374.456155 65.674657 
L 374.843749 65.850116 
L 375.025453 66.123052 
L 375.176383 66.408394 
L 375.38363 66.605939 
L 375.946483 67.575703 
L 375.946664 67.811126 
L 376.03829 65.879855 
L 376.20536 66.092128 
L 376.296315 64.095528 
L 376.533303 64.281856 
L 376.678675 64.574052 
L 376.854774 64.777868 
L 377.061702 64.989375 
L 377.121491 65.322036 
L 377.355522 63.063417 
L 377.382364 63.450986 
L 377.484962 63.656881 
L 377.806664 63.76308 
L 378.096358 64.095528 
L 378.256127 61.639105 
L 378.257434 61.822539 
L 378.546791 62.014505 
L 378.761367 62.880813 
L 378.996244 63.125887 
L 379.205199 64.250345 
L 379.458979 64.409783 
L 379.528014 64.917991 
L 379.80075 65.28412 
L 379.886269 65.476187 
L 380.522249 65.879855 
L 380.582338 66.31185 
L 380.798042 66.775262 
L 381.228357 68.392478 
L 381.254447 68.701322 
L 381.592597 69.023307 
L 381.734465 69.359292 
L 382.205659 69.71021 
L 382.402804 70.46101 
L 382.670867 65.09815 
L 383.076827 65.379373 
L 383.135924 59.621329 
L 383.187723 59.776542 
L 383.683985 60.293921 
L 383.716687 60.48609 
L 384.242669 60.689563 
L 384.302969 53.568 
L 398.487273 53.568 
L 398.487273 53.568 
" style="fill:none;stroke:#ff7f0e;stroke-dasharray:9.6,2.4,1.5,2.4;stroke-dashoffset:0;stroke-width:1.5;"/>
   </g>
   <g id="line2d_17">
    <path clip-path="url(#p943143b503)" d="M 73.832727 153.070472 
L 74.859063 153.159071 
L 87.368153 153.011052 
L 88.049678 152.973999 
L 99.777493 152.788446 
L 116.373006 152.490557 
L 131.503358 152.153942 
L 131.675042 152.116443 
L 132.698062 151.96625 
L 132.841662 151.928653 
L 135.583349 151.815742 
L 142.125734 151.589389 
L 144.013668 151.43809 
L 155.244505 151.058451 
L 155.477617 151.020377 
L 157.881276 150.829706 
L 159.186875 150.676808 
L 160.929321 150.523586 
L 162.747147 150.293145 
L 163.797102 150.177651 
L 166.292878 149.94611 
L 166.36236 149.907448 
L 167.40789 149.752595 
L 167.440474 149.675045 
L 169.322516 149.558566 
L 170.777932 149.364021 
L 178.256745 148.580631 
L 178.264814 148.541242 
L 180.454846 148.383472 
L 181.148087 148.264922 
L 183.234646 147.987563 
L 184.649666 147.748995 
L 185.889427 147.629421 
L 185.954859 147.58952 
L 188.321602 147.189327 
L 188.427835 147.149189 
L 189.824369 146.948171 
L 190.166942 146.746609 
L 190.665891 146.584965 
L 191.420514 146.382417 
L 191.478789 146.341841 
L 192.559382 146.097923 
L 195.317621 145.320232 
L 195.332941 145.279076 
L 196.06136 145.11423 
L 196.360522 144.990358 
L 197.663325 144.824879 
L 197.739837 144.742002 
L 199.726934 144.534413 
L 199.739111 144.492826 
L 201.009473 144.0757 
L 201.981642 143.782339 
L 203.09853 143.5721 
L 203.412112 143.487842 
L 204.496993 143.319044 
L 204.593529 143.234505 
L 204.662273 143.1922 
L 205.223899 143.022745 
L 207.656495 142.512115 
L 207.76154 142.426678 
L 209.13931 141.782848 
L 209.229849 141.739734 
L 210.198461 141.567034 
L 210.238108 141.523799 
L 213.017253 140.872345 
L 213.214211 140.566446 
L 213.502539 140.434976 
L 213.773092 140.215363 
L 213.917219 140.171366 
L 215.216424 139.995128 
L 216.108351 139.597129 
L 217.015479 139.419587 
L 219.389393 138.525784 
L 219.988934 138.345795 
L 221.183071 137.894014 
L 221.593138 137.712574 
L 222.053047 137.485187 
L 222.247974 137.34844 
L 223.125487 137.165743 
L 223.835031 136.661145 
L 224.926573 136.430719 
L 225.039622 136.292143 
L 226.119768 136.014266 
L 226.650556 135.688848 
L 227.506853 135.5023 
L 228.547664 134.893 
L 228.968128 134.610219 
L 230.13211 134.421145 
L 230.905778 133.994102 
L 231.920353 133.803578 
L 231.978516 133.708148 
L 232.101478 133.803158 
L 232.677058 133.612015 
L 232.815919 133.468361 
L 232.86693 133.372451 
L 233.167358 133.276427 
L 233.230257 133.180289 
L 233.867428 132.987672 
L 234.442807 132.601064 
L 235.193137 132.3585 
L 235.449528 132.212615 
L 235.503152 132.163929 
L 235.956915 131.968893 
L 236.410901 131.626459 
L 237.126573 131.430139 
L 237.167257 131.380986 
L 238.470847 130.986696 
L 238.718413 130.788841 
L 240.30614 130.142516 
L 240.309891 130.092589 
L 241.251295 129.792392 
L 241.873574 129.641885 
L 241.914495 129.591655 
L 242.559906 129.440784 
L 242.880244 129.239195 
L 243.912933 128.885236 
L 245.144481 128.631485 
L 245.542357 128.172782 
L 246.002008 128.019321 
L 246.517924 127.865579 
L 247.199937 127.711554 
L 247.239124 127.66015 
L 247.924583 127.402655 
L 249.303951 126.573343 
L 249.309406 126.670428 
L 249.355932 126.566217 
L 249.858642 126.409659 
L 249.945439 126.252811 
L 251.099334 125.719923 
L 251.107629 125.6672 
L 251.511751 125.40309 
L 251.549191 125.350169 
L 251.779366 125.447749 
L 252.10124 125.235794 
L 252.243672 125.07648 
L 252.525466 124.916869 
L 252.971229 124.543278 
L 253.677557 124.329063 
L 254.395779 124.060539 
L 255.227894 123.89902 
L 256.138686 123.466814 
L 256.211517 123.564968 
L 256.253851 123.510803 
L 256.313624 123.402371 
L 256.714288 123.239466 
L 256.88838 123.174594 
L 257.29408 123.011113 
L 257.347743 122.956551 
L 258.188894 122.737956 
L 258.218173 122.628451 
L 259.36256 122.244089 
L 259.384434 122.342727 
L 260.274489 122.177519 
L 260.325491 122.067205 
L 260.642593 121.901471 
L 260.990652 121.624544 
L 261.504004 121.346732 
L 261.514031 121.291064 
L 262.108879 121.012186 
L 262.158921 120.956303 
L 262.511102 120.788441 
L 262.522866 120.732415 
L 263.708835 120.339227 
L 264.254846 119.8877 
L 266.048739 118.748643 
L 266.708475 118.346478 
L 266.735809 118.288876 
L 267.03017 118.115848 
L 267.527714 117.942481 
L 267.680057 118.042256 
L 268.096514 117.868591 
L 268.259736 117.578394 
L 268.435423 117.46205 
L 268.763306 117.112104 
L 268.815726 117.053646 
L 269.271257 116.878043 
L 269.52547 116.643367 
L 269.553184 116.525797 
L 269.870795 116.349154 
L 270.062817 116.113087 
L 270.44758 115.99482 
L 270.527194 115.639083 
L 270.798075 115.460686 
L 271.418834 114.923368 
L 271.682832 114.743549 
L 271.820011 114.623471 
L 273.206433 114.121444 
L 273.993084 113.879257 
L 274.858649 113.39294 
L 274.952576 113.209899 
L 278.367232 111.957612 
L 279.553876 111.273394 
L 279.576513 111.21094 
L 280.191963 110.960699 
L 280.308557 110.835323 
L 280.473413 110.709778 
L 280.542172 110.52114 
L 280.87516 110.332116 
L 280.982543 110.142706 
L 282.434497 109.546798 
L 282.892941 109.164027 
L 283.002235 109.036087 
L 283.287544 108.843847 
L 284.09105 108.366993 
L 284.211354 108.173199 
L 284.651953 107.979004 
L 284.992255 107.71945 
L 285.063858 107.589404 
L 285.588569 107.2635 
L 285.724243 107.067415 
L 285.86642 107.001963 
L 286.049206 107.104555 
L 286.081704 107.03907 
L 286.716087 106.842342 
L 286.744271 106.776675 
L 287.204352 106.579399 
L 287.205248 106.513549 
L 288.084831 106.352519 
L 288.121233 106.455421 
L 288.198083 106.389367 
L 288.410224 106.25712 
L 289.225692 105.99207 
L 289.232894 105.925692 
L 290.445951 105.496168 
L 290.468811 105.429383 
L 291.129756 105.131025 
L 291.13386 105.063922 
L 291.362287 104.996773 
L 291.512074 105.100213 
L 291.835401 104.898519 
L 291.976114 104.763819 
L 292.11113 104.628928 
L 292.61614 104.529875 
L 292.627251 104.633589 
L 292.709419 104.565955 
L 293.149177 104.330926 
L 293.305497 104.127052 
L 293.337852 104.231028 
L 293.676616 103.958569 
L 293.723217 103.685334 
L 293.902578 103.479897 
L 294.15284 103.205295 
L 295.10361 102.896235 
L 295.213563 102.758073 
L 295.52508 102.550458 
L 295.649445 102.4118 
L 295.881922 102.099185 
L 296.040373 102.203815 
L 296.070303 102.134137 
L 296.464469 101.9248 
L 296.93324 101.644978 
L 296.939892 101.749785 
L 296.951329 101.679716 
L 297.652179 101.363206 
L 297.702613 101.292794 
L 297.969233 101.222331 
L 298.171551 101.2569 
L 298.227091 101.045087 
L 298.303172 101.150285 
L 298.90793 101.079591 
L 299.240752 101.114145 
L 299.648882 100.901636 
L 299.817812 100.688663 
L 299.843371 100.546422 
L 301.242901 99.684368 
L 301.363786 99.396214 
L 301.658088 99.608028 
L 301.863035 99.569732 
L 303.145342 99.01839 
L 303.184476 99.124903 
L 303.187538 99.231494 
L 303.363045 99.158674 
L 303.438287 99.265357 
L 303.448337 99.192495 
L 303.5347 99.119579 
L 303.555418 99.547204 
L 303.683784 99.654309 
L 304.713866 99.030102 
L 305.0792 99.352519 
L 305.222674 99.460151 
L 305.505384 99.313319 
L 305.520101 99.421058 
L 305.554804 99.274032 
L 305.604704 99.381877 
L 305.617493 99.308294 
L 305.933295 99.087214 
L 305.954653 99.01341 
L 306.120103 98.939551 
L 306.243696 99.155638 
L 306.532936 99.007804 
L 306.579876 98.933804 
L 306.603058 99.042008 
L 307.044177 98.893866 
L 307.815874 99.431405 
L 307.832652 99.357173 
L 308.122631 99.575131 
L 308.155744 99.500869 
L 308.663275 99.237895 
L 308.764473 99.088663 
L 309.358547 98.673946 
L 309.50419 98.783412 
L 309.679006 98.633208 
L 309.7125 98.482774 
L 310.112107 98.626786 
L 310.184621 98.551451 
L 310.290735 98.661247 
L 310.326996 98.585869 
L 310.531013 98.283776 
L 310.582853 98.393722 
L 310.596635 98.318068 
L 310.827115 98.090755 
L 310.978543 98.34541 
L 311.142345 98.117516 
L 311.643392 98.296799 
L 311.669654 98.22064 
L 311.845193 98.102535 
L 311.981579 98.358884 
L 312.095242 98.206024 
L 312.118112 97.976289 
L 312.857561 97.5494 
L 313.00154 97.660728 
L 313.195406 97.58364 
L 313.234388 97.695069 
L 313.399256 97.617933 
L 313.658193 98.064571 
L 313.674888 97.987429 
L 313.840483 98.09932 
L 314.630582 97.393434 
L 314.854856 97.6528 
L 314.871673 97.57489 
L 314.932989 97.687499 
L 315.069623 97.609541 
L 315.153874 97.835053 
L 315.156488 97.75706 
L 315.85635 97.052354 
L 315.936482 97.313132 
L 315.970731 97.234501 
L 316.111514 97.032727 
L 316.118671 97.146194 
L 316.136895 97.259752 
L 316.179175 97.180849 
L 316.260169 97.294511 
L 316.755626 97.522106 
L 317.084785 97.978386 
L 317.266313 97.662534 
L 317.362756 97.50423 
L 317.729596 97.345673 
L 317.91148 97.186861 
L 318.312657 97.645164 
L 318.373611 97.795451 
L 318.739564 97.636427 
L 318.889629 97.866585 
L 319.067593 98.017563 
L 319.167157 98.132981 
L 319.168721 98.05338 
L 319.473082 97.494377 
L 319.643219 97.877385 
L 319.729215 97.717074 
L 319.815041 97.47612 
L 319.870955 97.592208 
L 320.175712 97.38632 
L 320.189611 97.502655 
L 320.278357 97.421988 
L 320.558995 97.341256 
L 320.670025 97.493499 
L 320.862424 97.286485 
L 320.864241 97.403302 
L 320.98503 97.907826 
L 321.044243 97.826763 
L 321.233071 97.583176 
L 321.24561 97.501847 
L 321.287578 97.736906 
L 321.334068 97.655539 
L 321.45788 97.574106 
L 321.479816 97.691811 
L 321.996228 99.111853 
L 322.037397 99.030551 
L 322.249945 99.14954 
L 322.254401 99.068185 
L 322.390214 98.905275 
L 322.480853 99.181464 
L 322.48527 99.099887 
L 322.745798 99.018242 
L 322.81148 99.13772 
L 322.857123 99.056022 
L 322.985656 99.295308 
L 323.017502 99.4151 
L 323.057352 99.333382 
L 323.128998 99.251596 
L 323.418754 99.529861 
L 323.450583 99.770442 
L 323.459329 99.688599 
L 323.701018 100.089186 
L 323.722126 100.210063 
L 323.795468 100.046198 
L 324.228551 100.167209 
L 324.281745 100.409536 
L 324.316058 100.327549 
L 324.349781 100.245494 
L 324.408153 100.366843 
L 324.456526 100.609847 
L 324.511634 100.445629 
L 324.560374 100.281134 
L 324.77102 100.116362 
L 324.782548 100.033871 
L 324.842397 100.277518 
L 324.856467 100.194991 
L 325.183634 99.781309 
L 325.225149 99.903386 
L 325.247997 99.820456 
L 325.366317 99.737456 
L 325.375192 99.85967 
L 325.505878 100.104409 
L 325.562606 100.021388 
L 325.766983 99.811208 
L 325.769279 99.933921 
L 325.811794 100.056739 
L 325.866035 99.890021 
L 325.988968 99.723017 
L 326.001319 99.846007 
L 326.109523 99.969102 
L 326.30828 99.885527 
L 326.434047 100.132066 
L 326.451591 100.048454 
L 326.648753 99.797188 
L 326.706148 99.96042 
L 326.798655 100.207975 
L 326.802258 100.124073 
L 326.921796 100.248027 
L 327.147279 100.204135 
L 327.314579 100.493028 
L 327.366877 100.408923 
L 327.403045 100.533481 
L 327.455446 100.907799 
L 327.598849 100.739511 
L 327.600045 100.655258 
L 327.733709 100.570932 
L 327.747327 100.695991 
L 327.916126 100.527155 
L 327.957292 100.652358 
L 328.014689 100.56475 
L 328.087573 100.816058 
L 328.122545 100.857161 
L 328.150172 100.687511 
L 328.418976 100.895945 
L 328.42632 100.810914 
L 328.469372 100.937279 
L 328.487 100.852192 
L 328.645621 100.767031 
L 328.670256 100.893543 
L 328.685157 100.808325 
L 328.906899 101.103341 
L 328.951829 101.230333 
L 328.987765 101.05967 
L 328.992059 100.974226 
L 329.022178 101.101384 
L 329.471718 100.842122 
L 329.871708 101.139413 
L 329.908446 101.053476 
L 330.004207 100.881373 
L 330.060788 100.965188 
L 330.071555 101.093469 
L 330.60058 101.520492 
L 330.667259 101.476697 
L 330.806709 102.427977 
L 331.314089 102.820948 
L 331.410512 102.734299 
L 331.637773 103.040749 
L 331.643835 103.303457 
L 331.737643 103.216752 
L 331.978806 103.65697 
L 331.996615 103.57019 
L 332.034965 103.834447 
L 332.132932 103.660733 
L 332.419214 103.92555 
L 332.705063 103.710014 
L 332.724431 103.842806 
L 332.916282 103.755597 
L 333.095797 104.021585 
L 333.196316 104.555016 
L 333.226767 104.822461 
L 333.279062 104.694834 
L 333.395506 104.607497 
L 333.554867 104.741611 
L 333.577153 104.654215 
L 333.733635 105.59661 
L 333.888603 105.421881 
L 333.890948 105.557048 
L 334.239303 106.147397 
L 334.302048 106.059964 
L 334.547576 106.293248 
L 334.604491 106.20564 
L 334.650431 106.117951 
L 334.673561 106.254379 
L 334.693061 106.390933 
L 334.968034 106.66442 
L 335.082348 106.801354 
L 335.26257 106.713697 
L 335.2837 106.850781 
L 335.367261 106.67527 
L 335.371035 106.812527 
L 335.388654 106.724672 
L 335.43798 106.999616 
L 335.472916 107.13728 
L 335.545792 107.049412 
L 335.911309 107.614565 
L 336.0006 107.438372 
L 336.20977 107.57708 
L 336.414731 107.488883 
L 336.490669 107.766738 
L 336.746947 108.096339 
L 337.098632 108.707231 
L 337.139781 108.619026 
L 337.171679 108.530739 
L 337.351035 108.863654 
L 337.359495 108.775273 
L 337.378678 110.046563 
L 337.456112 109.870001 
L 337.655971 110.15409 
L 337.680128 110.065734 
L 337.829956 109.88877 
L 338.104898 110.084997 
L 338.204406 109.996355 
L 338.327123 110.424707 
L 338.37493 110.390434 
L 338.412857 110.301641 
L 338.420598 110.444913 
L 338.427847 110.356061 
L 338.732049 110.643072 
L 338.855005 110.930634 
L 339.358857 111.651963 
L 339.40879 111.563264 
L 339.490071 112.142942 
L 339.630406 112.054267 
L 340.22797 113.600037 
L 340.294238 114.042229 
L 340.310734 113.953572 
L 340.493732 114.101286 
L 340.500774 114.397148 
L 340.546818 114.308491 
L 340.697771 114.456668 
L 340.777281 114.367953 
L 340.996826 115.708365 
L 341.117183 116.007847 
L 341.178176 115.830809 
L 341.347309 115.653422 
L 341.36948 115.953736 
L 341.53108 116.165941 
L 341.684374 116.618512 
L 341.824482 116.769668 
L 341.93645 116.592245 
L 341.965511 116.743612 
L 342.095011 117.198618 
L 342.193801 117.654982 
L 342.337197 117.959982 
L 342.510118 118.11271 
L 342.527855 118.024181 
L 342.534266 117.935564 
L 342.55054 118.241606 
L 342.596465 118.152965 
L 342.627907 118.306247 
L 342.705799 118.21755 
L 343.024429 117.950924 
L 343.04373 118.015469 
L 343.194784 118.323126 
L 343.237869 118.631402 
L 343.374845 118.785772 
L 343.420634 118.696825 
L 343.424631 118.607789 
L 343.485378 119.07203 
L 343.648802 119.293344 
L 343.667356 119.204294 
L 343.739708 119.359733 
L 343.76209 119.270627 
L 343.876908 119.582044 
L 343.888042 119.894092 
L 343.992832 119.783 
L 344.954863 123.301348 
L 345.317819 123.462104 
L 345.396082 123.695359 
L 345.525239 123.606513 
L 345.71515 124.488284 
L 345.729649 124.39948 
L 345.77458 124.561891 
L 345.814435 124.473033 
L 345.822061 124.63565 
L 345.997768 124.961392 
L 346.494239 127.260696 
L 346.606521 127.084042 
L 346.607471 126.995575 
L 346.666792 127.327046 
L 346.797299 127.149997 
L 346.929326 127.98214 
L 346.981105 128.149095 
L 346.994985 128.060677 
L 347.150278 127.972166 
L 347.203203 128.306772 
L 347.318119 128.218251 
L 347.440486 128.80131 
L 347.441067 128.712769 
L 347.57352 128.624134 
L 347.654392 128.872567 
L 347.694108 129.210446 
L 347.86154 129.121793 
L 348.024473 129.881331 
L 348.032854 129.792705 
L 348.064899 129.703984 
L 348.259923 130.215396 
L 348.273447 130.126712 
L 348.465467 129.949057 
L 348.748201 130.634033 
L 348.784929 130.977628 
L 348.947645 130.888924 
L 348.953445 131.061043 
L 348.972357 130.883438 
L 349.000892 131.055833 
L 349.295189 130.966932 
L 349.388937 131.312372 
L 349.477454 131.223465 
L 349.592318 131.045363 
L 350.127948 133.30769 
L 350.830858 136.86823 
L 350.986116 137.140825 
L 351.147036 138.045564 
L 351.418407 138.503346 
L 351.431219 138.415771 
L 351.684315 138.963172 
L 351.869335 139.695897 
L 352.732722 142.300022 
L 352.754457 142.213355 
L 352.759245 142.400341 
L 353.034986 142.876033 
L 353.036602 143.063924 
L 353.045387 142.977346 
L 353.183762 142.89067 
L 353.369506 144.126349 
L 353.536889 144.316133 
L 353.55274 144.506133 
L 353.769399 144.333339 
L 353.776342 144.523676 
L 353.901766 145.287203 
L 354.01991 145.670281 
L 354.023477 145.584155 
L 354.137477 146.846513 
L 354.219089 147.233824 
L 354.419849 148.011137 
L 354.538455 148.511159 
L 354.702279 148.928174 
L 355.494678 151.131326 
L 355.584284 151.730086 
L 355.777557 152.246526 
L 355.888534 153.253057 
L 356.139911 154.385004 
L 356.271823 154.301136 
L 356.648978 155.321572 
L 356.802339 156.67733 
L 356.866562 156.594132 
L 356.923962 157.214922 
L 356.981762 157.464073 
L 357.11224 158.006152 
L 357.337692 159.180824 
L 357.523535 159.813089 
L 357.63217 160.87199 
L 358.104298 162.069666 
L 358.236992 164.440276 
L 358.317749 165.011906 
L 358.526774 166.024396 
L 358.591596 165.863806 
L 358.757193 167.628231 
L 358.899936 168.072086 
L 359.782029 174.557509 
L 360.062501 175.252259 
L 360.272851 176.7313 
L 360.684727 177.435599 
L 360.847482 178.066872 
L 361.39456 180.699717 
L 361.484724 180.624846 
L 361.607999 181.588788 
L 361.675624 181.514254 
L 361.749612 181.364892 
L 361.866768 182.092147 
L 361.940577 182.578574 
L 362.091618 184.291168 
L 362.154084 184.144092 
L 362.325609 184.810254 
L 362.384721 185.305119 
L 362.41545 185.158608 
L 362.867475 187.834473 
L 362.870914 188.086414 
L 362.984242 188.014335 
L 363.159576 188.266734 
L 363.423836 190.99492 
L 363.538743 190.924125 
L 363.669877 191.43799 
L 363.845832 193.247529 
L 364.08447 193.507442 
L 364.2417 194.550644 
L 364.407468 195.599558 
L 364.538411 195.862684 
L 364.604196 196.918804 
L 364.736739 197.449044 
L 364.90546 199.04855 
L 365.004199 198.981755 
L 365.128366 199.518152 
L 365.252035 200.056036 
L 365.428827 201.950429 
L 365.67202 203.524497 
L 365.832515 204.285263 
L 365.847287 204.221067 
L 366.013874 205.050313 
L 366.142778 206.440198 
L 366.39114 206.998904 
L 366.442315 206.936128 
L 366.5636 210.323719 
L 366.701667 210.60864 
L 366.705324 210.893968 
L 366.853964 211.179704 
L 366.85853 211.465849 
L 367.114839 212.266896 
L 367.274839 212.843218 
L 367.356133 213.132001 
L 367.414266 214.000848 
L 367.689151 214.873462 
L 367.835249 215.749868 
L 368.090217 216.630089 
L 368.120066 216.924349 
L 368.285439 217.219036 
L 368.368038 217.809697 
L 368.519083 218.996193 
L 368.640251 219.890621 
L 368.769759 219.835123 
L 369.248705 224.369545 
L 369.559954 225.288539 
L 369.564629 225.59578 
L 369.730918 225.903478 
L 369.747937 226.520247 
L 370.057708 226.82932 
L 370.659462 229.631831 
L 370.673319 229.945558 
L 370.750774 229.896191 
L 370.91947 230.210588 
L 371.104286 232.106931 
L 371.234676 232.742867 
L 371.270913 233.700385 
L 371.592276 234.615884 
L 371.677854 235.259995 
L 371.764087 235.213962 
L 372.028129 236.508933 
L 372.09484 237.811842 
L 372.231133 238.466296 
L 372.489324 239.408451 
L 372.693368 239.738169 
L 372.796698 241.062136 
L 373.044939 241.394407 
L 373.163442 242.394313 
L 373.228986 242.311539 
L 373.463747 242.64633 
L 373.501406 242.981642 
L 373.555746 242.940616 
L 373.695172 242.899525 
L 374.261903 244.925181 
L 374.438995 245.264641 
L 374.456155 245.225114 
L 374.806455 245.565341 
L 375.069925 247.274516 
L 375.38363 248.651577 
L 375.946483 251.782007 
L 375.946664 252.483755 
L 376.03829 252.449292 
L 376.20536 253.153788 
L 376.296315 253.119777 
L 376.529828 253.473125 
L 376.555626 254.181519 
L 376.854774 255.605142 
L 377.044234 255.96248 
L 377.121491 257.397597 
L 377.355522 257.366657 
L 377.484962 259.538403 
L 377.806664 259.902419 
L 378.256127 261.336409 
L 378.257434 262.071542 
L 378.545299 262.44001 
L 378.655311 264.663536 
L 378.761367 265.783541 
L 378.971091 266.158107 
L 379.205199 269.557201 
L 379.458979 269.938018 
L 379.528014 271.084276 
L 379.80075 271.851637 
L 379.886269 272.236279 
L 380.522249 273.007495 
L 380.582338 273.781297 
L 380.798042 274.557697 
L 381.254447 277.295754 
L 381.592597 277.68955 
L 381.734465 278.084013 
L 382.205659 278.479144 
L 382.402804 279.271415 
L 382.670867 279.257468 
L 383.135924 279.641294 
L 383.187723 280.039767 
L 383.636428 280.838753 
L 383.716687 281.640467 
L 384.654197 282.433576 
L 384.982557 282.837174 
L 385.166107 283.241464 
L 385.981878 284.052128 
L 386.828668 286.091029 
L 386.976944 286.500922 
L 387.04733 287.73486 
L 387.371662 288.147598 
L 387.396633 288.561053 
L 387.593077 288.975225 
L 387.643677 289.390116 
L 388.558438 290.222066 
L 388.859562 290.639128 
L 389.286124 291.894685 
L 391.309767 292.314668 
L 391.357831 292.735385 
L 391.533716 293.156839 
L 392.62621 293.579032 
L 394.99452 294.001965 
L 395.629572 294.425642 
L 398.487273 295.27523 
L 398.487273 295.27523 
" style="fill:none;stroke:#2ca02c;stroke-dasharray:1.5,2.475;stroke-dashoffset:0;stroke-width:1.5;"/>
   </g>
   <g id="line2d_18">
    <defs>
     <path d="M 0 1.5 
C 0.397805 1.5 0.77937 1.341951 1.06066 1.06066 
C 1.341951 0.77937 1.5 0.397805 1.5 0 
C 1.5 -0.397805 1.341951 -0.77937 1.06066 -1.06066 
C 0.77937 -1.341951 0.397805 -1.5 0 -1.5 
C -0.397805 -1.5 -0.77937 -1.341951 -1.06066 -1.06066 
C -1.341951 -0.77937 -1.5 -0.397805 -1.5 0 
C -1.5 0.397805 -1.341951 0.77937 -1.06066 1.06066 
C -0.77937 1.341951 -0.397805 1.5 0 1.5 
z
" id="m033ae69b98" style="stroke:#008000;"/>
    </defs>
    <g clip-path="url(#p943143b503)">
     <use style="fill:#008000;stroke:#008000;" x="316.038858" xlink:href="#m033ae69b98" y="96.998231"/>
    </g>
   </g>
   <g id="patch_3">
    <path d="M 57.6 307.584 
L 57.6 41.472 
" style="fill:none;stroke:#000000;stroke-linecap:square;stroke-linejoin:miter;stroke-width:0.8;"/>
   </g>
   <g id="patch_4">
    <path d="M 414.72 307.584 
L 414.72 41.472 
" style="fill:none;stroke:#000000;stroke-linecap:square;stroke-linejoin:miter;stroke-width:0.8;"/>
   </g>
   <g id="patch_5">
    <path d="M 57.6 307.584 
L 414.72 307.584 
" style="fill:none;stroke:#000000;stroke-linecap:square;stroke-linejoin:miter;stroke-width:0.8;"/>
   </g>
   <g id="patch_6">
    <path d="M 57.6 41.472 
L 414.72 41.472 
" style="fill:none;stroke:#000000;stroke-linecap:square;stroke-linejoin:miter;stroke-width:0.8;"/>
   </g>
   <g id="text_17">
    <!-- (2.54 0.82) -->
    <g style="fill:#008000;" transform="translate(272.058061 96.998231)scale(0.1 -0.1)">
     <defs>
      <path d="M 1984 4856 
Q 1566 4138 1362 3434 
Q 1159 2731 1159 2009 
Q 1159 1288 1364 580 
Q 1569 -128 1984 -844 
L 1484 -844 
Q 1016 -109 783 600 
Q 550 1309 550 2009 
Q 550 2706 781 3412 
Q 1013 4119 1484 4856 
L 1984 4856 
z
" id="DejaVuSans-28" transform="scale(0.015625)"/>
      <path id="DejaVuSans-20" transform="scale(0.015625)"/>
      <path d="M 513 4856 
L 1013 4856 
Q 1481 4119 1714 3412 
Q 1947 2706 1947 2009 
Q 1947 1309 1714 600 
Q 1481 -109 1013 -844 
L 513 -844 
Q 928 -128 1133 580 
Q 1338 1288 1338 2009 
Q 1338 2731 1133 3434 
Q 928 4138 513 4856 
z
" id="DejaVuSans-29" transform="scale(0.015625)"/>
     </defs>
     <use xlink:href="#DejaVuSans-28"/>
     <use x="39.013672" xlink:href="#DejaVuSans-32"/>
     <use x="102.636719" xlink:href="#DejaVuSans-2e"/>
     <use x="134.423828" xlink:href="#DejaVuSans-35"/>
     <use x="198.046875" xlink:href="#DejaVuSans-34"/>
     <use x="261.669922" xlink:href="#DejaVuSans-20"/>
     <use x="293.457031" xlink:href="#DejaVuSans-30"/>
     <use x="357.080078" xlink:href="#DejaVuSans-2e"/>
     <use x="388.867188" xlink:href="#DejaVuSans-38"/>
     <use x="452.490234" xlink:href="#DejaVuSans-32"/>
     <use x="516.113281" xlink:href="#DejaVuSans-29"/>
    </g>
   </g>
   <g id="legend_1">
    <g id="patch_7">
     <path d="M 64.6 302.584 
L 141.214063 302.584 
Q 143.214063 302.584 143.214063 300.584 
L 143.214063 257.549625 
Q 143.214063 255.549625 141.214063 255.549625 
L 64.6 255.549625 
Q 62.6 255.549625 62.6 257.549625 
L 62.6 300.584 
Q 62.6 302.584 64.6 302.584 
z
" style="fill:#ffffff;opacity:0.8;stroke:#cccccc;stroke-linejoin:miter;"/>
    </g>
    <g id="line2d_19">
     <path d="M 66.6 263.648062 
L 86.6 263.648062 
" style="fill:none;stroke:#1f77b4;stroke-dasharray:5.55,2.4;stroke-dashoffset:0;stroke-width:1.5;"/>
    </g>
    <g id="line2d_20"/>
    <g id="text_18">
     <!-- Precision -->
     <g transform="translate(94.6 267.148062)scale(0.1 -0.1)">
      <defs>
       <path d="M 1259 4147 
L 1259 2394 
L 2053 2394 
Q 2494 2394 2734 2622 
Q 2975 2850 2975 3272 
Q 2975 3691 2734 3919 
Q 2494 4147 2053 4147 
L 1259 4147 
z
M 628 4666 
L 2053 4666 
Q 2838 4666 3239 4311 
Q 3641 3956 3641 3272 
Q 3641 2581 3239 2228 
Q 2838 1875 2053 1875 
L 1259 1875 
L 1259 0 
L 628 0 
L 628 4666 
z
" id="DejaVuSans-50" transform="scale(0.015625)"/>
       <path d="M 3513 2113 
L 3513 0 
L 2938 0 
L 2938 2094 
Q 2938 2591 2744 2837 
Q 2550 3084 2163 3084 
Q 1697 3084 1428 2787 
Q 1159 2491 1159 1978 
L 1159 0 
L 581 0 
L 581 3500 
L 1159 3500 
L 1159 2956 
Q 1366 3272 1645 3428 
Q 1925 3584 2291 3584 
Q 2894 3584 3203 3211 
Q 3513 2838 3513 2113 
z
" id="DejaVuSans-6e" transform="scale(0.015625)"/>
      </defs>
      <use xlink:href="#DejaVuSans-50"/>
      <use x="58.552734" xlink:href="#DejaVuSans-72"/>
      <use x="97.416016" xlink:href="#DejaVuSans-65"/>
      <use x="158.939453" xlink:href="#DejaVuSans-63"/>
      <use x="213.919922" xlink:href="#DejaVuSans-69"/>
      <use x="241.703125" xlink:href="#DejaVuSans-73"/>
      <use x="293.802734" xlink:href="#DejaVuSans-69"/>
      <use x="321.585938" xlink:href="#DejaVuSans-6f"/>
      <use x="382.767578" xlink:href="#DejaVuSans-6e"/>
     </g>
    </g>
    <g id="line2d_21">
     <path d="M 66.6 278.326188 
L 86.6 278.326188 
" style="fill:none;stroke:#ff7f0e;stroke-dasharray:9.6,2.4,1.5,2.4;stroke-dashoffset:0;stroke-width:1.5;"/>
    </g>
    <g id="line2d_22"/>
    <g id="text_19">
     <!-- Recall -->
     <g transform="translate(94.6 281.826188)scale(0.1 -0.1)">
      <defs>
       <path d="M 2841 2188 
Q 3044 2119 3236 1894 
Q 3428 1669 3622 1275 
L 4263 0 
L 3584 0 
L 2988 1197 
Q 2756 1666 2539 1819 
Q 2322 1972 1947 1972 
L 1259 1972 
L 1259 0 
L 628 0 
L 628 4666 
L 2053 4666 
Q 2853 4666 3247 4331 
Q 3641 3997 3641 3322 
Q 3641 2881 3436 2590 
Q 3231 2300 2841 2188 
z
M 1259 4147 
L 1259 2491 
L 2053 2491 
Q 2509 2491 2742 2702 
Q 2975 2913 2975 3322 
Q 2975 3731 2742 3939 
Q 2509 4147 2053 4147 
L 1259 4147 
z
" id="DejaVuSans-52" transform="scale(0.015625)"/>
       <path d="M 2194 1759 
Q 1497 1759 1228 1600 
Q 959 1441 959 1056 
Q 959 750 1161 570 
Q 1363 391 1709 391 
Q 2188 391 2477 730 
Q 2766 1069 2766 1631 
L 2766 1759 
L 2194 1759 
z
M 3341 1997 
L 3341 0 
L 2766 0 
L 2766 531 
Q 2569 213 2275 61 
Q 1981 -91 1556 -91 
Q 1019 -91 701 211 
Q 384 513 384 1019 
Q 384 1609 779 1909 
Q 1175 2209 1959 2209 
L 2766 2209 
L 2766 2266 
Q 2766 2663 2505 2880 
Q 2244 3097 1772 3097 
Q 1472 3097 1187 3025 
Q 903 2953 641 2809 
L 641 3341 
Q 956 3463 1253 3523 
Q 1550 3584 1831 3584 
Q 2591 3584 2966 3190 
Q 3341 2797 3341 1997 
z
" id="DejaVuSans-61" transform="scale(0.015625)"/>
      </defs>
      <use xlink:href="#DejaVuSans-52"/>
      <use x="64.982422" xlink:href="#DejaVuSans-65"/>
      <use x="126.505859" xlink:href="#DejaVuSans-63"/>
      <use x="181.486328" xlink:href="#DejaVuSans-61"/>
      <use x="242.765625" xlink:href="#DejaVuSans-6c"/>
      <use x="270.548828" xlink:href="#DejaVuSans-6c"/>
     </g>
    </g>
    <g id="line2d_23">
     <path d="M 66.6 293.004312 
L 86.6 293.004312 
" style="fill:none;stroke:#2ca02c;stroke-dasharray:1.5,2.475;stroke-dashoffset:0;stroke-width:1.5;"/>
    </g>
    <g id="line2d_24"/>
    <g id="text_20">
     <!-- F1 score -->
     <g transform="translate(94.6 296.504312)scale(0.1 -0.1)">
      <defs>
       <path d="M 628 4666 
L 3309 4666 
L 3309 4134 
L 1259 4134 
L 1259 2759 
L 3109 2759 
L 3109 2228 
L 1259 2228 
L 1259 0 
L 628 0 
L 628 4666 
z
" id="DejaVuSans-46" transform="scale(0.015625)"/>
      </defs>
      <use xlink:href="#DejaVuSans-46"/>
      <use x="57.519531" xlink:href="#DejaVuSans-31"/>
      <use x="121.142578" xlink:href="#DejaVuSans-20"/>
      <use x="152.929688" xlink:href="#DejaVuSans-73"/>
      <use x="205.029297" xlink:href="#DejaVuSans-63"/>
      <use x="260.009766" xlink:href="#DejaVuSans-6f"/>
      <use x="321.191406" xlink:href="#DejaVuSans-72"/>
      <use x="360.054688" xlink:href="#DejaVuSans-65"/>
     </g>
    </g>
   </g>
  </g>
 </g>
 <defs>
  <clipPath id="p943143b503">
   <rect height="266.112" width="357.12" x="57.6" y="41.472"/>
  </clipPath>
 </defs>
</svg>
