<?xml version="1.0" encoding="utf-8" standalone="no"?>
<!DOCTYPE svg PUBLIC "-//W3C//DTD SVG 1.1//EN"
  "http://www.w3.org/Graphics/SVG/1.1/DTD/svg11.dtd">
<svg height="345.6pt" version="1.1" viewBox="0 0 460.8 345.6" width="460.8pt" xmlns="http://www.w3.org/2000/svg" xmlns:xlink="http://www.w3.org/1999/xlink">
 <metadata>
  <rdf:RDF xmlns:cc="http://creativecommons.org/ns#" xmlns:dc="http://purl.org/dc/elements/1.1/" xmlns:rdf="http://www.w3.org/1999/02/22-rdf-syntax-ns#">
   <cc:Work>
    <dc:type rdf:resource="http://purl.org/dc/dcmitype/StillImage"/>
    <dc:date>2021-06-25T19:01:29.108266</dc:date>
    <dc:format>image/svg+xml</dc:format>
    <dc:creator>
     <cc:Agent>
      <dc:title>Matplotlib v3.4.2, https://matplotlib.org/</dc:title>
     </cc:Agent>
    </dc:creator>
   </cc:Work>
  </rdf:RDF>
 </metadata>
 <defs>
  <style type="text/css">*{stroke-linecap:butt;stroke-linejoin:round;}</style>
 </defs>
 <g id="figure_1">
  <g id="patch_1">
   <path d="M 0 345.6 
L 460.8 345.6 
L 460.8 0 
L 0 0 
z
" style="fill:#ffffff;"/>
  </g>
  <g id="axes_1">
   <g id="patch_2">
    <path d="M 57.6 307.584 
L 414.72 307.584 
L 414.72 41.472 
L 57.6 41.472 
z
" style="fill:#ffffff;"/>
   </g>
   <g id="matplotlib.axis_1">
    <g id="xtick_1">
     <g id="line2d_1">
      <defs>
       <path d="M 0 0 
L 0 3.5 
" id="m154ab323dc" style="stroke:#000000;stroke-width:0.8;"/>
      </defs>
      <g>
       <use style="stroke:#000000;stroke-width:0.8;" x="105.738174" xlink:href="#m154ab323dc" y="307.584"/>
      </g>
     </g>
     <g id="text_1">
      <!-- −2 -->
      <g transform="translate(98.36708 322.182437)scale(0.1 -0.1)">
       <defs>
        <path d="M 678 2272 
L 4684 2272 
L 4684 1741 
L 678 1741 
L 678 2272 
z
" id="DejaVuSans-2212" transform="scale(0.015625)"/>
        <path d="M 1228 531 
L 3431 531 
L 3431 0 
L 469 0 
L 469 531 
Q 828 903 1448 1529 
Q 2069 2156 2228 2338 
Q 2531 2678 2651 2914 
Q 2772 3150 2772 3378 
Q 2772 3750 2511 3984 
Q 2250 4219 1831 4219 
Q 1534 4219 1204 4116 
Q 875 4013 500 3803 
L 500 4441 
Q 881 4594 1212 4672 
Q 1544 4750 1819 4750 
Q 2544 4750 2975 4387 
Q 3406 4025 3406 3419 
Q 3406 3131 3298 2873 
Q 3191 2616 2906 2266 
Q 2828 2175 2409 1742 
Q 1991 1309 1228 531 
z
" id="DejaVuSans-32" transform="scale(0.015625)"/>
       </defs>
       <use xlink:href="#DejaVuSans-2212"/>
       <use x="83.789062" xlink:href="#DejaVuSans-32"/>
      </g>
     </g>
    </g>
    <g id="xtick_2">
     <g id="line2d_2">
      <g>
       <use style="stroke:#000000;stroke-width:0.8;" x="170.339577" xlink:href="#m154ab323dc" y="307.584"/>
      </g>
     </g>
     <g id="text_2">
      <!-- 0 -->
      <g transform="translate(167.158327 322.182437)scale(0.1 -0.1)">
       <defs>
        <path d="M 2034 4250 
Q 1547 4250 1301 3770 
Q 1056 3291 1056 2328 
Q 1056 1369 1301 889 
Q 1547 409 2034 409 
Q 2525 409 2770 889 
Q 3016 1369 3016 2328 
Q 3016 3291 2770 3770 
Q 2525 4250 2034 4250 
z
M 2034 4750 
Q 2819 4750 3233 4129 
Q 3647 3509 3647 2328 
Q 3647 1150 3233 529 
Q 2819 -91 2034 -91 
Q 1250 -91 836 529 
Q 422 1150 422 2328 
Q 422 3509 836 4129 
Q 1250 4750 2034 4750 
z
" id="DejaVuSans-30" transform="scale(0.015625)"/>
       </defs>
       <use xlink:href="#DejaVuSans-30"/>
      </g>
     </g>
    </g>
    <g id="xtick_3">
     <g id="line2d_3">
      <g>
       <use style="stroke:#000000;stroke-width:0.8;" x="234.940979" xlink:href="#m154ab323dc" y="307.584"/>
      </g>
     </g>
     <g id="text_3">
      <!-- 2 -->
      <g transform="translate(231.759729 322.182437)scale(0.1 -0.1)">
       <use xlink:href="#DejaVuSans-32"/>
      </g>
     </g>
    </g>
    <g id="xtick_4">
     <g id="line2d_4">
      <g>
       <use style="stroke:#000000;stroke-width:0.8;" x="299.542382" xlink:href="#m154ab323dc" y="307.584"/>
      </g>
     </g>
     <g id="text_4">
      <!-- 4 -->
      <g transform="translate(296.361132 322.182437)scale(0.1 -0.1)">
       <defs>
        <path d="M 2419 4116 
L 825 1625 
L 2419 1625 
L 2419 4116 
z
M 2253 4666 
L 3047 4666 
L 3047 1625 
L 3713 1625 
L 3713 1100 
L 3047 1100 
L 3047 0 
L 2419 0 
L 2419 1100 
L 313 1100 
L 313 1709 
L 2253 4666 
z
" id="DejaVuSans-34" transform="scale(0.015625)"/>
       </defs>
       <use xlink:href="#DejaVuSans-34"/>
      </g>
     </g>
    </g>
    <g id="xtick_5">
     <g id="line2d_5">
      <g>
       <use style="stroke:#000000;stroke-width:0.8;" x="364.143784" xlink:href="#m154ab323dc" y="307.584"/>
      </g>
     </g>
     <g id="text_5">
      <!-- 6 -->
      <g transform="translate(360.962534 322.182437)scale(0.1 -0.1)">
       <defs>
        <path d="M 2113 2584 
Q 1688 2584 1439 2293 
Q 1191 2003 1191 1497 
Q 1191 994 1439 701 
Q 1688 409 2113 409 
Q 2538 409 2786 701 
Q 3034 994 3034 1497 
Q 3034 2003 2786 2293 
Q 2538 2584 2113 2584 
z
M 3366 4563 
L 3366 3988 
Q 3128 4100 2886 4159 
Q 2644 4219 2406 4219 
Q 1781 4219 1451 3797 
Q 1122 3375 1075 2522 
Q 1259 2794 1537 2939 
Q 1816 3084 2150 3084 
Q 2853 3084 3261 2657 
Q 3669 2231 3669 1497 
Q 3669 778 3244 343 
Q 2819 -91 2113 -91 
Q 1303 -91 875 529 
Q 447 1150 447 2328 
Q 447 3434 972 4092 
Q 1497 4750 2381 4750 
Q 2619 4750 2861 4703 
Q 3103 4656 3366 4563 
z
" id="DejaVuSans-36" transform="scale(0.015625)"/>
       </defs>
       <use xlink:href="#DejaVuSans-36"/>
      </g>
     </g>
    </g>
    <g id="text_6">
     <!-- Threshold -->
     <g transform="translate(211.521719 335.860562)scale(0.1 -0.1)">
      <defs>
       <path d="M -19 4666 
L 3928 4666 
L 3928 4134 
L 2272 4134 
L 2272 0 
L 1638 0 
L 1638 4134 
L -19 4134 
L -19 4666 
z
" id="DejaVuSans-54" transform="scale(0.015625)"/>
       <path d="M 3513 2113 
L 3513 0 
L 2938 0 
L 2938 2094 
Q 2938 2591 2744 2837 
Q 2550 3084 2163 3084 
Q 1697 3084 1428 2787 
Q 1159 2491 1159 1978 
L 1159 0 
L 581 0 
L 581 4863 
L 1159 4863 
L 1159 2956 
Q 1366 3272 1645 3428 
Q 1925 3584 2291 3584 
Q 2894 3584 3203 3211 
Q 3513 2838 3513 2113 
z
" id="DejaVuSans-68" transform="scale(0.015625)"/>
       <path d="M 2631 2963 
Q 2534 3019 2420 3045 
Q 2306 3072 2169 3072 
Q 1681 3072 1420 2755 
Q 1159 2438 1159 1844 
L 1159 0 
L 581 0 
L 581 3500 
L 1159 3500 
L 1159 2956 
Q 1341 3275 1631 3429 
Q 1922 3584 2338 3584 
Q 2397 3584 2469 3576 
Q 2541 3569 2628 3553 
L 2631 2963 
z
" id="DejaVuSans-72" transform="scale(0.015625)"/>
       <path d="M 3597 1894 
L 3597 1613 
L 953 1613 
Q 991 1019 1311 708 
Q 1631 397 2203 397 
Q 2534 397 2845 478 
Q 3156 559 3463 722 
L 3463 178 
Q 3153 47 2828 -22 
Q 2503 -91 2169 -91 
Q 1331 -91 842 396 
Q 353 884 353 1716 
Q 353 2575 817 3079 
Q 1281 3584 2069 3584 
Q 2775 3584 3186 3129 
Q 3597 2675 3597 1894 
z
M 3022 2063 
Q 3016 2534 2758 2815 
Q 2500 3097 2075 3097 
Q 1594 3097 1305 2825 
Q 1016 2553 972 2059 
L 3022 2063 
z
" id="DejaVuSans-65" transform="scale(0.015625)"/>
       <path d="M 2834 3397 
L 2834 2853 
Q 2591 2978 2328 3040 
Q 2066 3103 1784 3103 
Q 1356 3103 1142 2972 
Q 928 2841 928 2578 
Q 928 2378 1081 2264 
Q 1234 2150 1697 2047 
L 1894 2003 
Q 2506 1872 2764 1633 
Q 3022 1394 3022 966 
Q 3022 478 2636 193 
Q 2250 -91 1575 -91 
Q 1294 -91 989 -36 
Q 684 19 347 128 
L 347 722 
Q 666 556 975 473 
Q 1284 391 1588 391 
Q 1994 391 2212 530 
Q 2431 669 2431 922 
Q 2431 1156 2273 1281 
Q 2116 1406 1581 1522 
L 1381 1569 
Q 847 1681 609 1914 
Q 372 2147 372 2553 
Q 372 3047 722 3315 
Q 1072 3584 1716 3584 
Q 2034 3584 2315 3537 
Q 2597 3491 2834 3397 
z
" id="DejaVuSans-73" transform="scale(0.015625)"/>
       <path d="M 1959 3097 
Q 1497 3097 1228 2736 
Q 959 2375 959 1747 
Q 959 1119 1226 758 
Q 1494 397 1959 397 
Q 2419 397 2687 759 
Q 2956 1122 2956 1747 
Q 2956 2369 2687 2733 
Q 2419 3097 1959 3097 
z
M 1959 3584 
Q 2709 3584 3137 3096 
Q 3566 2609 3566 1747 
Q 3566 888 3137 398 
Q 2709 -91 1959 -91 
Q 1206 -91 779 398 
Q 353 888 353 1747 
Q 353 2609 779 3096 
Q 1206 3584 1959 3584 
z
" id="DejaVuSans-6f" transform="scale(0.015625)"/>
       <path d="M 603 4863 
L 1178 4863 
L 1178 0 
L 603 0 
L 603 4863 
z
" id="DejaVuSans-6c" transform="scale(0.015625)"/>
       <path d="M 2906 2969 
L 2906 4863 
L 3481 4863 
L 3481 0 
L 2906 0 
L 2906 525 
Q 2725 213 2448 61 
Q 2172 -91 1784 -91 
Q 1150 -91 751 415 
Q 353 922 353 1747 
Q 353 2572 751 3078 
Q 1150 3584 1784 3584 
Q 2172 3584 2448 3432 
Q 2725 3281 2906 2969 
z
M 947 1747 
Q 947 1113 1208 752 
Q 1469 391 1925 391 
Q 2381 391 2643 752 
Q 2906 1113 2906 1747 
Q 2906 2381 2643 2742 
Q 2381 3103 1925 3103 
Q 1469 3103 1208 2742 
Q 947 2381 947 1747 
z
" id="DejaVuSans-64" transform="scale(0.015625)"/>
      </defs>
      <use xlink:href="#DejaVuSans-54"/>
      <use x="61.083984" xlink:href="#DejaVuSans-68"/>
      <use x="124.462891" xlink:href="#DejaVuSans-72"/>
      <use x="163.326172" xlink:href="#DejaVuSans-65"/>
      <use x="224.849609" xlink:href="#DejaVuSans-73"/>
      <use x="276.949219" xlink:href="#DejaVuSans-68"/>
      <use x="340.328125" xlink:href="#DejaVuSans-6f"/>
      <use x="401.509766" xlink:href="#DejaVuSans-6c"/>
      <use x="429.292969" xlink:href="#DejaVuSans-64"/>
     </g>
    </g>
   </g>
   <g id="matplotlib.axis_2">
    <g id="ytick_1">
     <g id="line2d_6">
      <defs>
       <path d="M 0 0 
L -3.5 0 
" id="m7f9f590c5d" style="stroke:#000000;stroke-width:0.8;"/>
      </defs>
      <g>
       <use style="stroke:#000000;stroke-width:0.8;" x="57.6" xlink:href="#m7f9f590c5d" y="298.72511"/>
      </g>
     </g>
     <g id="text_7">
      <!-- 0.0 -->
      <g transform="translate(34.696875 302.524328)scale(0.1 -0.1)">
       <defs>
        <path d="M 684 794 
L 1344 794 
L 1344 0 
L 684 0 
L 684 794 
z
" id="DejaVuSans-2e" transform="scale(0.015625)"/>
       </defs>
       <use xlink:href="#DejaVuSans-30"/>
       <use x="63.623047" xlink:href="#DejaVuSans-2e"/>
       <use x="95.410156" xlink:href="#DejaVuSans-30"/>
      </g>
     </g>
    </g>
    <g id="ytick_2">
     <g id="line2d_7">
      <g>
       <use style="stroke:#000000;stroke-width:0.8;" x="57.6" xlink:href="#m7f9f590c5d" y="249.693688"/>
      </g>
     </g>
     <g id="text_8">
      <!-- 0.2 -->
      <g transform="translate(34.696875 253.492907)scale(0.1 -0.1)">
       <use xlink:href="#DejaVuSans-30"/>
       <use x="63.623047" xlink:href="#DejaVuSans-2e"/>
       <use x="95.410156" xlink:href="#DejaVuSans-32"/>
      </g>
     </g>
    </g>
    <g id="ytick_3">
     <g id="line2d_8">
      <g>
       <use style="stroke:#000000;stroke-width:0.8;" x="57.6" xlink:href="#m7f9f590c5d" y="200.662266"/>
      </g>
     </g>
     <g id="text_9">
      <!-- 0.4 -->
      <g transform="translate(34.696875 204.461485)scale(0.1 -0.1)">
       <use xlink:href="#DejaVuSans-30"/>
       <use x="63.623047" xlink:href="#DejaVuSans-2e"/>
       <use x="95.410156" xlink:href="#DejaVuSans-34"/>
      </g>
     </g>
    </g>
    <g id="ytick_4">
     <g id="line2d_9">
      <g>
       <use style="stroke:#000000;stroke-width:0.8;" x="57.6" xlink:href="#m7f9f590c5d" y="151.630844"/>
      </g>
     </g>
     <g id="text_10">
      <!-- 0.6 -->
      <g transform="translate(34.696875 155.430063)scale(0.1 -0.1)">
       <use xlink:href="#DejaVuSans-30"/>
       <use x="63.623047" xlink:href="#DejaVuSans-2e"/>
       <use x="95.410156" xlink:href="#DejaVuSans-36"/>
      </g>
     </g>
    </g>
    <g id="ytick_5">
     <g id="line2d_10">
      <g>
       <use style="stroke:#000000;stroke-width:0.8;" x="57.6" xlink:href="#m7f9f590c5d" y="102.599422"/>
      </g>
     </g>
     <g id="text_11">
      <!-- 0.8 -->
      <g transform="translate(34.696875 106.398641)scale(0.1 -0.1)">
       <defs>
        <path d="M 2034 2216 
Q 1584 2216 1326 1975 
Q 1069 1734 1069 1313 
Q 1069 891 1326 650 
Q 1584 409 2034 409 
Q 2484 409 2743 651 
Q 3003 894 3003 1313 
Q 3003 1734 2745 1975 
Q 2488 2216 2034 2216 
z
M 1403 2484 
Q 997 2584 770 2862 
Q 544 3141 544 3541 
Q 544 4100 942 4425 
Q 1341 4750 2034 4750 
Q 2731 4750 3128 4425 
Q 3525 4100 3525 3541 
Q 3525 3141 3298 2862 
Q 3072 2584 2669 2484 
Q 3125 2378 3379 2068 
Q 3634 1759 3634 1313 
Q 3634 634 3220 271 
Q 2806 -91 2034 -91 
Q 1263 -91 848 271 
Q 434 634 434 1313 
Q 434 1759 690 2068 
Q 947 2378 1403 2484 
z
M 1172 3481 
Q 1172 3119 1398 2916 
Q 1625 2713 2034 2713 
Q 2441 2713 2670 2916 
Q 2900 3119 2900 3481 
Q 2900 3844 2670 4047 
Q 2441 4250 2034 4250 
Q 1625 4250 1398 4047 
Q 1172 3844 1172 3481 
z
" id="DejaVuSans-38" transform="scale(0.015625)"/>
       </defs>
       <use xlink:href="#DejaVuSans-30"/>
       <use x="63.623047" xlink:href="#DejaVuSans-2e"/>
       <use x="95.410156" xlink:href="#DejaVuSans-38"/>
      </g>
     </g>
    </g>
    <g id="ytick_6">
     <g id="line2d_11">
      <g>
       <use style="stroke:#000000;stroke-width:0.8;" x="57.6" xlink:href="#m7f9f590c5d" y="53.568"/>
      </g>
     </g>
     <g id="text_12">
      <!-- 1.0 -->
      <g transform="translate(34.696875 57.367219)scale(0.1 -0.1)">
       <defs>
        <path d="M 794 531 
L 1825 531 
L 1825 4091 
L 703 3866 
L 703 4441 
L 1819 4666 
L 2450 4666 
L 2450 531 
L 3481 531 
L 3481 0 
L 794 0 
L 794 531 
z
" id="DejaVuSans-31" transform="scale(0.015625)"/>
       </defs>
       <use xlink:href="#DejaVuSans-31"/>
       <use x="63.623047" xlink:href="#DejaVuSans-2e"/>
       <use x="95.410156" xlink:href="#DejaVuSans-30"/>
      </g>
     </g>
    </g>
    <g id="text_13">
     <!-- Metrics -->
     <g transform="translate(28.617187 192.677219)rotate(-90)scale(0.1 -0.1)">
      <defs>
       <path d="M 628 4666 
L 1569 4666 
L 2759 1491 
L 3956 4666 
L 4897 4666 
L 4897 0 
L 4281 0 
L 4281 4097 
L 3078 897 
L 2444 897 
L 1241 4097 
L 1241 0 
L 628 0 
L 628 4666 
z
" id="DejaVuSans-4d" transform="scale(0.015625)"/>
       <path d="M 1172 4494 
L 1172 3500 
L 2356 3500 
L 2356 3053 
L 1172 3053 
L 1172 1153 
Q 1172 725 1289 603 
Q 1406 481 1766 481 
L 2356 481 
L 2356 0 
L 1766 0 
Q 1100 0 847 248 
Q 594 497 594 1153 
L 594 3053 
L 172 3053 
L 172 3500 
L 594 3500 
L 594 4494 
L 1172 4494 
z
" id="DejaVuSans-74" transform="scale(0.015625)"/>
       <path d="M 603 3500 
L 1178 3500 
L 1178 0 
L 603 0 
L 603 3500 
z
M 603 4863 
L 1178 4863 
L 1178 4134 
L 603 4134 
L 603 4863 
z
" id="DejaVuSans-69" transform="scale(0.015625)"/>
       <path d="M 3122 3366 
L 3122 2828 
Q 2878 2963 2633 3030 
Q 2388 3097 2138 3097 
Q 1578 3097 1268 2742 
Q 959 2388 959 1747 
Q 959 1106 1268 751 
Q 1578 397 2138 397 
Q 2388 397 2633 464 
Q 2878 531 3122 666 
L 3122 134 
Q 2881 22 2623 -34 
Q 2366 -91 2075 -91 
Q 1284 -91 818 406 
Q 353 903 353 1747 
Q 353 2603 823 3093 
Q 1294 3584 2113 3584 
Q 2378 3584 2631 3529 
Q 2884 3475 3122 3366 
z
" id="DejaVuSans-63" transform="scale(0.015625)"/>
      </defs>
      <use xlink:href="#DejaVuSans-4d"/>
      <use x="86.279297" xlink:href="#DejaVuSans-65"/>
      <use x="147.802734" xlink:href="#DejaVuSans-74"/>
      <use x="187.011719" xlink:href="#DejaVuSans-72"/>
      <use x="228.125" xlink:href="#DejaVuSans-69"/>
      <use x="255.908203" xlink:href="#DejaVuSans-63"/>
      <use x="310.888672" xlink:href="#DejaVuSans-73"/>
     </g>
    </g>
   </g>
   <g id="line2d_12">
    <path clip-path="url(#p0975a7e349)" d="M 73.832727 53.568 
L 73.861239 53.783807 
L 108.369743 53.783807 
L 108.510816 53.999615 
L 110.703164 53.999615 
L 111.331282 54.215422 
L 112.407235 54.431229 
L 120.876536 54.431229 
L 121.079775 54.862844 
L 123.997618 54.862844 
L 124.238097 55.078651 
L 161.986098 55.078651 
L 162.277108 55.294459 
L 162.652734 55.510266 
L 168.621909 55.510266 
L 168.859691 55.726073 
L 170.980842 55.726073 
L 171.05081 55.94188 
L 175.018362 55.94188 
L 175.085375 56.157688 
L 175.845438 56.157688 
L 175.921514 56.373495 
L 180.35676 56.373495 
L 180.389489 56.589302 
L 194.549113 56.589302 
L 194.753692 56.80511 
L 197.028316 56.80511 
L 197.556683 57.236724 
L 197.934457 57.452532 
L 200.806313 57.452532 
L 200.916893 57.668339 
L 201.478147 57.668339 
L 201.48737 57.884146 
L 202.703961 57.884146 
L 202.875292 58.099954 
L 205.070487 58.099954 
L 205.244982 58.315761 
L 205.535093 58.531568 
L 205.707522 58.747376 
L 207.065423 58.747376 
L 207.235677 58.963183 
L 208.229335 58.963183 
L 208.37474 59.17899 
L 209.600965 59.17899 
L 209.850841 59.394798 
L 209.922957 59.394798 
L 210.088955 59.610605 
L 210.626164 59.610605 
L 210.661237 59.826412 
L 210.810362 59.826412 
L 211.199487 60.042219 
L 211.822093 60.042219 
L 212.05504 60.258027 
L 213.016198 60.258027 
L 213.023406 60.473834 
L 214.270752 60.473834 
L 214.34205 60.689641 
L 214.60907 60.689641 
L 214.900672 60.905449 
L 216.101656 60.905449 
L 216.402148 61.337063 
L 217.829569 61.337063 
L 218.432391 61.768678 
L 219.028364 61.768678 
L 219.558612 61.984485 
L 220.634335 61.984485 
L 220.64453 62.200293 
L 221.003577 62.200293 
L 221.132099 62.4161 
L 221.638487 62.4161 
L 221.823179 62.847715 
L 222.55862 62.847715 
L 222.769355 63.710944 
L 223.777494 63.710944 
L 223.787425 63.926751 
L 227.671551 63.926751 
L 227.864757 64.142558 
L 228.161073 64.142558 
L 228.330759 64.358366 
L 228.941292 64.358366 
L 229.137532 64.574173 
L 229.763811 64.574173 
L 229.935173 64.78998 
L 231.98986 64.78998 
L 232.09936 65.005788 
L 233.779491 65.005788 
L 234.32728 65.221595 
L 235.128206 65.221595 
L 235.581681 65.65321 
L 236.101082 65.65321 
L 236.619187 65.869017 
L 237.324584 65.869017 
L 237.643949 66.084824 
L 238.395017 66.084824 
L 238.572031 66.300632 
L 238.994676 66.732246 
L 239.017957 66.948054 
L 240.0618 66.948054 
L 240.173731 67.595475 
L 240.706313 67.595475 
L 241.255966 68.02709 
L 241.388941 68.02709 
L 241.664117 68.242897 
L 241.722436 68.458705 
L 242.588048 68.458705 
L 242.606137 68.674512 
L 243.860743 68.674512 
L 243.898353 68.890319 
L 244.488911 69.321934 
L 244.552538 69.537741 
L 244.873768 69.969356 
L 245.430502 69.969356 
L 245.688788 70.185163 
L 246.283001 70.185163 
L 246.587425 70.616778 
L 247.636056 70.616778 
L 247.900984 70.832585 
L 248.118383 70.832585 
L 248.18436 71.048393 
L 248.300747 71.048393 
L 248.494774 71.2642 
L 249.163972 71.2642 
L 249.787503 71.695814 
L 252.319079 71.695814 
L 252.373164 71.911622 
L 252.5545 72.127429 
L 253.04927 72.127429 
L 253.088962 72.343236 
L 253.216957 72.343236 
L 253.918117 72.774851 
L 254.04915 72.990658 
L 254.081832 72.990658 
L 254.163173 73.206466 
L 254.301151 73.206466 
L 254.97019 74.069695 
L 254.970221 74.50131 
L 255.166381 74.717117 
L 257.323013 74.717117 
L 257.453267 75.148731 
L 257.602788 75.796153 
L 257.715203 75.796153 
L 257.818575 76.011961 
L 257.876678 76.011961 
L 258.062127 76.443575 
L 258.221437 76.443575 
L 258.912315 77.306805 
L 259.012994 77.738419 
L 259.238019 77.954227 
L 259.307135 78.601649 
L 259.858776 78.601649 
L 259.976055 79.033263 
L 260.282663 79.033263 
L 260.754747 80.1123 
L 261.312509 80.543914 
L 261.339462 80.759722 
L 261.662456 80.759722 
L 261.774341 81.407144 
L 261.960767 81.622951 
L 262.153898 82.701988 
L 262.62049 82.701988 
L 262.680527 83.133602 
L 262.866488 83.133602 
L 262.973614 83.349409 
L 263.333368 83.565217 
L 263.3612 83.781024 
L 263.870765 83.781024 
L 263.881187 83.996831 
L 264.231435 83.996831 
L 264.325519 84.428446 
L 264.887595 84.860061 
L 265.124341 84.860061 
L 265.184925 85.075868 
L 265.576673 85.72329 
L 265.739996 86.370712 
L 265.897955 86.370712 
L 265.971428 86.586519 
L 266.566654 86.586519 
L 266.689303 86.802326 
L 266.831141 86.802326 
L 267.105892 87.665556 
L 268.284303 87.665556 
L 268.858067 88.528785 
L 269.16597 88.9604 
L 269.289567 89.392014 
L 269.702633 90.255244 
L 269.893679 90.255244 
L 270.366362 90.902665 
L 270.551821 90.902665 
L 270.587033 91.118473 
L 270.751997 91.118473 
L 270.922309 91.765895 
L 271.13679 91.765895 
L 271.234557 92.197509 
L 271.357464 92.197509 
L 271.377717 92.413317 
L 271.64414 92.629124 
L 271.679455 92.629124 
L 271.776415 92.844931 
L 272.178644 93.060739 
L 272.219582 93.276546 
L 272.490041 93.276546 
L 272.850726 93.492353 
L 272.942092 93.708161 
L 273.217297 94.355583 
L 273.380472 95.003004 
L 273.600271 95.434619 
L 274.143387 95.650426 
L 274.397979 95.650426 
L 274.837825 96.082041 
L 275.122694 96.082041 
L 275.305461 96.297848 
L 275.467176 96.297848 
L 275.997234 97.376885 
L 276.103546 98.455921 
L 276.322569 99.319151 
L 276.417034 99.319151 
L 276.45797 99.534958 
L 276.630612 99.750765 
L 276.94949 99.750765 
L 277.132284 99.966573 
L 277.321006 99.966573 
L 277.986738 101.908839 
L 278.481136 102.340453 
L 278.53403 102.340453 
L 278.571827 103.41949 
L 278.786876 103.41949 
L 280.32755 106.009178 
L 280.375314 106.009178 
L 280.433247 106.440792 
L 280.671675 106.872407 
L 280.87238 107.088214 
L 280.965178 107.519829 
L 281.007972 107.519829 
L 281.105691 107.735636 
L 281.184163 107.735636 
L 281.293809 108.167251 
L 281.36041 108.167251 
L 281.480111 108.598865 
L 281.486673 110.541131 
L 281.698118 110.541131 
L 281.756636 110.756938 
L 281.969216 110.756938 
L 282.094846 110.972746 
L 282.175853 110.972746 
L 282.232289 111.188553 
L 282.478346 111.40436 
L 282.657167 111.835975 
L 282.721071 111.835975 
L 283.042683 112.26759 
L 283.219984 112.483397 
L 283.240738 112.699204 
L 283.536466 112.915012 
L 284.373493 112.915012 
L 284.499294 113.130819 
L 284.653932 113.130819 
L 284.826609 113.994048 
L 285.463532 114.209855 
L 285.476997 114.425663 
L 285.704633 114.64147 
L 285.739613 114.857277 
L 286.146598 115.288892 
L 286.552234 115.288892 
L 287.398093 116.799543 
L 287.692156 117.015351 
L 287.711579 117.446965 
L 288.357976 117.662773 
L 288.358196 117.87858 
L 289.049598 117.87858 
L 289.601633 118.526002 
L 289.812908 118.526002 
L 289.994169 118.957616 
L 290.250067 118.957616 
L 290.689223 119.173424 
L 291.288647 119.173424 
L 291.53417 119.820846 
L 291.986373 119.820846 
L 292.067339 120.036653 
L 293.065697 120.036653 
L 293.22735 120.25246 
L 293.654983 120.468268 
L 293.65527 120.684075 
L 293.851057 120.684075 
L 293.915838 120.899882 
L 294.623125 121.547304 
L 294.727268 121.978919 
L 294.828944 122.194726 
L 295.154019 122.194726 
L 295.453772 122.410533 
L 295.548701 122.626341 
L 296.0031 123.057955 
L 296.4025 123.057955 
L 297.468061 125.000221 
L 297.955041 125.431836 
L 298.617181 125.431836 
L 298.823008 125.86345 
L 299.014548 125.86345 
L 299.212844 126.295065 
L 299.323146 126.942487 
L 299.477946 126.942487 
L 300.265304 128.237331 
L 301.197283 128.668946 
L 301.202888 128.884753 
L 301.337824 128.884753 
L 301.416395 129.10056 
L 301.704863 129.10056 
L 301.741707 129.316368 
L 302.144609 129.316368 
L 302.319515 129.532175 
L 302.472291 129.963789 
L 302.874522 129.963789 
L 302.882833 130.179597 
L 303.122309 130.611211 
L 303.260322 131.474441 
L 303.361727 131.690248 
L 303.69864 131.690248 
L 303.705869 131.906055 
L 303.996227 132.121863 
L 304.093452 132.33767 
L 304.324271 132.33767 
L 304.565528 132.769285 
L 304.847134 133.200899 
L 304.963525 133.416707 
L 305.245629 133.416707 
L 305.423949 133.632514 
L 305.621637 134.064128 
L 305.887977 134.71155 
L 306.563124 134.71155 
L 306.804873 135.143165 
L 306.819756 135.358972 
L 306.98431 135.358972 
L 307.010336 135.57478 
L 307.153717 135.57478 
L 307.963144 137.517045 
L 308.501791 137.732853 
L 308.885145 137.732853 
L 308.931915 137.94866 
L 309.093405 137.94866 
L 309.158365 138.164467 
L 309.533397 138.164467 
L 310.076791 138.596082 
L 310.196056 139.027697 
L 310.245591 139.243504 
L 310.602955 139.675119 
L 310.812348 139.675119 
L 310.92053 140.969963 
L 311.073695 141.18577 
L 311.554219 141.401577 
L 311.753748 142.912228 
L 312.388212 143.55965 
L 312.545715 144.42288 
L 312.836457 144.42288 
L 313.067888 145.286109 
L 313.113533 145.501916 
L 313.316275 145.717723 
L 313.411352 145.933531 
L 313.83219 146.149338 
L 314.159576 146.79676 
L 314.500363 148.091604 
L 314.672358 148.091604 
L 315.226193 148.739026 
L 315.384151 150.03387 
L 316.276969 152.191943 
L 316.516764 152.191943 
L 316.694014 152.40775 
L 316.769073 153.055172 
L 316.939689 153.486787 
L 317.266263 153.702594 
L 317.401963 154.350016 
L 317.531264 154.350016 
L 317.792211 154.781631 
L 317.929716 154.997438 
L 318.130888 154.997438 
L 318.342917 155.429053 
L 318.723081 155.860667 
L 318.744849 156.292282 
L 318.938621 156.508089 
L 318.942968 156.723897 
L 319.235031 156.939704 
L 319.385367 157.587126 
L 319.735502 158.234548 
L 320.10385 160.176814 
L 320.346989 160.176814 
L 320.476713 160.608428 
L 321.049511 161.25585 
L 321.08888 161.471657 
L 321.376835 161.471657 
L 321.768818 162.550694 
L 321.909224 162.550694 
L 322.030041 162.982309 
L 322.044899 163.198116 
L 322.582632 163.629731 
L 322.920289 163.629731 
L 323.050178 163.845538 
L 323.200255 163.845538 
L 323.335831 165.140382 
L 323.712264 166.003611 
L 323.981179 166.003611 
L 324.059064 166.435226 
L 324.188606 166.435226 
L 324.423912 167.082648 
L 324.506104 167.514262 
L 324.667464 167.514262 
L 324.850069 167.945877 
L 324.891882 168.161684 
L 325.417725 168.593299 
L 325.627993 170.319757 
L 326.063105 170.967179 
L 326.24523 171.398794 
L 326.502406 172.046216 
L 326.567338 172.262023 
L 326.953347 172.477831 
L 327.343082 172.477831 
L 327.509553 173.125252 
L 327.595477 173.125252 
L 327.810615 173.556867 
L 327.849242 173.772674 
L 328.263517 174.420096 
L 328.3853 174.851711 
L 328.451554 175.283326 
L 328.736282 175.930748 
L 328.849569 177.009784 
L 329.008641 177.441399 
L 329.172482 177.873013 
L 329.307717 178.088821 
L 329.401989 178.088821 
L 329.755587 179.167857 
L 329.951643 179.167857 
L 330.059053 179.383665 
L 330.278241 179.383665 
L 330.378708 179.815279 
L 330.719093 179.815279 
L 330.872167 180.462701 
L 331.137389 180.678508 
L 331.291799 181.110123 
L 331.32591 181.32593 
L 331.505004 181.541738 
L 331.6933 182.620774 
L 331.988827 183.268196 
L 332.373769 184.56304 
L 332.574809 186.289499 
L 333.19313 186.505306 
L 334.004221 188.447572 
L 334.062118 188.663379 
L 334.244791 188.879186 
L 334.370623 189.742416 
L 334.711209 190.17403 
L 335.714278 192.547911 
L 335.94323 192.763718 
L 336.085281 193.41114 
L 336.367708 195.137599 
L 336.470184 195.137599 
L 336.834101 196.64825 
L 336.862018 196.64825 
L 336.965809 197.079864 
L 337.523117 197.511479 
L 337.590595 197.943094 
L 338.056799 198.374708 
L 338.659203 199.88536 
L 338.682787 200.316974 
L 338.921776 200.748589 
L 339.402219 202.475047 
L 339.586253 203.122469 
L 339.766885 203.338277 
L 339.868461 203.769891 
L 340.307724 204.848928 
L 340.489621 205.712157 
L 340.704539 205.927964 
L 340.851081 206.359579 
L 341.360002 207.438616 
L 341.498051 207.87023 
L 341.668899 208.301845 
L 341.683443 208.517652 
L 342.007922 208.733459 
L 342.115105 209.165074 
L 342.180118 209.380881 
L 342.244579 210.028303 
L 342.663146 210.244111 
L 343.03889 210.891533 
L 343.13058 211.323147 
L 343.685221 211.538955 
L 344.86773 214.128642 
L 345.053165 214.128642 
L 345.114115 214.560257 
L 345.252517 214.560257 
L 345.272852 214.776064 
L 345.492594 215.207679 
L 345.817454 216.070908 
L 345.973354 216.070908 
L 346.066074 216.286715 
L 346.235017 216.286715 
L 346.525601 216.71833 
L 346.67444 216.71833 
L 346.787801 217.797367 
L 347.059211 218.228981 
L 347.239226 218.228981 
L 347.297349 218.444789 
L 347.528812 218.660596 
L 348.312412 221.897706 
L 348.398035 221.897706 
L 348.548909 222.760935 
L 348.96429 222.976742 
L 349.166698 223.624164 
L 349.296627 224.055779 
L 349.537957 224.487393 
L 349.604718 224.919008 
L 349.836285 225.134815 
L 349.865586 225.350623 
L 350.073465 225.56643 
L 350.330187 226.645467 
L 350.44781 226.645467 
L 350.492824 226.861274 
L 351.017853 227.077081 
L 351.144149 227.724503 
L 351.500206 227.94031 
L 351.517671 228.156118 
L 352.458066 229.235154 
L 352.49401 229.450962 
L 353.06464 229.882576 
L 353.119399 230.314191 
L 353.472858 230.529998 
L 354.487114 232.256457 
L 354.832634 233.551301 
L 355.169474 233.767108 
L 355.351051 234.198723 
L 355.618278 234.41453 
L 355.66907 234.630337 
L 355.804916 234.630337 
L 356.09294 235.061952 
L 356.269845 235.493566 
L 356.886354 235.709374 
L 356.952387 236.356796 
L 357.874424 237.220025 
L 357.928756 237.435832 
L 358.049595 237.435832 
L 358.808527 239.162291 
L 359.239476 239.378098 
L 359.361927 239.593905 
L 359.489919 240.241327 
L 359.809346 240.672942 
L 359.818466 240.888749 
L 360.040454 240.888749 
L 360.185788 241.104557 
L 360.542991 241.320364 
L 360.556026 241.967786 
L 360.785683 242.183593 
L 361.029066 242.831015 
L 361.180486 242.831015 
L 361.438453 243.694244 
L 361.61946 243.694244 
L 361.759622 244.125859 
L 361.938273 244.341666 
L 362.074408 244.989088 
L 362.221735 245.204896 
L 362.388922 245.204896 
L 362.541953 245.852318 
L 362.665837 246.068125 
L 362.807874 246.283932 
L 362.947654 246.283932 
L 362.952929 246.49974 
L 363.414676 246.931354 
L 363.546481 248.010391 
L 363.607708 248.442005 
L 364.116321 248.87362 
L 364.580249 250.168464 
L 364.878531 250.384271 
L 365.777317 251.894922 
L 365.905702 252.326537 
L 366.200889 253.405574 
L 366.480194 253.837188 
L 366.776326 254.052996 
L 366.780887 254.268803 
L 367.036658 254.700417 
L 367.047394 255.132032 
L 367.233752 255.132032 
L 367.337713 255.347839 
L 367.801815 255.563647 
L 368.062647 256.858491 
L 368.168537 257.72172 
L 368.404728 257.937527 
L 368.599649 258.584949 
L 368.982106 258.584949 
L 369.47746 259.016564 
L 370.398183 259.663986 
L 370.430194 259.879793 
L 371.053071 260.527215 
L 371.292335 260.743022 
L 371.396996 261.174637 
L 371.636259 261.390444 
L 371.731598 261.822059 
L 372.229093 262.901095 
L 372.632826 263.116903 
L 372.776976 263.33271 
L 373.628727 264.411747 
L 373.832303 265.274976 
L 373.998534 265.274976 
L 374.112715 265.490783 
L 374.722534 265.922398 
L 375.037578 266.785627 
L 375.198324 267.648856 
L 375.502058 267.864664 
L 375.542681 268.296278 
L 375.888927 268.727893 
L 376.222709 269.591122 
L 376.818041 270.454351 
L 377.027479 270.454351 
L 377.029893 270.670159 
L 377.648236 271.317581 
L 377.656488 271.533388 
L 378.579858 272.396617 
L 378.911381 273.475654 
L 379.541697 273.907269 
L 379.609579 274.338883 
L 379.788256 274.338883 
L 379.824726 274.55469 
L 379.981775 276.496956 
L 380.295493 276.712764 
L 380.595439 277.575993 
L 381.413249 278.439222 
L 382.27513 278.655029 
L 382.666949 279.734066 
L 382.849564 279.734066 
L 382.99842 279.949873 
L 383.32358 280.165681 
L 383.360067 280.597295 
L 383.599973 281.02891 
L 383.699773 282.107946 
L 383.733662 282.323754 
L 384.020122 282.539561 
L 384.056408 282.755368 
L 384.598039 283.186983 
L 384.787191 284.050212 
L 384.985864 284.26602 
L 385.388115 284.26602 
L 385.655342 284.481827 
L 385.935649 285.129249 
L 386.247344 285.345056 
L 387.016043 285.345056 
L 388.136735 285.992478 
L 388.166498 286.208285 
L 389.190264 287.287322 
L 389.972519 287.718937 
L 390.147823 288.150551 
L 390.173918 288.582166 
L 390.484343 288.797973 
L 390.743316 289.445395 
L 390.923607 289.87701 
L 391.300551 290.092817 
L 391.4224 290.308624 
L 391.810523 290.524432 
L 391.955954 290.740239 
L 393.359512 291.171854 
L 393.561928 291.819276 
L 394.240671 292.25089 
L 394.260178 292.898312 
L 394.699441 292.898312 
L 395.165664 293.329927 
L 396.675292 293.761541 
L 396.677082 293.977349 
L 396.872521 294.193156 
L 396.916345 294.408963 
L 397.417994 295.056385 
L 397.979936 295.272193 
L 398.455889 295.272193 
L 398.487273 295.488 
L 398.487273 295.488 
" style="fill:none;stroke:#1f77b4;stroke-dasharray:5.55,2.4;stroke-dashoffset:0;stroke-width:1.5;"/>
   </g>
   <g id="line2d_13">
    <path clip-path="url(#p0975a7e349)" d="M 73.832727 187.370261 
L 73.861239 187.423782 
L 74.721807 187.245414 
L 74.750132 187.200733 
L 76.572201 186.796984 
L 77.832676 186.571414 
L 77.917432 186.480931 
L 78.575965 186.299526 
L 81.148634 186.026317 
L 81.155219 185.980653 
L 82.472355 185.70589 
L 82.969441 185.568005 
L 83.001495 185.521969 
L 84.080798 185.383635 
L 84.395844 185.198664 
L 84.757762 185.059538 
L 85.791883 184.780261 
L 86.109048 184.686864 
L 87.0073 184.499609 
L 88.276345 184.311738 
L 91.351447 183.839346 
L 92.153388 183.649295 
L 92.299615 183.601684 
L 93.618798 183.410846 
L 97.310538 182.641122 
L 97.440745 182.592673 
L 98.941839 182.398471 
L 99.000742 182.349819 
L 99.56169 182.203619 
L 99.584738 182.154804 
L 99.895466 182.057051 
L 101.918269 181.861053 
L 103.977594 181.318646 
L 104.124423 181.169842 
L 105.291088 180.970848 
L 105.310508 180.920995 
L 106.571803 180.671092 
L 107.629603 180.269035 
L 107.639265 180.218585 
L 108.067616 180.016356 
L 108.083935 179.96569 
L 110.703164 179.561731 
L 111.169071 179.564661 
L 111.331282 179.513519 
L 112.323123 179.516412 
L 112.407235 179.259829 
L 112.956266 179.053765 
L 113.332948 178.639498 
L 113.567988 178.483408 
L 113.854326 178.326911 
L 114.58311 178.117614 
L 117.811823 177.485333 
L 118.451261 177.326226 
L 118.752857 177.113432 
L 120.343551 176.899891 
L 120.3616 176.846389 
L 121.519414 176.632763 
L 121.668839 176.525051 
L 121.820718 176.363125 
L 122.641211 176.037982 
L 122.738418 175.874762 
L 124.719433 175.381805 
L 124.914324 175.216686 
L 125.280573 175.051125 
L 125.34622 174.88512 
L 126.08761 174.718668 
L 126.171336 174.551769 
L 127.07931 174.384419 
L 127.925162 173.823315 
L 128.503385 173.653995 
L 128.624982 173.484215 
L 128.902866 173.313974 
L 130.412115 173.029207 
L 130.57063 172.972099 
L 131.773479 172.800461 
L 132.173913 172.570881 
L 132.717354 172.282726 
L 133.661372 172.109201 
L 134.179323 171.993252 
L 134.18535 171.935198 
L 134.975904 171.644129 
L 135.063208 171.527326 
L 135.234872 171.410309 
L 136.396415 171.175627 
L 136.407387 171.057962 
L 136.808273 170.881056 
L 139.586375 170.58512 
L 139.985107 170.466362 
L 142.12871 170.228185 
L 142.397642 170.108764 
L 143.615706 169.869255 
L 143.801637 169.689037 
L 144.708083 169.44796 
L 146.065651 168.902231 
L 146.1071 168.84131 
L 146.726835 168.597053 
L 147.638274 168.044101 
L 148.388406 167.796833 
L 148.633891 167.672848 
L 150.089317 167.29948 
L 150.396051 167.049383 
L 151.255615 166.923978 
L 152.067544 166.1665 
L 152.256562 166.039407 
L 152.853967 165.784487 
L 152.867883 165.720604 
L 154.013854 165.07838 
L 154.368593 164.754937 
L 154.399215 164.625121 
L 156.831947 163.906611 
L 156.897731 163.84091 
L 158.643996 163.511442 
L 158.676471 163.445356 
L 161.158089 162.446244 
L 161.507893 162.109919 
L 161.923418 161.974924 
L 161.986098 161.907326 
L 162.277108 161.893235 
L 162.652734 161.879115 
L 163.417769 161.675475 
L 164.084569 161.334726 
L 166.751928 160.163393 
L 166.820944 160.093869 
L 167.080772 159.954611 
L 167.117262 159.815073 
L 167.357469 159.605239 
L 167.393014 159.535154 
L 167.864461 159.394771 
L 167.918547 159.324473 
L 168.453722 159.113153 
L 168.621909 158.971917 
L 168.859691 159.025259 
L 169.524467 158.741892 
L 170.837381 157.956672 
L 170.84196 157.884852 
L 171.095871 157.722171 
L 172.232283 157.577848 
L 172.782893 157.36081 
L 173.315884 157.143103 
L 173.423372 156.997593 
L 174.0953 156.55926 
L 175.375715 156.17126 
L 175.402357 156.097474 
L 177.00876 155.557437 
L 177.560156 155.333738 
L 178.60517 155.184216 
L 178.684393 155.034382 
L 180.082926 154.507491 
L 180.351404 154.204672 
L 180.35676 154.128768 
L 180.389489 154.181612 
L 180.728993 154.02954 
L 181.356938 153.724436 
L 181.634569 153.418043 
L 187.432448 152.023095 
L 187.439888 151.944812 
L 187.905583 151.630844 
L 189.401397 151.315529 
L 189.40907 151.236489 
L 189.987357 150.840015 
L 190.984486 150.601105 
L 191.087887 150.441402 
L 191.515095 150.281355 
L 191.898569 149.879722 
L 191.903106 149.799134 
L 193.567187 149.556847 
L 193.697431 149.232568 
L 194.549113 148.743497 
L 194.753692 148.795421 
L 195.290171 148.549634 
L 195.434363 148.467526 
L 196.518962 148.303041 
L 197.556683 147.993898 
L 197.934457 148.045809 
L 199.005748 147.630485 
L 199.020439 147.547146 
L 200.651741 147.212866 
L 201.477243 146.675975 
L 201.478147 146.591503 
L 201.48737 146.643212 
L 201.677816 146.558628 
L 202.531461 146.389177 
L 202.703961 146.304311 
L 202.875292 146.356003 
L 203.039906 146.271023 
L 204.613389 145.930153 
L 204.848034 145.759146 
L 205.244982 145.553478 
L 205.707522 145.570781 
L 206.549283 145.312219 
L 206.571498 145.225838 
L 207.065423 145.052784 
L 207.206825 145.017689 
L 207.296677 144.669935 
L 208.910505 143.668476 
L 209.306102 143.402968 
L 209.600965 143.225457 
L 209.727305 143.276719 
L 210.088955 143.150037 
L 211.140847 142.895361 
L 211.368205 142.71604 
L 211.822093 142.536306 
L 212.05504 142.587585 
L 212.372838 142.407391 
L 212.424095 142.317138 
L 214.136789 142.006263 
L 214.146564 141.915464 
L 214.60907 141.693581 
L 214.798122 141.744787 
L 214.803783 141.65352 
L 215.087098 141.379079 
L 215.51769 141.195585 
L 216.101656 140.82731 
L 216.344151 140.837041 
L 216.402148 140.559232 
L 216.745836 140.187296 
L 216.832151 140.094039 
L 217.310844 139.907194 
L 217.411489 139.719909 
L 217.704273 139.532181 
L 217.717078 139.34401 
L 217.829569 139.249757 
L 218.432391 139.351216 
L 218.982265 139.067633 
L 219.028364 138.97288 
L 219.46081 138.928705 
L 219.874514 138.643354 
L 220.518699 138.356982 
L 221.210507 137.495659 
L 221.818072 137.305398 
L 221.823179 137.208099 
L 222.545598 136.817725 
L 222.55862 136.719837 
L 222.769355 136.921417 
L 222.952274 136.823295 
L 223.065575 136.330893 
L 223.668235 136.034011 
L 223.777494 135.835486 
L 223.787425 135.885711 
L 224.986342 135.586923 
L 225.027172 135.487083 
L 226.141024 135.186829 
L 226.761134 134.784768 
L 226.830713 134.683944 
L 227.381501 134.481923 
L 227.864757 134.227716 
L 228.003908 134.024381 
L 228.017666 133.922526 
L 228.642156 133.358264 
L 228.792124 133.152584 
L 228.941292 132.946392 
L 229.137532 132.995849 
L 229.763811 132.685494 
L 229.835619 132.734912 
L 229.935173 132.527294 
L 230.516249 132.319157 
L 230.518242 132.214892 
L 230.661651 132.110497 
L 232.301825 131.635651 
L 232.854094 130.790164 
L 233.779491 130.364203 
L 234.124844 130.412932 
L 234.127583 130.306067 
L 234.61341 129.984656 
L 234.660503 129.877247 
L 235.128206 129.7697 
L 235.581681 129.866896 
L 236.532917 129.591784 
L 236.619187 129.375224 
L 239.690931 128.854958 
L 241.388941 127.547481 
L 241.713002 127.644249 
L 241.722436 127.532285 
L 242.039633 127.08296 
L 242.321347 126.857412 
L 242.523147 126.63127 
L 242.588048 126.517976 
L 242.606137 126.566033 
L 243.852119 125.9971 
L 243.898353 125.816287 
L 244.547175 125.845395 
L 244.552538 125.730525 
L 244.679276 125.778505 
L 244.873768 125.711437 
L 246.273318 125.413108 
L 246.283001 125.297335 
L 246.587425 125.393294 
L 247.900984 125.09271 
L 248.079947 124.85949 
L 248.118383 124.742645 
L 248.18436 124.790509 
L 248.300747 124.67346 
L 248.422529 124.721343 
L 248.557658 124.486678 
L 249.427705 124.299139 
L 249.621915 124.346963 
L 249.787503 123.992536 
L 249.927497 123.874073 
L 250.550804 123.636665 
L 251.383992 123.040314 
L 251.385638 122.920557 
L 251.981852 122.560301 
L 252.248547 122.077658 
L 252.319079 121.956584 
L 252.373164 122.003489 
L 252.5545 122.05046 
L 253.216957 121.732812 
L 253.621965 121.779758 
L 253.918117 121.704769 
L 253.940501 121.751792 
L 254.484877 121.232722 
L 254.563983 121.279679 
L 254.649053 121.156453 
L 254.796085 121.203422 
L 254.97019 121.003277 
L 254.970221 121.097329 
L 255.13271 121.144454 
L 255.166381 121.020445 
L 255.968125 120.647377 
L 256.565087 120.27274 
L 256.784539 120.022104 
L 256.844963 119.896522 
L 257.437321 119.817353 
L 257.587079 120.004366 
L 257.715203 119.751757 
L 257.758632 119.798563 
L 257.876678 119.545126 
L 257.941535 119.63871 
L 258.221437 119.384326 
L 258.427638 119.431104 
L 258.641236 118.838237 
L 259.238019 119.072013 
L 259.307135 119.213084 
L 260.395387 118.966796 
L 260.465517 119.013982 
L 260.467847 118.884226 
L 260.559221 118.93142 
L 260.564873 118.801417 
L 260.620612 118.84862 
L 261.102467 118.943229 
L 261.31065 118.551548 
L 261.339462 118.646069 
L 261.736464 118.478307 
L 261.774341 118.525687 
L 261.984714 118.668242 
L 262.104385 118.763627 
L 262.255837 118.414848 
L 262.603231 117.616426 
L 262.62049 117.482667 
L 262.680527 117.577216 
L 262.973614 117.356099 
L 263.3612 117.45081 
L 264.231435 117.093446 
L 264.24386 117.140783 
L 264.313531 117.18819 
L 264.325519 117.052714 
L 264.539782 117.100126 
L 264.599738 116.964383 
L 264.656336 117.0118 
L 265.017819 116.73957 
L 265.184925 116.650437 
L 265.36195 116.697796 
L 265.495986 116.561036 
L 265.497061 116.6084 
L 265.739996 116.798567 
L 265.961458 116.571339 
L 265.971428 116.433552 
L 266.119691 116.295557 
L 266.653862 116.066322 
L 266.831141 115.64961 
L 266.905561 115.791565 
L 267.105892 115.69942 
L 268.069057 115.138851 
L 268.111365 114.998172 
L 268.396486 114.904314 
L 268.43177 114.951424 
L 268.484583 114.810168 
L 268.796837 114.904459 
L 268.858067 114.762841 
L 269.177085 114.904605 
L 269.287624 114.762549 
L 269.289567 114.809877 
L 269.497202 114.9523 
L 269.893679 114.714412 
L 270.011164 114.76196 
L 270.224592 114.522885 
L 270.265368 114.570432 
L 270.751997 114.041367 
L 270.786552 114.08876 
L 270.79778 113.943947 
L 270.861845 113.798907 
L 270.922309 113.89361 
L 271.357464 113.551192 
L 271.377717 113.598572 
L 271.5191 113.646027 
L 271.776415 113.400322 
L 272.159038 113.44777 
L 272.219582 113.20081 
L 272.398179 112.90539 
L 272.490041 112.609026 
L 272.853946 112.703341 
L 272.942092 112.554643 
L 273.288711 112.791347 
L 273.335797 112.642002 
L 273.365889 112.492418 
L 273.380472 112.539823 
L 273.597437 112.634862 
L 273.600271 112.484789 
L 273.949068 112.532341 
L 274.143387 112.231302 
L 274.397979 112.080417 
L 274.551854 112.127795 
L 275.122694 111.263769 
L 275.252059 111.310791 
L 275.467176 110.851442 
L 275.997234 111.086403 
L 276.103546 111.323299 
L 276.263228 111.514226 
L 276.417034 110.893294 
L 276.45797 110.940867 
L 276.630612 110.988519 
L 277.393067 110.614567 
L 277.404195 110.300263 
L 277.467741 110.347698 
L 277.660141 110.538234 
L 277.676921 110.380227 
L 277.762891 109.904609 
L 277.878101 109.95207 
L 277.986738 110.047233 
L 278.166356 110.094935 
L 278.203927 109.935484 
L 278.481136 109.983172 
L 278.53403 109.823357 
L 278.571827 110.062538 
L 278.909306 109.789025 
L 279.163784 109.885047 
L 279.210938 109.561968 
L 279.263775 109.65793 
L 279.39635 109.333351 
L 279.423535 109.170643 
L 279.851014 109.362377 
L 279.959239 109.035325 
L 280.064522 109.083266 
L 280.32755 109.179396 
L 280.433247 108.946669 
L 280.562901 109.043064 
L 280.671675 108.712319 
L 281.034902 108.739083 
L 281.36041 108.167251 
L 281.448161 108.215356 
L 281.476957 108.047358 
L 281.486673 108.53205 
L 282.094846 107.949899 
L 282.175853 107.779107 
L 282.232289 107.827683 
L 282.657167 107.973935 
L 282.721071 107.802397 
L 282.837608 107.851212 
L 283.042683 107.728047 
L 283.475852 107.874955 
L 283.536466 107.529212 
L 284.1479 107.182214 
L 284.156162 107.008242 
L 284.639295 106.532663 
L 284.653932 106.357305 
L 284.680941 106.405514 
L 284.806573 106.550672 
L 284.826609 106.374527 
L 285.727435 106.391908 
L 285.739613 106.214642 
L 286.146598 106.311866 
L 286.694826 106.052979 
L 286.900555 106.150444 
L 287.000427 105.792166 
L 287.335694 105.938315 
L 287.398093 105.758309 
L 287.673429 105.807085 
L 287.692156 105.626619 
L 287.711579 105.724199 
L 288.358196 105.822145 
L 288.547493 105.640845 
L 289.216699 105.508066 
L 289.253644 105.557019 
L 289.601633 105.606066 
L 289.964481 104.97191 
L 289.994169 104.787909 
L 290.234439 104.603558 
L 290.250067 104.418856 
L 290.567253 104.467286 
L 290.689223 104.282102 
L 291.370567 104.144825 
L 291.529152 104.241623 
L 291.53417 104.055336 
L 291.733352 103.868692 
L 291.854954 103.494328 
L 291.986373 103.118523 
L 292.067339 103.166259 
L 292.430233 102.977678 
L 293.22735 102.836289 
L 293.588947 102.883937 
L 293.654983 102.694352 
L 293.65527 102.741955 
L 293.915838 102.599422 
L 294.206245 102.647072 
L 294.295858 102.265225 
L 294.828944 102.50347 
L 295.142423 102.311284 
L 295.154019 102.118722 
L 296.0031 102.309866 
L 296.510164 102.164232 
L 296.532155 102.212204 
L 296.543843 102.018022 
L 297.726311 102.404078 
L 297.762154 102.208344 
L 297.955041 102.256887 
L 298.570827 102.060615 
L 298.617181 101.863951 
L 298.711341 101.912295 
L 298.770835 101.960736 
L 298.823008 101.76338 
L 299.014548 101.565627 
L 299.323146 101.807795 
L 299.477946 101.608888 
L 299.598669 101.657463 
L 299.718599 101.258137 
L 299.862714 101.35497 
L 299.894142 101.403534 
L 300.011094 101.2028 
L 300.265304 101.299914 
L 300.80808 101.34862 
L 300.840155 101.14701 
L 301.046539 100.944987 
L 301.176141 100.99348 
L 301.197283 100.790886 
L 301.202888 100.83932 
L 301.856518 99.91485 
L 302.144609 99.709255 
L 302.472291 99.852849 
L 302.874522 99.646335 
L 302.882833 99.694234 
L 303.177717 99.886828 
L 303.361727 100.032332 
L 303.551705 99.615348 
L 303.553221 99.406199 
L 303.69864 99.19661 
L 303.705869 99.24464 
L 304.021658 99.341005 
L 304.093452 98.919474 
L 304.324271 98.708039 
L 304.727188 98.851797 
L 305.245629 98.308518 
L 305.324304 98.356318 
L 305.423949 98.14202 
L 305.73836 98.33353 
L 305.863557 97.902117 
L 305.887977 97.949891 
L 306.36811 97.733305 
L 306.563124 97.298728 
L 306.739096 97.346055 
L 306.755145 97.127876 
L 306.819756 97.222469 
L 307.010336 96.831019 
L 307.153717 96.390203 
L 307.250091 96.437003 
L 307.454575 96.578019 
L 307.545215 96.13374 
L 307.569537 96.180567 
L 307.809335 96.274531 
L 307.87565 95.602681 
L 307.963144 95.695885 
L 308.501791 95.742642 
L 309.402946 95.157153 
L 309.533397 94.929702 
L 309.868252 94.975968 
L 310.008314 94.747806 
L 310.076791 94.793971 
L 310.602955 95.026361 
L 310.810578 94.796453 
L 310.812348 94.566025 
L 310.92053 94.845875 
L 310.992331 94.892889 
L 311.073695 94.660469 
L 311.627823 94.801518 
L 311.753748 95.038765 
L 312.222049 95.13443 
L 312.228571 94.899337 
L 312.47707 95.043015 
L 312.498921 94.806725 
L 312.545715 94.902629 
L 312.918449 94.713249 
L 313.113533 94.905967 
L 313.353458 95.003004 
L 313.411352 94.763613 
L 313.983341 94.860658 
L 314.058883 94.620252 
L 314.072358 94.66872 
L 314.325067 94.912786 
L 314.339295 94.670441 
L 314.436705 94.719372 
L 314.500363 94.76842 
L 314.672358 94.281068 
L 315.27403 94.525738 
L 315.378908 94.180484 
L 315.384151 94.229651 
L 315.645184 94.427518 
L 315.893996 93.477297 
L 316.276969 93.723044 
L 316.516764 93.216866 
L 316.700145 93.315007 
L 316.767325 93.413634 
L 316.769073 93.158589 
L 316.855772 93.207831 
L 316.939689 93.257196 
L 317.385728 93.40603 
L 317.401963 93.45589 
L 317.71294 92.990249 
L 317.929716 93.089549 
L 318.209146 92.879809 
L 318.564756 92.979333 
L 318.605345 92.457135 
L 318.723081 92.50655 
L 318.744849 92.605756 
L 319.28218 92.805694 
L 319.301301 92.541694 
L 319.385367 92.641884 
L 319.878199 92.945567 
L 320.10385 93.254007 
L 320.346989 92.985418 
L 320.380367 93.037011 
L 320.721699 93.140604 
L 320.741647 92.870454 
L 321.08888 93.026004 
L 321.306343 92.481827 
L 321.376835 92.208657 
L 321.456958 92.311288 
L 321.768818 92.466261 
L 322.030041 91.740114 
L 322.044899 91.79142 
L 322.582632 91.894448 
L 322.920289 91.615325 
L 323.050178 91.66674 
L 323.200255 91.386553 
L 323.205773 91.437797 
L 323.485269 91.800436 
L 323.712264 91.905326 
L 324.188606 90.867145 
L 324.298876 90.918806 
L 324.322042 90.630587 
L 324.423912 90.733681 
L 324.506104 90.837351 
L 324.667464 90.547005 
L 325.161981 90.754753 
L 325.164986 90.462249 
L 325.452516 90.61858 
L 325.53247 90.670985 
L 325.627993 90.935252 
L 326.183444 91.20331 
L 326.24523 90.905146 
L 326.562996 91.120968 
L 326.567338 90.820528 
L 326.952011 90.874517 
L 326.953347 90.572847 
L 327.343082 90.2703 
L 327.409788 90.377304 
L 327.595477 89.51479 
L 328.166255 89.780276 
L 328.232066 89.16118 
L 328.352681 89.266955 
L 328.575595 89.480402 
L 328.736282 88.959102 
L 328.799171 89.119484 
L 329.008641 89.335603 
L 329.197895 89.499424 
L 329.401989 88.536729 
L 329.755587 88.806966 
L 329.938898 88.482016 
L 329.951643 88.156057 
L 330.059053 88.209766 
L 330.278241 87.88237 
L 330.300484 87.935819 
L 330.378708 87.989435 
L 330.646964 87.660161 
L 330.719093 87.329855 
L 330.772032 87.435858 
L 330.805374 87.48911 
L 330.872167 87.156454 
L 331.291799 87.315893 
L 331.32591 87.369376 
L 331.525858 87.476853 
L 331.572283 86.856106 
L 331.814471 87.070177 
L 331.911369 86.729348 
L 331.988827 86.836493 
L 332.318007 87.162123 
L 332.373769 86.816432 
L 332.574809 87.256808 
L 333.09482 87.312677 
L 333.19313 86.961493 
L 333.481269 87.12874 
L 333.626966 86.118272 
L 333.784886 86.228053 
L 333.965672 85.254973 
L 334.004221 85.308955 
L 334.574685 85.692035 
L 334.994447 85.971375 
L 335.103293 86.027826 
L 335.24118 84.965314 
L 335.348429 85.020494 
L 335.705054 85.243166 
L 335.714278 84.864652 
L 335.986472 85.032014 
L 336.187302 85.257968 
L 336.296691 85.545014 
L 336.592756 84.436322 
L 336.798566 84.778038 
L 336.862018 83.985641 
L 336.965809 84.098718 
L 337.569311 84.269918 
L 337.590595 84.327413 
L 338.148555 84.501195 
L 338.656903 84.854717 
L 338.659203 84.036857 
L 338.682787 84.15382 
L 338.994051 84.330958 
L 339.05518 84.450194 
L 339.363542 84.691461 
L 339.586253 84.936528 
L 339.807126 85.122876 
L 339.868461 84.699062 
L 340.221292 84.94811 
L 340.267473 84.519699 
L 340.347692 84.644253 
L 340.41946 84.212639 
L 340.489621 84.399117 
L 340.704189 84.461782 
L 340.704539 84.025401 
L 340.730024 84.087559 
L 340.842076 84.149971 
L 340.851081 83.710268 
L 341.646208 84.212639 
L 341.683443 84.340859 
L 342.007922 84.405372 
L 342.031513 84.535214 
L 342.115105 84.083336 
L 342.180118 84.147851 
L 342.204074 84.343041 
L 342.244579 83.885937 
L 342.898605 84.081117 
L 343.781364 84.412062 
L 343.811468 83.946164 
L 343.821184 84.012347 
L 344.04804 84.145583 
L 344.135528 83.202376 
L 344.170772 83.26765 
L 344.197371 83.333212 
L 344.814793 83.665413 
L 344.825144 83.732745 
L 344.86773 83.250699 
L 345.114115 82.410013 
L 345.252517 81.919502 
L 345.272852 81.983938 
L 345.552961 82.179013 
L 345.585059 82.244634 
L 345.817454 82.376785 
L 345.973354 81.877135 
L 346.066074 81.942665 
L 346.235017 81.43969 
L 346.327707 81.504508 
L 346.525601 81.569628 
L 346.741507 80.807679 
L 346.787801 80.872228 
L 347.059211 81.002248 
L 347.239226 80.482623 
L 347.297349 80.547012 
L 347.71763 80.742041 
L 348.01605 81.413005 
L 348.248704 81.620804 
L 348.398035 80.535282 
L 348.435129 80.807679 
L 348.548909 80.255989 
L 349.07255 80.391806 
L 349.296627 80.667629 
L 349.447343 80.737474 
L 349.525101 80.174198 
L 349.604718 80.382059 
L 350.073465 80.593193 
L 350.176636 80.807679 
L 350.22157 80.229649 
L 350.254526 80.300557 
L 350.330187 80.371844 
L 350.44781 79.788012 
L 350.492824 79.858307 
L 351.017853 79.92898 
L 351.143178 80.143296 
L 351.144149 79.549324 
L 351.436094 79.620118 
L 351.500206 79.02147 
L 351.517671 79.091206 
L 352.120026 79.302724 
L 352.20024 78.694906 
L 352.848428 78.97644 
L 353.099035 79.119586 
L 353.119399 79.191766 
L 353.605525 79.337355 
L 353.613703 79.410772 
L 354.332264 79.708672 
L 354.335726 79.075676 
L 354.52796 79.298775 
L 354.599491 79.449689 
L 355.66907 80.071471 
L 355.804916 79.412876 
L 356.193729 79.648544 
L 356.269845 79.728057 
L 356.895234 79.888549 
L 356.952387 80.051021 
L 357.928756 80.466115 
L 358.049595 79.779766 
L 358.159986 79.862453 
L 358.182263 79.16985 
L 358.78 79.66537 
L 358.808527 79.749827 
L 359.361927 79.920393 
L 359.489919 80.180449 
L 359.818466 80.44569 
L 360.040454 79.718092 
L 360.555299 79.982234 
L 360.556026 80.161314 
L 360.947596 80.434533 
L 361.029066 80.526857 
L 361.180486 79.77445 
L 361.245513 79.865129 
L 361.438453 80.140973 
L 361.61946 79.374012 
L 361.684469 79.464878 
L 362.221735 80.023803 
L 362.388922 79.234268 
L 362.403066 79.327262 
L 362.599994 79.61033 
L 362.665837 78.804761 
L 362.807874 78.897886 
L 362.947654 78.083711 
L 362.952929 78.174847 
L 363.421282 78.452368 
L 363.607708 79.026623 
L 364.116321 79.223977 
L 364.580249 79.834833 
L 364.849152 79.939482 
L 364.878531 79.064339 
L 365.875172 79.907194 
L 366.050561 80.349869 
L 366.480194 80.807679 
L 366.780887 81.042504 
L 367.036658 81.281412 
L 367.047394 81.524513 
L 367.233752 80.567682 
L 367.337713 80.687149 
L 367.857206 80.929285 
L 367.902959 79.952622 
L 367.934162 80.071471 
L 368.062647 80.557774 
L 368.168537 81.062255 
L 368.404728 81.191336 
L 368.599649 79.498079 
L 368.982106 78.439011 
L 369.160567 78.559744 
L 369.164673 77.485767 
L 370.398183 77.961742 
L 370.430194 78.083711 
L 371.659407 79.105199 
L 371.840429 79.374012 
L 372.099518 79.648544 
L 372.229093 79.92898 
L 372.632826 80.071471 
L 372.689148 80.215512 
L 372.776976 79.02147 
L 373.628727 79.736456 
L 373.832303 80.338029 
L 373.998534 79.075676 
L 374.112715 79.223977 
L 374.722534 79.525812 
L 374.823531 79.679408 
L 374.858484 78.375565 
L 374.862237 78.524113 
L 375.171992 79.136533 
L 375.198324 79.454154 
L 375.502058 79.615943 
L 375.542681 79.945664 
L 375.888927 80.283839 
L 376.222709 80.986887 
L 376.818041 81.727938 
L 377.027479 80.251767 
L 377.029893 80.434533 
L 377.648236 80.998166 
L 377.656488 81.191336 
L 378.579858 81.992013 
L 378.911381 83.060585 
L 379.541697 83.510853 
L 379.609579 83.975083 
L 379.788256 82.297349 
L 379.824726 82.523564 
L 379.981775 84.732039 
L 380.295493 84.998399 
L 380.595439 86.110979 
L 381.413249 87.305217 
L 382.27513 87.617599 
L 382.666949 89.270492 
L 382.849564 87.217015 
L 382.99842 87.550174 
L 383.32358 87.889995 
L 383.360067 88.590444 
L 383.552969 88.9515 
L 383.655735 90.080761 
L 383.667913 87.837273 
L 383.733662 89.377465 
L 383.984178 89.784391 
L 384.020122 87.382774 
L 384.056408 87.775969 
L 384.598039 88.590444 
L 384.787191 90.341566 
L 384.985864 90.807055 
L 385.388115 88.141439 
L 385.655342 88.590444 
L 385.935649 90.010273 
L 386.247344 90.509482 
L 387.016043 87.617599 
L 387.922688 88.590444 
L 388.128904 89.098016 
L 388.136735 86.015265 
L 388.166498 86.499552 
L 389.638314 89.738721 
L 389.972519 90.341566 
L 390.126799 90.964847 
L 390.173918 92.96825 
L 390.484343 93.684618 
L 390.743316 95.999038 
L 390.923607 97.69628 
L 391.300551 98.596857 
L 391.4224 99.534958 
L 391.810523 100.512978 
L 391.955954 101.533521 
L 392.791592 102.599422 
L 393.359512 103.713772 
L 393.561928 107.382975 
L 394.204101 110.142718 
L 394.240671 105.180023 
L 394.260178 109.603911 
L 394.699441 104.041523 
L 395.165664 107.196118 
L 395.948836 108.926057 
L 396.575759 110.771326 
L 396.675292 104.290161 
L 396.677082 106.101666 
L 396.872521 108.047358 
L 396.916345 110.142718 
L 397.111785 112.405706 
L 397.174692 114.857277 
L 397.417994 117.522029 
L 397.979936 120.42903 
L 398.367899 111.93874 
L 398.455889 102.599422 
L 398.487273 105.180023 
" style="fill:none;stroke:#ff7f0e;stroke-dasharray:9.6,2.4,1.5,2.4;stroke-dashoffset:0;stroke-width:1.5;"/>
   </g>
   <g id="line2d_14">
    <path clip-path="url(#p0975a7e349)" d="M 73.832727 145.577748 
L 73.861239 145.670479 
L 74.721807 145.501916 
L 74.750132 145.459718 
L 76.572201 145.078881 
L 77.832676 144.866487 
L 77.917432 144.781364 
L 78.575965 144.610837 
L 81.155219 144.311503 
L 82.472355 144.054004 
L 82.969441 143.924932 
L 83.001495 143.88186 
L 84.080798 143.752501 
L 84.395844 143.579685 
L 84.757762 143.44982 
L 85.791883 143.189436 
L 86.109048 143.102448 
L 87.645814 142.88455 
L 94.009265 141.830089 
L 94.096816 141.785843 
L 96.773345 141.34201 
L 97.440745 141.163774 
L 98.941839 140.985133 
L 99.000742 140.940409 
L 99.56169 140.806086 
L 99.584738 140.761261 
L 100.923379 140.626633 
L 102.332268 140.401742 
L 102.403001 140.356687 
L 103.835707 140.17621 
L 104.124423 139.859383 
L 105.291088 139.677771 
L 105.310508 139.632303 
L 106.571803 139.404572 
L 107.629603 139.038843 
L 107.639265 138.993009 
L 108.067616 138.809409 
L 108.083935 138.763443 
L 110.703164 138.443667 
L 111.169071 138.492629 
L 111.331282 138.446399 
L 112.323123 138.495405 
L 112.407235 138.263792 
L 112.956266 138.07802 
L 113.332948 137.70518 
L 113.567988 137.564919 
L 113.981617 137.377524 
L 115.181916 137.048531 
L 117.146158 136.765467 
L 117.151794 136.718193 
L 118.451261 136.528822 
L 119.317682 136.291485 
L 120.961943 136.054126 
L 121.187139 136.102548 
L 122.678684 135.431544 
L 122.738418 135.335234 
L 124.888693 134.851589 
L 124.914324 134.803062 
L 125.280573 134.657311 
L 125.34622 134.5113 
L 126.08761 134.365028 
L 126.171336 134.218496 
L 127.07931 134.071703 
L 127.925162 133.580493 
L 128.516808 133.383188 
L 128.686379 133.234899 
L 130.57063 132.838159 
L 131.773479 132.688891 
L 132.248138 132.439512 
L 132.717354 132.239469 
L 134.170775 132.038945 
L 134.18535 131.938501 
L 134.975904 131.686862 
L 135.063208 131.585993 
L 135.234872 131.485003 
L 136.396825 131.231992 
L 136.407387 131.181298 
L 136.808273 131.029032 
L 139.72529 130.723667 
L 139.985107 130.672665 
L 142.12871 130.468346 
L 142.397642 130.366 
L 143.615706 130.160934 
L 144.271591 129.903898 
L 145.252382 129.646077 
L 145.643823 129.491006 
L 146.065651 129.33565 
L 146.1071 129.283802 
L 146.726835 129.076089 
L 147.638274 128.606869 
L 148.388406 128.397493 
L 148.633891 128.292612 
L 150.089317 127.977191 
L 150.396051 127.766261 
L 151.335738 127.607721 
L 151.693318 127.342833 
L 151.705585 127.289757 
L 152.256562 126.917303 
L 152.867883 126.650272 
L 154.122358 126.059871 
L 154.125697 126.005998 
L 154.368593 125.844175 
L 154.399215 125.736124 
L 159.838138 124.483765 
L 159.964101 124.319075 
L 160.650984 124.099004 
L 160.89876 123.988761 
L 161.221857 123.823134 
L 161.227555 123.767855 
L 162.277108 123.535233 
L 162.637352 123.635083 
L 162.652734 123.579587 
L 163.617789 123.35725 
L 164.257629 123.078535 
L 164.669484 122.91088 
L 165.74304 122.630742 
L 166.014087 122.462231 
L 166.69617 122.237047 
L 166.820944 122.124239 
L 167.080951 121.954756 
L 167.393014 121.671561 
L 168.247713 121.444351 
L 168.267713 121.387457 
L 168.859691 121.317073 
L 169.655838 121.031575 
L 169.723951 120.974366 
L 170.718865 120.630332 
L 171.095871 120.328118 
L 172.363901 120.154861 
L 172.782893 120.03917 
L 173.315884 119.865351 
L 173.423372 119.749283 
L 174.0953 119.400176 
L 175.676295 119.033821 
L 175.921514 119.017907 
L 178.316858 118.488492 
L 179.211982 118.193022 
L 180.082926 117.896582 
L 180.351404 117.658727 
L 180.35676 117.599166 
L 180.389489 117.700906 
L 181.634569 117.103269 
L 187.432448 116.017519 
L 187.439888 115.956819 
L 187.905583 115.713615 
L 189.401397 115.469762 
L 189.40907 115.408697 
L 189.987357 115.102762 
L 190.984486 114.91871 
L 191.087887 114.795804 
L 191.619925 114.611136 
L 191.903106 114.30253 
L 193.612914 113.992889 
L 193.697431 113.868741 
L 194.549113 113.495293 
L 194.753692 113.59805 
L 197.424044 113.012588 
L 197.556683 113.115634 
L 197.934457 113.218749 
L 199.005748 112.904331 
L 199.020439 112.84132 
L 201.060356 112.502402 
L 201.677816 112.225223 
L 204.57346 111.882883 
L 204.66574 111.755084 
L 205.244982 111.602794 
L 205.707522 111.746573 
L 206.549283 111.554011 
L 206.571498 111.489735 
L 207.065423 111.361051 
L 207.154179 111.465193 
L 207.206825 111.400798 
L 207.296677 111.142776 
L 208.229335 110.689522 
L 208.306569 110.7939 
L 208.37474 110.728984 
L 209.306102 110.273315 
L 209.600965 110.142718 
L 209.727305 110.247304 
L 209.922957 110.116553 
L 210.088955 110.221239 
L 210.810362 110.129613 
L 211.140847 110.168946 
L 211.368205 110.037731 
L 211.822093 109.906333 
L 212.05504 110.011347 
L 213.016198 109.748056 
L 213.023406 109.853198 
L 214.136789 109.655288 
L 214.146564 109.589226 
L 214.270752 109.523118 
L 214.34205 109.628402 
L 214.60907 109.496074 
L 214.798122 109.601459 
L 214.803783 109.535239 
L 215.087098 109.336302 
L 215.698085 109.136945 
L 216.101656 108.937168 
L 216.290099 109.148434 
L 216.344151 109.081776 
L 216.402148 108.881519 
L 217.708865 108.076244 
L 217.829569 107.941367 
L 218.432391 108.153424 
L 218.982265 107.950832 
L 219.028364 107.883205 
L 219.46081 107.92174 
L 219.874514 107.71847 
L 220.585126 107.446767 
L 220.634335 107.310626 
L 220.64453 107.417034 
L 220.86755 107.212499 
L 221.003577 107.0759 
L 221.049132 107.182452 
L 221.132099 107.114092 
L 221.210507 107.045684 
L 221.772815 106.946863 
L 221.818072 107.053636 
L 221.823179 106.985059 
L 222.55862 106.641439 
L 222.769355 107.069623 
L 222.952274 107.000806 
L 223.065575 106.655978 
L 223.668235 106.448486 
L 223.777494 106.309908 
L 223.787425 106.417298 
L 225.492832 106.070046 
L 225.58648 106.000445 
L 226.552993 105.791341 
L 226.830713 105.581782 
L 227.864757 105.339204 
L 229.137532 104.638671 
L 229.763811 104.426013 
L 229.835619 104.534166 
L 229.887612 104.463189 
L 229.935173 104.392161 
L 230.518242 104.178765 
L 230.661651 104.107529 
L 231.98986 103.893506 
L 232.09936 104.001861 
L 232.370022 103.787408 
L 232.410112 103.644177 
L 232.806052 103.357082 
L 232.854094 103.285176 
L 233.779491 102.997023 
L 234.124844 103.105646 
L 234.127583 103.033488 
L 235.128206 102.6719 
L 235.581681 102.889549 
L 238.395017 102.526621 
L 238.543433 102.635836 
L 238.572031 102.562994 
L 239.017957 102.818312 
L 239.839056 102.599422 
L 240.0618 102.453223 
L 240.064924 102.562859 
L 240.173731 102.709235 
L 240.706313 102.342713 
L 240.955093 102.452676 
L 240.973865 102.379221 
L 241.255966 102.268625 
L 241.388941 102.194963 
L 241.713002 102.415439 
L 241.722436 102.341749 
L 242.039633 102.046436 
L 242.51967 101.824367 
L 242.588048 101.676043 
L 242.606137 101.786542 
L 243.898353 101.376416 
L 244.679276 101.670797 
L 244.785631 101.596126 
L 244.873768 101.707266 
L 245.430502 101.632553 
L 245.688788 101.74379 
L 246.283001 101.519353 
L 246.587425 101.742164 
L 248.07779 101.553817 
L 248.118383 101.403534 
L 248.18436 101.515235 
L 248.300747 101.440021 
L 248.494774 101.476565 
L 248.557658 101.401251 
L 249.163972 101.250449 
L 249.621915 101.474418 
L 249.653918 101.398959 
L 249.787503 101.247867 
L 249.927497 101.172234 
L 250.550804 101.020794 
L 251.383992 100.641178 
L 251.385638 100.565079 
L 252.078029 100.260101 
L 252.319079 99.954181 
L 252.373164 100.066573 
L 252.5545 100.179051 
L 253.216957 100.061681 
L 253.621965 100.174375 
L 253.83922 100.097625 
L 253.940501 100.323302 
L 254.04915 100.246521 
L 254.081832 100.169681 
L 254.12111 100.282678 
L 254.163173 100.205792 
L 254.301151 100.051841 
L 254.796085 100.314462 
L 254.86256 100.23738 
L 255.13271 100.614499 
L 255.166381 100.537353 
L 256.235474 100.228168 
L 256.73635 99.995645 
L 256.844963 99.840327 
L 257.323013 99.762577 
L 257.453267 99.990551 
L 257.587079 100.333183 
L 257.602788 100.255443 
L 257.715203 100.177643 
L 257.758632 100.292061 
L 257.818575 100.214214 
L 257.876678 100.136305 
L 257.914229 100.250842 
L 257.941535 100.365469 
L 258.221437 100.209526 
L 258.477752 100.246222 
L 258.516476 100.011706 
L 258.60699 100.1266 
L 258.641236 100.048319 
L 258.912315 100.278408 
L 259.012994 100.50886 
L 259.272428 100.739676 
L 259.307135 100.970858 
L 259.962808 100.930102 
L 259.976055 101.045951 
L 260.282663 100.967631 
L 260.754747 101.391655 
L 261.183418 101.429686 
L 261.31065 101.272666 
L 261.339462 101.505929 
L 261.662456 101.34872 
L 261.774341 101.699404 
L 261.982977 101.93366 
L 262.053723 102.16829 
L 262.134815 102.324736 
L 262.153898 102.246113 
L 262.57686 101.852052 
L 262.62049 101.614855 
L 262.680527 101.85055 
L 262.866488 101.771388 
L 262.916883 101.889393 
L 262.973614 101.810184 
L 263.657549 101.967268 
L 263.870765 101.887962 
L 263.881187 102.0063 
L 264.231435 101.926946 
L 264.313531 102.163939 
L 264.325519 102.084552 
L 264.656336 102.242541 
L 265.184925 102.12281 
L 265.36195 102.241818 
L 265.495986 102.162174 
L 265.497061 102.281294 
L 265.739996 102.758744 
L 265.897955 102.679115 
L 265.930147 102.798737 
L 265.971428 102.639317 
L 266.119691 102.55951 
L 266.566654 102.479638 
L 266.582273 102.599422 
L 266.653862 102.519501 
L 266.831141 102.279347 
L 266.905561 102.63948 
L 267.006754 102.559347 
L 267.105892 102.679604 
L 268.111365 102.278036 
L 268.284303 102.197525 
L 268.796837 102.599422 
L 268.858067 102.518844 
L 269.394743 103.043693 
L 269.497202 103.286589 
L 269.692931 103.205996 
L 269.702633 103.327611 
L 269.893679 103.246969 
L 270.011164 103.368701 
L 270.098888 103.288009 
L 270.111513 103.409859 
L 270.224592 103.329117 
L 270.265368 103.451084 
L 270.551821 103.208508 
L 270.587033 103.330628 
L 270.751997 103.249652 
L 270.786552 103.37189 
L 270.79778 103.290865 
L 270.861845 103.209772 
L 270.922309 103.454621 
L 271.13679 103.373495 
L 271.234557 103.537627 
L 271.357464 103.456401 
L 271.377717 103.579234 
L 271.5191 103.702169 
L 271.776415 103.662655 
L 272.219582 103.746356 
L 272.398179 103.58333 
L 272.490041 103.420032 
L 272.850726 103.543518 
L 272.853946 103.667108 
L 272.942092 103.585391 
L 273.245808 104.080858 
L 273.288711 104.204985 
L 273.335797 104.123288 
L 273.365889 104.041523 
L 273.380472 104.165789 
L 273.597437 104.414637 
L 273.600271 104.332856 
L 273.994783 104.375623 
L 274.397979 104.211754 
L 274.551854 104.336512 
L 274.651365 104.254491 
L 274.661098 104.379372 
L 274.877382 104.132949 
L 275.122694 103.96832 
L 275.252059 104.093397 
L 275.305461 104.010995 
L 275.467176 103.845984 
L 275.997234 104.473234 
L 276.103546 105.103154 
L 276.263228 105.609023 
L 276.322569 105.444248 
L 276.417034 105.279192 
L 276.45797 105.406005 
L 276.630612 105.532926 
L 276.94949 105.45033 
L 277.041808 105.577378 
L 277.321006 105.412012 
L 277.660141 106.011402 
L 277.676921 105.928586 
L 277.762891 105.679709 
L 278.166356 106.192242 
L 278.203927 106.109218 
L 278.544806 106.28313 
L 278.571827 106.79848 
L 278.786876 106.715431 
L 279.163784 107.020114 
L 279.210938 106.853775 
L 279.237109 106.983308 
L 279.263775 107.112953 
L 279.39635 106.946406 
L 279.423535 106.863024 
L 279.851014 107.382975 
L 279.918601 107.299602 
L 279.959239 107.216156 
L 280.32755 107.607433 
L 280.375314 107.523975 
L 280.37626 107.654649 
L 280.499435 107.832872 
L 280.562901 107.96391 
L 280.590376 107.880389 
L 280.671675 107.796796 
L 280.880104 108.0593 
L 281.034902 108.238681 
L 281.281068 108.11923 
L 281.293809 108.251086 
L 281.36041 108.167251 
L 281.482866 108.479734 
L 281.486673 109.541924 
L 281.698118 109.458178 
L 281.756636 109.591502 
L 282.175853 109.389392 
L 282.232289 109.523042 
L 282.521602 109.790697 
L 282.837608 109.974865 
L 282.953177 109.890827 
L 283.240738 110.294054 
L 283.529319 110.34468 
L 283.536466 110.260582 
L 284.1479 110.092159 
L 284.156162 110.007835 
L 284.373493 109.923436 
L 284.410947 110.058341 
L 284.499294 109.973888 
L 284.653932 109.804756 
L 284.680941 109.93985 
L 284.77143 110.210401 
L 284.806573 110.345858 
L 284.826609 110.26127 
L 285.463532 110.396872 
L 285.476997 110.532596 
L 286.146598 110.907585 
L 286.552234 110.738151 
L 286.900555 111.284608 
L 286.957134 111.19987 
L 287.000427 111.115056 
L 287.335694 111.526338 
L 287.398093 111.441518 
L 287.696063 111.631526 
L 287.711579 111.769166 
L 288.357976 111.906931 
L 288.358196 112.044821 
L 288.547493 111.959966 
L 289.049598 111.875034 
L 289.601633 112.289603 
L 289.812908 112.119652 
L 289.8968 112.311716 
L 290.250067 111.970768 
L 290.567253 112.109634 
L 290.689223 112.024226 
L 291.288647 111.93874 
L 291.529152 112.356248 
L 291.53417 112.270757 
L 291.854954 112.013815 
L 291.986373 111.842127 
L 292.067339 111.9817 
L 293.065697 111.809744 
L 293.22735 111.949495 
L 293.65527 112.143361 
L 293.851057 112.05726 
L 293.915838 112.197447 
L 294.206245 112.337764 
L 294.210628 112.251633 
L 294.295858 112.165423 
L 294.63975 112.587304 
L 294.828944 112.86921 
L 295.154019 112.696802 
L 295.866423 113.120795 
L 296.0031 113.262389 
L 296.4025 113.176168 
L 296.702134 113.515593 
L 297.007727 113.800073 
L 297.22499 114.085084 
L 297.258034 114.227789 
L 297.726311 114.513599 
L 297.762154 114.427479 
L 297.955041 114.570611 
L 298.711341 114.541501 
L 298.770835 114.684955 
L 298.823008 114.598673 
L 299.014548 114.51231 
L 299.212844 114.799729 
L 299.323146 115.231871 
L 299.477946 115.145562 
L 299.598669 115.289908 
L 299.718599 115.1171 
L 299.795829 115.261636 
L 299.894142 115.551118 
L 300.011094 115.464675 
L 300.265304 115.754759 
L 300.840155 115.813564 
L 301.046539 115.72704 
L 301.202888 115.931509 
L 301.337824 115.844877 
L 301.416395 115.99065 
L 301.856518 115.789434 
L 302.144609 115.702446 
L 302.348337 115.994965 
L 302.472291 116.141434 
L 302.874522 116.054448 
L 302.882833 116.201084 
L 303.122309 116.494777 
L 303.260322 117.083848 
L 303.361727 117.231468 
L 303.69864 116.883612 
L 303.705869 117.03149 
L 303.996227 117.179509 
L 304.021658 117.327671 
L 304.093452 117.153418 
L 304.324271 117.066165 
L 304.847134 117.573373 
L 304.887917 117.722367 
L 304.963525 117.635094 
L 305.245629 117.547738 
L 305.324304 117.696935 
L 305.423949 117.609524 
L 305.621637 117.908411 
L 305.73836 118.207877 
L 305.851253 118.120501 
L 305.863557 118.033041 
L 305.887977 118.183052 
L 306.475011 118.007939 
L 306.563124 117.920254 
L 306.985143 118.34674 
L 307.010336 118.258922 
L 307.153717 118.083029 
L 307.569537 118.663506 
L 307.805159 118.815293 
L 307.809335 118.967229 
L 307.87565 118.702879 
L 307.963144 119.007386 
L 308.501791 119.159863 
L 308.885145 119.071668 
L 308.931915 119.224327 
L 309.093405 119.136077 
L 309.158365 119.288917 
L 309.533397 119.11222 
L 309.868252 119.265275 
L 310.008314 119.176827 
L 310.428572 119.94453 
L 310.602955 120.098526 
L 310.812348 119.921755 
L 310.92053 120.849331 
L 310.992331 121.004464 
L 311.073695 120.916178 
L 311.554219 121.071498 
L 311.753748 122.163082 
L 312.388212 122.545238 
L 312.545715 123.086499 
L 312.836457 122.99846 
L 313.067888 123.630479 
L 313.113533 123.788881 
L 313.353458 124.106162 
L 313.411352 124.018282 
L 314.058883 124.248376 
L 314.202888 124.726676 
L 314.500363 125.439375 
L 314.554869 125.351591 
L 314.672358 125.263718 
L 315.226193 125.746235 
L 315.384151 126.540351 
L 315.645184 127.190258 
L 315.681558 127.102606 
L 315.893996 127.002157 
L 316.276969 127.819897 
L 316.387266 127.732118 
L 316.516764 127.644249 
L 316.694014 127.808379 
L 316.767325 128.301784 
L 316.769073 128.213982 
L 316.939689 128.543846 
L 317.266263 128.709034 
L 317.401963 129.20562 
L 317.531264 129.030225 
L 318.564756 129.940931 
L 318.593615 129.853251 
L 318.605345 129.76548 
L 318.728655 130.099876 
L 318.744849 130.267335 
L 318.938621 130.434969 
L 318.942968 130.602777 
L 319.235031 130.77076 
L 319.385367 131.188276 
L 319.735502 131.694991 
L 320.10385 133.224727 
L 320.346989 133.137667 
L 320.476713 133.479665 
L 321.049511 133.907085 
L 321.08888 134.078941 
L 321.376835 133.817736 
L 321.436124 133.989909 
L 321.456958 134.162264 
L 321.873136 134.5934 
L 321.909224 134.506281 
L 322.044899 134.939296 
L 322.582632 135.287037 
L 322.920289 135.199962 
L 323.050178 135.374157 
L 323.200255 135.287037 
L 323.335831 136.336398 
L 323.712264 137.039724 
L 323.981179 136.779221 
L 323.997391 136.955668 
L 324.059064 137.132305 
L 324.188606 137.045381 
L 324.465182 137.667203 
L 324.506104 137.844891 
L 324.667464 137.758023 
L 324.850069 138.114074 
L 324.891882 138.292388 
L 325.447436 138.741825 
L 325.53247 139.100296 
L 325.627993 139.999886 
L 326.123409 140.72309 
L 326.183444 140.904384 
L 326.24523 140.818238 
L 326.502406 141.363466 
L 326.562996 141.545606 
L 326.567338 141.459575 
L 326.952011 141.641967 
L 326.953347 141.555894 
L 327.343082 141.469727 
L 327.509553 141.932321 
L 327.595477 141.759832 
L 327.810615 142.126956 
L 327.849242 142.310822 
L 328.166255 142.679161 
L 328.214541 142.593043 
L 328.232066 142.50683 
L 328.263517 142.691413 
L 328.3853 143.061193 
L 328.451554 143.431791 
L 328.575595 143.617398 
L 328.691635 143.531418 
L 328.849569 144.751157 
L 329.008641 145.126118 
L 329.172482 145.501916 
L 329.197895 145.69013 
L 329.239001 145.604636 
L 329.401989 145.43336 
L 329.755587 146.378459 
L 329.951643 146.207379 
L 330.059053 146.397153 
L 330.278241 146.311527 
L 330.378708 146.691832 
L 330.719093 146.520527 
L 330.805374 147.092947 
L 330.872167 147.007328 
L 331.137389 147.198625 
L 331.291799 147.581869 
L 331.32591 147.773816 
L 331.505004 147.965981 
L 331.544604 148.26567 
L 331.572283 148.180278 
L 331.676676 148.37322 
L 331.6933 148.75976 
L 331.814471 148.95336 
L 331.911369 148.868117 
L 332.574809 151.912634 
L 333.09482 152.110162 
L 333.19313 152.025804 
L 333.547743 152.734263 
L 333.564753 152.649973 
L 333.626966 152.565585 
L 333.784886 152.963682 
L 333.837069 152.879329 
L 334.004221 153.309807 
L 334.062118 153.510097 
L 334.244791 153.710619 
L 334.370623 154.515045 
L 334.711209 154.918665 
L 335.103293 155.931846 
L 335.172391 155.848292 
L 335.199973 155.764641 
L 335.231613 155.968128 
L 335.24118 155.884449 
L 336.085281 157.644131 
L 336.296691 159.299265 
L 336.367708 159.216618 
L 336.470184 159.133873 
L 336.506668 159.342017 
L 336.592756 159.259248 
L 336.664716 159.676428 
L 336.798566 160.513771 
L 336.834101 160.431356 
L 336.862018 160.348841 
L 336.899096 160.558954 
L 336.965809 160.769317 
L 337.523117 161.190798 
L 337.590595 161.613289 
L 338.056799 162.036793 
L 338.663256 163.578187 
L 338.682787 163.79253 
L 338.921776 164.221995 
L 339.402219 165.950282 
L 339.586253 166.602726 
L 339.766885 166.820737 
L 339.807126 167.257555 
L 339.868461 167.177392 
L 340.307724 168.194702 
L 340.489621 168.99802 
L 340.730024 169.361764 
L 340.967739 169.726852 
L 341.203052 169.949612 
L 341.498051 171.067542 
L 341.668899 171.516653 
L 341.683443 171.741625 
L 342.007922 171.966877 
L 342.031513 172.418219 
L 342.115105 172.339767 
L 342.180118 172.565951 
L 342.204074 173.246191 
L 342.244579 173.168011 
L 342.663146 173.395415 
L 343.03889 174.079334 
L 343.13058 174.536705 
L 343.685221 174.76582 
L 344.04804 175.607917 
L 344.057553 175.530582 
L 344.135528 175.45315 
L 344.346686 176.146555 
L 344.579667 176.610282 
L 344.587834 176.842585 
L 344.814793 177.07518 
L 344.825144 177.30807 
L 344.86773 177.231321 
L 345.053165 177.154475 
L 345.071952 177.621534 
L 345.114115 177.544789 
L 345.252517 177.467947 
L 345.272852 177.70212 
L 345.492594 178.171359 
L 345.817454 179.113424 
L 345.973354 179.03719 
L 346.066074 179.273559 
L 346.235017 179.197329 
L 346.525601 179.671178 
L 346.67444 179.595056 
L 346.787801 180.709813 
L 347.059211 181.188346 
L 347.239226 181.11276 
L 347.297349 181.352594 
L 347.528812 181.592737 
L 348.248704 185.232352 
L 348.312412 185.158511 
L 348.398035 185.084574 
L 348.435129 186.068057 
L 348.548909 185.994473 
L 348.96429 186.241259 
L 349.106965 186.735802 
L 349.447343 187.728781 
L 349.525101 187.6559 
L 349.604718 188.40441 
L 349.836285 188.654571 
L 349.865586 188.905061 
L 350.073465 189.155881 
L 350.330187 190.343277 
L 350.44781 190.271501 
L 350.492824 190.524556 
L 351.017853 190.777947 
L 351.143178 191.540141 
L 351.144149 191.468874 
L 351.517671 191.907821 
L 352.458066 193.11897 
L 352.49401 193.376472 
L 353.06464 193.892512 
L 353.119399 194.409937 
L 353.472858 194.669171 
L 354.52796 196.949271 
L 354.599491 197.475389 
L 354.772098 198.002934 
L 354.832634 198.267244 
L 355.169474 198.531912 
L 355.351051 199.062328 
L 355.618278 199.328077 
L 355.66907 199.594189 
L 355.804916 199.526661 
L 356.09294 200.060243 
L 356.269845 200.595283 
L 356.886354 200.863352 
L 356.952387 201.669761 
L 357.874424 202.750142 
L 357.928756 203.021166 
L 358.049595 202.955345 
L 358.808527 205.073397 
L 359.239476 205.348094 
L 359.361927 205.623172 
L 359.489919 206.450698 
L 359.809346 207.0043 
L 359.818466 207.281678 
L 360.040454 207.217999 
L 360.185788 207.495913 
L 360.542991 207.774215 
L 360.556026 208.611455 
L 360.785683 208.891316 
L 361.029066 209.733251 
L 361.180486 209.670844 
L 361.438453 210.799564 
L 361.61946 210.737688 
L 361.759622 211.304745 
L 361.938273 211.588873 
L 362.074408 212.443668 
L 362.221735 212.729405 
L 362.388922 212.668545 
L 362.541953 213.528667 
L 362.599994 213.816189 
L 362.665837 213.755884 
L 362.807874 214.043976 
L 362.947654 213.983747 
L 362.952929 214.272411 
L 363.414676 214.850974 
L 363.546481 216.304622 
L 363.607708 216.888997 
L 363.948231 217.181813 
L 364.193227 217.768706 
L 364.580249 219.243338 
L 364.849152 219.53954 
L 364.878531 219.482408 
L 365.777317 221.569065 
L 365.905702 222.16915 
L 366.200889 223.677015 
L 366.480194 224.283243 
L 366.776326 224.587021 
L 366.780887 224.891243 
L 367.036658 225.501024 
L 367.047394 226.112593 
L 367.233752 226.059319 
L 367.337713 226.365963 
L 367.801815 226.673057 
L 368.062647 228.473294 
L 368.168537 229.717923 
L 368.4725 230.292242 
L 368.54473 230.919575 
L 368.599649 230.869124 
L 368.982106 230.818598 
L 369.160567 231.133358 
L 369.164673 231.082954 
L 370.398183 232.347493 
L 370.430194 232.664811 
L 371.053071 233.619621 
L 371.292335 233.938846 
L 371.396996 234.578738 
L 371.636259 234.899406 
L 371.731598 235.542192 
L 372.229093 237.157666 
L 372.632826 237.482228 
L 372.689148 237.807282 
L 372.776976 237.761098 
L 373.628727 239.39485 
L 373.832303 240.710832 
L 373.998534 240.666512 
L 374.112715 240.996983 
L 374.722534 241.659443 
L 375.037578 242.947627 
L 375.198324 244.287756 
L 375.502058 244.624081 
L 375.542681 245.29829 
L 375.888927 245.974586 
L 376.222709 247.33348 
L 376.538703 248.358202 
L 376.818041 248.70084 
L 377.027479 248.66185 
L 377.029893 249.005259 
L 377.648236 250.03871 
L 377.656488 250.384271 
L 378.196004 251.077019 
L 378.511242 251.424209 
L 378.911381 253.518834 
L 379.541697 254.221451 
L 379.609579 254.92629 
L 379.788256 254.891639 
L 379.824726 255.245147 
L 379.981775 258.452092 
L 380.295493 258.811263 
L 380.595439 260.253698 
L 381.413249 261.705402 
L 382.27513 262.069786 
L 382.666949 263.900532 
L 382.849564 263.872403 
L 382.99842 264.240601 
L 383.32358 264.609395 
L 383.360067 265.348777 
L 383.552969 265.719367 
L 383.69412 267.555991 
L 383.733662 268.305615 
L 383.984178 268.681346 
L 384.020122 268.656781 
L 384.056408 269.033414 
L 384.598039 269.788533 
L 384.787191 271.306222 
L 384.985864 271.687206 
L 385.388115 271.664935 
L 385.655342 272.046842 
L 385.935649 273.196353 
L 386.247344 273.580791 
L 387.016043 273.559976 
L 387.922688 274.331367 
L 388.128904 274.718023 
L 388.136735 274.698084 
L 388.166498 275.085688 
L 389.190264 277.033412 
L 389.972519 277.817062 
L 390.126799 278.20987 
L 390.173918 279.39225 
L 390.484343 279.787701 
L 390.743316 280.978046 
L 390.923607 281.774955 
L 391.300551 282.174419 
L 391.4224 282.574557 
L 391.810523 282.975371 
L 391.955954 283.376864 
L 392.791592 283.779037 
L 393.359512 284.181891 
L 393.561928 285.394562 
L 394.240671 286.195786 
L 394.260178 287.419829 
L 394.699441 287.410166 
L 395.165664 288.23037 
L 396.675292 289.045087 
L 396.677082 289.458002 
L 396.872521 289.871629 
L 396.916345 290.285967 
L 397.111785 290.701018 
L 397.174692 291.116786 
L 397.417994 291.53327 
L 397.979936 291.950475 
L 398.455889 291.938754 
L 398.487273 292.357393 
L 398.487273 292.357393 
" style="fill:none;stroke:#2ca02c;stroke-dasharray:1.5,2.475;stroke-dashoffset:0;stroke-width:1.5;"/>
   </g>
   <g id="line2d_15">
    <defs>
     <path d="M 0 1.5 
C 0.397805 1.5 0.77937 1.341951 1.06066 1.06066 
C 1.341951 0.77937 1.5 0.397805 1.5 0 
C 1.5 -0.397805 1.341951 -0.77937 1.06066 -1.06066 
C 0.77937 -1.341951 0.397805 -1.5 0 -1.5 
C -0.397805 -1.5 -0.77937 -1.341951 -1.06066 -1.06066 
C -1.341951 -0.77937 -1.5 -0.397805 -1.5 0 
C -1.5 0.397805 -1.341951 0.77937 -1.06066 1.06066 
C -0.77937 1.341951 -0.397805 1.5 0 1.5 
z
" id="md1d27c5139" style="stroke:#008000;"/>
    </defs>
    <g clip-path="url(#p0975a7e349)">
     <use style="fill:#008000;stroke:#008000;" x="257.323013" xlink:href="#md1d27c5139" y="99.762577"/>
    </g>
   </g>
   <g id="patch_3">
    <path d="M 57.6 307.584 
L 57.6 41.472 
" style="fill:none;stroke:#000000;stroke-linecap:square;stroke-linejoin:miter;stroke-width:0.8;"/>
   </g>
   <g id="patch_4">
    <path d="M 414.72 307.584 
L 414.72 41.472 
" style="fill:none;stroke:#000000;stroke-linecap:square;stroke-linejoin:miter;stroke-width:0.8;"/>
   </g>
   <g id="patch_5">
    <path d="M 57.6 307.584 
L 414.72 307.584 
" style="fill:none;stroke:#000000;stroke-linecap:square;stroke-linejoin:miter;stroke-width:0.8;"/>
   </g>
   <g id="patch_6">
    <path d="M 57.6 41.472 
L 414.72 41.472 
" style="fill:none;stroke:#000000;stroke-linecap:square;stroke-linejoin:miter;stroke-width:0.8;"/>
   </g>
   <g id="text_14">
    <!-- (2.69 0.81) -->
    <g style="fill:#008000;" transform="translate(176.57126 99.762577)scale(0.1 -0.1)">
     <defs>
      <path d="M 1984 4856 
Q 1566 4138 1362 3434 
Q 1159 2731 1159 2009 
Q 1159 1288 1364 580 
Q 1569 -128 1984 -844 
L 1484 -844 
Q 1016 -109 783 600 
Q 550 1309 550 2009 
Q 550 2706 781 3412 
Q 1013 4119 1484 4856 
L 1984 4856 
z
" id="DejaVuSans-28" transform="scale(0.015625)"/>
      <path d="M 703 97 
L 703 672 
Q 941 559 1184 500 
Q 1428 441 1663 441 
Q 2288 441 2617 861 
Q 2947 1281 2994 2138 
Q 2813 1869 2534 1725 
Q 2256 1581 1919 1581 
Q 1219 1581 811 2004 
Q 403 2428 403 3163 
Q 403 3881 828 4315 
Q 1253 4750 1959 4750 
Q 2769 4750 3195 4129 
Q 3622 3509 3622 2328 
Q 3622 1225 3098 567 
Q 2575 -91 1691 -91 
Q 1453 -91 1209 -44 
Q 966 3 703 97 
z
M 1959 2075 
Q 2384 2075 2632 2365 
Q 2881 2656 2881 3163 
Q 2881 3666 2632 3958 
Q 2384 4250 1959 4250 
Q 1534 4250 1286 3958 
Q 1038 3666 1038 3163 
Q 1038 2656 1286 2365 
Q 1534 2075 1959 2075 
z
" id="DejaVuSans-39" transform="scale(0.015625)"/>
      <path id="DejaVuSans-20" transform="scale(0.015625)"/>
      <path d="M 513 4856 
L 1013 4856 
Q 1481 4119 1714 3412 
Q 1947 2706 1947 2009 
Q 1947 1309 1714 600 
Q 1481 -109 1013 -844 
L 513 -844 
Q 928 -128 1133 580 
Q 1338 1288 1338 2009 
Q 1338 2731 1133 3434 
Q 928 4138 513 4856 
z
" id="DejaVuSans-29" transform="scale(0.015625)"/>
     </defs>
     <use xlink:href="#DejaVuSans-28"/>
     <use x="39.013672" xlink:href="#DejaVuSans-32"/>
     <use x="102.636719" xlink:href="#DejaVuSans-2e"/>
     <use x="134.423828" xlink:href="#DejaVuSans-36"/>
     <use x="198.046875" xlink:href="#DejaVuSans-39"/>
     <use x="261.669922" xlink:href="#DejaVuSans-20"/>
     <use x="293.457031" xlink:href="#DejaVuSans-30"/>
     <use x="357.080078" xlink:href="#DejaVuSans-2e"/>
     <use x="388.867188" xlink:href="#DejaVuSans-38"/>
     <use x="452.490234" xlink:href="#DejaVuSans-31"/>
     <use x="516.113281" xlink:href="#DejaVuSans-29"/>
    </g>
   </g>
   <g id="legend_1">
    <g id="patch_7">
     <path d="M 64.6 302.584 
L 141.214063 302.584 
Q 143.214063 302.584 143.214063 300.584 
L 143.214063 257.549625 
Q 143.214063 255.549625 141.214063 255.549625 
L 64.6 255.549625 
Q 62.6 255.549625 62.6 257.549625 
L 62.6 300.584 
Q 62.6 302.584 64.6 302.584 
z
" style="fill:#ffffff;opacity:0.8;stroke:#cccccc;stroke-linejoin:miter;"/>
    </g>
    <g id="line2d_16">
     <path d="M 66.6 263.648062 
L 86.6 263.648062 
" style="fill:none;stroke:#1f77b4;stroke-dasharray:5.55,2.4;stroke-dashoffset:0;stroke-width:1.5;"/>
    </g>
    <g id="line2d_17"/>
    <g id="text_15">
     <!-- Precision -->
     <g transform="translate(94.6 267.148062)scale(0.1 -0.1)">
      <defs>
       <path d="M 1259 4147 
L 1259 2394 
L 2053 2394 
Q 2494 2394 2734 2622 
Q 2975 2850 2975 3272 
Q 2975 3691 2734 3919 
Q 2494 4147 2053 4147 
L 1259 4147 
z
M 628 4666 
L 2053 4666 
Q 2838 4666 3239 4311 
Q 3641 3956 3641 3272 
Q 3641 2581 3239 2228 
Q 2838 1875 2053 1875 
L 1259 1875 
L 1259 0 
L 628 0 
L 628 4666 
z
" id="DejaVuSans-50" transform="scale(0.015625)"/>
       <path d="M 3513 2113 
L 3513 0 
L 2938 0 
L 2938 2094 
Q 2938 2591 2744 2837 
Q 2550 3084 2163 3084 
Q 1697 3084 1428 2787 
Q 1159 2491 1159 1978 
L 1159 0 
L 581 0 
L 581 3500 
L 1159 3500 
L 1159 2956 
Q 1366 3272 1645 3428 
Q 1925 3584 2291 3584 
Q 2894 3584 3203 3211 
Q 3513 2838 3513 2113 
z
" id="DejaVuSans-6e" transform="scale(0.015625)"/>
      </defs>
      <use xlink:href="#DejaVuSans-50"/>
      <use x="58.552734" xlink:href="#DejaVuSans-72"/>
      <use x="97.416016" xlink:href="#DejaVuSans-65"/>
      <use x="158.939453" xlink:href="#DejaVuSans-63"/>
      <use x="213.919922" xlink:href="#DejaVuSans-69"/>
      <use x="241.703125" xlink:href="#DejaVuSans-73"/>
      <use x="293.802734" xlink:href="#DejaVuSans-69"/>
      <use x="321.585938" xlink:href="#DejaVuSans-6f"/>
      <use x="382.767578" xlink:href="#DejaVuSans-6e"/>
     </g>
    </g>
    <g id="line2d_18">
     <path d="M 66.6 278.326188 
L 86.6 278.326188 
" style="fill:none;stroke:#ff7f0e;stroke-dasharray:9.6,2.4,1.5,2.4;stroke-dashoffset:0;stroke-width:1.5;"/>
    </g>
    <g id="line2d_19"/>
    <g id="text_16">
     <!-- Recall -->
     <g transform="translate(94.6 281.826188)scale(0.1 -0.1)">
      <defs>
       <path d="M 2841 2188 
Q 3044 2119 3236 1894 
Q 3428 1669 3622 1275 
L 4263 0 
L 3584 0 
L 2988 1197 
Q 2756 1666 2539 1819 
Q 2322 1972 1947 1972 
L 1259 1972 
L 1259 0 
L 628 0 
L 628 4666 
L 2053 4666 
Q 2853 4666 3247 4331 
Q 3641 3997 3641 3322 
Q 3641 2881 3436 2590 
Q 3231 2300 2841 2188 
z
M 1259 4147 
L 1259 2491 
L 2053 2491 
Q 2509 2491 2742 2702 
Q 2975 2913 2975 3322 
Q 2975 3731 2742 3939 
Q 2509 4147 2053 4147 
L 1259 4147 
z
" id="DejaVuSans-52" transform="scale(0.015625)"/>
       <path d="M 2194 1759 
Q 1497 1759 1228 1600 
Q 959 1441 959 1056 
Q 959 750 1161 570 
Q 1363 391 1709 391 
Q 2188 391 2477 730 
Q 2766 1069 2766 1631 
L 2766 1759 
L 2194 1759 
z
M 3341 1997 
L 3341 0 
L 2766 0 
L 2766 531 
Q 2569 213 2275 61 
Q 1981 -91 1556 -91 
Q 1019 -91 701 211 
Q 384 513 384 1019 
Q 384 1609 779 1909 
Q 1175 2209 1959 2209 
L 2766 2209 
L 2766 2266 
Q 2766 2663 2505 2880 
Q 2244 3097 1772 3097 
Q 1472 3097 1187 3025 
Q 903 2953 641 2809 
L 641 3341 
Q 956 3463 1253 3523 
Q 1550 3584 1831 3584 
Q 2591 3584 2966 3190 
Q 3341 2797 3341 1997 
z
" id="DejaVuSans-61" transform="scale(0.015625)"/>
      </defs>
      <use xlink:href="#DejaVuSans-52"/>
      <use x="64.982422" xlink:href="#DejaVuSans-65"/>
      <use x="126.505859" xlink:href="#DejaVuSans-63"/>
      <use x="181.486328" xlink:href="#DejaVuSans-61"/>
      <use x="242.765625" xlink:href="#DejaVuSans-6c"/>
      <use x="270.548828" xlink:href="#DejaVuSans-6c"/>
     </g>
    </g>
    <g id="line2d_20">
     <path d="M 66.6 293.004312 
L 86.6 293.004312 
" style="fill:none;stroke:#2ca02c;stroke-dasharray:1.5,2.475;stroke-dashoffset:0;stroke-width:1.5;"/>
    </g>
    <g id="line2d_21"/>
    <g id="text_17">
     <!-- F1 score -->
     <g transform="translate(94.6 296.504312)scale(0.1 -0.1)">
      <defs>
       <path d="M 628 4666 
L 3309 4666 
L 3309 4134 
L 1259 4134 
L 1259 2759 
L 3109 2759 
L 3109 2228 
L 1259 2228 
L 1259 0 
L 628 0 
L 628 4666 
z
" id="DejaVuSans-46" transform="scale(0.015625)"/>
      </defs>
      <use xlink:href="#DejaVuSans-46"/>
      <use x="57.519531" xlink:href="#DejaVuSans-31"/>
      <use x="121.142578" xlink:href="#DejaVuSans-20"/>
      <use x="152.929688" xlink:href="#DejaVuSans-73"/>
      <use x="205.029297" xlink:href="#DejaVuSans-63"/>
      <use x="260.009766" xlink:href="#DejaVuSans-6f"/>
      <use x="321.191406" xlink:href="#DejaVuSans-72"/>
      <use x="360.054688" xlink:href="#DejaVuSans-65"/>
     </g>
    </g>
   </g>
  </g>
 </g>
 <defs>
  <clipPath id="p0975a7e349">
   <rect height="266.112" width="357.12" x="57.6" y="41.472"/>
  </clipPath>
 </defs>
</svg>
