<?xml version="1.0" encoding="utf-8" standalone="no"?>
<!DOCTYPE svg PUBLIC "-//W3C//DTD SVG 1.1//EN"
  "http://www.w3.org/Graphics/SVG/1.1/DTD/svg11.dtd">
<svg height="345.6pt" version="1.1" viewBox="0 0 460.8 345.6" width="460.8pt" xmlns="http://www.w3.org/2000/svg" xmlns:xlink="http://www.w3.org/1999/xlink">
 <metadata>
  <rdf:RDF xmlns:cc="http://creativecommons.org/ns#" xmlns:dc="http://purl.org/dc/elements/1.1/" xmlns:rdf="http://www.w3.org/1999/02/22-rdf-syntax-ns#">
   <cc:Work>
    <dc:type rdf:resource="http://purl.org/dc/dcmitype/StillImage"/>
    <dc:date>2021-06-25T19:16:56.949386</dc:date>
    <dc:format>image/svg+xml</dc:format>
    <dc:creator>
     <cc:Agent>
      <dc:title>Matplotlib v3.4.2, https://matplotlib.org/</dc:title>
     </cc:Agent>
    </dc:creator>
   </cc:Work>
  </rdf:RDF>
 </metadata>
 <defs>
  <style type="text/css">*{stroke-linecap:butt;stroke-linejoin:round;}</style>
 </defs>
 <g id="figure_1">
  <g id="patch_1">
   <path d="M 0 345.6 
L 460.8 345.6 
L 460.8 0 
L 0 0 
z
" style="fill:#ffffff;"/>
  </g>
  <g id="axes_1">
   <g id="patch_2">
    <path d="M 57.6 307.584 
L 414.72 307.584 
L 414.72 41.472 
L 57.6 41.472 
z
" style="fill:#ffffff;"/>
   </g>
   <g id="patch_3">
    <path clip-path="url(#p11a3bed4be)" d="M 87.36 74.736 
L 102.24 74.736 
L 102.24 63.648 
L 87.36 63.648 
z
" style="fill:none;stroke:#000000;stroke-dasharray:3.7,1.6;stroke-dashoffset:0;stroke-linejoin:miter;"/>
   </g>
   <g id="matplotlib.axis_1">
    <g id="xtick_1">
     <g id="line2d_1">
      <defs>
       <path d="M 0 0 
L 0 3.5 
" id="m84bc4c4cdb" style="stroke:#000000;stroke-width:0.8;"/>
      </defs>
      <g>
       <use style="stroke:#000000;stroke-width:0.8;" x="87.36" xlink:href="#m84bc4c4cdb" y="307.584"/>
      </g>
     </g>
     <g id="text_1">
      <!-- 0.0 -->
      <g transform="translate(79.408438 322.182437)scale(0.1 -0.1)">
       <defs>
        <path d="M 2034 4250 
Q 1547 4250 1301 3770 
Q 1056 3291 1056 2328 
Q 1056 1369 1301 889 
Q 1547 409 2034 409 
Q 2525 409 2770 889 
Q 3016 1369 3016 2328 
Q 3016 3291 2770 3770 
Q 2525 4250 2034 4250 
z
M 2034 4750 
Q 2819 4750 3233 4129 
Q 3647 3509 3647 2328 
Q 3647 1150 3233 529 
Q 2819 -91 2034 -91 
Q 1250 -91 836 529 
Q 422 1150 422 2328 
Q 422 3509 836 4129 
Q 1250 4750 2034 4750 
z
" id="DejaVuSans-30" transform="scale(0.015625)"/>
        <path d="M 684 794 
L 1344 794 
L 1344 0 
L 684 0 
L 684 794 
z
" id="DejaVuSans-2e" transform="scale(0.015625)"/>
       </defs>
       <use xlink:href="#DejaVuSans-30"/>
       <use x="63.623047" xlink:href="#DejaVuSans-2e"/>
       <use x="95.410156" xlink:href="#DejaVuSans-30"/>
      </g>
     </g>
    </g>
    <g id="xtick_2">
     <g id="line2d_2">
      <g>
       <use style="stroke:#000000;stroke-width:0.8;" x="146.88" xlink:href="#m84bc4c4cdb" y="307.584"/>
      </g>
     </g>
     <g id="text_2">
      <!-- 0.2 -->
      <g transform="translate(138.928438 322.182437)scale(0.1 -0.1)">
       <defs>
        <path d="M 1228 531 
L 3431 531 
L 3431 0 
L 469 0 
L 469 531 
Q 828 903 1448 1529 
Q 2069 2156 2228 2338 
Q 2531 2678 2651 2914 
Q 2772 3150 2772 3378 
Q 2772 3750 2511 3984 
Q 2250 4219 1831 4219 
Q 1534 4219 1204 4116 
Q 875 4013 500 3803 
L 500 4441 
Q 881 4594 1212 4672 
Q 1544 4750 1819 4750 
Q 2544 4750 2975 4387 
Q 3406 4025 3406 3419 
Q 3406 3131 3298 2873 
Q 3191 2616 2906 2266 
Q 2828 2175 2409 1742 
Q 1991 1309 1228 531 
z
" id="DejaVuSans-32" transform="scale(0.015625)"/>
       </defs>
       <use xlink:href="#DejaVuSans-30"/>
       <use x="63.623047" xlink:href="#DejaVuSans-2e"/>
       <use x="95.410156" xlink:href="#DejaVuSans-32"/>
      </g>
     </g>
    </g>
    <g id="xtick_3">
     <g id="line2d_3">
      <g>
       <use style="stroke:#000000;stroke-width:0.8;" x="206.4" xlink:href="#m84bc4c4cdb" y="307.584"/>
      </g>
     </g>
     <g id="text_3">
      <!-- 0.4 -->
      <g transform="translate(198.448438 322.182437)scale(0.1 -0.1)">
       <defs>
        <path d="M 2419 4116 
L 825 1625 
L 2419 1625 
L 2419 4116 
z
M 2253 4666 
L 3047 4666 
L 3047 1625 
L 3713 1625 
L 3713 1100 
L 3047 1100 
L 3047 0 
L 2419 0 
L 2419 1100 
L 313 1100 
L 313 1709 
L 2253 4666 
z
" id="DejaVuSans-34" transform="scale(0.015625)"/>
       </defs>
       <use xlink:href="#DejaVuSans-30"/>
       <use x="63.623047" xlink:href="#DejaVuSans-2e"/>
       <use x="95.410156" xlink:href="#DejaVuSans-34"/>
      </g>
     </g>
    </g>
    <g id="xtick_4">
     <g id="line2d_4">
      <g>
       <use style="stroke:#000000;stroke-width:0.8;" x="265.92" xlink:href="#m84bc4c4cdb" y="307.584"/>
      </g>
     </g>
     <g id="text_4">
      <!-- 0.6 -->
      <g transform="translate(257.968437 322.182437)scale(0.1 -0.1)">
       <defs>
        <path d="M 2113 2584 
Q 1688 2584 1439 2293 
Q 1191 2003 1191 1497 
Q 1191 994 1439 701 
Q 1688 409 2113 409 
Q 2538 409 2786 701 
Q 3034 994 3034 1497 
Q 3034 2003 2786 2293 
Q 2538 2584 2113 2584 
z
M 3366 4563 
L 3366 3988 
Q 3128 4100 2886 4159 
Q 2644 4219 2406 4219 
Q 1781 4219 1451 3797 
Q 1122 3375 1075 2522 
Q 1259 2794 1537 2939 
Q 1816 3084 2150 3084 
Q 2853 3084 3261 2657 
Q 3669 2231 3669 1497 
Q 3669 778 3244 343 
Q 2819 -91 2113 -91 
Q 1303 -91 875 529 
Q 447 1150 447 2328 
Q 447 3434 972 4092 
Q 1497 4750 2381 4750 
Q 2619 4750 2861 4703 
Q 3103 4656 3366 4563 
z
" id="DejaVuSans-36" transform="scale(0.015625)"/>
       </defs>
       <use xlink:href="#DejaVuSans-30"/>
       <use x="63.623047" xlink:href="#DejaVuSans-2e"/>
       <use x="95.410156" xlink:href="#DejaVuSans-36"/>
      </g>
     </g>
    </g>
    <g id="xtick_5">
     <g id="line2d_5">
      <g>
       <use style="stroke:#000000;stroke-width:0.8;" x="325.44" xlink:href="#m84bc4c4cdb" y="307.584"/>
      </g>
     </g>
     <g id="text_5">
      <!-- 0.8 -->
      <g transform="translate(317.488437 322.182437)scale(0.1 -0.1)">
       <defs>
        <path d="M 2034 2216 
Q 1584 2216 1326 1975 
Q 1069 1734 1069 1313 
Q 1069 891 1326 650 
Q 1584 409 2034 409 
Q 2484 409 2743 651 
Q 3003 894 3003 1313 
Q 3003 1734 2745 1975 
Q 2488 2216 2034 2216 
z
M 1403 2484 
Q 997 2584 770 2862 
Q 544 3141 544 3541 
Q 544 4100 942 4425 
Q 1341 4750 2034 4750 
Q 2731 4750 3128 4425 
Q 3525 4100 3525 3541 
Q 3525 3141 3298 2862 
Q 3072 2584 2669 2484 
Q 3125 2378 3379 2068 
Q 3634 1759 3634 1313 
Q 3634 634 3220 271 
Q 2806 -91 2034 -91 
Q 1263 -91 848 271 
Q 434 634 434 1313 
Q 434 1759 690 2068 
Q 947 2378 1403 2484 
z
M 1172 3481 
Q 1172 3119 1398 2916 
Q 1625 2713 2034 2713 
Q 2441 2713 2670 2916 
Q 2900 3119 2900 3481 
Q 2900 3844 2670 4047 
Q 2441 4250 2034 4250 
Q 1625 4250 1398 4047 
Q 1172 3844 1172 3481 
z
" id="DejaVuSans-38" transform="scale(0.015625)"/>
       </defs>
       <use xlink:href="#DejaVuSans-30"/>
       <use x="63.623047" xlink:href="#DejaVuSans-2e"/>
       <use x="95.410156" xlink:href="#DejaVuSans-38"/>
      </g>
     </g>
    </g>
    <g id="xtick_6">
     <g id="line2d_6">
      <g>
       <use style="stroke:#000000;stroke-width:0.8;" x="384.96" xlink:href="#m84bc4c4cdb" y="307.584"/>
      </g>
     </g>
     <g id="text_6">
      <!-- 1.0 -->
      <g transform="translate(377.008438 322.182437)scale(0.1 -0.1)">
       <defs>
        <path d="M 794 531 
L 1825 531 
L 1825 4091 
L 703 3866 
L 703 4441 
L 1819 4666 
L 2450 4666 
L 2450 531 
L 3481 531 
L 3481 0 
L 794 0 
L 794 531 
z
" id="DejaVuSans-31" transform="scale(0.015625)"/>
       </defs>
       <use xlink:href="#DejaVuSans-31"/>
       <use x="63.623047" xlink:href="#DejaVuSans-2e"/>
       <use x="95.410156" xlink:href="#DejaVuSans-30"/>
      </g>
     </g>
    </g>
    <g id="text_7">
     <!-- False Positive Rate -->
     <g transform="translate(189.693594 335.860562)scale(0.1 -0.1)">
      <defs>
       <path d="M 628 4666 
L 3309 4666 
L 3309 4134 
L 1259 4134 
L 1259 2759 
L 3109 2759 
L 3109 2228 
L 1259 2228 
L 1259 0 
L 628 0 
L 628 4666 
z
" id="DejaVuSans-46" transform="scale(0.015625)"/>
       <path d="M 2194 1759 
Q 1497 1759 1228 1600 
Q 959 1441 959 1056 
Q 959 750 1161 570 
Q 1363 391 1709 391 
Q 2188 391 2477 730 
Q 2766 1069 2766 1631 
L 2766 1759 
L 2194 1759 
z
M 3341 1997 
L 3341 0 
L 2766 0 
L 2766 531 
Q 2569 213 2275 61 
Q 1981 -91 1556 -91 
Q 1019 -91 701 211 
Q 384 513 384 1019 
Q 384 1609 779 1909 
Q 1175 2209 1959 2209 
L 2766 2209 
L 2766 2266 
Q 2766 2663 2505 2880 
Q 2244 3097 1772 3097 
Q 1472 3097 1187 3025 
Q 903 2953 641 2809 
L 641 3341 
Q 956 3463 1253 3523 
Q 1550 3584 1831 3584 
Q 2591 3584 2966 3190 
Q 3341 2797 3341 1997 
z
" id="DejaVuSans-61" transform="scale(0.015625)"/>
       <path d="M 603 4863 
L 1178 4863 
L 1178 0 
L 603 0 
L 603 4863 
z
" id="DejaVuSans-6c" transform="scale(0.015625)"/>
       <path d="M 2834 3397 
L 2834 2853 
Q 2591 2978 2328 3040 
Q 2066 3103 1784 3103 
Q 1356 3103 1142 2972 
Q 928 2841 928 2578 
Q 928 2378 1081 2264 
Q 1234 2150 1697 2047 
L 1894 2003 
Q 2506 1872 2764 1633 
Q 3022 1394 3022 966 
Q 3022 478 2636 193 
Q 2250 -91 1575 -91 
Q 1294 -91 989 -36 
Q 684 19 347 128 
L 347 722 
Q 666 556 975 473 
Q 1284 391 1588 391 
Q 1994 391 2212 530 
Q 2431 669 2431 922 
Q 2431 1156 2273 1281 
Q 2116 1406 1581 1522 
L 1381 1569 
Q 847 1681 609 1914 
Q 372 2147 372 2553 
Q 372 3047 722 3315 
Q 1072 3584 1716 3584 
Q 2034 3584 2315 3537 
Q 2597 3491 2834 3397 
z
" id="DejaVuSans-73" transform="scale(0.015625)"/>
       <path d="M 3597 1894 
L 3597 1613 
L 953 1613 
Q 991 1019 1311 708 
Q 1631 397 2203 397 
Q 2534 397 2845 478 
Q 3156 559 3463 722 
L 3463 178 
Q 3153 47 2828 -22 
Q 2503 -91 2169 -91 
Q 1331 -91 842 396 
Q 353 884 353 1716 
Q 353 2575 817 3079 
Q 1281 3584 2069 3584 
Q 2775 3584 3186 3129 
Q 3597 2675 3597 1894 
z
M 3022 2063 
Q 3016 2534 2758 2815 
Q 2500 3097 2075 3097 
Q 1594 3097 1305 2825 
Q 1016 2553 972 2059 
L 3022 2063 
z
" id="DejaVuSans-65" transform="scale(0.015625)"/>
       <path id="DejaVuSans-20" transform="scale(0.015625)"/>
       <path d="M 1259 4147 
L 1259 2394 
L 2053 2394 
Q 2494 2394 2734 2622 
Q 2975 2850 2975 3272 
Q 2975 3691 2734 3919 
Q 2494 4147 2053 4147 
L 1259 4147 
z
M 628 4666 
L 2053 4666 
Q 2838 4666 3239 4311 
Q 3641 3956 3641 3272 
Q 3641 2581 3239 2228 
Q 2838 1875 2053 1875 
L 1259 1875 
L 1259 0 
L 628 0 
L 628 4666 
z
" id="DejaVuSans-50" transform="scale(0.015625)"/>
       <path d="M 1959 3097 
Q 1497 3097 1228 2736 
Q 959 2375 959 1747 
Q 959 1119 1226 758 
Q 1494 397 1959 397 
Q 2419 397 2687 759 
Q 2956 1122 2956 1747 
Q 2956 2369 2687 2733 
Q 2419 3097 1959 3097 
z
M 1959 3584 
Q 2709 3584 3137 3096 
Q 3566 2609 3566 1747 
Q 3566 888 3137 398 
Q 2709 -91 1959 -91 
Q 1206 -91 779 398 
Q 353 888 353 1747 
Q 353 2609 779 3096 
Q 1206 3584 1959 3584 
z
" id="DejaVuSans-6f" transform="scale(0.015625)"/>
       <path d="M 603 3500 
L 1178 3500 
L 1178 0 
L 603 0 
L 603 3500 
z
M 603 4863 
L 1178 4863 
L 1178 4134 
L 603 4134 
L 603 4863 
z
" id="DejaVuSans-69" transform="scale(0.015625)"/>
       <path d="M 1172 4494 
L 1172 3500 
L 2356 3500 
L 2356 3053 
L 1172 3053 
L 1172 1153 
Q 1172 725 1289 603 
Q 1406 481 1766 481 
L 2356 481 
L 2356 0 
L 1766 0 
Q 1100 0 847 248 
Q 594 497 594 1153 
L 594 3053 
L 172 3053 
L 172 3500 
L 594 3500 
L 594 4494 
L 1172 4494 
z
" id="DejaVuSans-74" transform="scale(0.015625)"/>
       <path d="M 191 3500 
L 800 3500 
L 1894 563 
L 2988 3500 
L 3597 3500 
L 2284 0 
L 1503 0 
L 191 3500 
z
" id="DejaVuSans-76" transform="scale(0.015625)"/>
       <path d="M 2841 2188 
Q 3044 2119 3236 1894 
Q 3428 1669 3622 1275 
L 4263 0 
L 3584 0 
L 2988 1197 
Q 2756 1666 2539 1819 
Q 2322 1972 1947 1972 
L 1259 1972 
L 1259 0 
L 628 0 
L 628 4666 
L 2053 4666 
Q 2853 4666 3247 4331 
Q 3641 3997 3641 3322 
Q 3641 2881 3436 2590 
Q 3231 2300 2841 2188 
z
M 1259 4147 
L 1259 2491 
L 2053 2491 
Q 2509 2491 2742 2702 
Q 2975 2913 2975 3322 
Q 2975 3731 2742 3939 
Q 2509 4147 2053 4147 
L 1259 4147 
z
" id="DejaVuSans-52" transform="scale(0.015625)"/>
      </defs>
      <use xlink:href="#DejaVuSans-46"/>
      <use x="48.394531" xlink:href="#DejaVuSans-61"/>
      <use x="109.673828" xlink:href="#DejaVuSans-6c"/>
      <use x="137.457031" xlink:href="#DejaVuSans-73"/>
      <use x="189.556641" xlink:href="#DejaVuSans-65"/>
      <use x="251.080078" xlink:href="#DejaVuSans-20"/>
      <use x="282.867188" xlink:href="#DejaVuSans-50"/>
      <use x="339.544922" xlink:href="#DejaVuSans-6f"/>
      <use x="400.726562" xlink:href="#DejaVuSans-73"/>
      <use x="452.826172" xlink:href="#DejaVuSans-69"/>
      <use x="480.609375" xlink:href="#DejaVuSans-74"/>
      <use x="519.818359" xlink:href="#DejaVuSans-69"/>
      <use x="547.601562" xlink:href="#DejaVuSans-76"/>
      <use x="606.78125" xlink:href="#DejaVuSans-65"/>
      <use x="668.304688" xlink:href="#DejaVuSans-20"/>
      <use x="700.091797" xlink:href="#DejaVuSans-52"/>
      <use x="767.324219" xlink:href="#DejaVuSans-61"/>
      <use x="828.603516" xlink:href="#DejaVuSans-74"/>
      <use x="867.8125" xlink:href="#DejaVuSans-65"/>
     </g>
    </g>
   </g>
   <g id="matplotlib.axis_2">
    <g id="ytick_1">
     <g id="line2d_7">
      <defs>
       <path d="M 0 0 
L -3.5 0 
" id="m057fa5cab8" style="stroke:#000000;stroke-width:0.8;"/>
      </defs>
      <g>
       <use style="stroke:#000000;stroke-width:0.8;" x="57.6" xlink:href="#m057fa5cab8" y="285.408"/>
      </g>
     </g>
     <g id="text_8">
      <!-- 0.0 -->
      <g transform="translate(34.696875 289.207219)scale(0.1 -0.1)">
       <use xlink:href="#DejaVuSans-30"/>
       <use x="63.623047" xlink:href="#DejaVuSans-2e"/>
       <use x="95.410156" xlink:href="#DejaVuSans-30"/>
      </g>
     </g>
    </g>
    <g id="ytick_2">
     <g id="line2d_8">
      <g>
       <use style="stroke:#000000;stroke-width:0.8;" x="57.6" xlink:href="#m057fa5cab8" y="241.056"/>
      </g>
     </g>
     <g id="text_9">
      <!-- 0.2 -->
      <g transform="translate(34.696875 244.855219)scale(0.1 -0.1)">
       <use xlink:href="#DejaVuSans-30"/>
       <use x="63.623047" xlink:href="#DejaVuSans-2e"/>
       <use x="95.410156" xlink:href="#DejaVuSans-32"/>
      </g>
     </g>
    </g>
    <g id="ytick_3">
     <g id="line2d_9">
      <g>
       <use style="stroke:#000000;stroke-width:0.8;" x="57.6" xlink:href="#m057fa5cab8" y="196.704"/>
      </g>
     </g>
     <g id="text_10">
      <!-- 0.4 -->
      <g transform="translate(34.696875 200.503219)scale(0.1 -0.1)">
       <use xlink:href="#DejaVuSans-30"/>
       <use x="63.623047" xlink:href="#DejaVuSans-2e"/>
       <use x="95.410156" xlink:href="#DejaVuSans-34"/>
      </g>
     </g>
    </g>
    <g id="ytick_4">
     <g id="line2d_10">
      <g>
       <use style="stroke:#000000;stroke-width:0.8;" x="57.6" xlink:href="#m057fa5cab8" y="152.352"/>
      </g>
     </g>
     <g id="text_11">
      <!-- 0.6 -->
      <g transform="translate(34.696875 156.151219)scale(0.1 -0.1)">
       <use xlink:href="#DejaVuSans-30"/>
       <use x="63.623047" xlink:href="#DejaVuSans-2e"/>
       <use x="95.410156" xlink:href="#DejaVuSans-36"/>
      </g>
     </g>
    </g>
    <g id="ytick_5">
     <g id="line2d_11">
      <g>
       <use style="stroke:#000000;stroke-width:0.8;" x="57.6" xlink:href="#m057fa5cab8" y="108"/>
      </g>
     </g>
     <g id="text_12">
      <!-- 0.8 -->
      <g transform="translate(34.696875 111.799219)scale(0.1 -0.1)">
       <use xlink:href="#DejaVuSans-30"/>
       <use x="63.623047" xlink:href="#DejaVuSans-2e"/>
       <use x="95.410156" xlink:href="#DejaVuSans-38"/>
      </g>
     </g>
    </g>
    <g id="ytick_6">
     <g id="line2d_12">
      <g>
       <use style="stroke:#000000;stroke-width:0.8;" x="57.6" xlink:href="#m057fa5cab8" y="63.648"/>
      </g>
     </g>
     <g id="text_13">
      <!-- 1.0 -->
      <g transform="translate(34.696875 67.447219)scale(0.1 -0.1)">
       <use xlink:href="#DejaVuSans-31"/>
       <use x="63.623047" xlink:href="#DejaVuSans-2e"/>
       <use x="95.410156" xlink:href="#DejaVuSans-30"/>
      </g>
     </g>
    </g>
    <g id="text_14">
     <!-- True Positive Rate -->
     <g transform="translate(28.617187 219.057687)rotate(-90)scale(0.1 -0.1)">
      <defs>
       <path d="M -19 4666 
L 3928 4666 
L 3928 4134 
L 2272 4134 
L 2272 0 
L 1638 0 
L 1638 4134 
L -19 4134 
L -19 4666 
z
" id="DejaVuSans-54" transform="scale(0.015625)"/>
       <path d="M 2631 2963 
Q 2534 3019 2420 3045 
Q 2306 3072 2169 3072 
Q 1681 3072 1420 2755 
Q 1159 2438 1159 1844 
L 1159 0 
L 581 0 
L 581 3500 
L 1159 3500 
L 1159 2956 
Q 1341 3275 1631 3429 
Q 1922 3584 2338 3584 
Q 2397 3584 2469 3576 
Q 2541 3569 2628 3553 
L 2631 2963 
z
" id="DejaVuSans-72" transform="scale(0.015625)"/>
       <path d="M 544 1381 
L 544 3500 
L 1119 3500 
L 1119 1403 
Q 1119 906 1312 657 
Q 1506 409 1894 409 
Q 2359 409 2629 706 
Q 2900 1003 2900 1516 
L 2900 3500 
L 3475 3500 
L 3475 0 
L 2900 0 
L 2900 538 
Q 2691 219 2414 64 
Q 2138 -91 1772 -91 
Q 1169 -91 856 284 
Q 544 659 544 1381 
z
M 1991 3584 
L 1991 3584 
z
" id="DejaVuSans-75" transform="scale(0.015625)"/>
      </defs>
      <use xlink:href="#DejaVuSans-54"/>
      <use x="46.333984" xlink:href="#DejaVuSans-72"/>
      <use x="87.447266" xlink:href="#DejaVuSans-75"/>
      <use x="150.826172" xlink:href="#DejaVuSans-65"/>
      <use x="212.349609" xlink:href="#DejaVuSans-20"/>
      <use x="244.136719" xlink:href="#DejaVuSans-50"/>
      <use x="300.814453" xlink:href="#DejaVuSans-6f"/>
      <use x="361.996094" xlink:href="#DejaVuSans-73"/>
      <use x="414.095703" xlink:href="#DejaVuSans-69"/>
      <use x="441.878906" xlink:href="#DejaVuSans-74"/>
      <use x="481.087891" xlink:href="#DejaVuSans-69"/>
      <use x="508.871094" xlink:href="#DejaVuSans-76"/>
      <use x="568.050781" xlink:href="#DejaVuSans-65"/>
      <use x="629.574219" xlink:href="#DejaVuSans-20"/>
      <use x="661.361328" xlink:href="#DejaVuSans-52"/>
      <use x="728.59375" xlink:href="#DejaVuSans-61"/>
      <use x="789.873047" xlink:href="#DejaVuSans-74"/>
      <use x="829.082031" xlink:href="#DejaVuSans-65"/>
     </g>
    </g>
   </g>
   <g id="line2d_13">
    <path clip-path="url(#p11a3bed4be)" d="M 87.36 285.408 
L 87.373112 285.408 
L 87.478007 273.890535 
L 87.491119 273.890535 
L 87.596014 255.150254 
L 87.609125 255.150254 
L 87.71402 237.971662 
L 87.727132 237.971662 
L 87.832027 224.892507 
L 87.845139 224.892507 
L 87.936922 215.912789 
L 87.950034 215.912789 
L 87.963146 215.912789 
L 88.054929 208.885183 
L 88.068041 208.885183 
L 88.081153 208.885183 
L 88.186047 200.295887 
L 88.199159 200.295887 
L 88.304054 189.364056 
L 88.317166 189.364056 
L 88.422061 184.483775 
L 88.435173 184.483775 
L 88.540068 177.456169 
L 88.55318 177.456169 
L 88.644963 172.771099 
L 88.658075 172.771099 
L 88.671187 172.771099 
L 88.776081 166.719549 
L 88.789193 166.719549 
L 88.894088 162.22969 
L 88.920312 162.22969 
L 89.025207 155.397296 
L 89.038319 155.397296 
L 89.11699 151.688282 
L 89.143214 151.688282 
L 89.156326 151.688282 
L 89.26122 145.441521 
L 89.274332 145.441521 
L 89.379227 139.780394 
L 89.392339 139.780394 
L 89.497234 137.63307 
L 89.510346 137.63307 
L 89.602129 135.876169 
L 89.615241 135.876169 
L 89.628353 135.876169 
L 89.733248 132.752789 
L 89.746359 132.752789 
L 89.838142 131.38631 
L 89.851254 131.38631 
L 89.864366 131.38631 
L 89.969261 128.458141 
L 89.982373 128.458141 
L 90.087268 123.77307 
L 90.113492 123.77307 
L 90.218387 122.797014 
L 90.270834 122.797014 
L 90.362617 120.259268 
L 90.375729 120.259268 
L 90.388841 120.259268 
L 90.493736 117.331099 
L 90.572407 117.331099 
L 90.677302 113.036451 
L 90.690414 113.036451 
L 90.795309 110.498704 
L 90.821532 110.498704 
L 90.926427 107.570535 
L 90.939539 107.570535 
L 91.044434 105.423211 
L 91.057546 105.423211 
L 91.149329 102.10462 
L 91.162441 102.10462 
L 91.214888 102.10462 
L 91.319783 99.566873 
L 91.385343 99.566873 
L 91.490237 97.614761 
L 91.503349 97.614761 
L 91.608244 95.272225 
L 91.621356 95.272225 
L 91.726251 93.710535 
L 91.778699 93.710535 
L 91.85737 91.953634 
L 91.883593 91.953634 
L 91.896705 91.953634 
L 91.988488 90.001521 
L 92.0016 90.001521 
L 92.106495 90.001521 
L 92.21139 86.68293 
L 92.224502 86.68293 
L 92.316285 84.340394 
L 92.329397 84.340394 
L 92.342509 84.340394 
L 92.394956 82.778704 
L 92.447404 82.778704 
L 92.539187 82.778704 
L 92.644082 80.826592 
L 92.657193 80.826592 
L 92.696529 80.045746 
L 92.762088 80.045746 
L 92.958766 80.045746 
L 93.024326 79.264901 
L 93.063661 79.264901 
L 93.076773 79.264901 
L 93.168556 78.093634 
L 93.181668 78.093634 
L 93.19478 78.093634 
L 93.286563 77.117577 
L 93.299675 77.117577 
L 93.417682 77.117577 
L 93.483241 76.336732 
L 93.522577 76.336732 
L 93.5488 76.336732 
L 93.653695 74.970254 
L 93.679919 74.970254 
L 93.75859 74.189408 
L 93.784814 74.189408 
L 93.837261 74.189408 
L 93.837261 73.994197 
L 93.942156 73.994197 
L 94.020827 73.994197 
L 94.020827 73.798986 
L 94.125722 73.798986 
L 94.138834 73.798986 
L 94.17817 73.408563 
L 94.243729 73.408563 
L 94.296177 73.408563 
L 94.374848 73.018141 
L 94.401072 73.018141 
L 94.571526 73.018141 
L 94.571526 72.82293 
L 94.676421 72.82293 
L 94.715756 72.82293 
L 94.807539 71.651662 
L 94.820651 71.651662 
L 94.859987 71.651662 
L 94.925546 71.261239 
L 94.964882 71.261239 
L 95.056665 71.261239 
L 95.109112 70.675606 
L 95.16156 70.675606 
L 95.345126 70.675606 
L 95.345126 70.285183 
L 95.450021 70.285183 
L 95.476244 70.285183 
L 95.568027 69.699549 
L 95.581139 69.699549 
L 95.620475 69.699549 
L 95.72537 68.918704 
L 95.751594 68.918704 
L 95.751594 68.723493 
L 95.856489 68.723493 
L 95.882712 68.723493 
L 95.882712 68.528282 
L 95.974495 68.528282 
L 96.040055 68.528282 
L 96.14495 67.747437 
L 96.262956 67.747437 
L 96.315404 67.357014 
L 96.367851 67.357014 
L 96.407187 67.357014 
L 96.407187 67.161803 
L 96.512082 67.161803 
L 96.551417 67.161803 
L 96.577641 66.576169 
L 96.656312 66.576169 
L 96.695648 66.576169 
L 96.695648 66.380958 
L 96.800543 66.380958 
L 97.600367 66.380958 
L 97.600367 66.185746 
L 97.705261 66.185746 
L 97.915051 66.185746 
L 97.993723 65.795324 
L 98.019946 65.795324 
L 98.282184 65.795324 
L 98.282184 65.600113 
L 98.387078 65.600113 
L 98.505085 65.600113 
L 98.505085 65.404901 
L 98.60998 65.404901 
L 99.068895 65.404901 
L 99.082007 65.014479 
L 99.17379 65.014479 
L 102.032177 65.014479 
L 102.032177 64.819268 
L 102.137072 64.819268 
L 102.33375 64.819268 
L 102.33375 64.428845 
L 102.438645 64.428845 
L 103.054902 64.428845 
L 103.081126 64.038423 
L 103.159797 64.038423 
L 103.186021 64.038423 
L 103.186021 63.843211 
L 103.290916 63.843211 
L 105.257696 63.843211 
L 105.257696 63.648 
L 105.362591 63.648 
L 384.96 63.648 
L 384.96 63.648 
" style="fill:none;stroke:#1f77b4;stroke-linecap:square;stroke-width:1.5;"/>
   </g>
   <g id="line2d_14">
    <path clip-path="url(#p11a3bed4be)" d="M 87.36 285.408 
L 87.464867 258.078423 
L 87.491084 258.078423 
L 87.595951 234.848282 
L 87.60906 234.848282 
L 87.713927 218.255324 
L 87.740144 218.255324 
L 87.845011 213.570254 
L 87.858119 213.570254 
L 87.962986 200.881521 
L 87.989203 200.881521 
L 88.09407 191.316169 
L 88.107179 191.316169 
L 88.212046 180.579549 
L 88.225154 180.579549 
L 88.330022 174.332789 
L 88.34313 174.332789 
L 88.447997 162.815324 
L 88.487322 162.815324 
L 88.579081 160.277577 
L 88.59219 160.277577 
L 88.605298 160.277577 
L 88.697057 157.349408 
L 88.710165 157.349408 
L 88.723274 157.349408 
L 88.828141 151.102648 
L 88.841249 151.102648 
L 88.933008 145.441521 
L 88.946116 145.441521 
L 88.959225 145.441521 
L 89.037875 142.318141 
L 89.064092 142.318141 
L 89.090309 142.318141 
L 89.168959 138.218704 
L 89.195176 138.218704 
L 89.221393 138.218704 
L 89.32626 131.38631 
L 89.339368 131.38631 
L 89.418019 128.26293 
L 89.444236 128.26293 
L 89.457344 128.26293 
L 89.562211 123.577859 
L 89.57532 123.577859 
L 89.667078 121.430535 
L 89.680187 121.430535 
L 89.693295 121.430535 
L 89.785054 118.502366 
L 89.798162 118.502366 
L 89.811271 118.502366 
L 89.889921 114.988563 
L 89.916138 114.988563 
L 89.929246 114.988563 
L 90.034114 112.060394 
L 90.047222 112.060394 
L 90.152089 108.937014 
L 90.165198 108.937014 
L 90.270065 106.984901 
L 90.283173 106.984901 
L 90.38804 105.618423 
L 90.414257 105.618423 
L 90.492908 104.251944 
L 90.519124 104.251944 
L 90.532233 104.251944 
L 90.6371 102.495042 
L 90.650208 102.495042 
L 90.755076 100.54293 
L 90.768184 100.54293 
L 90.846834 99.566873 
L 90.873051 99.566873 
L 90.88616 99.566873 
L 90.991027 98.395606 
L 91.082786 98.395606 
L 91.174544 95.272225 
L 91.187653 95.272225 
L 91.200761 95.272225 
L 91.305628 91.172789 
L 91.331845 91.172789 
L 91.410496 89.611099 
L 91.436712 89.611099 
L 91.449821 89.611099 
L 91.554688 88.439831 
L 91.62023 88.439831 
L 91.633338 87.658986 
L 91.725097 87.658986 
L 91.738206 87.658986 
L 91.790639 85.511662 
L 91.843073 85.511662 
L 91.921723 85.511662 
L 92.013482 82.973915 
L 92.02659 82.973915 
L 92.144566 82.973915 
L 92.236325 81.412225 
L 92.249433 81.412225 
L 92.341192 81.412225 
L 92.432951 79.850535 
L 92.537818 79.850535 
L 92.629577 78.484056 
L 92.642685 78.484056 
L 92.668902 78.484056 
L 92.734444 77.703211 
L 92.773769 77.703211 
L 92.799986 77.703211 
L 92.878636 76.922366 
L 92.904853 76.922366 
L 92.944178 76.922366 
L 93.035937 76.531944 
L 93.049046 76.531944 
L 93.075262 76.531944 
L 93.153913 74.579831 
L 93.180129 74.579831 
L 93.193238 74.579831 
L 93.298105 73.798986 
L 93.324322 73.798986 
L 93.324322 73.018141 
L 93.429189 73.018141 
L 93.442297 73.018141 
L 93.534056 71.066028 
L 93.547165 71.066028 
L 93.599598 71.066028 
L 93.678249 70.089972 
L 93.704465 70.089972 
L 93.783116 70.089972 
L 93.887983 69.699549 
L 94.045284 69.699549 
L 94.110826 69.113915 
L 94.150151 69.113915 
L 94.163259 69.113915 
L 94.228801 68.723493 
L 94.268127 68.723493 
L 94.333669 68.723493 
L 94.386102 68.33307 
L 94.438536 68.33307 
L 94.556511 68.33307 
L 94.556511 68.137859 
L 94.661379 68.137859 
L 94.779354 68.137859 
L 94.844896 67.747437 
L 94.884221 67.747437 
L 94.89733 67.747437 
L 94.89733 67.357014 
L 95.002197 67.357014 
L 95.028414 67.357014 
L 95.107064 66.966592 
L 95.133281 66.966592 
L 95.185715 66.966592 
L 95.185715 66.77138 
L 95.290582 66.77138 
L 95.356124 66.77138 
L 95.369232 66.380958 
L 95.460991 66.380958 
L 95.526533 66.380958 
L 95.526533 66.185746 
L 95.6314 66.185746 
L 95.893568 66.185746 
L 95.893568 65.990535 
L 95.998435 65.990535 
L 96.168845 65.990535 
L 96.168845 65.795324 
L 96.273712 65.795324 
L 96.798048 65.795324 
L 96.798048 65.600113 
L 96.902915 65.600113 
L 97.178191 65.600113 
L 97.178191 65.404901 
L 97.283059 65.404901 
L 97.964695 65.404901 
L 97.964695 65.20969 
L 98.069563 65.20969 
L 98.987151 65.20969 
L 98.987151 65.014479 
L 99.092018 65.014479 
L 99.223102 65.014479 
L 99.327969 64.624056 
L 99.81298 64.624056 
L 99.81298 64.428845 
L 99.917847 64.428845 
L 100.048931 64.428845 
L 100.048931 64.233634 
L 100.153798 64.233634 
L 100.166907 64.233634 
L 100.166907 64.038423 
L 100.271774 64.038423 
L 102.067625 64.038423 
L 102.067625 63.843211 
L 102.172492 63.843211 
L 108.136814 63.843211 
L 108.136814 63.648 
L 108.241681 63.648 
L 384.96 63.648 
L 384.96 63.648 
" style="fill:none;stroke:#ff7f0e;stroke-dasharray:9.6,2.4,1.5,2.4;stroke-dashoffset:0;stroke-width:1.5;"/>
   </g>
   <g id="patch_4">
    <path d="M 57.6 307.584 
L 57.6 41.472 
" style="fill:none;stroke:#000000;stroke-linecap:square;stroke-linejoin:miter;stroke-width:0.8;"/>
   </g>
   <g id="patch_5">
    <path d="M 414.72 307.584 
L 414.72 41.472 
" style="fill:none;stroke:#000000;stroke-linecap:square;stroke-linejoin:miter;stroke-width:0.8;"/>
   </g>
   <g id="patch_6">
    <path d="M 57.6 307.584 
L 414.72 307.584 
" style="fill:none;stroke:#000000;stroke-linecap:square;stroke-linejoin:miter;stroke-width:0.8;"/>
   </g>
   <g id="patch_7">
    <path d="M 57.6 41.472 
L 414.72 41.472 
" style="fill:none;stroke:#000000;stroke-linecap:square;stroke-linejoin:miter;stroke-width:0.8;"/>
   </g>
   <g id="legend_1">
    <g id="patch_8">
     <path d="M 246.11375 302.584 
L 407.72 302.584 
Q 409.72 302.584 409.72 300.584 
L 409.72 272.22775 
Q 409.72 270.22775 407.72 270.22775 
L 246.11375 270.22775 
Q 244.11375 270.22775 244.11375 272.22775 
L 244.11375 300.584 
Q 244.11375 302.584 246.11375 302.584 
z
" style="fill:#ffffff;opacity:0.8;stroke:#cccccc;stroke-linejoin:miter;"/>
    </g>
    <g id="line2d_15">
     <path d="M 248.11375 278.326187 
L 268.11375 278.326187 
" style="fill:none;stroke:#1f77b4;stroke-linecap:square;stroke-width:1.5;"/>
    </g>
    <g id="line2d_16"/>
    <g id="text_15">
     <!-- WMM model (auc: 0.993) -->
     <g transform="translate(276.11375 281.826187)scale(0.1 -0.1)">
      <defs>
       <path d="M 213 4666 
L 850 4666 
L 1831 722 
L 2809 4666 
L 3519 4666 
L 4500 722 
L 5478 4666 
L 6119 4666 
L 4947 0 
L 4153 0 
L 3169 4050 
L 2175 0 
L 1381 0 
L 213 4666 
z
" id="DejaVuSans-57" transform="scale(0.015625)"/>
       <path d="M 628 4666 
L 1569 4666 
L 2759 1491 
L 3956 4666 
L 4897 4666 
L 4897 0 
L 4281 0 
L 4281 4097 
L 3078 897 
L 2444 897 
L 1241 4097 
L 1241 0 
L 628 0 
L 628 4666 
z
" id="DejaVuSans-4d" transform="scale(0.015625)"/>
       <path d="M 3328 2828 
Q 3544 3216 3844 3400 
Q 4144 3584 4550 3584 
Q 5097 3584 5394 3201 
Q 5691 2819 5691 2113 
L 5691 0 
L 5113 0 
L 5113 2094 
Q 5113 2597 4934 2840 
Q 4756 3084 4391 3084 
Q 3944 3084 3684 2787 
Q 3425 2491 3425 1978 
L 3425 0 
L 2847 0 
L 2847 2094 
Q 2847 2600 2669 2842 
Q 2491 3084 2119 3084 
Q 1678 3084 1418 2786 
Q 1159 2488 1159 1978 
L 1159 0 
L 581 0 
L 581 3500 
L 1159 3500 
L 1159 2956 
Q 1356 3278 1631 3431 
Q 1906 3584 2284 3584 
Q 2666 3584 2933 3390 
Q 3200 3197 3328 2828 
z
" id="DejaVuSans-6d" transform="scale(0.015625)"/>
       <path d="M 2906 2969 
L 2906 4863 
L 3481 4863 
L 3481 0 
L 2906 0 
L 2906 525 
Q 2725 213 2448 61 
Q 2172 -91 1784 -91 
Q 1150 -91 751 415 
Q 353 922 353 1747 
Q 353 2572 751 3078 
Q 1150 3584 1784 3584 
Q 2172 3584 2448 3432 
Q 2725 3281 2906 2969 
z
M 947 1747 
Q 947 1113 1208 752 
Q 1469 391 1925 391 
Q 2381 391 2643 752 
Q 2906 1113 2906 1747 
Q 2906 2381 2643 2742 
Q 2381 3103 1925 3103 
Q 1469 3103 1208 2742 
Q 947 2381 947 1747 
z
" id="DejaVuSans-64" transform="scale(0.015625)"/>
       <path d="M 1984 4856 
Q 1566 4138 1362 3434 
Q 1159 2731 1159 2009 
Q 1159 1288 1364 580 
Q 1569 -128 1984 -844 
L 1484 -844 
Q 1016 -109 783 600 
Q 550 1309 550 2009 
Q 550 2706 781 3412 
Q 1013 4119 1484 4856 
L 1984 4856 
z
" id="DejaVuSans-28" transform="scale(0.015625)"/>
       <path d="M 3122 3366 
L 3122 2828 
Q 2878 2963 2633 3030 
Q 2388 3097 2138 3097 
Q 1578 3097 1268 2742 
Q 959 2388 959 1747 
Q 959 1106 1268 751 
Q 1578 397 2138 397 
Q 2388 397 2633 464 
Q 2878 531 3122 666 
L 3122 134 
Q 2881 22 2623 -34 
Q 2366 -91 2075 -91 
Q 1284 -91 818 406 
Q 353 903 353 1747 
Q 353 2603 823 3093 
Q 1294 3584 2113 3584 
Q 2378 3584 2631 3529 
Q 2884 3475 3122 3366 
z
" id="DejaVuSans-63" transform="scale(0.015625)"/>
       <path d="M 750 794 
L 1409 794 
L 1409 0 
L 750 0 
L 750 794 
z
M 750 3309 
L 1409 3309 
L 1409 2516 
L 750 2516 
L 750 3309 
z
" id="DejaVuSans-3a" transform="scale(0.015625)"/>
       <path d="M 703 97 
L 703 672 
Q 941 559 1184 500 
Q 1428 441 1663 441 
Q 2288 441 2617 861 
Q 2947 1281 2994 2138 
Q 2813 1869 2534 1725 
Q 2256 1581 1919 1581 
Q 1219 1581 811 2004 
Q 403 2428 403 3163 
Q 403 3881 828 4315 
Q 1253 4750 1959 4750 
Q 2769 4750 3195 4129 
Q 3622 3509 3622 2328 
Q 3622 1225 3098 567 
Q 2575 -91 1691 -91 
Q 1453 -91 1209 -44 
Q 966 3 703 97 
z
M 1959 2075 
Q 2384 2075 2632 2365 
Q 2881 2656 2881 3163 
Q 2881 3666 2632 3958 
Q 2384 4250 1959 4250 
Q 1534 4250 1286 3958 
Q 1038 3666 1038 3163 
Q 1038 2656 1286 2365 
Q 1534 2075 1959 2075 
z
" id="DejaVuSans-39" transform="scale(0.015625)"/>
       <path d="M 2597 2516 
Q 3050 2419 3304 2112 
Q 3559 1806 3559 1356 
Q 3559 666 3084 287 
Q 2609 -91 1734 -91 
Q 1441 -91 1130 -33 
Q 819 25 488 141 
L 488 750 
Q 750 597 1062 519 
Q 1375 441 1716 441 
Q 2309 441 2620 675 
Q 2931 909 2931 1356 
Q 2931 1769 2642 2001 
Q 2353 2234 1838 2234 
L 1294 2234 
L 1294 2753 
L 1863 2753 
Q 2328 2753 2575 2939 
Q 2822 3125 2822 3475 
Q 2822 3834 2567 4026 
Q 2313 4219 1838 4219 
Q 1578 4219 1281 4162 
Q 984 4106 628 3988 
L 628 4550 
Q 988 4650 1302 4700 
Q 1616 4750 1894 4750 
Q 2613 4750 3031 4423 
Q 3450 4097 3450 3541 
Q 3450 3153 3228 2886 
Q 3006 2619 2597 2516 
z
" id="DejaVuSans-33" transform="scale(0.015625)"/>
       <path d="M 513 4856 
L 1013 4856 
Q 1481 4119 1714 3412 
Q 1947 2706 1947 2009 
Q 1947 1309 1714 600 
Q 1481 -109 1013 -844 
L 513 -844 
Q 928 -128 1133 580 
Q 1338 1288 1338 2009 
Q 1338 2731 1133 3434 
Q 928 4138 513 4856 
z
" id="DejaVuSans-29" transform="scale(0.015625)"/>
      </defs>
      <use xlink:href="#DejaVuSans-57"/>
      <use x="98.876953" xlink:href="#DejaVuSans-4d"/>
      <use x="185.15625" xlink:href="#DejaVuSans-4d"/>
      <use x="271.435547" xlink:href="#DejaVuSans-20"/>
      <use x="303.222656" xlink:href="#DejaVuSans-6d"/>
      <use x="400.634766" xlink:href="#DejaVuSans-6f"/>
      <use x="461.816406" xlink:href="#DejaVuSans-64"/>
      <use x="525.292969" xlink:href="#DejaVuSans-65"/>
      <use x="586.816406" xlink:href="#DejaVuSans-6c"/>
      <use x="614.599609" xlink:href="#DejaVuSans-20"/>
      <use x="646.386719" xlink:href="#DejaVuSans-28"/>
      <use x="685.400391" xlink:href="#DejaVuSans-61"/>
      <use x="746.679688" xlink:href="#DejaVuSans-75"/>
      <use x="810.058594" xlink:href="#DejaVuSans-63"/>
      <use x="865.039062" xlink:href="#DejaVuSans-3a"/>
      <use x="898.730469" xlink:href="#DejaVuSans-20"/>
      <use x="930.517578" xlink:href="#DejaVuSans-30"/>
      <use x="994.140625" xlink:href="#DejaVuSans-2e"/>
      <use x="1025.927734" xlink:href="#DejaVuSans-39"/>
      <use x="1089.550781" xlink:href="#DejaVuSans-39"/>
      <use x="1153.173828" xlink:href="#DejaVuSans-33"/>
      <use x="1216.796875" xlink:href="#DejaVuSans-29"/>
     </g>
    </g>
    <g id="line2d_17">
     <path d="M 248.11375 293.004312 
L 268.11375 293.004312 
" style="fill:none;stroke:#ff7f0e;stroke-dasharray:9.6,2.4,1.5,2.4;stroke-dashoffset:0;stroke-width:1.5;"/>
    </g>
    <g id="line2d_18"/>
    <g id="text_16">
     <!-- WAM model (auc: 0.9942) -->
     <g transform="translate(276.11375 296.504312)scale(0.1 -0.1)">
      <defs>
       <path d="M 2188 4044 
L 1331 1722 
L 3047 1722 
L 2188 4044 
z
M 1831 4666 
L 2547 4666 
L 4325 0 
L 3669 0 
L 3244 1197 
L 1141 1197 
L 716 0 
L 50 0 
L 1831 4666 
z
" id="DejaVuSans-41" transform="scale(0.015625)"/>
      </defs>
      <use xlink:href="#DejaVuSans-57"/>
      <use x="93.376953" xlink:href="#DejaVuSans-41"/>
      <use x="161.785156" xlink:href="#DejaVuSans-4d"/>
      <use x="248.064453" xlink:href="#DejaVuSans-20"/>
      <use x="279.851562" xlink:href="#DejaVuSans-6d"/>
      <use x="377.263672" xlink:href="#DejaVuSans-6f"/>
      <use x="438.445312" xlink:href="#DejaVuSans-64"/>
      <use x="501.921875" xlink:href="#DejaVuSans-65"/>
      <use x="563.445312" xlink:href="#DejaVuSans-6c"/>
      <use x="591.228516" xlink:href="#DejaVuSans-20"/>
      <use x="623.015625" xlink:href="#DejaVuSans-28"/>
      <use x="662.029297" xlink:href="#DejaVuSans-61"/>
      <use x="723.308594" xlink:href="#DejaVuSans-75"/>
      <use x="786.6875" xlink:href="#DejaVuSans-63"/>
      <use x="841.667969" xlink:href="#DejaVuSans-3a"/>
      <use x="875.359375" xlink:href="#DejaVuSans-20"/>
      <use x="907.146484" xlink:href="#DejaVuSans-30"/>
      <use x="970.769531" xlink:href="#DejaVuSans-2e"/>
      <use x="1002.556641" xlink:href="#DejaVuSans-39"/>
      <use x="1066.179688" xlink:href="#DejaVuSans-39"/>
      <use x="1129.802734" xlink:href="#DejaVuSans-34"/>
      <use x="1193.425781" xlink:href="#DejaVuSans-32"/>
      <use x="1257.048828" xlink:href="#DejaVuSans-29"/>
     </g>
    </g>
   </g>
  </g>
  <g id="axes_2">
   <g id="patch_9">
    <path d="M 182.592 227.7504 
L 289.728 227.7504 
L 289.728 121.3056 
L 182.592 121.3056 
z
" style="fill:#ffffff;"/>
   </g>
   <g id="patch_10">
    <path d="M 289.728 121.3056 
L 102.24 63.648 
" style="fill:none;stroke:#000000;stroke-dasharray:3.7,1.6;stroke-dashoffset:0;stroke-linejoin:miter;"/>
   </g>
   <g id="patch_11">
    <path d="M 182.592 227.7504 
L 87.36 74.736 
" style="fill:none;stroke:#000000;stroke-dasharray:3.7,1.6;stroke-dashoffset:0;stroke-linejoin:miter;"/>
   </g>
   <g id="matplotlib.axis_3">
    <g id="xtick_7">
     <g id="line2d_19">
      <g>
       <use style="stroke:#000000;stroke-width:0.8;" x="182.592" xlink:href="#m84bc4c4cdb" y="227.7504"/>
      </g>
     </g>
     <g id="text_17">
      <!-- 0.00 -->
      <g transform="translate(171.459188 242.348838)scale(0.1 -0.1)">
       <use xlink:href="#DejaVuSans-30"/>
       <use x="63.623047" xlink:href="#DejaVuSans-2e"/>
       <use x="95.410156" xlink:href="#DejaVuSans-30"/>
       <use x="159.033203" xlink:href="#DejaVuSans-30"/>
      </g>
     </g>
    </g>
    <g id="xtick_8">
     <g id="line2d_20">
      <g>
       <use style="stroke:#000000;stroke-width:0.8;" x="225.4464" xlink:href="#m84bc4c4cdb" y="227.7504"/>
      </g>
     </g>
     <g id="text_18">
      <!-- 0.02 -->
      <g transform="translate(214.313588 242.348838)scale(0.1 -0.1)">
       <use xlink:href="#DejaVuSans-30"/>
       <use x="63.623047" xlink:href="#DejaVuSans-2e"/>
       <use x="95.410156" xlink:href="#DejaVuSans-30"/>
       <use x="159.033203" xlink:href="#DejaVuSans-32"/>
      </g>
     </g>
    </g>
    <g id="xtick_9">
     <g id="line2d_21">
      <g>
       <use style="stroke:#000000;stroke-width:0.8;" x="268.3008" xlink:href="#m84bc4c4cdb" y="227.7504"/>
      </g>
     </g>
     <g id="text_19">
      <!-- 0.04 -->
      <g transform="translate(257.167987 242.348838)scale(0.1 -0.1)">
       <use xlink:href="#DejaVuSans-30"/>
       <use x="63.623047" xlink:href="#DejaVuSans-2e"/>
       <use x="95.410156" xlink:href="#DejaVuSans-30"/>
       <use x="159.033203" xlink:href="#DejaVuSans-34"/>
      </g>
     </g>
    </g>
   </g>
   <g id="matplotlib.axis_4">
    <g id="ytick_7">
     <g id="line2d_22">
      <g>
       <use style="stroke:#000000;stroke-width:0.8;" x="182.592" xlink:href="#m057fa5cab8" y="206.46144"/>
      </g>
     </g>
     <g id="text_20">
      <!-- 0.96 -->
      <g transform="translate(153.326375 210.260659)scale(0.1 -0.1)">
       <use xlink:href="#DejaVuSans-30"/>
       <use x="63.623047" xlink:href="#DejaVuSans-2e"/>
       <use x="95.410156" xlink:href="#DejaVuSans-39"/>
       <use x="159.033203" xlink:href="#DejaVuSans-36"/>
      </g>
     </g>
    </g>
    <g id="ytick_8">
     <g id="line2d_23">
      <g>
       <use style="stroke:#000000;stroke-width:0.8;" x="182.592" xlink:href="#m057fa5cab8" y="163.88352"/>
      </g>
     </g>
     <g id="text_21">
      <!-- 0.98 -->
      <g transform="translate(153.326375 167.682739)scale(0.1 -0.1)">
       <use xlink:href="#DejaVuSans-30"/>
       <use x="63.623047" xlink:href="#DejaVuSans-2e"/>
       <use x="95.410156" xlink:href="#DejaVuSans-39"/>
       <use x="159.033203" xlink:href="#DejaVuSans-38"/>
      </g>
     </g>
    </g>
    <g id="ytick_9">
     <g id="line2d_24">
      <g>
       <use style="stroke:#000000;stroke-width:0.8;" x="182.592" xlink:href="#m057fa5cab8" y="121.3056"/>
      </g>
     </g>
     <g id="text_22">
      <!-- 1.00 -->
      <g transform="translate(153.326375 125.104819)scale(0.1 -0.1)">
       <use xlink:href="#DejaVuSans-31"/>
       <use x="63.623047" xlink:href="#DejaVuSans-2e"/>
       <use x="95.410156" xlink:href="#DejaVuSans-30"/>
       <use x="159.033203" xlink:href="#DejaVuSans-30"/>
      </g>
     </g>
    </g>
   </g>
   <g id="line2d_25">
    <path clip-path="url(#p4226f62ea1)" d="M 217.427603 346.6 
L 217.522008 342.440924 
L 217.616414 342.440924 
L 217.616414 338.692868 
L 217.710819 338.692868 
L 217.805225 338.692868 
L 217.89963 321.826614 
L 218.277252 321.826614 
L 218.277252 319.952586 
L 218.371657 319.952586 
L 218.466063 319.952586 
L 218.466063 316.20453 
L 218.560468 316.20453 
L 218.654874 316.20453 
L 218.749279 314.330501 
L 218.843684 314.330501 
L 218.843684 304.960361 
L 218.93809 304.960361 
L 219.882144 304.960361 
L 219.976549 297.464248 
L 220.070955 297.464248 
L 220.16536 291.842163 
L 220.448577 291.842163 
L 220.542982 289.968135 
L 220.637387 289.968135 
L 220.731793 284.346051 
L 220.826198 284.346051 
L 220.920604 282.472023 
L 221.015009 282.472023 
L 221.015009 278.723966 
L 221.109415 278.723966 
L 222.903118 278.723966 
L 222.903118 274.97591 
L 222.997523 274.97591 
L 223.280739 274.97591 
L 223.375145 271.227854 
L 223.752767 271.227854 
L 223.752767 269.353825 
L 223.847172 269.353825 
L 223.941577 269.353825 
L 223.941577 265.605769 
L 224.035983 265.605769 
L 224.224794 265.605769 
L 224.319199 261.857713 
L 224.413605 261.857713 
L 224.50801 259.983685 
L 224.602415 259.983685 
L 224.696821 252.487572 
L 225.263253 252.487572 
L 225.357659 250.613544 
L 226.207308 250.613544 
L 226.207308 246.865487 
L 226.301713 246.865487 
L 226.396119 246.865487 
L 226.490524 244.991459 
L 226.679335 244.991459 
L 226.77374 243.117431 
L 227.151362 243.117431 
L 227.245767 237.495346 
L 227.717795 237.495346 
L 227.8122 231.873262 
L 227.906605 231.873262 
L 228.001011 229.999234 
L 228.095416 229.999234 
L 228.189822 228.125206 
L 228.473038 228.125206 
L 228.473038 226.251177 
L 228.567443 226.251177 
L 228.661849 226.251177 
L 228.661849 222.503121 
L 228.756254 222.503121 
L 229.228281 222.503121 
L 229.322687 220.629093 
L 230.549957 220.629093 
L 230.549957 218.755065 
L 230.644363 218.755065 
L 231.399606 218.755065 
L 231.399606 216.881037 
L 231.494012 216.881037 
L 231.682823 216.881037 
L 231.777228 215.007008 
L 232.532471 215.007008 
L 232.626877 213.13298 
L 233.098904 213.13298 
L 233.098904 211.258952 
L 233.193309 211.258952 
L 234.514985 211.258952 
L 234.609391 209.384924 
L 235.553445 209.384924 
L 235.647851 201.888811 
L 236.119878 201.888811 
L 236.214283 198.140755 
L 236.591905 198.140755 
L 236.591905 196.266727 
L 236.68631 196.266727 
L 237.063932 196.266727 
L 237.063932 194.392699 
L 238.007986 194.392699 
L 238.007986 192.51867 
L 238.102392 192.51867 
L 238.385608 192.51867 
L 238.385608 188.770614 
L 238.480013 188.770614 
L 240.084906 188.770614 
L 240.179311 185.022558 
L 241.02896 185.022558 
L 241.02896 183.14853 
L 241.123365 183.14853 
L 241.217771 183.14853 
L 241.217771 181.274501 
L 241.312176 181.274501 
L 241.689798 181.274501 
L 241.689798 179.400473 
L 241.784203 179.400473 
L 242.06742 179.400473 
L 242.06742 177.526445 
L 242.161825 177.526445 
L 242.539447 177.526445 
L 242.633852 173.778389 
L 242.822663 173.778389 
L 242.822663 171.904361 
L 242.917069 171.904361 
L 243.011474 171.904361 
L 243.011474 170.030332 
L 243.105879 170.030332 
L 243.955528 170.030332 
L 243.955528 168.156304 
L 244.049934 168.156304 
L 245.088393 168.156304 
L 245.088393 166.282276 
L 245.182799 166.282276 
L 245.749231 166.282276 
L 245.843637 160.660192 
L 246.693286 160.660192 
L 246.693286 158.786163 
L 246.787691 158.786163 
L 247.070907 158.786163 
L 247.070907 156.912135 
L 247.165313 156.912135 
L 247.731745 156.912135 
L 247.731745 155.038107 
L 247.826151 155.038107 
L 248.770205 155.038107 
L 248.770205 151.290051 
L 248.86461 151.290051 
L 248.959016 151.290051 
L 248.959016 149.416023 
L 249.053421 149.416023 
L 249.808665 149.416023 
L 249.808665 147.541994 
L 249.90307 147.541994 
L 256.322639 147.541994 
L 256.322639 145.667966 
L 256.417045 145.667966 
L 258.58837 145.667966 
L 258.58837 143.793938 
L 258.682775 143.793938 
L 259.154802 143.793938 
L 259.154802 141.91991 
L 259.249208 141.91991 
L 261.231722 141.91991 
L 261.231722 140.045882 
L 261.326127 140.045882 
L 262.836614 140.045882 
L 262.836614 138.171854 
L 262.931019 138.171854 
L 266.896047 138.171854 
L 266.990453 134.423797 
L 288.231674 134.423797 
L 288.231674 132.549769 
L 288.326079 132.549769 
L 289.742161 132.549769 
L 289.742161 132.549769 
" style="fill:none;stroke:#1f77b4;stroke-linecap:square;stroke-width:1.5;"/>
   </g>
   <g id="line2d_26">
    <path clip-path="url(#p4226f62ea1)" d="M 214.20946 346.6 
L 214.20946 342.440924 
L 214.303841 342.440924 
L 214.398221 342.440924 
L 214.492602 331.196755 
L 215.436406 331.196755 
L 215.530787 314.330501 
L 215.625167 314.330501 
L 215.625167 312.456473 
L 215.719548 312.456473 
L 216.002689 312.456473 
L 216.09707 306.834389 
L 217.040875 306.834389 
L 217.135255 301.212304 
L 217.229636 301.212304 
L 217.324016 295.59022 
L 217.512777 295.59022 
L 217.607157 293.716192 
L 217.701538 293.716192 
L 217.701538 291.842163 
L 217.795918 291.842163 
L 218.456582 291.842163 
L 218.550962 282.472023 
L 218.645343 282.472023 
L 218.739723 278.723966 
L 219.117245 278.723966 
L 219.117245 276.849938 
L 219.872289 276.849938 
L 219.966669 271.227854 
L 220.06105 271.227854 
L 220.06105 269.353825 
L 220.15543 269.353825 
L 220.438572 269.353825 
L 220.532952 263.731741 
L 220.816094 263.731741 
L 220.910474 258.109656 
L 221.287996 258.109656 
L 221.382377 256.235628 
L 221.759899 256.235628 
L 221.759899 254.3616 
L 221.854279 254.3616 
L 221.948659 254.3616 
L 221.948659 250.613544 
L 222.04304 250.613544 
L 222.326181 250.613544 
L 222.326181 248.739515 
L 222.420562 248.739515 
L 222.798084 248.739515 
L 222.798084 246.865487 
L 222.892464 246.865487 
L 223.458747 246.865487 
L 223.553128 244.991459 
L 223.741889 244.991459 
L 223.836269 239.369375 
L 223.93065 239.369375 
L 224.02503 229.999234 
L 224.11941 229.999234 
L 224.213791 228.125206 
L 224.308171 228.125206 
L 224.308171 226.251177 
L 224.402552 226.251177 
L 224.591313 226.251177 
L 224.591313 222.503121 
L 224.685693 222.503121 
L 225.157596 222.503121 
L 225.251976 220.629093 
L 225.346357 220.629093 
L 225.346357 218.755065 
L 225.440737 218.755065 
L 225.535118 218.755065 
L 225.535118 211.258952 
L 225.629498 211.258952 
L 226.384542 211.258952 
L 226.478922 200.014783 
L 226.667683 200.014783 
L 226.762064 194.392699 
L 227.045205 194.392699 
L 227.045205 192.51867 
L 227.139586 192.51867 
L 227.517108 192.51867 
L 227.611488 188.770614 
L 227.89463 188.770614 
L 227.89463 186.896586 
L 227.98901 186.896586 
L 228.083391 186.896586 
L 228.083391 183.14853 
L 228.177771 183.14853 
L 228.838434 183.14853 
L 228.838434 181.274501 
L 228.932815 181.274501 
L 229.593478 181.274501 
L 229.593478 179.400473 
L 229.687859 179.400473 
L 230.726044 179.400473 
L 230.820424 175.652417 
L 231.197946 175.652417 
L 231.197946 173.778389 
L 231.292327 173.778389 
L 231.575468 173.778389 
L 231.575468 171.904361 
L 231.669849 171.904361 
L 232.047371 171.904361 
L 232.047371 170.030332 
L 232.141751 170.030332 
L 232.802414 170.030332 
L 232.802414 168.156304 
L 232.896795 168.156304 
L 233.179936 168.156304 
L 233.179936 166.282276 
L 234.406883 166.282276 
L 234.406883 164.408248 
L 234.501263 164.408248 
L 236.011351 164.408248 
L 236.011351 162.53422 
L 236.105731 162.53422 
L 236.483253 162.53422 
L 236.483253 160.660192 
L 236.577634 160.660192 
L 236.860775 160.660192 
L 236.860775 156.912135 
L 236.955156 156.912135 
L 237.80458 156.912135 
L 237.80458 155.038107 
L 237.89896 155.038107 
L 238.370863 155.038107 
L 238.370863 153.164079 
L 238.465243 153.164079 
L 238.937146 153.164079 
L 238.937146 151.290051 
L 239.031526 151.290051 
L 240.164092 151.290051 
L 240.258472 147.541994 
L 241.391038 147.541994 
L 241.391038 145.667966 
L 241.485418 145.667966 
L 244.033691 145.667966 
L 244.033691 143.793938 
L 244.128072 143.793938 
L 246.015681 143.793938 
L 246.015681 141.91991 
L 246.110062 141.91991 
L 250.545944 141.91991 
L 250.545944 140.045882 
L 250.640325 140.045882 
L 253.282978 140.045882 
L 253.282978 138.171854 
L 253.377359 138.171854 
L 258.945807 138.171854 
L 258.945807 136.297825 
L 259.040187 136.297825 
L 266.307484 136.297825 
L 266.307484 134.423797 
L 266.401865 134.423797 
L 268.006333 134.423797 
L 268.006333 132.549769 
L 268.100713 132.549769 
L 268.761377 132.549769 
L 268.761377 130.675741 
L 268.855757 130.675741 
L 272.253454 130.675741 
L 272.253454 128.801713 
L 272.347835 128.801713 
L 273.952303 128.801713 
L 273.952303 126.927685 
L 274.046684 126.927685 
L 274.801727 126.927685 
L 274.801727 125.053656 
L 274.896108 125.053656 
L 288.486897 125.053656 
L 288.486897 123.179628 
L 288.581277 123.179628 
L 289.808223 123.179628 
L 289.808223 123.179628 
" style="fill:none;stroke:#ff7f0e;stroke-dasharray:9.6,2.4,1.5,2.4;stroke-dashoffset:0;stroke-width:1.5;"/>
   </g>
   <g id="patch_12">
    <path d="M 182.592 227.7504 
L 182.592 121.3056 
" style="fill:none;stroke:#000000;stroke-linecap:square;stroke-linejoin:miter;stroke-width:0.8;"/>
   </g>
   <g id="patch_13">
    <path d="M 289.728 227.7504 
L 289.728 121.3056 
" style="fill:none;stroke:#000000;stroke-linecap:square;stroke-linejoin:miter;stroke-width:0.8;"/>
   </g>
   <g id="patch_14">
    <path d="M 182.592 227.7504 
L 289.728 227.7504 
" style="fill:none;stroke:#000000;stroke-linecap:square;stroke-linejoin:miter;stroke-width:0.8;"/>
   </g>
   <g id="patch_15">
    <path d="M 182.592 121.3056 
L 289.728 121.3056 
" style="fill:none;stroke:#000000;stroke-linecap:square;stroke-linejoin:miter;stroke-width:0.8;"/>
   </g>
  </g>
 </g>
 <defs>
  <clipPath id="p11a3bed4be">
   <rect height="266.112" width="357.12" x="57.6" y="41.472"/>
  </clipPath>
  <clipPath id="p4226f62ea1">
   <rect height="106.4448" width="107.136" x="182.592" y="121.3056"/>
  </clipPath>
 </defs>
</svg>
